<?xml version="1.0" encoding="UTF-8" standalone="no"?>
<!DOCTYPE svg PUBLIC "-//W3C//DTD SVG 1.1//EN"
 "http://www.w3.org/Graphics/SVG/1.1/DTD/svg11.dtd">
<!-- Generated by graphviz version 7.0.5 (20221223.1930)
 -->
<!-- Title: a_star_maze_path_nav_to_buffer Pages: 1 -->
<svg width="418pt" height="189pt"
 viewBox="0.00 0.00 418.00 188.50" xmlns="http://www.w3.org/2000/svg" xmlns:xlink="http://www.w3.org/1999/xlink">
<g id="graph0" class="graph" transform="scale(1 1) rotate(0) translate(4 184.5)">
<title>a_star_maze_path_nav_to_buffer</title>
<!-- Node1 -->
<g id="node1" class="node">
<title>Node1</title>
<g id="a_node1"><a xlink:title="Inserts the maze, path and navigator state into a buffer.">
<polygon fill="#999999" stroke="#666666" points="117,-110 0,-110 0,-80 117,-80 117,-110"/>
<text text-anchor="start" x="8" y="-98" font-family="Helvetica,sans-Serif" font-size="10.00">a_star_maze_path_nav</text>
<text text-anchor="middle" x="58.5" y="-87" font-family="Helvetica,sans-Serif" font-size="10.00">_to_buffer</text>
</a>
</g>
</g>
<!-- Node2 -->
<g id="node2" class="node">
<title>Node2</title>
<g id="a_node2"><a xlink:href="a__star_8c.html#a454e910ecd336d1249010e468f6b2c07" target="_top" xlink:title="Inserts the path in coordinates from the start node to the end node into a buffer.">
<polygon fill="white" stroke="#666666" points="263,-180.5 153,-180.5 153,-161.5 263,-161.5 263,-180.5"/>
<text text-anchor="middle" x="208" y="-168.5" font-family="Helvetica,sans-Serif" font-size="10.00">a_star_path_to_buffer</text>
</a>
</g>
</g>
<!-- Node1&#45;&gt;Node2 -->
<g id="edge1" class="edge">
<title>Node1&#45;&gt;Node2</title>
<path fill="none" stroke="#63b8ff" d="M85.76,-110.43C104.32,-121.13 129.9,-135.47 153,-147 159.45,-150.22 166.42,-153.47 173.14,-156.51"/>
<polygon fill="#63b8ff" stroke="#63b8ff" points="171.45,-159.59 182.01,-160.44 174.29,-153.19 171.45,-159.59"/>
</g>
<!-- Node3 -->
<g id="node3" class="node">
<title>Node3</title>
<g id="a_node3"><a xlink:href="maze_8c.html#a54d2a340d7b8fa00c0c3e989fa8657d1" target="_top" xlink:title="Helper function to convert a uint16_t to a uint8_t buffer.">
<polygon fill="white" stroke="#666666" points="410,-129 299,-129 299,-99 410,-99 410,-129"/>
<text text-anchor="start" x="307" y="-117" font-family="Helvetica,sans-Serif" font-size="10.00">maze_uint16_to_uint8</text>
<text text-anchor="middle" x="354.5" y="-106" font-family="Helvetica,sans-Serif" font-size="10.00">_buffer</text>
</a>
</g>
</g>
<!-- Node1&#45;&gt;Node3 -->
<g id="edge8" class="edge">
<title>Node1&#45;&gt;Node3</title>
<path fill="none" stroke="#63b8ff" d="M117.08,-108.58C128.9,-110.84 141.3,-112.82 153,-114 197.76,-118.5 248.43,-118.46 287.63,-117.31"/>
<polygon fill="#63b8ff" stroke="#63b8ff" points="287.5,-120.82 297.38,-116.99 287.27,-113.82 287.5,-120.82"/>
</g>
<!-- Node4 -->
<g id="node4" class="node">
<title>Node4</title>
<g id="a_node4"><a xlink:href="maze_8c.html#a39f5fccadb0b4834e38f62f3f11ad270" target="_top" xlink:title="Serialises the navigator state into a uint8_t buffer. The buffer is set with the navigator&#39;s coordina...">
<polygon fill="white" stroke="#666666" points="260,-104.5 156,-104.5 156,-85.5 260,-85.5 260,-104.5"/>
<text text-anchor="middle" x="208" y="-92.5" font-family="Helvetica,sans-Serif" font-size="10.00">maze_nav_to_buffer</text>
</a>
</g>
</g>
<!-- Node1&#45;&gt;Node4 -->
<g id="edge3" class="edge">
<title>Node1&#45;&gt;Node4</title>
<path fill="none" stroke="#63b8ff" d="M117.37,-95C126.13,-95 135.19,-95 144.05,-95"/>
<polygon fill="#63b8ff" stroke="#63b8ff" points="144.01,-98.5 154.01,-95 144.01,-91.5 144.01,-98.5"/>
</g>
<!-- Node5 -->
<g id="node5" class="node">
<title>Node5</title>
<g id="a_node5"><a xlink:href="maze_8c.html#a35e70f881f107a45f52eab387e71c61c" target="_top" xlink:title="Serialises the maze into a bitmask array. maze_deserialise.">
<polygon fill="white" stroke="#666666" points="248.5,-67.5 167.5,-67.5 167.5,-48.5 248.5,-48.5 248.5,-67.5"/>
<text text-anchor="middle" x="208" y="-55.5" font-family="Helvetica,sans-Serif" font-size="10.00">maze_serialise</text>
</a>
</g>
</g>
<!-- Node1&#45;&gt;Node5 -->
<g id="edge5" class="edge">
<title>Node1&#45;&gt;Node5</title>
<path fill="none" stroke="#63b8ff" d="M117.37,-80.48C130.36,-77.23 144.03,-73.8 156.68,-70.62"/>
<polygon fill="#63b8ff" stroke="#63b8ff" points="157.17,-74.11 166.02,-68.28 155.47,-67.32 157.17,-74.11"/>
</g>
<!-- Node6 -->
<g id="node6" class="node">
<title>Node6</title>
<g id="a_node6"><a xlink:href="maze_8c.html#aae2cf92e83b0810d22411db9fbea4d94" target="_top" xlink:title="Serialises the maze into a uint8_t buffer.">
<polygon fill="white" stroke="#666666" points="258,-30 158,-30 158,0 258,0 258,-30"/>
<text text-anchor="start" x="166" y="-18" font-family="Helvetica,sans-Serif" font-size="10.00">maze_serialised_to</text>
<text text-anchor="middle" x="208" y="-7" font-family="Helvetica,sans-Serif" font-size="10.00">_buffer</text>
</a>
</g>
</g>
<!-- Node1&#45;&gt;Node6 -->
<g id="edge6" class="edge">
<title>Node1&#45;&gt;Node6</title>
<path fill="none" stroke="#63b8ff" d="M84.13,-79.62C102.77,-68.2 129.15,-52.5 153,-40 156.01,-38.42 159.15,-36.83 162.32,-35.27"/>
<polygon fill="#63b8ff" stroke="#63b8ff" points="163.62,-38.52 171.11,-31.03 160.58,-32.22 163.62,-38.52"/>
</g>
<!-- Node2&#45;&gt;Node3 -->
<g id="edge2" class="edge">
<title>Node2&#45;&gt;Node3</title>
<path fill="none" stroke="#63b8ff" d="M234.17,-161.07C253.38,-153.49 280.46,-142.81 303.97,-133.54"/>
<polygon fill="#63b8ff" stroke="#63b8ff" points="305.05,-136.87 313.07,-129.95 302.48,-130.36 305.05,-136.87"/>
</g>
<!-- Node4&#45;&gt;Node3 -->
<g id="edge4" class="edge">
<title>Node4&#45;&gt;Node3</title>
<path fill="none" stroke="#63b8ff" d="M260.35,-101.75C269.14,-102.91 278.37,-104.12 287.47,-105.32"/>
<polygon fill="#63b8ff" stroke="#63b8ff" points="287.02,-108.79 297.39,-106.62 287.93,-101.85 287.02,-108.79"/>
</g>
<!-- Node6&#45;&gt;Node3 -->
<g id="edge7" class="edge">
<title>Node6&#45;&gt;Node3</title>
<path fill="none" stroke="#63b8ff" d="M245.68,-30.45C251.61,-33.38 257.57,-36.6 263,-40 286.88,-54.95 311.47,-75.45 328.98,-91.07"/>
<polygon fill="#63b8ff" stroke="#63b8ff" points="326.57,-93.61 336.33,-97.73 331.27,-88.43 326.57,-93.61"/>
</g>
</g>
</svg>
