<?xml version="1.0" encoding="UTF-8" standalone="no"?>
<!DOCTYPE svg PUBLIC "-//W3C//DTD SVG 1.1//EN"
 "http://www.w3.org/Graphics/SVG/1.1/DTD/svg11.dtd">
<!-- Generated by graphviz version 7.0.5 (20221223.1930)
 -->
<!-- Title: src/pathfinding/a_star.h Pages: 1 -->
<svg width="175pt" height="192pt"
 viewBox="0.00 0.00 175.00 192.00" xmlns="http://www.w3.org/2000/svg" xmlns:xlink="http://www.w3.org/1999/xlink">
<g id="graph0" class="graph" transform="scale(1 1) rotate(0) translate(4 188)">
<title>src/pathfinding/a_star.h</title>
<!-- Node1 -->
<g id="node1" class="node">
<title>Node1</title>
<g id="a_node1"><a xlink:title="Header file for the a* algorithm.">
<polygon fill="#999999" stroke="#666666" points="131.5,-184 14.5,-184 14.5,-165 131.5,-165 131.5,-184"/>
<text text-anchor="middle" x="73" y="-172" font-family="Helvetica,sans-Serif" font-size="10.00">src/pathfinding/a_star.h</text>
</a>
</g>
</g>
<!-- Node2 -->
<g id="node2" class="node">
<title>Node2</title>
<g id="a_node2"><a xlink:title=" ">
<polygon fill="#e0e0e0" stroke="#999999" points="48,-19 0,-19 0,0 48,0 48,-19"/>
<text text-anchor="middle" x="24" y="-7" font-family="Helvetica,sans-Serif" font-size="10.00">stdint.h</text>
</a>
</g>
</g>
<!-- Node1&#45;&gt;Node2 -->
<g id="edge1" class="edge">
<title>Node1&#45;&gt;Node2</title>
<path fill="none" stroke="#63b8ff" d="M58.54,-164.55C47.36,-156.72 32.7,-144.22 26,-129 11.81,-96.77 15.7,-54.66 19.84,-30.3"/>
<polygon fill="#63b8ff" stroke="#63b8ff" points="23.21,-31.28 21.65,-20.8 16.34,-29.97 23.21,-31.28"/>
</g>
<!-- Node3 -->
<g id="node3" class="node">
<title>Node3</title>
<g id="a_node3"><a xlink:href="binary__heap_8h.html" target="_top" xlink:title="This file contains the declarations for the binary min&#45;heap used in the a* algorithm.">
<polygon fill="white" stroke="#666666" points="111,-129 35,-129 35,-110 111,-110 111,-129"/>
<text text-anchor="middle" x="73" y="-117" font-family="Helvetica,sans-Serif" font-size="10.00">binary_heap.h</text>
</a>
</g>
</g>
<!-- Node1&#45;&gt;Node3 -->
<g id="edge2" class="edge">
<title>Node1&#45;&gt;Node3</title>
<path fill="none" stroke="#63b8ff" d="M73,-164.75C73,-158.27 73,-149.16 73,-140.9"/>
<polygon fill="#63b8ff" stroke="#63b8ff" points="76.5,-140.96 73,-130.96 69.5,-140.96 76.5,-140.96"/>
</g>
<!-- Node4 -->
<g id="node4" class="node">
<title>Node4</title>
<g id="a_node4"><a xlink:href="maze_8h.html" target="_top" xlink:title="Header file for the maze data structure and public functions.">
<polygon fill="white" stroke="#666666" points="162.5,-74 115.5,-74 115.5,-55 162.5,-55 162.5,-74"/>
<text text-anchor="middle" x="139" y="-62" font-family="Helvetica,sans-Serif" font-size="10.00">maze.h</text>
</a>
</g>
</g>
<!-- Node1&#45;&gt;Node4 -->
<g id="edge8" class="edge">
<title>Node1&#45;&gt;Node4</title>
<path fill="none" stroke="#63b8ff" d="M85.54,-164.64C96.16,-156.51 111.05,-143.55 120,-129 128.23,-115.63 133.08,-98.48 135.82,-85.37"/>
<polygon fill="#63b8ff" stroke="#63b8ff" points="139.22,-86.26 137.57,-75.79 132.33,-85 139.22,-86.26"/>
</g>
<!-- Node3&#45;&gt;Node2 -->
<g id="edge3" class="edge">
<title>Node3&#45;&gt;Node2</title>
<path fill="none" stroke="#63b8ff" d="M65.95,-109.78C59.25,-101.14 49.3,-87.31 43,-74 36.36,-59.97 31.44,-43.09 28.28,-30.27"/>
<polygon fill="#63b8ff" stroke="#63b8ff" points="31.78,-29.87 26.12,-20.91 24.96,-31.44 31.78,-29.87"/>
</g>
<!-- Node3&#45;&gt;Node4 -->
<g id="edge4" class="edge">
<title>Node3&#45;&gt;Node4</title>
<path fill="none" stroke="#63b8ff" d="M84.2,-109.51C93.74,-101.85 107.67,-90.66 119.11,-81.47"/>
<polygon fill="#63b8ff" stroke="#63b8ff" points="121.18,-84.3 126.79,-75.31 116.8,-78.84 121.18,-84.3"/>
</g>
<!-- Node6 -->
<g id="node6" class="node">
<title>Node6</title>
<g id="a_node6"><a xlink:title=" ">
<polygon fill="#e0e0e0" stroke="#999999" points="97.5,-74 52.5,-74 52.5,-55 97.5,-55 97.5,-74"/>
<text text-anchor="middle" x="75" y="-62" font-family="Helvetica,sans-Serif" font-size="10.00">stdio.h</text>
</a>
</g>
</g>
<!-- Node3&#45;&gt;Node6 -->
<g id="edge7" class="edge">
<title>Node3&#45;&gt;Node6</title>
<path fill="none" stroke="#63b8ff" d="M73.33,-109.75C73.57,-103.27 73.92,-94.16 74.23,-85.9"/>
<polygon fill="#63b8ff" stroke="#63b8ff" points="77.73,-86.08 74.61,-75.95 70.73,-85.82 77.73,-86.08"/>
</g>
<!-- Node4&#45;&gt;Node2 -->
<g id="edge5" class="edge">
<title>Node4&#45;&gt;Node2</title>
<path fill="none" stroke="#63b8ff" d="M119.49,-54.51C101.37,-46.16 74.15,-33.61 53.4,-24.05"/>
<polygon fill="#63b8ff" stroke="#63b8ff" points="55.14,-21 44.59,-19.99 52.21,-27.36 55.14,-21"/>
</g>
<!-- Node5 -->
<g id="node5" class="node">
<title>Node5</title>
<g id="a_node5"><a xlink:title=" ">
<polygon fill="#e0e0e0" stroke="#999999" points="167,-19 111,-19 111,0 167,0 167,-19"/>
<text text-anchor="middle" x="139" y="-7" font-family="Helvetica,sans-Serif" font-size="10.00">stdbool.h</text>
</a>
</g>
</g>
<!-- Node4&#45;&gt;Node5 -->
<g id="edge6" class="edge">
<title>Node4&#45;&gt;Node5</title>
<path fill="none" stroke="#63b8ff" d="M139,-54.75C139,-48.27 139,-39.16 139,-30.9"/>
<polygon fill="#63b8ff" stroke="#63b8ff" points="142.5,-30.96 139,-20.96 135.5,-30.96 142.5,-30.96"/>
</g>
</g>
</svg>
