<?xml version="1.0" encoding="UTF-8" standalone="no"?>
<!DOCTYPE svg PUBLIC "-//W3C//DTD SVG 1.1//EN"
 "http://www.w3.org/Graphics/SVG/1.1/DTD/svg11.dtd">
<!-- Generated by graphviz version 7.0.5 (20221223.1930)
 -->
<!-- Title: main/pathfinding/a_star.c Pages: 1 -->
<svg width="301pt" height="258pt"
 viewBox="0.00 0.00 300.50 258.00" xmlns="http://www.w3.org/2000/svg" xmlns:xlink="http://www.w3.org/1999/xlink">
<g id="graph0" class="graph" transform="scale(1 1) rotate(0) translate(4 254)">
<title>main/pathfinding/a_star.c</title>
<!-- Node1 -->
<g id="node1" class="node">
<title>Node1</title>
<g id="a_node1"><a xlink:title="Source file for the implementation of the a* algorithm.">
<polygon fill="#999999" stroke="#666666" points="207.5,-250 112.5,-250 112.5,-220 207.5,-220 207.5,-250"/>
<text text-anchor="start" x="120.5" y="-238" font-family="Helvetica,sans-Serif" font-size="10.00">main/pathfinding/a</text>
<text text-anchor="middle" x="160" y="-227" font-family="Helvetica,sans-Serif" font-size="10.00">_star.c</text>
</a>
</g>
</g>
<!-- Node2 -->
<g id="node2" class="node">
<title>Node2</title>
<g id="a_node2"><a xlink:title=" ">
<polygon fill="#e0e0e0" stroke="#999999" points="48,-19 0,-19 0,0 48,0 48,-19"/>
<text text-anchor="middle" x="24" y="-7" font-family="Helvetica,sans-Serif" font-size="10.00">stdint.h</text>
</a>
</g>
</g>
<!-- Node1&#45;&gt;Node2 -->
<g id="edge1" class="edge">
<title>Node1&#45;&gt;Node2</title>
<path fill="none" stroke="#63b8ff" d="M112.07,-229.55C82.02,-224.01 45.42,-211.63 26,-184 -6.7,-137.47 7.75,-65.19 17.58,-30.46"/>
<polygon fill="#63b8ff" stroke="#63b8ff" points="20.92,-31.52 20.46,-20.93 14.22,-29.49 20.92,-31.52"/>
</g>
<!-- Node3 -->
<g id="node3" class="node">
<title>Node3</title>
<g id="a_node3"><a xlink:title=" ">
<polygon fill="#e0e0e0" stroke="#999999" points="217.5,-74 172.5,-74 172.5,-55 217.5,-55 217.5,-74"/>
<text text-anchor="middle" x="195" y="-62" font-family="Helvetica,sans-Serif" font-size="10.00">stdio.h</text>
</a>
</g>
</g>
<!-- Node1&#45;&gt;Node3 -->
<g id="edge2" class="edge">
<title>Node1&#45;&gt;Node3</title>
<path fill="none" stroke="#63b8ff" d="M172.53,-219.83C180.03,-210.39 188.88,-197.31 193,-184 203.31,-150.68 200.84,-109.52 198,-85.52"/>
<polygon fill="#63b8ff" stroke="#63b8ff" points="201.51,-85.33 196.7,-75.89 194.57,-86.26 201.51,-85.33"/>
</g>
<!-- Node4 -->
<g id="node4" class="node">
<title>Node4</title>
<g id="a_node4"><a xlink:title=" ">
<polygon fill="#e0e0e0" stroke="#999999" points="292.5,-184 245.5,-184 245.5,-165 292.5,-165 292.5,-184"/>
<text text-anchor="middle" x="269" y="-172" font-family="Helvetica,sans-Serif" font-size="10.00">stdlib.h</text>
</a>
</g>
</g>
<!-- Node1&#45;&gt;Node4 -->
<g id="edge3" class="edge">
<title>Node1&#45;&gt;Node4</title>
<path fill="none" stroke="#63b8ff" d="M186.94,-219.54C203.96,-210.4 225.85,-198.66 242.74,-189.6"/>
<polygon fill="#63b8ff" stroke="#63b8ff" points="244.03,-192.87 251.18,-185.06 240.72,-186.71 244.03,-192.87"/>
</g>
<!-- Node5 -->
<g id="node5" class="node">
<title>Node5</title>
<g id="a_node5"><a xlink:href="binary__heap_8h.html" target="_top" xlink:title="This file contains the declarations for the binary min&#45;heap used in the a* algorithm.">
<polygon fill="white" stroke="#666666" points="151,-129 75,-129 75,-110 151,-110 151,-129"/>
<text text-anchor="middle" x="113" y="-117" font-family="Helvetica,sans-Serif" font-size="10.00">binary_heap.h</text>
</a>
</g>
</g>
<!-- Node1&#45;&gt;Node5 -->
<g id="edge4" class="edge">
<title>Node1&#45;&gt;Node5</title>
<path fill="none" stroke="#63b8ff" d="M154.05,-219.63C145.67,-199.4 130.39,-162.49 121.02,-139.86"/>
<polygon fill="#63b8ff" stroke="#63b8ff" points="124.25,-138.53 117.19,-130.63 117.79,-141.21 124.25,-138.53"/>
</g>
<!-- Node6 -->
<g id="node6" class="node">
<title>Node6</title>
<g id="a_node6"><a xlink:href="maze_8h.html" target="_top" xlink:title="Header file for the maze data structure and public functions.">
<polygon fill="white" stroke="#666666" points="132.5,-74 85.5,-74 85.5,-55 132.5,-55 132.5,-74"/>
<text text-anchor="middle" x="109" y="-62" font-family="Helvetica,sans-Serif" font-size="10.00">maze.h</text>
</a>
</g>
</g>
<!-- Node1&#45;&gt;Node6 -->
<g id="edge14" class="edge">
<title>Node1&#45;&gt;Node6</title>
<path fill="none" stroke="#63b8ff" d="M163.63,-219.82C168.98,-195.92 176.66,-146.65 160,-110 154.62,-98.16 144.36,-88.25 134.45,-80.8"/>
<polygon fill="#63b8ff" stroke="#63b8ff" points="136.69,-78.09 126.47,-75.3 132.71,-83.85 136.69,-78.09"/>
</g>
<!-- Node8 -->
<g id="node8" class="node">
<title>Node8</title>
<g id="a_node8"><a xlink:href="a__star_8h.html" target="_top" xlink:title="Header file for the a* algorithm.">
<polygon fill="white" stroke="#666666" points="85.5,-184 34.5,-184 34.5,-165 85.5,-165 85.5,-184"/>
<text text-anchor="middle" x="60" y="-172" font-family="Helvetica,sans-Serif" font-size="10.00">a_star.h</text>
</a>
</g>
</g>
<!-- Node1&#45;&gt;Node8 -->
<g id="edge10" class="edge">
<title>Node1&#45;&gt;Node8</title>
<path fill="none" stroke="#63b8ff" d="M135.28,-219.54C119.96,-210.58 100.34,-199.1 84.98,-190.11"/>
<polygon fill="#63b8ff" stroke="#63b8ff" points="86.83,-187.14 76.43,-185.11 83.29,-193.18 86.83,-187.14"/>
</g>
<!-- Node5&#45;&gt;Node2 -->
<g id="edge5" class="edge">
<title>Node5&#45;&gt;Node2</title>
<path fill="none" stroke="#63b8ff" d="M105.72,-109.66C91.05,-91.86 57.71,-51.41 38.46,-28.04"/>
<polygon fill="#63b8ff" stroke="#63b8ff" points="41.41,-26.12 32.35,-20.63 36,-30.57 41.41,-26.12"/>
</g>
<!-- Node5&#45;&gt;Node3 -->
<g id="edge9" class="edge">
<title>Node5&#45;&gt;Node3</title>
<path fill="none" stroke="#63b8ff" d="M126.91,-109.51C139.24,-101.54 157.47,-89.75 171.97,-80.38"/>
<polygon fill="#63b8ff" stroke="#63b8ff" points="173.53,-83.55 180.02,-75.18 169.73,-77.67 173.53,-83.55"/>
</g>
<!-- Node5&#45;&gt;Node6 -->
<g id="edge6" class="edge">
<title>Node5&#45;&gt;Node6</title>
<path fill="none" stroke="#63b8ff" d="M112.34,-109.75C111.85,-103.27 111.16,-94.16 110.54,-85.9"/>
<polygon fill="#63b8ff" stroke="#63b8ff" points="114.03,-85.66 109.79,-75.95 107.05,-86.19 114.03,-85.66"/>
</g>
<!-- Node6&#45;&gt;Node2 -->
<g id="edge7" class="edge">
<title>Node6&#45;&gt;Node2</title>
<path fill="none" stroke="#63b8ff" d="M94.58,-54.51C81.8,-46.54 62.9,-34.75 47.87,-25.38"/>
<polygon fill="#63b8ff" stroke="#63b8ff" points="49.83,-22.48 39.49,-20.16 46.12,-28.42 49.83,-22.48"/>
</g>
<!-- Node7 -->
<g id="node7" class="node">
<title>Node7</title>
<g id="a_node7"><a xlink:title=" ">
<polygon fill="#e0e0e0" stroke="#999999" points="137,-19 81,-19 81,0 137,0 137,-19"/>
<text text-anchor="middle" x="109" y="-7" font-family="Helvetica,sans-Serif" font-size="10.00">stdbool.h</text>
</a>
</g>
</g>
<!-- Node6&#45;&gt;Node7 -->
<g id="edge8" class="edge">
<title>Node6&#45;&gt;Node7</title>
<path fill="none" stroke="#63b8ff" d="M109,-54.75C109,-48.27 109,-39.16 109,-30.9"/>
<polygon fill="#63b8ff" stroke="#63b8ff" points="112.5,-30.96 109,-20.96 105.5,-30.96 112.5,-30.96"/>
</g>
<!-- Node8&#45;&gt;Node2 -->
<g id="edge11" class="edge">
<title>Node8&#45;&gt;Node2</title>
<path fill="none" stroke="#63b8ff" d="M58.06,-164.74C52.47,-139.42 36.2,-65.72 28.34,-30.16"/>
<polygon fill="#63b8ff" stroke="#63b8ff" points="31.85,-29.79 26.27,-20.78 25.01,-31.3 31.85,-29.79"/>
</g>
<!-- Node8&#45;&gt;Node5 -->
<g id="edge12" class="edge">
<title>Node8&#45;&gt;Node5</title>
<path fill="none" stroke="#63b8ff" d="M68.75,-164.75C76.15,-157.35 86.96,-146.54 96.05,-137.45"/>
<polygon fill="#63b8ff" stroke="#63b8ff" points="98.39,-140.06 102.99,-130.51 93.44,-135.11 98.39,-140.06"/>
</g>
<!-- Node8&#45;&gt;Node6 -->
<g id="edge13" class="edge">
<title>Node8&#45;&gt;Node6</title>
<path fill="none" stroke="#63b8ff" d="M59.07,-164.82C58.09,-152.14 57.67,-128.11 66,-110 71.01,-99.11 79.83,-89.25 88.18,-81.6"/>
<polygon fill="#63b8ff" stroke="#63b8ff" points="90.35,-84.35 95.7,-75.2 85.82,-79.02 90.35,-84.35"/>
</g>
</g>
</svg>
