<?xml version="1.0" encoding="UTF-8" standalone="no"?>
<!DOCTYPE svg PUBLIC "-//W3C//DTD SVG 1.1//EN"
 "http://www.w3.org/Graphics/SVG/1.1/DTD/svg11.dtd">
<!-- Generated by graphviz version 7.0.5 (20221223.1930)
 -->
<!-- Title: src/pathfinding/a_star.c Pages: 1 -->
<svg width="330pt" height="258pt"
 viewBox="0.00 0.00 329.57 258.00" xmlns="http://www.w3.org/2000/svg" xmlns:xlink="http://www.w3.org/1999/xlink">
<g id="graph0" class="graph" transform="scale(1 1) rotate(0) translate(4 254)">
<title>src/pathfinding/a_star.c</title>
<!-- Node1 -->
<g id="node1" class="node">
<title>Node1</title>
<g id="a_node1"><a xlink:title="Source file for the implementation of the a* algorithm.">
<polygon fill="#999999" stroke="#666666" points="254.57,-250 137.57,-250 137.57,-231 254.57,-231 254.57,-250"/>
<text text-anchor="middle" x="196.07" y="-238" font-family="Helvetica,sans-Serif" font-size="10.00">src/pathfinding/a_star.c</text>
</a>
</g>
</g>
<!-- Node2 -->
<g id="node2" class="node">
<title>Node2</title>
<g id="a_node2"><a xlink:title=" ">
<polygon fill="#e0e0e0" stroke="#999999" points="65.07,-19 17.07,-19 17.07,0 65.07,0 65.07,-19"/>
<text text-anchor="middle" x="41.07" y="-7" font-family="Helvetica,sans-Serif" font-size="10.00">stdint.h</text>
</a>
</g>
</g>
<!-- Node1&#45;&gt;Node2 -->
<g id="edge1" class="edge">
<title>Node1&#45;&gt;Node2</title>
<path fill="none" stroke="#63b8ff" d="M137.35,-232.62C91.36,-225.87 32.78,-213.83 18.07,-195 -20.29,-145.87 12.31,-65.88 30.64,-29.54"/>
<polygon fill="#63b8ff" stroke="#63b8ff" points="33.73,-31.19 35.28,-20.71 27.53,-27.94 33.73,-31.19"/>
</g>
<!-- Node3 -->
<g id="node3" class="node">
<title>Node3</title>
<g id="a_node3"><a xlink:title=" ">
<polygon fill="#e0e0e0" stroke="#999999" points="258.57,-74 213.57,-74 213.57,-55 258.57,-55 258.57,-74"/>
<text text-anchor="middle" x="236.07" y="-62" font-family="Helvetica,sans-Serif" font-size="10.00">stdio.h</text>
</a>
</g>
</g>
<!-- Node1&#45;&gt;Node3 -->
<g id="edge2" class="edge">
<title>Node1&#45;&gt;Node3</title>
<path fill="none" stroke="#63b8ff" d="M202.88,-230.5C209.01,-221.88 217.71,-208.26 222.07,-195 234.36,-157.7 236.42,-111.41 236.47,-85.5"/>
<polygon fill="#63b8ff" stroke="#63b8ff" points="239.98,-85.73 236.38,-75.76 232.98,-85.79 239.98,-85.73"/>
</g>
<!-- Node4 -->
<g id="node4" class="node">
<title>Node4</title>
<g id="a_node4"><a xlink:title=" ">
<polygon fill="#e0e0e0" stroke="#999999" points="321.57,-195 274.57,-195 274.57,-176 321.57,-176 321.57,-195"/>
<text text-anchor="middle" x="298.07" y="-183" font-family="Helvetica,sans-Serif" font-size="10.00">stdlib.h</text>
</a>
</g>
</g>
<!-- Node1&#45;&gt;Node4 -->
<g id="edge3" class="edge">
<title>Node1&#45;&gt;Node4</title>
<path fill="none" stroke="#63b8ff" d="M213.38,-230.51C229.15,-222.31 252.71,-210.07 270.98,-200.58"/>
<polygon fill="#63b8ff" stroke="#63b8ff" points="272.42,-203.77 279.68,-196.06 269.2,-197.56 272.42,-203.77"/>
</g>
<!-- Node5 -->
<g id="node5" class="node">
<title>Node5</title>
<g id="a_node5"><a xlink:href="binary__heap_8h.html" target="_top" xlink:title="This file contains the declarations for the binary min&#45;heap used in the a* algorithm.">
<polygon fill="white" stroke="#666666" points="180.07,-140 88.07,-140 88.07,-110 180.07,-110 180.07,-140"/>
<text text-anchor="start" x="96.07" y="-128" font-family="Helvetica,sans-Serif" font-size="10.00">pathfinding/binary</text>
<text text-anchor="middle" x="134.07" y="-117" font-family="Helvetica,sans-Serif" font-size="10.00">_heap.h</text>
</a>
</g>
</g>
<!-- Node1&#45;&gt;Node5 -->
<g id="edge4" class="edge">
<title>Node1&#45;&gt;Node5</title>
<path fill="none" stroke="#63b8ff" d="M191.21,-230.59C181.87,-213.49 161.13,-175.52 147.37,-150.35"/>
<polygon fill="#63b8ff" stroke="#63b8ff" points="150.55,-148.87 142.69,-141.77 144.41,-152.22 150.55,-148.87"/>
</g>
<!-- Node6 -->
<g id="node6" class="node">
<title>Node6</title>
<g id="a_node6"><a xlink:href="maze_8h.html" target="_top" xlink:title="Header file for the maze data structure and public functions.">
<polygon fill="white" stroke="#666666" points="185.57,-74 88.57,-74 88.57,-55 185.57,-55 185.57,-74"/>
<text text-anchor="middle" x="137.07" y="-62" font-family="Helvetica,sans-Serif" font-size="10.00">pathfinding/maze.h</text>
</a>
</g>
</g>
<!-- Node1&#45;&gt;Node6 -->
<g id="edge14" class="edge">
<title>Node1&#45;&gt;Node6</title>
<path fill="none" stroke="#63b8ff" d="M197.84,-230.74C201.78,-208.97 209.4,-151.19 189.07,-110 183.25,-98.21 172.75,-88.3 162.7,-80.85"/>
<polygon fill="#63b8ff" stroke="#63b8ff" points="164.85,-78.08 154.62,-75.32 160.9,-83.86 164.85,-78.08"/>
</g>
<!-- Node8 -->
<g id="node8" class="node">
<title>Node8</title>
<g id="a_node8"><a xlink:href="a__star_8h.html" target="_top" xlink:title="Header file for the a* algorithm.">
<polygon fill="white" stroke="#666666" points="127.57,-195 26.57,-195 26.57,-176 127.57,-176 127.57,-195"/>
<text text-anchor="middle" x="77.07" y="-183" font-family="Helvetica,sans-Serif" font-size="10.00">pathfinding/a_star.h</text>
</a>
</g>
</g>
<!-- Node1&#45;&gt;Node8 -->
<g id="edge10" class="edge">
<title>Node1&#45;&gt;Node8</title>
<path fill="none" stroke="#63b8ff" d="M175.89,-230.51C157.05,-222.12 128.71,-209.5 107.2,-199.92"/>
<polygon fill="#63b8ff" stroke="#63b8ff" points="108.9,-196.85 98.34,-195.97 106.06,-203.24 108.9,-196.85"/>
</g>
<!-- Node5&#45;&gt;Node2 -->
<g id="edge5" class="edge">
<title>Node5&#45;&gt;Node2</title>
<path fill="none" stroke="#63b8ff" d="M116.12,-109.56C105.01,-100.12 90.85,-87.13 80.07,-74 68.53,-59.94 57.9,-42.16 50.66,-29"/>
<polygon fill="#63b8ff" stroke="#63b8ff" points="53.95,-27.72 46.15,-20.54 47.77,-31.01 53.95,-27.72"/>
</g>
<!-- Node5&#45;&gt;Node3 -->
<g id="edge9" class="edge">
<title>Node5&#45;&gt;Node3</title>
<path fill="none" stroke="#63b8ff" d="M159.29,-109.54C175.06,-100.49 195.31,-88.88 211.05,-79.85"/>
<polygon fill="#63b8ff" stroke="#63b8ff" points="212.4,-83.11 219.34,-75.1 208.92,-77.04 212.4,-83.11"/>
</g>
<!-- Node5&#45;&gt;Node6 -->
<g id="edge6" class="edge">
<title>Node5&#45;&gt;Node6</title>
<path fill="none" stroke="#63b8ff" d="M134.81,-109.54C135.19,-102.26 135.65,-93.31 136.05,-85.39"/>
<polygon fill="#63b8ff" stroke="#63b8ff" points="139.53,-85.85 136.55,-75.69 132.54,-85.49 139.53,-85.85"/>
</g>
<!-- Node6&#45;&gt;Node2 -->
<g id="edge7" class="edge">
<title>Node6&#45;&gt;Node2</title>
<path fill="none" stroke="#63b8ff" d="M120.79,-54.51C106.08,-46.39 84.18,-34.3 67.06,-24.85"/>
<polygon fill="#63b8ff" stroke="#63b8ff" points="68.89,-21.86 58.44,-20.09 65.51,-27.99 68.89,-21.86"/>
</g>
<!-- Node7 -->
<g id="node7" class="node">
<title>Node7</title>
<g id="a_node7"><a xlink:title=" ">
<polygon fill="#e0e0e0" stroke="#999999" points="165.07,-19 109.07,-19 109.07,0 165.07,0 165.07,-19"/>
<text text-anchor="middle" x="137.07" y="-7" font-family="Helvetica,sans-Serif" font-size="10.00">stdbool.h</text>
</a>
</g>
</g>
<!-- Node6&#45;&gt;Node7 -->
<g id="edge8" class="edge">
<title>Node6&#45;&gt;Node7</title>
<path fill="none" stroke="#63b8ff" d="M137.07,-54.75C137.07,-48.27 137.07,-39.16 137.07,-30.9"/>
<polygon fill="#63b8ff" stroke="#63b8ff" points="140.57,-30.96 137.07,-20.96 133.57,-30.96 140.57,-30.96"/>
</g>
<!-- Node8&#45;&gt;Node2 -->
<g id="edge11" class="edge">
<title>Node8&#45;&gt;Node2</title>
<path fill="none" stroke="#63b8ff" d="M75.02,-175.65C72.96,-166.68 69.71,-152.39 67.07,-140 58.83,-101.24 49.87,-55.8 44.91,-30.36"/>
<polygon fill="#63b8ff" stroke="#63b8ff" points="48.4,-29.94 43.06,-20.79 41.53,-31.28 48.4,-29.94"/>
</g>
<!-- Node8&#45;&gt;Node5 -->
<g id="edge12" class="edge">
<title>Node8&#45;&gt;Node5</title>
<path fill="none" stroke="#63b8ff" d="M85.48,-175.87C92.57,-168.59 103.04,-157.85 112.44,-148.2"/>
<polygon fill="#63b8ff" stroke="#63b8ff" points="114.79,-150.8 119.26,-141.2 109.78,-145.92 114.79,-150.8"/>
</g>
<!-- Node8&#45;&gt;Node6 -->
<g id="edge13" class="edge">
<title>Node8&#45;&gt;Node6</title>
<path fill="none" stroke="#63b8ff" d="M74.99,-175.64C72.04,-161.05 68.14,-131.44 79.07,-110 85.45,-97.49 97.14,-87.49 108.37,-80.16"/>
<polygon fill="#63b8ff" stroke="#63b8ff" points="109.89,-83.33 116.67,-75.18 106.29,-77.32 109.89,-83.33"/>
</g>
</g>
</svg>
