<?xml version="1.0" encoding="UTF-8" standalone="no"?>
<!DOCTYPE svg PUBLIC "-//W3C//DTD SVG 1.1//EN"
 "http://www.w3.org/Graphics/SVG/1.1/DTD/svg11.dtd">
<!-- Generated by graphviz version 7.0.5 (20221223.1930)
 -->
<!-- Title: src/pathfinding/a_star.h Pages: 1 -->
<svg width="221pt" height="203pt"
 viewBox="0.00 0.00 220.50 203.00" xmlns="http://www.w3.org/2000/svg" xmlns:xlink="http://www.w3.org/1999/xlink">
<g id="graph0" class="graph" transform="scale(1 1) rotate(0) translate(4 199)">
<title>src/pathfinding/a_star.h</title>
<!-- Node1 -->
<g id="node1" class="node">
<title>Node1</title>
<g id="a_node1"><a xlink:title="Header file for the a* algorithm.">
<polygon fill="#999999" stroke="#666666" points="133.5,-195 16.5,-195 16.5,-176 133.5,-176 133.5,-195"/>
<text text-anchor="middle" x="75" y="-183" font-family="Helvetica,sans-Serif" font-size="10.00">src/pathfinding/a_star.h</text>
</a>
</g>
</g>
<!-- Node2 -->
<g id="node2" class="node">
<title>Node2</title>
<g id="a_node2"><a xlink:title=" ">
<polygon fill="#e0e0e0" stroke="#999999" points="48,-19 0,-19 0,0 48,0 48,-19"/>
<text text-anchor="middle" x="24" y="-7" font-family="Helvetica,sans-Serif" font-size="10.00">stdint.h</text>
</a>
</g>
</g>
<!-- Node1&#45;&gt;Node2 -->
<g id="edge1" class="edge">
<title>Node1&#45;&gt;Node2</title>
<path fill="none" stroke="#63b8ff" d="M57,-175.57C44.07,-168.05 27.62,-155.96 20,-140 2.94,-104.25 11.24,-56.4 18.09,-30.02"/>
<polygon fill="#63b8ff" stroke="#63b8ff" points="21.38,-31.26 20.72,-20.69 14.64,-29.37 21.38,-31.26"/>
</g>
<!-- Node3 -->
<g id="node3" class="node">
<title>Node3</title>
<g id="a_node3"><a xlink:href="binary__heap_8h.html" target="_top" xlink:title="This file contains the declarations for the binary min&#45;heap used in the a* algorithm.">
<polygon fill="white" stroke="#666666" points="121,-140 29,-140 29,-110 121,-110 121,-140"/>
<text text-anchor="start" x="37" y="-128" font-family="Helvetica,sans-Serif" font-size="10.00">pathfinding/binary</text>
<text text-anchor="middle" x="75" y="-117" font-family="Helvetica,sans-Serif" font-size="10.00">_heap.h</text>
</a>
</g>
</g>
<!-- Node1&#45;&gt;Node3 -->
<g id="edge2" class="edge">
<title>Node1&#45;&gt;Node3</title>
<path fill="none" stroke="#63b8ff" d="M75,-175.87C75,-169.4 75,-160.2 75,-151.45"/>
<polygon fill="#63b8ff" stroke="#63b8ff" points="78.5,-151.63 75,-141.63 71.5,-151.63 78.5,-151.63"/>
</g>
<!-- Node4 -->
<g id="node4" class="node">
<title>Node4</title>
<g id="a_node4"><a xlink:href="maze_8h.html" target="_top" xlink:title="Header file for the maze data structure and public functions.">
<polygon fill="white" stroke="#666666" points="212.5,-74 115.5,-74 115.5,-55 212.5,-55 212.5,-74"/>
<text text-anchor="middle" x="164" y="-62" font-family="Helvetica,sans-Serif" font-size="10.00">pathfinding/maze.h</text>
</a>
</g>
</g>
<!-- Node1&#45;&gt;Node4 -->
<g id="edge8" class="edge">
<title>Node1&#45;&gt;Node4</title>
<path fill="none" stroke="#63b8ff" d="M89.19,-175.74C101.32,-167.68 118.56,-154.76 130,-140 142.91,-123.34 152.27,-101 157.86,-85.14"/>
<polygon fill="#63b8ff" stroke="#63b8ff" points="161.09,-86.51 160.92,-75.91 154.45,-84.3 161.09,-86.51"/>
</g>
<!-- Node3&#45;&gt;Node2 -->
<g id="edge3" class="edge">
<title>Node3&#45;&gt;Node2</title>
<path fill="none" stroke="#63b8ff" d="M64.35,-109.74C57.51,-100.06 48.84,-86.74 43,-74 36.53,-59.89 31.6,-43.02 28.39,-30.22"/>
<polygon fill="#63b8ff" stroke="#63b8ff" points="31.89,-29.81 26.19,-20.88 25.08,-31.42 31.89,-29.81"/>
</g>
<!-- Node3&#45;&gt;Node4 -->
<g id="edge4" class="edge">
<title>Node3&#45;&gt;Node4</title>
<path fill="none" stroke="#63b8ff" d="M97,-109.54C110.37,-100.75 127.42,-89.54 140.98,-80.63"/>
<polygon fill="#63b8ff" stroke="#63b8ff" points="142.84,-83.6 149.28,-75.18 139,-77.75 142.84,-83.6"/>
</g>
<!-- Node6 -->
<g id="node6" class="node">
<title>Node6</title>
<g id="a_node6"><a xlink:title=" ">
<polygon fill="#e0e0e0" stroke="#999999" points="97.5,-74 52.5,-74 52.5,-55 97.5,-55 97.5,-74"/>
<text text-anchor="middle" x="75" y="-62" font-family="Helvetica,sans-Serif" font-size="10.00">stdio.h</text>
</a>
</g>
</g>
<!-- Node3&#45;&gt;Node6 -->
<g id="edge7" class="edge">
<title>Node3&#45;&gt;Node6</title>
<path fill="none" stroke="#63b8ff" d="M75,-109.54C75,-102.34 75,-93.53 75,-85.68"/>
<polygon fill="#63b8ff" stroke="#63b8ff" points="78.5,-85.69 75,-75.69 71.5,-85.69 78.5,-85.69"/>
</g>
<!-- Node4&#45;&gt;Node2 -->
<g id="edge5" class="edge">
<title>Node4&#45;&gt;Node2</title>
<path fill="none" stroke="#63b8ff" d="M140.25,-54.51C117.69,-45.97 83.53,-33.03 58.06,-23.4"/>
<polygon fill="#63b8ff" stroke="#63b8ff" points="59.41,-20.16 48.81,-19.89 56.93,-26.71 59.41,-20.16"/>
</g>
<!-- Node5 -->
<g id="node5" class="node">
<title>Node5</title>
<g id="a_node5"><a xlink:title=" ">
<polygon fill="#e0e0e0" stroke="#999999" points="192,-19 136,-19 136,0 192,0 192,-19"/>
<text text-anchor="middle" x="164" y="-7" font-family="Helvetica,sans-Serif" font-size="10.00">stdbool.h</text>
</a>
</g>
</g>
<!-- Node4&#45;&gt;Node5 -->
<g id="edge6" class="edge">
<title>Node4&#45;&gt;Node5</title>
<path fill="none" stroke="#63b8ff" d="M164,-54.75C164,-48.27 164,-39.16 164,-30.9"/>
<polygon fill="#63b8ff" stroke="#63b8ff" points="167.5,-30.96 164,-20.96 160.5,-30.96 167.5,-30.96"/>
</g>
</g>
</svg>
