<?xml version="1.0" encoding="UTF-8" standalone="no"?>
<!DOCTYPE svg PUBLIC "-//W3C//DTD SVG 1.1//EN"
 "http://www.w3.org/Graphics/SVG/1.1/DTD/svg11.dtd">
<!-- Generated by graphviz version 7.0.5 (20221223.1930)
 -->
<!-- Title: src/pathfinding/a_star.h Pages: 1 -->
<svg width="605pt" height="93pt"
 viewBox="0.00 0.00 605.00 93.00" xmlns="http://www.w3.org/2000/svg" xmlns:xlink="http://www.w3.org/1999/xlink">
<g id="graph0" class="graph" transform="scale(1 1) rotate(0) translate(4 89)">
<title>src/pathfinding/a_star.h</title>
<!-- Node1 -->
<g id="node1" class="node">
<title>Node1</title>
<g id="a_node1"><a xlink:title="Header file for the a* algorithm.">
<polygon fill="#999999" stroke="#666666" points="325.5,-85 208.5,-85 208.5,-66 325.5,-66 325.5,-85"/>
<text text-anchor="middle" x="267" y="-73" font-family="Helvetica,sans-Serif" font-size="10.00">src/pathfinding/a_star.h</text>
</a>
</g>
</g>
<!-- Node2 -->
<g id="node2" class="node">
<title>Node2</title>
<g id="a_node2"><a xlink:href="main_8c.html" target="_top" xlink:title="The main source file for robot control.">
<polygon fill="white" stroke="#666666" points="62,-24.5 0,-24.5 0,-5.5 62,-5.5 62,-24.5"/>
<text text-anchor="middle" x="31" y="-12.5" font-family="Helvetica,sans-Serif" font-size="10.00">src/main.c</text>
</a>
</g>
</g>
<!-- Node1&#45;&gt;Node2 -->
<g id="edge1" class="edge">
<title>Node1&#45;&gt;Node2</title>
<path fill="none" stroke="#63b8ff" d="M209.47,-63.23C170.18,-55.1 117.09,-43.25 71,-30 65.77,-28.5 60.22,-26.69 54.97,-24.89"/>
<polygon fill="#63b8ff" stroke="#63b8ff" points="208.7,-66.65 219.2,-65.23 210.11,-59.79 208.7,-66.65"/>
</g>
<!-- Node3 -->
<g id="node3" class="node">
<title>Node3</title>
<g id="a_node3"><a xlink:href="a__star_8c.html" target="_top" xlink:title="Source file for the implementation of the a* algorithm.">
<polygon fill="white" stroke="#666666" points="197.5,-24.5 80.5,-24.5 80.5,-5.5 197.5,-5.5 197.5,-24.5"/>
<text text-anchor="middle" x="139" y="-12.5" font-family="Helvetica,sans-Serif" font-size="10.00">src/pathfinding/a_star.c</text>
</a>
</g>
</g>
<!-- Node1&#45;&gt;Node3 -->
<g id="edge2" class="edge">
<title>Node1&#45;&gt;Node3</title>
<path fill="none" stroke="#63b8ff" d="M237.17,-60.87C212.97,-49.81 179.56,-34.54 158.62,-24.97"/>
<polygon fill="#63b8ff" stroke="#63b8ff" points="235.63,-64.01 246.18,-64.99 238.54,-57.65 235.63,-64.01"/>
</g>
<!-- Node4 -->
<g id="node4" class="node">
<title>Node4</title>
<g id="a_node4"><a xlink:href="pico__pathfinding__tests_8c.html" target="_top" xlink:title="This file contains the mapping and pathfinding tests to be run on the Pico depending on the input ove...">
<polygon fill="white" stroke="#666666" points="318.5,-30 215.5,-30 215.5,0 318.5,0 318.5,-30"/>
<text text-anchor="start" x="223.5" y="-18" font-family="Helvetica,sans-Serif" font-size="10.00">src/pico_pathfinding</text>
<text text-anchor="middle" x="267" y="-7" font-family="Helvetica,sans-Serif" font-size="10.00">_tests.c</text>
</a>
</g>
</g>
<!-- Node1&#45;&gt;Node4 -->
<g id="edge3" class="edge">
<title>Node1&#45;&gt;Node4</title>
<path fill="none" stroke="#63b8ff" d="M267,-54.51C267,-46.49 267,-37.43 267,-30.11"/>
<polygon fill="#63b8ff" stroke="#63b8ff" points="263.5,-54.35 267,-64.35 270.5,-54.35 263.5,-54.35"/>
</g>
<!-- Node5 -->
<g id="node5" class="node">
<title>Node5</title>
<g id="a_node5"><a xlink:href="navigation__tests_8c.html" target="_top" xlink:title="Tests the combined navigational functions.">
<polygon fill="white" stroke="#666666" points="457,-24.5 337,-24.5 337,-5.5 457,-5.5 457,-24.5"/>
<text text-anchor="middle" x="397" y="-12.5" font-family="Helvetica,sans-Serif" font-size="10.00">tests/navigation_tests.c</text>
</a>
</g>
</g>
<!-- Node1&#45;&gt;Node5 -->
<g id="edge4" class="edge">
<title>Node1&#45;&gt;Node5</title>
<path fill="none" stroke="#63b8ff" d="M296.97,-61.02C321.56,-49.95 355.71,-34.58 377.07,-24.97"/>
<polygon fill="#63b8ff" stroke="#63b8ff" points="295.81,-57.7 288.12,-64.99 298.68,-64.08 295.81,-57.7"/>
</g>
<!-- Node6 -->
<g id="node6" class="node">
<title>Node6</title>
<g id="a_node6"><a xlink:href="pathfinding__tests_8c.html" target="_top" xlink:title="This file contains the tests for the A* pathfinding algorithm.">
<polygon fill="white" stroke="#666666" points="597,-24.5 475,-24.5 475,-5.5 597,-5.5 597,-24.5"/>
<text text-anchor="middle" x="536" y="-12.5" font-family="Helvetica,sans-Serif" font-size="10.00">tests/pathfinding_tests.c</text>
</a>
</g>
</g>
<!-- Node1&#45;&gt;Node6 -->
<g id="edge5" class="edge">
<title>Node1&#45;&gt;Node6</title>
<path fill="none" stroke="#63b8ff" d="M319.32,-63.12C370.62,-51.97 447.79,-35.18 494.86,-24.95"/>
<polygon fill="#63b8ff" stroke="#63b8ff" points="318.65,-59.68 309.63,-65.23 320.14,-66.52 318.65,-59.68"/>
</g>
</g>
</svg>
