<?xml version="1.0" encoding="UTF-8" standalone="no"?>
<!DOCTYPE svg PUBLIC "-//W3C//DTD SVG 1.1//EN"
 "http://www.w3.org/Graphics/SVG/1.1/DTD/svg11.dtd">
<!-- Generated by graphviz version 7.0.5 (20221223.1930)
 -->
<!-- Title: main/pathfinding/a_star.h Pages: 1 -->
<svg width="469pt" height="104pt"
 viewBox="0.00 0.00 468.50 104.00" xmlns="http://www.w3.org/2000/svg" xmlns:xlink="http://www.w3.org/1999/xlink">
<g id="graph0" class="graph" transform="scale(1 1) rotate(0) translate(4 100)">
<title>main/pathfinding/a_star.h</title>
<!-- Node1 -->
<g id="node1" class="node">
<title>Node1</title>
<g id="a_node1"><a xlink:title="Header file for the a* algorithm.">
<polygon fill="#999999" stroke="#666666" points="245,-96 150,-96 150,-66 245,-66 245,-96"/>
<text text-anchor="start" x="158" y="-84" font-family="Helvetica,sans-Serif" font-size="10.00">main/pathfinding/a</text>
<text text-anchor="middle" x="197.5" y="-73" font-family="Helvetica,sans-Serif" font-size="10.00">_star.h</text>
</a>
</g>
</g>
<!-- Node2 -->
<g id="node2" class="node">
<title>Node2</title>
<g id="a_node2"><a xlink:href="main_8c.html" target="_top" xlink:title="The main source file for robot control.">
<polygon fill="white" stroke="#666666" points="69,-24.5 0,-24.5 0,-5.5 69,-5.5 69,-24.5"/>
<text text-anchor="middle" x="34.5" y="-12.5" font-family="Helvetica,sans-Serif" font-size="10.00">main/main.c</text>
</a>
</g>
</g>
<!-- Node1&#45;&gt;Node2 -->
<g id="edge1" class="edge">
<title>Node1&#45;&gt;Node2</title>
<path fill="none" stroke="#63b8ff" d="M150.48,-61.54C119.92,-49.54 81.43,-34.43 57.39,-24.99"/>
<polygon fill="#63b8ff" stroke="#63b8ff" points="148.92,-64.69 159.51,-65.08 151.48,-58.17 148.92,-64.69"/>
</g>
<!-- Node3 -->
<g id="node3" class="node">
<title>Node3</title>
<g id="a_node3"><a xlink:href="a__star_8c.html" target="_top" xlink:title="Source file for the implementation of the a* algorithm.">
<polygon fill="white" stroke="#666666" points="182,-30 87,-30 87,0 182,0 182,-30"/>
<text text-anchor="start" x="95" y="-18" font-family="Helvetica,sans-Serif" font-size="10.00">main/pathfinding/a</text>
<text text-anchor="middle" x="134.5" y="-7" font-family="Helvetica,sans-Serif" font-size="10.00">_star.c</text>
</a>
</g>
</g>
<!-- Node1&#45;&gt;Node3 -->
<g id="edge2" class="edge">
<title>Node1&#45;&gt;Node3</title>
<path fill="none" stroke="#63b8ff" d="M175.65,-57.81C166.63,-48.64 156.43,-38.28 148.44,-30.16"/>
<polygon fill="#63b8ff" stroke="#63b8ff" points="172.95,-60.05 182.46,-64.72 177.94,-55.14 172.95,-60.05"/>
</g>
<!-- Node4 -->
<g id="node4" class="node">
<title>Node4</title>
<g id="a_node4"><a xlink:href="navigation__tests_8c.html" target="_top" xlink:title="Tests the combined navigational functions.">
<polygon fill="white" stroke="#666666" points="320.5,-24.5 200.5,-24.5 200.5,-5.5 320.5,-5.5 320.5,-24.5"/>
<text text-anchor="middle" x="260.5" y="-12.5" font-family="Helvetica,sans-Serif" font-size="10.00">tests/navigation_tests.c</text>
</a>
</g>
</g>
<!-- Node1&#45;&gt;Node4 -->
<g id="edge3" class="edge">
<title>Node1&#45;&gt;Node4</title>
<path fill="none" stroke="#63b8ff" d="M219.54,-57.61C230.65,-46.32 243.49,-33.28 251.79,-24.84"/>
<polygon fill="#63b8ff" stroke="#63b8ff" points="217.06,-55.14 212.54,-64.72 222.05,-60.05 217.06,-55.14"/>
</g>
<!-- Node5 -->
<g id="node5" class="node">
<title>Node5</title>
<g id="a_node5"><a xlink:href="pathfinding__tests_8c.html" target="_top" xlink:title="This file contains the tests for the A* pathfinding algorithm.">
<polygon fill="white" stroke="#666666" points="460.5,-24.5 338.5,-24.5 338.5,-5.5 460.5,-5.5 460.5,-24.5"/>
<text text-anchor="middle" x="399.5" y="-12.5" font-family="Helvetica,sans-Serif" font-size="10.00">tests/pathfinding_tests.c</text>
</a>
</g>
</g>
<!-- Node1&#45;&gt;Node5 -->
<g id="edge4" class="edge">
<title>Node1&#45;&gt;Node5</title>
<path fill="none" stroke="#63b8ff" d="M254.05,-62.08C292.22,-49.99 340.97,-34.54 371.21,-24.96"/>
<polygon fill="#63b8ff" stroke="#63b8ff" points="253,-58.74 244.53,-65.1 255.12,-65.42 253,-58.74"/>
</g>
</g>
</svg>
