<?xml version="1.0" encoding="UTF-8" standalone="no"?>
<!DOCTYPE svg PUBLIC "-//W3C//DTD SVG 1.1//EN"
 "http://www.w3.org/Graphics/SVG/1.1/DTD/svg11.dtd">
<!-- Generated by graphviz version 7.0.5 (20221223.1930)
 -->
<!-- Title: src/pathfinding/a_star.h Pages: 1 -->
<svg width="484pt" height="82pt"
 viewBox="0.00 0.00 484.00 82.00" xmlns="http://www.w3.org/2000/svg" xmlns:xlink="http://www.w3.org/1999/xlink">
<g id="graph0" class="graph" transform="scale(1 1) rotate(0) translate(4 78)">
<title>src/pathfinding/a_star.h</title>
<!-- Node1 -->
<g id="node1" class="node">
<title>Node1</title>
<g id="a_node1"><a xlink:title="Header file for the a* algorithm.">
<polygon fill="#999999" stroke="#666666" points="265.5,-74 148.5,-74 148.5,-55 265.5,-55 265.5,-74"/>
<text text-anchor="middle" x="207" y="-62" font-family="Helvetica,sans-Serif" font-size="10.00">src/pathfinding/a_star.h</text>
</a>
</g>
</g>
<!-- Node2 -->
<g id="node2" class="node">
<title>Node2</title>
<g id="a_node2"><a xlink:href="main_8c.html" target="_top" xlink:title="The main source file for robot control.">
<polygon fill="white" stroke="#666666" points="62,-19 0,-19 0,0 62,0 62,-19"/>
<text text-anchor="middle" x="31" y="-7" font-family="Helvetica,sans-Serif" font-size="10.00">src/main.c</text>
</a>
</g>
</g>
<!-- Node1&#45;&gt;Node2 -->
<g id="edge1" class="edge">
<title>Node1&#45;&gt;Node2</title>
<path fill="none" stroke="#63b8ff" d="M166.28,-51.24C134.02,-41.52 89.69,-28.18 60.71,-19.45"/>
<polygon fill="#63b8ff" stroke="#63b8ff" points="165.11,-54.54 175.69,-54.07 167.13,-47.84 165.11,-54.54"/>
</g>
<!-- Node3 -->
<g id="node3" class="node">
<title>Node3</title>
<g id="a_node3"><a xlink:href="a__star_8c.html" target="_top" xlink:title="Source file for the implementation of the a* algorithm.">
<polygon fill="white" stroke="#666666" points="197.5,-19 80.5,-19 80.5,0 197.5,0 197.5,-19"/>
<text text-anchor="middle" x="139" y="-7" font-family="Helvetica,sans-Serif" font-size="10.00">src/pathfinding/a_star.c</text>
</a>
</g>
</g>
<!-- Node1&#45;&gt;Node3 -->
<g id="edge2" class="edge">
<title>Node1&#45;&gt;Node3</title>
<path fill="none" stroke="#63b8ff" d="M186.65,-47.64C174.78,-38.39 160.24,-27.05 150.36,-19.36"/>
<polygon fill="#63b8ff" stroke="#63b8ff" points="184.23,-50.19 194.27,-53.58 188.54,-44.67 184.23,-50.19"/>
</g>
<!-- Node4 -->
<g id="node4" class="node">
<title>Node4</title>
<g id="a_node4"><a xlink:href="navigation__tests_8c.html" target="_top" xlink:title="Tests the combined navigational functions.">
<polygon fill="white" stroke="#666666" points="336,-19 216,-19 216,0 336,0 336,-19"/>
<text text-anchor="middle" x="276" y="-7" font-family="Helvetica,sans-Serif" font-size="10.00">tests/navigation_tests.c</text>
</a>
</g>
</g>
<!-- Node1&#45;&gt;Node4 -->
<g id="edge3" class="edge">
<title>Node1&#45;&gt;Node4</title>
<path fill="none" stroke="#63b8ff" d="M227.65,-47.64C239.7,-38.39 254.45,-27.05 264.47,-19.36"/>
<polygon fill="#63b8ff" stroke="#63b8ff" points="225.7,-44.72 219.91,-53.59 229.97,-50.27 225.7,-44.72"/>
</g>
<!-- Node5 -->
<g id="node5" class="node">
<title>Node5</title>
<g id="a_node5"><a xlink:href="pathfinding__tests_8c.html" target="_top" xlink:title="This file contains the tests for the A* pathfinding algorithm.">
<polygon fill="white" stroke="#666666" points="476,-19 354,-19 354,0 476,0 476,-19"/>
<text text-anchor="middle" x="415" y="-7" font-family="Helvetica,sans-Serif" font-size="10.00">tests/pathfinding_tests.c</text>
</a>
</g>
</g>
<!-- Node1&#45;&gt;Node5 -->
<g id="edge4" class="edge">
<title>Node1&#45;&gt;Node5</title>
<path fill="none" stroke="#63b8ff" d="M253.14,-51.74C291.42,-41.99 345.04,-28.33 379.89,-19.45"/>
<polygon fill="#63b8ff" stroke="#63b8ff" points="252.58,-48.27 243.75,-54.14 254.31,-55.06 252.58,-48.27"/>
</g>
</g>
</svg>
