<?xml version="1.0" encoding="UTF-8" standalone="no"?>
<!DOCTYPE svg PUBLIC "-//W3C//DTD SVG 1.1//EN"
 "http://www.w3.org/Graphics/SVG/1.1/DTD/svg11.dtd">
<!-- Generated by graphviz version 7.0.5 (20221223.1930)
 -->
<!-- Title: a_star_get_path_str Pages: 1 -->
<svg width="260pt" height="64pt"
 viewBox="0.00 0.00 260.00 64.00" xmlns="http://www.w3.org/2000/svg" xmlns:xlink="http://www.w3.org/1999/xlink">
<g id="graph0" class="graph" transform="scale(1 1) rotate(0) translate(4 60)">
<title>a_star_get_path_str</title>
<!-- Node1 -->
<g id="node1" class="node">
<title>Node1</title>
<g id="a_node1"><a xlink:title="Gets the string representation of the path from the start node to the end node.">
<polygon fill="#999999" stroke="#666666" points="103,-37 0,-37 0,-18 103,-18 103,-37"/>
<text text-anchor="middle" x="51.5" y="-25" font-family="Helvetica,sans-Serif" font-size="10.00">a_star_get_path_str</text>
</a>
</g>
</g>
<!-- Node2 -->
<g id="node2" class="node">
<title>Node2</title>
<g id="a_node2"><a xlink:href="maze_8c.html#ab8154230298572c603d5b32c37f39fb5" target="_top" xlink:title="Get the direction from p_point_a to p_point_b if they are adjacent.">
<polygon fill="white" stroke="#666666" points="252,-56 139,-56 139,-37 252,-37 252,-56"/>
<text text-anchor="middle" x="195.5" y="-44" font-family="Helvetica,sans-Serif" font-size="10.00">maze_get_dir_from_to</text>
</a>
</g>
</g>
<!-- Node1&#45;&gt;Node2 -->
<g id="edge1" class="edge">
<title>Node1&#45;&gt;Node2</title>
<path fill="none" stroke="#63b8ff" d="M103.36,-34.31C111.15,-35.35 119.29,-36.44 127.37,-37.52"/>
<polygon fill="#63b8ff" stroke="#63b8ff" points="126.82,-40.98 137.2,-38.83 127.75,-34.04 126.82,-40.98"/>
</g>
<!-- Node3 -->
<g id="node3" class="node">
<title>Node3</title>
<g id="a_node3"><a xlink:href="maze_8c.html#af92eb5d75cd2c4b9418d747bcbd15c7a" target="_top" xlink:title="Get the string representation of the maze for pretty printing.">
<polygon fill="white" stroke="#666666" points="239.5,-19 151.5,-19 151.5,0 239.5,0 239.5,-19"/>
<text text-anchor="middle" x="195.5" y="-7" font-family="Helvetica,sans-Serif" font-size="10.00">maze_get_string</text>
</a>
</g>
</g>
<!-- Node1&#45;&gt;Node3 -->
<g id="edge2" class="edge">
<title>Node1&#45;&gt;Node3</title>
<path fill="none" stroke="#63b8ff" d="M103.36,-21.05C115.18,-19.55 127.82,-17.95 139.79,-16.43"/>
<polygon fill="#63b8ff" stroke="#63b8ff" points="140.05,-19.93 149.53,-15.2 139.17,-12.99 140.05,-19.93"/>
</g>
</g>
</svg>
