<?xml version="1.0" encoding="UTF-8" standalone="no"?>
<!DOCTYPE svg PUBLIC "-//W3C//DTD SVG 1.1//EN"
 "http://www.w3.org/Graphics/SVG/1.1/DTD/svg11.dtd">
<!-- Generated by graphviz version 7.0.5 (20221223.1930)
 -->
<!-- Title: a_star Pages: 1 -->
<svg width="330pt" height="64pt"
 viewBox="0.00 0.00 330.00 64.00" xmlns="http://www.w3.org/2000/svg" xmlns:xlink="http://www.w3.org/1999/xlink">
<g id="graph0" class="graph" transform="scale(1 1) rotate(0) translate(4 60)">
<title>a_star</title>
<!-- Node1 -->
<g id="node1" class="node">
<title>Node1</title>
<g id="a_node1"><a xlink:title="Runs the A* algorithm on a grid maze to find the shortest path between two points,...">
<polygon fill="#999999" stroke="#666666" points="44,-37 0,-37 0,-18 44,-18 44,-37"/>
<text text-anchor="middle" x="22" y="-25" font-family="Helvetica,sans-Serif" font-size="10.00">a_star</text>
</a>
</g>
</g>
<!-- Node2 -->
<g id="node2" class="node">
<title>Node2</title>
<g id="a_node2"><a xlink:href="binary__heap_8c.html#ae2c52107ee2c491443e7f8f3cafa9edd" target="_top" xlink:title="Inserts a grid cell node into the binary heap with a given priority.">
<polygon fill="white" stroke="#666666" points="185,-56 87,-56 87,-37 185,-37 185,-56"/>
<text text-anchor="middle" x="136" y="-44" font-family="Helvetica,sans-Serif" font-size="10.00">binary_heap_insert</text>
</a>
</g>
</g>
<!-- Node1&#45;&gt;Node2 -->
<g id="edge1" class="edge">
<title>Node1&#45;&gt;Node2</title>
<path fill="none" stroke="#63b8ff" d="M44.33,-31.12C53.37,-32.65 64.41,-34.52 75.62,-36.43"/>
<polygon fill="#63b8ff" stroke="#63b8ff" points="74.89,-39.85 85.34,-38.08 76.06,-32.95 74.89,-39.85"/>
</g>
<!-- Node4 -->
<g id="node4" class="node">
<title>Node4</title>
<g id="a_node4"><a xlink:href="maze_8c.html#a9037ecf1d39a1e3f0e0a34ca30391b91" target="_top" xlink:title="Calculates the manhattan distance between two points.">
<polygon fill="white" stroke="#666666" points="192,-19 80,-19 80,0 192,0 192,-19"/>
<text text-anchor="middle" x="136" y="-7" font-family="Helvetica,sans-Serif" font-size="10.00">maze_manhattan_dist</text>
</a>
</g>
</g>
<!-- Node1&#45;&gt;Node4 -->
<g id="edge3" class="edge">
<title>Node1&#45;&gt;Node4</title>
<path fill="none" stroke="#63b8ff" d="M44.33,-24.07C51.47,-22.92 59.85,-21.58 68.58,-20.17"/>
<polygon fill="#63b8ff" stroke="#63b8ff" points="68.95,-23.66 78.26,-18.62 67.84,-16.75 68.95,-23.66"/>
</g>
<!-- Node3 -->
<g id="node3" class="node">
<title>Node3</title>
<g id="a_node3"><a xlink:href="binary__heap_8c.html#a76720d1612568af283cab311e6506150" target="_top" xlink:title="Moves the node at the given index down the binary heap to maintain the heap property....">
<polygon fill="white" stroke="#666666" points="322,-56 228,-56 228,-37 322,-37 322,-56"/>
<text text-anchor="middle" x="275" y="-44" font-family="Helvetica,sans-Serif" font-size="10.00">binary_heapify_up</text>
</a>
</g>
</g>
<!-- Node2&#45;&gt;Node3 -->
<g id="edge2" class="edge">
<title>Node2&#45;&gt;Node3</title>
<path fill="none" stroke="#63b8ff" d="M185.3,-46.5C195.26,-46.5 205.85,-46.5 216.12,-46.5"/>
<polygon fill="#63b8ff" stroke="#63b8ff" points="216,-50 226,-46.5 216,-43 216,-50"/>
</g>
</g>
</svg>
