<?xml version="1.0" encoding="UTF-8" standalone="no"?>
<!DOCTYPE svg PUBLIC "-//W3C//DTD SVG 1.1//EN"
 "http://www.w3.org/Graphics/SVG/1.1/DTD/svg11.dtd">
<!-- Generated by graphviz version 7.0.5 (20221223.1930)
 -->
<!-- Title: src/drivers/irline/barcode.c Pages: 1 -->
<svg width="436pt" height="203pt"
 viewBox="0.00 0.00 435.50 203.00" xmlns="http://www.w3.org/2000/svg" xmlns:xlink="http://www.w3.org/1999/xlink">
<g id="graph0" class="graph" transform="scale(1 1) rotate(0) translate(4 199)">
<title>src/drivers/irline/barcode.c</title>
<!-- Node1 -->
<g id="node1" class="node">
<title>Node1</title>
<g id="a_node1"><a xlink:title="Implementation of the barcode driver.">
<polygon fill="#999999" stroke="#666666" points="237.5,-195 151.5,-195 151.5,-165 237.5,-165 237.5,-195"/>
<text text-anchor="start" x="159.5" y="-183" font-family="Helvetica,sans-Serif" font-size="10.00">src/drivers/irline</text>
<text text-anchor="middle" x="194.5" y="-172" font-family="Helvetica,sans-Serif" font-size="10.00">/barcode.c</text>
</a>
</g>
</g>
<!-- Node2 -->
<g id="node2" class="node">
<title>Node2</title>
<g id="a_node2"><a xlink:title=" ">
<polygon fill="#e0e0e0" stroke="#999999" points="45,-129 0,-129 0,-110 45,-110 45,-129"/>
<text text-anchor="middle" x="22.5" y="-117" font-family="Helvetica,sans-Serif" font-size="10.00">stdio.h</text>
</a>
</g>
</g>
<!-- Node1&#45;&gt;Node2 -->
<g id="edge1" class="edge">
<title>Node1&#45;&gt;Node2</title>
<path fill="none" stroke="#63b8ff" d="M151.98,-164.54C122.26,-154.43 83.12,-141.12 55.69,-131.79"/>
<polygon fill="#63b8ff" stroke="#63b8ff" points="57.1,-128.57 46.5,-128.66 54.84,-135.2 57.1,-128.57"/>
</g>
<!-- Node3 -->
<g id="node3" class="node">
<title>Node3</title>
<g id="a_node3"><a xlink:title=" ">
<polygon fill="#e0e0e0" stroke="#999999" points="110,-129 63,-129 63,-110 110,-110 110,-129"/>
<text text-anchor="middle" x="86.5" y="-117" font-family="Helvetica,sans-Serif" font-size="10.00">stdlib.h</text>
</a>
</g>
</g>
<!-- Node1&#45;&gt;Node3 -->
<g id="edge2" class="edge">
<title>Node1&#45;&gt;Node3</title>
<path fill="none" stroke="#63b8ff" d="M167.8,-164.54C150.94,-155.4 129.26,-143.66 112.52,-134.6"/>
<polygon fill="#63b8ff" stroke="#63b8ff" points="114.62,-131.75 104.16,-130.07 111.29,-137.91 114.62,-131.75"/>
</g>
<!-- Node4 -->
<g id="node4" class="node">
<title>Node4</title>
<g id="a_node4"><a xlink:title=" ">
<polygon fill="#e0e0e0" stroke="#999999" points="268.5,-19 220.5,-19 220.5,0 268.5,0 268.5,-19"/>
<text text-anchor="middle" x="244.5" y="-7" font-family="Helvetica,sans-Serif" font-size="10.00">stdint.h</text>
</a>
</g>
</g>
<!-- Node1&#45;&gt;Node4 -->
<g id="edge3" class="edge">
<title>Node1&#45;&gt;Node4</title>
<path fill="none" stroke="#63b8ff" d="M178.56,-164.73C165.42,-151.13 150.05,-129.85 157.5,-110 170.65,-74.98 202.34,-44.21 223.62,-26.48"/>
<polygon fill="#63b8ff" stroke="#63b8ff" points="225.78,-29.23 231.38,-20.23 221.39,-23.78 225.78,-29.23"/>
</g>
<!-- Node5 -->
<g id="node5" class="node">
<title>Node5</title>
<g id="a_node5"><a xlink:title=" ">
<polygon fill="#e0e0e0" stroke="#999999" points="222.5,-129 166.5,-129 166.5,-110 222.5,-110 222.5,-129"/>
<text text-anchor="middle" x="194.5" y="-117" font-family="Helvetica,sans-Serif" font-size="10.00">stdbool.h</text>
</a>
</g>
</g>
<!-- Node1&#45;&gt;Node5 -->
<g id="edge4" class="edge">
<title>Node1&#45;&gt;Node5</title>
<path fill="none" stroke="#63b8ff" d="M194.5,-164.54C194.5,-157.34 194.5,-148.53 194.5,-140.68"/>
<polygon fill="#63b8ff" stroke="#63b8ff" points="198,-140.69 194.5,-130.69 191,-140.69 198,-140.69"/>
</g>
<!-- Node6 -->
<g id="node6" class="node">
<title>Node6</title>
<g id="a_node6"><a xlink:title=" ">
<polygon fill="#e0e0e0" stroke="#999999" points="288.5,-129 240.5,-129 240.5,-110 288.5,-110 288.5,-129"/>
<text text-anchor="middle" x="264.5" y="-117" font-family="Helvetica,sans-Serif" font-size="10.00">string.h</text>
</a>
</g>
</g>
<!-- Node1&#45;&gt;Node6 -->
<g id="edge5" class="edge">
<title>Node1&#45;&gt;Node6</title>
<path fill="none" stroke="#63b8ff" d="M211.8,-164.54C221.97,-156.04 234.84,-145.29 245.32,-136.53"/>
<polygon fill="#63b8ff" stroke="#63b8ff" points="247.53,-139.24 252.96,-130.15 243.04,-133.87 247.53,-139.24"/>
</g>
<!-- Node7 -->
<g id="node7" class="node">
<title>Node7</title>
<g id="a_node7"><a xlink:href="ir__sensor_8h.html" target="_top" xlink:title="Header file for the IR sensor driver.">
<polygon fill="white" stroke="#666666" points="394,-129 307,-129 307,-110 394,-110 394,-129"/>
<text text-anchor="middle" x="350.5" y="-117" font-family="Helvetica,sans-Serif" font-size="10.00">irline/ir_sensor.h</text>
</a>
</g>
</g>
<!-- Node1&#45;&gt;Node7 -->
<g id="edge6" class="edge">
<title>Node1&#45;&gt;Node7</title>
<path fill="none" stroke="#63b8ff" d="M233.06,-164.54C258.57,-154.97 291.71,-142.55 316.28,-133.33"/>
<polygon fill="#63b8ff" stroke="#63b8ff" points="317.36,-136.67 325.49,-129.88 314.9,-130.11 317.36,-136.67"/>
</g>
<!-- Node9 -->
<g id="node9" class="node">
<title>Node9</title>
<g id="a_node9"><a xlink:href="barcode_8h.html" target="_top" xlink:title="Header file for the barcode driver.">
<polygon fill="white" stroke="#666666" points="427.5,-74 345.5,-74 345.5,-55 427.5,-55 427.5,-74"/>
<text text-anchor="middle" x="386.5" y="-62" font-family="Helvetica,sans-Serif" font-size="10.00">irline/barcode.h</text>
</a>
</g>
</g>
<!-- Node1&#45;&gt;Node9 -->
<g id="edge10" class="edge">
<title>Node1&#45;&gt;Node9</title>
<path fill="none" stroke="#63b8ff" d="M237.96,-174.85C293.04,-168.58 383.28,-154.63 403.5,-129 413.75,-116.01 406.93,-97.35 399.09,-83.63"/>
<polygon fill="#63b8ff" stroke="#63b8ff" points="402.28,-82.12 393.97,-75.54 396.37,-85.86 402.28,-82.12"/>
</g>
<!-- Node8 -->
<g id="node8" class="node">
<title>Node8</title>
<g id="a_node8"><a xlink:title=" ">
<polygon fill="#e0e0e0" stroke="#999999" points="327.5,-74 259.5,-74 259.5,-55 327.5,-55 327.5,-74"/>
<text text-anchor="middle" x="293.5" y="-62" font-family="Helvetica,sans-Serif" font-size="10.00">pico/types.h</text>
</a>
</g>
</g>
<!-- Node7&#45;&gt;Node8 -->
<g id="edge7" class="edge">
<title>Node7&#45;&gt;Node8</title>
<path fill="none" stroke="#63b8ff" d="M340.83,-109.51C332.76,-102 321.03,-91.1 311.28,-82.03"/>
<polygon fill="#63b8ff" stroke="#63b8ff" points="313.84,-79.63 304.13,-75.39 309.07,-84.76 313.84,-79.63"/>
</g>
<!-- Node7&#45;&gt;Node9 -->
<g id="edge8" class="edge">
<title>Node7&#45;&gt;Node9</title>
<path fill="none" stroke="#63b8ff" d="M356.44,-109.75C361.21,-102.73 368.06,-92.64 374.02,-83.87"/>
<polygon fill="#63b8ff" stroke="#63b8ff" points="376.85,-85.93 379.58,-75.69 371.06,-82 376.85,-85.93"/>
</g>
<!-- Node9&#45;&gt;Node4 -->
<g id="edge9" class="edge">
<title>Node9&#45;&gt;Node4</title>
<path fill="none" stroke="#63b8ff" d="M362.41,-54.51C339.43,-45.93 304.56,-32.92 278.7,-23.27"/>
<polygon fill="#63b8ff" stroke="#63b8ff" points="280.24,-20.1 269.65,-19.89 277.8,-26.66 280.24,-20.1"/>
</g>
</g>
</svg>
