<?xml version="1.0" encoding="UTF-8" standalone="no"?>
<!DOCTYPE svg PUBLIC "-//W3C//DTD SVG 1.1//EN"
 "http://www.w3.org/Graphics/SVG/1.1/DTD/svg11.dtd">
<!-- Generated by graphviz version 7.0.5 (20221223.1930)
 -->
<!-- Title: src/drivers/irline/barcode.h Pages: 1 -->
<svg width="382pt" height="170pt"
 viewBox="0.00 0.00 382.00 170.00" xmlns="http://www.w3.org/2000/svg" xmlns:xlink="http://www.w3.org/1999/xlink">
<g id="graph0" class="graph" transform="scale(1 1) rotate(0) translate(4 166)">
<title>src/drivers/irline/barcode.h</title>
<!-- Node1 -->
<g id="node1" class="node">
<title>Node1</title>
<g id="a_node1"><a xlink:title="Header file for the barcode driver.">
<polygon fill="#999999" stroke="#666666" points="225,-162 139,-162 139,-132 225,-132 225,-162"/>
<text text-anchor="start" x="147" y="-150" font-family="Helvetica,sans-Serif" font-size="10.00">src/drivers/irline</text>
<text text-anchor="middle" x="182" y="-139" font-family="Helvetica,sans-Serif" font-size="10.00">/barcode.h</text>
</a>
</g>
</g>
<!-- Node2 -->
<g id="node2" class="node">
<title>Node2</title>
<g id="a_node2"><a xlink:href="barcode_8c.html" target="_top" xlink:title="Implementation of the barcode driver.">
<polygon fill="white" stroke="#666666" points="86,-30 0,-30 0,0 86,0 86,-30"/>
<text text-anchor="start" x="8" y="-18" font-family="Helvetica,sans-Serif" font-size="10.00">src/drivers/irline</text>
<text text-anchor="middle" x="43" y="-7" font-family="Helvetica,sans-Serif" font-size="10.00">/barcode.c</text>
</a>
</g>
</g>
<!-- Node1&#45;&gt;Node2 -->
<g id="edge1" class="edge">
<title>Node1&#45;&gt;Node2</title>
<path fill="none" stroke="#63b8ff" d="M158.39,-123.92C129.88,-97.25 82.73,-53.16 58.48,-30.47"/>
<polygon fill="#63b8ff" stroke="#63b8ff" points="155.79,-126.28 165.49,-130.56 160.58,-121.17 155.79,-126.28"/>
</g>
<!-- Node3 -->
<g id="node3" class="node">
<title>Node3</title>
<g id="a_node3"><a xlink:href="ir__sensor_8c.html" target="_top" xlink:title="Driver code for the IR sensor driver.">
<polygon fill="white" stroke="#666666" points="190,-30 104,-30 104,0 190,0 190,-30"/>
<text text-anchor="start" x="112" y="-18" font-family="Helvetica,sans-Serif" font-size="10.00">src/drivers/irline</text>
<text text-anchor="middle" x="147" y="-7" font-family="Helvetica,sans-Serif" font-size="10.00">/ir_sensor.c</text>
</a>
</g>
</g>
<!-- Node1&#45;&gt;Node3 -->
<g id="edge2" class="edge">
<title>Node1&#45;&gt;Node3</title>
<path fill="none" stroke="#63b8ff" d="M173.54,-120.86C170.99,-112.94 168.27,-104.14 166,-96 159.65,-73.17 153.54,-46.31 150.04,-30.25"/>
<polygon fill="#63b8ff" stroke="#63b8ff" points="170.17,-121.8 176.61,-130.21 176.82,-119.62 170.17,-121.8"/>
</g>
<!-- Node4 -->
<g id="node4" class="node">
<title>Node4</title>
<g id="a_node4"><a xlink:href="ir__sensor_8h.html" target="_top" xlink:title="Header file for the IR sensor driver.">
<polygon fill="white" stroke="#666666" points="261,-96 175,-96 175,-66 261,-66 261,-96"/>
<text text-anchor="start" x="183" y="-84" font-family="Helvetica,sans-Serif" font-size="10.00">src/drivers/irline</text>
<text text-anchor="middle" x="218" y="-73" font-family="Helvetica,sans-Serif" font-size="10.00">/ir_sensor.h</text>
</a>
</g>
</g>
<!-- Node1&#45;&gt;Node4 -->
<g id="edge3" class="edge">
<title>Node1&#45;&gt;Node4</title>
<path fill="none" stroke="#63b8ff" d="M195.6,-121.83C200.47,-113.17 205.8,-103.7 210.03,-96.16"/>
<polygon fill="#63b8ff" stroke="#63b8ff" points="192.58,-120.05 190.73,-130.48 198.68,-123.48 192.58,-120.05"/>
</g>
<!-- Node5 -->
<g id="node5" class="node">
<title>Node5</title>
<g id="a_node5"><a xlink:href="drivers_2irline_2main_8c.html" target="_top" xlink:title="Demonstration for the IR sensor driver.">
<polygon fill="white" stroke="#666666" points="374,-30 288,-30 288,0 374,0 374,-30"/>
<text text-anchor="start" x="296" y="-18" font-family="Helvetica,sans-Serif" font-size="10.00">src/drivers/irline</text>
<text text-anchor="middle" x="331" y="-7" font-family="Helvetica,sans-Serif" font-size="10.00">/main.c</text>
</a>
</g>
</g>
<!-- Node1&#45;&gt;Node5 -->
<g id="edge8" class="edge">
<title>Node1&#45;&gt;Node5</title>
<path fill="none" stroke="#63b8ff" d="M223.96,-126.61C239.34,-118.4 256.32,-107.95 270,-96 292.36,-76.47 311.92,-47.6 322.54,-30.41"/>
<polygon fill="#63b8ff" stroke="#63b8ff" points="222.76,-123.29 215.48,-130.99 225.97,-129.52 222.76,-123.29"/>
</g>
<!-- Node4&#45;&gt;Node2 -->
<g id="edge4" class="edge">
<title>Node4&#45;&gt;Node2</title>
<path fill="none" stroke="#63b8ff" d="M168.25,-61.8C141.05,-51.86 107.83,-39.71 82.44,-30.43"/>
<polygon fill="#63b8ff" stroke="#63b8ff" points="166.71,-64.97 177.31,-65.12 169.12,-58.4 166.71,-64.97"/>
</g>
<!-- Node4&#45;&gt;Node3 -->
<g id="edge5" class="edge">
<title>Node4&#45;&gt;Node3</title>
<path fill="none" stroke="#63b8ff" d="M193.69,-58.09C183.44,-48.85 171.81,-38.36 162.71,-30.16"/>
<polygon fill="#63b8ff" stroke="#63b8ff" points="191.35,-60.69 201.12,-64.78 196.03,-55.49 191.35,-60.69"/>
</g>
<!-- Node4&#45;&gt;Node5 -->
<g id="edge6" class="edge">
<title>Node4&#45;&gt;Node5</title>
<path fill="none" stroke="#63b8ff" d="M252.99,-60.18C270.05,-50.52 290.18,-39.12 305.73,-30.31"/>
<polygon fill="#63b8ff" stroke="#63b8ff" points="251.65,-56.92 244.68,-64.89 255.1,-63.01 251.65,-56.92"/>
</g>
<!-- Node6 -->
<g id="node6" class="node">
<title>Node6</title>
<g id="a_node6"><a xlink:href="main_8c.html" target="_top" xlink:title="The main source file for robot control.">
<polygon fill="white" stroke="#666666" points="270,-24.5 208,-24.5 208,-5.5 270,-5.5 270,-24.5"/>
<text text-anchor="middle" x="239" y="-12.5" font-family="Helvetica,sans-Serif" font-size="10.00">src/main.c</text>
</a>
</g>
</g>
<!-- Node4&#45;&gt;Node6 -->
<g id="edge7" class="edge">
<title>Node4&#45;&gt;Node6</title>
<path fill="none" stroke="#63b8ff" d="M226.23,-54.93C229.71,-44.31 233.55,-32.61 236.1,-24.84"/>
<polygon fill="#63b8ff" stroke="#63b8ff" points="222.92,-53.77 223.13,-64.36 229.58,-55.95 222.92,-53.77"/>
</g>
</g>
</svg>
