<?xml version="1.0" encoding="UTF-8" standalone="no"?>
<!DOCTYPE svg PUBLIC "-//W3C//DTD SVG 1.1//EN"
 "http://www.w3.org/Graphics/SVG/1.1/DTD/svg11.dtd">
<!-- Generated by graphviz version 7.0.5 (20221223.1930)
 -->
<!-- Title: main/driver/irline/barcode.c Pages: 1 -->
<svg width="492pt" height="203pt"
 viewBox="0.00 0.00 492.00 203.00" xmlns="http://www.w3.org/2000/svg" xmlns:xlink="http://www.w3.org/1999/xlink">
<g id="graph0" class="graph" transform="scale(1 1) rotate(0) translate(4 199)">
<title>main/driver/irline/barcode.c</title>
<!-- Node1 -->
<g id="node1" class="node">
<title>Node1</title>
<g id="a_node1"><a xlink:title="Implementation of the barcode driver.">
<polygon fill="#999999" stroke="#666666" points="273.5,-195 185.5,-195 185.5,-165 273.5,-165 273.5,-195"/>
<text text-anchor="start" x="193.5" y="-183" font-family="Helvetica,sans-Serif" font-size="10.00">main/driver/irline</text>
<text text-anchor="middle" x="229.5" y="-172" font-family="Helvetica,sans-Serif" font-size="10.00">/barcode.c</text>
</a>
</g>
</g>
<!-- Node2 -->
<g id="node2" class="node">
<title>Node2</title>
<g id="a_node2"><a xlink:title=" ">
<polygon fill="#e0e0e0" stroke="#999999" points="45,-129 0,-129 0,-110 45,-110 45,-129"/>
<text text-anchor="middle" x="22.5" y="-117" font-family="Helvetica,sans-Serif" font-size="10.00">stdio.h</text>
</a>
</g>
</g>
<!-- Node1&#45;&gt;Node2 -->
<g id="edge1" class="edge">
<title>Node1&#45;&gt;Node2</title>
<path fill="none" stroke="#63b8ff" d="M185.09,-166.45C146.4,-155.51 91.12,-139.89 56.03,-129.98"/>
<polygon fill="#63b8ff" stroke="#63b8ff" points="57.43,-126.73 46.85,-127.38 55.52,-133.47 57.43,-126.73"/>
</g>
<!-- Node3 -->
<g id="node3" class="node">
<title>Node3</title>
<g id="a_node3"><a xlink:title=" ">
<polygon fill="#e0e0e0" stroke="#999999" points="110,-129 63,-129 63,-110 110,-110 110,-129"/>
<text text-anchor="middle" x="86.5" y="-117" font-family="Helvetica,sans-Serif" font-size="10.00">stdlib.h</text>
</a>
</g>
</g>
<!-- Node1&#45;&gt;Node3 -->
<g id="edge2" class="edge">
<title>Node1&#45;&gt;Node3</title>
<path fill="none" stroke="#63b8ff" d="M194.15,-164.54C170.98,-155.06 140.94,-142.77 118.48,-133.58"/>
<polygon fill="#63b8ff" stroke="#63b8ff" points="120.11,-130.47 109.52,-129.92 117.46,-136.95 120.11,-130.47"/>
</g>
<!-- Node4 -->
<g id="node4" class="node">
<title>Node4</title>
<g id="a_node4"><a xlink:title=" ">
<polygon fill="#e0e0e0" stroke="#999999" points="305.5,-19 257.5,-19 257.5,0 305.5,0 305.5,-19"/>
<text text-anchor="middle" x="281.5" y="-7" font-family="Helvetica,sans-Serif" font-size="10.00">stdint.h</text>
</a>
</g>
</g>
<!-- Node1&#45;&gt;Node4 -->
<g id="edge3" class="edge">
<title>Node1&#45;&gt;Node4</title>
<path fill="none" stroke="#63b8ff" d="M195.47,-164.61C171.87,-152.29 146.49,-132.95 157.5,-110 176.94,-69.48 221.8,-40.26 251.89,-24.35"/>
<polygon fill="#63b8ff" stroke="#63b8ff" points="253.18,-27.62 260.5,-19.97 250,-21.38 253.18,-27.62"/>
</g>
<!-- Node5 -->
<g id="node5" class="node">
<title>Node5</title>
<g id="a_node5"><a xlink:title=" ">
<polygon fill="#e0e0e0" stroke="#999999" points="222.5,-129 166.5,-129 166.5,-110 222.5,-110 222.5,-129"/>
<text text-anchor="middle" x="194.5" y="-117" font-family="Helvetica,sans-Serif" font-size="10.00">stdbool.h</text>
</a>
</g>
</g>
<!-- Node1&#45;&gt;Node5 -->
<g id="edge4" class="edge">
<title>Node1&#45;&gt;Node5</title>
<path fill="none" stroke="#63b8ff" d="M220.85,-164.54C216.23,-156.82 210.5,-147.24 205.56,-138.99"/>
<polygon fill="#63b8ff" stroke="#63b8ff" points="208.61,-137.26 200.47,-130.47 202.6,-140.85 208.61,-137.26"/>
</g>
<!-- Node6 -->
<g id="node6" class="node">
<title>Node6</title>
<g id="a_node6"><a xlink:title=" ">
<polygon fill="#e0e0e0" stroke="#999999" points="288.5,-129 240.5,-129 240.5,-110 288.5,-110 288.5,-129"/>
<text text-anchor="middle" x="264.5" y="-117" font-family="Helvetica,sans-Serif" font-size="10.00">string.h</text>
</a>
</g>
</g>
<!-- Node1&#45;&gt;Node6 -->
<g id="edge5" class="edge">
<title>Node1&#45;&gt;Node6</title>
<path fill="none" stroke="#63b8ff" d="M238.15,-164.54C242.77,-156.82 248.5,-147.24 253.44,-138.99"/>
<polygon fill="#63b8ff" stroke="#63b8ff" points="256.4,-140.85 258.53,-130.47 250.39,-137.26 256.4,-140.85"/>
</g>
<!-- Node7 -->
<g id="node7" class="node">
<title>Node7</title>
<g id="a_node7"><a xlink:title=" ">
<polygon fill="#e0e0e0" stroke="#999999" points="374.5,-129 306.5,-129 306.5,-110 374.5,-110 374.5,-129"/>
<text text-anchor="middle" x="340.5" y="-117" font-family="Helvetica,sans-Serif" font-size="10.00">pico/stdlib.h</text>
</a>
</g>
</g>
<!-- Node1&#45;&gt;Node7 -->
<g id="edge6" class="edge">
<title>Node1&#45;&gt;Node7</title>
<path fill="none" stroke="#63b8ff" d="M256.94,-164.54C274.27,-155.4 296.56,-143.66 313.75,-134.6"/>
<polygon fill="#63b8ff" stroke="#63b8ff" points="315.16,-137.81 322.38,-130.05 311.9,-131.62 315.16,-137.81"/>
</g>
<!-- Node8 -->
<g id="node8" class="node">
<title>Node8</title>
<g id="a_node8"><a xlink:href="ir__sensor_8h.html" target="_top" xlink:title="Header file for the IR sensor driver.">
<polygon fill="white" stroke="#666666" points="456.5,-129 392.5,-129 392.5,-110 456.5,-110 456.5,-129"/>
<text text-anchor="middle" x="424.5" y="-117" font-family="Helvetica,sans-Serif" font-size="10.00">ir_sensor.h</text>
</a>
</g>
</g>
<!-- Node1&#45;&gt;Node8 -->
<g id="edge7" class="edge">
<title>Node1&#45;&gt;Node8</title>
<path fill="none" stroke="#63b8ff" d="M273.75,-165.73C306.82,-155.8 351.68,-142.35 383.85,-132.69"/>
<polygon fill="#63b8ff" stroke="#63b8ff" points="384.64,-136.11 393.21,-129.89 382.63,-129.41 384.64,-136.11"/>
</g>
<!-- Node10 -->
<g id="node10" class="node">
<title>Node10</title>
<g id="a_node10"><a xlink:href="barcode_8h.html" target="_top" xlink:title="Header file for the barcode driver.">
<polygon fill="white" stroke="#666666" points="484,-74 425,-74 425,-55 484,-55 484,-74"/>
<text text-anchor="middle" x="454.5" y="-62" font-family="Helvetica,sans-Serif" font-size="10.00">barcode.h</text>
</a>
</g>
</g>
<!-- Node1&#45;&gt;Node10 -->
<g id="edge11" class="edge">
<title>Node1&#45;&gt;Node10</title>
<path fill="none" stroke="#63b8ff" d="M273.79,-176.1C335.33,-171.04 441.83,-158.2 465.5,-129 475.52,-116.64 471.01,-98.42 465.03,-84.66"/>
<polygon fill="#63b8ff" stroke="#63b8ff" points="468.18,-83.15 460.61,-75.74 461.91,-86.26 468.18,-83.15"/>
</g>
<!-- Node9 -->
<g id="node9" class="node">
<title>Node9</title>
<g id="a_node9"><a xlink:title=" ">
<polygon fill="#e0e0e0" stroke="#999999" points="406.5,-74 338.5,-74 338.5,-55 406.5,-55 406.5,-74"/>
<text text-anchor="middle" x="372.5" y="-62" font-family="Helvetica,sans-Serif" font-size="10.00">pico/types.h</text>
</a>
</g>
</g>
<!-- Node8&#45;&gt;Node9 -->
<g id="edge8" class="edge">
<title>Node8&#45;&gt;Node9</title>
<path fill="none" stroke="#63b8ff" d="M415.91,-109.75C408.66,-102.35 398.05,-91.54 389.13,-82.45"/>
<polygon fill="#63b8ff" stroke="#63b8ff" points="391.84,-80.21 382.33,-75.52 386.84,-85.11 391.84,-80.21"/>
</g>
<!-- Node8&#45;&gt;Node10 -->
<g id="edge9" class="edge">
<title>Node8&#45;&gt;Node10</title>
<path fill="none" stroke="#63b8ff" d="M429.45,-109.75C433.34,-102.88 438.89,-93.08 443.78,-84.45"/>
<polygon fill="#63b8ff" stroke="#63b8ff" points="446.81,-86.19 448.69,-75.76 440.72,-82.74 446.81,-86.19"/>
</g>
<!-- Node10&#45;&gt;Node4 -->
<g id="edge10" class="edge">
<title>Node10&#45;&gt;Node4</title>
<path fill="none" stroke="#63b8ff" d="M425.15,-54.51C395.14,-45.32 348.52,-31.03 316.58,-21.25"/>
<polygon fill="#63b8ff" stroke="#63b8ff" points="317.98,-18.02 307.4,-18.43 315.93,-24.71 317.98,-18.02"/>
</g>
</g>
</svg>
