<?xml version="1.0" encoding="UTF-8" standalone="no"?>
<!DOCTYPE svg PUBLIC "-//W3C//DTD SVG 1.1//EN"
 "http://www.w3.org/Graphics/SVG/1.1/DTD/svg11.dtd">
<!-- Generated by graphviz version 7.0.5 (20221223.1930)
 -->
<!-- Title: main/driver/irline/barcode.h Pages: 1 -->
<svg width="308pt" height="170pt"
 viewBox="0.00 0.00 308.00 170.00" xmlns="http://www.w3.org/2000/svg" xmlns:xlink="http://www.w3.org/1999/xlink">
<g id="graph0" class="graph" transform="scale(1 1) rotate(0) translate(4 166)">
<title>main/driver/irline/barcode.h</title>
<!-- Node1 -->
<g id="node1" class="node">
<title>Node1</title>
<g id="a_node1"><a xlink:title="Header file for the barcode driver.">
<polygon fill="#999999" stroke="#666666" points="207,-162 119,-162 119,-132 207,-132 207,-162"/>
<text text-anchor="start" x="127" y="-150" font-family="Helvetica,sans-Serif" font-size="10.00">main/driver/irline</text>
<text text-anchor="middle" x="163" y="-139" font-family="Helvetica,sans-Serif" font-size="10.00">/barcode.h</text>
</a>
</g>
</g>
<!-- Node2 -->
<g id="node2" class="node">
<title>Node2</title>
<g id="a_node2"><a xlink:href="barcode_8c.html" target="_top" xlink:title="Implementation of the barcode driver.">
<polygon fill="white" stroke="#666666" points="88,-30 0,-30 0,0 88,0 88,-30"/>
<text text-anchor="start" x="8" y="-18" font-family="Helvetica,sans-Serif" font-size="10.00">main/driver/irline</text>
<text text-anchor="middle" x="44" y="-7" font-family="Helvetica,sans-Serif" font-size="10.00">/barcode.c</text>
</a>
</g>
</g>
<!-- Node1&#45;&gt;Node2 -->
<g id="edge1" class="edge">
<title>Node1&#45;&gt;Node2</title>
<path fill="none" stroke="#63b8ff" d="M114.71,-126.73C100.06,-118.97 84.97,-108.79 74,-96 57.49,-76.75 49.65,-47.52 46.26,-30.23"/>
<polygon fill="#63b8ff" stroke="#63b8ff" points="112.85,-129.71 123.36,-131.03 115.97,-123.44 112.85,-129.71"/>
</g>
<!-- Node3 -->
<g id="node3" class="node">
<title>Node3</title>
<g id="a_node3"><a xlink:href="ir__sensor_8c.html" target="_top" xlink:title="Driver code for the IR sensor driver.">
<polygon fill="white" stroke="#666666" points="194,-30 106,-30 106,0 194,0 194,-30"/>
<text text-anchor="start" x="114" y="-18" font-family="Helvetica,sans-Serif" font-size="10.00">main/driver/irline</text>
<text text-anchor="middle" x="150" y="-7" font-family="Helvetica,sans-Serif" font-size="10.00">/ir_sensor.c</text>
</a>
</g>
</g>
<!-- Node1&#45;&gt;Node3 -->
<g id="edge2" class="edge">
<title>Node1&#45;&gt;Node3</title>
<path fill="none" stroke="#63b8ff" d="M174.42,-121.15C180.21,-105.26 185.06,-84.28 180,-66 176.38,-52.93 168.33,-39.84 161.48,-30.34"/>
<polygon fill="#63b8ff" stroke="#63b8ff" points="171.22,-119.72 170.73,-130.31 177.71,-122.34 171.22,-119.72"/>
</g>
<!-- Node4 -->
<g id="node4" class="node">
<title>Node4</title>
<g id="a_node4"><a xlink:href="ir__sensor_8h.html" target="_top" xlink:title="Header file for the IR sensor driver.">
<polygon fill="white" stroke="#666666" points="171,-96 83,-96 83,-66 171,-66 171,-96"/>
<text text-anchor="start" x="91" y="-84" font-family="Helvetica,sans-Serif" font-size="10.00">main/driver/irline</text>
<text text-anchor="middle" x="127" y="-73" font-family="Helvetica,sans-Serif" font-size="10.00">/ir_sensor.h</text>
</a>
</g>
</g>
<!-- Node1&#45;&gt;Node4 -->
<g id="edge3" class="edge">
<title>Node1&#45;&gt;Node4</title>
<path fill="none" stroke="#63b8ff" d="M149.4,-121.83C144.53,-113.17 139.2,-103.7 134.97,-96.16"/>
<polygon fill="#63b8ff" stroke="#63b8ff" points="146.32,-123.48 154.27,-130.48 152.42,-120.05 146.32,-123.48"/>
</g>
<!-- Node5 -->
<g id="node5" class="node">
<title>Node5</title>
<g id="a_node5"><a xlink:href="driver_2irline_2main_8c.html" target="_top" xlink:title="Demonstration for the IR sensor driver.">
<polygon fill="white" stroke="#666666" points="300,-30 212,-30 212,0 300,0 300,-30"/>
<text text-anchor="start" x="220" y="-18" font-family="Helvetica,sans-Serif" font-size="10.00">main/driver/irline</text>
<text text-anchor="middle" x="256" y="-7" font-family="Helvetica,sans-Serif" font-size="10.00">/main.c</text>
</a>
</g>
</g>
<!-- Node1&#45;&gt;Node5 -->
<g id="edge7" class="edge">
<title>Node1&#45;&gt;Node5</title>
<path fill="none" stroke="#63b8ff" d="M179.8,-122.52C198.96,-95.74 229.7,-52.77 245.65,-30.47"/>
<polygon fill="#63b8ff" stroke="#63b8ff" points="177.16,-120.19 174.19,-130.36 182.85,-124.26 177.16,-120.19"/>
</g>
<!-- Node4&#45;&gt;Node2 -->
<g id="edge4" class="edge">
<title>Node4&#45;&gt;Node2</title>
<path fill="none" stroke="#63b8ff" d="M99.73,-58.97C87.58,-49.61 73.58,-38.81 62.66,-30.39"/>
<polygon fill="#63b8ff" stroke="#63b8ff" points="97.32,-61.54 107.38,-64.87 101.6,-55.99 97.32,-61.54"/>
</g>
<!-- Node4&#45;&gt;Node3 -->
<g id="edge5" class="edge">
<title>Node4&#45;&gt;Node3</title>
<path fill="none" stroke="#63b8ff" d="M136,-54.97C139.02,-46.55 142.29,-37.45 144.91,-30.16"/>
<polygon fill="#63b8ff" stroke="#63b8ff" points="132.7,-53.78 132.62,-64.37 139.29,-56.14 132.7,-53.78"/>
</g>
<!-- Node4&#45;&gt;Node5 -->
<g id="edge6" class="edge">
<title>Node4&#45;&gt;Node5</title>
<path fill="none" stroke="#63b8ff" d="M166.13,-60.59C185.77,-50.84 209.16,-39.24 227.15,-30.31"/>
<polygon fill="#63b8ff" stroke="#63b8ff" points="164.71,-57.38 157.31,-64.96 167.82,-63.66 164.71,-57.38"/>
</g>
</g>
</svg>
