<?xml version="1.0" encoding="UTF-8" standalone="no"?>
<!DOCTYPE svg PUBLIC "-//W3C//DTD SVG 1.1//EN"
 "http://www.w3.org/Graphics/SVG/1.1/DTD/svg11.dtd">
<!-- Generated by graphviz version 7.0.5 (20221223.1930)
 -->
<!-- Title: src/drivers/irline/barcode.c Pages: 1 -->
<svg width="406pt" height="203pt"
 viewBox="0.00 0.00 406.00 203.00" xmlns="http://www.w3.org/2000/svg" xmlns:xlink="http://www.w3.org/1999/xlink">
<g id="graph0" class="graph" transform="scale(1 1) rotate(0) translate(4 199)">
<title>src/drivers/irline/barcode.c</title>
<!-- Node1 -->
<g id="node1" class="node">
<title>Node1</title>
<g id="a_node1"><a xlink:title="Implementation of the barcode driver.">
<polygon fill="#999999" stroke="#666666" points="237.5,-195 151.5,-195 151.5,-165 237.5,-165 237.5,-195"/>
<text text-anchor="start" x="159.5" y="-183" font-family="Helvetica,sans-Serif" font-size="10.00">src/drivers/irline</text>
<text text-anchor="middle" x="194.5" y="-172" font-family="Helvetica,sans-Serif" font-size="10.00">/barcode.c</text>
</a>
</g>
</g>
<!-- Node2 -->
<g id="node2" class="node">
<title>Node2</title>
<g id="a_node2"><a xlink:title=" ">
<polygon fill="#e0e0e0" stroke="#999999" points="45,-129 0,-129 0,-110 45,-110 45,-129"/>
<text text-anchor="middle" x="22.5" y="-117" font-family="Helvetica,sans-Serif" font-size="10.00">stdio.h</text>
</a>
</g>
</g>
<!-- Node1&#45;&gt;Node2 -->
<g id="edge1" class="edge">
<title>Node1&#45;&gt;Node2</title>
<path fill="none" stroke="#63b8ff" d="M151.98,-164.54C122.26,-154.43 83.12,-141.12 55.69,-131.79"/>
<polygon fill="#63b8ff" stroke="#63b8ff" points="57.1,-128.57 46.5,-128.66 54.84,-135.2 57.1,-128.57"/>
</g>
<!-- Node3 -->
<g id="node3" class="node">
<title>Node3</title>
<g id="a_node3"><a xlink:title=" ">
<polygon fill="#e0e0e0" stroke="#999999" points="110,-129 63,-129 63,-110 110,-110 110,-129"/>
<text text-anchor="middle" x="86.5" y="-117" font-family="Helvetica,sans-Serif" font-size="10.00">stdlib.h</text>
</a>
</g>
</g>
<!-- Node1&#45;&gt;Node3 -->
<g id="edge2" class="edge">
<title>Node1&#45;&gt;Node3</title>
<path fill="none" stroke="#63b8ff" d="M167.8,-164.54C150.94,-155.4 129.26,-143.66 112.52,-134.6"/>
<polygon fill="#63b8ff" stroke="#63b8ff" points="114.62,-131.75 104.16,-130.07 111.29,-137.91 114.62,-131.75"/>
</g>
<!-- Node4 -->
<g id="node4" class="node">
<title>Node4</title>
<g id="a_node4"><a xlink:title=" ">
<polygon fill="#e0e0e0" stroke="#999999" points="262.5,-19 214.5,-19 214.5,0 262.5,0 262.5,-19"/>
<text text-anchor="middle" x="238.5" y="-7" font-family="Helvetica,sans-Serif" font-size="10.00">stdint.h</text>
</a>
</g>
</g>
<!-- Node1&#45;&gt;Node4 -->
<g id="edge3" class="edge">
<title>Node1&#45;&gt;Node4</title>
<path fill="none" stroke="#63b8ff" d="M178.47,-164.52C165.49,-150.96 150.44,-129.85 157.5,-110 169.61,-75.94 198.92,-45.07 218.76,-27.04"/>
<polygon fill="#63b8ff" stroke="#63b8ff" points="221.02,-29.71 226.22,-20.48 216.4,-24.45 221.02,-29.71"/>
</g>
<!-- Node5 -->
<g id="node5" class="node">
<title>Node5</title>
<g id="a_node5"><a xlink:title=" ">
<polygon fill="#e0e0e0" stroke="#999999" points="222.5,-129 166.5,-129 166.5,-110 222.5,-110 222.5,-129"/>
<text text-anchor="middle" x="194.5" y="-117" font-family="Helvetica,sans-Serif" font-size="10.00">stdbool.h</text>
</a>
</g>
</g>
<!-- Node1&#45;&gt;Node5 -->
<g id="edge4" class="edge">
<title>Node1&#45;&gt;Node5</title>
<path fill="none" stroke="#63b8ff" d="M194.5,-164.54C194.5,-157.34 194.5,-148.53 194.5,-140.68"/>
<polygon fill="#63b8ff" stroke="#63b8ff" points="198,-140.69 194.5,-130.69 191,-140.69 198,-140.69"/>
</g>
<!-- Node6 -->
<g id="node6" class="node">
<title>Node6</title>
<g id="a_node6"><a xlink:title=" ">
<polygon fill="#e0e0e0" stroke="#999999" points="288.5,-129 240.5,-129 240.5,-110 288.5,-110 288.5,-129"/>
<text text-anchor="middle" x="264.5" y="-117" font-family="Helvetica,sans-Serif" font-size="10.00">string.h</text>
</a>
</g>
</g>
<!-- Node1&#45;&gt;Node6 -->
<g id="edge5" class="edge">
<title>Node1&#45;&gt;Node6</title>
<path fill="none" stroke="#63b8ff" d="M211.8,-164.54C221.97,-156.04 234.84,-145.29 245.32,-136.53"/>
<polygon fill="#63b8ff" stroke="#63b8ff" points="247.53,-139.24 252.96,-130.15 243.04,-133.87 247.53,-139.24"/>
</g>
<!-- Node7 -->
<g id="node7" class="node">
<title>Node7</title>
<g id="a_node7"><a xlink:href="ir__sensor_8h.html" target="_top" xlink:title="Header file for the IR sensor driver.">
<polygon fill="white" stroke="#666666" points="370.5,-129 306.5,-129 306.5,-110 370.5,-110 370.5,-129"/>
<text text-anchor="middle" x="338.5" y="-117" font-family="Helvetica,sans-Serif" font-size="10.00">ir_sensor.h</text>
</a>
</g>
</g>
<!-- Node1&#45;&gt;Node7 -->
<g id="edge6" class="edge">
<title>Node1&#45;&gt;Node7</title>
<path fill="none" stroke="#63b8ff" d="M230.1,-164.54C253.43,-155.06 283.68,-142.77 306.3,-133.58"/>
<polygon fill="#63b8ff" stroke="#63b8ff" points="307.38,-136.92 315.32,-129.92 304.74,-130.44 307.38,-136.92"/>
</g>
<!-- Node9 -->
<g id="node9" class="node">
<title>Node9</title>
<g id="a_node9"><a xlink:href="barcode_8h.html" target="_top" xlink:title="Header file for the barcode driver.">
<polygon fill="white" stroke="#666666" points="398,-74 339,-74 339,-55 398,-55 398,-74"/>
<text text-anchor="middle" x="368.5" y="-62" font-family="Helvetica,sans-Serif" font-size="10.00">barcode.h</text>
</a>
</g>
</g>
<!-- Node1&#45;&gt;Node9 -->
<g id="edge10" class="edge">
<title>Node1&#45;&gt;Node9</title>
<path fill="none" stroke="#63b8ff" d="M237.72,-173.4C286.81,-166.05 362.36,-151.39 379.5,-129 389.17,-116.37 384.71,-98.18 378.82,-84.5"/>
<polygon fill="#63b8ff" stroke="#63b8ff" points="382.03,-83.1 374.49,-75.66 375.75,-86.18 382.03,-83.1"/>
</g>
<!-- Node8 -->
<g id="node8" class="node">
<title>Node8</title>
<g id="a_node8"><a xlink:title=" ">
<polygon fill="#e0e0e0" stroke="#999999" points="320.5,-74 252.5,-74 252.5,-55 320.5,-55 320.5,-74"/>
<text text-anchor="middle" x="286.5" y="-62" font-family="Helvetica,sans-Serif" font-size="10.00">pico/types.h</text>
</a>
</g>
</g>
<!-- Node7&#45;&gt;Node8 -->
<g id="edge7" class="edge">
<title>Node7&#45;&gt;Node8</title>
<path fill="none" stroke="#63b8ff" d="M329.91,-109.75C322.66,-102.35 312.05,-91.54 303.13,-82.45"/>
<polygon fill="#63b8ff" stroke="#63b8ff" points="305.84,-80.21 296.33,-75.52 300.84,-85.11 305.84,-80.21"/>
</g>
<!-- Node7&#45;&gt;Node9 -->
<g id="edge8" class="edge">
<title>Node7&#45;&gt;Node9</title>
<path fill="none" stroke="#63b8ff" d="M343.45,-109.75C347.34,-102.88 352.89,-93.08 357.78,-84.45"/>
<polygon fill="#63b8ff" stroke="#63b8ff" points="360.81,-86.19 362.69,-75.76 354.72,-82.74 360.81,-86.19"/>
</g>
<!-- Node9&#45;&gt;Node4 -->
<g id="edge9" class="edge">
<title>Node9&#45;&gt;Node4</title>
<path fill="none" stroke="#63b8ff" d="M346.45,-54.51C325.69,-46.04 294.34,-33.27 270.77,-23.66"/>
<polygon fill="#63b8ff" stroke="#63b8ff" points="272.21,-20.46 261.63,-19.93 269.57,-26.95 272.21,-20.46"/>
</g>
</g>
</svg>
