<?xml version="1.0" encoding="UTF-8" standalone="no"?>
<!DOCTYPE svg PUBLIC "-//W3C//DTD SVG 1.1//EN"
 "http://www.w3.org/Graphics/SVG/1.1/DTD/svg11.dtd">
<!-- Generated by graphviz version 7.0.5 (20221223.1930)
 -->
<!-- Title: src/pathfinding/binary_heap.h Pages: 1 -->
<svg width="778pt" height="159pt"
 viewBox="0.00 0.00 778.00 159.00" xmlns="http://www.w3.org/2000/svg" xmlns:xlink="http://www.w3.org/1999/xlink">
<g id="graph0" class="graph" transform="scale(1 1) rotate(0) translate(4 155)">
<title>src/pathfinding/binary_heap.h</title>
<!-- Node1 -->
<g id="node1" class="node">
<title>Node1</title>
<g id="a_node1"><a xlink:title="This file contains the declarations for the binary min&#45;heap used in the a* algorithm.">
<polygon fill="#999999" stroke="#666666" points="465.5,-151 357.5,-151 357.5,-121 465.5,-121 465.5,-151"/>
<text text-anchor="start" x="365.5" y="-139" font-family="Helvetica,sans-Serif" font-size="10.00">src/pathfinding/binary</text>
<text text-anchor="middle" x="411.5" y="-128" font-family="Helvetica,sans-Serif" font-size="10.00">_heap.h</text>
</a>
</g>
</g>
<!-- Node2 -->
<g id="node2" class="node">
<title>Node2</title>
<g id="a_node2"><a xlink:href="a__star_8c.html" target="_top" xlink:title="Source file for the implementation of the a* algorithm.">
<polygon fill="white" stroke="#666666" points="117,-19 0,-19 0,0 117,0 117,-19"/>
<text text-anchor="middle" x="58.5" y="-7" font-family="Helvetica,sans-Serif" font-size="10.00">src/pathfinding/a_star.c</text>
</a>
</g>
</g>
<!-- Node1&#45;&gt;Node2 -->
<g id="edge1" class="edge">
<title>Node1&#45;&gt;Node2</title>
<path fill="none" stroke="#63b8ff" d="M345.91,-131.32C291.42,-126.21 213,-114.04 150.5,-85 114.9,-68.46 81.21,-35.13 66.4,-19.27"/>
<polygon fill="#63b8ff" stroke="#63b8ff" points="345.39,-134.78 355.65,-132.17 346,-127.81 345.39,-134.78"/>
</g>
<!-- Node3 -->
<g id="node3" class="node">
<title>Node3</title>
<g id="a_node3"><a xlink:href="a__star_8h.html" target="_top" xlink:title="Header file for the a* algorithm.">
<polygon fill="white" stroke="#666666" points="277,-79.5 160,-79.5 160,-60.5 277,-60.5 277,-79.5"/>
<text text-anchor="middle" x="218.5" y="-67.5" font-family="Helvetica,sans-Serif" font-size="10.00">src/pathfinding/a_star.h</text>
</a>
</g>
</g>
<!-- Node1&#45;&gt;Node3 -->
<g id="edge2" class="edge">
<title>Node1&#45;&gt;Node3</title>
<path fill="none" stroke="#63b8ff" d="M357.71,-117.16C321.24,-105.07 274.56,-89.59 245.6,-79.99"/>
<polygon fill="#63b8ff" stroke="#63b8ff" points="356.16,-120.34 366.75,-120.16 358.36,-113.69 356.16,-120.34"/>
</g>
<!-- Node8 -->
<g id="node8" class="node">
<title>Node8</title>
<g id="a_node8"><a xlink:href="binary__heap_8c.html" target="_top" xlink:title="Source file for the binary min&#45;heap used in the a* algorithm and floodfill algorithm.">
<polygon fill="white" stroke="#666666" points="403.5,-85 295.5,-85 295.5,-55 403.5,-55 403.5,-85"/>
<text text-anchor="start" x="303.5" y="-73" font-family="Helvetica,sans-Serif" font-size="10.00">src/pathfinding/binary</text>
<text text-anchor="middle" x="349.5" y="-62" font-family="Helvetica,sans-Serif" font-size="10.00">_heap.c</text>
</a>
</g>
</g>
<!-- Node1&#45;&gt;Node8 -->
<g id="edge8" class="edge">
<title>Node1&#45;&gt;Node8</title>
<path fill="none" stroke="#63b8ff" d="M390,-112.81C381.12,-103.64 371.08,-93.28 363.22,-85.16"/>
<polygon fill="#63b8ff" stroke="#63b8ff" points="387.22,-114.96 396.69,-119.71 392.24,-110.09 387.22,-114.96"/>
</g>
<!-- Node9 -->
<g id="node9" class="node">
<title>Node9</title>
<g id="a_node9"><a xlink:href="dfs_8c.html" target="_top" xlink:title="Runs the depth first search algorithm on a maze.">
<polygon fill="white" stroke="#666666" points="525.5,-79.5 421.5,-79.5 421.5,-60.5 525.5,-60.5 525.5,-79.5"/>
<text text-anchor="middle" x="473.5" y="-67.5" font-family="Helvetica,sans-Serif" font-size="10.00">src/pathfinding/dfs.c</text>
</a>
</g>
</g>
<!-- Node1&#45;&gt;Node9 -->
<g id="edge9" class="edge">
<title>Node1&#45;&gt;Node9</title>
<path fill="none" stroke="#63b8ff" d="M433.19,-112.61C444.12,-101.32 456.76,-88.28 464.93,-79.84"/>
<polygon fill="#63b8ff" stroke="#63b8ff" points="430.76,-110.09 426.31,-119.71 435.78,-114.96 430.76,-110.09"/>
</g>
<!-- Node10 -->
<g id="node10" class="node">
<title>Node10</title>
<g id="a_node10"><a xlink:href="floodfill_8c.html" target="_top" xlink:title="This file contains the implementation of the floodfill algorithm for mapping the maze and determining...">
<polygon fill="white" stroke="#666666" points="663,-79.5 544,-79.5 544,-60.5 663,-60.5 663,-79.5"/>
<text text-anchor="middle" x="603.5" y="-67.5" font-family="Helvetica,sans-Serif" font-size="10.00">src/pathfinding/floodfill.c</text>
</a>
</g>
</g>
<!-- Node1&#45;&gt;Node10 -->
<g id="edge10" class="edge">
<title>Node1&#45;&gt;Node10</title>
<path fill="none" stroke="#63b8ff" d="M465.48,-117.01C501.7,-104.93 547.85,-89.55 576.54,-79.99"/>
<polygon fill="#63b8ff" stroke="#63b8ff" points="464.4,-113.68 456.02,-120.16 466.62,-120.32 464.4,-113.68"/>
</g>
<!-- Node11 -->
<g id="node11" class="node">
<title>Node11</title>
<g id="a_node11"><a xlink:href="dfs__tests_8c.html" target="_top" xlink:title="This file containst the functions that test the depth first search algorithm with a simulated navigat...">
<polygon fill="white" stroke="#666666" points="770,-79.5 681,-79.5 681,-60.5 770,-60.5 770,-79.5"/>
<text text-anchor="middle" x="725.5" y="-67.5" font-family="Helvetica,sans-Serif" font-size="10.00">tests/dfs_tests.c</text>
</a>
</g>
</g>
<!-- Node1&#45;&gt;Node11 -->
<g id="edge11" class="edge">
<title>Node1&#45;&gt;Node11</title>
<path fill="none" stroke="#63b8ff" d="M477.23,-123.7C530.16,-114.3 606.39,-100.05 672.5,-85 679.18,-83.48 686.3,-81.71 693.07,-79.94"/>
<polygon fill="#63b8ff" stroke="#63b8ff" points="476.69,-120.24 467.45,-125.43 477.91,-127.14 476.69,-120.24"/>
</g>
<!-- Node3&#45;&gt;Node2 -->
<g id="edge4" class="edge">
<title>Node3&#45;&gt;Node2</title>
<path fill="none" stroke="#63b8ff" d="M183.64,-56.25C153.24,-45.14 109.91,-29.3 83.03,-19.47"/>
<polygon fill="#63b8ff" stroke="#63b8ff" points="182.18,-59.45 192.78,-59.6 184.59,-52.87 182.18,-59.45"/>
</g>
<!-- Node4 -->
<g id="node4" class="node">
<title>Node4</title>
<g id="a_node4"><a xlink:href="main_8c.html" target="_top" xlink:title="The main source file for robot control.">
<polygon fill="white" stroke="#666666" points="197.5,-19 135.5,-19 135.5,0 197.5,0 197.5,-19"/>
<text text-anchor="middle" x="166.5" y="-7" font-family="Helvetica,sans-Serif" font-size="10.00">src/main.c</text>
</a>
</g>
</g>
<!-- Node3&#45;&gt;Node4 -->
<g id="edge3" class="edge">
<title>Node3&#45;&gt;Node4</title>
<path fill="none" stroke="#63b8ff" d="M203.21,-51.8C193.68,-41.08 181.82,-27.73 174.2,-19.17"/>
<polygon fill="#63b8ff" stroke="#63b8ff" points="200.56,-54.09 209.82,-59.24 205.79,-49.44 200.56,-54.09"/>
</g>
<!-- Node5 -->
<g id="node5" class="node">
<title>Node5</title>
<g id="a_node5"><a xlink:href="pathfinding_2main_8c.html" target="_top" xlink:title="This file contains the mapping and pathfinding tests to be run on the Pico depending on the input ove...">
<polygon fill="white" stroke="#666666" points="327,-19 216,-19 216,0 327,0 327,-19"/>
<text text-anchor="middle" x="271.5" y="-7" font-family="Helvetica,sans-Serif" font-size="10.00">src/pathfinding/main.c</text>
</a>
</g>
</g>
<!-- Node3&#45;&gt;Node5 -->
<g id="edge5" class="edge">
<title>Node3&#45;&gt;Node5</title>
<path fill="none" stroke="#63b8ff" d="M233.79,-52.13C243.55,-41.35 255.81,-27.82 263.65,-19.17"/>
<polygon fill="#63b8ff" stroke="#63b8ff" points="231.46,-49.49 227.34,-59.25 236.64,-54.19 231.46,-49.49"/>
</g>
<!-- Node6 -->
<g id="node6" class="node">
<title>Node6</title>
<g id="a_node6"><a xlink:href="navigation__tests_8c.html" target="_top" xlink:title="Tests the combined navigational functions.">
<polygon fill="white" stroke="#666666" points="465.5,-19 345.5,-19 345.5,0 465.5,0 465.5,-19"/>
<text text-anchor="middle" x="405.5" y="-7" font-family="Helvetica,sans-Serif" font-size="10.00">tests/navigation_tests.c</text>
</a>
</g>
</g>
<!-- Node3&#45;&gt;Node6 -->
<g id="edge6" class="edge">
<title>Node3&#45;&gt;Node6</title>
<path fill="none" stroke="#63b8ff" d="M257.85,-56.69C293.44,-45.56 345.01,-29.42 376.83,-19.47"/>
<polygon fill="#63b8ff" stroke="#63b8ff" points="256.84,-53.34 248.35,-59.66 258.93,-60.02 256.84,-53.34"/>
</g>
<!-- Node7 -->
<g id="node7" class="node">
<title>Node7</title>
<g id="a_node7"><a xlink:href="pathfinding__tests_8c.html" target="_top" xlink:title="This file contains the tests for the A* pathfinding algorithm.">
<polygon fill="white" stroke="#666666" points="605.5,-19 483.5,-19 483.5,0 605.5,0 605.5,-19"/>
<text text-anchor="middle" x="544.5" y="-7" font-family="Helvetica,sans-Serif" font-size="10.00">tests/pathfinding_tests.c</text>
</a>
</g>
</g>
<!-- Node3&#45;&gt;Node7 -->
<g id="edge7" class="edge">
<title>Node3&#45;&gt;Node7</title>
<path fill="none" stroke="#63b8ff" d="M272.15,-57.79C277,-56.82 281.84,-55.88 286.5,-55 356.28,-41.8 436.99,-28.14 489.3,-19.49"/>
<polygon fill="#63b8ff" stroke="#63b8ff" points="271.5,-54.35 262.38,-59.75 272.88,-61.21 271.5,-54.35"/>
</g>
</g>
</svg>
