<?xml version="1.0" encoding="UTF-8" standalone="no"?>
<!DOCTYPE svg PUBLIC "-//W3C//DTD SVG 1.1//EN"
 "http://www.w3.org/Graphics/SVG/1.1/DTD/svg11.dtd">
<!-- Generated by graphviz version 7.0.5 (20221223.1930)
 -->
<!-- Title: binary_heapify_down Pages: 1 -->
<svg width="564pt" height="38pt"
 viewBox="0.00 0.00 564.00 38.00" xmlns="http://www.w3.org/2000/svg" xmlns:xlink="http://www.w3.org/1999/xlink">
<g id="graph0" class="graph" transform="scale(1 1) rotate(0) translate(4 34)">
<title>binary_heapify_down</title>
<!-- Node1 -->
<g id="node1" class="node">
<title>Node1</title>
<g id="a_node1"><a xlink:title="Moves the node at the given index up the binary heap to maintain the heap property....">
<polygon fill="#999999" stroke="#666666" points="556,-24.5 449,-24.5 449,-5.5 556,-5.5 556,-24.5"/>
<text text-anchor="middle" x="502.5" y="-12.5" font-family="Helvetica,sans-Serif" font-size="10.00">binary_heapify_down</text>
</a>
</g>
</g>
<!-- Node2 -->
<g id="node2" class="node">
<title>Node2</title>
<g id="a_node2"><a xlink:href="binary__heap_8c.html#af38f858070d3c5f43dcb2b9a38920082" target="_top" xlink:title="Deletes and returns the root node from the binary heap.">
<polygon fill="white" stroke="#666666" points="413,-24.5 292,-24.5 292,-5.5 413,-5.5 413,-24.5"/>
<text text-anchor="middle" x="352.5" y="-12.5" font-family="Helvetica,sans-Serif" font-size="10.00">binary_heap_delete_min</text>
</a>
</g>
</g>
<!-- Node1&#45;&gt;Node2 -->
<g id="edge1" class="edge">
<title>Node1&#45;&gt;Node2</title>
<path fill="none" stroke="#63b8ff" d="M437.42,-15C429.47,-15 421.37,-15 413.49,-15"/>
<polygon fill="#63b8ff" stroke="#63b8ff" points="437.39,-18.5 447.39,-15 437.39,-11.5 437.39,-18.5"/>
</g>
<!-- Node3 -->
<g id="node3" class="node">
<title>Node3</title>
<g id="a_node3"><a xlink:href="dfs_8c.html#ae6f752eff6517a7aeace592951a6a919" target="_top" xlink:title="Checks if all reachable nodes from the navigator&#39;s current position has been visisted.">
<polygon fill="white" stroke="#666666" points="256,-30 151,-30 151,0 256,0 256,-30"/>
<text text-anchor="start" x="159" y="-18" font-family="Helvetica,sans-Serif" font-size="10.00">dfs_is_all_reachable</text>
<text text-anchor="middle" x="203.5" y="-7" font-family="Helvetica,sans-Serif" font-size="10.00">_visited</text>
</a>
</g>
</g>
<!-- Node2&#45;&gt;Node3 -->
<g id="edge2" class="edge">
<title>Node2&#45;&gt;Node3</title>
<path fill="none" stroke="#63b8ff" d="M280.3,-15C272.18,-15 264.02,-15 256.22,-15"/>
<polygon fill="#63b8ff" stroke="#63b8ff" points="280.2,-18.5 290.2,-15 280.2,-11.5 280.2,-18.5"/>
</g>
<!-- Node4 -->
<g id="node4" class="node">
<title>Node4</title>
<g id="a_node4"><a xlink:href="dfs_8c.html#ad895d09bb41bba4132541d5d17f7f4c0" target="_top" xlink:title="Conducts a depth first search on a maze.">
<polygon fill="white" stroke="#666666" points="115,-24.5 0,-24.5 0,-5.5 115,-5.5 115,-24.5"/>
<text text-anchor="middle" x="57.5" y="-12.5" font-family="Helvetica,sans-Serif" font-size="10.00">dfs_depth_first_search</text>
</a>
</g>
</g>
<!-- Node3&#45;&gt;Node4 -->
<g id="edge3" class="edge">
<title>Node3&#45;&gt;Node4</title>
<path fill="none" stroke="#63b8ff" d="M139.06,-15C131.14,-15 123.09,-15 115.28,-15"/>
<polygon fill="#63b8ff" stroke="#63b8ff" points="139,-18.5 149,-15 139,-11.5 139,-18.5"/>
</g>
</g>
</svg>
