<?xml version="1.0" encoding="UTF-8" standalone="no"?>
<!DOCTYPE svg PUBLIC "-//W3C//DTD SVG 1.1//EN"
 "http://www.w3.org/Graphics/SVG/1.1/DTD/svg11.dtd">
<!-- Generated by graphviz version 7.0.5 (20221223.1930)
 -->
<!-- Title: src/pathfinding/binary_heap.h Pages: 1 -->
<svg width="726pt" height="159pt"
 viewBox="0.00 0.00 726.00 159.00" xmlns="http://www.w3.org/2000/svg" xmlns:xlink="http://www.w3.org/1999/xlink">
<g id="graph0" class="graph" transform="scale(1 1) rotate(0) translate(4 155)">
<title>src/pathfinding/binary_heap.h</title>
<!-- Node1 -->
<g id="node1" class="node">
<title>Node1</title>
<g id="a_node1"><a xlink:title="This file contains the declarations for the binary min&#45;heap used in the a* algorithm.">
<polygon fill="#999999" stroke="#666666" points="413.5,-151 305.5,-151 305.5,-121 413.5,-121 413.5,-151"/>
<text text-anchor="start" x="313.5" y="-139" font-family="Helvetica,sans-Serif" font-size="10.00">src/pathfinding/binary</text>
<text text-anchor="middle" x="359.5" y="-128" font-family="Helvetica,sans-Serif" font-size="10.00">_heap.h</text>
</a>
</g>
</g>
<!-- Node2 -->
<g id="node2" class="node">
<title>Node2</title>
<g id="a_node2"><a xlink:href="a__star_8c.html" target="_top" xlink:title="Source file for the implementation of the a* algorithm.">
<polygon fill="white" stroke="#666666" points="117,-19 0,-19 0,0 117,0 117,-19"/>
<text text-anchor="middle" x="58.5" y="-7" font-family="Helvetica,sans-Serif" font-size="10.00">src/pathfinding/a_star.c</text>
</a>
</g>
</g>
<!-- Node1&#45;&gt;Node2 -->
<g id="edge1" class="edge">
<title>Node1&#45;&gt;Node2</title>
<path fill="none" stroke="#63b8ff" d="M293.85,-128.89C226.97,-121.54 128.9,-107.34 98.5,-85 75.9,-68.4 64.76,-35.1 60.56,-19.26"/>
<polygon fill="#63b8ff" stroke="#63b8ff" points="293.3,-132.35 303.62,-129.93 294.05,-125.39 293.3,-132.35"/>
</g>
<!-- Node3 -->
<g id="node3" class="node">
<title>Node3</title>
<g id="a_node3"><a xlink:href="a__star_8h.html" target="_top" xlink:title="Header file for the a* algorithm.">
<polygon fill="white" stroke="#666666" points="225,-79.5 108,-79.5 108,-60.5 225,-60.5 225,-79.5"/>
<text text-anchor="middle" x="166.5" y="-67.5" font-family="Helvetica,sans-Serif" font-size="10.00">src/pathfinding/a_star.h</text>
</a>
</g>
</g>
<!-- Node1&#45;&gt;Node3 -->
<g id="edge2" class="edge">
<title>Node1&#45;&gt;Node3</title>
<path fill="none" stroke="#63b8ff" d="M305.71,-117.16C269.24,-105.07 222.56,-89.59 193.6,-79.99"/>
<polygon fill="#63b8ff" stroke="#63b8ff" points="304.16,-120.34 314.75,-120.16 306.36,-113.69 304.16,-120.34"/>
</g>
<!-- Node7 -->
<g id="node7" class="node">
<title>Node7</title>
<g id="a_node7"><a xlink:href="binary__heap_8c.html" target="_top" xlink:title="Source file for the binary min&#45;heap used in the a* algorithm and floodfill algorithm.">
<polygon fill="white" stroke="#666666" points="351.5,-85 243.5,-85 243.5,-55 351.5,-55 351.5,-85"/>
<text text-anchor="start" x="251.5" y="-73" font-family="Helvetica,sans-Serif" font-size="10.00">src/pathfinding/binary</text>
<text text-anchor="middle" x="297.5" y="-62" font-family="Helvetica,sans-Serif" font-size="10.00">_heap.c</text>
</a>
</g>
</g>
<!-- Node1&#45;&gt;Node7 -->
<g id="edge7" class="edge">
<title>Node1&#45;&gt;Node7</title>
<path fill="none" stroke="#63b8ff" d="M338,-112.81C329.12,-103.64 319.08,-93.28 311.22,-85.16"/>
<polygon fill="#63b8ff" stroke="#63b8ff" points="335.22,-114.96 344.69,-119.71 340.24,-110.09 335.22,-114.96"/>
</g>
<!-- Node8 -->
<g id="node8" class="node">
<title>Node8</title>
<g id="a_node8"><a xlink:href="dfs_8c.html" target="_top" xlink:title="Runs the depth first search algorithm on a maze.">
<polygon fill="white" stroke="#666666" points="473.5,-79.5 369.5,-79.5 369.5,-60.5 473.5,-60.5 473.5,-79.5"/>
<text text-anchor="middle" x="421.5" y="-67.5" font-family="Helvetica,sans-Serif" font-size="10.00">src/pathfinding/dfs.c</text>
</a>
</g>
</g>
<!-- Node1&#45;&gt;Node8 -->
<g id="edge8" class="edge">
<title>Node1&#45;&gt;Node8</title>
<path fill="none" stroke="#63b8ff" d="M381.19,-112.61C392.12,-101.32 404.76,-88.28 412.93,-79.84"/>
<polygon fill="#63b8ff" stroke="#63b8ff" points="378.76,-110.09 374.31,-119.71 383.78,-114.96 378.76,-110.09"/>
</g>
<!-- Node9 -->
<g id="node9" class="node">
<title>Node9</title>
<g id="a_node9"><a xlink:href="floodfill_8c.html" target="_top" xlink:title="This file contains the implementation of the floodfill algorithm for mapping the maze and determining...">
<polygon fill="white" stroke="#666666" points="611,-79.5 492,-79.5 492,-60.5 611,-60.5 611,-79.5"/>
<text text-anchor="middle" x="551.5" y="-67.5" font-family="Helvetica,sans-Serif" font-size="10.00">src/pathfinding/floodfill.c</text>
</a>
</g>
</g>
<!-- Node1&#45;&gt;Node9 -->
<g id="edge9" class="edge">
<title>Node1&#45;&gt;Node9</title>
<path fill="none" stroke="#63b8ff" d="M413.48,-117.01C449.7,-104.93 495.85,-89.55 524.54,-79.99"/>
<polygon fill="#63b8ff" stroke="#63b8ff" points="412.4,-113.68 404.02,-120.16 414.62,-120.32 412.4,-113.68"/>
</g>
<!-- Node10 -->
<g id="node10" class="node">
<title>Node10</title>
<g id="a_node10"><a xlink:href="dfs__tests_8c.html" target="_top" xlink:title="This file containst the functions that test the depth first search algorithm with a simulated navigat...">
<polygon fill="white" stroke="#666666" points="718,-79.5 629,-79.5 629,-60.5 718,-60.5 718,-79.5"/>
<text text-anchor="middle" x="673.5" y="-67.5" font-family="Helvetica,sans-Serif" font-size="10.00">tests/dfs_tests.c</text>
</a>
</g>
</g>
<!-- Node1&#45;&gt;Node10 -->
<g id="edge10" class="edge">
<title>Node1&#45;&gt;Node10</title>
<path fill="none" stroke="#63b8ff" d="M425.23,-123.7C478.16,-114.3 554.39,-100.05 620.5,-85 627.18,-83.48 634.3,-81.71 641.07,-79.94"/>
<polygon fill="#63b8ff" stroke="#63b8ff" points="424.69,-120.24 415.45,-125.43 425.91,-127.14 424.69,-120.24"/>
</g>
<!-- Node3&#45;&gt;Node2 -->
<g id="edge4" class="edge">
<title>Node3&#45;&gt;Node2</title>
<path fill="none" stroke="#63b8ff" d="M140.22,-54.76C119.9,-43.76 92.4,-28.86 75.06,-19.47"/>
<polygon fill="#63b8ff" stroke="#63b8ff" points="138.31,-57.71 148.77,-59.39 141.64,-51.55 138.31,-57.71"/>
</g>
<!-- Node4 -->
<g id="node4" class="node">
<title>Node4</title>
<g id="a_node4"><a xlink:href="main_8c.html" target="_top" xlink:title="The main source file for robot control.">
<polygon fill="white" stroke="#666666" points="197.5,-19 135.5,-19 135.5,0 197.5,0 197.5,-19"/>
<text text-anchor="middle" x="166.5" y="-7" font-family="Helvetica,sans-Serif" font-size="10.00">src/main.c</text>
</a>
</g>
</g>
<!-- Node3&#45;&gt;Node4 -->
<g id="edge3" class="edge">
<title>Node3&#45;&gt;Node4</title>
<path fill="none" stroke="#63b8ff" d="M166.5,-49.16C166.5,-38.95 166.5,-27.04 166.5,-19.17"/>
<polygon fill="#63b8ff" stroke="#63b8ff" points="163,-48.85 166.5,-58.85 170,-48.85 163,-48.85"/>
</g>
<!-- Node5 -->
<g id="node5" class="node">
<title>Node5</title>
<g id="a_node5"><a xlink:href="navigation__tests_8c.html" target="_top" xlink:title="Tests the combined navigational functions.">
<polygon fill="white" stroke="#666666" points="335.5,-19 215.5,-19 215.5,0 335.5,0 335.5,-19"/>
<text text-anchor="middle" x="275.5" y="-7" font-family="Helvetica,sans-Serif" font-size="10.00">tests/navigation_tests.c</text>
</a>
</g>
</g>
<!-- Node3&#45;&gt;Node5 -->
<g id="edge5" class="edge">
<title>Node3&#45;&gt;Node5</title>
<path fill="none" stroke="#63b8ff" d="M193.02,-54.76C213.53,-43.76 241.28,-28.86 258.79,-19.47"/>
<polygon fill="#63b8ff" stroke="#63b8ff" points="191.54,-51.59 184.39,-59.4 194.85,-57.75 191.54,-51.59"/>
</g>
<!-- Node6 -->
<g id="node6" class="node">
<title>Node6</title>
<g id="a_node6"><a xlink:href="pathfinding__tests_8c.html" target="_top" xlink:title="This file contains the tests for the A* pathfinding algorithm.">
<polygon fill="white" stroke="#666666" points="475.5,-19 353.5,-19 353.5,0 475.5,0 475.5,-19"/>
<text text-anchor="middle" x="414.5" y="-7" font-family="Helvetica,sans-Serif" font-size="10.00">tests/pathfinding_tests.c</text>
</a>
</g>
</g>
<!-- Node3&#45;&gt;Node6 -->
<g id="edge6" class="edge">
<title>Node3&#45;&gt;Node6</title>
<path fill="none" stroke="#63b8ff" d="M215.63,-57.41C262.93,-46.25 333.45,-29.62 376.57,-19.45"/>
<polygon fill="#63b8ff" stroke="#63b8ff" points="214.84,-54 205.91,-59.7 216.45,-60.81 214.84,-54"/>
</g>
</g>
</svg>
