<?xml version="1.0" encoding="UTF-8" standalone="no"?>
<!DOCTYPE svg PUBLIC "-//W3C//DTD SVG 1.1//EN"
 "http://www.w3.org/Graphics/SVG/1.1/DTD/svg11.dtd">
<!-- Generated by graphviz version 7.0.5 (20221223.1930)
 -->
<!-- Title: src/pathfinding/binary_heap.c Pages: 1 -->
<svg width="314pt" height="214pt"
 viewBox="0.00 0.00 314.00 214.00" xmlns="http://www.w3.org/2000/svg" xmlns:xlink="http://www.w3.org/1999/xlink">
<g id="graph0" class="graph" transform="scale(1 1) rotate(0) translate(4 210)">
<title>src/pathfinding/binary_heap.c</title>
<!-- Node1 -->
<g id="node1" class="node">
<title>Node1</title>
<g id="a_node1"><a xlink:title="Source file for the binary min&#45;heap used in the a* algorithm and floodfill algorithm.">
<polygon fill="#999999" stroke="#666666" points="177.5,-206 69.5,-206 69.5,-176 177.5,-176 177.5,-206"/>
<text text-anchor="start" x="77.5" y="-194" font-family="Helvetica,sans-Serif" font-size="10.00">src/pathfinding/binary</text>
<text text-anchor="middle" x="123.5" y="-183" font-family="Helvetica,sans-Serif" font-size="10.00">_heap.c</text>
</a>
</g>
</g>
<!-- Node2 -->
<g id="node2" class="node">
<title>Node2</title>
<g id="a_node2"><a xlink:title=" ">
<polygon fill="#e0e0e0" stroke="#999999" points="51,-134.5 0,-134.5 0,-115.5 51,-115.5 51,-134.5"/>
<text text-anchor="middle" x="25.5" y="-122.5" font-family="Helvetica,sans-Serif" font-size="10.00">stddef.h</text>
</a>
</g>
</g>
<!-- Node1&#45;&gt;Node2 -->
<g id="edge1" class="edge">
<title>Node1&#45;&gt;Node2</title>
<path fill="none" stroke="#63b8ff" d="M101.75,-175.8C85.87,-165.43 64.4,-151.4 48.29,-140.88"/>
<polygon fill="#63b8ff" stroke="#63b8ff" points="50.6,-138.21 40.31,-135.67 46.77,-144.07 50.6,-138.21"/>
</g>
<!-- Node3 -->
<g id="node3" class="node">
<title>Node3</title>
<g id="a_node3"><a xlink:title=" ">
<polygon fill="#e0e0e0" stroke="#999999" points="141.5,-19 93.5,-19 93.5,0 141.5,0 141.5,-19"/>
<text text-anchor="middle" x="117.5" y="-7" font-family="Helvetica,sans-Serif" font-size="10.00">stdint.h</text>
</a>
</g>
</g>
<!-- Node1&#45;&gt;Node3 -->
<g id="edge2" class="edge">
<title>Node1&#45;&gt;Node3</title>
<path fill="none" stroke="#63b8ff" d="M117.31,-175.88C113.34,-166.04 108.56,-152.48 106.5,-140 100.14,-101.53 107.38,-55.99 112.75,-30.45"/>
<polygon fill="#63b8ff" stroke="#63b8ff" points="116.14,-31.35 114.91,-20.83 109.31,-29.82 116.14,-31.35"/>
</g>
<!-- Node4 -->
<g id="node4" class="node">
<title>Node4</title>
<g id="a_node4"><a xlink:href="binary__heap_8h.html" target="_top" xlink:title="This file contains the declarations for the binary min&#45;heap used in the a* algorithm.">
<polygon fill="white" stroke="#666666" points="207.5,-140 115.5,-140 115.5,-110 207.5,-110 207.5,-140"/>
<text text-anchor="start" x="123.5" y="-128" font-family="Helvetica,sans-Serif" font-size="10.00">pathfinding/binary</text>
<text text-anchor="middle" x="161.5" y="-117" font-family="Helvetica,sans-Serif" font-size="10.00">_heap.h</text>
</a>
</g>
</g>
<!-- Node1&#45;&gt;Node4 -->
<g id="edge3" class="edge">
<title>Node1&#45;&gt;Node4</title>
<path fill="none" stroke="#63b8ff" d="M131.93,-175.8C136.46,-168.17 142.16,-158.57 147.34,-149.84"/>
<polygon fill="#63b8ff" stroke="#63b8ff" points="150.22,-151.85 152.32,-141.47 144.2,-148.28 150.22,-151.85"/>
</g>
<!-- Node5 -->
<g id="node5" class="node">
<title>Node5</title>
<g id="a_node5"><a xlink:href="maze_8h.html" target="_top" xlink:title="Header file for the maze data structure and public functions.">
<polygon fill="white" stroke="#666666" points="306,-74 209,-74 209,-55 306,-55 306,-74"/>
<text text-anchor="middle" x="257.5" y="-62" font-family="Helvetica,sans-Serif" font-size="10.00">pathfinding/maze.h</text>
</a>
</g>
</g>
<!-- Node1&#45;&gt;Node5 -->
<g id="edge9" class="edge">
<title>Node1&#45;&gt;Node5</title>
<path fill="none" stroke="#63b8ff" d="M161.58,-175.56C179.81,-167.23 201,-155.35 216.5,-140 232.37,-124.28 243.8,-101.13 250.5,-84.81"/>
<polygon fill="#63b8ff" stroke="#63b8ff" points="253.66,-86.35 253.99,-75.76 247.13,-83.83 253.66,-86.35"/>
</g>
<!-- Node4&#45;&gt;Node3 -->
<g id="edge4" class="edge">
<title>Node4&#45;&gt;Node3</title>
<path fill="none" stroke="#63b8ff" d="M153.61,-109.86C148.31,-100.01 141.43,-86.45 136.5,-74 130.84,-59.72 125.92,-43.06 122.5,-30.39"/>
<polygon fill="#63b8ff" stroke="#63b8ff" points="125.9,-29.55 120,-20.75 119.12,-31.31 125.9,-29.55"/>
</g>
<!-- Node4&#45;&gt;Node5 -->
<g id="edge5" class="edge">
<title>Node4&#45;&gt;Node5</title>
<path fill="none" stroke="#63b8ff" d="M185.23,-109.54C199.94,-100.58 218.77,-89.1 233.52,-80.11"/>
<polygon fill="#63b8ff" stroke="#63b8ff" points="234.97,-83.33 241.69,-75.13 231.33,-77.35 234.97,-83.33"/>
</g>
<!-- Node7 -->
<g id="node7" class="node">
<title>Node7</title>
<g id="a_node7"><a xlink:title=" ">
<polygon fill="#e0e0e0" stroke="#999999" points="191,-74 146,-74 146,-55 191,-55 191,-74"/>
<text text-anchor="middle" x="168.5" y="-62" font-family="Helvetica,sans-Serif" font-size="10.00">stdio.h</text>
</a>
</g>
</g>
<!-- Node4&#45;&gt;Node7 -->
<g id="edge8" class="edge">
<title>Node4&#45;&gt;Node7</title>
<path fill="none" stroke="#63b8ff" d="M163.23,-109.54C164.1,-102.26 165.17,-93.31 166.12,-85.39"/>
<polygon fill="#63b8ff" stroke="#63b8ff" points="169.57,-86.02 167.28,-75.68 162.62,-85.19 169.57,-86.02"/>
</g>
<!-- Node5&#45;&gt;Node3 -->
<g id="edge6" class="edge">
<title>Node5&#45;&gt;Node3</title>
<path fill="none" stroke="#63b8ff" d="M233.75,-54.51C211.19,-45.97 177.03,-33.03 151.56,-23.4"/>
<polygon fill="#63b8ff" stroke="#63b8ff" points="152.91,-20.16 142.31,-19.89 150.43,-26.71 152.91,-20.16"/>
</g>
<!-- Node6 -->
<g id="node6" class="node">
<title>Node6</title>
<g id="a_node6"><a xlink:title=" ">
<polygon fill="#e0e0e0" stroke="#999999" points="285.5,-19 229.5,-19 229.5,0 285.5,0 285.5,-19"/>
<text text-anchor="middle" x="257.5" y="-7" font-family="Helvetica,sans-Serif" font-size="10.00">stdbool.h</text>
</a>
</g>
</g>
<!-- Node5&#45;&gt;Node6 -->
<g id="edge7" class="edge">
<title>Node5&#45;&gt;Node6</title>
<path fill="none" stroke="#63b8ff" d="M257.5,-54.75C257.5,-48.27 257.5,-39.16 257.5,-30.9"/>
<polygon fill="#63b8ff" stroke="#63b8ff" points="261,-30.96 257.5,-20.96 254,-30.96 261,-30.96"/>
</g>
</g>
</svg>
