<?xml version="1.0" encoding="UTF-8" standalone="no"?>
<!DOCTYPE svg PUBLIC "-//W3C//DTD SVG 1.1//EN"
 "http://www.w3.org/Graphics/SVG/1.1/DTD/svg11.dtd">
<!-- Generated by graphviz version 7.0.5 (20221223.1930)
 -->
<!-- Title: main/pathfinding/binary_heap.h Pages: 1 -->
<svg width="719pt" height="170pt"
 viewBox="0.00 0.00 719.00 170.00" xmlns="http://www.w3.org/2000/svg" xmlns:xlink="http://www.w3.org/1999/xlink">
<g id="graph0" class="graph" transform="scale(1 1) rotate(0) translate(4 166)">
<title>main/pathfinding/binary_heap.h</title>
<!-- Node1 -->
<g id="node1" class="node">
<title>Node1</title>
<g id="a_node1"><a xlink:title="This file contains the declarations for the binary min&#45;heap used in the a* algorithm.">
<polygon fill="#999999" stroke="#666666" points="395.5,-162 279.5,-162 279.5,-132 395.5,-132 395.5,-162"/>
<text text-anchor="start" x="287.5" y="-150" font-family="Helvetica,sans-Serif" font-size="10.00">main/pathfinding/binary</text>
<text text-anchor="middle" x="337.5" y="-139" font-family="Helvetica,sans-Serif" font-size="10.00">_heap.h</text>
</a>
</g>
</g>
<!-- Node2 -->
<g id="node2" class="node">
<title>Node2</title>
<g id="a_node2"><a xlink:href="a__star_8c.html" target="_top" xlink:title="Source file for the implementation of the a* algorithm.">
<polygon fill="white" stroke="#666666" points="95,-30 0,-30 0,0 95,0 95,-30"/>
<text text-anchor="start" x="8" y="-18" font-family="Helvetica,sans-Serif" font-size="10.00">main/pathfinding/a</text>
<text text-anchor="middle" x="47.5" y="-7" font-family="Helvetica,sans-Serif" font-size="10.00">_star.c</text>
</a>
</g>
</g>
<!-- Node1&#45;&gt;Node2 -->
<g id="edge1" class="edge">
<title>Node1&#45;&gt;Node2</title>
<path fill="none" stroke="#63b8ff" d="M267.99,-138.58C205.07,-130.7 118.13,-116.51 90.5,-96 68.47,-79.64 56.52,-48.56 51.13,-30.33"/>
<polygon fill="#63b8ff" stroke="#63b8ff" points="267.19,-142.01 277.55,-139.75 268.04,-135.06 267.19,-142.01"/>
</g>
<!-- Node3 -->
<g id="node3" class="node">
<title>Node3</title>
<g id="a_node3"><a xlink:href="a__star_8h.html" target="_top" xlink:title="Header file for the a* algorithm.">
<polygon fill="white" stroke="#666666" points="195,-96 100,-96 100,-66 195,-66 195,-96"/>
<text text-anchor="start" x="108" y="-84" font-family="Helvetica,sans-Serif" font-size="10.00">main/pathfinding/a</text>
<text text-anchor="middle" x="147.5" y="-73" font-family="Helvetica,sans-Serif" font-size="10.00">_star.h</text>
</a>
</g>
</g>
<!-- Node1&#45;&gt;Node3 -->
<g id="edge2" class="edge">
<title>Node1&#45;&gt;Node3</title>
<path fill="none" stroke="#63b8ff" d="M284.26,-128.07C254.59,-118.07 218.14,-105.79 190.33,-96.43"/>
<polygon fill="#63b8ff" stroke="#63b8ff" points="282.83,-131.28 293.43,-131.15 285.07,-124.64 282.83,-131.28"/>
</g>
<!-- Node7 -->
<g id="node7" class="node">
<title>Node7</title>
<g id="a_node7"><a xlink:href="binary__heap_8c.html" target="_top" xlink:title="Source file for the binary min&#45;heap used in the a* algorithm and floodfill algorithm.">
<polygon fill="white" stroke="#666666" points="329.5,-96 213.5,-96 213.5,-66 329.5,-66 329.5,-96"/>
<text text-anchor="start" x="221.5" y="-84" font-family="Helvetica,sans-Serif" font-size="10.00">main/pathfinding/binary</text>
<text text-anchor="middle" x="271.5" y="-73" font-family="Helvetica,sans-Serif" font-size="10.00">_heap.c</text>
</a>
</g>
</g>
<!-- Node1&#45;&gt;Node7 -->
<g id="edge7" class="edge">
<title>Node1&#45;&gt;Node7</title>
<path fill="none" stroke="#63b8ff" d="M314.61,-123.81C305.16,-114.64 294.47,-104.28 286.11,-96.16"/>
<polygon fill="#63b8ff" stroke="#63b8ff" points="312.15,-126.29 321.77,-130.74 317.02,-121.27 312.15,-126.29"/>
</g>
<!-- Node8 -->
<g id="node8" class="node">
<title>Node8</title>
<g id="a_node8"><a xlink:href="dfs_8c.html" target="_top" xlink:title="Runs the depth first search algorithm on a maze.">
<polygon fill="white" stroke="#666666" points="459,-90.5 348,-90.5 348,-71.5 459,-71.5 459,-90.5"/>
<text text-anchor="middle" x="403.5" y="-78.5" font-family="Helvetica,sans-Serif" font-size="10.00">main/pathfinding/dfs.c</text>
</a>
</g>
</g>
<!-- Node1&#45;&gt;Node8 -->
<g id="edge8" class="edge">
<title>Node1&#45;&gt;Node8</title>
<path fill="none" stroke="#63b8ff" d="M360.25,-123.94C371.96,-112.58 385.6,-99.36 394.38,-90.84"/>
<polygon fill="#63b8ff" stroke="#63b8ff" points="357.98,-121.27 353.23,-130.74 362.85,-126.29 357.98,-121.27"/>
</g>
<!-- Node9 -->
<g id="node9" class="node">
<title>Node9</title>
<g id="a_node9"><a xlink:href="floodfill_8c.html" target="_top" xlink:title="This file contains the implementation of the floodfill algorithm for mapping the maze and determining...">
<polygon fill="white" stroke="#666666" points="604,-90.5 477,-90.5 477,-71.5 604,-71.5 604,-90.5"/>
<text text-anchor="middle" x="540.5" y="-78.5" font-family="Helvetica,sans-Serif" font-size="10.00">main/pathfinding/floodfill.c</text>
</a>
</g>
</g>
<!-- Node1&#45;&gt;Node9 -->
<g id="edge9" class="edge">
<title>Node1&#45;&gt;Node9</title>
<path fill="none" stroke="#63b8ff" d="M393.84,-128.24C432.27,-116.12 481.55,-100.59 512.07,-90.96"/>
<polygon fill="#63b8ff" stroke="#63b8ff" points="393.24,-124.76 384.75,-131.1 395.34,-131.43 393.24,-124.76"/>
</g>
<!-- Node10 -->
<g id="node10" class="node">
<title>Node10</title>
<g id="a_node10"><a xlink:href="dfs__tests_8c.html" target="_top" xlink:title="This file containst the functions that test the depth first search algorithm with a simulated navigat...">
<polygon fill="white" stroke="#666666" points="711,-90.5 622,-90.5 622,-71.5 711,-71.5 711,-90.5"/>
<text text-anchor="middle" x="666.5" y="-78.5" font-family="Helvetica,sans-Serif" font-size="10.00">tests/dfs_tests.c</text>
</a>
</g>
</g>
<!-- Node1&#45;&gt;Node10 -->
<g id="edge10" class="edge">
<title>Node1&#45;&gt;Node10</title>
<path fill="none" stroke="#63b8ff" d="M407.13,-134.95C463.12,-125.69 543.68,-111.52 613.5,-96 620.19,-94.51 627.31,-92.76 634.09,-91"/>
<polygon fill="#63b8ff" stroke="#63b8ff" points="406.71,-131.47 397.41,-136.55 407.85,-138.38 406.71,-131.47"/>
</g>
<!-- Node3&#45;&gt;Node2 -->
<g id="edge4" class="edge">
<title>Node3&#45;&gt;Node2</title>
<path fill="none" stroke="#63b8ff" d="M115.93,-59.8C101.01,-50.24 83.53,-39.06 69.98,-30.39"/>
<polygon fill="#63b8ff" stroke="#63b8ff" points="113.72,-62.54 124.03,-64.98 117.5,-56.64 113.72,-62.54"/>
</g>
<!-- Node4 -->
<g id="node4" class="node">
<title>Node4</title>
<g id="a_node4"><a xlink:href="main_8c.html" target="_top" xlink:title="The main source file for robot control.">
<polygon fill="white" stroke="#666666" points="182,-24.5 113,-24.5 113,-5.5 182,-5.5 182,-24.5"/>
<text text-anchor="middle" x="147.5" y="-12.5" font-family="Helvetica,sans-Serif" font-size="10.00">main/main.c</text>
</a>
</g>
</g>
<!-- Node3&#45;&gt;Node4 -->
<g id="edge3" class="edge">
<title>Node3&#45;&gt;Node4</title>
<path fill="none" stroke="#63b8ff" d="M147.5,-54.59C147.5,-44.06 147.5,-32.53 147.5,-24.84"/>
<polygon fill="#63b8ff" stroke="#63b8ff" points="144,-54.28 147.5,-64.28 151,-54.28 144,-54.28"/>
</g>
<!-- Node5 -->
<g id="node5" class="node">
<title>Node5</title>
<g id="a_node5"><a xlink:href="navigation__tests_8c.html" target="_top" xlink:title="Tests the combined navigational functions.">
<polygon fill="white" stroke="#666666" points="320.5,-24.5 200.5,-24.5 200.5,-5.5 320.5,-5.5 320.5,-24.5"/>
<text text-anchor="middle" x="260.5" y="-12.5" font-family="Helvetica,sans-Serif" font-size="10.00">tests/navigation_tests.c</text>
</a>
</g>
</g>
<!-- Node3&#45;&gt;Node5 -->
<g id="edge5" class="edge">
<title>Node3&#45;&gt;Node5</title>
<path fill="none" stroke="#63b8ff" d="M182.62,-60.11C203.37,-48.36 228.62,-34.05 244.63,-24.99"/>
<polygon fill="#63b8ff" stroke="#63b8ff" points="181.15,-56.92 174.18,-64.89 184.6,-63.01 181.15,-56.92"/>
</g>
<!-- Node6 -->
<g id="node6" class="node">
<title>Node6</title>
<g id="a_node6"><a xlink:href="pathfinding__tests_8c.html" target="_top" xlink:title="This file contains the tests for the A* pathfinding algorithm.">
<polygon fill="white" stroke="#666666" points="460.5,-24.5 338.5,-24.5 338.5,-5.5 460.5,-5.5 460.5,-24.5"/>
<text text-anchor="middle" x="399.5" y="-12.5" font-family="Helvetica,sans-Serif" font-size="10.00">tests/pathfinding_tests.c</text>
</a>
</g>
</g>
<!-- Node3&#45;&gt;Node6 -->
<g id="edge6" class="edge">
<title>Node3&#45;&gt;Node6</title>
<path fill="none" stroke="#63b8ff" d="M206.56,-65C255.51,-52.57 323.44,-35.32 364.27,-24.95"/>
<polygon fill="#63b8ff" stroke="#63b8ff" points="205.79,-61.58 196.96,-67.44 207.51,-68.37 205.79,-61.58"/>
</g>
</g>
</svg>
