<?xml version="1.0" encoding="UTF-8" standalone="no"?>
<!DOCTYPE svg PUBLIC "-//W3C//DTD SVG 1.1//EN"
 "http://www.w3.org/Graphics/SVG/1.1/DTD/svg11.dtd">
<!-- Generated by graphviz version 7.0.5 (20221223.1930)
 -->
<!-- Title: src/pathfinding/binary_heap.h Pages: 1 -->
<svg width="776pt" height="170pt"
 viewBox="0.00 0.00 776.00 170.00" xmlns="http://www.w3.org/2000/svg" xmlns:xlink="http://www.w3.org/1999/xlink">
<g id="graph0" class="graph" transform="scale(1 1) rotate(0) translate(4 166)">
<title>src/pathfinding/binary_heap.h</title>
<!-- Node1 -->
<g id="node1" class="node">
<title>Node1</title>
<g id="a_node1"><a xlink:title="This file contains the declarations for the binary min&#45;heap used in the a* algorithm.">
<polygon fill="#999999" stroke="#666666" points="463.5,-162 355.5,-162 355.5,-132 463.5,-132 463.5,-162"/>
<text text-anchor="start" x="363.5" y="-150" font-family="Helvetica,sans-Serif" font-size="10.00">src/pathfinding/binary</text>
<text text-anchor="middle" x="409.5" y="-139" font-family="Helvetica,sans-Serif" font-size="10.00">_heap.h</text>
</a>
</g>
</g>
<!-- Node2 -->
<g id="node2" class="node">
<title>Node2</title>
<g id="a_node2"><a xlink:href="a__star_8c.html" target="_top" xlink:title="Source file for the implementation of the a* algorithm.">
<polygon fill="white" stroke="#666666" points="117,-24.5 0,-24.5 0,-5.5 117,-5.5 117,-24.5"/>
<text text-anchor="middle" x="58.5" y="-12.5" font-family="Helvetica,sans-Serif" font-size="10.00">src/pathfinding/a_star.c</text>
</a>
</g>
</g>
<!-- Node1&#45;&gt;Node2 -->
<g id="edge1" class="edge">
<title>Node1&#45;&gt;Node2</title>
<path fill="none" stroke="#63b8ff" d="M343.81,-143.08C289.1,-138.44 210.41,-126.52 148.5,-96 112.31,-78.16 79.53,-41.75 65.59,-24.91"/>
<polygon fill="#63b8ff" stroke="#63b8ff" points="343.36,-146.56 353.6,-143.85 343.9,-139.58 343.36,-146.56"/>
</g>
<!-- Node3 -->
<g id="node3" class="node">
<title>Node3</title>
<g id="a_node3"><a xlink:href="a__star_8h.html" target="_top" xlink:title="Header file for the a* algorithm.">
<polygon fill="white" stroke="#666666" points="275,-90.5 158,-90.5 158,-71.5 275,-71.5 275,-90.5"/>
<text text-anchor="middle" x="216.5" y="-78.5" font-family="Helvetica,sans-Serif" font-size="10.00">src/pathfinding/a_star.h</text>
</a>
</g>
</g>
<!-- Node1&#45;&gt;Node3 -->
<g id="edge2" class="edge">
<title>Node1&#45;&gt;Node3</title>
<path fill="none" stroke="#63b8ff" d="M355.71,-128.16C319.24,-116.07 272.56,-100.59 243.6,-90.99"/>
<polygon fill="#63b8ff" stroke="#63b8ff" points="354.16,-131.34 364.75,-131.16 356.36,-124.69 354.16,-131.34"/>
</g>
<!-- Node8 -->
<g id="node8" class="node">
<title>Node8</title>
<g id="a_node8"><a xlink:href="binary__heap_8c.html" target="_top" xlink:title="Source file for the binary min&#45;heap used in the a* algorithm and floodfill algorithm.">
<polygon fill="white" stroke="#666666" points="401.5,-96 293.5,-96 293.5,-66 401.5,-66 401.5,-96"/>
<text text-anchor="start" x="301.5" y="-84" font-family="Helvetica,sans-Serif" font-size="10.00">src/pathfinding/binary</text>
<text text-anchor="middle" x="347.5" y="-73" font-family="Helvetica,sans-Serif" font-size="10.00">_heap.c</text>
</a>
</g>
</g>
<!-- Node1&#45;&gt;Node8 -->
<g id="edge8" class="edge">
<title>Node1&#45;&gt;Node8</title>
<path fill="none" stroke="#63b8ff" d="M388,-123.81C379.12,-114.64 369.08,-104.28 361.22,-96.16"/>
<polygon fill="#63b8ff" stroke="#63b8ff" points="385.22,-125.96 394.69,-130.71 390.24,-121.09 385.22,-125.96"/>
</g>
<!-- Node9 -->
<g id="node9" class="node">
<title>Node9</title>
<g id="a_node9"><a xlink:href="dfs_8c.html" target="_top" xlink:title="Runs the depth first search algorithm on a maze.">
<polygon fill="white" stroke="#666666" points="523.5,-90.5 419.5,-90.5 419.5,-71.5 523.5,-71.5 523.5,-90.5"/>
<text text-anchor="middle" x="471.5" y="-78.5" font-family="Helvetica,sans-Serif" font-size="10.00">src/pathfinding/dfs.c</text>
</a>
</g>
</g>
<!-- Node1&#45;&gt;Node9 -->
<g id="edge9" class="edge">
<title>Node1&#45;&gt;Node9</title>
<path fill="none" stroke="#63b8ff" d="M431.19,-123.61C442.12,-112.32 454.76,-99.28 462.93,-90.84"/>
<polygon fill="#63b8ff" stroke="#63b8ff" points="428.76,-121.09 424.31,-130.71 433.78,-125.96 428.76,-121.09"/>
</g>
<!-- Node10 -->
<g id="node10" class="node">
<title>Node10</title>
<g id="a_node10"><a xlink:href="floodfill_8c.html" target="_top" xlink:title="This file contains the implementation of the floodfill algorithm for mapping the maze and determining...">
<polygon fill="white" stroke="#666666" points="661,-90.5 542,-90.5 542,-71.5 661,-71.5 661,-90.5"/>
<text text-anchor="middle" x="601.5" y="-78.5" font-family="Helvetica,sans-Serif" font-size="10.00">src/pathfinding/floodfill.c</text>
</a>
</g>
</g>
<!-- Node1&#45;&gt;Node10 -->
<g id="edge10" class="edge">
<title>Node1&#45;&gt;Node10</title>
<path fill="none" stroke="#63b8ff" d="M463.48,-128.01C499.7,-115.93 545.85,-100.55 574.54,-90.99"/>
<polygon fill="#63b8ff" stroke="#63b8ff" points="462.4,-124.68 454.02,-131.16 464.62,-131.32 462.4,-124.68"/>
</g>
<!-- Node11 -->
<g id="node11" class="node">
<title>Node11</title>
<g id="a_node11"><a xlink:href="dfs__tests_8c.html" target="_top" xlink:title="This file contains the functions that test the depth first search algorithm with a simulated navigato...">
<polygon fill="white" stroke="#666666" points="768,-90.5 679,-90.5 679,-71.5 768,-71.5 768,-90.5"/>
<text text-anchor="middle" x="723.5" y="-78.5" font-family="Helvetica,sans-Serif" font-size="10.00">tests/dfs_tests.c</text>
</a>
</g>
</g>
<!-- Node1&#45;&gt;Node11 -->
<g id="edge11" class="edge">
<title>Node1&#45;&gt;Node11</title>
<path fill="none" stroke="#63b8ff" d="M475.23,-134.7C528.16,-125.3 604.39,-111.05 670.5,-96 677.18,-94.48 684.3,-92.71 691.07,-90.94"/>
<polygon fill="#63b8ff" stroke="#63b8ff" points="474.69,-131.24 465.45,-136.43 475.91,-138.14 474.69,-131.24"/>
</g>
<!-- Node3&#45;&gt;Node2 -->
<g id="edge4" class="edge">
<title>Node3&#45;&gt;Node2</title>
<path fill="none" stroke="#63b8ff" d="M183.87,-66.78C152.95,-54.26 107.38,-35.8 80.54,-24.93"/>
<polygon fill="#63b8ff" stroke="#63b8ff" points="182.55,-70.02 193.13,-70.53 185.17,-63.53 182.55,-70.02"/>
</g>
<!-- Node4 -->
<g id="node4" class="node">
<title>Node4</title>
<g id="a_node4"><a xlink:href="main_8c.html" target="_top" xlink:title="The main source file for robot control.">
<polygon fill="white" stroke="#666666" points="197.5,-24.5 135.5,-24.5 135.5,-5.5 197.5,-5.5 197.5,-24.5"/>
<text text-anchor="middle" x="166.5" y="-12.5" font-family="Helvetica,sans-Serif" font-size="10.00">src/main.c</text>
</a>
</g>
</g>
<!-- Node3&#45;&gt;Node4 -->
<g id="edge3" class="edge">
<title>Node3&#45;&gt;Node4</title>
<path fill="none" stroke="#63b8ff" d="M202.64,-62.26C193.13,-50.08 180.91,-34.44 173.39,-24.82"/>
<polygon fill="#63b8ff" stroke="#63b8ff" points="199.7,-64.18 208.62,-69.91 205.22,-59.87 199.7,-64.18"/>
</g>
<!-- Node5 -->
<g id="node5" class="node">
<title>Node5</title>
<g id="a_node5"><a xlink:href="pico__pathfinding__tests_8c.html" target="_top" xlink:title="This file contains the mapping and pathfinding tests to be run on the Pico depending on the input ove...">
<polygon fill="white" stroke="#666666" points="319,-30 216,-30 216,0 319,0 319,-30"/>
<text text-anchor="start" x="224" y="-18" font-family="Helvetica,sans-Serif" font-size="10.00">src/pico_pathfinding</text>
<text text-anchor="middle" x="267.5" y="-7" font-family="Helvetica,sans-Serif" font-size="10.00">_tests.c</text>
</a>
</g>
</g>
<!-- Node3&#45;&gt;Node5 -->
<g id="edge5" class="edge">
<title>Node3&#45;&gt;Node5</title>
<path fill="none" stroke="#63b8ff" d="M230.59,-62.32C238.64,-52.22 248.61,-39.7 256.16,-30.23"/>
<polygon fill="#63b8ff" stroke="#63b8ff" points="228.03,-59.92 224.53,-69.92 233.5,-64.28 228.03,-59.92"/>
</g>
<!-- Node6 -->
<g id="node6" class="node">
<title>Node6</title>
<g id="a_node6"><a xlink:href="navigation__tests_8c.html" target="_top" xlink:title="Tests the combined navigational functions.">
<polygon fill="white" stroke="#666666" points="457.5,-24.5 337.5,-24.5 337.5,-5.5 457.5,-5.5 457.5,-24.5"/>
<text text-anchor="middle" x="397.5" y="-12.5" font-family="Helvetica,sans-Serif" font-size="10.00">tests/navigation_tests.c</text>
</a>
</g>
</g>
<!-- Node3&#45;&gt;Node6 -->
<g id="edge6" class="edge">
<title>Node3&#45;&gt;Node6</title>
<path fill="none" stroke="#63b8ff" d="M252.49,-67.27C287.92,-54.75 341.1,-35.94 372.26,-24.93"/>
<polygon fill="#63b8ff" stroke="#63b8ff" points="251.36,-63.96 243.09,-70.6 253.69,-70.56 251.36,-63.96"/>
</g>
<!-- Node7 -->
<g id="node7" class="node">
<title>Node7</title>
<g id="a_node7"><a xlink:href="pathfinding__tests_8c.html" target="_top" xlink:title="This file contains the tests for the A* pathfinding algorithm.">
<polygon fill="white" stroke="#666666" points="597.5,-24.5 475.5,-24.5 475.5,-5.5 597.5,-5.5 597.5,-24.5"/>
<text text-anchor="middle" x="536.5" y="-12.5" font-family="Helvetica,sans-Serif" font-size="10.00">tests/pathfinding_tests.c</text>
</a>
</g>
</g>
<!-- Node3&#45;&gt;Node7 -->
<g id="edge7" class="edge">
<title>Node3&#45;&gt;Node7</title>
<path fill="none" stroke="#63b8ff" d="M270.59,-68.82C275.29,-67.86 279.98,-66.91 284.5,-66 365.33,-49.69 385.63,-46.09 466.5,-30 474.64,-28.38 483.32,-26.65 491.69,-24.98"/>
<polygon fill="#63b8ff" stroke="#63b8ff" points="270.23,-65.32 261.14,-70.76 271.64,-72.18 270.23,-65.32"/>
</g>
</g>
</svg>
