<?xml version="1.0" encoding="UTF-8" standalone="no"?>
<!DOCTYPE svg PUBLIC "-//W3C//DTD SVG 1.1//EN"
 "http://www.w3.org/Graphics/SVG/1.1/DTD/svg11.dtd">
<!-- Generated by graphviz version 7.0.5 (20221223.1930)
 -->
<!-- Title: src/pathfinding/binary_heap.h Pages: 1 -->
<svg width="217pt" height="148pt"
 viewBox="0.00 0.00 216.50 148.00" xmlns="http://www.w3.org/2000/svg" xmlns:xlink="http://www.w3.org/1999/xlink">
<g id="graph0" class="graph" transform="scale(1 1) rotate(0) translate(4 144)">
<title>src/pathfinding/binary_heap.h</title>
<!-- Node1 -->
<g id="node1" class="node">
<title>Node1</title>
<g id="a_node1"><a xlink:title="This file contains the declarations for the binary min&#45;heap used in the a* algorithm.">
<polygon fill="#999999" stroke="#666666" points="151,-140 43,-140 43,-110 151,-110 151,-140"/>
<text text-anchor="start" x="51" y="-128" font-family="Helvetica,sans-Serif" font-size="10.00">src/pathfinding/binary</text>
<text text-anchor="middle" x="97" y="-117" font-family="Helvetica,sans-Serif" font-size="10.00">_heap.h</text>
</a>
</g>
</g>
<!-- Node2 -->
<g id="node2" class="node">
<title>Node2</title>
<g id="a_node2"><a xlink:title=" ">
<polygon fill="#e0e0e0" stroke="#999999" points="48,-19 0,-19 0,0 48,0 48,-19"/>
<text text-anchor="middle" x="24" y="-7" font-family="Helvetica,sans-Serif" font-size="10.00">stdint.h</text>
</a>
</g>
</g>
<!-- Node1&#45;&gt;Node2 -->
<g id="edge1" class="edge">
<title>Node1&#45;&gt;Node2</title>
<path fill="none" stroke="#63b8ff" d="M74.81,-109.57C62.82,-100.68 48.72,-88.26 40,-74 31.91,-60.77 27.9,-43.61 25.92,-30.46"/>
<polygon fill="#63b8ff" stroke="#63b8ff" points="29.43,-30.36 24.75,-20.85 22.48,-31.2 29.43,-30.36"/>
</g>
<!-- Node3 -->
<g id="node3" class="node">
<title>Node3</title>
<g id="a_node3"><a xlink:href="maze_8h.html" target="_top" xlink:title="Header file for the maze data structure and public functions.">
<polygon fill="white" stroke="#666666" points="145.5,-74 48.5,-74 48.5,-55 145.5,-55 145.5,-74"/>
<text text-anchor="middle" x="97" y="-62" font-family="Helvetica,sans-Serif" font-size="10.00">pathfinding/maze.h</text>
</a>
</g>
</g>
<!-- Node1&#45;&gt;Node3 -->
<g id="edge2" class="edge">
<title>Node1&#45;&gt;Node3</title>
<path fill="none" stroke="#63b8ff" d="M97,-109.54C97,-102.34 97,-93.53 97,-85.68"/>
<polygon fill="#63b8ff" stroke="#63b8ff" points="100.5,-85.69 97,-75.69 93.5,-85.69 100.5,-85.69"/>
</g>
<!-- Node5 -->
<g id="node5" class="node">
<title>Node5</title>
<g id="a_node5"><a xlink:title=" ">
<polygon fill="#e0e0e0" stroke="#999999" points="208.5,-74 163.5,-74 163.5,-55 208.5,-55 208.5,-74"/>
<text text-anchor="middle" x="186" y="-62" font-family="Helvetica,sans-Serif" font-size="10.00">stdio.h</text>
</a>
</g>
</g>
<!-- Node1&#45;&gt;Node5 -->
<g id="edge5" class="edge">
<title>Node1&#45;&gt;Node5</title>
<path fill="none" stroke="#63b8ff" d="M119,-109.54C132.37,-100.75 149.42,-89.54 162.98,-80.63"/>
<polygon fill="#63b8ff" stroke="#63b8ff" points="164.84,-83.6 171.28,-75.18 161,-77.75 164.84,-83.6"/>
</g>
<!-- Node3&#45;&gt;Node2 -->
<g id="edge3" class="edge">
<title>Node3&#45;&gt;Node2</title>
<path fill="none" stroke="#63b8ff" d="M84.62,-54.51C73.85,-46.7 58.03,-35.21 45.25,-25.93"/>
<polygon fill="#63b8ff" stroke="#63b8ff" points="47.57,-23.29 37.43,-20.25 43.46,-28.95 47.57,-23.29"/>
</g>
<!-- Node4 -->
<g id="node4" class="node">
<title>Node4</title>
<g id="a_node4"><a xlink:title=" ">
<polygon fill="#e0e0e0" stroke="#999999" points="125,-19 69,-19 69,0 125,0 125,-19"/>
<text text-anchor="middle" x="97" y="-7" font-family="Helvetica,sans-Serif" font-size="10.00">stdbool.h</text>
</a>
</g>
</g>
<!-- Node3&#45;&gt;Node4 -->
<g id="edge4" class="edge">
<title>Node3&#45;&gt;Node4</title>
<path fill="none" stroke="#63b8ff" d="M97,-54.75C97,-48.27 97,-39.16 97,-30.9"/>
<polygon fill="#63b8ff" stroke="#63b8ff" points="100.5,-30.96 97,-20.96 93.5,-30.96 100.5,-30.96"/>
</g>
</g>
</svg>
