<?xml version="1.0" encoding="UTF-8" standalone="no"?>
<!DOCTYPE svg PUBLIC "-//W3C//DTD SVG 1.1//EN"
 "http://www.w3.org/Graphics/SVG/1.1/DTD/svg11.dtd">
<!-- Generated by graphviz version 7.0.5 (20221223.1930)
 -->
<!-- Title: src/pathfinding/binary_heap.c Pages: 1 -->
<svg width="269pt" height="203pt"
 viewBox="0.00 0.00 268.50 203.00" xmlns="http://www.w3.org/2000/svg" xmlns:xlink="http://www.w3.org/1999/xlink">
<g id="graph0" class="graph" transform="scale(1 1) rotate(0) translate(4 199)">
<title>src/pathfinding/binary_heap.c</title>
<!-- Node1 -->
<g id="node1" class="node">
<title>Node1</title>
<g id="a_node1"><a xlink:title="Source file for the binary min&#45;heap used in the a* algorithm and floodfill algorithm.">
<polygon fill="#999999" stroke="#666666" points="171.5,-195 63.5,-195 63.5,-165 171.5,-165 171.5,-195"/>
<text text-anchor="start" x="71.5" y="-183" font-family="Helvetica,sans-Serif" font-size="10.00">src/pathfinding/binary</text>
<text text-anchor="middle" x="117.5" y="-172" font-family="Helvetica,sans-Serif" font-size="10.00">_heap.c</text>
</a>
</g>
</g>
<!-- Node2 -->
<g id="node2" class="node">
<title>Node2</title>
<g id="a_node2"><a xlink:title=" ">
<polygon fill="#e0e0e0" stroke="#999999" points="51,-129 0,-129 0,-110 51,-110 51,-129"/>
<text text-anchor="middle" x="25.5" y="-117" font-family="Helvetica,sans-Serif" font-size="10.00">stddef.h</text>
</a>
</g>
</g>
<!-- Node1&#45;&gt;Node2 -->
<g id="edge1" class="edge">
<title>Node1&#45;&gt;Node2</title>
<path fill="none" stroke="#63b8ff" d="M94.76,-164.54C80.8,-155.66 62.96,-144.32 48.89,-135.37"/>
<polygon fill="#63b8ff" stroke="#63b8ff" points="51.01,-132.57 40.69,-130.16 47.25,-138.48 51.01,-132.57"/>
</g>
<!-- Node3 -->
<g id="node3" class="node">
<title>Node3</title>
<g id="a_node3"><a xlink:title=" ">
<polygon fill="#e0e0e0" stroke="#999999" points="141.5,-19 93.5,-19 93.5,0 141.5,0 141.5,-19"/>
<text text-anchor="middle" x="117.5" y="-7" font-family="Helvetica,sans-Serif" font-size="10.00">stdint.h</text>
</a>
</g>
</g>
<!-- Node1&#45;&gt;Node3 -->
<g id="edge2" class="edge">
<title>Node1&#45;&gt;Node3</title>
<path fill="none" stroke="#63b8ff" d="M112.76,-164.75C109.72,-154.85 106.07,-141.28 104.5,-129 100.07,-94.37 107.12,-53.93 112.45,-30.37"/>
<polygon fill="#63b8ff" stroke="#63b8ff" points="115.79,-31.44 114.72,-20.9 108.98,-29.81 115.79,-31.44"/>
</g>
<!-- Node4 -->
<g id="node4" class="node">
<title>Node4</title>
<g id="a_node4"><a xlink:href="binary__heap_8h.html" target="_top" xlink:title="This file contains the declarations for the binary min&#45;heap used in the a* algorithm.">
<polygon fill="white" stroke="#666666" points="189.5,-129 113.5,-129 113.5,-110 189.5,-110 189.5,-129"/>
<text text-anchor="middle" x="151.5" y="-117" font-family="Helvetica,sans-Serif" font-size="10.00">binary_heap.h</text>
</a>
</g>
</g>
<!-- Node1&#45;&gt;Node4 -->
<g id="edge3" class="edge">
<title>Node1&#45;&gt;Node4</title>
<path fill="none" stroke="#63b8ff" d="M125.9,-164.54C130.39,-156.82 135.96,-147.24 140.75,-138.99"/>
<polygon fill="#63b8ff" stroke="#63b8ff" points="143.7,-140.89 145.7,-130.48 137.65,-137.37 143.7,-140.89"/>
</g>
<!-- Node5 -->
<g id="node5" class="node">
<title>Node5</title>
<g id="a_node5"><a xlink:href="maze_8h.html" target="_top" xlink:title="Header file for the maze data structure and public functions.">
<polygon fill="white" stroke="#666666" points="256,-74 209,-74 209,-55 256,-55 256,-74"/>
<text text-anchor="middle" x="232.5" y="-62" font-family="Helvetica,sans-Serif" font-size="10.00">maze.h</text>
</a>
</g>
</g>
<!-- Node1&#45;&gt;Node5 -->
<g id="edge9" class="edge">
<title>Node1&#45;&gt;Node5</title>
<path fill="none" stroke="#63b8ff" d="M149.1,-164.53C165.33,-155.93 184.57,-143.81 198.5,-129 210.56,-116.18 219.64,-98.26 225.36,-84.72"/>
<polygon fill="#63b8ff" stroke="#63b8ff" points="228.55,-86.19 228.97,-75.6 222.04,-83.61 228.55,-86.19"/>
</g>
<!-- Node4&#45;&gt;Node3 -->
<g id="edge4" class="edge">
<title>Node4&#45;&gt;Node3</title>
<path fill="none" stroke="#63b8ff" d="M148.42,-109.66C145.32,-100.71 140.45,-86.43 136.5,-74 131.84,-59.36 126.88,-42.72 123.19,-30.15"/>
<polygon fill="#63b8ff" stroke="#63b8ff" points="126.57,-29.23 120.41,-20.61 119.85,-31.19 126.57,-29.23"/>
</g>
<!-- Node4&#45;&gt;Node5 -->
<g id="edge5" class="edge">
<title>Node4&#45;&gt;Node5</title>
<path fill="none" stroke="#63b8ff" d="M165.24,-109.51C177.3,-101.62 195.09,-89.98 209.34,-80.65"/>
<polygon fill="#63b8ff" stroke="#63b8ff" points="211.24,-83.59 217.7,-75.19 207.41,-77.73 211.24,-83.59"/>
</g>
<!-- Node7 -->
<g id="node7" class="node">
<title>Node7</title>
<g id="a_node7"><a xlink:title=" ">
<polygon fill="#e0e0e0" stroke="#999999" points="191,-74 146,-74 146,-55 191,-55 191,-74"/>
<text text-anchor="middle" x="168.5" y="-62" font-family="Helvetica,sans-Serif" font-size="10.00">stdio.h</text>
</a>
</g>
</g>
<!-- Node4&#45;&gt;Node7 -->
<g id="edge8" class="edge">
<title>Node4&#45;&gt;Node7</title>
<path fill="none" stroke="#63b8ff" d="M154.31,-109.75C156.44,-103.11 159.44,-93.73 162.14,-85.31"/>
<polygon fill="#63b8ff" stroke="#63b8ff" points="165.45,-86.47 165.17,-75.88 158.78,-84.34 165.45,-86.47"/>
</g>
<!-- Node5&#45;&gt;Node3 -->
<g id="edge6" class="edge">
<title>Node5&#45;&gt;Node3</title>
<path fill="none" stroke="#63b8ff" d="M212.99,-54.51C194.87,-46.16 167.65,-33.61 146.9,-24.05"/>
<polygon fill="#63b8ff" stroke="#63b8ff" points="148.64,-21 138.09,-19.99 145.71,-27.36 148.64,-21"/>
</g>
<!-- Node6 -->
<g id="node6" class="node">
<title>Node6</title>
<g id="a_node6"><a xlink:title=" ">
<polygon fill="#e0e0e0" stroke="#999999" points="260.5,-19 204.5,-19 204.5,0 260.5,0 260.5,-19"/>
<text text-anchor="middle" x="232.5" y="-7" font-family="Helvetica,sans-Serif" font-size="10.00">stdbool.h</text>
</a>
</g>
</g>
<!-- Node5&#45;&gt;Node6 -->
<g id="edge7" class="edge">
<title>Node5&#45;&gt;Node6</title>
<path fill="none" stroke="#63b8ff" d="M232.5,-54.75C232.5,-48.27 232.5,-39.16 232.5,-30.9"/>
<polygon fill="#63b8ff" stroke="#63b8ff" points="236,-30.96 232.5,-20.96 229,-30.96 236,-30.96"/>
</g>
</g>
</svg>
