<?xml version="1.0" encoding="UTF-8" standalone="no"?>
<!DOCTYPE svg PUBLIC "-//W3C//DTD SVG 1.1//EN"
 "http://www.w3.org/Graphics/SVG/1.1/DTD/svg11.dtd">
<!-- Generated by graphviz version 7.0.5 (20221223.1930)
 -->
<!-- Title: binary_heap_peek Pages: 1 -->
<svg width="395pt" height="38pt"
 viewBox="0.00 0.00 395.00 38.00" xmlns="http://www.w3.org/2000/svg" xmlns:xlink="http://www.w3.org/1999/xlink">
<g id="graph0" class="graph" transform="scale(1 1) rotate(0) translate(4 34)">
<title>binary_heap_peek</title>
<!-- Node1 -->
<g id="node1" class="node">
<title>Node1</title>
<g id="a_node1"><a xlink:title="Peeks at the root node of the binary heap.">
<polygon fill="#999999" stroke="#666666" points="387,-24.5 292,-24.5 292,-5.5 387,-5.5 387,-24.5"/>
<text text-anchor="middle" x="339.5" y="-12.5" font-family="Helvetica,sans-Serif" font-size="10.00">binary_heap_peek</text>
</a>
</g>
</g>
<!-- Node2 -->
<g id="node2" class="node">
<title>Node2</title>
<g id="a_node2"><a xlink:href="dfs_8c.html#ae6f752eff6517a7aeace592951a6a919" target="_top" xlink:title="Checks if all reachable nodes from the navigator&#39;s current position has been visisted.">
<polygon fill="white" stroke="#666666" points="256,-30 151,-30 151,0 256,0 256,-30"/>
<text text-anchor="start" x="159" y="-18" font-family="Helvetica,sans-Serif" font-size="10.00">dfs_is_all_reachable</text>
<text text-anchor="middle" x="203.5" y="-7" font-family="Helvetica,sans-Serif" font-size="10.00">_visited</text>
</a>
</g>
</g>
<!-- Node1&#45;&gt;Node2 -->
<g id="edge1" class="edge">
<title>Node1&#45;&gt;Node2</title>
<path fill="none" stroke="#63b8ff" d="M280.39,-15C272.32,-15 264.08,-15 256.14,-15"/>
<polygon fill="#63b8ff" stroke="#63b8ff" points="280.12,-18.5 290.12,-15 280.12,-11.5 280.12,-18.5"/>
</g>
<!-- Node3 -->
<g id="node3" class="node">
<title>Node3</title>
<g id="a_node3"><a xlink:href="dfs_8c.html#ad895d09bb41bba4132541d5d17f7f4c0" target="_top" xlink:title="Conducts a depth first search on a maze.">
<polygon fill="white" stroke="#666666" points="115,-24.5 0,-24.5 0,-5.5 115,-5.5 115,-24.5"/>
<text text-anchor="middle" x="57.5" y="-12.5" font-family="Helvetica,sans-Serif" font-size="10.00">dfs_depth_first_search</text>
</a>
</g>
</g>
<!-- Node2&#45;&gt;Node3 -->
<g id="edge2" class="edge">
<title>Node2&#45;&gt;Node3</title>
<path fill="none" stroke="#63b8ff" d="M139.06,-15C131.14,-15 123.09,-15 115.28,-15"/>
<polygon fill="#63b8ff" stroke="#63b8ff" points="139,-18.5 149,-15 139,-11.5 139,-18.5"/>
</g>
</g>
</svg>
