<?xml version="1.0" encoding="UTF-8" standalone="no"?>
<!DOCTYPE svg PUBLIC "-//W3C//DTD SVG 1.1//EN"
 "http://www.w3.org/Graphics/SVG/1.1/DTD/svg11.dtd">
<!-- Generated by graphviz version 7.0.5 (20221223.1930)
 -->
<!-- Title: src/pathfinding/binary_heap.h Pages: 1 -->
<svg width="171pt" height="148pt"
 viewBox="0.00 0.00 170.50 148.00" xmlns="http://www.w3.org/2000/svg" xmlns:xlink="http://www.w3.org/1999/xlink">
<g id="graph0" class="graph" transform="scale(1 1) rotate(0) translate(4 144)">
<title>src/pathfinding/binary_heap.h</title>
<!-- Node1 -->
<g id="node1" class="node">
<title>Node1</title>
<g id="a_node1"><a xlink:title="This file contains the declarations for the binary min&#45;heap used in the a* algorithm.">
<polygon fill="#999999" stroke="#666666" points="130,-140 22,-140 22,-110 130,-110 130,-140"/>
<text text-anchor="start" x="30" y="-128" font-family="Helvetica,sans-Serif" font-size="10.00">src/pathfinding/binary</text>
<text text-anchor="middle" x="76" y="-117" font-family="Helvetica,sans-Serif" font-size="10.00">_heap.h</text>
</a>
</g>
</g>
<!-- Node2 -->
<g id="node2" class="node">
<title>Node2</title>
<g id="a_node2"><a xlink:title=" ">
<polygon fill="#e0e0e0" stroke="#999999" points="48,-19 0,-19 0,0 48,0 48,-19"/>
<text text-anchor="middle" x="24" y="-7" font-family="Helvetica,sans-Serif" font-size="10.00">stdint.h</text>
</a>
</g>
</g>
<!-- Node1&#45;&gt;Node2 -->
<g id="edge1" class="edge">
<title>Node1&#45;&gt;Node2</title>
<path fill="none" stroke="#63b8ff" d="M64.99,-109.79C57.93,-100.13 48.99,-86.82 43,-74 36.43,-59.94 31.51,-43.06 28.32,-30.25"/>
<polygon fill="#63b8ff" stroke="#63b8ff" points="31.82,-29.84 26.15,-20.9 25,-31.43 31.82,-29.84"/>
</g>
<!-- Node3 -->
<g id="node3" class="node">
<title>Node3</title>
<g id="a_node3"><a xlink:href="maze_8h.html" target="_top" xlink:title="Header file for the maze data structure and public functions.">
<polygon fill="white" stroke="#666666" points="99.5,-74 52.5,-74 52.5,-55 99.5,-55 99.5,-74"/>
<text text-anchor="middle" x="76" y="-62" font-family="Helvetica,sans-Serif" font-size="10.00">maze.h</text>
</a>
</g>
</g>
<!-- Node1&#45;&gt;Node3 -->
<g id="edge2" class="edge">
<title>Node1&#45;&gt;Node3</title>
<path fill="none" stroke="#63b8ff" d="M76,-109.54C76,-102.34 76,-93.53 76,-85.68"/>
<polygon fill="#63b8ff" stroke="#63b8ff" points="79.5,-85.69 76,-75.69 72.5,-85.69 79.5,-85.69"/>
</g>
<!-- Node5 -->
<g id="node5" class="node">
<title>Node5</title>
<g id="a_node5"><a xlink:title=" ">
<polygon fill="#e0e0e0" stroke="#999999" points="162.5,-74 117.5,-74 117.5,-55 162.5,-55 162.5,-74"/>
<text text-anchor="middle" x="140" y="-62" font-family="Helvetica,sans-Serif" font-size="10.00">stdio.h</text>
</a>
</g>
</g>
<!-- Node1&#45;&gt;Node5 -->
<g id="edge5" class="edge">
<title>Node1&#45;&gt;Node5</title>
<path fill="none" stroke="#63b8ff" d="M91.82,-109.54C101.02,-101.13 112.64,-90.51 122.17,-81.8"/>
<polygon fill="#63b8ff" stroke="#63b8ff" points="124.37,-84.53 129.39,-75.2 119.65,-79.36 124.37,-84.53"/>
</g>
<!-- Node3&#45;&gt;Node2 -->
<g id="edge3" class="edge">
<title>Node3&#45;&gt;Node2</title>
<path fill="none" stroke="#63b8ff" d="M67.41,-54.75C60.16,-47.35 49.55,-36.54 40.63,-27.45"/>
<polygon fill="#63b8ff" stroke="#63b8ff" points="43.34,-25.21 33.83,-20.52 38.34,-30.11 43.34,-25.21"/>
</g>
<!-- Node4 -->
<g id="node4" class="node">
<title>Node4</title>
<g id="a_node4"><a xlink:title=" ">
<polygon fill="#e0e0e0" stroke="#999999" points="122,-19 66,-19 66,0 122,0 122,-19"/>
<text text-anchor="middle" x="94" y="-7" font-family="Helvetica,sans-Serif" font-size="10.00">stdbool.h</text>
</a>
</g>
</g>
<!-- Node3&#45;&gt;Node4 -->
<g id="edge4" class="edge">
<title>Node3&#45;&gt;Node4</title>
<path fill="none" stroke="#63b8ff" d="M78.97,-54.75C81.23,-48.11 84.41,-38.73 87.27,-30.31"/>
<polygon fill="#63b8ff" stroke="#63b8ff" points="90.57,-31.47 90.48,-20.88 83.95,-29.22 90.57,-31.47"/>
</g>
</g>
</svg>
