<?xml version="1.0" encoding="UTF-8" standalone="no"?>
<!DOCTYPE svg PUBLIC "-//W3C//DTD SVG 1.1//EN"
 "http://www.w3.org/Graphics/SVG/1.1/DTD/svg11.dtd">
<!-- Generated by graphviz version 7.0.5 (20221223.1930)
 -->
<!-- Title: main/pathfinding/dfs.c Pages: 1 -->
<svg width="512pt" height="247pt"
 viewBox="0.00 0.00 512.46 247.00" xmlns="http://www.w3.org/2000/svg" xmlns:xlink="http://www.w3.org/1999/xlink">
<g id="graph0" class="graph" transform="scale(1 1) rotate(0) translate(4 243)">
<title>main/pathfinding/dfs.c</title>
<!-- Node1 -->
<g id="node1" class="node">
<title>Node1</title>
<g id="a_node1"><a xlink:title="Runs the depth first search algorithm on a maze.">
<polygon fill="#999999" stroke="#666666" points="336.35,-239 225.35,-239 225.35,-220 336.35,-220 336.35,-239"/>
<text text-anchor="middle" x="280.85" y="-227" font-family="Helvetica,sans-Serif" font-size="10.00">main/pathfinding/dfs.c</text>
</a>
</g>
</g>
<!-- Node2 -->
<g id="node2" class="node">
<title>Node2</title>
<g id="a_node2"><a xlink:title=" ">
<polygon fill="#e0e0e0" stroke="#999999" points="229.35,-129 184.35,-129 184.35,-110 229.35,-110 229.35,-129"/>
<text text-anchor="middle" x="206.85" y="-117" font-family="Helvetica,sans-Serif" font-size="10.00">stdio.h</text>
</a>
</g>
</g>
<!-- Node1&#45;&gt;Node2 -->
<g id="edge1" class="edge">
<title>Node1&#45;&gt;Node2</title>
<path fill="none" stroke="#63b8ff" d="M259.44,-219.55C244.71,-212.22 226.02,-200.38 215.85,-184 207.84,-171.1 205.81,-153.92 205.66,-140.68"/>
<polygon fill="#63b8ff" stroke="#63b8ff" points="209.15,-141.07 205.92,-130.98 202.15,-140.88 209.15,-141.07"/>
</g>
<!-- Node3 -->
<g id="node3" class="node">
<title>Node3</title>
<g id="a_node3"><a xlink:title=" ">
<polygon fill="#e0e0e0" stroke="#999999" points="73.35,-184 22.35,-184 22.35,-165 73.35,-165 73.35,-184"/>
<text text-anchor="middle" x="47.85" y="-172" font-family="Helvetica,sans-Serif" font-size="10.00">stddef.h</text>
</a>
</g>
</g>
<!-- Node1&#45;&gt;Node3 -->
<g id="edge2" class="edge">
<title>Node1&#45;&gt;Node3</title>
<path fill="none" stroke="#63b8ff" d="M239.85,-219.5C202.12,-211.17 144.33,-198.29 84.93,-184.46"/>
<polygon fill="#63b8ff" stroke="#63b8ff" points="85.84,-181.07 75.3,-182.21 84.25,-187.89 85.84,-181.07"/>
</g>
<!-- Node4 -->
<g id="node4" class="node">
<title>Node4</title>
<g id="a_node4"><a xlink:title=" ">
<polygon fill="#e0e0e0" stroke="#999999" points="434.85,-19 386.85,-19 386.85,0 434.85,0 434.85,-19"/>
<text text-anchor="middle" x="410.85" y="-7" font-family="Helvetica,sans-Serif" font-size="10.00">stdint.h</text>
</a>
</g>
</g>
<!-- Node1&#45;&gt;Node4 -->
<g id="edge3" class="edge">
<title>Node1&#45;&gt;Node4</title>
<path fill="none" stroke="#63b8ff" d="M336.74,-224.52C374.43,-219.59 423.84,-208.58 460.85,-184 486.25,-167.13 492.25,-157.94 501.85,-129 516.22,-85.68 467.84,-45.93 436.19,-25.3"/>
<polygon fill="#63b8ff" stroke="#63b8ff" points="438.22,-22.44 427.88,-20.1 434.5,-28.38 438.22,-22.44"/>
</g>
<!-- Node5 -->
<g id="node5" class="node">
<title>Node5</title>
<g id="a_node5"><a xlink:title=" ">
<polygon fill="#e0e0e0" stroke="#999999" points="205.85,-19 149.85,-19 149.85,0 205.85,0 205.85,-19"/>
<text text-anchor="middle" x="177.85" y="-7" font-family="Helvetica,sans-Serif" font-size="10.00">stdbool.h</text>
</a>
</g>
</g>
<!-- Node1&#45;&gt;Node5 -->
<g id="edge4" class="edge">
<title>Node1&#45;&gt;Node5</title>
<path fill="none" stroke="#63b8ff" d="M225.05,-227.4C154.64,-224.69 39.5,-215.44 12.85,-184 -40.02,-121.63 85.75,-52.68 146.87,-24.08"/>
<polygon fill="#63b8ff" stroke="#63b8ff" points="148.12,-27.36 155.75,-20.01 145.2,-20.99 148.12,-27.36"/>
</g>
<!-- Node6 -->
<g id="node6" class="node">
<title>Node6</title>
<g id="a_node6"><a xlink:title=" ">
<polygon fill="#e0e0e0" stroke="#999999" points="271.35,-184 224.35,-184 224.35,-165 271.35,-165 271.35,-184"/>
<text text-anchor="middle" x="247.85" y="-172" font-family="Helvetica,sans-Serif" font-size="10.00">stdlib.h</text>
</a>
</g>
</g>
<!-- Node1&#45;&gt;Node6 -->
<g id="edge5" class="edge">
<title>Node1&#45;&gt;Node6</title>
<path fill="none" stroke="#63b8ff" d="M275.4,-219.75C271.08,-212.81 264.89,-202.86 259.47,-194.16"/>
<polygon fill="#63b8ff" stroke="#63b8ff" points="262.47,-192.37 254.22,-185.73 256.53,-196.07 262.47,-192.37"/>
</g>
<!-- Node7 -->
<g id="node7" class="node">
<title>Node7</title>
<g id="a_node7"><a xlink:title=" ">
<polygon fill="#e0e0e0" stroke="#999999" points="337.85,-184 289.85,-184 289.85,-165 337.85,-165 337.85,-184"/>
<text text-anchor="middle" x="313.85" y="-172" font-family="Helvetica,sans-Serif" font-size="10.00">string.h</text>
</a>
</g>
</g>
<!-- Node1&#45;&gt;Node7 -->
<g id="edge6" class="edge">
<title>Node1&#45;&gt;Node7</title>
<path fill="none" stroke="#63b8ff" d="M286.3,-219.75C290.62,-212.81 296.81,-202.86 302.23,-194.16"/>
<polygon fill="#63b8ff" stroke="#63b8ff" points="305.17,-196.07 307.48,-185.73 299.22,-192.37 305.17,-196.07"/>
</g>
<!-- Node8 -->
<g id="node8" class="node">
<title>Node8</title>
<g id="a_node8"><a xlink:href="maze_8h.html" target="_top" xlink:title="Header file for the maze data structure and public functions.">
<polygon fill="white" stroke="#666666" points="370.35,-74 323.35,-74 323.35,-55 370.35,-55 370.35,-74"/>
<text text-anchor="middle" x="346.85" y="-62" font-family="Helvetica,sans-Serif" font-size="10.00">maze.h</text>
</a>
</g>
</g>
<!-- Node1&#45;&gt;Node8 -->
<g id="edge7" class="edge">
<title>Node1&#45;&gt;Node8</title>
<path fill="none" stroke="#63b8ff" d="M304.28,-219.58C319.41,-212.45 337.89,-200.84 346.85,-184 363.47,-152.76 357.75,-110 352.21,-85.3"/>
<polygon fill="#63b8ff" stroke="#63b8ff" points="355.63,-84.53 349.82,-75.66 348.83,-86.21 355.63,-84.53"/>
</g>
<!-- Node9 -->
<g id="node9" class="node">
<title>Node9</title>
<g id="a_node9"><a xlink:href="floodfill_8h.html" target="_top" xlink:title="This file contains the function prototypes for the floodfill algorithm for mapping of the maze.">
<polygon fill="white" stroke="#666666" points="492.35,-129 439.35,-129 439.35,-110 492.35,-110 492.35,-129"/>
<text text-anchor="middle" x="465.85" y="-117" font-family="Helvetica,sans-Serif" font-size="10.00">floodfill.h</text>
</a>
</g>
</g>
<!-- Node1&#45;&gt;Node9 -->
<g id="edge10" class="edge">
<title>Node1&#45;&gt;Node9</title>
<path fill="none" stroke="#63b8ff" d="M336.82,-225.28C370.61,-220.6 412.47,-209.58 440.85,-184 453.37,-172.71 459.7,-154.35 462.85,-140.27"/>
<polygon fill="#63b8ff" stroke="#63b8ff" points="466.23,-141.24 464.6,-130.77 459.34,-139.97 466.23,-141.24"/>
</g>
<!-- Node10 -->
<g id="node10" class="node">
<title>Node10</title>
<g id="a_node10"><a xlink:href="binary__heap_8h.html" target="_top" xlink:title="This file contains the declarations for the binary min&#45;heap used in the a* algorithm.">
<polygon fill="white" stroke="#666666" points="167.85,-184 91.85,-184 91.85,-165 167.85,-165 167.85,-184"/>
<text text-anchor="middle" x="129.85" y="-172" font-family="Helvetica,sans-Serif" font-size="10.00">binary_heap.h</text>
</a>
</g>
</g>
<!-- Node1&#45;&gt;Node10 -->
<g id="edge13" class="edge">
<title>Node1&#45;&gt;Node10</title>
<path fill="none" stroke="#63b8ff" d="M255.23,-219.51C230.75,-210.92 193.61,-197.88 166.1,-188.22"/>
<polygon fill="#63b8ff" stroke="#63b8ff" points="167.36,-184.96 156.76,-184.95 165.04,-191.56 167.36,-184.96"/>
</g>
<!-- Node11 -->
<g id="node11" class="node">
<title>Node11</title>
<g id="a_node11"><a xlink:href="dfs_8h.html" target="_top" xlink:title="Header file for the depth first search algorithm for mapping the maze.">
<polygon fill="white" stroke="#666666" points="431.85,-184 393.85,-184 393.85,-165 431.85,-165 431.85,-184"/>
<text text-anchor="middle" x="412.85" y="-172" font-family="Helvetica,sans-Serif" font-size="10.00">dfs.h</text>
</a>
</g>
</g>
<!-- Node1&#45;&gt;Node11 -->
<g id="edge17" class="edge">
<title>Node1&#45;&gt;Node11</title>
<path fill="none" stroke="#63b8ff" d="M303.24,-219.51C325.18,-210.7 358.76,-197.22 382.97,-187.49"/>
<polygon fill="#63b8ff" stroke="#63b8ff" points="383.98,-190.86 391.96,-183.89 381.37,-184.37 383.98,-190.86"/>
</g>
<!-- Node8&#45;&gt;Node4 -->
<g id="edge8" class="edge">
<title>Node8&#45;&gt;Node4</title>
<path fill="none" stroke="#63b8ff" d="M357.71,-54.51C366.96,-46.85 380.47,-35.66 391.56,-26.47"/>
<polygon fill="#63b8ff" stroke="#63b8ff" points="393.52,-29.4 398.99,-20.32 389.05,-24.01 393.52,-29.4"/>
</g>
<!-- Node8&#45;&gt;Node5 -->
<g id="edge9" class="edge">
<title>Node8&#45;&gt;Node5</title>
<path fill="none" stroke="#63b8ff" d="M322.99,-56.02C295.36,-47.35 249.45,-32.95 216.66,-22.67"/>
<polygon fill="#63b8ff" stroke="#63b8ff" points="218.12,-19.46 207.53,-19.81 216.03,-26.14 218.12,-19.46"/>
</g>
<!-- Node9&#45;&gt;Node4 -->
<g id="edge11" class="edge">
<title>Node9&#45;&gt;Node4</title>
<path fill="none" stroke="#63b8ff" d="M461.35,-109.66C452.48,-92.26 432.59,-53.19 420.59,-29.62"/>
<polygon fill="#63b8ff" stroke="#63b8ff" points="423.76,-28.13 416.1,-20.81 417.52,-31.31 423.76,-28.13"/>
</g>
<!-- Node9&#45;&gt;Node8 -->
<g id="edge12" class="edge">
<title>Node9&#45;&gt;Node8</title>
<path fill="none" stroke="#63b8ff" d="M445.66,-109.51C426.83,-101.12 398.48,-88.5 376.97,-78.92"/>
<polygon fill="#63b8ff" stroke="#63b8ff" points="378.68,-75.85 368.12,-74.97 375.83,-82.24 378.68,-75.85"/>
</g>
<!-- Node10&#45;&gt;Node2 -->
<g id="edge16" class="edge">
<title>Node10&#45;&gt;Node2</title>
<path fill="none" stroke="#63b8ff" d="M142.91,-164.51C154.37,-156.62 171.28,-144.98 184.83,-135.65"/>
<polygon fill="#63b8ff" stroke="#63b8ff" points="186.48,-138.77 192.73,-130.22 182.51,-133 186.48,-138.77"/>
</g>
<!-- Node10&#45;&gt;Node4 -->
<g id="edge14" class="edge">
<title>Node10&#45;&gt;Node4</title>
<path fill="none" stroke="#63b8ff" d="M130.85,-164.91C132.86,-151.46 138.58,-125.4 153.85,-110 215.53,-47.82 320.42,-23.69 375.18,-14.98"/>
<polygon fill="#63b8ff" stroke="#63b8ff" points="375.51,-18.47 384.89,-13.53 374.48,-11.55 375.51,-18.47"/>
</g>
<!-- Node10&#45;&gt;Node8 -->
<g id="edge15" class="edge">
<title>Node10&#45;&gt;Node8</title>
<path fill="none" stroke="#63b8ff" d="M133.81,-164.61C140.45,-150.75 155.16,-124.13 175.85,-110 217.11,-81.82 275.08,-71.49 311.8,-67.69"/>
<polygon fill="#63b8ff" stroke="#63b8ff" points="311.78,-71.21 321.42,-66.82 311.15,-64.24 311.78,-71.21"/>
</g>
<!-- Node11&#45;&gt;Node4 -->
<g id="edge18" class="edge">
<title>Node11&#45;&gt;Node4</title>
<path fill="none" stroke="#63b8ff" d="M412.74,-164.74C412.43,-139.53 411.53,-66.36 411.1,-30.62"/>
<polygon fill="#63b8ff" stroke="#63b8ff" points="414.6,-30.78 410.98,-20.82 407.6,-30.86 414.6,-30.78"/>
</g>
<!-- Node11&#45;&gt;Node8 -->
<g id="edge19" class="edge">
<title>Node11&#45;&gt;Node8</title>
<path fill="none" stroke="#63b8ff" d="M407.45,-164.66C396.71,-147.1 372.5,-107.48 358.14,-83.98"/>
<polygon fill="#63b8ff" stroke="#63b8ff" points="361.31,-82.46 353.11,-75.75 355.34,-86.11 361.31,-82.46"/>
</g>
<!-- Node11&#45;&gt;Node9 -->
<g id="edge20" class="edge">
<title>Node11&#45;&gt;Node9</title>
<path fill="none" stroke="#63b8ff" d="M421.6,-164.75C429,-157.35 439.81,-146.54 448.89,-137.45"/>
<polygon fill="#63b8ff" stroke="#63b8ff" points="451.24,-140.06 455.84,-130.51 446.29,-135.11 451.24,-140.06"/>
</g>
</g>
</svg>
