<?xml version="1.0" encoding="UTF-8" standalone="no"?>
<!DOCTYPE svg PUBLIC "-//W3C//DTD SVG 1.1//EN"
 "http://www.w3.org/Graphics/SVG/1.1/DTD/svg11.dtd">
<!-- Generated by graphviz version 7.0.5 (20221223.1930)
 -->
<!-- Title: dfs_depth_first_search Pages: 1 -->
<svg width="581pt" height="125pt"
 viewBox="0.00 0.00 581.00 125.00" xmlns="http://www.w3.org/2000/svg" xmlns:xlink="http://www.w3.org/1999/xlink">
<g id="graph0" class="graph" transform="scale(1 1) rotate(0) translate(4 121)">
<title>dfs_depth_first_search</title>
<!-- Node1 -->
<g id="node1" class="node">
<title>Node1</title>
<g id="a_node1"><a xlink:title="Conducts a depth first search on a maze.">
<polygon fill="#999999" stroke="#666666" points="115,-56 0,-56 0,-37 115,-37 115,-56"/>
<text text-anchor="middle" x="57.5" y="-44" font-family="Helvetica,sans-Serif" font-size="10.00">dfs_depth_first_search</text>
</a>
</g>
</g>
<!-- Node2 -->
<g id="node2" class="node">
<title>Node2</title>
<g id="a_node2"><a xlink:href="dfs_8c.html#ae6f752eff6517a7aeace592951a6a919" target="_top" xlink:title="Checks if all reachable nodes from the navigator&#39;s current position has been visisted.">
<polygon fill="white" stroke="#666666" points="264.5,-104.5 159.5,-104.5 159.5,-74.5 264.5,-74.5 264.5,-104.5"/>
<text text-anchor="start" x="167.5" y="-92.5" font-family="Helvetica,sans-Serif" font-size="10.00">dfs_is_all_reachable</text>
<text text-anchor="middle" x="212" y="-81.5" font-family="Helvetica,sans-Serif" font-size="10.00">_visited</text>
</a>
</g>
</g>
<!-- Node1&#45;&gt;Node2 -->
<g id="edge1" class="edge">
<title>Node1&#45;&gt;Node2</title>
<path fill="none" stroke="#63b8ff" d="M93.87,-56.47C109.98,-61.01 129.54,-66.53 148.02,-71.74"/>
<polygon fill="#63b8ff" stroke="#63b8ff" points="147.02,-75.1 157.59,-74.44 148.92,-68.36 147.02,-75.1"/>
</g>
<!-- Node6 -->
<g id="node6" class="node">
<title>Node6</title>
<g id="a_node6"><a xlink:href="maze_8c.html#ab8154230298572c603d5b32c37f39fb5" target="_top" xlink:title="Get the direction from p_point_a to p_point_b if they are adjacent.">
<polygon fill="white" stroke="#666666" points="268.5,-56 155.5,-56 155.5,-37 268.5,-37 268.5,-56"/>
<text text-anchor="middle" x="212" y="-44" font-family="Helvetica,sans-Serif" font-size="10.00">maze_get_dir_from_to</text>
</a>
</g>
</g>
<!-- Node1&#45;&gt;Node6 -->
<g id="edge5" class="edge">
<title>Node1&#45;&gt;Node6</title>
<path fill="none" stroke="#63b8ff" d="M115.29,-46.5C124.56,-46.5 134.24,-46.5 143.73,-46.5"/>
<polygon fill="#63b8ff" stroke="#63b8ff" points="143.67,-50 153.67,-46.5 143.67,-43 143.67,-50"/>
</g>
<!-- Node7 -->
<g id="node7" class="node">
<title>Node7</title>
<g id="a_node7"><a xlink:href="maze_8c.html#abb1a3c500ab00f0983a378f4b2045c4e" target="_top" xlink:title="Modifies the walls of the navigator&#39;s current node.">
<polygon fill="white" stroke="#666666" points="273,-19 151,-19 151,0 273,0 273,-19"/>
<text text-anchor="middle" x="212" y="-7" font-family="Helvetica,sans-Serif" font-size="10.00">maze_nav_modify_walls</text>
</a>
</g>
</g>
<!-- Node1&#45;&gt;Node7 -->
<g id="edge6" class="edge">
<title>Node1&#45;&gt;Node7</title>
<path fill="none" stroke="#63b8ff" d="M99.37,-36.58C117.66,-32.15 139.44,-26.86 158.88,-22.14"/>
<polygon fill="#63b8ff" stroke="#63b8ff" points="159.66,-25.56 168.55,-19.8 158.01,-18.76 159.66,-25.56"/>
</g>
<!-- Node3 -->
<g id="node3" class="node">
<title>Node3</title>
<g id="a_node3"><a xlink:href="binary__heap_8c.html#af38f858070d3c5f43dcb2b9a38920082" target="_top" xlink:title="Deletes and returns the root node from the binary heap.">
<polygon fill="white" stroke="#666666" points="430,-117 309,-117 309,-98 430,-98 430,-117"/>
<text text-anchor="middle" x="369.5" y="-105" font-family="Helvetica,sans-Serif" font-size="10.00">binary_heap_delete_min</text>
</a>
</g>
</g>
<!-- Node2&#45;&gt;Node3 -->
<g id="edge2" class="edge">
<title>Node2&#45;&gt;Node3</title>
<path fill="none" stroke="#63b8ff" d="M264.78,-95.49C275.21,-96.7 286.34,-97.99 297.29,-99.26"/>
<polygon fill="#63b8ff" stroke="#63b8ff" points="296.77,-102.72 307.1,-100.39 297.57,-95.77 296.77,-102.72"/>
</g>
<!-- Node5 -->
<g id="node5" class="node">
<title>Node5</title>
<g id="a_node5"><a xlink:href="binary__heap_8c.html#ad06768f1a7c61c92aa00fe5a3a33dbc2" target="_top" xlink:title="Peeks at the root node of the binary heap.">
<polygon fill="white" stroke="#666666" points="417,-80 322,-80 322,-61 417,-61 417,-80"/>
<text text-anchor="middle" x="369.5" y="-68" font-family="Helvetica,sans-Serif" font-size="10.00">binary_heap_peek</text>
</a>
</g>
</g>
<!-- Node2&#45;&gt;Node5 -->
<g id="edge4" class="edge">
<title>Node2&#45;&gt;Node5</title>
<path fill="none" stroke="#63b8ff" d="M264.78,-83.17C279.42,-81.38 295.46,-79.43 310.44,-77.59"/>
<polygon fill="#63b8ff" stroke="#63b8ff" points="310.66,-81.09 320.16,-76.41 309.81,-74.15 310.66,-81.09"/>
</g>
<!-- Node4 -->
<g id="node4" class="node">
<title>Node4</title>
<g id="a_node4"><a xlink:href="binary__heap_8c.html#ae7dff85ea558ed732c081ab37b97ba5d" target="_top" xlink:title="Moves the node at the given index up the binary heap to maintain the heap property....">
<polygon fill="white" stroke="#666666" points="573,-117 466,-117 466,-98 573,-98 573,-117"/>
<text text-anchor="middle" x="519.5" y="-105" font-family="Helvetica,sans-Serif" font-size="10.00">binary_heapify_down</text>
</a>
</g>
</g>
<!-- Node3&#45;&gt;Node4 -->
<g id="edge3" class="edge">
<title>Node3&#45;&gt;Node4</title>
<path fill="none" stroke="#63b8ff" d="M430.27,-107.5C438.14,-107.5 446.23,-107.5 454.17,-107.5"/>
<polygon fill="#63b8ff" stroke="#63b8ff" points="454.14,-111 464.14,-107.5 454.14,-104 454.14,-111"/>
</g>
</g>
</svg>
