<?xml version="1.0" encoding="UTF-8" standalone="no"?>
<!DOCTYPE svg PUBLIC "-//W3C//DTD SVG 1.1//EN"
 "http://www.w3.org/Graphics/SVG/1.1/DTD/svg11.dtd">
<!-- Generated by graphviz version 7.0.5 (20221223.1930)
 -->
<!-- Title: src/pathfinding/dfs.h Pages: 1 -->
<svg width="179pt" height="192pt"
 viewBox="0.00 0.00 179.37 192.00" xmlns="http://www.w3.org/2000/svg" xmlns:xlink="http://www.w3.org/1999/xlink">
<g id="graph0" class="graph" transform="scale(1 1) rotate(0) translate(4 188)">
<title>src/pathfinding/dfs.h</title>
<!-- Node1 -->
<g id="node1" class="node">
<title>Node1</title>
<g id="a_node1"><a xlink:title="Header file for the depth first search algorithm for mapping the maze.">
<polygon fill="#999999" stroke="#666666" points="118.87,-184 14.87,-184 14.87,-165 118.87,-165 118.87,-184"/>
<text text-anchor="middle" x="66.87" y="-172" font-family="Helvetica,sans-Serif" font-size="10.00">src/pathfinding/dfs.h</text>
</a>
</g>
</g>
<!-- Node2 -->
<g id="node2" class="node">
<title>Node2</title>
<g id="a_node2"><a xlink:title=" ">
<polygon fill="#e0e0e0" stroke="#999999" points="69.87,-19 21.87,-19 21.87,0 69.87,0 69.87,-19"/>
<text text-anchor="middle" x="45.87" y="-7" font-family="Helvetica,sans-Serif" font-size="10.00">stdint.h</text>
</a>
</g>
</g>
<!-- Node1&#45;&gt;Node2 -->
<g id="edge1" class="edge">
<title>Node1&#45;&gt;Node2</title>
<path fill="none" stroke="#63b8ff" d="M46.07,-164.6C31.9,-157.3 14.25,-145.48 5.87,-129 -11.35,-95.13 13.67,-52.19 31.22,-28.41"/>
<polygon fill="#63b8ff" stroke="#63b8ff" points="33.86,-30.72 37.21,-20.67 28.32,-26.43 33.86,-30.72"/>
</g>
<!-- Node3 -->
<g id="node3" class="node">
<title>Node3</title>
<g id="a_node3"><a xlink:href="maze_8h.html" target="_top" xlink:title="Header file for the maze data structure and public functions.">
<polygon fill="white" stroke="#666666" points="171.37,-74 74.37,-74 74.37,-55 171.37,-55 171.37,-74"/>
<text text-anchor="middle" x="122.87" y="-62" font-family="Helvetica,sans-Serif" font-size="10.00">pathfinding/maze.h</text>
</a>
</g>
</g>
<!-- Node1&#45;&gt;Node3 -->
<g id="edge2" class="edge">
<title>Node1&#45;&gt;Node3</title>
<path fill="none" stroke="#63b8ff" d="M87.67,-164.6C101.84,-157.3 119.5,-145.48 127.87,-129 134.78,-115.41 132.8,-98.05 129.5,-84.92"/>
<polygon fill="#63b8ff" stroke="#63b8ff" points="132.97,-84.3 126.75,-75.73 126.26,-86.31 132.97,-84.3"/>
</g>
<!-- Node5 -->
<g id="node5" class="node">
<title>Node5</title>
<g id="a_node5"><a xlink:href="floodfill_8h.html" target="_top" xlink:title="This file contains the function prototypes for the floodfill algorithm for mapping of the maze.">
<polygon fill="white" stroke="#666666" points="118.37,-129 15.37,-129 15.37,-110 118.37,-110 118.37,-129"/>
<text text-anchor="middle" x="66.87" y="-117" font-family="Helvetica,sans-Serif" font-size="10.00">pathfinding/floodfill.h</text>
</a>
</g>
</g>
<!-- Node1&#45;&gt;Node5 -->
<g id="edge5" class="edge">
<title>Node1&#45;&gt;Node5</title>
<path fill="none" stroke="#63b8ff" d="M66.87,-164.75C66.87,-158.27 66.87,-149.16 66.87,-140.9"/>
<polygon fill="#63b8ff" stroke="#63b8ff" points="70.37,-140.96 66.87,-130.96 63.37,-140.96 70.37,-140.96"/>
</g>
<!-- Node3&#45;&gt;Node2 -->
<g id="edge3" class="edge">
<title>Node3&#45;&gt;Node2</title>
<path fill="none" stroke="#63b8ff" d="M109.81,-54.51C98.35,-46.62 81.44,-34.98 67.89,-25.65"/>
<polygon fill="#63b8ff" stroke="#63b8ff" points="70.21,-23 59.99,-20.22 66.24,-28.77 70.21,-23"/>
</g>
<!-- Node4 -->
<g id="node4" class="node">
<title>Node4</title>
<g id="a_node4"><a xlink:title=" ">
<polygon fill="#e0e0e0" stroke="#999999" points="150.87,-19 94.87,-19 94.87,0 150.87,0 150.87,-19"/>
<text text-anchor="middle" x="122.87" y="-7" font-family="Helvetica,sans-Serif" font-size="10.00">stdbool.h</text>
</a>
</g>
</g>
<!-- Node3&#45;&gt;Node4 -->
<g id="edge4" class="edge">
<title>Node3&#45;&gt;Node4</title>
<path fill="none" stroke="#63b8ff" d="M122.87,-54.75C122.87,-48.27 122.87,-39.16 122.87,-30.9"/>
<polygon fill="#63b8ff" stroke="#63b8ff" points="126.37,-30.96 122.87,-20.96 119.37,-30.96 126.37,-30.96"/>
</g>
<!-- Node5&#45;&gt;Node2 -->
<g id="edge6" class="edge">
<title>Node5&#45;&gt;Node2</title>
<path fill="none" stroke="#63b8ff" d="M65.15,-109.66C61.81,-92.5 54.38,-54.26 49.78,-30.6"/>
<polygon fill="#63b8ff" stroke="#63b8ff" points="53.25,-30.09 47.9,-20.95 46.37,-31.43 53.25,-30.09"/>
</g>
<!-- Node5&#45;&gt;Node3 -->
<g id="edge7" class="edge">
<title>Node5&#45;&gt;Node3</title>
<path fill="none" stroke="#63b8ff" d="M76.37,-109.51C84.3,-102 95.82,-91.1 105.41,-82.03"/>
<polygon fill="#63b8ff" stroke="#63b8ff" points="107.55,-84.81 112.41,-75.4 102.74,-79.73 107.55,-84.81"/>
</g>
</g>
</svg>
