<?xml version="1.0" encoding="UTF-8" standalone="no"?>
<!DOCTYPE svg PUBLIC "-//W3C//DTD SVG 1.1//EN"
 "http://www.w3.org/Graphics/SVG/1.1/DTD/svg11.dtd">
<!-- Generated by graphviz version 7.0.5 (20221223.1930)
 -->
<!-- Title: src/pathfinding/dfs.h Pages: 1 -->
<svg width="487pt" height="82pt"
 viewBox="0.00 0.00 487.00 82.00" xmlns="http://www.w3.org/2000/svg" xmlns:xlink="http://www.w3.org/1999/xlink">
<g id="graph0" class="graph" transform="scale(1 1) rotate(0) translate(4 78)">
<title>src/pathfinding/dfs.h</title>
<!-- Node1 -->
<g id="node1" class="node">
<title>Node1</title>
<g id="a_node1"><a xlink:title="Header file for the depth first search algorithm for mapping the maze.">
<polygon fill="#999999" stroke="#666666" points="289,-74 185,-74 185,-55 289,-55 289,-74"/>
<text text-anchor="middle" x="237" y="-62" font-family="Helvetica,sans-Serif" font-size="10.00">src/pathfinding/dfs.h</text>
</a>
</g>
</g>
<!-- Node2 -->
<g id="node2" class="node">
<title>Node2</title>
<g id="a_node2"><a xlink:href="dfs_8c.html" target="_top" xlink:title="Runs the depth first search algorithm on a maze.">
<polygon fill="white" stroke="#666666" points="104,-19 0,-19 0,0 104,0 104,-19"/>
<text text-anchor="middle" x="52" y="-7" font-family="Helvetica,sans-Serif" font-size="10.00">src/pathfinding/dfs.c</text>
</a>
</g>
</g>
<!-- Node1&#45;&gt;Node2 -->
<g id="edge1" class="edge">
<title>Node1&#45;&gt;Node2</title>
<path fill="none" stroke="#63b8ff" d="M194.64,-51.36C160.69,-41.64 113.83,-28.21 83.23,-19.45"/>
<polygon fill="#63b8ff" stroke="#63b8ff" points="193.59,-54.7 204.16,-54.09 195.51,-47.97 193.59,-54.7"/>
</g>
<!-- Node3 -->
<g id="node3" class="node">
<title>Node3</title>
<g id="a_node3"><a xlink:href="pathfinding_2main_8c.html" target="_top" xlink:title="This file contains the mapping and pathfinding tests to be run on the Pico depending on the input ove...">
<polygon fill="white" stroke="#666666" points="233.5,-19 122.5,-19 122.5,0 233.5,0 233.5,-19"/>
<text text-anchor="middle" x="178" y="-7" font-family="Helvetica,sans-Serif" font-size="10.00">src/pathfinding/main.c</text>
</a>
</g>
</g>
<!-- Node1&#45;&gt;Node3 -->
<g id="edge2" class="edge">
<title>Node1&#45;&gt;Node3</title>
<path fill="none" stroke="#63b8ff" d="M218.73,-47.09C208.54,-37.94 196.26,-26.9 187.86,-19.36"/>
<polygon fill="#63b8ff" stroke="#63b8ff" points="216.09,-49.42 225.87,-53.5 220.77,-44.21 216.09,-49.42"/>
</g>
<!-- Node4 -->
<g id="node4" class="node">
<title>Node4</title>
<g id="a_node4"><a xlink:href="dfs__tests_8c.html" target="_top" xlink:title="This file containst the functions that test the depth first search algorithm with a simulated navigat...">
<polygon fill="white" stroke="#666666" points="340.5,-19 251.5,-19 251.5,0 340.5,0 340.5,-19"/>
<text text-anchor="middle" x="296" y="-7" font-family="Helvetica,sans-Serif" font-size="10.00">tests/dfs_tests.c</text>
</a>
</g>
</g>
<!-- Node1&#45;&gt;Node4 -->
<g id="edge3" class="edge">
<title>Node1&#45;&gt;Node4</title>
<path fill="none" stroke="#63b8ff" d="M255.27,-47.09C265.46,-37.94 277.74,-26.9 286.14,-19.36"/>
<polygon fill="#63b8ff" stroke="#63b8ff" points="253.23,-44.21 248.13,-53.5 257.91,-49.42 253.23,-44.21"/>
</g>
<!-- Node5 -->
<g id="node5" class="node">
<title>Node5</title>
<g id="a_node5"><a xlink:href="navigation__tests_8c.html" target="_top" xlink:title="Tests the combined navigational functions.">
<polygon fill="white" stroke="#666666" points="479,-19 359,-19 359,0 479,0 479,-19"/>
<text text-anchor="middle" x="419" y="-7" font-family="Helvetica,sans-Serif" font-size="10.00">tests/navigation_tests.c</text>
</a>
</g>
</g>
<!-- Node1&#45;&gt;Node5 -->
<g id="edge4" class="edge">
<title>Node1&#45;&gt;Node5</title>
<path fill="none" stroke="#63b8ff" d="M278.67,-51.36C312.07,-41.64 358.17,-28.21 388.28,-19.45"/>
<polygon fill="#63b8ff" stroke="#63b8ff" points="277.95,-47.93 269.33,-54.09 279.91,-54.65 277.95,-47.93"/>
</g>
</g>
</svg>
