<?xml version="1.0" encoding="UTF-8" standalone="no"?>
<!DOCTYPE svg PUBLIC "-//W3C//DTD SVG 1.1//EN"
 "http://www.w3.org/Graphics/SVG/1.1/DTD/svg11.dtd">
<!-- Generated by graphviz version 7.0.5 (20221223.1930)
 -->
<!-- Title: dfs_is_all_reachable_visited Pages: 1 -->
<svg width="413pt" height="64pt"
 viewBox="0.00 0.00 413.00 64.00" xmlns="http://www.w3.org/2000/svg" xmlns:xlink="http://www.w3.org/1999/xlink">
<g id="graph0" class="graph" transform="scale(1 1) rotate(0) translate(4 60)">
<title>dfs_is_all_reachable_visited</title>
<!-- Node1 -->
<g id="node1" class="node">
<title>Node1</title>
<g id="a_node1"><a xlink:title="Checks if all reachable nodes from the navigator&#39;s current position has been visisted.">
<polygon fill="#999999" stroke="#666666" points="105,-42.5 0,-42.5 0,-12.5 105,-12.5 105,-42.5"/>
<text text-anchor="start" x="8" y="-30.5" font-family="Helvetica,sans-Serif" font-size="10.00">dfs_is_all_reachable</text>
<text text-anchor="middle" x="52.5" y="-19.5" font-family="Helvetica,sans-Serif" font-size="10.00">_visited</text>
</a>
</g>
</g>
<!-- Node2 -->
<g id="node2" class="node">
<title>Node2</title>
<g id="a_node2"><a xlink:href="binary__heap_8c.html#af38f858070d3c5f43dcb2b9a38920082" target="_top" xlink:title="Deletes and returns the root node from the binary heap.">
<polygon fill="white" stroke="#666666" points="262,-56 141,-56 141,-37 262,-37 262,-56"/>
<text text-anchor="middle" x="201.5" y="-44" font-family="Helvetica,sans-Serif" font-size="10.00">binary_heap_delete_min</text>
</a>
</g>
</g>
<!-- Node1&#45;&gt;Node2 -->
<g id="edge1" class="edge">
<title>Node1&#45;&gt;Node2</title>
<path fill="none" stroke="#63b8ff" d="M105.33,-34.2C113.08,-35.2 121.19,-36.25 129.26,-37.29"/>
<polygon fill="#63b8ff" stroke="#63b8ff" points="128.73,-40.75 139.1,-38.56 129.63,-33.81 128.73,-40.75"/>
</g>
<!-- Node4 -->
<g id="node4" class="node">
<title>Node4</title>
<g id="a_node4"><a xlink:href="binary__heap_8c.html#ad06768f1a7c61c92aa00fe5a3a33dbc2" target="_top" xlink:title="Peeks at the root node of the binary heap.">
<polygon fill="white" stroke="#666666" points="249,-19 154,-19 154,0 249,0 249,-19"/>
<text text-anchor="middle" x="201.5" y="-7" font-family="Helvetica,sans-Serif" font-size="10.00">binary_heap_peek</text>
</a>
</g>
</g>
<!-- Node1&#45;&gt;Node4 -->
<g id="edge3" class="edge">
<title>Node1&#45;&gt;Node4</title>
<path fill="none" stroke="#63b8ff" d="M105.33,-21.15C117.35,-19.68 130.23,-18.11 142.5,-16.6"/>
<polygon fill="#63b8ff" stroke="#63b8ff" points="142.55,-20.12 152.05,-15.43 141.7,-13.17 142.55,-20.12"/>
</g>
<!-- Node3 -->
<g id="node3" class="node">
<title>Node3</title>
<g id="a_node3"><a xlink:href="binary__heap_8c.html#ae7dff85ea558ed732c081ab37b97ba5d" target="_top" xlink:title="Moves the node at the given index up the binary heap to maintain the heap property....">
<polygon fill="white" stroke="#666666" points="405,-56 298,-56 298,-37 405,-37 405,-56"/>
<text text-anchor="middle" x="351.5" y="-44" font-family="Helvetica,sans-Serif" font-size="10.00">binary_heapify_down</text>
</a>
</g>
</g>
<!-- Node2&#45;&gt;Node3 -->
<g id="edge2" class="edge">
<title>Node2&#45;&gt;Node3</title>
<path fill="none" stroke="#63b8ff" d="M262.27,-46.5C270.14,-46.5 278.23,-46.5 286.17,-46.5"/>
<polygon fill="#63b8ff" stroke="#63b8ff" points="286.14,-50 296.14,-46.5 286.14,-43 286.14,-50"/>
</g>
</g>
</svg>
