<?xml version="1.0" encoding="UTF-8" standalone="no"?>
<!DOCTYPE svg PUBLIC "-//W3C//DTD SVG 1.1//EN"
 "http://www.w3.org/Graphics/SVG/1.1/DTD/svg11.dtd">
<!-- Generated by graphviz version 7.0.5 (20221223.1930)
 -->
<!-- Title: src/pathfinding/dfs.c Pages: 1 -->
<svg width="606pt" height="258pt"
 viewBox="0.00 0.00 605.60 258.00" xmlns="http://www.w3.org/2000/svg" xmlns:xlink="http://www.w3.org/1999/xlink">
<g id="graph0" class="graph" transform="scale(1 1) rotate(0) translate(4 254)">
<title>src/pathfinding/dfs.c</title>
<!-- Node1 -->
<g id="node1" class="node">
<title>Node1</title>
<g id="a_node1"><a xlink:title="Runs the depth first search algorithm on a maze.">
<polygon fill="#999999" stroke="#666666" points="349.75,-250 245.75,-250 245.75,-231 349.75,-231 349.75,-250"/>
<text text-anchor="middle" x="297.75" y="-238" font-family="Helvetica,sans-Serif" font-size="10.00">src/pathfinding/dfs.c</text>
</a>
</g>
</g>
<!-- Node2 -->
<g id="node2" class="node">
<title>Node2</title>
<g id="a_node2"><a xlink:title=" ">
<polygon fill="#e0e0e0" stroke="#999999" points="242.25,-129 197.25,-129 197.25,-110 242.25,-110 242.25,-129"/>
<text text-anchor="middle" x="219.75" y="-117" font-family="Helvetica,sans-Serif" font-size="10.00">stdio.h</text>
</a>
</g>
</g>
<!-- Node1&#45;&gt;Node2 -->
<g id="edge1" class="edge">
<title>Node1&#45;&gt;Node2</title>
<path fill="none" stroke="#63b8ff" d="M276.81,-230.6C262.1,-223.24 243.25,-211.33 232.75,-195 222.21,-178.62 219.52,-156.21 219.12,-140.25"/>
<polygon fill="#63b8ff" stroke="#63b8ff" points="222.62,-140.62 219.18,-130.6 215.62,-140.58 222.62,-140.62"/>
</g>
<!-- Node3 -->
<g id="node3" class="node">
<title>Node3</title>
<g id="a_node3"><a xlink:title=" ">
<polygon fill="#e0e0e0" stroke="#999999" points="74.25,-189.5 23.25,-189.5 23.25,-170.5 74.25,-170.5 74.25,-189.5"/>
<text text-anchor="middle" x="48.75" y="-177.5" font-family="Helvetica,sans-Serif" font-size="10.00">stddef.h</text>
</a>
</g>
</g>
<!-- Node1&#45;&gt;Node3 -->
<g id="edge2" class="edge">
<title>Node1&#45;&gt;Node3</title>
<path fill="none" stroke="#63b8ff" d="M245.66,-231.3C201.92,-223.8 138.07,-211.37 83.75,-195 82.41,-194.6 81.05,-194.16 79.68,-193.71"/>
<polygon fill="#63b8ff" stroke="#63b8ff" points="81.28,-190.56 70.68,-190.42 78.88,-197.14 81.28,-190.56"/>
</g>
<!-- Node4 -->
<g id="node4" class="node">
<title>Node4</title>
<g id="a_node4"><a xlink:title=" ">
<polygon fill="#e0e0e0" stroke="#999999" points="476.75,-19 428.75,-19 428.75,0 476.75,0 476.75,-19"/>
<text text-anchor="middle" x="452.75" y="-7" font-family="Helvetica,sans-Serif" font-size="10.00">stdint.h</text>
</a>
</g>
</g>
<!-- Node1&#45;&gt;Node4 -->
<g id="edge3" class="edge">
<title>Node1&#45;&gt;Node4</title>
<path fill="none" stroke="#63b8ff" d="M350.05,-238.38C399.14,-235.34 473.27,-225.5 529.75,-195 565.7,-175.59 578.4,-166.87 593.75,-129 615.47,-75.39 536.08,-38.37 487.63,-21.27"/>
<polygon fill="#63b8ff" stroke="#63b8ff" points="488.97,-18.02 478.37,-18.12 486.72,-24.65 488.97,-18.02"/>
</g>
<!-- Node5 -->
<g id="node5" class="node">
<title>Node5</title>
<g id="a_node5"><a xlink:title=" ">
<polygon fill="#e0e0e0" stroke="#999999" points="214.75,-19 158.75,-19 158.75,0 214.75,0 214.75,-19"/>
<text text-anchor="middle" x="186.75" y="-7" font-family="Helvetica,sans-Serif" font-size="10.00">stdbool.h</text>
</a>
</g>
</g>
<!-- Node1&#45;&gt;Node5 -->
<g id="edge4" class="edge">
<title>Node1&#45;&gt;Node5</title>
<path fill="none" stroke="#63b8ff" d="M245.55,-239.09C171.85,-237.29 42.99,-229.18 13.75,-195 -42.92,-128.76 92.33,-54.31 155.93,-24.21"/>
<polygon fill="#63b8ff" stroke="#63b8ff" points="157.22,-27.47 164.82,-20.08 154.28,-21.12 157.22,-27.47"/>
</g>
<!-- Node6 -->
<g id="node6" class="node">
<title>Node6</title>
<g id="a_node6"><a xlink:title=" ">
<polygon fill="#e0e0e0" stroke="#999999" points="288.25,-189.5 241.25,-189.5 241.25,-170.5 288.25,-170.5 288.25,-189.5"/>
<text text-anchor="middle" x="264.75" y="-177.5" font-family="Helvetica,sans-Serif" font-size="10.00">stdlib.h</text>
</a>
</g>
</g>
<!-- Node1&#45;&gt;Node6 -->
<g id="edge5" class="edge">
<title>Node1&#45;&gt;Node6</title>
<path fill="none" stroke="#63b8ff" d="M292.88,-230.87C288.25,-222.66 281.13,-210.04 275.21,-199.55"/>
<polygon fill="#63b8ff" stroke="#63b8ff" points="278.34,-197.98 270.38,-190.99 272.25,-201.41 278.34,-197.98"/>
</g>
<!-- Node7 -->
<g id="node7" class="node">
<title>Node7</title>
<g id="a_node7"><a xlink:title=" ">
<polygon fill="#e0e0e0" stroke="#999999" points="354.75,-189.5 306.75,-189.5 306.75,-170.5 354.75,-170.5 354.75,-189.5"/>
<text text-anchor="middle" x="330.75" y="-177.5" font-family="Helvetica,sans-Serif" font-size="10.00">string.h</text>
</a>
</g>
</g>
<!-- Node1&#45;&gt;Node7 -->
<g id="edge6" class="edge">
<title>Node1&#45;&gt;Node7</title>
<path fill="none" stroke="#63b8ff" d="M302.62,-230.87C307.25,-222.66 314.37,-210.04 320.28,-199.55"/>
<polygon fill="#63b8ff" stroke="#63b8ff" points="323.25,-201.41 325.12,-190.99 317.15,-197.98 323.25,-201.41"/>
</g>
<!-- Node8 -->
<g id="node8" class="node">
<title>Node8</title>
<g id="a_node8"><a xlink:href="maze_8h.html" target="_top" xlink:title="Header file for the maze data structure and public functions.">
<polygon fill="white" stroke="#666666" points="424.25,-74 327.25,-74 327.25,-55 424.25,-55 424.25,-74"/>
<text text-anchor="middle" x="375.75" y="-62" font-family="Helvetica,sans-Serif" font-size="10.00">pathfinding/maze.h</text>
</a>
</g>
</g>
<!-- Node1&#45;&gt;Node8 -->
<g id="edge7" class="edge">
<title>Node1&#45;&gt;Node8</title>
<path fill="none" stroke="#63b8ff" d="M320.05,-230.62C335.07,-223.39 353.88,-211.64 363.75,-195 383.93,-160.95 382.1,-112.8 378.94,-85.84"/>
<polygon fill="#63b8ff" stroke="#63b8ff" points="382.41,-85.38 377.58,-75.95 375.47,-86.34 382.41,-85.38"/>
</g>
<!-- Node9 -->
<g id="node9" class="node">
<title>Node9</title>
<g id="a_node9"><a xlink:href="floodfill_8h.html" target="_top" xlink:title="This file contains the function prototypes for the floodfill algorithm for mapping of the maze.">
<polygon fill="white" stroke="#666666" points="584.25,-129 481.25,-129 481.25,-110 584.25,-110 584.25,-129"/>
<text text-anchor="middle" x="532.75" y="-117" font-family="Helvetica,sans-Serif" font-size="10.00">pathfinding/floodfill.h</text>
</a>
</g>
</g>
<!-- Node1&#45;&gt;Node9 -->
<g id="edge10" class="edge">
<title>Node1&#45;&gt;Node9</title>
<path fill="none" stroke="#63b8ff" d="M349.79,-234.38C404.19,-228.03 484.79,-215.46 507.75,-195 523.17,-181.26 529.09,-157.71 531.36,-140.76"/>
<polygon fill="#63b8ff" stroke="#63b8ff" points="534.84,-141.16 532.33,-130.87 527.87,-140.48 534.84,-141.16"/>
</g>
<!-- Node10 -->
<g id="node10" class="node">
<title>Node10</title>
<g id="a_node10"><a xlink:href="binary__heap_8h.html" target="_top" xlink:title="This file contains the declarations for the binary min&#45;heap used in the a* algorithm.">
<polygon fill="white" stroke="#666666" points="184.75,-195 92.75,-195 92.75,-165 184.75,-165 184.75,-195"/>
<text text-anchor="start" x="100.75" y="-183" font-family="Helvetica,sans-Serif" font-size="10.00">pathfinding/binary</text>
<text text-anchor="middle" x="138.75" y="-172" font-family="Helvetica,sans-Serif" font-size="10.00">_heap.h</text>
</a>
</g>
</g>
<!-- Node1&#45;&gt;Node10 -->
<g id="edge13" class="edge">
<title>Node1&#45;&gt;Node10</title>
<path fill="none" stroke="#63b8ff" d="M273.6,-230.62C251.11,-222.34 216.88,-209.75 188.53,-199.32"/>
<polygon fill="#63b8ff" stroke="#63b8ff" points="190.01,-196.13 179.41,-195.96 187.59,-202.7 190.01,-196.13"/>
</g>
<!-- Node11 -->
<g id="node11" class="node">
<title>Node11</title>
<g id="a_node11"><a xlink:href="dfs_8h.html" target="_top" xlink:title="Header file for the depth first search algorithm for mapping the maze.">
<polygon fill="white" stroke="#666666" points="498.25,-189.5 411.25,-189.5 411.25,-170.5 498.25,-170.5 498.25,-189.5"/>
<text text-anchor="middle" x="454.75" y="-177.5" font-family="Helvetica,sans-Serif" font-size="10.00">pathfinding/dfs.h</text>
</a>
</g>
</g>
<!-- Node1&#45;&gt;Node11 -->
<g id="edge17" class="edge">
<title>Node1&#45;&gt;Node11</title>
<path fill="none" stroke="#63b8ff" d="M321.59,-230.62C347.76,-220.87 390.01,-205.12 419.89,-193.99"/>
<polygon fill="#63b8ff" stroke="#63b8ff" points="421.11,-197.27 429.26,-190.5 418.67,-190.71 421.11,-197.27"/>
</g>
<!-- Node8&#45;&gt;Node4 -->
<g id="edge8" class="edge">
<title>Node8&#45;&gt;Node4</title>
<path fill="none" stroke="#63b8ff" d="M388.81,-54.51C400.27,-46.62 417.18,-34.98 430.73,-25.65"/>
<polygon fill="#63b8ff" stroke="#63b8ff" points="432.38,-28.77 438.63,-20.22 428.41,-23 432.38,-28.77"/>
</g>
<!-- Node8&#45;&gt;Node5 -->
<g id="edge9" class="edge">
<title>Node8&#45;&gt;Node5</title>
<path fill="none" stroke="#63b8ff" d="M343.69,-54.51C311.09,-45.37 260.55,-31.2 225.68,-21.42"/>
<polygon fill="#63b8ff" stroke="#63b8ff" points="226.98,-18.15 216.41,-18.82 225.09,-24.89 226.98,-18.15"/>
</g>
<!-- Node9&#45;&gt;Node4 -->
<g id="edge11" class="edge">
<title>Node9&#45;&gt;Node4</title>
<path fill="none" stroke="#63b8ff" d="M526.2,-109.66C513.13,-92.02 483.58,-52.12 466.21,-28.67"/>
<polygon fill="#63b8ff" stroke="#63b8ff" points="469.05,-26.63 460.29,-20.68 463.43,-30.8 469.05,-26.63"/>
</g>
<!-- Node9&#45;&gt;Node8 -->
<g id="edge12" class="edge">
<title>Node9&#45;&gt;Node8</title>
<path fill="none" stroke="#63b8ff" d="M506.12,-109.51C480.55,-100.88 441.7,-87.76 413.06,-78.1"/>
<polygon fill="#63b8ff" stroke="#63b8ff" points="414.28,-74.81 403.68,-74.93 412.04,-81.45 414.28,-74.81"/>
</g>
<!-- Node10&#45;&gt;Node2 -->
<g id="edge16" class="edge">
<title>Node10&#45;&gt;Node2</title>
<path fill="none" stroke="#63b8ff" d="M158.77,-164.54C170.9,-155.78 186.34,-144.63 198.66,-135.73"/>
<polygon fill="#63b8ff" stroke="#63b8ff" points="200.45,-138.75 206.51,-130.06 196.35,-133.08 200.45,-138.75"/>
</g>
<!-- Node10&#45;&gt;Node4 -->
<g id="edge14" class="edge">
<title>Node10&#45;&gt;Node4</title>
<path fill="none" stroke="#63b8ff" d="M140.33,-164.66C142.76,-149.2 148.83,-124.82 163.75,-110 234.51,-39.7 357.17,-19 417.36,-12.95"/>
<polygon fill="#63b8ff" stroke="#63b8ff" points="417.38,-16.47 427.02,-12.07 416.75,-9.49 417.38,-16.47"/>
</g>
<!-- Node10&#45;&gt;Node8 -->
<g id="edge15" class="edge">
<title>Node10&#45;&gt;Node8</title>
<path fill="none" stroke="#63b8ff" d="M145.02,-164.75C152.75,-148.9 167.4,-123.71 187.75,-110 225.6,-84.5 276.32,-73.54 315.55,-68.86"/>
<polygon fill="#63b8ff" stroke="#63b8ff" points="315.73,-72.36 325.3,-67.81 314.98,-65.4 315.73,-72.36"/>
</g>
<!-- Node11&#45;&gt;Node4 -->
<g id="edge18" class="edge">
<title>Node11&#45;&gt;Node4</title>
<path fill="none" stroke="#63b8ff" d="M454.65,-170.41C454.34,-144.62 453.42,-67.32 452.99,-30.47"/>
<polygon fill="#63b8ff" stroke="#63b8ff" points="456.49,-30.74 452.87,-20.79 449.49,-30.83 456.49,-30.74"/>
</g>
<!-- Node11&#45;&gt;Node8 -->
<g id="edge19" class="edge">
<title>Node11&#45;&gt;Node8</title>
<path fill="none" stroke="#63b8ff" d="M448.55,-170.09C435.63,-151.53 405.59,-108.37 388.41,-83.69"/>
<polygon fill="#63b8ff" stroke="#63b8ff" points="391.37,-81.82 382.78,-75.61 385.62,-85.81 391.37,-81.82"/>
</g>
<!-- Node11&#45;&gt;Node9 -->
<g id="edge20" class="edge">
<title>Node11&#45;&gt;Node9</title>
<path fill="none" stroke="#63b8ff" d="M466.59,-170.12C478.51,-161.18 497.13,-147.22 511.58,-136.37"/>
<polygon fill="#63b8ff" stroke="#63b8ff" points="513.68,-139.18 519.58,-130.38 509.48,-133.58 513.68,-139.18"/>
</g>
</g>
</svg>
