<?xml version="1.0" encoding="UTF-8" standalone="no"?>
<!DOCTYPE svg PUBLIC "-//W3C//DTD SVG 1.1//EN"
 "http://www.w3.org/Graphics/SVG/1.1/DTD/svg11.dtd">
<!-- Generated by graphviz version 7.0.5 (20221223.1930)
 -->
<!-- Title: src/pathfinding/dfs.h Pages: 1 -->
<svg width="143pt" height="192pt"
 viewBox="0.00 0.00 143.00 192.00" xmlns="http://www.w3.org/2000/svg" xmlns:xlink="http://www.w3.org/1999/xlink">
<g id="graph0" class="graph" transform="scale(1 1) rotate(0) translate(4 188)">
<title>src/pathfinding/dfs.h</title>
<!-- Node1 -->
<g id="node1" class="node">
<title>Node1</title>
<g id="a_node1"><a xlink:title="Header file for the depth first search algorithm for mapping the maze.">
<polygon fill="#999999" stroke="#666666" points="104,-184 0,-184 0,-165 104,-165 104,-184"/>
<text text-anchor="middle" x="52" y="-172" font-family="Helvetica,sans-Serif" font-size="10.00">src/pathfinding/dfs.h</text>
</a>
</g>
</g>
<!-- Node2 -->
<g id="node2" class="node">
<title>Node2</title>
<g id="a_node2"><a xlink:title=" ">
<polygon fill="#e0e0e0" stroke="#999999" points="61,-19 13,-19 13,0 61,0 61,-19"/>
<text text-anchor="middle" x="37" y="-7" font-family="Helvetica,sans-Serif" font-size="10.00">stdint.h</text>
</a>
</g>
</g>
<!-- Node1&#45;&gt;Node2 -->
<g id="edge1" class="edge">
<title>Node1&#45;&gt;Node2</title>
<path fill="none" stroke="#63b8ff" d="M41.84,-164.81C33.1,-156.6 21.1,-143.43 16,-129 4.08,-95.3 17.47,-53.72 27.67,-29.84"/>
<polygon fill="#63b8ff" stroke="#63b8ff" points="30.84,-31.31 31.8,-20.75 24.47,-28.41 30.84,-31.31"/>
</g>
<!-- Node3 -->
<g id="node3" class="node">
<title>Node3</title>
<g id="a_node3"><a xlink:href="maze_8h.html" target="_top" xlink:title="Header file for the maze data structure and public functions.">
<polygon fill="white" stroke="#666666" points="124.5,-74 77.5,-74 77.5,-55 124.5,-55 124.5,-74"/>
<text text-anchor="middle" x="101" y="-62" font-family="Helvetica,sans-Serif" font-size="10.00">maze.h</text>
</a>
</g>
</g>
<!-- Node1&#45;&gt;Node3 -->
<g id="edge2" class="edge">
<title>Node1&#45;&gt;Node3</title>
<path fill="none" stroke="#63b8ff" d="M60.85,-164.78C68.88,-156.35 80.44,-142.86 87,-129 93.52,-115.22 97.05,-98.32 98.94,-85.41"/>
<polygon fill="#63b8ff" stroke="#63b8ff" points="102.4,-85.96 100.14,-75.61 95.45,-85.11 102.4,-85.96"/>
</g>
<!-- Node5 -->
<g id="node5" class="node">
<title>Node5</title>
<g id="a_node5"><a xlink:href="floodfill_8h.html" target="_top" xlink:title="This file contains the function prototypes for the floodfill algorithm for mapping of the maze.">
<polygon fill="white" stroke="#666666" points="78.5,-129 25.5,-129 25.5,-110 78.5,-110 78.5,-129"/>
<text text-anchor="middle" x="52" y="-117" font-family="Helvetica,sans-Serif" font-size="10.00">floodfill.h</text>
</a>
</g>
</g>
<!-- Node1&#45;&gt;Node5 -->
<g id="edge5" class="edge">
<title>Node1&#45;&gt;Node5</title>
<path fill="none" stroke="#63b8ff" d="M52,-164.75C52,-158.27 52,-149.16 52,-140.9"/>
<polygon fill="#63b8ff" stroke="#63b8ff" points="55.5,-140.96 52,-130.96 48.5,-140.96 55.5,-140.96"/>
</g>
<!-- Node3&#45;&gt;Node2 -->
<g id="edge3" class="edge">
<title>Node3&#45;&gt;Node2</title>
<path fill="none" stroke="#63b8ff" d="M90.14,-54.51C80.89,-46.85 67.38,-35.66 56.29,-26.47"/>
<polygon fill="#63b8ff" stroke="#63b8ff" points="58.8,-24.01 48.86,-20.32 54.33,-29.4 58.8,-24.01"/>
</g>
<!-- Node4 -->
<g id="node4" class="node">
<title>Node4</title>
<g id="a_node4"><a xlink:title=" ">
<polygon fill="#e0e0e0" stroke="#999999" points="135,-19 79,-19 79,0 135,0 135,-19"/>
<text text-anchor="middle" x="107" y="-7" font-family="Helvetica,sans-Serif" font-size="10.00">stdbool.h</text>
</a>
</g>
</g>
<!-- Node3&#45;&gt;Node4 -->
<g id="edge4" class="edge">
<title>Node3&#45;&gt;Node4</title>
<path fill="none" stroke="#63b8ff" d="M101.99,-54.75C102.73,-48.19 103.78,-38.95 104.72,-30.6"/>
<polygon fill="#63b8ff" stroke="#63b8ff" points="108.17,-31.28 105.82,-20.95 101.21,-30.49 108.17,-31.28"/>
</g>
<!-- Node5&#45;&gt;Node2 -->
<g id="edge6" class="edge">
<title>Node5&#45;&gt;Node2</title>
<path fill="none" stroke="#63b8ff" d="M50.77,-109.66C48.39,-92.5 43.08,-54.26 39.79,-30.6"/>
<polygon fill="#63b8ff" stroke="#63b8ff" points="43.3,-30.38 38.45,-20.96 36.36,-31.35 43.3,-30.38"/>
</g>
<!-- Node5&#45;&gt;Node3 -->
<g id="edge7" class="edge">
<title>Node5&#45;&gt;Node3</title>
<path fill="none" stroke="#63b8ff" d="M60.09,-109.75C66.86,-102.43 76.72,-91.76 85.06,-82.74"/>
<polygon fill="#63b8ff" stroke="#63b8ff" points="87.49,-85.27 91.71,-75.55 82.35,-80.52 87.49,-85.27"/>
</g>
</g>
</svg>
