<?xml version="1.0" encoding="UTF-8" standalone="no"?>
<!DOCTYPE svg PUBLIC "-//W3C//DTD SVG 1.1//EN"
 "http://www.w3.org/Graphics/SVG/1.1/DTD/svg11.dtd">
<!-- Generated by graphviz version 7.0.5 (20221223.1930)
 -->
<!-- Title: main/pathfinding/dfs.h Pages: 1 -->
<svg width="147pt" height="192pt"
 viewBox="0.00 0.00 146.50 192.00" xmlns="http://www.w3.org/2000/svg" xmlns:xlink="http://www.w3.org/1999/xlink">
<g id="graph0" class="graph" transform="scale(1 1) rotate(0) translate(4 188)">
<title>main/pathfinding/dfs.h</title>
<!-- Node1 -->
<g id="node1" class="node">
<title>Node1</title>
<g id="a_node1"><a xlink:title="Header file for the depth first search algorithm for mapping the maze.">
<polygon fill="#999999" stroke="#666666" points="111,-184 0,-184 0,-165 111,-165 111,-184"/>
<text text-anchor="middle" x="55.5" y="-172" font-family="Helvetica,sans-Serif" font-size="10.00">main/pathfinding/dfs.h</text>
</a>
</g>
</g>
<!-- Node2 -->
<g id="node2" class="node">
<title>Node2</title>
<g id="a_node2"><a xlink:title=" ">
<polygon fill="#e0e0e0" stroke="#999999" points="64.5,-19 16.5,-19 16.5,0 64.5,0 64.5,-19"/>
<text text-anchor="middle" x="40.5" y="-7" font-family="Helvetica,sans-Serif" font-size="10.00">stdint.h</text>
</a>
</g>
</g>
<!-- Node1&#45;&gt;Node2 -->
<g id="edge1" class="edge">
<title>Node1&#45;&gt;Node2</title>
<path fill="none" stroke="#63b8ff" d="M45.34,-164.81C36.6,-156.6 24.6,-143.43 19.5,-129 7.58,-95.3 20.97,-53.72 31.17,-29.84"/>
<polygon fill="#63b8ff" stroke="#63b8ff" points="34.34,-31.31 35.3,-20.75 27.97,-28.41 34.34,-31.31"/>
</g>
<!-- Node3 -->
<g id="node3" class="node">
<title>Node3</title>
<g id="a_node3"><a xlink:href="maze_8h.html" target="_top" xlink:title="Header file for the maze data structure and public functions.">
<polygon fill="white" stroke="#666666" points="128,-74 81,-74 81,-55 128,-55 128,-74"/>
<text text-anchor="middle" x="104.5" y="-62" font-family="Helvetica,sans-Serif" font-size="10.00">maze.h</text>
</a>
</g>
</g>
<!-- Node1&#45;&gt;Node3 -->
<g id="edge2" class="edge">
<title>Node1&#45;&gt;Node3</title>
<path fill="none" stroke="#63b8ff" d="M64.35,-164.78C72.38,-156.35 83.94,-142.86 90.5,-129 97.02,-115.22 100.55,-98.32 102.44,-85.41"/>
<polygon fill="#63b8ff" stroke="#63b8ff" points="105.9,-85.96 103.64,-75.61 98.95,-85.11 105.9,-85.96"/>
</g>
<!-- Node5 -->
<g id="node5" class="node">
<title>Node5</title>
<g id="a_node5"><a xlink:href="floodfill_8h.html" target="_top" xlink:title="This file contains the function prototypes for the floodfill algorithm for mapping of the maze.">
<polygon fill="white" stroke="#666666" points="82,-129 29,-129 29,-110 82,-110 82,-129"/>
<text text-anchor="middle" x="55.5" y="-117" font-family="Helvetica,sans-Serif" font-size="10.00">floodfill.h</text>
</a>
</g>
</g>
<!-- Node1&#45;&gt;Node5 -->
<g id="edge5" class="edge">
<title>Node1&#45;&gt;Node5</title>
<path fill="none" stroke="#63b8ff" d="M55.5,-164.75C55.5,-158.27 55.5,-149.16 55.5,-140.9"/>
<polygon fill="#63b8ff" stroke="#63b8ff" points="59,-140.96 55.5,-130.96 52,-140.96 59,-140.96"/>
</g>
<!-- Node3&#45;&gt;Node2 -->
<g id="edge3" class="edge">
<title>Node3&#45;&gt;Node2</title>
<path fill="none" stroke="#63b8ff" d="M93.64,-54.51C84.39,-46.85 70.88,-35.66 59.79,-26.47"/>
<polygon fill="#63b8ff" stroke="#63b8ff" points="62.3,-24.01 52.36,-20.32 57.83,-29.4 62.3,-24.01"/>
</g>
<!-- Node4 -->
<g id="node4" class="node">
<title>Node4</title>
<g id="a_node4"><a xlink:title=" ">
<polygon fill="#e0e0e0" stroke="#999999" points="138.5,-19 82.5,-19 82.5,0 138.5,0 138.5,-19"/>
<text text-anchor="middle" x="110.5" y="-7" font-family="Helvetica,sans-Serif" font-size="10.00">stdbool.h</text>
</a>
</g>
</g>
<!-- Node3&#45;&gt;Node4 -->
<g id="edge4" class="edge">
<title>Node3&#45;&gt;Node4</title>
<path fill="none" stroke="#63b8ff" d="M105.49,-54.75C106.23,-48.19 107.28,-38.95 108.22,-30.6"/>
<polygon fill="#63b8ff" stroke="#63b8ff" points="111.67,-31.28 109.32,-20.95 104.71,-30.49 111.67,-31.28"/>
</g>
<!-- Node5&#45;&gt;Node2 -->
<g id="edge6" class="edge">
<title>Node5&#45;&gt;Node2</title>
<path fill="none" stroke="#63b8ff" d="M54.27,-109.66C51.89,-92.5 46.58,-54.26 43.29,-30.6"/>
<polygon fill="#63b8ff" stroke="#63b8ff" points="46.8,-30.38 41.95,-20.96 39.86,-31.35 46.8,-30.38"/>
</g>
<!-- Node5&#45;&gt;Node3 -->
<g id="edge7" class="edge">
<title>Node5&#45;&gt;Node3</title>
<path fill="none" stroke="#63b8ff" d="M63.59,-109.75C70.36,-102.43 80.22,-91.76 88.56,-82.74"/>
<polygon fill="#63b8ff" stroke="#63b8ff" points="90.99,-85.27 95.21,-75.55 85.85,-80.52 90.99,-85.27"/>
</g>
</g>
</svg>
