<?xml version="1.0" encoding="UTF-8" standalone="no"?>
<!DOCTYPE svg PUBLIC "-//W3C//DTD SVG 1.1//EN"
 "http://www.w3.org/Graphics/SVG/1.1/DTD/svg11.dtd">
<!-- Generated by graphviz version 7.0.5 (20221223.1930)
 -->
<!-- Title: main/pathfinding/dfs.h Pages: 1 -->
<svg width="365pt" height="82pt"
 viewBox="0.00 0.00 364.50 82.00" xmlns="http://www.w3.org/2000/svg" xmlns:xlink="http://www.w3.org/1999/xlink">
<g id="graph0" class="graph" transform="scale(1 1) rotate(0) translate(4 78)">
<title>main/pathfinding/dfs.h</title>
<!-- Node1 -->
<g id="node1" class="node">
<title>Node1</title>
<g id="a_node1"><a xlink:title="Header file for the depth first search algorithm for mapping the maze.">
<polygon fill="#999999" stroke="#666666" points="229,-74 118,-74 118,-55 229,-55 229,-74"/>
<text text-anchor="middle" x="173.5" y="-62" font-family="Helvetica,sans-Serif" font-size="10.00">main/pathfinding/dfs.h</text>
</a>
</g>
</g>
<!-- Node2 -->
<g id="node2" class="node">
<title>Node2</title>
<g id="a_node2"><a xlink:href="dfs_8c.html" target="_top" xlink:title="Runs the depth first search algorithm on a maze.">
<polygon fill="white" stroke="#666666" points="111,-19 0,-19 0,0 111,0 111,-19"/>
<text text-anchor="middle" x="55.5" y="-7" font-family="Helvetica,sans-Serif" font-size="10.00">main/pathfinding/dfs.c</text>
</a>
</g>
</g>
<!-- Node1&#45;&gt;Node2 -->
<g id="edge1" class="edge">
<title>Node1&#45;&gt;Node2</title>
<path fill="none" stroke="#63b8ff" d="M142.99,-49.8C121.63,-40.2 93.71,-27.66 75.22,-19.36"/>
<polygon fill="#63b8ff" stroke="#63b8ff" points="141.55,-52.98 152.1,-53.89 144.41,-46.6 141.55,-52.98"/>
</g>
<!-- Node3 -->
<g id="node3" class="node">
<title>Node3</title>
<g id="a_node3"><a xlink:href="dfs__tests_8c.html" target="_top" xlink:title="This file containst the functions that test the depth first search algorithm with a simulated navigat...">
<polygon fill="white" stroke="#666666" points="218,-19 129,-19 129,0 218,0 218,-19"/>
<text text-anchor="middle" x="173.5" y="-7" font-family="Helvetica,sans-Serif" font-size="10.00">tests/dfs_tests.c</text>
</a>
</g>
</g>
<!-- Node1&#45;&gt;Node3 -->
<g id="edge2" class="edge">
<title>Node1&#45;&gt;Node3</title>
<path fill="none" stroke="#63b8ff" d="M173.5,-43.35C173.5,-35.1 173.5,-25.97 173.5,-19.44"/>
<polygon fill="#63b8ff" stroke="#63b8ff" points="170,-43.23 173.5,-53.23 177,-43.23 170,-43.23"/>
</g>
<!-- Node4 -->
<g id="node4" class="node">
<title>Node4</title>
<g id="a_node4"><a xlink:href="navigation__tests_8c.html" target="_top" xlink:title="Tests the combined navigational functions.">
<polygon fill="white" stroke="#666666" points="356.5,-19 236.5,-19 236.5,0 356.5,0 356.5,-19"/>
<text text-anchor="middle" x="296.5" y="-7" font-family="Helvetica,sans-Serif" font-size="10.00">tests/navigation_tests.c</text>
</a>
</g>
</g>
<!-- Node1&#45;&gt;Node4 -->
<g id="edge3" class="edge">
<title>Node1&#45;&gt;Node4</title>
<path fill="none" stroke="#63b8ff" d="M204.69,-50.06C227.03,-40.43 256.49,-27.74 275.94,-19.36"/>
<polygon fill="#63b8ff" stroke="#63b8ff" points="203.55,-46.74 195.76,-53.91 206.32,-53.17 203.55,-46.74"/>
</g>
</g>
</svg>
