<?xml version="1.0" encoding="UTF-8" standalone="no"?>
<!DOCTYPE svg PUBLIC "-//W3C//DTD SVG 1.1//EN"
 "http://www.w3.org/Graphics/SVG/1.1/DTD/svg11.dtd">
<!-- Generated by graphviz version 7.0.5 (20221223.1930)
 -->
<!-- Title: src Pages: 1 -->
<svg width="504pt" height="177pt"
 viewBox="0.00 0.00 504.00 177.00" xmlns="http://www.w3.org/2000/svg" xmlns:xlink="http://www.w3.org/1999/xlink">
<g id="graph0" class="graph" transform="scale(1 1) rotate(0) translate(4 173)">
<title>src</title>
<g id="clust1" class="cluster">
<title>clusterdir_68267d1309a1af8e8297ef4c3efbcdba</title>
<g id="a_clust1"><a xlink:href="dir_68267d1309a1af8e8297ef4c3efbcdba.html" target="_top">
<polygon fill="#edf0f7" stroke="#404040" stroke-width="2" points="8,-8 8,-161 488,-161 488,-8 8,-8"/>
</a>
</g>
</g>
<g id="clust2" class="cluster">
<title>clusterdir_c718a368270b13c54d94892d20736f45</title>
<g id="a_clust2"><a xlink:href="dir_c718a368270b13c54d94892d20736f45.html" target="_top">
<polygon fill="#dae1ef" stroke="#404040" points="48,-16 48,-106 408,-106 408,-16 48,-16"/>
</a>
</g>
</g>
<!-- dir_68267d1309a1af8e8297ef4c3efbcdba -->
<g id="node1" class="node">
<title>dir_68267d1309a1af8e8297ef4c3efbcdba</title>
<text text-anchor="middle" x="166" y="-141" font-family="Helvetica,sans-Serif" font-size="10.00">src</text>
</g>
<!-- dir_78578c99c6b98fc3d3d35a2149ec7b38 -->
<g id="node3" class="node">
<title>dir_78578c99c6b98fc3d3d35a2149ec7b38</title>
<g id="a_node3"><a xlink:href="dir_78578c99c6b98fc3d3d35a2149ec7b38.html" target="_top" xlink:title="encoder">
<polygon fill="#c8d2e7" stroke="#404040" points="335.5,-98 284.5,-98 284.5,-79 335.5,-79 335.5,-98"/>
<text text-anchor="middle" x="310" y="-86" font-family="Helvetica,sans-Serif" font-size="10.00">encoder</text>
</a>
</g>
</g>
<!-- dir_68267d1309a1af8e8297ef4c3efbcdba&#45;&gt;dir_78578c99c6b98fc3d3d35a2149ec7b38 -->
<g id="edge3" class="edge">
<title>dir_68267d1309a1af8e8297ef4c3efbcdba&#45;&gt;dir_78578c99c6b98fc3d3d35a2149ec7b38</title>
<path fill="none" stroke="#63b8ff" d="M180.81,-138.26C202.15,-132 242.63,-119.56 276,-106 278.18,-105.11 280.43,-104.15 282.66,-103.15"/>
<polygon fill="#63b8ff" stroke="#63b8ff" points="283.97,-106.4 291.53,-98.98 280.99,-100.07 283.97,-106.4"/>
<g id="a_edge3&#45;headlabel"><a xlink:href="dir_000007_000001.html" target="_top" xlink:title="1">
<text text-anchor="middle" x="283.29" y="-107.36" font-family="Helvetica,sans-Serif" font-size="10.00" fill="#63b8ff">1</text>
</a>
</g>
</g>
<!-- dir_591b9604ac4fc9d6ee85aaf4f5ba98fc -->
<g id="node4" class="node">
<title>dir_591b9604ac4fc9d6ee85aaf4f5ba98fc</title>
<g id="a_node4"><a xlink:href="dir_591b9604ac4fc9d6ee85aaf4f5ba98fc.html" target="_top" xlink:title="irline">
<polygon fill="#c8d2e7" stroke="#404040" points="266.5,-98 229.5,-98 229.5,-79 266.5,-79 266.5,-98"/>
<text text-anchor="middle" x="248" y="-86" font-family="Helvetica,sans-Serif" font-size="10.00">irline</text>
</a>
</g>
</g>
<!-- dir_68267d1309a1af8e8297ef4c3efbcdba&#45;&gt;dir_591b9604ac4fc9d6ee85aaf4f5ba98fc -->
<g id="edge2" class="edge">
<title>dir_68267d1309a1af8e8297ef4c3efbcdba&#45;&gt;dir_591b9604ac4fc9d6ee85aaf4f5ba98fc</title>
<path fill="none" stroke="#63b8ff" d="M178.81,-134.22C191.04,-126.32 209.74,-114.23 224.62,-104.61"/>
<polygon fill="#63b8ff" stroke="#63b8ff" points="226.41,-107.62 232.91,-99.25 222.61,-101.74 226.41,-107.62"/>
<g id="a_edge2&#45;headlabel"><a xlink:href="dir_000007_000002.html" target="_top" xlink:title="1">
<text text-anchor="middle" x="226.21" y="-108.63" font-family="Helvetica,sans-Serif" font-size="10.00" fill="#63b8ff">1</text>
</a>
</g>
</g>
<!-- dir_78fb06367a77b56392ef59288083778d -->
<g id="node5" class="node">
<title>dir_78fb06367a77b56392ef59288083778d</title>
<g id="a_node5"><a xlink:href="dir_78fb06367a77b56392ef59288083778d.html" target="_top" xlink:title="magnetometer">
<polygon fill="#c8d2e7" stroke="#404040" points="146.5,-43 67.5,-43 67.5,-24 146.5,-24 146.5,-43"/>
<text text-anchor="middle" x="107" y="-31" font-family="Helvetica,sans-Serif" font-size="10.00">magnetometer</text>
</a>
</g>
</g>
<!-- dir_68267d1309a1af8e8297ef4c3efbcdba&#45;&gt;dir_78fb06367a77b56392ef59288083778d -->
<g id="edge4" class="edge">
<title>dir_68267d1309a1af8e8297ef4c3efbcdba&#45;&gt;dir_78fb06367a77b56392ef59288083778d</title>
<path fill="none" stroke="#63b8ff" d="M151.39,-140.54C120.81,-136.11 51.78,-124.26 38,-106 30.77,-96.42 32.26,-89.54 38,-79 45.32,-65.57 58.63,-55.58 71.62,-48.5"/>
<polygon fill="#63b8ff" stroke="#63b8ff" points="73.08,-51.69 80.49,-44.12 69.97,-45.41 73.08,-51.69"/>
<g id="a_edge4&#45;headlabel"><a xlink:href="dir_000007_000003.html" target="_top" xlink:title="2">
<text text-anchor="middle" x="72.47" y="-52.65" font-family="Helvetica,sans-Serif" font-size="10.00" fill="#63b8ff">2</text>
</a>
</g>
</g>
<!-- dir_d3d889355876f518ec02342b91e5b8ba -->
<g id="node6" class="node">
<title>dir_d3d889355876f518ec02342b91e5b8ba</title>
<g id="a_node6"><a xlink:href="dir_d3d889355876f518ec02342b91e5b8ba.html" target="_top" xlink:title="motor">
<polygon fill="#c8d2e7" stroke="#404040" points="211.5,-43 170.5,-43 170.5,-24 211.5,-24 211.5,-43"/>
<text text-anchor="middle" x="191" y="-31" font-family="Helvetica,sans-Serif" font-size="10.00">motor</text>
</a>
</g>
</g>
<!-- dir_68267d1309a1af8e8297ef4c3efbcdba&#45;&gt;dir_d3d889355876f518ec02342b91e5b8ba -->
<g id="edge8" class="edge">
<title>dir_68267d1309a1af8e8297ef4c3efbcdba&#45;&gt;dir_d3d889355876f518ec02342b91e5b8ba</title>
<path fill="none" stroke="#63b8ff" d="M151.34,-143.01C125.47,-143.01 72.18,-138.79 48,-106 40.88,-96.34 40.89,-88.66 48,-79 54.73,-69.85 118.91,-52.46 158.96,-42.34"/>
<polygon fill="#63b8ff" stroke="#63b8ff" points="159.72,-45.76 168.58,-39.94 158.02,-38.97 159.72,-45.76"/>
<g id="a_edge8&#45;headlabel"><a xlink:href="dir_000007_000004.html" target="_top" xlink:title="3">
<text text-anchor="middle" x="158.39" y="-46.52" font-family="Helvetica,sans-Serif" font-size="10.00" fill="#63b8ff">3</text>
</a>
</g>
</g>
<!-- dir_a76f126e87b6517eab5e4fd56feaa5b1 -->
<g id="node7" class="node">
<title>dir_a76f126e87b6517eab5e4fd56feaa5b1</title>
<g id="a_node7"><a xlink:href="dir_a76f126e87b6517eab5e4fd56feaa5b1.html" target="_top" xlink:title="pid">
<polygon fill="#c8d2e7" stroke="#404040" points="211.5,-98 182.5,-98 182.5,-79 211.5,-79 211.5,-98"/>
<text text-anchor="middle" x="197" y="-86" font-family="Helvetica,sans-Serif" font-size="10.00">pid</text>
</a>
</g>
</g>
<!-- dir_68267d1309a1af8e8297ef4c3efbcdba&#45;&gt;dir_a76f126e87b6517eab5e4fd56feaa5b1 -->
<g id="edge5" class="edge">
<title>dir_68267d1309a1af8e8297ef4c3efbcdba&#45;&gt;dir_a76f126e87b6517eab5e4fd56feaa5b1</title>
<path fill="none" stroke="#63b8ff" d="M170.84,-134.22C174.91,-127.26 180.88,-117.06 186.08,-108.16"/>
<polygon fill="#63b8ff" stroke="#63b8ff" points="189.09,-109.96 191.12,-99.56 183.05,-106.42 189.09,-109.96"/>
<g id="a_edge5&#45;headlabel"><a xlink:href="dir_000007_000006.html" target="_top" xlink:title="1">
<text text-anchor="middle" x="190.49" y="-110.69" font-family="Helvetica,sans-Serif" font-size="10.00" fill="#63b8ff">1</text>
</a>
</g>
</g>
<!-- dir_b926040cdc2be5854ef94a4999e3e3df -->
<g id="node8" class="node">
<title>dir_b926040cdc2be5854ef94a4999e3e3df</title>
<g id="a_node8"><a xlink:href="dir_b926040cdc2be5854ef94a4999e3e3df.html" target="_top" xlink:title="ultrasonic">
<polygon fill="#c8d2e7" stroke="#404040" points="164.5,-98 105.5,-98 105.5,-79 164.5,-79 164.5,-98"/>
<text text-anchor="middle" x="135" y="-86" font-family="Helvetica,sans-Serif" font-size="10.00">ultrasonic</text>
</a>
</g>
</g>
<!-- dir_68267d1309a1af8e8297ef4c3efbcdba&#45;&gt;dir_b926040cdc2be5854ef94a4999e3e3df -->
<g id="edge6" class="edge">
<title>dir_68267d1309a1af8e8297ef4c3efbcdba&#45;&gt;dir_b926040cdc2be5854ef94a4999e3e3df</title>
<path fill="none" stroke="#63b8ff" d="M161.16,-134.22C157.09,-127.26 151.12,-117.06 145.92,-108.16"/>
<polygon fill="#63b8ff" stroke="#63b8ff" points="148.95,-106.42 140.88,-99.56 142.91,-109.96 148.95,-106.42"/>
<g id="a_edge6&#45;headlabel"><a xlink:href="dir_000007_000009.html" target="_top" xlink:title="1">
<text text-anchor="middle" x="152.45" y="-104.29" font-family="Helvetica,sans-Serif" font-size="10.00" fill="#63b8ff">1</text>
</a>
</g>
</g>
<!-- dir_b968a5929f24c2cacb707801bd13427a -->
<g id="node9" class="node">
<title>dir_b968a5929f24c2cacb707801bd13427a</title>
<g id="a_node9"><a xlink:href="dir_b968a5929f24c2cacb707801bd13427a.html" target="_top" xlink:title="wifi">
<polygon fill="#c8d2e7" stroke="#404040" points="87.5,-98 56.5,-98 56.5,-79 87.5,-79 87.5,-98"/>
<text text-anchor="middle" x="72" y="-86" font-family="Helvetica,sans-Serif" font-size="10.00">wifi</text>
</a>
</g>
</g>
<!-- dir_68267d1309a1af8e8297ef4c3efbcdba&#45;&gt;dir_b968a5929f24c2cacb707801bd13427a -->
<g id="edge7" class="edge">
<title>dir_68267d1309a1af8e8297ef4c3efbcdba&#45;&gt;dir_b968a5929f24c2cacb707801bd13427a</title>
<path fill="none" stroke="#63b8ff" d="M151.24,-135.21C137.11,-128.12 115.3,-116.85 97,-106 96.26,-105.56 95.51,-105.11 94.76,-104.65"/>
<polygon fill="#63b8ff" stroke="#63b8ff" points="96.67,-101.72 86.36,-99.29 92.91,-107.62 96.67,-101.72"/>
<g id="a_edge7&#45;headlabel"><a xlink:href="dir_000007_000010.html" target="_top" xlink:title="1">
<text text-anchor="middle" x="99.95" y="-97.95" font-family="Helvetica,sans-Serif" font-size="10.00" fill="#63b8ff">1</text>
</a>
</g>
</g>
<!-- dir_2f725af7c14dd78fea61c67fc030d56d -->
<g id="node10" class="node">
<title>dir_2f725af7c14dd78fea61c67fc030d56d</title>
<g id="a_node10"><a xlink:href="dir_2f725af7c14dd78fea61c67fc030d56d.html" target="_top" xlink:title="pathfinding">
<polygon fill="#dae1ef" stroke="#404040" points="479.5,-43 416.5,-43 416.5,-24 479.5,-24 479.5,-43"/>
<text text-anchor="middle" x="448" y="-31" font-family="Helvetica,sans-Serif" font-size="10.00">pathfinding</text>
</a>
</g>
</g>
<!-- dir_68267d1309a1af8e8297ef4c3efbcdba&#45;&gt;dir_2f725af7c14dd78fea61c67fc030d56d -->
<g id="edge1" class="edge">
<title>dir_68267d1309a1af8e8297ef4c3efbcdba&#45;&gt;dir_2f725af7c14dd78fea61c67fc030d56d</title>
<path fill="none" stroke="#63b8ff" d="M180.67,-142.06C227.81,-140.39 374.56,-133.06 412,-106 429.22,-93.55 438.71,-70.47 443.57,-53.9"/>
<polygon fill="#63b8ff" stroke="#63b8ff" points="446.83,-55.25 445.94,-44.69 440.05,-53.49 446.83,-55.25"/>
<g id="a_edge1&#45;headlabel"><a xlink:href="dir_000007_000005.html" target="_top" xlink:title="3">
<text text-anchor="middle" x="449.06" y="-55.47" font-family="Helvetica,sans-Serif" font-size="10.00" fill="#63b8ff">3</text>
</a>
</g>
</g>
<!-- dir_c718a368270b13c54d94892d20736f45 -->
<g id="node2" class="node">
<title>dir_c718a368270b13c54d94892d20736f45</title>
<text text-anchor="middle" x="377" y="-86" font-family="Helvetica,sans-Serif" font-size="10.00">drivers</text>
</g>
<!-- dir_a76f126e87b6517eab5e4fd56feaa5b1&#45;&gt;dir_78fb06367a77b56392ef59288083778d -->
<g id="edge10" class="edge">
<title>dir_a76f126e87b6517eab5e4fd56feaa5b1&#45;&gt;dir_78fb06367a77b56392ef59288083778d</title>
<path fill="none" stroke="#63b8ff" d="M182.14,-78.75C168.54,-70.74 148.15,-58.73 132.04,-49.25"/>
<polygon fill="#63b8ff" stroke="#63b8ff" points="133.88,-46.27 123.49,-44.21 130.33,-52.3 133.88,-46.27"/>
<g id="a_edge10&#45;headlabel"><a xlink:href="dir_000006_000003.html" target="_top" xlink:title="1">
<text text-anchor="middle" x="137.12" y="-42.38" font-family="Helvetica,sans-Serif" font-size="10.00" fill="#63b8ff">1</text>
</a>
</g>
</g>
<!-- dir_a76f126e87b6517eab5e4fd56feaa5b1&#45;&gt;dir_d3d889355876f518ec02342b91e5b8ba -->
<g id="edge11" class="edge">
<title>dir_a76f126e87b6517eab5e4fd56feaa5b1&#45;&gt;dir_d3d889355876f518ec02342b91e5b8ba</title>
<path fill="none" stroke="#63b8ff" d="M196.01,-78.75C195.27,-72.19 194.22,-62.95 193.28,-54.6"/>
<polygon fill="#63b8ff" stroke="#63b8ff" points="196.79,-54.49 192.18,-44.95 189.83,-55.28 196.79,-54.49"/>
<g id="a_edge11&#45;headlabel"><a xlink:href="dir_000006_000004.html" target="_top" xlink:title="2">
<text text-anchor="middle" x="199.84" y="-53.74" font-family="Helvetica,sans-Serif" font-size="10.00" fill="#63b8ff">2</text>
</a>
</g>
</g>
<!-- dir_a76f126e87b6517eab5e4fd56feaa5b1&#45;&gt;dir_2f725af7c14dd78fea61c67fc030d56d -->
<g id="edge9" class="edge">
<title>dir_a76f126e87b6517eab5e4fd56feaa5b1&#45;&gt;dir_2f725af7c14dd78fea61c67fc030d56d</title>
<path fill="none" stroke="#63b8ff" d="M211.87,-81.83C214.86,-80.81 218.01,-79.81 221,-79 300.82,-57.48 325.4,-60.6 405.13,-44.39"/>
<polygon fill="#63b8ff" stroke="#63b8ff" points="405.66,-47.86 414.73,-42.4 404.23,-41 405.66,-47.86"/>
<g id="a_edge9&#45;headlabel"><a xlink:href="dir_000006_000005.html" target="_top" xlink:title="2">
<text text-anchor="middle" x="404.2" y="-48.56" font-family="Helvetica,sans-Serif" font-size="10.00" fill="#63b8ff">2</text>
</a>
</g>
</g>
</g>
</svg>
