<?xml version="1.0" encoding="UTF-8" standalone="no"?>
<!DOCTYPE svg PUBLIC "-//W3C//DTD SVG 1.1//EN"
 "http://www.w3.org/Graphics/SVG/1.1/DTD/svg11.dtd">
<!-- Generated by graphviz version 7.0.5 (20221223.1930)
 -->
<!-- Title: src/drivers Pages: 1 -->
<svg width="472pt" height="149pt"
 viewBox="0.00 0.00 472.00 149.00" xmlns="http://www.w3.org/2000/svg" xmlns:xlink="http://www.w3.org/1999/xlink">
<g id="graph0" class="graph" transform="scale(1 1) rotate(0) translate(4 145)">
<title>src/drivers</title>
<g id="clust1" class="cluster">
<title>clusterdir_68267d1309a1af8e8297ef4c3efbcdba</title>
<g id="a_clust1"><a xlink:href="dir_68267d1309a1af8e8297ef4c3efbcdba.html" target="_top" xlink:title="src">
<polygon fill="#edf0f7" stroke="#404040" stroke-dasharray="5,2" points="8,-8 8,-133 456,-133 456,-8 8,-8"/>
<text text-anchor="middle" x="232" y="-121" font-family="Helvetica,sans-Serif" font-size="10.00">src</text>
</a>
</g>
</g>
<g id="clust2" class="cluster">
<title>clusterdir_c718a368270b13c54d94892d20736f45</title>
<g id="a_clust2"><a xlink:href="dir_c718a368270b13c54d94892d20736f45.html" target="_top">
<polygon fill="#edf0f7" stroke="#404040" stroke-width="2" points="16,-16 16,-106 376,-106 376,-16 16,-16"/>
</a>
</g>
</g>
<!-- dir_2f725af7c14dd78fea61c67fc030d56d -->
<g id="node1" class="node">
<title>dir_2f725af7c14dd78fea61c67fc030d56d</title>
<g id="a_node1"><a xlink:href="dir_2f725af7c14dd78fea61c67fc030d56d.html" target="_top" xlink:title="pathfinding">
<polygon fill="#dae1ef" stroke="#404040" points="447.5,-43 384.5,-43 384.5,-24 447.5,-24 447.5,-43"/>
<text text-anchor="middle" x="416" y="-31" font-family="Helvetica,sans-Serif" font-size="10.00">pathfinding</text>
</a>
</g>
</g>
<!-- dir_c718a368270b13c54d94892d20736f45 -->
<g id="node2" class="node">
<title>dir_c718a368270b13c54d94892d20736f45</title>
<text text-anchor="middle" x="345" y="-86" font-family="Helvetica,sans-Serif" font-size="10.00">drivers</text>
</g>
<!-- dir_78578c99c6b98fc3d3d35a2149ec7b38 -->
<g id="node3" class="node">
<title>dir_78578c99c6b98fc3d3d35a2149ec7b38</title>
<g id="a_node3"><a xlink:href="dir_78578c99c6b98fc3d3d35a2149ec7b38.html" target="_top" xlink:title="encoder">
<polygon fill="#dae1ef" stroke="#404040" points="303.5,-98 252.5,-98 252.5,-79 303.5,-79 303.5,-98"/>
<text text-anchor="middle" x="278" y="-86" font-family="Helvetica,sans-Serif" font-size="10.00">encoder</text>
</a>
</g>
</g>
<!-- dir_591b9604ac4fc9d6ee85aaf4f5ba98fc -->
<g id="node4" class="node">
<title>dir_591b9604ac4fc9d6ee85aaf4f5ba98fc</title>
<g id="a_node4"><a xlink:href="dir_591b9604ac4fc9d6ee85aaf4f5ba98fc.html" target="_top" xlink:title="irline">
<polygon fill="#dae1ef" stroke="#404040" points="234.5,-98 197.5,-98 197.5,-79 234.5,-79 234.5,-98"/>
<text text-anchor="middle" x="216" y="-86" font-family="Helvetica,sans-Serif" font-size="10.00">irline</text>
</a>
</g>
</g>
<!-- dir_78fb06367a77b56392ef59288083778d -->
<g id="node5" class="node">
<title>dir_78fb06367a77b56392ef59288083778d</title>
<g id="a_node5"><a xlink:href="dir_78fb06367a77b56392ef59288083778d.html" target="_top" xlink:title="magnetometer">
<polygon fill="#dae1ef" stroke="#404040" points="165.5,-43 86.5,-43 86.5,-24 165.5,-24 165.5,-43"/>
<text text-anchor="middle" x="126" y="-31" font-family="Helvetica,sans-Serif" font-size="10.00">magnetometer</text>
</a>
</g>
</g>
<!-- dir_d3d889355876f518ec02342b91e5b8ba -->
<g id="node6" class="node">
<title>dir_d3d889355876f518ec02342b91e5b8ba</title>
<g id="a_node6"><a xlink:href="dir_d3d889355876f518ec02342b91e5b8ba.html" target="_top" xlink:title="motor">
<polygon fill="#dae1ef" stroke="#404040" points="224.5,-43 183.5,-43 183.5,-24 224.5,-24 224.5,-43"/>
<text text-anchor="middle" x="204" y="-31" font-family="Helvetica,sans-Serif" font-size="10.00">motor</text>
</a>
</g>
</g>
<!-- dir_a76f126e87b6517eab5e4fd56feaa5b1 -->
<g id="node7" class="node">
<title>dir_a76f126e87b6517eab5e4fd56feaa5b1</title>
<g id="a_node7"><a xlink:href="dir_a76f126e87b6517eab5e4fd56feaa5b1.html" target="_top" xlink:title="pid">
<polygon fill="#dae1ef" stroke="#404040" points="179.5,-98 150.5,-98 150.5,-79 179.5,-79 179.5,-98"/>
<text text-anchor="middle" x="165" y="-86" font-family="Helvetica,sans-Serif" font-size="10.00">pid</text>
</a>
</g>
</g>
<!-- dir_a76f126e87b6517eab5e4fd56feaa5b1&#45;&gt;dir_2f725af7c14dd78fea61c67fc030d56d -->
<g id="edge1" class="edge">
<title>dir_a76f126e87b6517eab5e4fd56feaa5b1&#45;&gt;dir_2f725af7c14dd78fea61c67fc030d56d</title>
<path fill="none" stroke="#63b8ff" d="M179.87,-81.83C182.86,-80.81 186.01,-79.81 189,-79 268.82,-57.48 293.4,-60.6 373.13,-44.39"/>
<polygon fill="#63b8ff" stroke="#63b8ff" points="373.66,-47.86 382.73,-42.4 372.23,-41 373.66,-47.86"/>
<g id="a_edge1&#45;headlabel"><a xlink:href="dir_000006_000005.html" target="_top" xlink:title="2">
<text text-anchor="middle" x="372.2" y="-48.56" font-family="Helvetica,sans-Serif" font-size="10.00" fill="#63b8ff">2</text>
</a>
</g>
</g>
<!-- dir_a76f126e87b6517eab5e4fd56feaa5b1&#45;&gt;dir_78fb06367a77b56392ef59288083778d -->
<g id="edge2" class="edge">
<title>dir_a76f126e87b6517eab5e4fd56feaa5b1&#45;&gt;dir_78fb06367a77b56392ef59288083778d</title>
<path fill="none" stroke="#63b8ff" d="M158.56,-78.75C153.34,-71.66 145.81,-61.42 139.31,-52.59"/>
<polygon fill="#63b8ff" stroke="#63b8ff" points="142.22,-50.64 133.48,-44.66 136.58,-54.79 142.22,-50.64"/>
<g id="a_edge2&#45;headlabel"><a xlink:href="dir_000006_000003.html" target="_top" xlink:title="1">
<text text-anchor="middle" x="145.74" y="-48.13" font-family="Helvetica,sans-Serif" font-size="10.00" fill="#63b8ff">1</text>
</a>
</g>
</g>
<!-- dir_a76f126e87b6517eab5e4fd56feaa5b1&#45;&gt;dir_d3d889355876f518ec02342b91e5b8ba -->
<g id="edge3" class="edge">
<title>dir_a76f126e87b6517eab5e4fd56feaa5b1&#45;&gt;dir_d3d889355876f518ec02342b91e5b8ba</title>
<path fill="none" stroke="#63b8ff" d="M171.44,-78.75C176.66,-71.66 184.19,-61.42 190.69,-52.59"/>
<polygon fill="#63b8ff" stroke="#63b8ff" points="193.42,-54.79 196.52,-44.66 187.78,-50.64 193.42,-54.79"/>
<g id="a_edge3&#45;headlabel"><a xlink:href="dir_000006_000004.html" target="_top" xlink:title="2">
<text text-anchor="middle" x="194.47" y="-55.65" font-family="Helvetica,sans-Serif" font-size="10.00" fill="#63b8ff">2</text>
</a>
</g>
</g>
<!-- dir_b926040cdc2be5854ef94a4999e3e3df -->
<g id="node8" class="node">
<title>dir_b926040cdc2be5854ef94a4999e3e3df</title>
<g id="a_node8"><a xlink:href="dir_b926040cdc2be5854ef94a4999e3e3df.html" target="_top" xlink:title="ultrasonic">
<polygon fill="#dae1ef" stroke="#404040" points="132.5,-98 73.5,-98 73.5,-79 132.5,-79 132.5,-98"/>
<text text-anchor="middle" x="103" y="-86" font-family="Helvetica,sans-Serif" font-size="10.00">ultrasonic</text>
</a>
</g>
</g>
<!-- dir_b968a5929f24c2cacb707801bd13427a -->
<g id="node9" class="node">
<title>dir_b968a5929f24c2cacb707801bd13427a</title>
<g id="a_node9"><a xlink:href="dir_b968a5929f24c2cacb707801bd13427a.html" target="_top" xlink:title="wifi">
<polygon fill="#dae1ef" stroke="#404040" points="55.5,-98 24.5,-98 24.5,-79 55.5,-79 55.5,-98"/>
<text text-anchor="middle" x="40" y="-86" font-family="Helvetica,sans-Serif" font-size="10.00">wifi</text>
</a>
</g>
</g>
</g>
</svg>
