<?xml version="1.0" encoding="UTF-8" standalone="no"?>
<!DOCTYPE svg PUBLIC "-//W3C//DTD SVG 1.1//EN"
 "http://www.w3.org/Graphics/SVG/1.1/DTD/svg11.dtd">
<!-- Generated by graphviz version 7.0.5 (20221223.1930)
 -->
<!-- Title: main Pages: 1 -->
<svg width="577pt" height="177pt"
 viewBox="0.00 0.00 577.00 177.00" xmlns="http://www.w3.org/2000/svg" xmlns:xlink="http://www.w3.org/1999/xlink">
<g id="graph0" class="graph" transform="scale(1 1) rotate(0) translate(4 173)">
<title>main</title>
<g id="clust1" class="cluster">
<title>clusterdir_5c982d53a68cdbcd421152b4020263a9</title>
<g id="a_clust1"><a xlink:href="dir_5c982d53a68cdbcd421152b4020263a9.html" target="_top">
<polygon fill="#edf0f7" stroke="#404040" stroke-width="2" points="8,-8 8,-161 561,-161 561,-8 8,-8"/>
</a>
</g>
</g>
<g id="clust2" class="cluster">
<title>clusterdir_03cc0cf9f2ff9626c21c5d0b4fc5a5ff</title>
<g id="a_clust2"><a xlink:href="dir_03cc0cf9f2ff9626c21c5d0b4fc5a5ff.html" target="_top">
<polygon fill="#dae1ef" stroke="#404040" points="16,-16 16,-51 480,-51 480,-16 16,-16"/>
</a>
</g>
</g>
<!-- dir_5c982d53a68cdbcd421152b4020263a9 -->
<g id="node1" class="node">
<title>dir_5c982d53a68cdbcd421152b4020263a9</title>
<text text-anchor="middle" x="207" y="-141" font-family="Helvetica,sans-Serif" font-size="10.00">main</text>
</g>
<!-- dir_7037465db2a82242a866a8e1b79c9f42 -->
<g id="node5" class="node">
<title>dir_7037465db2a82242a866a8e1b79c9f42</title>
<g id="a_node5"><a xlink:href="dir_7037465db2a82242a866a8e1b79c9f42.html" target="_top" xlink:title="magnetometer">
<polygon fill="#c8d2e7" stroke="#404040" points="180.5,-43 101.5,-43 101.5,-24 180.5,-24 180.5,-43"/>
<text text-anchor="middle" x="141" y="-31" font-family="Helvetica,sans-Serif" font-size="10.00">magnetometer</text>
</a>
</g>
</g>
<!-- dir_5c982d53a68cdbcd421152b4020263a9&#45;&gt;dir_7037465db2a82242a866a8e1b79c9f42 -->
<g id="edge1" class="edge">
<title>dir_5c982d53a68cdbcd421152b4020263a9&#45;&gt;dir_7037465db2a82242a866a8e1b79c9f42</title>
<path fill="none" stroke="#63b8ff" d="M201.82,-134.03C191.17,-116.6 166.62,-76.42 152.18,-52.79"/>
<polygon fill="#63b8ff" stroke="#63b8ff" points="155.33,-51.23 147.13,-44.53 149.36,-54.88 155.33,-51.23"/>
<g id="a_edge1&#45;headlabel"><a xlink:href="dir_000004_000003.html" target="_top" xlink:title="2">
<text text-anchor="middle" x="158.84" y="-49.03" font-family="Helvetica,sans-Serif" font-size="10.00" fill="#63b8ff">2</text>
</a>
</g>
</g>
<!-- dir_c60c47be64a26db5ce8a84e711bfc8d2 -->
<g id="node6" class="node">
<title>dir_c60c47be64a26db5ce8a84e711bfc8d2</title>
<g id="a_node6"><a xlink:href="dir_c60c47be64a26db5ce8a84e711bfc8d2.html" target="_top" xlink:title="motor">
<polygon fill="#c8d2e7" stroke="#404040" points="239.5,-43 198.5,-43 198.5,-24 239.5,-24 239.5,-43"/>
<text text-anchor="middle" x="219" y="-31" font-family="Helvetica,sans-Serif" font-size="10.00">motor</text>
</a>
</g>
</g>
<!-- dir_5c982d53a68cdbcd421152b4020263a9&#45;&gt;dir_c60c47be64a26db5ce8a84e711bfc8d2 -->
<g id="edge5" class="edge">
<title>dir_5c982d53a68cdbcd421152b4020263a9&#45;&gt;dir_c60c47be64a26db5ce8a84e711bfc8d2</title>
<path fill="none" stroke="#63b8ff" d="M204.72,-134.21C201.71,-122.01 197.19,-98.57 201,-79 202.67,-70.42 205.99,-61.39 209.34,-53.73"/>
<polygon fill="#63b8ff" stroke="#63b8ff" points="212.47,-55.3 213.57,-44.76 206.14,-52.31 212.47,-55.3"/>
<g id="a_edge5&#45;headlabel"><a xlink:href="dir_000004_000005.html" target="_top" xlink:title="3">
<text text-anchor="middle" x="214.15" y="-55.89" font-family="Helvetica,sans-Serif" font-size="10.00" fill="#63b8ff">3</text>
</a>
</g>
</g>
<!-- dir_deb25b8f26a592b34c57622f4b00f5a0 -->
<g id="node7" class="node">
<title>dir_deb25b8f26a592b34c57622f4b00f5a0</title>
<g id="a_node7"><a xlink:href="dir_deb25b8f26a592b34c57622f4b00f5a0.html" target="_top" xlink:title="ultrasonic">
<polygon fill="#c8d2e7" stroke="#404040" points="83.5,-43 24.5,-43 24.5,-24 83.5,-24 83.5,-43"/>
<text text-anchor="middle" x="54" y="-31" font-family="Helvetica,sans-Serif" font-size="10.00">ultrasonic</text>
</a>
</g>
</g>
<!-- dir_5c982d53a68cdbcd421152b4020263a9&#45;&gt;dir_deb25b8f26a592b34c57622f4b00f5a0 -->
<g id="edge6" class="edge">
<title>dir_5c982d53a68cdbcd421152b4020263a9&#45;&gt;dir_deb25b8f26a592b34c57622f4b00f5a0</title>
<path fill="none" stroke="#63b8ff" d="M194.99,-134.03C169.2,-115.82 108.2,-72.76 75.53,-49.7"/>
<polygon fill="#63b8ff" stroke="#63b8ff" points="77.8,-47.02 67.61,-44.11 73.76,-52.73 77.8,-47.02"/>
<g id="a_edge6&#45;headlabel"><a xlink:href="dir_000004_000009.html" target="_top" xlink:title="1">
<text text-anchor="middle" x="81.14" y="-43.4" font-family="Helvetica,sans-Serif" font-size="10.00" fill="#63b8ff">1</text>
</a>
</g>
</g>
<!-- dir_95011f6e5b26185ab733a0aa8e5658b9 -->
<g id="node8" class="node">
<title>dir_95011f6e5b26185ab733a0aa8e5658b9</title>
<g id="a_node8"><a xlink:href="dir_95011f6e5b26185ab733a0aa8e5658b9.html" target="_top" xlink:title="wifi">
<polygon fill="#c8d2e7" stroke="#404040" points="288.5,-43 257.5,-43 257.5,-24 288.5,-24 288.5,-43"/>
<text text-anchor="middle" x="273" y="-31" font-family="Helvetica,sans-Serif" font-size="10.00">wifi</text>
</a>
</g>
</g>
<!-- dir_5c982d53a68cdbcd421152b4020263a9&#45;&gt;dir_95011f6e5b26185ab733a0aa8e5658b9 -->
<g id="edge2" class="edge">
<title>dir_5c982d53a68cdbcd421152b4020263a9&#45;&gt;dir_95011f6e5b26185ab733a0aa8e5658b9</title>
<path fill="none" stroke="#63b8ff" d="M216.55,-134.11C225.63,-125.72 239.19,-112.06 248,-98 256.58,-84.31 263.12,-67.18 267.35,-54.16"/>
<polygon fill="#63b8ff" stroke="#63b8ff" points="270.68,-55.22 270.25,-44.64 263.99,-53.18 270.68,-55.22"/>
<g id="a_edge2&#45;headlabel"><a xlink:href="dir_000004_000010.html" target="_top" xlink:title="1">
<text text-anchor="middle" x="272.79" y="-55.54" font-family="Helvetica,sans-Serif" font-size="10.00" fill="#63b8ff">1</text>
</a>
</g>
</g>
<!-- dir_98513747c6a411bdc1bc8d498690a31e -->
<g id="node9" class="node">
<title>dir_98513747c6a411bdc1bc8d498690a31e</title>
<g id="a_node9"><a xlink:href="dir_98513747c6a411bdc1bc8d498690a31e.html" target="_top" xlink:title="pathfinding">
<polygon fill="#dae1ef" stroke="#404040" points="552.5,-43 489.5,-43 489.5,-24 552.5,-24 552.5,-43"/>
<text text-anchor="middle" x="521" y="-31" font-family="Helvetica,sans-Serif" font-size="10.00">pathfinding</text>
</a>
</g>
</g>
<!-- dir_5c982d53a68cdbcd421152b4020263a9&#45;&gt;dir_98513747c6a411bdc1bc8d498690a31e -->
<g id="edge3" class="edge">
<title>dir_5c982d53a68cdbcd421152b4020263a9&#45;&gt;dir_98513747c6a411bdc1bc8d498690a31e</title>
<path fill="none" stroke="#63b8ff" d="M225.71,-137.03C270.7,-123.72 388.35,-88.02 484,-51 486.49,-50.04 489.06,-49 491.62,-47.92"/>
<polygon fill="#63b8ff" stroke="#63b8ff" points="492.78,-51.23 500.56,-44.04 490,-44.81 492.78,-51.23"/>
<g id="a_edge3&#45;headlabel"><a xlink:href="dir_000004_000006.html" target="_top" xlink:title="3">
<text text-anchor="middle" x="492.01" y="-52.16" font-family="Helvetica,sans-Serif" font-size="10.00" fill="#63b8ff">3</text>
</a>
</g>
</g>
<!-- dir_b513d2787555fa799f0522c9a2ea2090 -->
<g id="node10" class="node">
<title>dir_b513d2787555fa799f0522c9a2ea2090</title>
<g id="a_node10"><a xlink:href="dir_b513d2787555fa799f0522c9a2ea2090.html" target="_top" xlink:title="pid">
<polygon fill="#dae1ef" stroke="#404040" points="238.5,-98 209.5,-98 209.5,-79 238.5,-79 238.5,-98"/>
<text text-anchor="middle" x="224" y="-86" font-family="Helvetica,sans-Serif" font-size="10.00">pid</text>
</a>
</g>
</g>
<!-- dir_5c982d53a68cdbcd421152b4020263a9&#45;&gt;dir_b513d2787555fa799f0522c9a2ea2090 -->
<g id="edge4" class="edge">
<title>dir_5c982d53a68cdbcd421152b4020263a9&#45;&gt;dir_b513d2787555fa799f0522c9a2ea2090</title>
<path fill="none" stroke="#63b8ff" d="M209.66,-134.22C211.81,-127.49 214.94,-117.73 217.73,-109.05"/>
<polygon fill="#63b8ff" stroke="#63b8ff" points="221.01,-110.28 220.73,-99.69 214.34,-108.15 221.01,-110.28"/>
<g id="a_edge4&#45;headlabel"><a xlink:href="dir_000004_000007.html" target="_top" xlink:title="1">
<text text-anchor="middle" x="223.08" y="-110.63" font-family="Helvetica,sans-Serif" font-size="10.00" fill="#63b8ff">1</text>
</a>
</g>
</g>
<!-- dir_03cc0cf9f2ff9626c21c5d0b4fc5a5ff -->
<g id="node2" class="node">
<title>dir_03cc0cf9f2ff9626c21c5d0b4fc5a5ff</title>
<text text-anchor="middle" x="451" y="-31" font-family="Helvetica,sans-Serif" font-size="10.00">driver</text>
</g>
<!-- dir_32d610a2a6a3ffabf17b691195eaa5f4 -->
<g id="node3" class="node">
<title>dir_32d610a2a6a3ffabf17b691195eaa5f4</title>
<g id="a_node3"><a xlink:href="dir_32d610a2a6a3ffabf17b691195eaa5f4.html" target="_top" xlink:title="encoder">
<polygon fill="#c8d2e7" stroke="#404040" points="412.5,-43 361.5,-43 361.5,-24 412.5,-24 412.5,-43"/>
<text text-anchor="middle" x="387" y="-31" font-family="Helvetica,sans-Serif" font-size="10.00">encoder</text>
</a>
</g>
</g>
<!-- dir_9acabe3509286bdc74b4083dedf3872a -->
<g id="node4" class="node">
<title>dir_9acabe3509286bdc74b4083dedf3872a</title>
<g id="a_node4"><a xlink:href="dir_9acabe3509286bdc74b4083dedf3872a.html" target="_top" xlink:title="irline">
<polygon fill="#c8d2e7" stroke="#404040" points="343.5,-43 306.5,-43 306.5,-24 343.5,-24 343.5,-43"/>
<text text-anchor="middle" x="325" y="-31" font-family="Helvetica,sans-Serif" font-size="10.00">irline</text>
</a>
</g>
</g>
<!-- dir_b513d2787555fa799f0522c9a2ea2090&#45;&gt;dir_7037465db2a82242a866a8e1b79c9f42 -->
<g id="edge7" class="edge">
<title>dir_b513d2787555fa799f0522c9a2ea2090&#45;&gt;dir_7037465db2a82242a866a8e1b79c9f42</title>
<path fill="none" stroke="#63b8ff" d="M209.92,-78.51C197.44,-70.54 178.98,-58.75 164.31,-49.38"/>
<polygon fill="#63b8ff" stroke="#63b8ff" points="166.46,-46.6 156.15,-44.17 162.69,-52.5 166.46,-46.6"/>
<g id="a_edge7&#45;headlabel"><a xlink:href="dir_000007_000003.html" target="_top" xlink:title="1">
<text text-anchor="middle" x="169.74" y="-42.83" font-family="Helvetica,sans-Serif" font-size="10.00" fill="#63b8ff">1</text>
</a>
</g>
</g>
<!-- dir_b513d2787555fa799f0522c9a2ea2090&#45;&gt;dir_c60c47be64a26db5ce8a84e711bfc8d2 -->
<g id="edge9" class="edge">
<title>dir_b513d2787555fa799f0522c9a2ea2090&#45;&gt;dir_c60c47be64a26db5ce8a84e711bfc8d2</title>
<path fill="none" stroke="#63b8ff" d="M223.17,-78.75C222.56,-72.27 221.7,-63.16 220.92,-54.9"/>
<polygon fill="#63b8ff" stroke="#63b8ff" points="224.41,-54.58 219.99,-44.95 217.44,-55.23 224.41,-54.58"/>
<g id="a_edge9&#45;headlabel"><a xlink:href="dir_000007_000005.html" target="_top" xlink:title="2">
<text text-anchor="middle" x="227.43" y="-53.88" font-family="Helvetica,sans-Serif" font-size="10.00" fill="#63b8ff">2</text>
</a>
</g>
</g>
<!-- dir_b513d2787555fa799f0522c9a2ea2090&#45;&gt;dir_98513747c6a411bdc1bc8d498690a31e -->
<g id="edge8" class="edge">
<title>dir_b513d2787555fa799f0522c9a2ea2090&#45;&gt;dir_98513747c6a411bdc1bc8d498690a31e</title>
<path fill="none" stroke="#63b8ff" d="M238.96,-86.86C279.29,-84.83 393.31,-77.03 484,-51 487,-50.14 490.08,-49.08 493.11,-47.92"/>
<polygon fill="#63b8ff" stroke="#63b8ff" points="494.46,-51.15 502.29,-44.02 491.72,-44.7 494.46,-51.15"/>
<g id="a_edge8&#45;headlabel"><a xlink:href="dir_000007_000006.html" target="_top" xlink:title="2">
<text text-anchor="middle" x="493.65" y="-52.07" font-family="Helvetica,sans-Serif" font-size="10.00" fill="#63b8ff">2</text>
</a>
</g>
</g>
</g>
</svg>
