<?xml version="1.0" encoding="UTF-8" standalone="no"?>
<!DOCTYPE svg PUBLIC "-//W3C//DTD SVG 1.1//EN"
 "http://www.w3.org/Graphics/SVG/1.1/DTD/svg11.dtd">
<!-- Generated by graphviz version 7.0.5 (20221223.1930)
 -->
<!-- Title: src/drivers/pid Pages: 1 -->
<svg width="244pt" height="133pt"
 viewBox="0.00 0.00 243.50 133.00" xmlns="http://www.w3.org/2000/svg" xmlns:xlink="http://www.w3.org/1999/xlink">
<g id="graph0" class="graph" transform="scale(1 1) rotate(0) translate(4 129)">
<title>src/drivers/pid</title>
<g id="clust1" class="cluster">
<title>clusterdir_c718a368270b13c54d94892d20736f45</title>
<g id="a_clust1"><a xlink:href="dir_c718a368270b13c54d94892d20736f45.html" target="_top" xlink:title="drivers">
<polygon fill="#edf0f7" stroke="#7f7f7f" stroke-dasharray="5,2" points="8,-8 8,-117 163,-117 163,-8 8,-8"/>
<text text-anchor="middle" x="85.5" y="-105" font-family="Helvetica,sans-Serif" font-size="10.00">drivers</text>
</a>
</g>
</g>
<!-- dir_78fb06367a77b56392ef59288083778d -->
<g id="node1" class="node">
<title>dir_78fb06367a77b56392ef59288083778d</title>
<g id="a_node1"><a xlink:href="dir_78fb06367a77b56392ef59288083778d.html" target="_top" xlink:title="magnetometer">
<polygon fill="#dae1ef" stroke="#404040" points="95.5,-35 16.5,-35 16.5,-16 95.5,-16 95.5,-35"/>
<text text-anchor="middle" x="56" y="-23" font-family="Helvetica,sans-Serif" font-size="10.00">magnetometer</text>
</a>
</g>
</g>
<!-- dir_d3d889355876f518ec02342b91e5b8ba -->
<g id="node2" class="node">
<title>dir_d3d889355876f518ec02342b91e5b8ba</title>
<g id="a_node2"><a xlink:href="dir_d3d889355876f518ec02342b91e5b8ba.html" target="_top" xlink:title="motor">
<polygon fill="#dae1ef" stroke="#404040" points="154.5,-35 113.5,-35 113.5,-16 154.5,-16 154.5,-35"/>
<text text-anchor="middle" x="134" y="-23" font-family="Helvetica,sans-Serif" font-size="10.00">motor</text>
</a>
</g>
</g>
<!-- dir_a76f126e87b6517eab5e4fd56feaa5b1 -->
<g id="node3" class="node">
<title>dir_a76f126e87b6517eab5e4fd56feaa5b1</title>
<g id="a_node3"><a xlink:href="dir_a76f126e87b6517eab5e4fd56feaa5b1.html" target="_top" xlink:title="pid">
<polygon fill="#edf0f7" stroke="#404040" stroke-width="2" points="148.5,-90 119.5,-90 119.5,-71 148.5,-71 148.5,-90"/>
<text text-anchor="middle" x="134" y="-78" font-family="Helvetica,sans-Serif" font-size="10.00">pid</text>
</a>
</g>
</g>
<!-- dir_a76f126e87b6517eab5e4fd56feaa5b1&#45;&gt;dir_78fb06367a77b56392ef59288083778d -->
<g id="edge2" class="edge">
<title>dir_a76f126e87b6517eab5e4fd56feaa5b1&#45;&gt;dir_78fb06367a77b56392ef59288083778d</title>
<path fill="none" stroke="#63b8ff" d="M120.77,-70.51C109.16,-62.62 92.03,-50.98 78.3,-41.65"/>
<polygon fill="#63b8ff" stroke="#63b8ff" points="80.53,-38.93 70.29,-36.21 76.59,-44.72 80.53,-38.93"/>
<g id="a_edge2&#45;headlabel"><a xlink:href="dir_000006_000003.html" target="_top" xlink:title="1">
<text text-anchor="middle" x="83.84" y="-35.26" font-family="Helvetica,sans-Serif" font-size="10.00" fill="#63b8ff">1</text>
</a>
</g>
</g>
<!-- dir_a76f126e87b6517eab5e4fd56feaa5b1&#45;&gt;dir_d3d889355876f518ec02342b91e5b8ba -->
<g id="edge3" class="edge">
<title>dir_a76f126e87b6517eab5e4fd56feaa5b1&#45;&gt;dir_d3d889355876f518ec02342b91e5b8ba</title>
<path fill="none" stroke="#63b8ff" d="M134,-70.75C134,-64.27 134,-55.16 134,-46.9"/>
<polygon fill="#63b8ff" stroke="#63b8ff" points="137.5,-46.96 134,-36.96 130.5,-46.96 137.5,-46.96"/>
<g id="a_edge3&#45;headlabel"><a xlink:href="dir_000006_000004.html" target="_top" xlink:title="2">
<text text-anchor="middle" x="140.34" y="-46.54" font-family="Helvetica,sans-Serif" font-size="10.00" fill="#63b8ff">2</text>
</a>
</g>
</g>
<!-- dir_2f725af7c14dd78fea61c67fc030d56d -->
<g id="node4" class="node">
<title>dir_2f725af7c14dd78fea61c67fc030d56d</title>
<g id="a_node4"><a xlink:href="dir_2f725af7c14dd78fea61c67fc030d56d.html" target="_top" xlink:title="pathfinding">
<polygon fill="#edf0f7" stroke="#7f7f7f" points="235.5,-35 172.5,-35 172.5,-16 235.5,-16 235.5,-35"/>
<text text-anchor="middle" x="204" y="-23" font-family="Helvetica,sans-Serif" font-size="10.00">pathfinding</text>
</a>
</g>
</g>
<!-- dir_a76f126e87b6517eab5e4fd56feaa5b1&#45;&gt;dir_2f725af7c14dd78fea61c67fc030d56d -->
<g id="edge1" class="edge">
<title>dir_a76f126e87b6517eab5e4fd56feaa5b1&#45;&gt;dir_2f725af7c14dd78fea61c67fc030d56d</title>
<path fill="none" stroke="#63b8ff" d="M145.87,-70.51C156.09,-62.77 171.07,-51.43 183.26,-42.2"/>
<polygon fill="#63b8ff" stroke="#63b8ff" points="185.23,-45.1 191.09,-36.27 181.01,-39.52 185.23,-45.1"/>
<g id="a_edge1&#45;headlabel"><a xlink:href="dir_000006_000005.html" target="_top" xlink:title="2">
<text text-anchor="middle" x="185.29" y="-46.12" font-family="Helvetica,sans-Serif" font-size="10.00" fill="#63b8ff">2</text>
</a>
</g>
</g>
</g>
</svg>
