<?xml version="1.0" encoding="UTF-8" standalone="no"?>
<!DOCTYPE svg PUBLIC "-//W3C//DTD SVG 1.1//EN"
 "http://www.w3.org/Graphics/SVG/1.1/DTD/svg11.dtd">
<!-- Generated by graphviz version 7.0.5 (20221223.1930)
 -->
<!-- Title: src/drivers/ultrasonic/main.c Pages: 1 -->
<svg width="415pt" height="93pt"
 viewBox="0.00 0.00 415.00 93.00" xmlns="http://www.w3.org/2000/svg" xmlns:xlink="http://www.w3.org/1999/xlink">
<g id="graph0" class="graph" transform="scale(1 1) rotate(0) translate(4 89)">
<title>src/drivers/ultrasonic/main.c</title>
<!-- Node1 -->
<g id="node1" class="node">
<title>Node1</title>
<g id="a_node1"><a xlink:title="Demonstration for the Ultrasonic driver.">
<polygon fill="#999999" stroke="#666666" points="216,-85 109,-85 109,-55 216,-55 216,-85"/>
<text text-anchor="start" x="117" y="-73" font-family="Helvetica,sans-Serif" font-size="10.00">src/drivers/ultrasonic</text>
<text text-anchor="middle" x="162.5" y="-62" font-family="Helvetica,sans-Serif" font-size="10.00">/main.c</text>
</a>
</g>
</g>
<!-- Node2 -->
<g id="node2" class="node">
<title>Node2</title>
<g id="a_node2"><a xlink:title=" ">
<polygon fill="#e0e0e0" stroke="#999999" points="45,-19 0,-19 0,0 45,0 45,-19"/>
<text text-anchor="middle" x="22.5" y="-7" font-family="Helvetica,sans-Serif" font-size="10.00">stdio.h</text>
</a>
</g>
</g>
<!-- Node1&#45;&gt;Node2 -->
<g id="edge1" class="edge">
<title>Node1&#45;&gt;Node2</title>
<path fill="none" stroke="#63b8ff" d="M127.89,-54.54C105.31,-45.1 76.06,-32.88 54.11,-23.71"/>
<polygon fill="#63b8ff" stroke="#63b8ff" points="55.64,-20.56 45.07,-19.93 52.94,-27.01 55.64,-20.56"/>
</g>
<!-- Node3 -->
<g id="node3" class="node">
<title>Node3</title>
<g id="a_node3"><a xlink:title=" ">
<polygon fill="#e0e0e0" stroke="#999999" points="111.5,-19 63.5,-19 63.5,0 111.5,0 111.5,-19"/>
<text text-anchor="middle" x="87.5" y="-7" font-family="Helvetica,sans-Serif" font-size="10.00">stdint.h</text>
</a>
</g>
</g>
<!-- Node1&#45;&gt;Node3 -->
<g id="edge2" class="edge">
<title>Node1&#45;&gt;Node3</title>
<path fill="none" stroke="#63b8ff" d="M143.96,-54.54C132.85,-45.87 118.71,-34.85 107.37,-26"/>
<polygon fill="#63b8ff" stroke="#63b8ff" points="109.85,-23.5 99.82,-20.11 105.55,-29.02 109.85,-23.5"/>
</g>
<!-- Node4 -->
<g id="node4" class="node">
<title>Node4</title>
<g id="a_node4"><a xlink:title=" ">
<polygon fill="#e0e0e0" stroke="#999999" points="195.5,-19 129.5,-19 129.5,0 195.5,0 195.5,-19"/>
<text text-anchor="middle" x="162.5" y="-7" font-family="Helvetica,sans-Serif" font-size="10.00">pico/stdio.h</text>
</a>
</g>
</g>
<!-- Node1&#45;&gt;Node4 -->
<g id="edge3" class="edge">
<title>Node1&#45;&gt;Node4</title>
<path fill="none" stroke="#63b8ff" d="M162.5,-54.54C162.5,-47.34 162.5,-38.53 162.5,-30.68"/>
<polygon fill="#63b8ff" stroke="#63b8ff" points="166,-30.69 162.5,-20.69 159,-30.69 166,-30.69"/>
</g>
<!-- Node5 -->
<g id="node5" class="node">
<title>Node5</title>
<g id="a_node5"><a xlink:title=" ">
<polygon fill="#e0e0e0" stroke="#999999" points="277.5,-19 213.5,-19 213.5,0 277.5,0 277.5,-19"/>
<text text-anchor="middle" x="245.5" y="-7" font-family="Helvetica,sans-Serif" font-size="10.00">pico/time.h</text>
</a>
</g>
</g>
<!-- Node1&#45;&gt;Node5 -->
<g id="edge4" class="edge">
<title>Node1&#45;&gt;Node5</title>
<path fill="none" stroke="#63b8ff" d="M183.02,-54.54C195.44,-45.78 211.27,-34.63 223.89,-25.73"/>
<polygon fill="#63b8ff" stroke="#63b8ff" points="225.8,-28.67 231.95,-20.05 221.76,-22.95 225.8,-28.67"/>
</g>
<!-- Node6 -->
<g id="node6" class="node">
<title>Node6</title>
<g id="a_node6"><a xlink:href="ultrasonic_8h.html" target="_top" xlink:title="Header file for the ultrasonic sensor driver.">
<polygon fill="white" stroke="#666666" points="407,-19 296,-19 296,0 407,0 407,-19"/>
<text text-anchor="middle" x="351.5" y="-7" font-family="Helvetica,sans-Serif" font-size="10.00">ultrasonic/ultrasonic.h</text>
</a>
</g>
</g>
<!-- Node1&#45;&gt;Node6 -->
<g id="edge5" class="edge">
<title>Node1&#45;&gt;Node6</title>
<path fill="none" stroke="#63b8ff" d="M209.22,-54.54C240.72,-44.79 281.84,-32.06 311.76,-22.8"/>
<polygon fill="#63b8ff" stroke="#63b8ff" points="312.68,-26.18 321.2,-19.88 310.61,-19.49 312.68,-26.18"/>
</g>
</g>
</svg>
