<?xml version="1.0" encoding="UTF-8" standalone="no"?>
<!DOCTYPE svg PUBLIC "-//W3C//DTD SVG 1.1//EN"
 "http://www.w3.org/Graphics/SVG/1.1/DTD/svg11.dtd">
<!-- Generated by graphviz version 7.0.5 (20221223.1930)
 -->
<!-- Title: main Pages: 1 -->
<svg width="182pt" height="101pt"
 viewBox="0.00 0.00 182.00 101.00" xmlns="http://www.w3.org/2000/svg" xmlns:xlink="http://www.w3.org/1999/xlink">
<g id="graph0" class="graph" transform="scale(1 1) rotate(0) translate(4 97)">
<title>main</title>
<!-- Node1 -->
<g id="node1" class="node">
<title>Node1</title>
<g id="a_node1"><a xlink:title="Main function for the ultrasonic demo.">
<polygon fill="#999999" stroke="#666666" points="38,-56 0,-56 0,-37 38,-37 38,-56"/>
<text text-anchor="middle" x="19" y="-44" font-family="Helvetica,sans-Serif" font-size="10.00">main</text>
</a>
</g>
</g>
<!-- Node2 -->
<g id="node2" class="node">
<title>Node2</title>
<g id="a_node2"><a xlink:href="ultrasonic_8c.html#ae91f6e488d56c1d3ebd62fa2314b747e" target="_top" xlink:title="Get the distance to an object in centimetres.">
<polygon fill="white" stroke="#666666" points="172,-93 76,-93 76,-74 172,-74 172,-93"/>
<text text-anchor="middle" x="124" y="-81" font-family="Helvetica,sans-Serif" font-size="10.00">ultrasonic_get_cm</text>
</a>
</g>
</g>
<!-- Node1&#45;&gt;Node2 -->
<g id="edge1" class="edge">
<title>Node1&#45;&gt;Node2</title>
<path fill="none" stroke="#63b8ff" d="M38.41,-53.11C51.3,-57.74 68.97,-64.09 84.83,-69.79"/>
<polygon fill="#63b8ff" stroke="#63b8ff" points="83.42,-73 94.01,-73.09 85.79,-66.41 83.42,-73"/>
</g>
<!-- Node3 -->
<g id="node3" class="node">
<title>Node3</title>
<g id="a_node3"><a xlink:href="ultrasonic_8c.html#a4394ffd9d39e128aa47307ecc2d4f083" target="_top" xlink:title="Get the distance to an object in inches.">
<polygon fill="white" stroke="#666666" points="169,-56 79,-56 79,-37 169,-37 169,-56"/>
<text text-anchor="middle" x="124" y="-44" font-family="Helvetica,sans-Serif" font-size="10.00">ultrasonic_get_in</text>
</a>
</g>
</g>
<!-- Node1&#45;&gt;Node3 -->
<g id="edge2" class="edge">
<title>Node1&#45;&gt;Node3</title>
<path fill="none" stroke="#63b8ff" d="M38.41,-46.5C46.66,-46.5 56.86,-46.5 67.3,-46.5"/>
<polygon fill="#63b8ff" stroke="#63b8ff" points="67.12,-50 77.12,-46.5 67.12,-43 67.12,-50"/>
</g>
<!-- Node4 -->
<g id="node4" class="node">
<title>Node4</title>
<g id="a_node4"><a xlink:href="ultrasonic_8c.html#ac385d876054e40ec234dfd93ed5f0114" target="_top" xlink:title="Initalises the pins for the ultrasonic sensor.">
<polygon fill="white" stroke="#666666" points="174,-19 74,-19 74,0 174,0 174,-19"/>
<text text-anchor="middle" x="124" y="-7" font-family="Helvetica,sans-Serif" font-size="10.00">ultrasonic_init_pins</text>
</a>
</g>
</g>
<!-- Node1&#45;&gt;Node4 -->
<g id="edge3" class="edge">
<title>Node1&#45;&gt;Node4</title>
<path fill="none" stroke="#63b8ff" d="M38.41,-39.89C51.3,-35.26 68.97,-28.91 84.83,-23.21"/>
<polygon fill="#63b8ff" stroke="#63b8ff" points="85.79,-26.59 94.01,-19.91 83.42,-20 85.79,-26.59"/>
</g>
</g>
</svg>
