<?xml version="1.0" encoding="UTF-8" standalone="no"?>
<!DOCTYPE svg PUBLIC "-//W3C//DTD SVG 1.1//EN"
 "http://www.w3.org/Graphics/SVG/1.1/DTD/svg11.dtd">
<!-- Generated by graphviz version 7.0.5 (20221223.1930)
 -->
<!-- Title: src/drivers/motor/main.c Pages: 1 -->
<svg width="247pt" height="137pt"
 viewBox="0.00 0.00 246.50 137.00" xmlns="http://www.w3.org/2000/svg" xmlns:xlink="http://www.w3.org/1999/xlink">
<g id="graph0" class="graph" transform="scale(1 1) rotate(0) translate(4 133)">
<title>src/drivers/motor/main.c</title>
<!-- Node1 -->
<g id="node1" class="node">
<title>Node1</title>
<g id="a_node1"><a xlink:title="Demonstration for the motor driver.">
<polygon fill="#999999" stroke="#666666" points="131.5,-129 9.5,-129 9.5,-110 131.5,-110 131.5,-129"/>
<text text-anchor="middle" x="70.5" y="-117" font-family="Helvetica,sans-Serif" font-size="10.00">src/drivers/motor/main.c</text>
</a>
</g>
</g>
<!-- Node2 -->
<g id="node2" class="node">
<title>Node2</title>
<g id="a_node2"><a xlink:title=" ">
<polygon fill="#e0e0e0" stroke="#999999" points="45,-74 0,-74 0,-55 45,-55 45,-74"/>
<text text-anchor="middle" x="22.5" y="-62" font-family="Helvetica,sans-Serif" font-size="10.00">stdio.h</text>
</a>
</g>
</g>
<!-- Node1&#45;&gt;Node2 -->
<g id="edge1" class="edge">
<title>Node1&#45;&gt;Node2</title>
<path fill="none" stroke="#63b8ff" d="M62.57,-109.75C55.94,-102.43 46.28,-91.76 38.11,-82.74"/>
<polygon fill="#63b8ff" stroke="#63b8ff" points="40.92,-80.63 31.61,-75.56 35.73,-85.33 40.92,-80.63"/>
</g>
<!-- Node3 -->
<g id="node3" class="node">
<title>Node3</title>
<g id="a_node3"><a xlink:href="motor__control_8h.html" target="_top" xlink:title="Header file for motor control drivers.">
<polygon fill="white" stroke="#666666" points="174,-74 63,-74 63,-55 174,-55 174,-74"/>
<text text-anchor="middle" x="118.5" y="-62" font-family="Helvetica,sans-Serif" font-size="10.00">motor/motor_control.h</text>
</a>
</g>
</g>
<!-- Node1&#45;&gt;Node3 -->
<g id="edge2" class="edge">
<title>Node1&#45;&gt;Node3</title>
<path fill="none" stroke="#63b8ff" d="M78.43,-109.75C85.06,-102.43 94.72,-91.76 102.89,-82.74"/>
<polygon fill="#63b8ff" stroke="#63b8ff" points="105.27,-85.33 109.39,-75.56 100.08,-80.63 105.27,-85.33"/>
</g>
<!-- Node4 -->
<g id="node4" class="node">
<title>Node4</title>
<g id="a_node4"><a xlink:title=" ">
<polygon fill="#e0e0e0" stroke="#999999" points="66.5,-19 10.5,-19 10.5,0 66.5,0 66.5,-19"/>
<text text-anchor="middle" x="38.5" y="-7" font-family="Helvetica,sans-Serif" font-size="10.00">stdbool.h</text>
</a>
</g>
</g>
<!-- Node3&#45;&gt;Node4 -->
<g id="edge3" class="edge">
<title>Node3&#45;&gt;Node4</title>
<path fill="none" stroke="#63b8ff" d="M104.93,-54.51C93.02,-46.62 75.45,-34.98 61.37,-25.65"/>
<polygon fill="#63b8ff" stroke="#63b8ff" points="63.4,-22.8 53.13,-20.19 59.54,-28.63 63.4,-22.8"/>
</g>
<!-- Node5 -->
<g id="node5" class="node">
<title>Node5</title>
<g id="a_node5"><a xlink:title=" ">
<polygon fill="#e0e0e0" stroke="#999999" points="152.5,-19 84.5,-19 84.5,0 152.5,0 152.5,-19"/>
<text text-anchor="middle" x="118.5" y="-7" font-family="Helvetica,sans-Serif" font-size="10.00">pico/stdlib.h</text>
</a>
</g>
</g>
<!-- Node3&#45;&gt;Node5 -->
<g id="edge4" class="edge">
<title>Node3&#45;&gt;Node5</title>
<path fill="none" stroke="#63b8ff" d="M118.5,-54.75C118.5,-48.27 118.5,-39.16 118.5,-30.9"/>
<polygon fill="#63b8ff" stroke="#63b8ff" points="122,-30.96 118.5,-20.96 115,-30.96 122,-30.96"/>
</g>
<!-- Node6 -->
<g id="node6" class="node">
<title>Node6</title>
<g id="a_node6"><a xlink:title=" ">
<polygon fill="#e0e0e0" stroke="#999999" points="238.5,-19 170.5,-19 170.5,0 238.5,0 238.5,-19"/>
<text text-anchor="middle" x="204.5" y="-7" font-family="Helvetica,sans-Serif" font-size="10.00">pico/types.h</text>
</a>
</g>
</g>
<!-- Node3&#45;&gt;Node6 -->
<g id="edge5" class="edge">
<title>Node3&#45;&gt;Node6</title>
<path fill="none" stroke="#63b8ff" d="M133.09,-54.51C146.02,-46.54 165.14,-34.75 180.35,-25.38"/>
<polygon fill="#63b8ff" stroke="#63b8ff" points="182.16,-28.38 188.84,-20.15 178.49,-22.42 182.16,-28.38"/>
</g>
</g>
</svg>
