<?xml version="1.0" encoding="UTF-8" standalone="no"?>
<!DOCTYPE svg PUBLIC "-//W3C//DTD SVG 1.1//EN"
 "http://www.w3.org/Graphics/SVG/1.1/DTD/svg11.dtd">
<!-- Generated by graphviz version 7.0.5 (20221223.1930)
 -->
<!-- Title: src/drivers/magnetometer/main.c Pages: 1 -->
<svg width="529pt" height="93pt"
 viewBox="0.00 0.00 528.50 93.00" xmlns="http://www.w3.org/2000/svg" xmlns:xlink="http://www.w3.org/1999/xlink">
<g id="graph0" class="graph" transform="scale(1 1) rotate(0) translate(4 89)">
<title>src/drivers/magnetometer/main.c</title>
<!-- Node1 -->
<g id="node1" class="node">
<title>Node1</title>
<g id="a_node1"><a xlink:title="Demonstration for the magnetometer driver.">
<polygon fill="#999999" stroke="#666666" points="255.5,-85 127.5,-85 127.5,-55 255.5,-55 255.5,-85"/>
<text text-anchor="start" x="135.5" y="-73" font-family="Helvetica,sans-Serif" font-size="10.00">src/drivers/magnetometer</text>
<text text-anchor="middle" x="191.5" y="-62" font-family="Helvetica,sans-Serif" font-size="10.00">/main.c</text>
</a>
</g>
</g>
<!-- Node2 -->
<g id="node2" class="node">
<title>Node2</title>
<g id="a_node2"><a xlink:title=" ">
<polygon fill="#e0e0e0" stroke="#999999" points="45,-19 0,-19 0,0 45,0 45,-19"/>
<text text-anchor="middle" x="22.5" y="-7" font-family="Helvetica,sans-Serif" font-size="10.00">stdio.h</text>
</a>
</g>
</g>
<!-- Node1&#45;&gt;Node2 -->
<g id="edge1" class="edge">
<title>Node1&#45;&gt;Node2</title>
<path fill="none" stroke="#63b8ff" d="M149.72,-54.54C120.82,-44.53 82.85,-31.39 55.94,-22.08"/>
<polygon fill="#63b8ff" stroke="#63b8ff" points="57.17,-18.8 46.58,-18.83 54.88,-25.41 57.17,-18.8"/>
</g>
<!-- Node3 -->
<g id="node3" class="node">
<title>Node3</title>
<g id="a_node3"><a xlink:title=" ">
<polygon fill="#e0e0e0" stroke="#999999" points="129.5,-19 63.5,-19 63.5,0 129.5,0 129.5,-19"/>
<text text-anchor="middle" x="96.5" y="-7" font-family="Helvetica,sans-Serif" font-size="10.00">pico/stdio.h</text>
</a>
</g>
</g>
<!-- Node1&#45;&gt;Node3 -->
<g id="edge2" class="edge">
<title>Node1&#45;&gt;Node3</title>
<path fill="none" stroke="#63b8ff" d="M168.02,-54.54C153.6,-45.66 135.19,-34.32 120.65,-25.37"/>
<polygon fill="#63b8ff" stroke="#63b8ff" points="122.5,-22.4 112.15,-20.14 118.83,-28.36 122.5,-22.4"/>
</g>
<!-- Node4 -->
<g id="node4" class="node">
<title>Node4</title>
<g id="a_node4"><a xlink:title=" ">
<polygon fill="#e0e0e0" stroke="#999999" points="235,-19 148,-19 148,0 235,0 235,-19"/>
<text text-anchor="middle" x="191.5" y="-7" font-family="Helvetica,sans-Serif" font-size="10.00">pico/stdio_usb.h</text>
</a>
</g>
</g>
<!-- Node1&#45;&gt;Node4 -->
<g id="edge3" class="edge">
<title>Node1&#45;&gt;Node4</title>
<path fill="none" stroke="#63b8ff" d="M191.5,-54.54C191.5,-47.34 191.5,-38.53 191.5,-30.68"/>
<polygon fill="#63b8ff" stroke="#63b8ff" points="195,-30.69 191.5,-20.69 188,-30.69 195,-30.69"/>
</g>
<!-- Node5 -->
<g id="node5" class="node">
<title>Node5</title>
<g id="a_node5"><a xlink:title=" ">
<polygon fill="#e0e0e0" stroke="#999999" points="350,-19 253,-19 253,0 350,0 350,-19"/>
<text text-anchor="middle" x="301.5" y="-7" font-family="Helvetica,sans-Serif" font-size="10.00">pico/cyw43_arch.h</text>
</a>
</g>
</g>
<!-- Node1&#45;&gt;Node5 -->
<g id="edge4" class="edge">
<title>Node1&#45;&gt;Node5</title>
<path fill="none" stroke="#63b8ff" d="M218.69,-54.54C235.87,-45.4 257.95,-33.66 275,-24.6"/>
<polygon fill="#63b8ff" stroke="#63b8ff" points="276.34,-27.84 283.53,-20.06 273.06,-21.66 276.34,-27.84"/>
</g>
<!-- Node6 -->
<g id="node6" class="node">
<title>Node6</title>
<g id="a_node6"><a xlink:href="magnetometer_8h.html" target="_top" xlink:title="Header file for the magnetometer driver.">
<polygon fill="white" stroke="#666666" points="520.5,-19 368.5,-19 368.5,0 520.5,0 520.5,-19"/>
<text text-anchor="middle" x="444.5" y="-7" font-family="Helvetica,sans-Serif" font-size="10.00">magnetometer/magnetometer.h</text>
</a>
</g>
</g>
<!-- Node1&#45;&gt;Node6 -->
<g id="edge5" class="edge">
<title>Node1&#45;&gt;Node6</title>
<path fill="none" stroke="#63b8ff" d="M254.04,-54.54C297.42,-44.51 354.41,-31.33 394.71,-22.01"/>
<polygon fill="#63b8ff" stroke="#63b8ff" points="395.44,-25.44 404.4,-19.77 393.86,-18.62 395.44,-25.44"/>
</g>
</g>
</svg>
