<?xml version="1.0" encoding="UTF-8" standalone="no"?>
<!DOCTYPE svg PUBLIC "-//W3C//DTD SVG 1.1//EN"
 "http://www.w3.org/Graphics/SVG/1.1/DTD/svg11.dtd">
<!-- Generated by graphviz version 7.0.5 (20221223.1930)
 -->
<!-- Title: src/drivers/pid/main.c Pages: 1 -->
<svg width="725pt" height="192pt"
 viewBox="0.00 0.00 724.84 192.00" xmlns="http://www.w3.org/2000/svg" xmlns:xlink="http://www.w3.org/1999/xlink">
<g id="graph0" class="graph" transform="scale(1 1) rotate(0) translate(4 188)">
<title>src/drivers/pid/main.c</title>
<!-- Node1 -->
<g id="node1" class="node">
<title>Node1</title>
<g id="a_node1"><a xlink:title="Demonstration for the PID driver.">
<polygon fill="#999999" stroke="#666666" points="328.02,-184 218.02,-184 218.02,-165 328.02,-165 328.02,-184"/>
<text text-anchor="middle" x="273.02" y="-172" font-family="Helvetica,sans-Serif" font-size="10.00">src/drivers/pid/main.c</text>
</a>
</g>
</g>
<!-- Node2 -->
<g id="node2" class="node">
<title>Node2</title>
<g id="a_node2"><a xlink:title=" ">
<polygon fill="#e0e0e0" stroke="#999999" points="56.02,-19 8.02,-19 8.02,0 56.02,0 56.02,-19"/>
<text text-anchor="middle" x="32.02" y="-7" font-family="Helvetica,sans-Serif" font-size="10.00">stdint.h</text>
</a>
</g>
</g>
<!-- Node1&#45;&gt;Node2 -->
<g id="edge1" class="edge">
<title>Node1&#45;&gt;Node2</title>
<path fill="none" stroke="#63b8ff" d="M217.77,-172.13C149.12,-169.14 37.81,-159.56 12.02,-129 -11.78,-100.8 6.84,-55.02 20.63,-29.4"/>
<polygon fill="#63b8ff" stroke="#63b8ff" points="23.63,-31.21 25.54,-20.79 17.55,-27.75 23.63,-31.21"/>
</g>
<!-- Node3 -->
<g id="node3" class="node">
<title>Node3</title>
<g id="a_node3"><a xlink:title=" ">
<polygon fill="#e0e0e0" stroke="#999999" points="549.02,-19 493.02,-19 493.02,0 549.02,0 549.02,-19"/>
<text text-anchor="middle" x="521.02" y="-7" font-family="Helvetica,sans-Serif" font-size="10.00">stdbool.h</text>
</a>
</g>
</g>
<!-- Node1&#45;&gt;Node3 -->
<g id="edge2" class="edge">
<title>Node1&#45;&gt;Node3</title>
<path fill="none" stroke="#63b8ff" d="M328.28,-169.92C388.21,-164.84 478.5,-153.3 502.02,-129 527.42,-102.75 526.94,-56.88 524.11,-30.57"/>
<polygon fill="#63b8ff" stroke="#63b8ff" points="527.62,-30.36 522.84,-20.9 520.68,-31.27 527.62,-30.36"/>
</g>
<!-- Node4 -->
<g id="node4" class="node">
<title>Node4</title>
<g id="a_node4"><a xlink:title=" ">
<polygon fill="#e0e0e0" stroke="#999999" points="137.52,-129 92.52,-129 92.52,-110 137.52,-110 137.52,-129"/>
<text text-anchor="middle" x="115.02" y="-117" font-family="Helvetica,sans-Serif" font-size="10.00">stdio.h</text>
</a>
</g>
</g>
<!-- Node1&#45;&gt;Node4 -->
<g id="edge3" class="edge">
<title>Node1&#45;&gt;Node4</title>
<path fill="none" stroke="#63b8ff" d="M246.21,-164.51C219.32,-155.49 177.82,-141.57 148.71,-131.8"/>
<polygon fill="#63b8ff" stroke="#63b8ff" points="149.87,-128.5 139.28,-128.64 147.64,-135.14 149.87,-128.5"/>
</g>
<!-- Node5 -->
<g id="node5" class="node">
<title>Node5</title>
<g id="a_node5"><a xlink:title=" ">
<polygon fill="#e0e0e0" stroke="#999999" points="222.02,-129 156.02,-129 156.02,-110 222.02,-110 222.02,-129"/>
<text text-anchor="middle" x="189.02" y="-117" font-family="Helvetica,sans-Serif" font-size="10.00">sys/cdefs.h</text>
</a>
</g>
</g>
<!-- Node1&#45;&gt;Node5 -->
<g id="edge4" class="edge">
<title>Node1&#45;&gt;Node5</title>
<path fill="none" stroke="#63b8ff" d="M258.77,-164.51C246.14,-156.54 227.46,-144.75 212.6,-135.38"/>
<polygon fill="#63b8ff" stroke="#63b8ff" points="214.66,-132.54 204.34,-130.17 210.93,-138.46 214.66,-132.54"/>
</g>
<!-- Node6 -->
<g id="node6" class="node">
<title>Node6</title>
<g id="a_node6"><a xlink:title=" ">
<polygon fill="#e0e0e0" stroke="#999999" points="305.52,-129 240.52,-129 240.52,-110 305.52,-110 305.52,-129"/>
<text text-anchor="middle" x="273.02" y="-117" font-family="Helvetica,sans-Serif" font-size="10.00">sys/types.h</text>
</a>
</g>
</g>
<!-- Node1&#45;&gt;Node6 -->
<g id="edge5" class="edge">
<title>Node1&#45;&gt;Node6</title>
<path fill="none" stroke="#63b8ff" d="M273.02,-164.75C273.02,-158.27 273.02,-149.16 273.02,-140.9"/>
<polygon fill="#63b8ff" stroke="#63b8ff" points="276.52,-140.96 273.02,-130.96 269.52,-140.96 276.52,-140.96"/>
</g>
<!-- Node7 -->
<g id="node7" class="node">
<title>Node7</title>
<g id="a_node7"><a xlink:title=" ">
<polygon fill="#e0e0e0" stroke="#999999" points="408.52,-129 323.52,-129 323.52,-110 408.52,-110 408.52,-129"/>
<text text-anchor="middle" x="366.02" y="-117" font-family="Helvetica,sans-Serif" font-size="10.00">hardware/gpio.h</text>
</a>
</g>
</g>
<!-- Node1&#45;&gt;Node7 -->
<g id="edge6" class="edge">
<title>Node1&#45;&gt;Node7</title>
<path fill="none" stroke="#63b8ff" d="M288.79,-164.51C303.04,-156.39 324.25,-144.3 340.84,-134.85"/>
<polygon fill="#63b8ff" stroke="#63b8ff" points="342.2,-138.1 349.16,-130.11 338.74,-132.02 342.2,-138.1"/>
</g>
<!-- Node8 -->
<g id="node8" class="node">
<title>Node8</title>
<g id="a_node8"><a xlink:title=" ">
<polygon fill="#e0e0e0" stroke="#999999" points="493.02,-129 427.02,-129 427.02,-110 493.02,-110 493.02,-129"/>
<text text-anchor="middle" x="460.02" y="-117" font-family="Helvetica,sans-Serif" font-size="10.00">pico/stdio.h</text>
</a>
</g>
</g>
<!-- Node1&#45;&gt;Node8 -->
<g id="edge7" class="edge">
<title>Node1&#45;&gt;Node8</title>
<path fill="none" stroke="#63b8ff" d="M304.74,-164.51C335.86,-155.69 383.51,-142.18 417.82,-132.46"/>
<polygon fill="#63b8ff" stroke="#63b8ff" points="418.33,-135.95 427,-129.86 416.42,-129.22 418.33,-135.95"/>
</g>
<!-- Node9 -->
<g id="node9" class="node">
<title>Node9</title>
<g id="a_node9"><a xlink:href="motor__control_8h.html" target="_top" xlink:title="Header file for motor control drivers.">
<polygon fill="white" stroke="#666666" points="692.52,-129 581.52,-129 581.52,-110 692.52,-110 692.52,-129"/>
<text text-anchor="middle" x="637.02" y="-117" font-family="Helvetica,sans-Serif" font-size="10.00">motor/motor_control.h</text>
</a>
</g>
</g>
<!-- Node1&#45;&gt;Node9 -->
<g id="edge8" class="edge">
<title>Node1&#45;&gt;Node9</title>
<path fill="none" stroke="#63b8ff" d="M328.3,-165.45C393.11,-156.01 500.47,-140.38 569.97,-130.26"/>
<polygon fill="#63b8ff" stroke="#63b8ff" points="570.32,-133.75 579.71,-128.84 569.31,-126.82 570.32,-133.75"/>
</g>
<!-- Node12 -->
<g id="node12" class="node">
<title>Node12</title>
<g id="a_node12"><a xlink:href="pid_8h.html" target="_top" xlink:title=" ">
<polygon fill="white" stroke="#666666" points="74.52,-129 21.52,-129 21.52,-110 74.52,-110 74.52,-129"/>
<text text-anchor="middle" x="48.02" y="-117" font-family="Helvetica,sans-Serif" font-size="10.00">pid/pid.h</text>
</a>
</g>
</g>
<!-- Node1&#45;&gt;Node12 -->
<g id="edge12" class="edge">
<title>Node1&#45;&gt;Node12</title>
<path fill="none" stroke="#63b8ff" d="M234.42,-164.56C198.34,-156.18 142.67,-143.19 85.78,-129.64"/>
<polygon fill="#63b8ff" stroke="#63b8ff" points="86.78,-126.29 76.24,-127.37 85.15,-133.09 86.78,-126.29"/>
</g>
<!-- Node9&#45;&gt;Node3 -->
<g id="edge9" class="edge">
<title>Node9&#45;&gt;Node3</title>
<path fill="none" stroke="#63b8ff" d="M662.83,-109.51C691.06,-98.26 730.05,-77.72 712.02,-55 693.5,-31.67 611.07,-19.44 560.74,-14.04"/>
<polygon fill="#63b8ff" stroke="#63b8ff" points="561.12,-10.56 550.81,-13.02 560.4,-17.52 561.12,-10.56"/>
</g>
<!-- Node10 -->
<g id="node10" class="node">
<title>Node10</title>
<g id="a_node10"><a xlink:title=" ">
<polygon fill="#e0e0e0" stroke="#999999" points="617.02,-74 549.02,-74 549.02,-55 617.02,-55 617.02,-74"/>
<text text-anchor="middle" x="583.02" y="-62" font-family="Helvetica,sans-Serif" font-size="10.00">pico/stdlib.h</text>
</a>
</g>
</g>
<!-- Node9&#45;&gt;Node10 -->
<g id="edge10" class="edge">
<title>Node9&#45;&gt;Node10</title>
<path fill="none" stroke="#63b8ff" d="M628.1,-109.75C620.56,-102.35 609.55,-91.54 600.29,-82.45"/>
<polygon fill="#63b8ff" stroke="#63b8ff" points="602.8,-80.01 593.21,-75.5 597.89,-85 602.8,-80.01"/>
</g>
<!-- Node11 -->
<g id="node11" class="node">
<title>Node11</title>
<g id="a_node11"><a xlink:title=" ">
<polygon fill="#e0e0e0" stroke="#999999" points="703.02,-74 635.02,-74 635.02,-55 703.02,-55 703.02,-74"/>
<text text-anchor="middle" x="669.02" y="-62" font-family="Helvetica,sans-Serif" font-size="10.00">pico/types.h</text>
</a>
</g>
</g>
<!-- Node9&#45;&gt;Node11 -->
<g id="edge11" class="edge">
<title>Node9&#45;&gt;Node11</title>
<path fill="none" stroke="#63b8ff" d="M642.3,-109.75C646.49,-102.81 652.5,-92.86 657.75,-84.16"/>
<polygon fill="#63b8ff" stroke="#63b8ff" points="660.66,-86.11 662.84,-75.74 654.67,-82.49 660.66,-86.11"/>
</g>
<!-- Node13 -->
<g id="node13" class="node">
<title>Node13</title>
<g id="a_node13"><a xlink:href="maze_8h.html" target="_top" xlink:title="Header file for the maze data structure and public functions.">
<polygon fill="white" stroke="#666666" points="118.52,-74 21.52,-74 21.52,-55 118.52,-55 118.52,-74"/>
<text text-anchor="middle" x="70.02" y="-62" font-family="Helvetica,sans-Serif" font-size="10.00">pathfinding/maze.h</text>
</a>
</g>
</g>
<!-- Node12&#45;&gt;Node13 -->
<g id="edge13" class="edge">
<title>Node12&#45;&gt;Node13</title>
<path fill="none" stroke="#63b8ff" d="M51.65,-109.75C54.43,-103.04 58.39,-93.52 61.91,-85.02"/>
<polygon fill="#63b8ff" stroke="#63b8ff" points="65.12,-86.42 65.72,-75.84 58.66,-83.73 65.12,-86.42"/>
</g>
<!-- Node13&#45;&gt;Node2 -->
<g id="edge14" class="edge">
<title>Node13&#45;&gt;Node2</title>
<path fill="none" stroke="#63b8ff" d="M63.74,-54.75C58.66,-47.66 51.32,-37.42 44.98,-28.59"/>
<polygon fill="#63b8ff" stroke="#63b8ff" points="47.98,-26.76 39.31,-20.67 42.29,-30.84 47.98,-26.76"/>
</g>
<!-- Node13&#45;&gt;Node3 -->
<g id="edge15" class="edge">
<title>Node13&#45;&gt;Node3</title>
<path fill="none" stroke="#63b8ff" d="M118.71,-57.78C208.48,-47.23 398.43,-24.91 481.13,-15.19"/>
<polygon fill="#63b8ff" stroke="#63b8ff" points="481.51,-18.67 491.03,-14.02 480.69,-11.72 481.51,-18.67"/>
</g>
</g>
</svg>
