<?xml version="1.0" encoding="UTF-8" standalone="no"?>
<!DOCTYPE svg PUBLIC "-//W3C//DTD SVG 1.1//EN"
 "http://www.w3.org/Graphics/SVG/1.1/DTD/svg11.dtd">
<!-- Generated by graphviz version 7.0.5 (20221223.1930)
 -->
<!-- Title: src/drivers/irline/main.c Pages: 1 -->
<svg width="350pt" height="203pt"
 viewBox="0.00 0.00 350.00 203.00" xmlns="http://www.w3.org/2000/svg" xmlns:xlink="http://www.w3.org/1999/xlink">
<g id="graph0" class="graph" transform="scale(1 1) rotate(0) translate(4 199)">
<title>src/drivers/irline/main.c</title>
<!-- Node1 -->
<g id="node1" class="node">
<title>Node1</title>
<g id="a_node1"><a xlink:title="Demonstration for the IR sensor driver.">
<polygon fill="#999999" stroke="#666666" points="211.5,-195 125.5,-195 125.5,-165 211.5,-165 211.5,-195"/>
<text text-anchor="start" x="133.5" y="-183" font-family="Helvetica,sans-Serif" font-size="10.00">src/drivers/irline</text>
<text text-anchor="middle" x="168.5" y="-172" font-family="Helvetica,sans-Serif" font-size="10.00">/main.c</text>
</a>
</g>
</g>
<!-- Node2 -->
<g id="node2" class="node">
<title>Node2</title>
<g id="a_node2"><a xlink:title=" ">
<polygon fill="#e0e0e0" stroke="#999999" points="45,-129 0,-129 0,-110 45,-110 45,-129"/>
<text text-anchor="middle" x="22.5" y="-117" font-family="Helvetica,sans-Serif" font-size="10.00">stdio.h</text>
</a>
</g>
</g>
<!-- Node1&#45;&gt;Node2 -->
<g id="edge1" class="edge">
<title>Node1&#45;&gt;Node2</title>
<path fill="none" stroke="#63b8ff" d="M132.41,-164.54C108.75,-155.06 78.08,-142.77 55.15,-133.58"/>
<polygon fill="#63b8ff" stroke="#63b8ff" points="56.57,-130.38 45.98,-129.91 53.96,-136.88 56.57,-130.38"/>
</g>
<!-- Node3 -->
<g id="node3" class="node">
<title>Node3</title>
<g id="a_node3"><a xlink:title=" ">
<polygon fill="#e0e0e0" stroke="#999999" points="110,-129 63,-129 63,-110 110,-110 110,-129"/>
<text text-anchor="middle" x="86.5" y="-117" font-family="Helvetica,sans-Serif" font-size="10.00">stdlib.h</text>
</a>
</g>
</g>
<!-- Node1&#45;&gt;Node3 -->
<g id="edge2" class="edge">
<title>Node1&#45;&gt;Node3</title>
<path fill="none" stroke="#63b8ff" d="M148.23,-164.54C135.96,-155.78 120.32,-144.63 107.85,-135.73"/>
<polygon fill="#63b8ff" stroke="#63b8ff" points="110.07,-133.01 99.89,-130.05 106,-138.71 110.07,-133.01"/>
</g>
<!-- Node4 -->
<g id="node4" class="node">
<title>Node4</title>
<g id="a_node4"><a xlink:title=" ">
<polygon fill="#e0e0e0" stroke="#999999" points="234.5,-19 186.5,-19 186.5,0 234.5,0 234.5,-19"/>
<text text-anchor="middle" x="210.5" y="-7" font-family="Helvetica,sans-Serif" font-size="10.00">stdint.h</text>
</a>
</g>
</g>
<!-- Node1&#45;&gt;Node4 -->
<g id="edge3" class="edge">
<title>Node1&#45;&gt;Node4</title>
<path fill="none" stroke="#63b8ff" d="M162.86,-164.58C158.13,-150.52 152.86,-128.6 157.5,-110 165.14,-79.4 184.17,-47.89 197.21,-28.75"/>
<polygon fill="#63b8ff" stroke="#63b8ff" points="199.98,-30.9 202.87,-20.71 194.25,-26.88 199.98,-30.9"/>
</g>
<!-- Node5 -->
<g id="node5" class="node">
<title>Node5</title>
<g id="a_node5"><a xlink:title=" ">
<polygon fill="#e0e0e0" stroke="#999999" points="232.5,-129 166.5,-129 166.5,-110 232.5,-110 232.5,-129"/>
<text text-anchor="middle" x="199.5" y="-117" font-family="Helvetica,sans-Serif" font-size="10.00">pico/stdio.h</text>
</a>
</g>
</g>
<!-- Node1&#45;&gt;Node5 -->
<g id="edge4" class="edge">
<title>Node1&#45;&gt;Node5</title>
<path fill="none" stroke="#63b8ff" d="M176.16,-164.54C180.21,-156.91 185.21,-147.46 189.55,-139.27"/>
<polygon fill="#63b8ff" stroke="#63b8ff" points="192.6,-140.99 194.19,-130.51 186.42,-137.71 192.6,-140.99"/>
</g>
<!-- Node6 -->
<g id="node6" class="node">
<title>Node6</title>
<g id="a_node6"><a xlink:href="ir__sensor_8h.html" target="_top" xlink:title="Header file for the IR sensor driver.">
<polygon fill="white" stroke="#666666" points="314.5,-129 250.5,-129 250.5,-110 314.5,-110 314.5,-129"/>
<text text-anchor="middle" x="282.5" y="-117" font-family="Helvetica,sans-Serif" font-size="10.00">ir_sensor.h</text>
</a>
</g>
</g>
<!-- Node1&#45;&gt;Node6 -->
<g id="edge5" class="edge">
<title>Node1&#45;&gt;Node6</title>
<path fill="none" stroke="#63b8ff" d="M196.68,-164.54C214.48,-155.4 237.37,-143.66 255.03,-134.6"/>
<polygon fill="#63b8ff" stroke="#63b8ff" points="256.62,-137.72 263.91,-130.04 253.42,-131.49 256.62,-137.72"/>
</g>
<!-- Node8 -->
<g id="node8" class="node">
<title>Node8</title>
<g id="a_node8"><a xlink:href="barcode_8h.html" target="_top" xlink:title="Header file for the barcode driver.">
<polygon fill="white" stroke="#666666" points="342,-74 283,-74 283,-55 342,-55 342,-74"/>
<text text-anchor="middle" x="312.5" y="-62" font-family="Helvetica,sans-Serif" font-size="10.00">barcode.h</text>
</a>
</g>
</g>
<!-- Node1&#45;&gt;Node8 -->
<g id="edge9" class="edge">
<title>Node1&#45;&gt;Node8</title>
<path fill="none" stroke="#63b8ff" d="M211.93,-178.15C248.3,-174.86 298.2,-163.74 323.5,-129 332.86,-116.14 328.43,-97.98 322.64,-84.37"/>
<polygon fill="#63b8ff" stroke="#63b8ff" points="325.9,-83.06 318.39,-75.59 319.6,-86.11 325.9,-83.06"/>
</g>
<!-- Node7 -->
<g id="node7" class="node">
<title>Node7</title>
<g id="a_node7"><a xlink:title=" ">
<polygon fill="#e0e0e0" stroke="#999999" points="264.5,-74 196.5,-74 196.5,-55 264.5,-55 264.5,-74"/>
<text text-anchor="middle" x="230.5" y="-62" font-family="Helvetica,sans-Serif" font-size="10.00">pico/types.h</text>
</a>
</g>
</g>
<!-- Node6&#45;&gt;Node7 -->
<g id="edge6" class="edge">
<title>Node6&#45;&gt;Node7</title>
<path fill="none" stroke="#63b8ff" d="M273.91,-109.75C266.66,-102.35 256.05,-91.54 247.13,-82.45"/>
<polygon fill="#63b8ff" stroke="#63b8ff" points="249.84,-80.21 240.33,-75.52 244.84,-85.11 249.84,-80.21"/>
</g>
<!-- Node6&#45;&gt;Node8 -->
<g id="edge7" class="edge">
<title>Node6&#45;&gt;Node8</title>
<path fill="none" stroke="#63b8ff" d="M287.45,-109.75C291.34,-102.88 296.89,-93.08 301.78,-84.45"/>
<polygon fill="#63b8ff" stroke="#63b8ff" points="304.81,-86.19 306.69,-75.76 298.72,-82.74 304.81,-86.19"/>
</g>
<!-- Node8&#45;&gt;Node4 -->
<g id="edge8" class="edge">
<title>Node8&#45;&gt;Node4</title>
<path fill="none" stroke="#63b8ff" d="M295.2,-54.51C279.42,-46.31 255.86,-34.07 237.59,-24.58"/>
<polygon fill="#63b8ff" stroke="#63b8ff" points="239.38,-21.56 228.89,-20.06 236.15,-27.77 239.38,-21.56"/>
</g>
</g>
</svg>
