<?xml version="1.0" encoding="UTF-8" standalone="no"?>
<!DOCTYPE svg PUBLIC "-//W3C//DTD SVG 1.1//EN"
 "http://www.w3.org/Graphics/SVG/1.1/DTD/svg11.dtd">
<!-- Generated by graphviz version 7.0.5 (20221223.1930)
 -->
<!-- Title: encoder_tick_isr Pages: 1 -->
<svg width="523pt" height="138pt"
 viewBox="0.00 0.00 523.00 138.00" xmlns="http://www.w3.org/2000/svg" xmlns:xlink="http://www.w3.org/1999/xlink">
<g id="graph0" class="graph" transform="scale(1 1) rotate(0) translate(4 134)">
<title>encoder_tick_isr</title>
<!-- Node1 -->
<g id="node1" class="node">
<title>Node1</title>
<g id="a_node1"><a xlink:title="Interrupt callback function on rising edge.">
<polygon fill="#999999" stroke="#666666" points="88,-74 0,-74 0,-55 88,-55 88,-74"/>
<text text-anchor="middle" x="44" y="-62" font-family="Helvetica,sans-Serif" font-size="10.00">encoder_tick_isr</text>
</a>
</g>
</g>
<!-- Node1&#45;&gt;Node1 -->
<g id="edge1" class="edge">
<title>Node1&#45;&gt;Node1</title>
<path fill="none" stroke="#63b8ff" d="M24.2,-74.37C15.16,-82.94 21.76,-92 44,-92 56.16,-92 63.65,-89.29 66.45,-85.43"/>
<polygon fill="#63b8ff" stroke="#63b8ff" points="69.89,-84.75 64.16,-75.84 63.08,-86.38 69.89,-84.75"/>
</g>
<!-- Node2 -->
<g id="node2" class="node">
<title>Node2</title>
<g id="a_node2"><a xlink:href="pid_8c.html#a71879f5750062bb9d1e51da2a02d626d" target="_top" xlink:title="Function to turn the car and move in a given direction.">
<polygon fill="white" stroke="#666666" points="217,-74 124,-74 124,-55 217,-55 217,-74"/>
<text text-anchor="middle" x="170.5" y="-62" font-family="Helvetica,sans-Serif" font-size="10.00">pid_navigate_turn</text>
</a>
</g>
</g>
<!-- Node1&#45;&gt;Node2 -->
<g id="edge2" class="edge">
<title>Node1&#45;&gt;Node2</title>
<path fill="none" stroke="#63b8ff" d="M88.19,-64.5C96.02,-64.5 104.3,-64.5 112.45,-64.5"/>
<polygon fill="#63b8ff" stroke="#63b8ff" points="112.33,-68 122.33,-64.5 112.33,-61 112.33,-68"/>
</g>
<!-- Node3 -->
<g id="node3" class="node">
<title>Node3</title>
<g id="a_node3"><a xlink:href="motor__control_8c.html#aa0ac4ae2f8c20282dec6b8e443fd6666" target="_top" xlink:title="A function to move the car forward.">
<polygon fill="white" stroke="#666666" points="361,-130 253,-130 253,-111 361,-111 361,-130"/>
<text text-anchor="middle" x="307" y="-118" font-family="Helvetica,sans-Serif" font-size="10.00">motor_move_forward</text>
</a>
</g>
</g>
<!-- Node2&#45;&gt;Node3 -->
<g id="edge3" class="edge">
<title>Node2&#45;&gt;Node3</title>
<path fill="none" stroke="#63b8ff" d="M191.33,-74.49C207.67,-82.53 231.56,-93.89 253,-102.5 256.63,-103.96 260.42,-105.4 264.24,-106.8"/>
<polygon fill="#63b8ff" stroke="#63b8ff" points="262.94,-110.05 273.54,-110.09 265.28,-103.45 262.94,-110.05"/>
</g>
<!-- Node6 -->
<g id="node6" class="node">
<title>Node6</title>
<g id="a_node6"><a xlink:href="motor__control_8c.html#a24063f2aae5b4a3eb6b33dc2eea150dd" target="_top" xlink:title="A function to turn the car left.">
<polygon fill="white" stroke="#666666" points="348,-93 266,-93 266,-74 348,-74 348,-93"/>
<text text-anchor="middle" x="307" y="-81" font-family="Helvetica,sans-Serif" font-size="10.00">motor_turn_left</text>
</a>
</g>
</g>
<!-- Node2&#45;&gt;Node6 -->
<g id="edge6" class="edge">
<title>Node2&#45;&gt;Node6</title>
<path fill="none" stroke="#63b8ff" d="M217.41,-70.99C229.29,-72.66 242.16,-74.48 254.32,-76.2"/>
<polygon fill="#63b8ff" stroke="#63b8ff" points="253.8,-79.66 264.19,-77.59 254.78,-72.73 253.8,-79.66"/>
</g>
<!-- Node7 -->
<g id="node7" class="node">
<title>Node7</title>
<g id="a_node7"><a xlink:href="motor__control_8c.html#a63c73ae82a6d47bc620608fc752b83f9" target="_top" xlink:title="A function to turn the car right.">
<polygon fill="white" stroke="#666666" points="350.5,-56 263.5,-56 263.5,-37 350.5,-37 350.5,-56"/>
<text text-anchor="middle" x="307" y="-44" font-family="Helvetica,sans-Serif" font-size="10.00">motor_turn_right</text>
</a>
</g>
</g>
<!-- Node2&#45;&gt;Node7 -->
<g id="edge9" class="edge">
<title>Node2&#45;&gt;Node7</title>
<path fill="none" stroke="#63b8ff" d="M217.41,-58.36C228.48,-56.87 240.42,-55.28 251.83,-53.75"/>
<polygon fill="#63b8ff" stroke="#63b8ff" points="252.07,-57.25 261.51,-52.45 251.14,-50.31 252.07,-57.25"/>
</g>
<!-- Node8 -->
<g id="node8" class="node">
<title>Node8</title>
<g id="a_node8"><a xlink:href="pid_8c.html#a2df167fb87eed8f206d2231abc2b7610" target="_top" xlink:title="Sets up pid struct(s).">
<polygon fill="white" stroke="#666666" points="348.5,-19 265.5,-19 265.5,0 348.5,0 348.5,-19"/>
<text text-anchor="middle" x="307" y="-7" font-family="Helvetica,sans-Serif" font-size="10.00">pid_init_structs</text>
</a>
</g>
</g>
<!-- Node2&#45;&gt;Node8 -->
<g id="edge12" class="edge">
<title>Node2&#45;&gt;Node8</title>
<path fill="none" stroke="#63b8ff" d="M192.03,-54.5C208.36,-46.71 231.9,-35.85 253,-27.5 256.63,-26.06 260.43,-24.63 264.26,-23.24"/>
<polygon fill="#63b8ff" stroke="#63b8ff" points="265.29,-26.59 273.56,-19.96 262.96,-19.99 265.29,-26.59"/>
</g>
<!-- Node4 -->
<g id="node4" class="node">
<title>Node4</title>
<g id="a_node4"><a xlink:href="motor__control_8c.html#a3dc0491deae0e443306e8695d7879daf" target="_top" xlink:title="A function to update the direction of the motor&#39;s rotation.">
<polygon fill="white" stroke="#666666" points="515,-111 397,-111 397,-92 515,-92 515,-111"/>
<text text-anchor="middle" x="456" y="-99" font-family="Helvetica,sans-Serif" font-size="10.00">motor_update_direction</text>
</a>
</g>
</g>
<!-- Node3&#45;&gt;Node4 -->
<g id="edge4" class="edge">
<title>Node3&#45;&gt;Node4</title>
<path fill="none" stroke="#63b8ff" d="M361.49,-113.59C369.24,-112.58 377.32,-111.54 385.34,-110.5"/>
<polygon fill="#63b8ff" stroke="#63b8ff" points="385.62,-114 395.09,-109.24 384.72,-107.05 385.62,-114"/>
</g>
<!-- Node5 -->
<g id="node5" class="node">
<title>Node5</title>
<g id="a_node5"><a xlink:href="motor__control_8c.html#a38f59b6b48b6a4d0dd583eef8719e1a3" target="_top" xlink:title="A function to update the PWM duty cycle and wrap value.">
<polygon fill="white" stroke="#666666" points="507,-74 405,-74 405,-55 507,-55 507,-74"/>
<text text-anchor="middle" x="456" y="-62" font-family="Helvetica,sans-Serif" font-size="10.00">motor_update_pwm</text>
</a>
</g>
</g>
<!-- Node3&#45;&gt;Node5 -->
<g id="edge5" class="edge">
<title>Node3&#45;&gt;Node5</title>
<path fill="none" stroke="#63b8ff" d="M339.98,-110.55C346.98,-108.12 354.31,-105.38 361,-102.5 377.62,-95.35 380.34,-90.56 397,-83.5 401.39,-81.64 406.03,-79.84 410.69,-78.15"/>
<polygon fill="#63b8ff" stroke="#63b8ff" points="411.78,-81.48 420.09,-74.9 409.49,-74.86 411.78,-81.48"/>
</g>
<!-- Node6&#45;&gt;Node4 -->
<g id="edge7" class="edge">
<title>Node6&#45;&gt;Node4</title>
<path fill="none" stroke="#63b8ff" d="M348.17,-88.42C359.74,-89.84 372.71,-91.42 385.52,-92.99"/>
<polygon fill="#63b8ff" stroke="#63b8ff" points="384.84,-96.43 395.19,-94.18 385.69,-89.49 384.84,-96.43"/>
</g>
<!-- Node6&#45;&gt;Node5 -->
<g id="edge8" class="edge">
<title>Node6&#45;&gt;Node5</title>
<path fill="none" stroke="#63b8ff" d="M348.17,-78.31C362.19,-76.5 378.27,-74.42 393.62,-72.43"/>
<polygon fill="#63b8ff" stroke="#63b8ff" points="393.66,-75.96 403.13,-71.2 392.76,-69.02 393.66,-75.96"/>
</g>
<!-- Node7&#45;&gt;Node4 -->
<g id="edge10" class="edge">
<title>Node7&#45;&gt;Node4</title>
<path fill="none" stroke="#63b8ff" d="M337.68,-56.43C345.35,-59.19 353.54,-62.31 361,-65.5 377.45,-72.53 380.4,-76.83 397,-83.5 400.85,-85.05 404.88,-86.54 408.95,-87.97"/>
<polygon fill="#63b8ff" stroke="#63b8ff" points="407.68,-91.23 418.28,-91.08 409.9,-84.59 407.68,-91.23"/>
</g>
<!-- Node7&#45;&gt;Node5 -->
<g id="edge11" class="edge">
<title>Node7&#45;&gt;Node5</title>
<path fill="none" stroke="#63b8ff" d="M350.91,-51.75C364.15,-53.38 379.01,-55.19 393.25,-56.94"/>
<polygon fill="#63b8ff" stroke="#63b8ff" points="392.65,-60.39 403,-58.13 393.5,-53.44 392.65,-60.39"/>
</g>
</g>
</svg>
