<?xml version="1.0" encoding="UTF-8" standalone="no"?>
<!DOCTYPE svg PUBLIC "-//W3C//DTD SVG 1.1//EN"
 "http://www.w3.org/Graphics/SVG/1.1/DTD/svg11.dtd">
<!-- Generated by graphviz version 7.0.5 (20221223.1930)
 -->
<!-- Title: main/driver/magnetometer/main.c Pages: 1 -->
<svg width="360pt" height="93pt"
 viewBox="0.00 0.00 359.50 93.00" xmlns="http://www.w3.org/2000/svg" xmlns:xlink="http://www.w3.org/1999/xlink">
<g id="graph0" class="graph" transform="scale(1 1) rotate(0) translate(4 89)">
<title>main/driver/magnetometer/main.c</title>
<!-- Node1 -->
<g id="node1" class="node">
<title>Node1</title>
<g id="a_node1"><a xlink:title="Demonstration for the magnetometer driver.">
<polygon fill="#999999" stroke="#666666" points="212.5,-85 82.5,-85 82.5,-55 212.5,-55 212.5,-85"/>
<text text-anchor="start" x="90.5" y="-73" font-family="Helvetica,sans-Serif" font-size="10.00">main/driver/magnetometer</text>
<text text-anchor="middle" x="147.5" y="-62" font-family="Helvetica,sans-Serif" font-size="10.00">/main.c</text>
</a>
</g>
</g>
<!-- Node2 -->
<g id="node2" class="node">
<title>Node2</title>
<g id="a_node2"><a xlink:title=" ">
<polygon fill="#e0e0e0" stroke="#999999" points="45,-19 0,-19 0,0 45,0 45,-19"/>
<text text-anchor="middle" x="22.5" y="-7" font-family="Helvetica,sans-Serif" font-size="10.00">stdio.h</text>
</a>
</g>
</g>
<!-- Node1&#45;&gt;Node2 -->
<g id="edge1" class="edge">
<title>Node1&#45;&gt;Node2</title>
<path fill="none" stroke="#63b8ff" d="M116.6,-54.54C96.81,-45.28 71.27,-33.33 51.8,-24.21"/>
<polygon fill="#63b8ff" stroke="#63b8ff" points="53.31,-21.06 42.77,-19.99 50.35,-27.4 53.31,-21.06"/>
</g>
<!-- Node3 -->
<g id="node3" class="node">
<title>Node3</title>
<g id="a_node3"><a xlink:title=" ">
<polygon fill="#e0e0e0" stroke="#999999" points="131.5,-19 63.5,-19 63.5,0 131.5,0 131.5,-19"/>
<text text-anchor="middle" x="97.5" y="-7" font-family="Helvetica,sans-Serif" font-size="10.00">pico/stdlib.h</text>
</a>
</g>
</g>
<!-- Node1&#45;&gt;Node3 -->
<g id="edge2" class="edge">
<title>Node1&#45;&gt;Node3</title>
<path fill="none" stroke="#63b8ff" d="M135.14,-54.54C128.25,-46.48 119.62,-36.38 112.36,-27.89"/>
<polygon fill="#63b8ff" stroke="#63b8ff" points="115.06,-25.65 105.9,-20.33 109.73,-30.2 115.06,-25.65"/>
</g>
<!-- Node4 -->
<g id="node4" class="node">
<title>Node4</title>
<g id="a_node4"><a xlink:title=" ">
<polygon fill="#e0e0e0" stroke="#999999" points="247,-19 150,-19 150,0 247,0 247,-19"/>
<text text-anchor="middle" x="198.5" y="-7" font-family="Helvetica,sans-Serif" font-size="10.00">pico/cyw43_arch.h</text>
</a>
</g>
</g>
<!-- Node1&#45;&gt;Node4 -->
<g id="edge3" class="edge">
<title>Node1&#45;&gt;Node4</title>
<path fill="none" stroke="#63b8ff" d="M160.11,-54.54C167.21,-46.39 176.13,-36.16 183.58,-27.61"/>
<polygon fill="#63b8ff" stroke="#63b8ff" points="186.01,-30.15 189.94,-20.32 180.73,-25.55 186.01,-30.15"/>
</g>
<!-- Node5 -->
<g id="node5" class="node">
<title>Node5</title>
<g id="a_node5"><a xlink:href="magnetometer_8h.html" target="_top" xlink:title="Header file for the magnetometer driver.">
<polygon fill="white" stroke="#666666" points="351.5,-19 265.5,-19 265.5,0 351.5,0 351.5,-19"/>
<text text-anchor="middle" x="308.5" y="-7" font-family="Helvetica,sans-Serif" font-size="10.00">magnetometer.h</text>
</a>
</g>
</g>
<!-- Node1&#45;&gt;Node5 -->
<g id="edge4" class="edge">
<title>Node1&#45;&gt;Node5</title>
<path fill="none" stroke="#63b8ff" d="M187.3,-54.54C213.74,-44.93 248.14,-32.43 273.53,-23.21"/>
<polygon fill="#63b8ff" stroke="#63b8ff" points="274.53,-26.57 282.73,-19.86 272.14,-19.99 274.53,-26.57"/>
</g>
</g>
</svg>
