<?xml version="1.0" encoding="UTF-8" standalone="no"?>
<!DOCTYPE svg PUBLIC "-//W3C//DTD SVG 1.1//EN"
 "http://www.w3.org/Graphics/SVG/1.1/DTD/svg11.dtd">
<!-- Generated by graphviz version 7.0.5 (20221223.1930)
 -->
<!-- Title: src/drivers/irline/main.c Pages: 1 -->
<svg width="380pt" height="203pt"
 viewBox="0.00 0.00 379.50 203.00" xmlns="http://www.w3.org/2000/svg" xmlns:xlink="http://www.w3.org/1999/xlink">
<g id="graph0" class="graph" transform="scale(1 1) rotate(0) translate(4 199)">
<title>src/drivers/irline/main.c</title>
<!-- Node1 -->
<g id="node1" class="node">
<title>Node1</title>
<g id="a_node1"><a xlink:title="Demonstration for the IR sensor driver.">
<polygon fill="#999999" stroke="#666666" points="211.5,-195 125.5,-195 125.5,-165 211.5,-165 211.5,-195"/>
<text text-anchor="start" x="133.5" y="-183" font-family="Helvetica,sans-Serif" font-size="10.00">src/drivers/irline</text>
<text text-anchor="middle" x="168.5" y="-172" font-family="Helvetica,sans-Serif" font-size="10.00">/main.c</text>
</a>
</g>
</g>
<!-- Node2 -->
<g id="node2" class="node">
<title>Node2</title>
<g id="a_node2"><a xlink:title=" ">
<polygon fill="#e0e0e0" stroke="#999999" points="45,-129 0,-129 0,-110 45,-110 45,-129"/>
<text text-anchor="middle" x="22.5" y="-117" font-family="Helvetica,sans-Serif" font-size="10.00">stdio.h</text>
</a>
</g>
</g>
<!-- Node1&#45;&gt;Node2 -->
<g id="edge1" class="edge">
<title>Node1&#45;&gt;Node2</title>
<path fill="none" stroke="#63b8ff" d="M132.41,-164.54C108.75,-155.06 78.08,-142.77 55.15,-133.58"/>
<polygon fill="#63b8ff" stroke="#63b8ff" points="56.57,-130.38 45.98,-129.91 53.96,-136.88 56.57,-130.38"/>
</g>
<!-- Node3 -->
<g id="node3" class="node">
<title>Node3</title>
<g id="a_node3"><a xlink:title=" ">
<polygon fill="#e0e0e0" stroke="#999999" points="110,-129 63,-129 63,-110 110,-110 110,-129"/>
<text text-anchor="middle" x="86.5" y="-117" font-family="Helvetica,sans-Serif" font-size="10.00">stdlib.h</text>
</a>
</g>
</g>
<!-- Node1&#45;&gt;Node3 -->
<g id="edge2" class="edge">
<title>Node1&#45;&gt;Node3</title>
<path fill="none" stroke="#63b8ff" d="M148.23,-164.54C135.96,-155.78 120.32,-144.63 107.85,-135.73"/>
<polygon fill="#63b8ff" stroke="#63b8ff" points="110.07,-133.01 99.89,-130.05 106,-138.71 110.07,-133.01"/>
</g>
<!-- Node4 -->
<g id="node4" class="node">
<title>Node4</title>
<g id="a_node4"><a xlink:title=" ">
<polygon fill="#e0e0e0" stroke="#999999" points="240.5,-19 192.5,-19 192.5,0 240.5,0 240.5,-19"/>
<text text-anchor="middle" x="216.5" y="-7" font-family="Helvetica,sans-Serif" font-size="10.00">stdint.h</text>
</a>
</g>
</g>
<!-- Node1&#45;&gt;Node4 -->
<g id="edge3" class="edge">
<title>Node1&#45;&gt;Node4</title>
<path fill="none" stroke="#63b8ff" d="M162.67,-164.53C157.81,-150.44 152.43,-128.48 157.5,-110 166.1,-78.64 187.42,-47.15 201.93,-28.24"/>
<polygon fill="#63b8ff" stroke="#63b8ff" points="204.58,-30.53 208.04,-20.52 199.09,-26.19 204.58,-30.53"/>
</g>
<!-- Node5 -->
<g id="node5" class="node">
<title>Node5</title>
<g id="a_node5"><a xlink:title=" ">
<polygon fill="#e0e0e0" stroke="#999999" points="232.5,-129 166.5,-129 166.5,-110 232.5,-110 232.5,-129"/>
<text text-anchor="middle" x="199.5" y="-117" font-family="Helvetica,sans-Serif" font-size="10.00">pico/stdio.h</text>
</a>
</g>
</g>
<!-- Node1&#45;&gt;Node5 -->
<g id="edge4" class="edge">
<title>Node1&#45;&gt;Node5</title>
<path fill="none" stroke="#63b8ff" d="M176.16,-164.54C180.21,-156.91 185.21,-147.46 189.55,-139.27"/>
<polygon fill="#63b8ff" stroke="#63b8ff" points="192.6,-140.99 194.19,-130.51 186.42,-137.71 192.6,-140.99"/>
</g>
<!-- Node6 -->
<g id="node6" class="node">
<title>Node6</title>
<g id="a_node6"><a xlink:href="ir__sensor_8h.html" target="_top" xlink:title="Header file for the IR sensor driver.">
<polygon fill="white" stroke="#666666" points="338,-129 251,-129 251,-110 338,-110 338,-129"/>
<text text-anchor="middle" x="294.5" y="-117" font-family="Helvetica,sans-Serif" font-size="10.00">irline/ir_sensor.h</text>
</a>
</g>
</g>
<!-- Node1&#45;&gt;Node6 -->
<g id="edge5" class="edge">
<title>Node1&#45;&gt;Node6</title>
<path fill="none" stroke="#63b8ff" d="M199.65,-164.54C219.69,-155.23 245.58,-143.22 265.24,-134.09"/>
<polygon fill="#63b8ff" stroke="#63b8ff" points="266.48,-137.37 274.07,-129.98 263.53,-131.02 266.48,-137.37"/>
</g>
<!-- Node8 -->
<g id="node8" class="node">
<title>Node8</title>
<g id="a_node8"><a xlink:href="barcode_8h.html" target="_top" xlink:title="Header file for the barcode driver.">
<polygon fill="white" stroke="#666666" points="371.5,-74 289.5,-74 289.5,-55 371.5,-55 371.5,-74"/>
<text text-anchor="middle" x="330.5" y="-62" font-family="Helvetica,sans-Serif" font-size="10.00">irline/barcode.h</text>
</a>
</g>
</g>
<!-- Node1&#45;&gt;Node8 -->
<g id="edge9" class="edge">
<title>Node1&#45;&gt;Node8</title>
<path fill="none" stroke="#63b8ff" d="M211.6,-172.99C259.15,-165.38 331.11,-150.59 347.5,-129 357.41,-115.94 350.85,-97.55 343.18,-83.92"/>
<polygon fill="#63b8ff" stroke="#63b8ff" points="346.17,-82.1 337.89,-75.49 340.24,-85.82 346.17,-82.1"/>
</g>
<!-- Node7 -->
<g id="node7" class="node">
<title>Node7</title>
<g id="a_node7"><a xlink:title=" ">
<polygon fill="#e0e0e0" stroke="#999999" points="271.5,-74 203.5,-74 203.5,-55 271.5,-55 271.5,-74"/>
<text text-anchor="middle" x="237.5" y="-62" font-family="Helvetica,sans-Serif" font-size="10.00">pico/types.h</text>
</a>
</g>
</g>
<!-- Node6&#45;&gt;Node7 -->
<g id="edge6" class="edge">
<title>Node6&#45;&gt;Node7</title>
<path fill="none" stroke="#63b8ff" d="M284.83,-109.51C276.76,-102 265.03,-91.1 255.28,-82.03"/>
<polygon fill="#63b8ff" stroke="#63b8ff" points="257.84,-79.63 248.13,-75.39 253.07,-84.76 257.84,-79.63"/>
</g>
<!-- Node6&#45;&gt;Node8 -->
<g id="edge7" class="edge">
<title>Node6&#45;&gt;Node8</title>
<path fill="none" stroke="#63b8ff" d="M300.44,-109.75C305.21,-102.73 312.06,-92.64 318.02,-83.87"/>
<polygon fill="#63b8ff" stroke="#63b8ff" points="320.85,-85.93 323.58,-75.69 315.06,-82 320.85,-85.93"/>
</g>
<!-- Node8&#45;&gt;Node4 -->
<g id="edge8" class="edge">
<title>Node8&#45;&gt;Node4</title>
<path fill="none" stroke="#63b8ff" d="M311.16,-54.51C293.28,-46.2 266.46,-33.73 245.93,-24.18"/>
<polygon fill="#63b8ff" stroke="#63b8ff" points="247.47,-21.04 236.93,-20 244.52,-27.39 247.47,-21.04"/>
</g>
</g>
</svg>
