<?xml version="1.0" encoding="UTF-8" standalone="no"?>
<!DOCTYPE svg PUBLIC "-//W3C//DTD SVG 1.1//EN"
 "http://www.w3.org/Graphics/SVG/1.1/DTD/svg11.dtd">
<!-- Generated by graphviz version 7.0.5 (20221223.1930)
 -->
<!-- Title: src/drivers/encoder/main.c Pages: 1 -->
<svg width="786pt" height="148pt"
 viewBox="0.00 0.00 785.50 148.00" xmlns="http://www.w3.org/2000/svg" xmlns:xlink="http://www.w3.org/1999/xlink">
<g id="graph0" class="graph" transform="scale(1 1) rotate(0) translate(4 144)">
<title>src/drivers/encoder/main.c</title>
<!-- Node1 -->
<g id="node1" class="node">
<title>Node1</title>
<g id="a_node1"><a xlink:title="Driver demo code for the wheel encoder.">
<polygon fill="#999999" stroke="#666666" points="381,-140 281,-140 281,-110 381,-110 381,-140"/>
<text text-anchor="start" x="289" y="-128" font-family="Helvetica,sans-Serif" font-size="10.00">src/drivers/encoder</text>
<text text-anchor="middle" x="331" y="-117" font-family="Helvetica,sans-Serif" font-size="10.00">/main.c</text>
</a>
</g>
</g>
<!-- Node2 -->
<g id="node2" class="node">
<title>Node2</title>
<g id="a_node2"><a xlink:title=" ">
<polygon fill="#e0e0e0" stroke="#999999" points="48,-74 0,-74 0,-55 48,-55 48,-74"/>
<text text-anchor="middle" x="24" y="-62" font-family="Helvetica,sans-Serif" font-size="10.00">stdint.h</text>
</a>
</g>
</g>
<!-- Node1&#45;&gt;Node2 -->
<g id="edge1" class="edge">
<title>Node1&#45;&gt;Node2</title>
<path fill="none" stroke="#63b8ff" d="M280.53,-115.9C227.77,-107.19 142.31,-92.39 59.58,-74.44"/>
<polygon fill="#63b8ff" stroke="#63b8ff" points="60.46,-71.05 49.94,-72.33 58.96,-77.89 60.46,-71.05"/>
</g>
<!-- Node3 -->
<g id="node3" class="node">
<title>Node3</title>
<g id="a_node3"><a xlink:title=" ">
<polygon fill="#e0e0e0" stroke="#999999" points="122,-74 66,-74 66,-55 122,-55 122,-74"/>
<text text-anchor="middle" x="94" y="-62" font-family="Helvetica,sans-Serif" font-size="10.00">stdbool.h</text>
</a>
</g>
</g>
<!-- Node1&#45;&gt;Node3 -->
<g id="edge2" class="edge">
<title>Node1&#45;&gt;Node3</title>
<path fill="none" stroke="#63b8ff" d="M280.74,-111.59C236.74,-100.73 173.71,-85.17 133.31,-75.2"/>
<polygon fill="#63b8ff" stroke="#63b8ff" points="134.32,-71.85 123.77,-72.85 132.64,-78.64 134.32,-71.85"/>
</g>
<!-- Node4 -->
<g id="node4" class="node">
<title>Node4</title>
<g id="a_node4"><a xlink:title=" ">
<polygon fill="#e0e0e0" stroke="#999999" points="185.5,-74 140.5,-74 140.5,-55 185.5,-55 185.5,-74"/>
<text text-anchor="middle" x="163" y="-62" font-family="Helvetica,sans-Serif" font-size="10.00">stdio.h</text>
</a>
</g>
</g>
<!-- Node1&#45;&gt;Node4 -->
<g id="edge3" class="edge">
<title>Node1&#45;&gt;Node4</title>
<path fill="none" stroke="#63b8ff" d="M289.47,-109.54C260.9,-99.59 223.44,-86.55 196.72,-77.24"/>
<polygon fill="#63b8ff" stroke="#63b8ff" points="198.01,-73.98 187.41,-74 195.71,-80.6 198.01,-73.98"/>
</g>
<!-- Node5 -->
<g id="node5" class="node">
<title>Node5</title>
<g id="a_node5"><a xlink:title=" ">
<polygon fill="#e0e0e0" stroke="#999999" points="268.5,-74 203.5,-74 203.5,-55 268.5,-55 268.5,-74"/>
<text text-anchor="middle" x="236" y="-62" font-family="Helvetica,sans-Serif" font-size="10.00">sys/types.h</text>
</a>
</g>
</g>
<!-- Node1&#45;&gt;Node5 -->
<g id="edge4" class="edge">
<title>Node1&#45;&gt;Node5</title>
<path fill="none" stroke="#63b8ff" d="M307.52,-109.54C293.1,-100.66 274.69,-89.32 260.15,-80.37"/>
<polygon fill="#63b8ff" stroke="#63b8ff" points="262,-77.4 251.65,-75.14 258.33,-83.36 262,-77.4"/>
</g>
<!-- Node6 -->
<g id="node6" class="node">
<title>Node6</title>
<g id="a_node6"><a xlink:title=" ">
<polygon fill="#e0e0e0" stroke="#999999" points="375,-74 287,-74 287,-55 375,-55 375,-74"/>
<text text-anchor="middle" x="331" y="-62" font-family="Helvetica,sans-Serif" font-size="10.00">hardware/pwm.h</text>
</a>
</g>
</g>
<!-- Node1&#45;&gt;Node6 -->
<g id="edge5" class="edge">
<title>Node1&#45;&gt;Node6</title>
<path fill="none" stroke="#63b8ff" d="M331,-109.54C331,-102.34 331,-93.53 331,-85.68"/>
<polygon fill="#63b8ff" stroke="#63b8ff" points="334.5,-85.69 331,-75.69 327.5,-85.69 334.5,-85.69"/>
</g>
<!-- Node7 -->
<g id="node7" class="node">
<title>Node7</title>
<g id="a_node7"><a xlink:title=" ">
<polygon fill="#e0e0e0" stroke="#999999" points="478.5,-74 393.5,-74 393.5,-55 478.5,-55 478.5,-74"/>
<text text-anchor="middle" x="436" y="-62" font-family="Helvetica,sans-Serif" font-size="10.00">hardware/gpio.h</text>
</a>
</g>
</g>
<!-- Node1&#45;&gt;Node7 -->
<g id="edge6" class="edge">
<title>Node1&#45;&gt;Node7</title>
<path fill="none" stroke="#63b8ff" d="M356.96,-109.54C373.2,-100.49 394.03,-88.88 410.24,-79.85"/>
<polygon fill="#63b8ff" stroke="#63b8ff" points="411.77,-83.01 418.8,-75.08 408.36,-76.89 411.77,-83.01"/>
</g>
<!-- Node8 -->
<g id="node8" class="node">
<title>Node8</title>
<g id="a_node8"><a xlink:title=" ">
<polygon fill="#e0e0e0" stroke="#999999" points="585.5,-74 496.5,-74 496.5,-55 585.5,-55 585.5,-74"/>
<text text-anchor="middle" x="541" y="-62" font-family="Helvetica,sans-Serif" font-size="10.00">hardware/timer.h</text>
</a>
</g>
</g>
<!-- Node1&#45;&gt;Node8 -->
<g id="edge7" class="edge">
<title>Node1&#45;&gt;Node8</title>
<path fill="none" stroke="#63b8ff" d="M381.3,-109.99C416.84,-100.09 463.98,-86.96 497.82,-77.53"/>
<polygon fill="#63b8ff" stroke="#63b8ff" points="498.59,-80.95 507.29,-74.89 496.72,-74.2 498.59,-80.95"/>
</g>
<!-- Node9 -->
<g id="node9" class="node">
<title>Node9</title>
<g id="a_node9"><a xlink:title=" ">
<polygon fill="#e0e0e0" stroke="#999999" points="670,-74 604,-74 604,-55 670,-55 670,-74"/>
<text text-anchor="middle" x="637" y="-62" font-family="Helvetica,sans-Serif" font-size="10.00">pico/stdio.h</text>
</a>
</g>
</g>
<!-- Node1&#45;&gt;Node9 -->
<g id="edge8" class="edge">
<title>Node1&#45;&gt;Node9</title>
<path fill="none" stroke="#63b8ff" d="M381.16,-114.69C431.9,-105.24 512.92,-90.02 592.34,-74.5"/>
<polygon fill="#63b8ff" stroke="#63b8ff" points="592.91,-77.96 602.05,-72.6 591.57,-71.09 592.91,-77.96"/>
</g>
<!-- Node10 -->
<g id="node10" class="node">
<title>Node10</title>
<g id="a_node10"><a xlink:href="wheel__encoder_8h.html" target="_top" xlink:title="Header file for the wheel encoder drivers.">
<polygon fill="white" stroke="#666666" points="777.5,-74 688.5,-74 688.5,-55 777.5,-55 777.5,-74"/>
<text text-anchor="middle" x="733" y="-62" font-family="Helvetica,sans-Serif" font-size="10.00">wheel_encoder.h</text>
</a>
</g>
</g>
<!-- Node1&#45;&gt;Node10 -->
<g id="edge9" class="edge">
<title>Node1&#45;&gt;Node10</title>
<path fill="none" stroke="#63b8ff" d="M381.46,-116.97C447,-107.78 565.29,-91.05 677.07,-74.27"/>
<polygon fill="#63b8ff" stroke="#63b8ff" points="677.35,-77.77 686.72,-72.82 676.31,-70.85 677.35,-77.77"/>
</g>
<!-- Node11 -->
<g id="node11" class="node">
<title>Node11</title>
<g id="a_node11"><a xlink:title=" ">
<polygon fill="#e0e0e0" stroke="#999999" points="767,-19 699,-19 699,0 767,0 767,-19"/>
<text text-anchor="middle" x="733" y="-7" font-family="Helvetica,sans-Serif" font-size="10.00">pico/stdlib.h</text>
</a>
</g>
</g>
<!-- Node10&#45;&gt;Node11 -->
<g id="edge10" class="edge">
<title>Node10&#45;&gt;Node11</title>
<path fill="none" stroke="#63b8ff" d="M733,-54.75C733,-48.27 733,-39.16 733,-30.9"/>
<polygon fill="#63b8ff" stroke="#63b8ff" points="736.5,-30.96 733,-20.96 729.5,-30.96 736.5,-30.96"/>
</g>
</g>
</svg>
