<?xml version="1.0" encoding="UTF-8" standalone="no"?>
<!DOCTYPE svg PUBLIC "-//W3C//DTD SVG 1.1//EN"
 "http://www.w3.org/Graphics/SVG/1.1/DTD/svg11.dtd">
<!-- Generated by graphviz version 7.0.5 (20221223.1930)
 -->
<!-- Title: src/pathfinding/floodfill.h Pages: 1 -->
<svg width="628pt" height="148pt"
 viewBox="0.00 0.00 627.50 148.00" xmlns="http://www.w3.org/2000/svg" xmlns:xlink="http://www.w3.org/1999/xlink">
<g id="graph0" class="graph" transform="scale(1 1) rotate(0) translate(4 144)">
<title>src/pathfinding/floodfill.h</title>
<!-- Node1 -->
<g id="node1" class="node">
<title>Node1</title>
<g id="a_node1"><a xlink:title="This file contains the function prototypes for the floodfill algorithm for mapping of the maze.">
<polygon fill="#999999" stroke="#666666" points="370.5,-140 251.5,-140 251.5,-121 370.5,-121 370.5,-140"/>
<text text-anchor="middle" x="311" y="-128" font-family="Helvetica,sans-Serif" font-size="10.00">src/pathfinding/floodfill.h</text>
</a>
</g>
</g>
<!-- Node2 -->
<g id="node2" class="node">
<title>Node2</title>
<g id="a_node2"><a xlink:href="dfs_8c.html" target="_top" xlink:title="Runs the depth first search algorithm on a maze.">
<polygon fill="white" stroke="#666666" points="104,-24.5 0,-24.5 0,-5.5 104,-5.5 104,-24.5"/>
<text text-anchor="middle" x="52" y="-12.5" font-family="Helvetica,sans-Serif" font-size="10.00">src/pathfinding/dfs.c</text>
</a>
</g>
</g>
<!-- Node1&#45;&gt;Node2 -->
<g id="edge1" class="edge">
<title>Node1&#45;&gt;Node2</title>
<path fill="none" stroke="#63b8ff" d="M258.22,-117.84C228.62,-110.34 191.42,-99.32 160,-85 122.34,-67.84 82.39,-39.19 63.36,-24.81"/>
<polygon fill="#63b8ff" stroke="#63b8ff" points="257.16,-121.18 267.7,-120.18 258.83,-114.38 257.16,-121.18"/>
</g>
<!-- Node3 -->
<g id="node3" class="node">
<title>Node3</title>
<g id="a_node3"><a xlink:href="dfs_8h.html" target="_top" xlink:title="Header file for the depth first search algorithm for mapping the maze.">
<polygon fill="white" stroke="#666666" points="283,-85 179,-85 179,-66 283,-66 283,-85"/>
<text text-anchor="middle" x="231" y="-73" font-family="Helvetica,sans-Serif" font-size="10.00">src/pathfinding/dfs.h</text>
</a>
</g>
</g>
<!-- Node1&#45;&gt;Node3 -->
<g id="edge2" class="edge">
<title>Node1&#45;&gt;Node3</title>
<path fill="none" stroke="#63b8ff" d="M287.89,-114.19C273.77,-104.84 256.22,-93.21 244.37,-85.36"/>
<polygon fill="#63b8ff" stroke="#63b8ff" points="285.9,-117.07 296.17,-119.67 289.76,-111.23 285.9,-117.07"/>
</g>
<!-- Node4 -->
<g id="node4" class="node">
<title>Node4</title>
<g id="a_node4"><a xlink:href="pico__pathfinding__tests_8c.html" target="_top" xlink:title="This file contains the mapping and pathfinding tests to be run on the Pico depending on the input ove...">
<polygon fill="white" stroke="#666666" points="225.5,-30 122.5,-30 122.5,0 225.5,0 225.5,-30"/>
<text text-anchor="start" x="130.5" y="-18" font-family="Helvetica,sans-Serif" font-size="10.00">src/pico_pathfinding</text>
<text text-anchor="middle" x="174" y="-7" font-family="Helvetica,sans-Serif" font-size="10.00">_tests.c</text>
</a>
</g>
</g>
<!-- Node1&#45;&gt;Node4 -->
<g id="edge8" class="edge">
<title>Node1&#45;&gt;Node4</title>
<path fill="none" stroke="#63b8ff" d="M239.95,-124.37C213.63,-118.6 186.27,-107.19 170,-85 158.44,-69.23 163.22,-45.57 168.22,-30.46"/>
<polygon fill="#63b8ff" stroke="#63b8ff" points="239.16,-127.78 249.64,-126.22 240.48,-120.9 239.16,-127.78"/>
</g>
<!-- Node5 -->
<g id="node5" class="node">
<title>Node5</title>
<g id="a_node5"><a xlink:href="dfs__tests_8c.html" target="_top" xlink:title="This file containst the functions that test the depth first search algorithm with a simulated navigat...">
<polygon fill="white" stroke="#666666" points="332.5,-24.5 243.5,-24.5 243.5,-5.5 332.5,-5.5 332.5,-24.5"/>
<text text-anchor="middle" x="288" y="-12.5" font-family="Helvetica,sans-Serif" font-size="10.00">tests/dfs_tests.c</text>
</a>
</g>
</g>
<!-- Node1&#45;&gt;Node5 -->
<g id="edge9" class="edge">
<title>Node1&#45;&gt;Node5</title>
<path fill="none" stroke="#63b8ff" d="M306.96,-109.58C301.91,-84.63 293.47,-42.98 289.8,-24.86"/>
<polygon fill="#63b8ff" stroke="#63b8ff" points="303.48,-110 308.89,-119.11 310.34,-108.61 303.48,-110"/>
</g>
<!-- Node6 -->
<g id="node6" class="node">
<title>Node6</title>
<g id="a_node6"><a xlink:href="navigation__tests_8c.html" target="_top" xlink:title="Tests the combined navigational functions.">
<polygon fill="white" stroke="#666666" points="471,-24.5 351,-24.5 351,-5.5 471,-5.5 471,-24.5"/>
<text text-anchor="middle" x="411" y="-12.5" font-family="Helvetica,sans-Serif" font-size="10.00">tests/navigation_tests.c</text>
</a>
</g>
</g>
<!-- Node1&#45;&gt;Node6 -->
<g id="edge11" class="edge">
<title>Node1&#45;&gt;Node6</title>
<path fill="none" stroke="#63b8ff" d="M326.21,-112.24C347.82,-87.71 386.65,-43.64 403.19,-24.86"/>
<polygon fill="#63b8ff" stroke="#63b8ff" points="323.83,-109.64 319.85,-119.46 329.08,-114.27 323.83,-109.64"/>
</g>
<!-- Node7 -->
<g id="node7" class="node">
<title>Node7</title>
<g id="a_node7"><a xlink:href="floodfill_8c.html" target="_top" xlink:title="This file contains the implementation of the floodfill algorithm for mapping the maze and determining...">
<polygon fill="white" stroke="#666666" points="496.5,-85 377.5,-85 377.5,-66 496.5,-66 496.5,-85"/>
<text text-anchor="middle" x="437" y="-73" font-family="Helvetica,sans-Serif" font-size="10.00">src/pathfinding/floodfill.c</text>
</a>
</g>
</g>
<!-- Node1&#45;&gt;Node7 -->
<g id="edge7" class="edge">
<title>Node1&#45;&gt;Node7</title>
<path fill="none" stroke="#63b8ff" d="M342.95,-116.06C365.84,-106.43 396.02,-93.74 415.94,-85.36"/>
<polygon fill="#63b8ff" stroke="#63b8ff" points="341.63,-112.82 333.77,-119.92 344.34,-119.27 341.63,-112.82"/>
</g>
<!-- Node8 -->
<g id="node8" class="node">
<title>Node8</title>
<g id="a_node8"><a xlink:href="floodfill__tests_8c.html" target="_top" xlink:title="This file contains the tests for the floodfill algorithm.">
<polygon fill="white" stroke="#666666" points="619.5,-85 514.5,-85 514.5,-66 619.5,-66 619.5,-85"/>
<text text-anchor="middle" x="567" y="-73" font-family="Helvetica,sans-Serif" font-size="10.00">tests/floodfill_tests.c</text>
</a>
</g>
</g>
<!-- Node1&#45;&gt;Node8 -->
<g id="edge10" class="edge">
<title>Node1&#45;&gt;Node8</title>
<path fill="none" stroke="#63b8ff" d="M365.68,-118.18C412.91,-108.4 480.24,-94.46 523.79,-85.45"/>
<polygon fill="#63b8ff" stroke="#63b8ff" points="364.99,-114.75 355.91,-120.2 366.41,-121.6 364.99,-114.75"/>
</g>
<!-- Node3&#45;&gt;Node2 -->
<g id="edge3" class="edge">
<title>Node3&#45;&gt;Node2</title>
<path fill="none" stroke="#63b8ff" d="M192.89,-62.05C158.84,-50.92 109.77,-34.88 79.44,-24.97"/>
<polygon fill="#63b8ff" stroke="#63b8ff" points="191.78,-65.37 202.38,-65.14 193.96,-58.71 191.78,-65.37"/>
</g>
<!-- Node3&#45;&gt;Node4 -->
<g id="edge4" class="edge">
<title>Node3&#45;&gt;Node4</title>
<path fill="none" stroke="#63b8ff" d="M214.81,-57.88C206.27,-49.11 195.9,-38.48 187.75,-30.11"/>
<polygon fill="#63b8ff" stroke="#63b8ff" points="212.05,-60.06 221.53,-64.78 217.06,-55.18 212.05,-60.06"/>
</g>
<!-- Node3&#45;&gt;Node5 -->
<g id="edge5" class="edge">
<title>Node3&#45;&gt;Node5</title>
<path fill="none" stroke="#63b8ff" d="M247.44,-57.63C257.94,-46.85 271.12,-33.32 279.55,-24.67"/>
<polygon fill="#63b8ff" stroke="#63b8ff" points="244.94,-55.18 240.47,-64.78 249.95,-60.06 244.94,-55.18"/>
</g>
<!-- Node3&#45;&gt;Node6 -->
<g id="edge6" class="edge">
<title>Node3&#45;&gt;Node6</title>
<path fill="none" stroke="#63b8ff" d="M268.88,-62.19C303.14,-51.06 352.77,-34.92 383.4,-24.97"/>
<polygon fill="#63b8ff" stroke="#63b8ff" points="268.21,-58.73 259.78,-65.15 270.37,-65.38 268.21,-58.73"/>
</g>
</g>
</svg>
