<?xml version="1.0" encoding="UTF-8" standalone="no"?>
<!DOCTYPE svg PUBLIC "-//W3C//DTD SVG 1.1//EN"
 "http://www.w3.org/Graphics/SVG/1.1/DTD/svg11.dtd">
<!-- Generated by graphviz version 7.0.5 (20221223.1930)
 -->
<!-- Title: src/pathfinding/floodfill.h Pages: 1 -->
<svg width="555pt" height="137pt"
 viewBox="0.00 0.00 554.50 137.00" xmlns="http://www.w3.org/2000/svg" xmlns:xlink="http://www.w3.org/1999/xlink">
<g id="graph0" class="graph" transform="scale(1 1) rotate(0) translate(4 133)">
<title>src/pathfinding/floodfill.h</title>
<!-- Node1 -->
<g id="node1" class="node">
<title>Node1</title>
<g id="a_node1"><a xlink:title="This file contains the function prototypes for the floodfill algorithm for mapping of the maze.">
<polygon fill="#999999" stroke="#666666" points="316.5,-129 197.5,-129 197.5,-110 316.5,-110 316.5,-129"/>
<text text-anchor="middle" x="257" y="-117" font-family="Helvetica,sans-Serif" font-size="10.00">src/pathfinding/floodfill.h</text>
</a>
</g>
</g>
<!-- Node2 -->
<g id="node2" class="node">
<title>Node2</title>
<g id="a_node2"><a xlink:href="dfs_8c.html" target="_top" xlink:title="Runs the depth first search algorithm on a maze.">
<polygon fill="white" stroke="#666666" points="104,-19 0,-19 0,0 104,0 104,-19"/>
<text text-anchor="middle" x="52" y="-7" font-family="Helvetica,sans-Serif" font-size="10.00">src/pathfinding/dfs.c</text>
</a>
</g>
</g>
<!-- Node1&#45;&gt;Node2 -->
<g id="edge1" class="edge">
<title>Node1&#45;&gt;Node2</title>
<path fill="none" stroke="#63b8ff" d="M186.23,-109.53C156.64,-103.19 123.14,-92.38 97,-74 76.66,-59.7 62.31,-33.15 55.85,-19.35"/>
<polygon fill="#63b8ff" stroke="#63b8ff" points="185.37,-112.93 195.86,-111.46 186.74,-106.07 185.37,-112.93"/>
</g>
<!-- Node3 -->
<g id="node3" class="node">
<title>Node3</title>
<g id="a_node3"><a xlink:href="dfs_8h.html" target="_top" xlink:title="Header file for the depth first search algorithm for mapping the maze.">
<polygon fill="white" stroke="#666666" points="210,-74 106,-74 106,-55 210,-55 210,-74"/>
<text text-anchor="middle" x="158" y="-62" font-family="Helvetica,sans-Serif" font-size="10.00">src/pathfinding/dfs.h</text>
</a>
</g>
</g>
<!-- Node1&#45;&gt;Node3 -->
<g id="edge2" class="edge">
<title>Node1&#45;&gt;Node3</title>
<path fill="none" stroke="#63b8ff" d="M230.16,-104.13C212.41,-94.63 189.7,-82.47 174.55,-74.36"/>
<polygon fill="#63b8ff" stroke="#63b8ff" points="228.4,-107.16 238.87,-108.79 231.71,-100.99 228.4,-107.16"/>
</g>
<!-- Node4 -->
<g id="node4" class="node">
<title>Node4</title>
<g id="a_node4"><a xlink:href="dfs__tests_8c.html" target="_top" xlink:title="This file containst the functions that test the depth first search algorithm with a simulated navigat...">
<polygon fill="white" stroke="#666666" points="211.5,-19 122.5,-19 122.5,0 211.5,0 211.5,-19"/>
<text text-anchor="middle" x="167" y="-7" font-family="Helvetica,sans-Serif" font-size="10.00">tests/dfs_tests.c</text>
</a>
</g>
</g>
<!-- Node1&#45;&gt;Node4 -->
<g id="edge7" class="edge">
<title>Node1&#45;&gt;Node4</title>
<path fill="none" stroke="#63b8ff" d="M247.69,-99.45C240.76,-86.25 230.54,-68.67 219,-55 207.2,-41.02 190.78,-27.75 179.57,-19.4"/>
<polygon fill="#63b8ff" stroke="#63b8ff" points="244.56,-101.01 252.2,-108.36 250.81,-97.85 244.56,-101.01"/>
</g>
<!-- Node5 -->
<g id="node5" class="node">
<title>Node5</title>
<g id="a_node5"><a xlink:href="navigation__tests_8c.html" target="_top" xlink:title="Tests the combined navigational functions.">
<polygon fill="white" stroke="#666666" points="350,-19 230,-19 230,0 350,0 350,-19"/>
<text text-anchor="middle" x="290" y="-7" font-family="Helvetica,sans-Serif" font-size="10.00">tests/navigation_tests.c</text>
</a>
</g>
</g>
<!-- Node1&#45;&gt;Node5 -->
<g id="edge9" class="edge">
<title>Node1&#45;&gt;Node5</title>
<path fill="none" stroke="#63b8ff" d="M262.99,-98.9C270.19,-75.33 281.96,-36.81 287.26,-19.46"/>
<polygon fill="#63b8ff" stroke="#63b8ff" points="259.72,-97.63 260.14,-108.21 266.41,-99.67 259.72,-97.63"/>
</g>
<!-- Node6 -->
<g id="node6" class="node">
<title>Node6</title>
<g id="a_node6"><a xlink:href="floodfill_8c.html" target="_top" xlink:title="This file contains the implementation of the floodfill algorithm for mapping the maze and determining...">
<polygon fill="white" stroke="#666666" points="423.5,-74 304.5,-74 304.5,-55 423.5,-55 423.5,-74"/>
<text text-anchor="middle" x="364" y="-62" font-family="Helvetica,sans-Serif" font-size="10.00">src/pathfinding/floodfill.c</text>
</a>
</g>
</g>
<!-- Node1&#45;&gt;Node6 -->
<g id="edge6" class="edge">
<title>Node1&#45;&gt;Node6</title>
<path fill="none" stroke="#63b8ff" d="M285.46,-104.4C304.73,-94.86 329.58,-82.55 346.12,-74.36"/>
<polygon fill="#63b8ff" stroke="#63b8ff" points="283.91,-101.26 276.51,-108.84 287.02,-107.54 283.91,-101.26"/>
</g>
<!-- Node7 -->
<g id="node7" class="node">
<title>Node7</title>
<g id="a_node7"><a xlink:href="floodfill__tests_8c.html" target="_top" xlink:title="This file contains the tests for the floodfill algorithm.">
<polygon fill="white" stroke="#666666" points="546.5,-74 441.5,-74 441.5,-55 546.5,-55 546.5,-74"/>
<text text-anchor="middle" x="494" y="-62" font-family="Helvetica,sans-Serif" font-size="10.00">tests/floodfill_tests.c</text>
</a>
</g>
</g>
<!-- Node1&#45;&gt;Node7 -->
<g id="edge8" class="edge">
<title>Node1&#45;&gt;Node7</title>
<path fill="none" stroke="#63b8ff" d="M308.17,-107.06C351.87,-97.28 413.85,-83.42 454,-74.45"/>
<polygon fill="#63b8ff" stroke="#63b8ff" points="307.68,-103.58 298.68,-109.18 309.2,-110.41 307.68,-103.58"/>
</g>
<!-- Node3&#45;&gt;Node2 -->
<g id="edge3" class="edge">
<title>Node3&#45;&gt;Node2</title>
<path fill="none" stroke="#63b8ff" d="M129.8,-49.4C110.72,-39.86 86.1,-27.55 69.72,-19.36"/>
<polygon fill="#63b8ff" stroke="#63b8ff" points="128.16,-52.49 138.66,-53.83 131.29,-46.23 128.16,-52.49"/>
</g>
<!-- Node3&#45;&gt;Node4 -->
<g id="edge4" class="edge">
<title>Node3&#45;&gt;Node4</title>
<path fill="none" stroke="#63b8ff" d="M161.37,-43.64C162.79,-35.31 164.36,-26.05 165.48,-19.44"/>
<polygon fill="#63b8ff" stroke="#63b8ff" points="157.96,-42.81 159.74,-53.26 164.86,-43.98 157.96,-42.81"/>
</g>
<!-- Node3&#45;&gt;Node5 -->
<g id="edge5" class="edge">
<title>Node3&#45;&gt;Node5</title>
<path fill="none" stroke="#63b8ff" d="M190.82,-50.32C214.87,-40.67 246.88,-27.82 267.94,-19.36"/>
<polygon fill="#63b8ff" stroke="#63b8ff" points="189.77,-46.97 181.8,-53.95 192.38,-53.47 189.77,-46.97"/>
</g>
</g>
</svg>
