<?xml version="1.0" encoding="UTF-8" standalone="no"?>
<!DOCTYPE svg PUBLIC "-//W3C//DTD SVG 1.1//EN"
 "http://www.w3.org/Graphics/SVG/1.1/DTD/svg11.dtd">
<!-- Generated by graphviz version 7.0.5 (20221223.1930)
 -->
<!-- Title: src/pathfinding/floodfill.h Pages: 1 -->
<svg width="140pt" height="137pt"
 viewBox="0.00 0.00 139.50 137.00" xmlns="http://www.w3.org/2000/svg" xmlns:xlink="http://www.w3.org/1999/xlink">
<g id="graph0" class="graph" transform="scale(1 1) rotate(0) translate(4 133)">
<title>src/pathfinding/floodfill.h</title>
<!-- Node1 -->
<g id="node1" class="node">
<title>Node1</title>
<g id="a_node1"><a xlink:title="This file contains the function prototypes for the floodfill algorithm for mapping of the maze.">
<polygon fill="#999999" stroke="#666666" points="119,-129 0,-129 0,-110 119,-110 119,-129"/>
<text text-anchor="middle" x="59.5" y="-117" font-family="Helvetica,sans-Serif" font-size="10.00">src/pathfinding/floodfill.h</text>
</a>
</g>
</g>
<!-- Node2 -->
<g id="node2" class="node">
<title>Node2</title>
<g id="a_node2"><a xlink:title=" ">
<polygon fill="#e0e0e0" stroke="#999999" points="57.5,-19 9.5,-19 9.5,0 57.5,0 57.5,-19"/>
<text text-anchor="middle" x="33.5" y="-7" font-family="Helvetica,sans-Serif" font-size="10.00">stdint.h</text>
</a>
</g>
</g>
<!-- Node1&#45;&gt;Node2 -->
<g id="edge1" class="edge">
<title>Node1&#45;&gt;Node2</title>
<path fill="none" stroke="#63b8ff" d="M57.37,-109.66C53.24,-92.5 44.03,-54.26 38.34,-30.6"/>
<polygon fill="#63b8ff" stroke="#63b8ff" points="41.75,-29.83 36.01,-20.93 34.95,-31.47 41.75,-29.83"/>
</g>
<!-- Node3 -->
<g id="node3" class="node">
<title>Node3</title>
<g id="a_node3"><a xlink:href="maze_8h.html" target="_top" xlink:title="Header file for the maze data structure and public functions.">
<polygon fill="white" stroke="#666666" points="109,-74 62,-74 62,-55 109,-55 109,-74"/>
<text text-anchor="middle" x="85.5" y="-62" font-family="Helvetica,sans-Serif" font-size="10.00">maze.h</text>
</a>
</g>
</g>
<!-- Node1&#45;&gt;Node3 -->
<g id="edge2" class="edge">
<title>Node1&#45;&gt;Node3</title>
<path fill="none" stroke="#63b8ff" d="M63.79,-109.75C67.12,-102.96 71.86,-93.3 76.06,-84.73"/>
<polygon fill="#63b8ff" stroke="#63b8ff" points="79.18,-86.32 80.45,-75.8 72.9,-83.24 79.18,-86.32"/>
</g>
<!-- Node3&#45;&gt;Node2 -->
<g id="edge3" class="edge">
<title>Node3&#45;&gt;Node2</title>
<path fill="none" stroke="#63b8ff" d="M76.91,-54.75C69.66,-47.35 59.05,-36.54 50.13,-27.45"/>
<polygon fill="#63b8ff" stroke="#63b8ff" points="52.84,-25.21 43.33,-20.52 47.84,-30.11 52.84,-25.21"/>
</g>
<!-- Node4 -->
<g id="node4" class="node">
<title>Node4</title>
<g id="a_node4"><a xlink:title=" ">
<polygon fill="#e0e0e0" stroke="#999999" points="131.5,-19 75.5,-19 75.5,0 131.5,0 131.5,-19"/>
<text text-anchor="middle" x="103.5" y="-7" font-family="Helvetica,sans-Serif" font-size="10.00">stdbool.h</text>
</a>
</g>
</g>
<!-- Node3&#45;&gt;Node4 -->
<g id="edge4" class="edge">
<title>Node3&#45;&gt;Node4</title>
<path fill="none" stroke="#63b8ff" d="M88.47,-54.75C90.73,-48.11 93.91,-38.73 96.77,-30.31"/>
<polygon fill="#63b8ff" stroke="#63b8ff" points="100.07,-31.47 99.98,-20.88 93.45,-29.22 100.07,-31.47"/>
</g>
</g>
</svg>
