<?xml version="1.0" encoding="UTF-8" standalone="no"?>
<!DOCTYPE svg PUBLIC "-//W3C//DTD SVG 1.1//EN"
 "http://www.w3.org/Graphics/SVG/1.1/DTD/svg11.dtd">
<!-- Generated by graphviz version 7.0.5 (20221223.1930)
 -->
<!-- Title: main/pathfinding/floodfill.c Pages: 1 -->
<svg width="300pt" height="192pt"
 viewBox="0.00 0.00 299.84 192.00" xmlns="http://www.w3.org/2000/svg" xmlns:xlink="http://www.w3.org/1999/xlink">
<g id="graph0" class="graph" transform="scale(1 1) rotate(0) translate(4 188)">
<title>main/pathfinding/floodfill.c</title>
<!-- Node1 -->
<g id="node1" class="node">
<title>Node1</title>
<g id="a_node1"><a xlink:title="This file contains the implementation of the floodfill algorithm for mapping the maze and determining...">
<polygon fill="#999999" stroke="#666666" points="191.25,-184 64.25,-184 64.25,-165 191.25,-165 191.25,-184"/>
<text text-anchor="middle" x="127.75" y="-172" font-family="Helvetica,sans-Serif" font-size="10.00">main/pathfinding/floodfill.c</text>
</a>
</g>
</g>
<!-- Node2 -->
<g id="node2" class="node">
<title>Node2</title>
<g id="a_node2"><a xlink:title=" ">
<polygon fill="#e0e0e0" stroke="#999999" points="65.25,-74 20.25,-74 20.25,-55 65.25,-55 65.25,-74"/>
<text text-anchor="middle" x="42.75" y="-62" font-family="Helvetica,sans-Serif" font-size="10.00">stdio.h</text>
</a>
</g>
</g>
<!-- Node1&#45;&gt;Node2 -->
<g id="edge1" class="edge">
<title>Node1&#45;&gt;Node2</title>
<path fill="none" stroke="#63b8ff" d="M69.49,-164.51C48.66,-158.18 27.27,-147.39 14.75,-129 4.84,-114.44 15.39,-95.79 26.26,-82.48"/>
<polygon fill="#63b8ff" stroke="#63b8ff" points="28.56,-85.16 32.58,-75.36 23.32,-80.51 28.56,-85.16"/>
</g>
<!-- Node3 -->
<g id="node3" class="node">
<title>Node3</title>
<g id="a_node3"><a xlink:title=" ">
<polygon fill="#e0e0e0" stroke="#999999" points="95.75,-19 39.75,-19 39.75,0 95.75,0 95.75,-19"/>
<text text-anchor="middle" x="67.75" y="-7" font-family="Helvetica,sans-Serif" font-size="10.00">stdbool.h</text>
</a>
</g>
</g>
<!-- Node1&#45;&gt;Node3 -->
<g id="edge2" class="edge">
<title>Node1&#45;&gt;Node3</title>
<path fill="none" stroke="#63b8ff" d="M63.77,-164.76C42.38,-158.45 20.7,-147.6 7.75,-129 0.43,-118.47 -6.02,-87.13 10.75,-55 17.16,-42.73 28.62,-32.78 39.59,-25.42"/>
<polygon fill="#63b8ff" stroke="#63b8ff" points="41.4,-28.41 48.08,-20.19 37.73,-22.45 41.4,-28.41"/>
</g>
<!-- Node4 -->
<g id="node4" class="node">
<title>Node4</title>
<g id="a_node4"><a xlink:title=" ">
<polygon fill="#e0e0e0" stroke="#999999" points="71.25,-129 24.25,-129 24.25,-110 71.25,-110 71.25,-129"/>
<text text-anchor="middle" x="47.75" y="-117" font-family="Helvetica,sans-Serif" font-size="10.00">stdlib.h</text>
</a>
</g>
</g>
<!-- Node1&#45;&gt;Node4 -->
<g id="edge3" class="edge">
<title>Node1&#45;&gt;Node4</title>
<path fill="none" stroke="#63b8ff" d="M114.18,-164.51C102.27,-156.62 84.71,-144.98 70.63,-135.65"/>
<polygon fill="#63b8ff" stroke="#63b8ff" points="72.65,-132.8 62.39,-130.19 68.79,-138.63 72.65,-132.8"/>
</g>
<!-- Node5 -->
<g id="node5" class="node">
<title>Node5</title>
<g id="a_node5"><a xlink:title=" ">
<polygon fill="#e0e0e0" stroke="#999999" points="244.75,-19 196.75,-19 196.75,0 244.75,0 244.75,-19"/>
<text text-anchor="middle" x="220.75" y="-7" font-family="Helvetica,sans-Serif" font-size="10.00">stdint.h</text>
</a>
</g>
</g>
<!-- Node1&#45;&gt;Node5 -->
<g id="edge4" class="edge">
<title>Node1&#45;&gt;Node5</title>
<path fill="none" stroke="#63b8ff" d="M185.01,-164.54C224.37,-157.08 271.62,-145.07 283.75,-129 308.99,-95.56 267.7,-50.64 240.88,-26.86"/>
<polygon fill="#63b8ff" stroke="#63b8ff" points="243.16,-24.2 233.28,-20.37 238.61,-29.52 243.16,-24.2"/>
</g>
<!-- Node6 -->
<g id="node6" class="node">
<title>Node6</title>
<g id="a_node6"><a xlink:href="maze_8h.html" target="_top" xlink:title="Header file for the maze data structure and public functions.">
<polygon fill="white" stroke="#666666" points="217.25,-74 170.25,-74 170.25,-55 217.25,-55 217.25,-74"/>
<text text-anchor="middle" x="193.75" y="-62" font-family="Helvetica,sans-Serif" font-size="10.00">maze.h</text>
</a>
</g>
</g>
<!-- Node1&#45;&gt;Node6 -->
<g id="edge5" class="edge">
<title>Node1&#45;&gt;Node6</title>
<path fill="none" stroke="#63b8ff" d="M140.29,-164.64C150.91,-156.51 165.8,-143.55 174.75,-129 182.98,-115.63 187.83,-98.48 190.57,-85.37"/>
<polygon fill="#63b8ff" stroke="#63b8ff" points="193.97,-86.26 192.32,-75.79 187.08,-85 193.97,-86.26"/>
</g>
<!-- Node7 -->
<g id="node7" class="node">
<title>Node7</title>
<g id="a_node7"><a xlink:href="binary__heap_8h.html" target="_top" xlink:title="This file contains the declarations for the binary min&#45;heap used in the a* algorithm.">
<polygon fill="white" stroke="#666666" points="165.75,-129 89.75,-129 89.75,-110 165.75,-110 165.75,-129"/>
<text text-anchor="middle" x="127.75" y="-117" font-family="Helvetica,sans-Serif" font-size="10.00">binary_heap.h</text>
</a>
</g>
</g>
<!-- Node1&#45;&gt;Node7 -->
<g id="edge8" class="edge">
<title>Node1&#45;&gt;Node7</title>
<path fill="none" stroke="#63b8ff" d="M127.75,-164.75C127.75,-158.27 127.75,-149.16 127.75,-140.9"/>
<polygon fill="#63b8ff" stroke="#63b8ff" points="131.25,-140.96 127.75,-130.96 124.25,-140.96 131.25,-140.96"/>
</g>
<!-- Node8 -->
<g id="node8" class="node">
<title>Node8</title>
<g id="a_node8"><a xlink:href="floodfill_8h.html" target="_top" xlink:title="This file contains the function prototypes for the floodfill algorithm for mapping of the maze.">
<polygon fill="white" stroke="#666666" points="275.25,-129 222.25,-129 222.25,-110 275.25,-110 275.25,-129"/>
<text text-anchor="middle" x="248.75" y="-117" font-family="Helvetica,sans-Serif" font-size="10.00">floodfill.h</text>
</a>
</g>
</g>
<!-- Node1&#45;&gt;Node8 -->
<g id="edge12" class="edge">
<title>Node1&#45;&gt;Node8</title>
<path fill="none" stroke="#63b8ff" d="M148.28,-164.51C167.43,-156.12 196.25,-143.5 218.12,-133.92"/>
<polygon fill="#63b8ff" stroke="#63b8ff" points="219.39,-137.18 227.14,-129.97 216.58,-130.77 219.39,-137.18"/>
</g>
<!-- Node6&#45;&gt;Node3 -->
<g id="edge7" class="edge">
<title>Node6&#45;&gt;Node3</title>
<path fill="none" stroke="#63b8ff" d="M172.38,-54.51C152.35,-46.08 122.15,-33.38 99.34,-23.79"/>
<polygon fill="#63b8ff" stroke="#63b8ff" points="100.78,-20.6 90.21,-19.94 98.07,-27.05 100.78,-20.6"/>
</g>
<!-- Node6&#45;&gt;Node5 -->
<g id="edge6" class="edge">
<title>Node6&#45;&gt;Node5</title>
<path fill="none" stroke="#63b8ff" d="M198.21,-54.75C201.71,-47.88 206.7,-38.08 211.1,-29.45"/>
<polygon fill="#63b8ff" stroke="#63b8ff" points="214.09,-31.29 215.51,-20.79 207.85,-28.11 214.09,-31.29"/>
</g>
<!-- Node7&#45;&gt;Node2 -->
<g id="edge11" class="edge">
<title>Node7&#45;&gt;Node2</title>
<path fill="none" stroke="#63b8ff" d="M113.33,-109.51C100.56,-101.54 81.65,-89.75 66.62,-80.38"/>
<polygon fill="#63b8ff" stroke="#63b8ff" points="68.58,-77.48 58.24,-75.16 64.88,-83.42 68.58,-77.48"/>
</g>
<!-- Node7&#45;&gt;Node5 -->
<g id="edge9" class="edge">
<title>Node7&#45;&gt;Node5</title>
<path fill="none" stroke="#63b8ff" d="M130.92,-109.53C135.82,-96.5 146.24,-72.02 160.75,-55 170.51,-43.55 183.75,-33.34 195.31,-25.6"/>
<polygon fill="#63b8ff" stroke="#63b8ff" points="197.09,-28.61 203.63,-20.27 193.32,-22.71 197.09,-28.61"/>
</g>
<!-- Node7&#45;&gt;Node6 -->
<g id="edge10" class="edge">
<title>Node7&#45;&gt;Node6</title>
<path fill="none" stroke="#63b8ff" d="M138.95,-109.51C148.49,-101.85 162.43,-90.66 173.86,-81.47"/>
<polygon fill="#63b8ff" stroke="#63b8ff" points="175.94,-84.3 181.54,-75.31 171.55,-78.84 175.94,-84.3"/>
</g>
<!-- Node8&#45;&gt;Node5 -->
<g id="edge13" class="edge">
<title>Node8&#45;&gt;Node5</title>
<path fill="none" stroke="#63b8ff" d="M246.46,-109.66C242.01,-92.5 232.1,-54.26 225.96,-30.6"/>
<polygon fill="#63b8ff" stroke="#63b8ff" points="229.35,-29.73 223.46,-20.93 222.58,-31.48 229.35,-29.73"/>
</g>
<!-- Node8&#45;&gt;Node6 -->
<g id="edge14" class="edge">
<title>Node8&#45;&gt;Node6</title>
<path fill="none" stroke="#63b8ff" d="M239.67,-109.75C231.92,-102.27 220.54,-91.32 211.06,-82.17"/>
<polygon fill="#63b8ff" stroke="#63b8ff" points="213.75,-79.91 204.12,-75.49 208.89,-84.95 213.75,-79.91"/>
</g>
</g>
</svg>
