<?xml version="1.0" encoding="UTF-8" standalone="no"?>
<!DOCTYPE svg PUBLIC "-//W3C//DTD SVG 1.1//EN"
 "http://www.w3.org/Graphics/SVG/1.1/DTD/svg11.dtd">
<!-- Generated by graphviz version 7.0.5 (20221223.1930)
 -->
<!-- Title: main/pathfinding/floodfill.h Pages: 1 -->
<svg width="573pt" height="137pt"
 viewBox="0.00 0.00 573.00 137.00" xmlns="http://www.w3.org/2000/svg" xmlns:xlink="http://www.w3.org/1999/xlink">
<g id="graph0" class="graph" transform="scale(1 1) rotate(0) translate(4 133)">
<title>main/pathfinding/floodfill.h</title>
<!-- Node1 -->
<g id="node1" class="node">
<title>Node1</title>
<g id="a_node1"><a xlink:title="This file contains the function prototypes for the floodfill algorithm for mapping of the maze.">
<polygon fill="#999999" stroke="#666666" points="331,-129 204,-129 204,-110 331,-110 331,-129"/>
<text text-anchor="middle" x="267.5" y="-117" font-family="Helvetica,sans-Serif" font-size="10.00">main/pathfinding/floodfill.h</text>
</a>
</g>
</g>
<!-- Node2 -->
<g id="node2" class="node">
<title>Node2</title>
<g id="a_node2"><a xlink:href="dfs_8c.html" target="_top" xlink:title="Runs the depth first search algorithm on a maze.">
<polygon fill="white" stroke="#666666" points="111,-19 0,-19 0,0 111,0 111,-19"/>
<text text-anchor="middle" x="55.5" y="-7" font-family="Helvetica,sans-Serif" font-size="10.00">main/pathfinding/dfs.c</text>
</a>
</g>
</g>
<!-- Node1&#45;&gt;Node2 -->
<g id="edge1" class="edge">
<title>Node1&#45;&gt;Node2</title>
<path fill="none" stroke="#63b8ff" d="M192.4,-110.19C161.5,-103.96 126.67,-93.06 99.5,-74 79.3,-59.82 65.41,-33.22 59.19,-19.38"/>
<polygon fill="#63b8ff" stroke="#63b8ff" points="191.63,-113.6 202.1,-112 192.91,-106.72 191.63,-113.6"/>
</g>
<!-- Node3 -->
<g id="node3" class="node">
<title>Node3</title>
<g id="a_node3"><a xlink:href="dfs_8h.html" target="_top" xlink:title="Header file for the depth first search algorithm for mapping the maze.">
<polygon fill="white" stroke="#666666" points="220,-74 109,-74 109,-55 220,-55 220,-74"/>
<text text-anchor="middle" x="164.5" y="-62" font-family="Helvetica,sans-Serif" font-size="10.00">main/pathfinding/dfs.h</text>
</a>
</g>
</g>
<!-- Node1&#45;&gt;Node3 -->
<g id="edge2" class="edge">
<title>Node1&#45;&gt;Node3</title>
<path fill="none" stroke="#63b8ff" d="M239.84,-104.27C221.33,-94.74 197.56,-82.51 181.71,-74.36"/>
<polygon fill="#63b8ff" stroke="#63b8ff" points="238.19,-107.35 248.68,-108.82 241.39,-101.13 238.19,-107.35"/>
</g>
<!-- Node4 -->
<g id="node4" class="node">
<title>Node4</title>
<g id="a_node4"><a xlink:href="dfs__tests_8c.html" target="_top" xlink:title="This file containst the functions that test the depth first search algorithm with a simulated navigat...">
<polygon fill="white" stroke="#666666" points="218,-19 129,-19 129,0 218,0 218,-19"/>
<text text-anchor="middle" x="173.5" y="-7" font-family="Helvetica,sans-Serif" font-size="10.00">tests/dfs_tests.c</text>
</a>
</g>
</g>
<!-- Node1&#45;&gt;Node4 -->
<g id="edge7" class="edge">
<title>Node1&#45;&gt;Node4</title>
<path fill="none" stroke="#63b8ff" d="M258.56,-99.71C251.7,-86.41 241.4,-68.59 229.5,-55 216.9,-40.61 199.19,-27.43 187.09,-19.21"/>
<polygon fill="#63b8ff" stroke="#63b8ff" points="255.22,-100.87 262.8,-108.28 261.49,-97.76 255.22,-100.87"/>
</g>
<!-- Node5 -->
<g id="node5" class="node">
<title>Node5</title>
<g id="a_node5"><a xlink:href="navigation__tests_8c.html" target="_top" xlink:title="Tests the combined navigational functions.">
<polygon fill="white" stroke="#666666" points="356.5,-19 236.5,-19 236.5,0 356.5,0 356.5,-19"/>
<text text-anchor="middle" x="296.5" y="-7" font-family="Helvetica,sans-Serif" font-size="10.00">tests/navigation_tests.c</text>
</a>
</g>
</g>
<!-- Node1&#45;&gt;Node5 -->
<g id="edge9" class="edge">
<title>Node1&#45;&gt;Node5</title>
<path fill="none" stroke="#63b8ff" d="M272.85,-98.57C279.19,-74.98 289.46,-36.73 294.09,-19.46"/>
<polygon fill="#63b8ff" stroke="#63b8ff" points="269.48,-97.63 270.27,-108.2 276.24,-99.45 269.48,-97.63"/>
</g>
<!-- Node6 -->
<g id="node6" class="node">
<title>Node6</title>
<g id="a_node6"><a xlink:href="floodfill_8c.html" target="_top" xlink:title="This file contains the implementation of the floodfill algorithm for mapping the maze and determining...">
<polygon fill="white" stroke="#666666" points="442,-74 315,-74 315,-55 442,-55 442,-74"/>
<text text-anchor="middle" x="378.5" y="-62" font-family="Helvetica,sans-Serif" font-size="10.00">main/pathfinding/floodfill.c</text>
</a>
</g>
</g>
<!-- Node1&#45;&gt;Node6 -->
<g id="edge6" class="edge">
<title>Node1&#45;&gt;Node6</title>
<path fill="none" stroke="#63b8ff" d="M296.47,-104.67C316.53,-95.09 342.64,-82.62 359.95,-74.36"/>
<polygon fill="#63b8ff" stroke="#63b8ff" points="295.21,-101.39 287.7,-108.86 298.23,-107.71 295.21,-101.39"/>
</g>
<!-- Node7 -->
<g id="node7" class="node">
<title>Node7</title>
<g id="a_node7"><a xlink:href="floodfill__tests_8c.html" target="_top" xlink:title="This file contains the tests for the floodfill algorithm.">
<polygon fill="white" stroke="#666666" points="565,-74 460,-74 460,-55 565,-55 565,-74"/>
<text text-anchor="middle" x="512.5" y="-62" font-family="Helvetica,sans-Serif" font-size="10.00">tests/floodfill_tests.c</text>
</a>
</g>
</g>
<!-- Node1&#45;&gt;Node7 -->
<g id="edge8" class="edge">
<title>Node1&#45;&gt;Node7</title>
<path fill="none" stroke="#63b8ff" d="M320.11,-107.12C365.3,-97.34 429.56,-83.44 471.14,-74.45"/>
<polygon fill="#63b8ff" stroke="#63b8ff" points="319.57,-103.65 310.54,-109.19 321.05,-110.5 319.57,-103.65"/>
</g>
<!-- Node3&#45;&gt;Node2 -->
<g id="edge3" class="edge">
<title>Node3&#45;&gt;Node2</title>
<path fill="none" stroke="#63b8ff" d="M135.78,-49.53C116.12,-39.97 90.64,-27.59 73.72,-19.36"/>
<polygon fill="#63b8ff" stroke="#63b8ff" points="134.12,-52.62 144.65,-53.85 137.19,-46.33 134.12,-52.62"/>
</g>
<!-- Node3&#45;&gt;Node4 -->
<g id="edge4" class="edge">
<title>Node3&#45;&gt;Node4</title>
<path fill="none" stroke="#63b8ff" d="M167.87,-43.64C169.29,-35.31 170.86,-26.05 171.98,-19.44"/>
<polygon fill="#63b8ff" stroke="#63b8ff" points="164.46,-42.81 166.24,-53.26 171.36,-43.98 164.46,-42.81"/>
</g>
<!-- Node3&#45;&gt;Node5 -->
<g id="edge5" class="edge">
<title>Node3&#45;&gt;Node5</title>
<path fill="none" stroke="#63b8ff" d="M197.32,-50.32C221.37,-40.67 253.38,-27.82 274.44,-19.36"/>
<polygon fill="#63b8ff" stroke="#63b8ff" points="196.27,-46.97 188.3,-53.95 198.88,-53.47 196.27,-46.97"/>
</g>
</g>
</svg>
