<?xml version="1.0" encoding="UTF-8" standalone="no"?>
<!DOCTYPE svg PUBLIC "-//W3C//DTD SVG 1.1//EN"
 "http://www.w3.org/Graphics/SVG/1.1/DTD/svg11.dtd">
<!-- Generated by graphviz version 7.0.5 (20221223.1930)
 -->
<!-- Title: src/pathfinding/floodfill.h Pages: 1 -->
<svg width="634pt" height="137pt"
 viewBox="0.00 0.00 633.50 137.00" xmlns="http://www.w3.org/2000/svg" xmlns:xlink="http://www.w3.org/1999/xlink">
<g id="graph0" class="graph" transform="scale(1 1) rotate(0) translate(4 133)">
<title>src/pathfinding/floodfill.h</title>
<!-- Node1 -->
<g id="node1" class="node">
<title>Node1</title>
<g id="a_node1"><a xlink:title="This file contains the function prototypes for the floodfill algorithm for mapping of the maze.">
<polygon fill="#999999" stroke="#666666" points="376.5,-129 257.5,-129 257.5,-110 376.5,-110 376.5,-129"/>
<text text-anchor="middle" x="317" y="-117" font-family="Helvetica,sans-Serif" font-size="10.00">src/pathfinding/floodfill.h</text>
</a>
</g>
</g>
<!-- Node2 -->
<g id="node2" class="node">
<title>Node2</title>
<g id="a_node2"><a xlink:href="dfs_8c.html" target="_top" xlink:title="Runs the depth first search algorithm on a maze.">
<polygon fill="white" stroke="#666666" points="104,-19 0,-19 0,0 104,0 104,-19"/>
<text text-anchor="middle" x="52" y="-7" font-family="Helvetica,sans-Serif" font-size="10.00">src/pathfinding/dfs.c</text>
</a>
</g>
</g>
<!-- Node1&#45;&gt;Node2 -->
<g id="edge1" class="edge">
<title>Node1&#45;&gt;Node2</title>
<path fill="none" stroke="#63b8ff" d="M267.01,-106.75C237.13,-98.99 198.74,-87.74 166,-74 127.98,-58.04 86.4,-32.68 65.54,-19.35"/>
<polygon fill="#63b8ff" stroke="#63b8ff" points="266,-110.1 276.55,-109.17 267.72,-103.32 266,-110.1"/>
</g>
<!-- Node3 -->
<g id="node3" class="node">
<title>Node3</title>
<g id="a_node3"><a xlink:href="dfs_8h.html" target="_top" xlink:title="Header file for the depth first search algorithm for mapping the maze.">
<polygon fill="white" stroke="#666666" points="289,-74 185,-74 185,-55 289,-55 289,-74"/>
<text text-anchor="middle" x="237" y="-62" font-family="Helvetica,sans-Serif" font-size="10.00">src/pathfinding/dfs.h</text>
</a>
</g>
</g>
<!-- Node1&#45;&gt;Node3 -->
<g id="edge2" class="edge">
<title>Node1&#45;&gt;Node3</title>
<path fill="none" stroke="#63b8ff" d="M293.89,-103.19C279.77,-93.84 262.22,-82.21 250.37,-74.36"/>
<polygon fill="#63b8ff" stroke="#63b8ff" points="291.9,-106.07 302.17,-108.67 295.76,-100.23 291.9,-106.07"/>
</g>
<!-- Node4 -->
<g id="node4" class="node">
<title>Node4</title>
<g id="a_node4"><a xlink:href="pathfinding_2main_8c.html" target="_top" xlink:title="This file contains the mapping and pathfinding tests to be run on the Pico depending on the input ove...">
<polygon fill="white" stroke="#666666" points="233.5,-19 122.5,-19 122.5,0 233.5,0 233.5,-19"/>
<text text-anchor="middle" x="178" y="-7" font-family="Helvetica,sans-Serif" font-size="10.00">src/pathfinding/main.c</text>
</a>
</g>
</g>
<!-- Node1&#45;&gt;Node4 -->
<g id="edge8" class="edge">
<title>Node1&#45;&gt;Node4</title>
<path fill="none" stroke="#63b8ff" d="M245.95,-113.37C219.63,-107.6 192.27,-96.19 176,-74 164.13,-57.81 170.15,-32.55 174.62,-19.29"/>
<polygon fill="#63b8ff" stroke="#63b8ff" points="245.16,-116.78 255.64,-115.22 246.48,-109.9 245.16,-116.78"/>
</g>
<!-- Node5 -->
<g id="node5" class="node">
<title>Node5</title>
<g id="a_node5"><a xlink:href="dfs__tests_8c.html" target="_top" xlink:title="This file containst the functions that test the depth first search algorithm with a simulated navigat...">
<polygon fill="white" stroke="#666666" points="340.5,-19 251.5,-19 251.5,0 340.5,0 340.5,-19"/>
<text text-anchor="middle" x="296" y="-7" font-family="Helvetica,sans-Serif" font-size="10.00">tests/dfs_tests.c</text>
</a>
</g>
</g>
<!-- Node1&#45;&gt;Node5 -->
<g id="edge9" class="edge">
<title>Node1&#45;&gt;Node5</title>
<path fill="none" stroke="#63b8ff" d="M313.12,-98.57C308.54,-74.98 301.1,-36.73 297.74,-19.46"/>
<polygon fill="#63b8ff" stroke="#63b8ff" points="309.65,-99.03 314.99,-108.18 316.52,-97.69 309.65,-99.03"/>
</g>
<!-- Node6 -->
<g id="node6" class="node">
<title>Node6</title>
<g id="a_node6"><a xlink:href="navigation__tests_8c.html" target="_top" xlink:title="Tests the combined navigational functions.">
<polygon fill="white" stroke="#666666" points="479,-19 359,-19 359,0 479,0 479,-19"/>
<text text-anchor="middle" x="419" y="-7" font-family="Helvetica,sans-Serif" font-size="10.00">tests/navigation_tests.c</text>
</a>
</g>
</g>
<!-- Node1&#45;&gt;Node6 -->
<g id="edge11" class="edge">
<title>Node1&#45;&gt;Node6</title>
<path fill="none" stroke="#63b8ff" d="M332.27,-101.42C343.86,-88.54 360.27,-70.5 375,-55 386.98,-42.4 401.17,-28.17 410.13,-19.26"/>
<polygon fill="#63b8ff" stroke="#63b8ff" points="329.86,-98.87 325.78,-108.65 335.07,-103.54 329.86,-98.87"/>
</g>
<!-- Node7 -->
<g id="node7" class="node">
<title>Node7</title>
<g id="a_node7"><a xlink:href="floodfill_8c.html" target="_top" xlink:title="This file contains the implementation of the floodfill algorithm for mapping the maze and determining...">
<polygon fill="white" stroke="#666666" points="502.5,-74 383.5,-74 383.5,-55 502.5,-55 502.5,-74"/>
<text text-anchor="middle" x="443" y="-62" font-family="Helvetica,sans-Serif" font-size="10.00">src/pathfinding/floodfill.c</text>
</a>
</g>
</g>
<!-- Node1&#45;&gt;Node7 -->
<g id="edge7" class="edge">
<title>Node1&#45;&gt;Node7</title>
<path fill="none" stroke="#63b8ff" d="M348.95,-105.06C371.84,-95.43 402.02,-82.74 421.94,-74.36"/>
<polygon fill="#63b8ff" stroke="#63b8ff" points="347.63,-101.82 339.77,-108.92 350.34,-108.27 347.63,-101.82"/>
</g>
<!-- Node8 -->
<g id="node8" class="node">
<title>Node8</title>
<g id="a_node8"><a xlink:href="floodfill__tests_8c.html" target="_top" xlink:title="This file contains the tests for the floodfill algorithm.">
<polygon fill="white" stroke="#666666" points="625.5,-74 520.5,-74 520.5,-55 625.5,-55 625.5,-74"/>
<text text-anchor="middle" x="573" y="-62" font-family="Helvetica,sans-Serif" font-size="10.00">tests/floodfill_tests.c</text>
</a>
</g>
</g>
<!-- Node1&#45;&gt;Node8 -->
<g id="edge10" class="edge">
<title>Node1&#45;&gt;Node8</title>
<path fill="none" stroke="#63b8ff" d="M371.68,-107.18C418.91,-97.4 486.24,-83.46 529.79,-74.45"/>
<polygon fill="#63b8ff" stroke="#63b8ff" points="370.99,-103.75 361.91,-109.2 372.41,-110.6 370.99,-103.75"/>
</g>
<!-- Node3&#45;&gt;Node2 -->
<g id="edge3" class="edge">
<title>Node3&#45;&gt;Node2</title>
<path fill="none" stroke="#63b8ff" d="M194.64,-51.36C160.69,-41.64 113.83,-28.21 83.23,-19.45"/>
<polygon fill="#63b8ff" stroke="#63b8ff" points="193.59,-54.7 204.16,-54.09 195.51,-47.97 193.59,-54.7"/>
</g>
<!-- Node3&#45;&gt;Node4 -->
<g id="edge4" class="edge">
<title>Node3&#45;&gt;Node4</title>
<path fill="none" stroke="#63b8ff" d="M218.73,-47.09C208.54,-37.94 196.26,-26.9 187.86,-19.36"/>
<polygon fill="#63b8ff" stroke="#63b8ff" points="216.09,-49.42 225.87,-53.5 220.77,-44.21 216.09,-49.42"/>
</g>
<!-- Node3&#45;&gt;Node5 -->
<g id="edge5" class="edge">
<title>Node3&#45;&gt;Node5</title>
<path fill="none" stroke="#63b8ff" d="M255.27,-47.09C265.46,-37.94 277.74,-26.9 286.14,-19.36"/>
<polygon fill="#63b8ff" stroke="#63b8ff" points="253.23,-44.21 248.13,-53.5 257.91,-49.42 253.23,-44.21"/>
</g>
<!-- Node3&#45;&gt;Node6 -->
<g id="edge6" class="edge">
<title>Node3&#45;&gt;Node6</title>
<path fill="none" stroke="#63b8ff" d="M278.67,-51.36C312.07,-41.64 358.17,-28.21 388.28,-19.45"/>
<polygon fill="#63b8ff" stroke="#63b8ff" points="277.95,-47.93 269.33,-54.09 279.91,-54.65 277.95,-47.93"/>
</g>
</g>
</svg>
