<?xml version="1.0" encoding="UTF-8" standalone="no"?>
<!DOCTYPE svg PUBLIC "-//W3C//DTD SVG 1.1//EN"
 "http://www.w3.org/Graphics/SVG/1.1/DTD/svg11.dtd">
<!-- Generated by graphviz version 7.0.5 (20221223.1930)
 -->
<!-- Title: src/pathfinding/floodfill.h Pages: 1 -->
<svg width="155pt" height="137pt"
 viewBox="0.00 0.00 155.00 137.00" xmlns="http://www.w3.org/2000/svg" xmlns:xlink="http://www.w3.org/1999/xlink">
<g id="graph0" class="graph" transform="scale(1 1) rotate(0) translate(4 133)">
<title>src/pathfinding/floodfill.h</title>
<!-- Node1 -->
<g id="node1" class="node">
<title>Node1</title>
<g id="a_node1"><a xlink:title="This file contains the function prototypes for the floodfill algorithm for mapping of the maze.">
<polygon fill="#999999" stroke="#666666" points="119,-129 0,-129 0,-110 119,-110 119,-129"/>
<text text-anchor="middle" x="59.5" y="-117" font-family="Helvetica,sans-Serif" font-size="10.00">src/pathfinding/floodfill.h</text>
</a>
</g>
</g>
<!-- Node2 -->
<g id="node2" class="node">
<title>Node2</title>
<g id="a_node2"><a xlink:title=" ">
<polygon fill="#e0e0e0" stroke="#999999" points="49.5,-19 1.5,-19 1.5,0 49.5,0 49.5,-19"/>
<text text-anchor="middle" x="25.5" y="-7" font-family="Helvetica,sans-Serif" font-size="10.00">stdint.h</text>
</a>
</g>
</g>
<!-- Node1&#45;&gt;Node2 -->
<g id="edge1" class="edge">
<title>Node1&#45;&gt;Node2</title>
<path fill="none" stroke="#63b8ff" d="M55.55,-109.77C51.64,-100.89 45.64,-86.68 41.5,-74 36.79,-59.57 32.64,-42.92 29.75,-30.29"/>
<polygon fill="#63b8ff" stroke="#63b8ff" points="33.21,-29.72 27.63,-20.71 26.37,-31.23 33.21,-29.72"/>
</g>
<!-- Node3 -->
<g id="node3" class="node">
<title>Node3</title>
<g id="a_node3"><a xlink:href="maze_8h.html" target="_top" xlink:title="Header file for the maze data structure and public functions.">
<polygon fill="white" stroke="#666666" points="147,-74 50,-74 50,-55 147,-55 147,-74"/>
<text text-anchor="middle" x="98.5" y="-62" font-family="Helvetica,sans-Serif" font-size="10.00">pathfinding/maze.h</text>
</a>
</g>
</g>
<!-- Node1&#45;&gt;Node3 -->
<g id="edge2" class="edge">
<title>Node1&#45;&gt;Node3</title>
<path fill="none" stroke="#63b8ff" d="M65.94,-109.75C71.16,-102.66 78.69,-92.42 85.19,-83.59"/>
<polygon fill="#63b8ff" stroke="#63b8ff" points="87.92,-85.79 91.02,-75.66 82.28,-81.64 87.92,-85.79"/>
</g>
<!-- Node3&#45;&gt;Node2 -->
<g id="edge3" class="edge">
<title>Node3&#45;&gt;Node2</title>
<path fill="none" stroke="#63b8ff" d="M86.12,-54.51C75.35,-46.7 59.53,-35.21 46.75,-25.93"/>
<polygon fill="#63b8ff" stroke="#63b8ff" points="49.07,-23.29 38.93,-20.25 44.96,-28.95 49.07,-23.29"/>
</g>
<!-- Node4 -->
<g id="node4" class="node">
<title>Node4</title>
<g id="a_node4"><a xlink:title=" ">
<polygon fill="#e0e0e0" stroke="#999999" points="126.5,-19 70.5,-19 70.5,0 126.5,0 126.5,-19"/>
<text text-anchor="middle" x="98.5" y="-7" font-family="Helvetica,sans-Serif" font-size="10.00">stdbool.h</text>
</a>
</g>
</g>
<!-- Node3&#45;&gt;Node4 -->
<g id="edge4" class="edge">
<title>Node3&#45;&gt;Node4</title>
<path fill="none" stroke="#63b8ff" d="M98.5,-54.75C98.5,-48.27 98.5,-39.16 98.5,-30.9"/>
<polygon fill="#63b8ff" stroke="#63b8ff" points="102,-30.96 98.5,-20.96 95,-30.96 102,-30.96"/>
</g>
</g>
</svg>
