<?xml version="1.0" encoding="UTF-8" standalone="no"?>
<!DOCTYPE svg PUBLIC "-//W3C//DTD SVG 1.1//EN"
 "http://www.w3.org/Graphics/SVG/1.1/DTD/svg11.dtd">
<!-- Generated by graphviz version 7.0.5 (20221223.1930)
 -->
<!-- Title: src/pathfinding/floodfill.c Pages: 1 -->
<svg width="364pt" height="203pt"
 viewBox="0.00 0.00 363.98 203.00" xmlns="http://www.w3.org/2000/svg" xmlns:xlink="http://www.w3.org/1999/xlink">
<g id="graph0" class="graph" transform="scale(1 1) rotate(0) translate(4 199)">
<title>src/pathfinding/floodfill.c</title>
<!-- Node1 -->
<g id="node1" class="node">
<title>Node1</title>
<g id="a_node1"><a xlink:title="This file contains the implementation of the floodfill algorithm for mapping the maze and determining...">
<polygon fill="#999999" stroke="#666666" points="192.23,-195 73.23,-195 73.23,-176 192.23,-176 192.23,-195"/>
<text text-anchor="middle" x="132.73" y="-183" font-family="Helvetica,sans-Serif" font-size="10.00">src/pathfinding/floodfill.c</text>
</a>
</g>
</g>
<!-- Node2 -->
<g id="node2" class="node">
<title>Node2</title>
<g id="a_node2"><a xlink:title=" ">
<polygon fill="#e0e0e0" stroke="#999999" points="66.23,-74 21.23,-74 21.23,-55 66.23,-55 66.23,-74"/>
<text text-anchor="middle" x="43.73" y="-62" font-family="Helvetica,sans-Serif" font-size="10.00">stdio.h</text>
</a>
</g>
</g>
<!-- Node1&#45;&gt;Node2 -->
<g id="edge1" class="edge">
<title>Node1&#45;&gt;Node2</title>
<path fill="none" stroke="#63b8ff" d="M72.98,-177.21C49.92,-171.15 25.75,-160.1 11.73,-140 -0.79,-122.05 13.7,-98.42 27.01,-82.64"/>
<polygon fill="#63b8ff" stroke="#63b8ff" points="29.38,-85.24 33.49,-75.47 24.18,-80.54 29.38,-85.24"/>
</g>
<!-- Node3 -->
<g id="node3" class="node">
<title>Node3</title>
<g id="a_node3"><a xlink:title=" ">
<polygon fill="#e0e0e0" stroke="#999999" points="113.73,-19 57.73,-19 57.73,0 113.73,0 113.73,-19"/>
<text text-anchor="middle" x="85.73" y="-7" font-family="Helvetica,sans-Serif" font-size="10.00">stdbool.h</text>
</a>
</g>
</g>
<!-- Node1&#45;&gt;Node3 -->
<g id="edge2" class="edge">
<title>Node1&#45;&gt;Node3</title>
<path fill="none" stroke="#63b8ff" d="M72.83,-179.06C47.18,-173.42 19.55,-162.18 3.73,-140 -5.98,-126.38 6.33,-63.11 11.73,-55 20.73,-41.47 35.37,-31.42 49.26,-24.33"/>
<polygon fill="#63b8ff" stroke="#63b8ff" points="50.69,-27.53 58.27,-20.12 47.73,-21.19 50.69,-27.53"/>
</g>
<!-- Node4 -->
<g id="node4" class="node">
<title>Node4</title>
<g id="a_node4"><a xlink:title=" ">
<polygon fill="#e0e0e0" stroke="#999999" points="68.23,-134.5 21.23,-134.5 21.23,-115.5 68.23,-115.5 68.23,-134.5"/>
<text text-anchor="middle" x="44.73" y="-122.5" font-family="Helvetica,sans-Serif" font-size="10.00">stdlib.h</text>
</a>
</g>
</g>
<!-- Node1&#45;&gt;Node4 -->
<g id="edge3" class="edge">
<title>Node1&#45;&gt;Node4</title>
<path fill="none" stroke="#63b8ff" d="M119.37,-175.62C105.67,-166.51 84.11,-152.18 67.67,-141.25"/>
<polygon fill="#63b8ff" stroke="#63b8ff" points="69.75,-138.43 59.48,-135.81 65.87,-144.26 69.75,-138.43"/>
</g>
<!-- Node5 -->
<g id="node5" class="node">
<title>Node5</title>
<g id="a_node5"><a xlink:title=" ">
<polygon fill="#e0e0e0" stroke="#999999" points="271.73,-19 223.73,-19 223.73,0 271.73,0 271.73,-19"/>
<text text-anchor="middle" x="247.73" y="-7" font-family="Helvetica,sans-Serif" font-size="10.00">stdint.h</text>
</a>
</g>
</g>
<!-- Node1&#45;&gt;Node5 -->
<g id="edge4" class="edge">
<title>Node1&#45;&gt;Node5</title>
<path fill="none" stroke="#63b8ff" d="M192.62,-180.33C249.02,-175.01 327.6,-163.51 346.73,-140 379.84,-99.29 313.05,-49.61 273.7,-25.32"/>
<polygon fill="#63b8ff" stroke="#63b8ff" points="275.58,-22.36 265.2,-20.21 271.97,-28.36 275.58,-22.36"/>
</g>
<!-- Node6 -->
<g id="node6" class="node">
<title>Node6</title>
<g id="a_node6"><a xlink:href="maze_8h.html" target="_top" xlink:title="Header file for the maze data structure and public functions.">
<polygon fill="white" stroke="#666666" points="258.23,-74 161.23,-74 161.23,-55 258.23,-55 258.23,-74"/>
<text text-anchor="middle" x="209.73" y="-62" font-family="Helvetica,sans-Serif" font-size="10.00">pathfinding/maze.h</text>
</a>
</g>
</g>
<!-- Node1&#45;&gt;Node6 -->
<g id="edge5" class="edge">
<title>Node1&#45;&gt;Node6</title>
<path fill="none" stroke="#63b8ff" d="M147.95,-175.81C160.37,-167.97 177.5,-155.32 187.73,-140 198.72,-123.54 204.34,-101.47 207.14,-85.63"/>
<polygon fill="#63b8ff" stroke="#63b8ff" points="210.56,-86.39 208.59,-75.98 203.64,-85.35 210.56,-86.39"/>
</g>
<!-- Node7 -->
<g id="node7" class="node">
<title>Node7</title>
<g id="a_node7"><a xlink:href="binary__heap_8h.html" target="_top" xlink:title="This file contains the declarations for the binary min&#45;heap used in the a* algorithm.">
<polygon fill="white" stroke="#666666" points="178.73,-140 86.73,-140 86.73,-110 178.73,-110 178.73,-140"/>
<text text-anchor="start" x="94.73" y="-128" font-family="Helvetica,sans-Serif" font-size="10.00">pathfinding/binary</text>
<text text-anchor="middle" x="132.73" y="-117" font-family="Helvetica,sans-Serif" font-size="10.00">_heap.h</text>
</a>
</g>
</g>
<!-- Node1&#45;&gt;Node7 -->
<g id="edge8" class="edge">
<title>Node1&#45;&gt;Node7</title>
<path fill="none" stroke="#63b8ff" d="M132.73,-175.87C132.73,-169.4 132.73,-160.2 132.73,-151.45"/>
<polygon fill="#63b8ff" stroke="#63b8ff" points="136.23,-151.63 132.73,-141.63 129.23,-151.63 136.23,-151.63"/>
</g>
<!-- Node8 -->
<g id="node8" class="node">
<title>Node8</title>
<g id="a_node8"><a xlink:href="floodfill_8h.html" target="_top" xlink:title="This file contains the function prototypes for the floodfill algorithm for mapping of the maze.">
<polygon fill="white" stroke="#666666" points="338.23,-134.5 235.23,-134.5 235.23,-115.5 338.23,-115.5 338.23,-134.5"/>
<text text-anchor="middle" x="286.73" y="-122.5" font-family="Helvetica,sans-Serif" font-size="10.00">pathfinding/floodfill.h</text>
</a>
</g>
</g>
<!-- Node1&#45;&gt;Node8 -->
<g id="edge12" class="edge">
<title>Node1&#45;&gt;Node8</title>
<path fill="none" stroke="#63b8ff" d="M156.12,-175.62C181.79,-165.87 223.23,-150.12 252.54,-138.99"/>
<polygon fill="#63b8ff" stroke="#63b8ff" points="253.6,-142.33 261.71,-135.51 251.12,-135.79 253.6,-142.33"/>
</g>
<!-- Node6&#45;&gt;Node3 -->
<g id="edge7" class="edge">
<title>Node6&#45;&gt;Node3</title>
<path fill="none" stroke="#63b8ff" d="M188.7,-54.51C168.98,-46.08 139.27,-33.38 116.82,-23.79"/>
<polygon fill="#63b8ff" stroke="#63b8ff" points="118.42,-20.66 107.85,-19.95 115.67,-27.1 118.42,-20.66"/>
</g>
<!-- Node6&#45;&gt;Node5 -->
<g id="edge6" class="edge">
<title>Node6&#45;&gt;Node5</title>
<path fill="none" stroke="#63b8ff" d="M216.01,-54.75C221.09,-47.66 228.43,-37.42 234.76,-28.59"/>
<polygon fill="#63b8ff" stroke="#63b8ff" points="237.45,-30.84 240.44,-20.67 231.77,-26.76 237.45,-30.84"/>
</g>
<!-- Node7&#45;&gt;Node2 -->
<g id="edge11" class="edge">
<title>Node7&#45;&gt;Node2</title>
<path fill="none" stroke="#63b8ff" d="M110.73,-109.54C97.36,-100.75 80.31,-89.54 66.75,-80.63"/>
<polygon fill="#63b8ff" stroke="#63b8ff" points="68.73,-77.75 58.45,-75.18 64.89,-83.6 68.73,-77.75"/>
</g>
<!-- Node7&#45;&gt;Node5 -->
<g id="edge9" class="edge">
<title>Node7&#45;&gt;Node5</title>
<path fill="none" stroke="#63b8ff" d="M133.23,-109.7C134.47,-94.49 138.56,-70.55 151.73,-55 167.26,-36.67 191.97,-25.45 212.44,-18.87"/>
<polygon fill="#63b8ff" stroke="#63b8ff" points="213.23,-22.28 221.83,-16.1 211.25,-15.57 213.23,-22.28"/>
</g>
<!-- Node7&#45;&gt;Node6 -->
<g id="edge10" class="edge">
<title>Node7&#45;&gt;Node6</title>
<path fill="none" stroke="#63b8ff" d="M151.76,-109.54C163.18,-100.87 177.69,-89.85 189.33,-81"/>
<polygon fill="#63b8ff" stroke="#63b8ff" points="191.26,-83.93 197.11,-75.09 187.03,-78.35 191.26,-83.93"/>
</g>
<!-- Node8&#45;&gt;Node5 -->
<g id="edge13" class="edge">
<title>Node8&#45;&gt;Node5</title>
<path fill="none" stroke="#63b8ff" d="M284.6,-115.4C281.25,-102.23 274.36,-76.38 266.73,-55 263.73,-46.59 259.95,-37.5 256.55,-29.74"/>
<polygon fill="#63b8ff" stroke="#63b8ff" points="259.74,-28.31 252.46,-20.62 253.36,-31.18 259.74,-28.31"/>
</g>
<!-- Node8&#45;&gt;Node6 -->
<g id="edge14" class="edge">
<title>Node8&#45;&gt;Node6</title>
<path fill="none" stroke="#63b8ff" d="M275.04,-115.12C263.28,-106.18 244.9,-92.22 230.63,-81.37"/>
<polygon fill="#63b8ff" stroke="#63b8ff" points="232.82,-78.65 222.74,-75.38 228.59,-84.22 232.82,-78.65"/>
</g>
</g>
</svg>
