<?xml version="1.0" encoding="UTF-8" standalone="no"?>
<!DOCTYPE svg PUBLIC "-//W3C//DTD SVG 1.1//EN"
 "http://www.w3.org/Graphics/SVG/1.1/DTD/svg11.dtd">
<!-- Generated by graphviz version 7.0.5 (20221223.1930)
 -->
<!-- Title: main Pages: 1 -->
<svg width="210pt" height="64pt"
 viewBox="0.00 0.00 210.00 64.00" xmlns="http://www.w3.org/2000/svg" xmlns:xlink="http://www.w3.org/1999/xlink">
<g id="graph0" class="graph" transform="scale(1 1) rotate(0) translate(4 60)">
<title>main</title>
<!-- Node1 -->
<g id="node1" class="node">
<title>Node1</title>
<g id="a_node1"><a xlink:title="Main function for the robot. This just starts the tasks.">
<polygon fill="#999999" stroke="#666666" points="38,-37 0,-37 0,-18 38,-18 38,-37"/>
<text text-anchor="middle" x="19" y="-25" font-family="Helvetica,sans-Serif" font-size="10.00">main</text>
</a>
</g>
</g>
<!-- Node2 -->
<g id="node2" class="node">
<title>Node2</title>
<g id="a_node2"><a xlink:href="magnetometer_8c.html#ab7782502fc0c8715fe8b2db9081027fc" target="_top" xlink:title="Initializes the magnetometer by initializing the USB, I2C, and setting the GPIO pins.">
<polygon fill="white" stroke="#666666" points="174,-56 102,-56 102,-37 174,-37 174,-56"/>
<text text-anchor="middle" x="138" y="-44" font-family="Helvetica,sans-Serif" font-size="10.00">magneto_init</text>
</a>
</g>
</g>
<!-- Node1&#45;&gt;Node2 -->
<g id="edge1" class="edge">
<title>Node1&#45;&gt;Node2</title>
<path fill="none" stroke="#63b8ff" d="M38.28,-30.47C52.33,-32.75 72.38,-36.01 90.75,-38.99"/>
<polygon fill="#63b8ff" stroke="#63b8ff" points="89.97,-42.41 100.4,-40.56 91.09,-35.5 89.97,-42.41"/>
</g>
<!-- Node3 -->
<g id="node3" class="node">
<title>Node3</title>
<g id="a_node3"><a xlink:href="wifi_8c.html#a829ded4aede301fbb42e0f323f537364" target="_top" xlink:title="Initializes the TCP server by initializing standard input/output, initializing the CYW43 architecture...">
<polygon fill="white" stroke="#666666" points="202,-19 74,-19 74,0 202,0 202,-19"/>
<text text-anchor="middle" x="138" y="-7" font-family="Helvetica,sans-Serif" font-size="10.00">wifi_tcp_server_begin_init</text>
</a>
</g>
</g>
<!-- Node1&#45;&gt;Node3 -->
<g id="edge2" class="edge">
<title>Node1&#45;&gt;Node3</title>
<path fill="none" stroke="#63b8ff" d="M38.28,-24.69C45.23,-23.62 53.64,-22.33 62.59,-20.95"/>
<polygon fill="#63b8ff" stroke="#63b8ff" points="62.86,-24.45 72.21,-19.47 61.79,-17.53 62.86,-24.45"/>
</g>
</g>
</svg>
