<?xml version="1.0" encoding="UTF-8" standalone="no"?>
<!DOCTYPE svg PUBLIC "-//W3C//DTD SVG 1.1//EN"
 "http://www.w3.org/Graphics/SVG/1.1/DTD/svg11.dtd">
<!-- Generated by graphviz version 7.0.5 (20221223.1930)
 -->
<!-- Title: src/drivers/irline/ir_sensor.c Pages: 1 -->
<svg width="434pt" height="203pt"
 viewBox="0.00 0.00 434.23 203.00" xmlns="http://www.w3.org/2000/svg" xmlns:xlink="http://www.w3.org/1999/xlink">
<g id="graph0" class="graph" transform="scale(1 1) rotate(0) translate(4 199)">
<title>src/drivers/irline/ir_sensor.c</title>
<!-- Node1 -->
<g id="node1" class="node">
<title>Node1</title>
<g id="a_node1"><a xlink:title="Driver code for the IR sensor driver.">
<polygon fill="#999999" stroke="#666666" points="238.23,-195 152.23,-195 152.23,-165 238.23,-165 238.23,-195"/>
<text text-anchor="start" x="160.23" y="-183" font-family="Helvetica,sans-Serif" font-size="10.00">src/drivers/irline</text>
<text text-anchor="middle" x="195.23" y="-172" font-family="Helvetica,sans-Serif" font-size="10.00">/ir_sensor.c</text>
</a>
</g>
</g>
<!-- Node2 -->
<g id="node2" class="node">
<title>Node2</title>
<g id="a_node2"><a xlink:title=" ">
<polygon fill="#e0e0e0" stroke="#999999" points="193.23,-19 145.23,-19 145.23,0 193.23,0 193.23,-19"/>
<text text-anchor="middle" x="169.23" y="-7" font-family="Helvetica,sans-Serif" font-size="10.00">stdint.h</text>
</a>
</g>
</g>
<!-- Node1&#45;&gt;Node2 -->
<g id="edge1" class="edge">
<title>Node1&#45;&gt;Node2</title>
<path fill="none" stroke="#63b8ff" d="M151.78,-173.44C102.43,-166.12 26.48,-151.49 9.23,-129 -30.5,-77.18 75.53,-37.31 133.84,-19.97"/>
<polygon fill="#63b8ff" stroke="#63b8ff" points="134.71,-23.36 143.35,-17.23 132.77,-16.64 134.71,-23.36"/>
</g>
<!-- Node3 -->
<g id="node3" class="node">
<title>Node3</title>
<g id="a_node3"><a xlink:title=" ">
<polygon fill="#e0e0e0" stroke="#999999" points="83.73,-129 18.73,-129 18.73,-110 83.73,-110 83.73,-129"/>
<text text-anchor="middle" x="51.23" y="-117" font-family="Helvetica,sans-Serif" font-size="10.00">sys/types.h</text>
</a>
</g>
</g>
<!-- Node1&#45;&gt;Node3 -->
<g id="edge2" class="edge">
<title>Node1&#45;&gt;Node3</title>
<path fill="none" stroke="#63b8ff" d="M159.64,-164.54C136.3,-155.06 106.05,-142.77 83.43,-133.58"/>
<polygon fill="#63b8ff" stroke="#63b8ff" points="84.99,-130.44 74.41,-129.92 82.36,-136.92 84.99,-130.44"/>
</g>
<!-- Node4 -->
<g id="node4" class="node">
<title>Node4</title>
<g id="a_node4"><a xlink:title=" ">
<polygon fill="#e0e0e0" stroke="#999999" points="186.73,-129 101.73,-129 101.73,-110 186.73,-110 186.73,-129"/>
<text text-anchor="middle" x="144.23" y="-117" font-family="Helvetica,sans-Serif" font-size="10.00">hardware/gpio.h</text>
</a>
</g>
</g>
<!-- Node1&#45;&gt;Node4 -->
<g id="edge3" class="edge">
<title>Node1&#45;&gt;Node4</title>
<path fill="none" stroke="#63b8ff" d="M182.63,-164.54C175.52,-156.39 166.6,-146.16 159.15,-137.61"/>
<polygon fill="#63b8ff" stroke="#63b8ff" points="162,-135.55 152.79,-130.32 156.72,-140.15 162,-135.55"/>
</g>
<!-- Node5 -->
<g id="node5" class="node">
<title>Node5</title>
<g id="a_node5"><a xlink:title=" ">
<polygon fill="#e0e0e0" stroke="#999999" points="287.73,-129 204.73,-129 204.73,-110 287.73,-110 287.73,-129"/>
<text text-anchor="middle" x="246.23" y="-117" font-family="Helvetica,sans-Serif" font-size="10.00">hardware/adc.h</text>
</a>
</g>
</g>
<!-- Node1&#45;&gt;Node5 -->
<g id="edge4" class="edge">
<title>Node1&#45;&gt;Node5</title>
<path fill="none" stroke="#63b8ff" d="M207.84,-164.54C214.95,-156.39 223.86,-146.16 231.31,-137.61"/>
<polygon fill="#63b8ff" stroke="#63b8ff" points="233.74,-140.15 237.68,-130.32 228.47,-135.55 233.74,-140.15"/>
</g>
<!-- Node6 -->
<g id="node6" class="node">
<title>Node6</title>
<g id="a_node6"><a xlink:href="ir__sensor_8h.html" target="_top" xlink:title="Header file for the IR sensor driver.">
<polygon fill="white" stroke="#666666" points="392.73,-129 305.73,-129 305.73,-110 392.73,-110 392.73,-129"/>
<text text-anchor="middle" x="349.23" y="-117" font-family="Helvetica,sans-Serif" font-size="10.00">irline/ir_sensor.h</text>
</a>
</g>
</g>
<!-- Node1&#45;&gt;Node6 -->
<g id="edge5" class="edge">
<title>Node1&#45;&gt;Node6</title>
<path fill="none" stroke="#63b8ff" d="M233.3,-164.54C258.48,-154.97 291.2,-142.55 315.45,-133.33"/>
<polygon fill="#63b8ff" stroke="#63b8ff" points="316.43,-136.71 324.53,-129.88 313.94,-130.16 316.43,-136.71"/>
</g>
<!-- Node8 -->
<g id="node8" class="node">
<title>Node8</title>
<g id="a_node8"><a xlink:href="barcode_8h.html" target="_top" xlink:title="Header file for the barcode driver.">
<polygon fill="white" stroke="#666666" points="426.23,-74 344.23,-74 344.23,-55 426.23,-55 426.23,-74"/>
<text text-anchor="middle" x="385.23" y="-62" font-family="Helvetica,sans-Serif" font-size="10.00">irline/barcode.h</text>
</a>
</g>
</g>
<!-- Node1&#45;&gt;Node8 -->
<g id="edge9" class="edge">
<title>Node1&#45;&gt;Node8</title>
<path fill="none" stroke="#63b8ff" d="M238.28,-174.78C292.84,-168.45 382.22,-154.42 402.23,-129 412.47,-115.99 405.65,-97.34 397.82,-83.62"/>
<polygon fill="#63b8ff" stroke="#63b8ff" points="401.01,-82.12 392.7,-75.54 395.09,-85.86 401.01,-82.12"/>
</g>
<!-- Node7 -->
<g id="node7" class="node">
<title>Node7</title>
<g id="a_node7"><a xlink:title=" ">
<polygon fill="#e0e0e0" stroke="#999999" points="326.23,-74 258.23,-74 258.23,-55 326.23,-55 326.23,-74"/>
<text text-anchor="middle" x="292.23" y="-62" font-family="Helvetica,sans-Serif" font-size="10.00">pico/types.h</text>
</a>
</g>
</g>
<!-- Node6&#45;&gt;Node7 -->
<g id="edge6" class="edge">
<title>Node6&#45;&gt;Node7</title>
<path fill="none" stroke="#63b8ff" d="M339.56,-109.51C331.49,-102 319.77,-91.1 310.01,-82.03"/>
<polygon fill="#63b8ff" stroke="#63b8ff" points="312.58,-79.63 302.87,-75.39 307.81,-84.76 312.58,-79.63"/>
</g>
<!-- Node6&#45;&gt;Node8 -->
<g id="edge7" class="edge">
<title>Node6&#45;&gt;Node8</title>
<path fill="none" stroke="#63b8ff" d="M355.18,-109.75C359.94,-102.73 366.8,-92.64 372.75,-83.87"/>
<polygon fill="#63b8ff" stroke="#63b8ff" points="375.59,-85.93 378.31,-75.69 369.8,-82 375.59,-85.93"/>
</g>
<!-- Node8&#45;&gt;Node2 -->
<g id="edge8" class="edge">
<title>Node8&#45;&gt;Node2</title>
<path fill="none" stroke="#63b8ff" d="M348.59,-54.51C308.39,-44.64 244.3,-28.92 204.61,-19.18"/>
<polygon fill="#63b8ff" stroke="#63b8ff" points="205.63,-15.83 195.08,-16.84 203.96,-22.62 205.63,-15.83"/>
</g>
</g>
</svg>
