<?xml version="1.0" encoding="UTF-8" standalone="no"?>
<!DOCTYPE svg PUBLIC "-//W3C//DTD SVG 1.1//EN"
 "http://www.w3.org/Graphics/SVG/1.1/DTD/svg11.dtd">
<!-- Generated by graphviz version 7.0.5 (20221223.1930)
 -->
<!-- Title: main/driver/irline/ir_sensor.h Pages: 1 -->
<svg width="308pt" height="104pt"
 viewBox="0.00 0.00 308.00 104.00" xmlns="http://www.w3.org/2000/svg" xmlns:xlink="http://www.w3.org/1999/xlink">
<g id="graph0" class="graph" transform="scale(1 1) rotate(0) translate(4 100)">
<title>main/driver/irline/ir_sensor.h</title>
<!-- Node1 -->
<g id="node1" class="node">
<title>Node1</title>
<g id="a_node1"><a xlink:title="Header file for the IR sensor driver.">
<polygon fill="#999999" stroke="#666666" points="194,-96 106,-96 106,-66 194,-66 194,-96"/>
<text text-anchor="start" x="114" y="-84" font-family="Helvetica,sans-Serif" font-size="10.00">main/driver/irline</text>
<text text-anchor="middle" x="150" y="-73" font-family="Helvetica,sans-Serif" font-size="10.00">/ir_sensor.h</text>
</a>
</g>
</g>
<!-- Node2 -->
<g id="node2" class="node">
<title>Node2</title>
<g id="a_node2"><a xlink:href="barcode_8c.html" target="_top" xlink:title="Implementation of the barcode driver.">
<polygon fill="white" stroke="#666666" points="88,-30 0,-30 0,0 88,0 88,-30"/>
<text text-anchor="start" x="8" y="-18" font-family="Helvetica,sans-Serif" font-size="10.00">main/driver/irline</text>
<text text-anchor="middle" x="44" y="-7" font-family="Helvetica,sans-Serif" font-size="10.00">/barcode.c</text>
</a>
</g>
</g>
<!-- Node1&#45;&gt;Node2 -->
<g id="edge1" class="edge">
<title>Node1&#45;&gt;Node2</title>
<path fill="none" stroke="#63b8ff" d="M116.73,-59.91C100.82,-50.31 82.15,-39.03 67.71,-30.31"/>
<polygon fill="#63b8ff" stroke="#63b8ff" points="114.55,-62.68 124.92,-64.85 118.16,-56.69 114.55,-62.68"/>
</g>
<!-- Node3 -->
<g id="node3" class="node">
<title>Node3</title>
<g id="a_node3"><a xlink:href="ir__sensor_8c.html" target="_top" xlink:title="Driver code for the IR sensor driver.">
<polygon fill="white" stroke="#666666" points="194,-30 106,-30 106,0 194,0 194,-30"/>
<text text-anchor="start" x="114" y="-18" font-family="Helvetica,sans-Serif" font-size="10.00">main/driver/irline</text>
<text text-anchor="middle" x="150" y="-7" font-family="Helvetica,sans-Serif" font-size="10.00">/ir_sensor.c</text>
</a>
</g>
</g>
<!-- Node1&#45;&gt;Node3 -->
<g id="edge2" class="edge">
<title>Node1&#45;&gt;Node3</title>
<path fill="none" stroke="#63b8ff" d="M150,-54.39C150,-46.13 150,-37.28 150,-30.16"/>
<polygon fill="#63b8ff" stroke="#63b8ff" points="146.5,-54.28 150,-64.28 153.5,-54.28 146.5,-54.28"/>
</g>
<!-- Node4 -->
<g id="node4" class="node">
<title>Node4</title>
<g id="a_node4"><a xlink:href="driver_2irline_2main_8c.html" target="_top" xlink:title="Demonstration for the IR sensor driver.">
<polygon fill="white" stroke="#666666" points="300,-30 212,-30 212,0 300,0 300,-30"/>
<text text-anchor="start" x="220" y="-18" font-family="Helvetica,sans-Serif" font-size="10.00">main/driver/irline</text>
<text text-anchor="middle" x="256" y="-7" font-family="Helvetica,sans-Serif" font-size="10.00">/main.c</text>
</a>
</g>
</g>
<!-- Node1&#45;&gt;Node4 -->
<g id="edge3" class="edge">
<title>Node1&#45;&gt;Node4</title>
<path fill="none" stroke="#63b8ff" d="M183.27,-59.91C199.18,-50.31 217.85,-39.03 232.29,-30.31"/>
<polygon fill="#63b8ff" stroke="#63b8ff" points="181.84,-56.69 175.08,-64.85 185.45,-62.68 181.84,-56.69"/>
</g>
</g>
</svg>
