<?xml version="1.0" encoding="UTF-8" standalone="no"?>
<!DOCTYPE svg PUBLIC "-//W3C//DTD SVG 1.1//EN"
 "http://www.w3.org/Graphics/SVG/1.1/DTD/svg11.dtd">
<!-- Generated by graphviz version 7.0.5 (20221223.1930)
 -->
<!-- Title: src/drivers/irline/ir_sensor.h Pages: 1 -->
<svg width="382pt" height="104pt"
 viewBox="0.00 0.00 382.00 104.00" xmlns="http://www.w3.org/2000/svg" xmlns:xlink="http://www.w3.org/1999/xlink">
<g id="graph0" class="graph" transform="scale(1 1) rotate(0) translate(4 100)">
<title>src/drivers/irline/ir_sensor.h</title>
<!-- Node1 -->
<g id="node1" class="node">
<title>Node1</title>
<g id="a_node1"><a xlink:title="Header file for the IR sensor driver.">
<polygon fill="#999999" stroke="#666666" points="242,-96 156,-96 156,-66 242,-66 242,-96"/>
<text text-anchor="start" x="164" y="-84" font-family="Helvetica,sans-Serif" font-size="10.00">src/drivers/irline</text>
<text text-anchor="middle" x="199" y="-73" font-family="Helvetica,sans-Serif" font-size="10.00">/ir_sensor.h</text>
</a>
</g>
</g>
<!-- Node2 -->
<g id="node2" class="node">
<title>Node2</title>
<g id="a_node2"><a xlink:href="barcode_8c.html" target="_top" xlink:title="Implementation of the barcode driver.">
<polygon fill="white" stroke="#666666" points="86,-30 0,-30 0,0 86,0 86,-30"/>
<text text-anchor="start" x="8" y="-18" font-family="Helvetica,sans-Serif" font-size="10.00">src/drivers/irline</text>
<text text-anchor="middle" x="43" y="-7" font-family="Helvetica,sans-Serif" font-size="10.00">/barcode.c</text>
</a>
</g>
</g>
<!-- Node1&#45;&gt;Node2 -->
<g id="edge1" class="edge">
<title>Node1&#45;&gt;Node2</title>
<path fill="none" stroke="#63b8ff" d="M153.36,-61.27C129.36,-51.43 100.39,-39.55 78.16,-30.43"/>
<polygon fill="#63b8ff" stroke="#63b8ff" points="152.01,-64.51 162.59,-65.06 154.67,-58.03 152.01,-64.51"/>
</g>
<!-- Node3 -->
<g id="node3" class="node">
<title>Node3</title>
<g id="a_node3"><a xlink:href="ir__sensor_8c.html" target="_top" xlink:title="Driver code for the IR sensor driver.">
<polygon fill="white" stroke="#666666" points="190,-30 104,-30 104,0 190,0 190,-30"/>
<text text-anchor="start" x="112" y="-18" font-family="Helvetica,sans-Serif" font-size="10.00">src/drivers/irline</text>
<text text-anchor="middle" x="147" y="-7" font-family="Helvetica,sans-Serif" font-size="10.00">/ir_sensor.c</text>
</a>
</g>
</g>
<!-- Node1&#45;&gt;Node3 -->
<g id="edge2" class="edge">
<title>Node1&#45;&gt;Node3</title>
<path fill="none" stroke="#63b8ff" d="M180.28,-56.96C173,-48 164.9,-38.03 158.51,-30.16"/>
<polygon fill="#63b8ff" stroke="#63b8ff" points="177.48,-59.07 186.51,-64.62 182.92,-54.65 177.48,-59.07"/>
</g>
<!-- Node4 -->
<g id="node4" class="node">
<title>Node4</title>
<g id="a_node4"><a xlink:href="drivers_2irline_2main_8c.html" target="_top" xlink:title="Demonstration for the IR sensor driver.">
<polygon fill="white" stroke="#666666" points="294,-30 208,-30 208,0 294,0 294,-30"/>
<text text-anchor="start" x="216" y="-18" font-family="Helvetica,sans-Serif" font-size="10.00">src/drivers/irline</text>
<text text-anchor="middle" x="251" y="-7" font-family="Helvetica,sans-Serif" font-size="10.00">/main.c</text>
</a>
</g>
</g>
<!-- Node1&#45;&gt;Node4 -->
<g id="edge3" class="edge">
<title>Node1&#45;&gt;Node4</title>
<path fill="none" stroke="#63b8ff" d="M217.72,-56.96C225,-48 233.1,-38.03 239.49,-30.16"/>
<polygon fill="#63b8ff" stroke="#63b8ff" points="215.08,-54.65 211.49,-64.62 220.52,-59.07 215.08,-54.65"/>
</g>
<!-- Node5 -->
<g id="node5" class="node">
<title>Node5</title>
<g id="a_node5"><a xlink:href="main_8c.html" target="_top" xlink:title="The main source file for robot control.">
<polygon fill="white" stroke="#666666" points="374,-24.5 312,-24.5 312,-5.5 374,-5.5 374,-24.5"/>
<text text-anchor="middle" x="343" y="-12.5" font-family="Helvetica,sans-Serif" font-size="10.00">src/main.c</text>
</a>
</g>
</g>
<!-- Node1&#45;&gt;Node5 -->
<g id="edge4" class="edge">
<title>Node1&#45;&gt;Node5</title>
<path fill="none" stroke="#63b8ff" d="M241.61,-61.06C268.43,-49.14 301.82,-34.3 322.78,-24.99"/>
<polygon fill="#63b8ff" stroke="#63b8ff" points="240.42,-57.76 232.7,-65.02 243.26,-64.16 240.42,-57.76"/>
</g>
</g>
</svg>
