<?xml version="1.0" encoding="UTF-8" standalone="no"?>
<!DOCTYPE svg PUBLIC "-//W3C//DTD SVG 1.1//EN"
 "http://www.w3.org/Graphics/SVG/1.1/DTD/svg11.dtd">
<!-- Generated by graphviz version 7.0.5 (20221223.1930)
 -->
<!-- Title: main/driver/irline/ir_sensor.c Pages: 1 -->
<svg width="489pt" height="203pt"
 viewBox="0.00 0.00 489.00 203.00" xmlns="http://www.w3.org/2000/svg" xmlns:xlink="http://www.w3.org/1999/xlink">
<g id="graph0" class="graph" transform="scale(1 1) rotate(0) translate(4 199)">
<title>main/driver/irline/ir_sensor.c</title>
<!-- Node1 -->
<g id="node1" class="node">
<title>Node1</title>
<g id="a_node1"><a xlink:title="Driver code for the IR sensor driver.">
<polygon fill="#999999" stroke="#666666" points="271.5,-195 183.5,-195 183.5,-165 271.5,-165 271.5,-195"/>
<text text-anchor="start" x="191.5" y="-183" font-family="Helvetica,sans-Serif" font-size="10.00">main/driver/irline</text>
<text text-anchor="middle" x="227.5" y="-172" font-family="Helvetica,sans-Serif" font-size="10.00">/ir_sensor.c</text>
</a>
</g>
</g>
<!-- Node2 -->
<g id="node2" class="node">
<title>Node2</title>
<g id="a_node2"><a xlink:title=" ">
<polygon fill="#e0e0e0" stroke="#999999" points="45,-129 0,-129 0,-110 45,-110 45,-129"/>
<text text-anchor="middle" x="22.5" y="-117" font-family="Helvetica,sans-Serif" font-size="10.00">stdio.h</text>
</a>
</g>
</g>
<!-- Node1&#45;&gt;Node2 -->
<g id="edge1" class="edge">
<title>Node1&#45;&gt;Node2</title>
<path fill="none" stroke="#63b8ff" d="M183.02,-166.31C144.93,-155.44 90.91,-140.02 56.28,-130.14"/>
<polygon fill="#63b8ff" stroke="#63b8ff" points="57.36,-126.81 46.79,-127.43 55.44,-133.54 57.36,-126.81"/>
</g>
<!-- Node3 -->
<g id="node3" class="node">
<title>Node3</title>
<g id="a_node3"><a xlink:title=" ">
<polygon fill="#e0e0e0" stroke="#999999" points="271.5,-19 223.5,-19 223.5,0 271.5,0 271.5,-19"/>
<text text-anchor="middle" x="247.5" y="-7" font-family="Helvetica,sans-Serif" font-size="10.00">stdint.h</text>
</a>
</g>
</g>
<!-- Node1&#45;&gt;Node3 -->
<g id="edge2" class="edge">
<title>Node1&#45;&gt;Node3</title>
<path fill="none" stroke="#63b8ff" d="M183.09,-173.9C136.06,-166.39 71.3,-148.81 92.5,-110 117.9,-63.52 175.32,-35.53 212.7,-21.56"/>
<polygon fill="#63b8ff" stroke="#63b8ff" points="213.47,-25.01 221.7,-18.34 211.11,-18.41 213.47,-25.01"/>
</g>
<!-- Node4 -->
<g id="node4" class="node">
<title>Node4</title>
<g id="a_node4"><a xlink:title=" ">
<polygon fill="#e0e0e0" stroke="#999999" points="167,-129 102,-129 102,-110 167,-110 167,-129"/>
<text text-anchor="middle" x="134.5" y="-117" font-family="Helvetica,sans-Serif" font-size="10.00">sys/types.h</text>
</a>
</g>
</g>
<!-- Node1&#45;&gt;Node4 -->
<g id="edge3" class="edge">
<title>Node1&#45;&gt;Node4</title>
<path fill="none" stroke="#63b8ff" d="M204.51,-164.54C190.4,-155.66 172.37,-144.32 158.14,-135.37"/>
<polygon fill="#63b8ff" stroke="#63b8ff" points="160.17,-132.51 149.84,-130.15 156.45,-138.44 160.17,-132.51"/>
</g>
<!-- Node5 -->
<g id="node5" class="node">
<title>Node5</title>
<g id="a_node5"><a xlink:title=" ">
<polygon fill="#e0e0e0" stroke="#999999" points="270,-129 185,-129 185,-110 270,-110 270,-129"/>
<text text-anchor="middle" x="227.5" y="-117" font-family="Helvetica,sans-Serif" font-size="10.00">hardware/gpio.h</text>
</a>
</g>
</g>
<!-- Node1&#45;&gt;Node5 -->
<g id="edge4" class="edge">
<title>Node1&#45;&gt;Node5</title>
<path fill="none" stroke="#63b8ff" d="M227.5,-164.54C227.5,-157.34 227.5,-148.53 227.5,-140.68"/>
<polygon fill="#63b8ff" stroke="#63b8ff" points="231,-140.69 227.5,-130.69 224,-140.69 231,-140.69"/>
</g>
<!-- Node6 -->
<g id="node6" class="node">
<title>Node6</title>
<g id="a_node6"><a xlink:title=" ">
<polygon fill="#e0e0e0" stroke="#999999" points="371,-129 288,-129 288,-110 371,-110 371,-129"/>
<text text-anchor="middle" x="329.5" y="-117" font-family="Helvetica,sans-Serif" font-size="10.00">hardware/adc.h</text>
</a>
</g>
</g>
<!-- Node1&#45;&gt;Node6 -->
<g id="edge5" class="edge">
<title>Node1&#45;&gt;Node6</title>
<path fill="none" stroke="#63b8ff" d="M252.71,-164.54C268.49,-155.49 288.73,-143.88 304.47,-134.85"/>
<polygon fill="#63b8ff" stroke="#63b8ff" points="305.83,-138.11 312.76,-130.1 302.35,-132.04 305.83,-138.11"/>
</g>
<!-- Node7 -->
<g id="node7" class="node">
<title>Node7</title>
<g id="a_node7"><a xlink:href="ir__sensor_8h.html" target="_top" xlink:title="Header file for the IR sensor driver.">
<polygon fill="white" stroke="#666666" points="453.5,-129 389.5,-129 389.5,-110 453.5,-110 453.5,-129"/>
<text text-anchor="middle" x="421.5" y="-117" font-family="Helvetica,sans-Serif" font-size="10.00">ir_sensor.h</text>
</a>
</g>
</g>
<!-- Node1&#45;&gt;Node7 -->
<g id="edge6" class="edge">
<title>Node1&#45;&gt;Node7</title>
<path fill="none" stroke="#63b8ff" d="M271.52,-165.73C304.42,-155.8 349.05,-142.35 381.06,-132.69"/>
<polygon fill="#63b8ff" stroke="#63b8ff" points="381.8,-136.13 390.36,-129.89 379.78,-129.43 381.8,-136.13"/>
</g>
<!-- Node9 -->
<g id="node9" class="node">
<title>Node9</title>
<g id="a_node9"><a xlink:href="barcode_8h.html" target="_top" xlink:title="Header file for the barcode driver.">
<polygon fill="white" stroke="#666666" points="481,-74 422,-74 422,-55 481,-55 481,-74"/>
<text text-anchor="middle" x="451.5" y="-62" font-family="Helvetica,sans-Serif" font-size="10.00">barcode.h</text>
</a>
</g>
</g>
<!-- Node1&#45;&gt;Node9 -->
<g id="edge10" class="edge">
<title>Node1&#45;&gt;Node9</title>
<path fill="none" stroke="#63b8ff" d="M271.86,-176.05C333.18,-170.94 438.98,-158.06 462.5,-129 472.51,-116.64 468.01,-98.42 462.03,-84.66"/>
<polygon fill="#63b8ff" stroke="#63b8ff" points="465.18,-83.15 457.61,-75.74 458.91,-86.25 465.18,-83.15"/>
</g>
<!-- Node8 -->
<g id="node8" class="node">
<title>Node8</title>
<g id="a_node8"><a xlink:title=" ">
<polygon fill="#e0e0e0" stroke="#999999" points="403.5,-74 335.5,-74 335.5,-55 403.5,-55 403.5,-74"/>
<text text-anchor="middle" x="369.5" y="-62" font-family="Helvetica,sans-Serif" font-size="10.00">pico/types.h</text>
</a>
</g>
</g>
<!-- Node7&#45;&gt;Node8 -->
<g id="edge7" class="edge">
<title>Node7&#45;&gt;Node8</title>
<path fill="none" stroke="#63b8ff" d="M412.91,-109.75C405.66,-102.35 395.05,-91.54 386.13,-82.45"/>
<polygon fill="#63b8ff" stroke="#63b8ff" points="388.84,-80.21 379.33,-75.52 383.84,-85.11 388.84,-80.21"/>
</g>
<!-- Node7&#45;&gt;Node9 -->
<g id="edge8" class="edge">
<title>Node7&#45;&gt;Node9</title>
<path fill="none" stroke="#63b8ff" d="M426.45,-109.75C430.34,-102.88 435.89,-93.08 440.78,-84.45"/>
<polygon fill="#63b8ff" stroke="#63b8ff" points="443.81,-86.19 445.69,-75.76 437.72,-82.74 443.81,-86.19"/>
</g>
<!-- Node9&#45;&gt;Node3 -->
<g id="edge9" class="edge">
<title>Node9&#45;&gt;Node3</title>
<path fill="none" stroke="#63b8ff" d="M421.84,-55.79C384.92,-46.2 321.97,-29.85 282.67,-19.64"/>
<polygon fill="#63b8ff" stroke="#63b8ff" points="283.79,-16.31 273.23,-17.19 282.03,-23.09 283.79,-16.31"/>
</g>
</g>
</svg>
