<?xml version="1.0" encoding="UTF-8" standalone="no"?>
<!DOCTYPE svg PUBLIC "-//W3C//DTD SVG 1.1//EN"
 "http://www.w3.org/Graphics/SVG/1.1/DTD/svg11.dtd">
<!-- Generated by graphviz version 7.0.5 (20221223.1930)
 -->
<!-- Title: main/driver/magnetometer/magnetometer.h Pages: 1 -->
<svg width="469pt" height="104pt"
 viewBox="0.00 0.00 468.50 104.00" xmlns="http://www.w3.org/2000/svg" xmlns:xlink="http://www.w3.org/1999/xlink">
<g id="graph0" class="graph" transform="scale(1 1) rotate(0) translate(4 100)">
<title>main/driver/magnetometer/magnetometer.h</title>
<!-- Node1 -->
<g id="node1" class="node">
<title>Node1</title>
<g id="a_node1"><a xlink:title="Header file for the magnetometer driver.">
<polygon fill="#999999" stroke="#666666" points="337,-96 207,-96 207,-66 337,-66 337,-96"/>
<text text-anchor="start" x="215" y="-84" font-family="Helvetica,sans-Serif" font-size="10.00">main/driver/magnetometer</text>
<text text-anchor="middle" x="272" y="-73" font-family="Helvetica,sans-Serif" font-size="10.00">/magnetometer.h</text>
</a>
</g>
</g>
<!-- Node2 -->
<g id="node2" class="node">
<title>Node2</title>
<g id="a_node2"><a xlink:href="magnetometer_8c.html" target="_top" xlink:title="This file contains functions for initializing and reading data from a magnetometer sensor using I2C c...">
<polygon fill="white" stroke="#666666" points="130,-30 0,-30 0,0 130,0 130,-30"/>
<text text-anchor="start" x="8" y="-18" font-family="Helvetica,sans-Serif" font-size="10.00">main/driver/magnetometer</text>
<text text-anchor="middle" x="65" y="-7" font-family="Helvetica,sans-Serif" font-size="10.00">/magnetometer.c</text>
</a>
</g>
</g>
<!-- Node1&#45;&gt;Node2 -->
<g id="edge1" class="edge">
<title>Node1&#45;&gt;Node2</title>
<path fill="none" stroke="#63b8ff" d="M214.59,-62.25C182.12,-52.21 142.04,-39.82 111.54,-30.39"/>
<polygon fill="#63b8ff" stroke="#63b8ff" points="213.25,-65.5 223.84,-65.11 215.32,-58.81 213.25,-65.5"/>
</g>
<!-- Node3 -->
<g id="node3" class="node">
<title>Node3</title>
<g id="a_node3"><a xlink:href="driver_2magnetometer_2main_8c.html" target="_top" xlink:title="Demonstration for the magnetometer driver.">
<polygon fill="white" stroke="#666666" points="278,-30 148,-30 148,0 278,0 278,-30"/>
<text text-anchor="start" x="156" y="-18" font-family="Helvetica,sans-Serif" font-size="10.00">main/driver/magnetometer</text>
<text text-anchor="middle" x="213" y="-7" font-family="Helvetica,sans-Serif" font-size="10.00">/main.c</text>
</a>
</g>
</g>
<!-- Node1&#45;&gt;Node3 -->
<g id="edge2" class="edge">
<title>Node1&#45;&gt;Node3</title>
<path fill="none" stroke="#63b8ff" d="M251.28,-57.53C242.89,-48.43 233.46,-38.19 226.06,-30.16"/>
<polygon fill="#63b8ff" stroke="#63b8ff" points="248.53,-59.7 257.88,-64.68 253.68,-54.96 248.53,-59.7"/>
</g>
<!-- Node4 -->
<g id="node4" class="node">
<title>Node4</title>
<g id="a_node4"><a xlink:href="main_8c.html" target="_top" xlink:title="The main source file for robot control.">
<polygon fill="white" stroke="#666666" points="365.5,-24.5 296.5,-24.5 296.5,-5.5 365.5,-5.5 365.5,-24.5"/>
<text text-anchor="middle" x="331" y="-12.5" font-family="Helvetica,sans-Serif" font-size="10.00">main/main.c</text>
</a>
</g>
</g>
<!-- Node1&#45;&gt;Node4 -->
<g id="edge3" class="edge">
<title>Node1&#45;&gt;Node4</title>
<path fill="none" stroke="#63b8ff" d="M292.64,-57.61C303.05,-46.32 315.07,-33.28 322.85,-24.84"/>
<polygon fill="#63b8ff" stroke="#63b8ff" points="290.32,-54.96 286.12,-64.68 295.47,-59.7 290.32,-54.96"/>
</g>
<!-- Node5 -->
<g id="node5" class="node">
<title>Node5</title>
<g id="a_node5"><a xlink:href="pid_8c.html" target="_top" xlink:title=" ">
<polygon fill="white" stroke="#666666" points="460.5,-24.5 383.5,-24.5 383.5,-5.5 460.5,-5.5 460.5,-24.5"/>
<text text-anchor="middle" x="422" y="-12.5" font-family="Helvetica,sans-Serif" font-size="10.00">main/pid/pid.c</text>
</a>
</g>
</g>
<!-- Node1&#45;&gt;Node5 -->
<g id="edge4" class="edge">
<title>Node1&#45;&gt;Node5</title>
<path fill="none" stroke="#63b8ff" d="M316.01,-61.22C344.01,-49.27 379.01,-34.34 400.94,-24.99"/>
<polygon fill="#63b8ff" stroke="#63b8ff" points="314.88,-57.9 307.06,-65.04 317.63,-64.34 314.88,-57.9"/>
</g>
</g>
</svg>
