<?xml version="1.0" encoding="UTF-8" standalone="no"?>
<!DOCTYPE svg PUBLIC "-//W3C//DTD SVG 1.1//EN"
 "http://www.w3.org/Graphics/SVG/1.1/DTD/svg11.dtd">
<!-- Generated by graphviz version 7.0.5 (20221223.1930)
 -->
<!-- Title: src/drivers/magnetometer/magnetometer.h Pages: 1 -->
<svg width="482pt" height="104pt"
 viewBox="0.00 0.00 482.00 104.00" xmlns="http://www.w3.org/2000/svg" xmlns:xlink="http://www.w3.org/1999/xlink">
<g id="graph0" class="graph" transform="scale(1 1) rotate(0) translate(4 100)">
<title>src/drivers/magnetometer/magnetometer.h</title>
<!-- Node1 -->
<g id="node1" class="node">
<title>Node1</title>
<g id="a_node1"><a xlink:title="Header file for the magnetometer driver.">
<polygon fill="#999999" stroke="#666666" points="340,-96 212,-96 212,-66 340,-66 340,-96"/>
<text text-anchor="start" x="220" y="-84" font-family="Helvetica,sans-Serif" font-size="10.00">src/drivers/magnetometer</text>
<text text-anchor="middle" x="276" y="-73" font-family="Helvetica,sans-Serif" font-size="10.00">/magnetometer.h</text>
</a>
</g>
</g>
<!-- Node2 -->
<g id="node2" class="node">
<title>Node2</title>
<g id="a_node2"><a xlink:href="magnetometer_8c.html" target="_top" xlink:title="This file contains functions for initializing and reading data from a magnetometer and accelerometer ...">
<polygon fill="white" stroke="#666666" points="128,-30 0,-30 0,0 128,0 128,-30"/>
<text text-anchor="start" x="8" y="-18" font-family="Helvetica,sans-Serif" font-size="10.00">src/drivers/magnetometer</text>
<text text-anchor="middle" x="64" y="-7" font-family="Helvetica,sans-Serif" font-size="10.00">/magnetometer.c</text>
</a>
</g>
</g>
<!-- Node1&#45;&gt;Node2 -->
<g id="edge1" class="edge">
<title>Node1&#45;&gt;Node2</title>
<path fill="none" stroke="#63b8ff" d="M217.2,-62.25C183.95,-52.21 142.9,-39.82 111.67,-30.39"/>
<polygon fill="#63b8ff" stroke="#63b8ff" points="216.12,-65.58 226.71,-65.12 218.15,-58.88 216.12,-65.58"/>
</g>
<!-- Node3 -->
<g id="node3" class="node">
<title>Node3</title>
<g id="a_node3"><a xlink:href="drivers_2magnetometer_2main_8c.html" target="_top" xlink:title="Demonstration for the magnetometer driver.">
<polygon fill="white" stroke="#666666" points="274,-30 146,-30 146,0 274,0 274,-30"/>
<text text-anchor="start" x="154" y="-18" font-family="Helvetica,sans-Serif" font-size="10.00">src/drivers/magnetometer</text>
<text text-anchor="middle" x="210" y="-7" font-family="Helvetica,sans-Serif" font-size="10.00">/main.c</text>
</a>
</g>
</g>
<!-- Node1&#45;&gt;Node3 -->
<g id="edge2" class="edge">
<title>Node1&#45;&gt;Node3</title>
<path fill="none" stroke="#63b8ff" d="M253.11,-57.81C243.66,-48.64 232.97,-38.28 224.61,-30.16"/>
<polygon fill="#63b8ff" stroke="#63b8ff" points="250.65,-60.29 260.27,-64.74 255.52,-55.27 250.65,-60.29"/>
</g>
<!-- Node4 -->
<g id="node4" class="node">
<title>Node4</title>
<g id="a_node4"><a xlink:href="pid_8c.html" target="_top" xlink:title="Driver for PID control.">
<polygon fill="white" stroke="#666666" points="393.5,-24.5 292.5,-24.5 292.5,-5.5 393.5,-5.5 393.5,-24.5"/>
<text text-anchor="middle" x="343" y="-12.5" font-family="Helvetica,sans-Serif" font-size="10.00">src/drivers/pid/pid.c</text>
</a>
</g>
</g>
<!-- Node1&#45;&gt;Node4 -->
<g id="edge3" class="edge">
<title>Node1&#45;&gt;Node4</title>
<path fill="none" stroke="#63b8ff" d="M299.09,-57.94C310.99,-46.58 324.83,-33.36 333.74,-24.84"/>
<polygon fill="#63b8ff" stroke="#63b8ff" points="296.78,-55.31 291.96,-64.75 301.61,-60.37 296.78,-55.31"/>
</g>
<!-- Node5 -->
<g id="node5" class="node">
<title>Node5</title>
<g id="a_node5"><a xlink:href="main_8c.html" target="_top" xlink:title="The main source file for robot control.">
<polygon fill="white" stroke="#666666" points="474,-24.5 412,-24.5 412,-5.5 474,-5.5 474,-24.5"/>
<text text-anchor="middle" x="443" y="-12.5" font-family="Helvetica,sans-Serif" font-size="10.00">src/main.c</text>
</a>
</g>
</g>
<!-- Node1&#45;&gt;Node5 -->
<g id="edge4" class="edge">
<title>Node1&#45;&gt;Node5</title>
<path fill="none" stroke="#63b8ff" d="M324.18,-61.54C355.49,-49.54 394.92,-34.43 419.55,-24.99"/>
<polygon fill="#63b8ff" stroke="#63b8ff" points="322.98,-58.25 314.89,-65.1 325.48,-64.79 322.98,-58.25"/>
</g>
</g>
</svg>
