<?xml version="1.0" encoding="UTF-8" standalone="no"?>
<!DOCTYPE svg PUBLIC "-//W3C//DTD SVG 1.1//EN"
 "http://www.w3.org/Graphics/SVG/1.1/DTD/svg11.dtd">
<!-- Generated by graphviz version 7.0.5 (20221223.1930)
 -->
<!-- Title: main/driver/magnetometer/magnetometer.c Pages: 1 -->
<svg width="752pt" height="93pt"
 viewBox="0.00 0.00 751.50 93.00" xmlns="http://www.w3.org/2000/svg" xmlns:xlink="http://www.w3.org/1999/xlink">
<g id="graph0" class="graph" transform="scale(1 1) rotate(0) translate(4 89)">
<title>main/driver/magnetometer/magnetometer.c</title>
<!-- Node1 -->
<g id="node1" class="node">
<title>Node1</title>
<g id="a_node1"><a xlink:title="This file contains functions for initializing and reading data from a magnetometer sensor using I2C c...">
<polygon fill="#999999" stroke="#666666" points="376.5,-85 246.5,-85 246.5,-55 376.5,-55 376.5,-85"/>
<text text-anchor="start" x="254.5" y="-73" font-family="Helvetica,sans-Serif" font-size="10.00">main/driver/magnetometer</text>
<text text-anchor="middle" x="311.5" y="-62" font-family="Helvetica,sans-Serif" font-size="10.00">/magnetometer.c</text>
</a>
</g>
</g>
<!-- Node2 -->
<g id="node2" class="node">
<title>Node2</title>
<g id="a_node2"><a xlink:title=" ">
<polygon fill="#e0e0e0" stroke="#999999" points="45,-19 0,-19 0,0 45,0 45,-19"/>
<text text-anchor="middle" x="22.5" y="-7" font-family="Helvetica,sans-Serif" font-size="10.00">stdio.h</text>
</a>
</g>
</g>
<!-- Node1&#45;&gt;Node2 -->
<g id="edge1" class="edge">
<title>Node1&#45;&gt;Node2</title>
<path fill="none" stroke="#63b8ff" d="M246.02,-57.52C196.47,-48.55 126.52,-35.26 56.04,-19.22"/>
<polygon fill="#63b8ff" stroke="#63b8ff" points="57.18,-15.89 46.65,-17.07 55.62,-22.71 57.18,-15.89"/>
</g>
<!-- Node3 -->
<g id="node3" class="node">
<title>Node3</title>
<g id="a_node3"><a xlink:title=" ">
<polygon fill="#e0e0e0" stroke="#999999" points="111.5,-19 63.5,-19 63.5,0 111.5,0 111.5,-19"/>
<text text-anchor="middle" x="87.5" y="-7" font-family="Helvetica,sans-Serif" font-size="10.00">stdint.h</text>
</a>
</g>
</g>
<!-- Node1&#45;&gt;Node3 -->
<g id="edge2" class="edge">
<title>Node1&#45;&gt;Node3</title>
<path fill="none" stroke="#63b8ff" d="M256.13,-54.54C214.39,-43.64 158.42,-29.02 122.65,-19.68"/>
<polygon fill="#63b8ff" stroke="#63b8ff" points="123.81,-16.37 113.25,-17.23 122.05,-23.14 123.81,-16.37"/>
</g>
<!-- Node4 -->
<g id="node4" class="node">
<title>Node4</title>
<g id="a_node4"><a xlink:title=" ">
<polygon fill="#e0e0e0" stroke="#999999" points="185.5,-19 129.5,-19 129.5,0 185.5,0 185.5,-19"/>
<text text-anchor="middle" x="157.5" y="-7" font-family="Helvetica,sans-Serif" font-size="10.00">stdbool.h</text>
</a>
</g>
</g>
<!-- Node1&#45;&gt;Node4 -->
<g id="edge3" class="edge">
<title>Node1&#45;&gt;Node4</title>
<path fill="none" stroke="#63b8ff" d="M273.43,-54.54C248.25,-44.97 215.53,-32.55 191.28,-23.33"/>
<polygon fill="#63b8ff" stroke="#63b8ff" points="192.79,-20.16 182.2,-19.88 190.31,-26.71 192.79,-20.16"/>
</g>
<!-- Node5 -->
<g id="node5" class="node">
<title>Node5</title>
<g id="a_node5"><a xlink:title=" ">
<polygon fill="#e0e0e0" stroke="#999999" points="249.5,-19 203.5,-19 203.5,0 249.5,0 249.5,-19"/>
<text text-anchor="middle" x="226.5" y="-7" font-family="Helvetica,sans-Serif" font-size="10.00">math.h</text>
</a>
</g>
</g>
<!-- Node1&#45;&gt;Node5 -->
<g id="edge4" class="edge">
<title>Node1&#45;&gt;Node5</title>
<path fill="none" stroke="#63b8ff" d="M290.49,-54.54C277.64,-45.7 261.23,-34.4 248.25,-25.47"/>
<polygon fill="#63b8ff" stroke="#63b8ff" points="250.57,-22.82 240.35,-20.03 246.61,-28.59 250.57,-22.82"/>
</g>
<!-- Node6 -->
<g id="node6" class="node">
<title>Node6</title>
<g id="a_node6"><a xlink:title=" ">
<polygon fill="#e0e0e0" stroke="#999999" points="355,-19 268,-19 268,0 355,0 355,-19"/>
<text text-anchor="middle" x="311.5" y="-7" font-family="Helvetica,sans-Serif" font-size="10.00">pico/stdio_usb.h</text>
</a>
</g>
</g>
<!-- Node1&#45;&gt;Node6 -->
<g id="edge5" class="edge">
<title>Node1&#45;&gt;Node6</title>
<path fill="none" stroke="#63b8ff" d="M311.5,-54.54C311.5,-47.34 311.5,-38.53 311.5,-30.68"/>
<polygon fill="#63b8ff" stroke="#63b8ff" points="315,-30.69 311.5,-20.69 308,-30.69 315,-30.69"/>
</g>
<!-- Node7 -->
<g id="node7" class="node">
<title>Node7</title>
<g id="a_node7"><a xlink:title=" ">
<polygon fill="#e0e0e0" stroke="#999999" points="437.5,-19 373.5,-19 373.5,0 437.5,0 437.5,-19"/>
<text text-anchor="middle" x="405.5" y="-7" font-family="Helvetica,sans-Serif" font-size="10.00">pico/time.h</text>
</a>
</g>
</g>
<!-- Node1&#45;&gt;Node7 -->
<g id="edge6" class="edge">
<title>Node1&#45;&gt;Node7</title>
<path fill="none" stroke="#63b8ff" d="M334.74,-54.54C349,-45.66 367.22,-34.32 381.6,-25.37"/>
<polygon fill="#63b8ff" stroke="#63b8ff" points="383.36,-28.4 390,-20.15 379.66,-22.46 383.36,-28.4"/>
</g>
<!-- Node8 -->
<g id="node8" class="node">
<title>Node8</title>
<g id="a_node8"><a xlink:title=" ">
<polygon fill="#e0e0e0" stroke="#999999" points="541,-19 456,-19 456,0 541,0 541,-19"/>
<text text-anchor="middle" x="498.5" y="-7" font-family="Helvetica,sans-Serif" font-size="10.00">hardware/gpio.h</text>
</a>
</g>
</g>
<!-- Node1&#45;&gt;Node8 -->
<g id="edge7" class="edge">
<title>Node1&#45;&gt;Node8</title>
<path fill="none" stroke="#63b8ff" d="M357.72,-54.54C388.89,-44.79 429.57,-32.06 459.18,-22.8"/>
<polygon fill="#63b8ff" stroke="#63b8ff" points="460,-26.21 468.5,-19.88 457.91,-19.53 460,-26.21"/>
</g>
<!-- Node9 -->
<g id="node9" class="node">
<title>Node9</title>
<g id="a_node9"><a xlink:title=" ">
<polygon fill="#e0e0e0" stroke="#999999" points="639.5,-19 559.5,-19 559.5,0 639.5,0 639.5,-19"/>
<text text-anchor="middle" x="599.5" y="-7" font-family="Helvetica,sans-Serif" font-size="10.00">hardware/i2c.h</text>
</a>
</g>
</g>
<!-- Node1&#45;&gt;Node9 -->
<g id="edge8" class="edge">
<title>Node1&#45;&gt;Node9</title>
<path fill="none" stroke="#63b8ff" d="M376.85,-55.73C428.78,-45.18 500.4,-30.63 548.24,-20.91"/>
<polygon fill="#63b8ff" stroke="#63b8ff" points="548.68,-24.39 557.79,-18.97 547.29,-17.53 548.68,-24.39"/>
</g>
<!-- Node10 -->
<g id="node10" class="node">
<title>Node10</title>
<g id="a_node10"><a xlink:href="magnetometer_8h.html" target="_top" xlink:title="Header file for the magnetometer driver.">
<polygon fill="white" stroke="#666666" points="743.5,-19 657.5,-19 657.5,0 743.5,0 743.5,-19"/>
<text text-anchor="middle" x="700.5" y="-7" font-family="Helvetica,sans-Serif" font-size="10.00">magnetometer.h</text>
</a>
</g>
</g>
<!-- Node1&#45;&gt;Node10 -->
<g id="edge9" class="edge">
<title>Node1&#45;&gt;Node10</title>
<path fill="none" stroke="#63b8ff" d="M376.78,-59.61C442.24,-50.12 546.26,-34.87 645.91,-19.39"/>
<polygon fill="#63b8ff" stroke="#63b8ff" points="646.26,-22.87 655.6,-17.88 645.18,-15.96 646.26,-22.87"/>
</g>
</g>
</svg>
