<?xml version="1.0" encoding="UTF-8" standalone="no"?>
<!DOCTYPE svg PUBLIC "-//W3C//DTD SVG 1.1//EN"
 "http://www.w3.org/Graphics/SVG/1.1/DTD/svg11.dtd">
<!-- Generated by graphviz version 7.0.5 (20221223.1930)
 -->
<!-- Title: src/drivers/magnetometer/magnetometer.c Pages: 1 -->
<svg width="712pt" height="93pt"
 viewBox="0.00 0.00 711.50 93.00" xmlns="http://www.w3.org/2000/svg" xmlns:xlink="http://www.w3.org/1999/xlink">
<g id="graph0" class="graph" transform="scale(1 1) rotate(0) translate(4 89)">
<title>src/drivers/magnetometer/magnetometer.c</title>
<!-- Node1 -->
<g id="node1" class="node">
<title>Node1</title>
<g id="a_node1"><a xlink:title="This file contains functions for initializing and reading data from a magnetometer and accelerometer ...">
<polygon fill="#999999" stroke="#666666" points="326.5,-85 198.5,-85 198.5,-55 326.5,-55 326.5,-85"/>
<text text-anchor="start" x="206.5" y="-73" font-family="Helvetica,sans-Serif" font-size="10.00">src/drivers/magnetometer</text>
<text text-anchor="middle" x="262.5" y="-62" font-family="Helvetica,sans-Serif" font-size="10.00">/magnetometer.c</text>
</a>
</g>
</g>
<!-- Node2 -->
<g id="node2" class="node">
<title>Node2</title>
<g id="a_node2"><a xlink:title=" ">
<polygon fill="#e0e0e0" stroke="#999999" points="45,-19 0,-19 0,0 45,0 45,-19"/>
<text text-anchor="middle" x="22.5" y="-7" font-family="Helvetica,sans-Serif" font-size="10.00">stdio.h</text>
</a>
</g>
</g>
<!-- Node1&#45;&gt;Node2 -->
<g id="edge1" class="edge">
<title>Node1&#45;&gt;Node2</title>
<path fill="none" stroke="#63b8ff" d="M200.52,-54.51C161.7,-45.34 110.37,-33.04 56.1,-19.36"/>
<polygon fill="#63b8ff" stroke="#63b8ff" points="57.23,-16.03 46.68,-16.97 55.51,-22.82 57.23,-16.03"/>
</g>
<!-- Node3 -->
<g id="node3" class="node">
<title>Node3</title>
<g id="a_node3"><a xlink:title=" ">
<polygon fill="#e0e0e0" stroke="#999999" points="111.5,-19 63.5,-19 63.5,0 111.5,0 111.5,-19"/>
<text text-anchor="middle" x="87.5" y="-7" font-family="Helvetica,sans-Serif" font-size="10.00">stdint.h</text>
</a>
</g>
</g>
<!-- Node1&#45;&gt;Node3 -->
<g id="edge2" class="edge">
<title>Node1&#45;&gt;Node3</title>
<path fill="none" stroke="#63b8ff" d="M219.24,-54.54C189.53,-44.61 150.58,-31.59 122.75,-22.29"/>
<polygon fill="#63b8ff" stroke="#63b8ff" points="123.97,-19 113.37,-19.15 121.75,-25.64 123.97,-19"/>
</g>
<!-- Node4 -->
<g id="node4" class="node">
<title>Node4</title>
<g id="a_node4"><a xlink:title=" ">
<polygon fill="#e0e0e0" stroke="#999999" points="185.5,-19 129.5,-19 129.5,0 185.5,0 185.5,-19"/>
<text text-anchor="middle" x="157.5" y="-7" font-family="Helvetica,sans-Serif" font-size="10.00">stdbool.h</text>
</a>
</g>
</g>
<!-- Node1&#45;&gt;Node4 -->
<g id="edge3" class="edge">
<title>Node1&#45;&gt;Node4</title>
<path fill="none" stroke="#63b8ff" d="M236.54,-54.54C220.3,-45.49 199.47,-33.88 183.26,-24.85"/>
<polygon fill="#63b8ff" stroke="#63b8ff" points="185.14,-21.89 174.7,-20.08 181.73,-28.01 185.14,-21.89"/>
</g>
<!-- Node5 -->
<g id="node5" class="node">
<title>Node5</title>
<g id="a_node5"><a xlink:title=" ">
<polygon fill="#e0e0e0" stroke="#999999" points="249.5,-19 203.5,-19 203.5,0 249.5,0 249.5,-19"/>
<text text-anchor="middle" x="226.5" y="-7" font-family="Helvetica,sans-Serif" font-size="10.00">math.h</text>
</a>
</g>
</g>
<!-- Node1&#45;&gt;Node5 -->
<g id="edge4" class="edge">
<title>Node1&#45;&gt;Node5</title>
<path fill="none" stroke="#63b8ff" d="M253.6,-54.54C248.8,-46.74 242.82,-37.03 237.71,-28.71"/>
<polygon fill="#63b8ff" stroke="#63b8ff" points="240.85,-27.15 232.63,-20.46 234.89,-30.82 240.85,-27.15"/>
</g>
<!-- Node6 -->
<g id="node6" class="node">
<title>Node6</title>
<g id="a_node6"><a xlink:title=" ">
<polygon fill="#e0e0e0" stroke="#999999" points="331.5,-19 267.5,-19 267.5,0 331.5,0 331.5,-19"/>
<text text-anchor="middle" x="299.5" y="-7" font-family="Helvetica,sans-Serif" font-size="10.00">pico/time.h</text>
</a>
</g>
</g>
<!-- Node1&#45;&gt;Node6 -->
<g id="edge5" class="edge">
<title>Node1&#45;&gt;Node6</title>
<path fill="none" stroke="#63b8ff" d="M271.65,-54.54C276.58,-46.74 282.72,-37.03 287.98,-28.71"/>
<polygon fill="#63b8ff" stroke="#63b8ff" points="290.82,-30.78 293.2,-20.45 284.9,-27.03 290.82,-30.78"/>
</g>
<!-- Node7 -->
<g id="node7" class="node">
<title>Node7</title>
<g id="a_node7"><a xlink:title=" ">
<polygon fill="#e0e0e0" stroke="#999999" points="435,-19 350,-19 350,0 435,0 435,-19"/>
<text text-anchor="middle" x="392.5" y="-7" font-family="Helvetica,sans-Serif" font-size="10.00">hardware/gpio.h</text>
</a>
</g>
</g>
<!-- Node1&#45;&gt;Node7 -->
<g id="edge6" class="edge">
<title>Node1&#45;&gt;Node7</title>
<path fill="none" stroke="#63b8ff" d="M294.63,-54.54C315.41,-45.19 342.27,-33.1 362.59,-23.96"/>
<polygon fill="#63b8ff" stroke="#63b8ff" points="363.78,-27.26 371.46,-19.97 360.91,-20.88 363.78,-27.26"/>
</g>
<!-- Node8 -->
<g id="node8" class="node">
<title>Node8</title>
<g id="a_node8"><a xlink:title=" ">
<polygon fill="#e0e0e0" stroke="#999999" points="533.5,-19 453.5,-19 453.5,0 533.5,0 533.5,-19"/>
<text text-anchor="middle" x="493.5" y="-7" font-family="Helvetica,sans-Serif" font-size="10.00">hardware/i2c.h</text>
</a>
</g>
</g>
<!-- Node1&#45;&gt;Node8 -->
<g id="edge7" class="edge">
<title>Node1&#45;&gt;Node8</title>
<path fill="none" stroke="#63b8ff" d="M319.6,-54.54C358.95,-44.57 410.58,-31.5 447.33,-22.19"/>
<polygon fill="#63b8ff" stroke="#63b8ff" points="447.93,-25.65 456.76,-19.8 446.21,-18.87 447.93,-25.65"/>
</g>
<!-- Node9 -->
<g id="node9" class="node">
<title>Node9</title>
<g id="a_node9"><a xlink:href="magnetometer_8h.html" target="_top" xlink:title="Header file for the magnetometer driver.">
<polygon fill="white" stroke="#666666" points="703.5,-19 551.5,-19 551.5,0 703.5,0 703.5,-19"/>
<text text-anchor="middle" x="627.5" y="-7" font-family="Helvetica,sans-Serif" font-size="10.00">magnetometer/magnetometer.h</text>
</a>
</g>
</g>
<!-- Node1&#45;&gt;Node9 -->
<g id="edge8" class="edge">
<title>Node1&#45;&gt;Node9</title>
<path fill="none" stroke="#63b8ff" d="M326.91,-58.68C392.5,-48.16 493.74,-31.94 560.31,-21.27"/>
<polygon fill="#63b8ff" stroke="#63b8ff" points="560.69,-24.75 570.01,-19.71 559.58,-17.84 560.69,-24.75"/>
</g>
</g>
</svg>
