<?xml version="1.0" encoding="UTF-8" standalone="no"?>
<!DOCTYPE svg PUBLIC "-//W3C//DTD SVG 1.1//EN"
 "http://www.w3.org/Graphics/SVG/1.1/DTD/svg11.dtd">
<!-- Generated by graphviz version 7.0.5 (20221223.1930)
 -->
<!-- Title: main/main.c Pages: 1 -->
<svg width="1405pt" height="247pt"
 viewBox="0.00 0.00 1405.00 247.00" xmlns="http://www.w3.org/2000/svg" xmlns:xlink="http://www.w3.org/1999/xlink">
<g id="graph0" class="graph" transform="scale(1 1) rotate(0) translate(4 243)">
<title>main/main.c</title>
<!-- Node1 -->
<g id="node1" class="node">
<title>Node1</title>
<g id="a_node1"><a xlink:title="The main source file for robot control.">
<polygon fill="#999999" stroke="#666666" points="745,-239 676,-239 676,-220 745,-220 745,-239"/>
<text text-anchor="middle" x="710.5" y="-227" font-family="Helvetica,sans-Serif" font-size="10.00">main/main.c</text>
</a>
</g>
</g>
<!-- Node2 -->
<g id="node2" class="node">
<title>Node2</title>
<g id="a_node2"><a xlink:title=" ">
<polygon fill="#e0e0e0" stroke="#999999" points="45,-74 0,-74 0,-55 45,-55 45,-74"/>
<text text-anchor="middle" x="22.5" y="-62" font-family="Helvetica,sans-Serif" font-size="10.00">stdio.h</text>
</a>
</g>
</g>
<!-- Node1&#45;&gt;Node2 -->
<g id="edge1" class="edge">
<title>Node1&#45;&gt;Node2</title>
<path fill="none" stroke="#63b8ff" d="M675.53,-227.41C551.69,-223.34 138.55,-208.09 84.5,-184 52.35,-169.67 42.52,-160.84 27.5,-129 21.13,-115.5 20.09,-98.58 20.53,-85.6"/>
<polygon fill="#63b8ff" stroke="#63b8ff" points="24.01,-85.93 21.21,-75.72 17.03,-85.45 24.01,-85.93"/>
</g>
<!-- Node3 -->
<g id="node3" class="node">
<title>Node3</title>
<g id="a_node3"><a xlink:title=" ">
<polygon fill="#e0e0e0" stroke="#999999" points="836,-184 739,-184 739,-165 836,-165 836,-184"/>
<text text-anchor="middle" x="787.5" y="-172" font-family="Helvetica,sans-Serif" font-size="10.00">pico/cyw43_arch.h</text>
</a>
</g>
</g>
<!-- Node1&#45;&gt;Node3 -->
<g id="edge2" class="edge">
<title>Node1&#45;&gt;Node3</title>
<path fill="none" stroke="#63b8ff" d="M723.56,-219.51C735.02,-211.62 751.93,-199.98 765.48,-190.65"/>
<polygon fill="#63b8ff" stroke="#63b8ff" points="767.13,-193.77 773.38,-185.22 763.16,-188 767.13,-193.77"/>
</g>
<!-- Node4 -->
<g id="node4" class="node">
<title>Node4</title>
<g id="a_node4"><a xlink:title=" ">
<polygon fill="#e0e0e0" stroke="#999999" points="652.5,-129 584.5,-129 584.5,-110 652.5,-110 652.5,-129"/>
<text text-anchor="middle" x="618.5" y="-117" font-family="Helvetica,sans-Serif" font-size="10.00">pico/stdlib.h</text>
</a>
</g>
</g>
<!-- Node1&#45;&gt;Node4 -->
<g id="edge3" class="edge">
<title>Node1&#45;&gt;Node4</title>
<path fill="none" stroke="#63b8ff" d="M709.86,-219.81C708.5,-206.68 704.29,-181.58 691.5,-165 681.39,-151.89 666.22,-141.75 652.33,-134.49"/>
<polygon fill="#63b8ff" stroke="#63b8ff" points="653.95,-131.38 643.43,-130.16 650.89,-137.68 653.95,-131.38"/>
</g>
<!-- Node5 -->
<g id="node5" class="node">
<title>Node5</title>
<g id="a_node5"><a xlink:title=" ">
<polygon fill="#e0e0e0" stroke="#999999" points="925,-184 854,-184 854,-165 925,-165 925,-184"/>
<text text-anchor="middle" x="889.5" y="-172" font-family="Helvetica,sans-Serif" font-size="10.00">FreeRTOS.h</text>
</a>
</g>
</g>
<!-- Node1&#45;&gt;Node5 -->
<g id="edge4" class="edge">
<title>Node1&#45;&gt;Node5</title>
<path fill="none" stroke="#63b8ff" d="M740.86,-219.51C770.4,-210.76 815.48,-197.42 848.25,-187.71"/>
<polygon fill="#63b8ff" stroke="#63b8ff" points="849.24,-191.07 857.83,-184.88 847.25,-184.36 849.24,-191.07"/>
</g>
<!-- Node6 -->
<g id="node6" class="node">
<title>Node6</title>
<g id="a_node6"><a xlink:title=" ">
<polygon fill="#e0e0e0" stroke="#999999" points="986,-184 943,-184 943,-165 986,-165 986,-184"/>
<text text-anchor="middle" x="964.5" y="-172" font-family="Helvetica,sans-Serif" font-size="10.00">task.h</text>
</a>
</g>
</g>
<!-- Node1&#45;&gt;Node6 -->
<g id="edge5" class="edge">
<title>Node1&#45;&gt;Node6</title>
<path fill="none" stroke="#63b8ff" d="M745.22,-222.49C787.26,-215.02 860.41,-201.41 931.65,-184.55"/>
<polygon fill="#63b8ff" stroke="#63b8ff" points="932.22,-188.01 941.13,-182.28 930.59,-181.2 932.22,-188.01"/>
</g>
<!-- Node7 -->
<g id="node7" class="node">
<title>Node7</title>
<g id="a_node7"><a xlink:title=" ">
<polygon fill="#e0e0e0" stroke="#999999" points="1097,-184 1004,-184 1004,-165 1097,-165 1097,-184"/>
<text text-anchor="middle" x="1050.5" y="-172" font-family="Helvetica,sans-Serif" font-size="10.00">message_buffer.h</text>
</a>
</g>
</g>
<!-- Node1&#45;&gt;Node7 -->
<g id="edge6" class="edge">
<title>Node1&#45;&gt;Node7</title>
<path fill="none" stroke="#63b8ff" d="M745.29,-223.08C803.61,-213.99 921.66,-195.58 992.64,-184.52"/>
<polygon fill="#63b8ff" stroke="#63b8ff" points="992.77,-188.04 1002.11,-183.04 991.69,-181.12 992.77,-188.04"/>
</g>
<!-- Node8 -->
<g id="node8" class="node">
<title>Node8</title>
<g id="a_node8"><a xlink:href="magnetometer_8h.html" target="_top" xlink:title="Header file for the magnetometer driver.">
<polygon fill="white" stroke="#666666" points="1267.5,-184 1115.5,-184 1115.5,-165 1267.5,-165 1267.5,-184"/>
<text text-anchor="middle" x="1191.5" y="-172" font-family="Helvetica,sans-Serif" font-size="10.00">magnetometer/magnetometer.h</text>
</a>
</g>
</g>
<!-- Node1&#45;&gt;Node8 -->
<g id="edge7" class="edge">
<title>Node1&#45;&gt;Node8</title>
<path fill="none" stroke="#63b8ff" d="M745.48,-224.65C820.05,-216.43 996.58,-196.98 1103.84,-185.16"/>
<polygon fill="#63b8ff" stroke="#63b8ff" points="1104.22,-188.64 1113.78,-184.06 1103.45,-181.68 1104.22,-188.64"/>
</g>
<!-- Node9 -->
<g id="node9" class="node">
<title>Node9</title>
<g id="a_node9"><a xlink:href="motor__control_8h.html" target="_top" xlink:title=" ">
<polygon fill="white" stroke="#666666" points="537,-184 426,-184 426,-165 537,-165 537,-184"/>
<text text-anchor="middle" x="481.5" y="-172" font-family="Helvetica,sans-Serif" font-size="10.00">motor/motor_control.h</text>
</a>
</g>
</g>
<!-- Node1&#45;&gt;Node9 -->
<g id="edge8" class="edge">
<title>Node1&#45;&gt;Node9</title>
<path fill="none" stroke="#63b8ff" d="M675.72,-220.45C637.16,-211.53 574.66,-197.06 531,-186.96"/>
<polygon fill="#63b8ff" stroke="#63b8ff" points="532.06,-183.61 521.53,-184.77 530.49,-190.43 532.06,-183.61"/>
</g>
<!-- Node12 -->
<g id="node12" class="node">
<title>Node12</title>
<g id="a_node12"><a xlink:href="ultrasonic_8h.html" target="_top" xlink:title="Header file for the ultrasonic sensor driver.">
<polygon fill="white" stroke="#666666" points="1397,-184 1286,-184 1286,-165 1397,-165 1397,-184"/>
<text text-anchor="middle" x="1341.5" y="-172" font-family="Helvetica,sans-Serif" font-size="10.00">ultrasonic/ultrasonic.h</text>
</a>
</g>
</g>
<!-- Node1&#45;&gt;Node12 -->
<g id="edge12" class="edge">
<title>Node1&#45;&gt;Node12</title>
<path fill="none" stroke="#63b8ff" d="M745.34,-226.39C832.47,-220.97 1067.1,-205.57 1274.1,-184.2"/>
<polygon fill="#63b8ff" stroke="#63b8ff" points="1274.41,-187.68 1284,-183.17 1273.69,-180.72 1274.41,-187.68"/>
</g>
<!-- Node13 -->
<g id="node13" class="node">
<title>Node13</title>
<g id="a_node13"><a xlink:href="wheel__encoder_8h_source.html" target="_top" xlink:title=" ">
<polygon fill="white" stroke="#666666" points="682,-184 555,-184 555,-165 682,-165 682,-184"/>
<text text-anchor="middle" x="618.5" y="-172" font-family="Helvetica,sans-Serif" font-size="10.00">encoder/wheel_encoder.h</text>
</a>
</g>
</g>
<!-- Node1&#45;&gt;Node13 -->
<g id="edge13" class="edge">
<title>Node1&#45;&gt;Node13</title>
<path fill="none" stroke="#63b8ff" d="M694.89,-219.51C680.8,-211.39 659.81,-199.3 643.4,-189.85"/>
<polygon fill="#63b8ff" stroke="#63b8ff" points="645.6,-187.07 635.19,-185.11 642.11,-193.14 645.6,-187.07"/>
</g>
<!-- Node14 -->
<g id="node14" class="node">
<title>Node14</title>
<g id="a_node14"><a xlink:href="pid_8h.html" target="_top" xlink:title=" ">
<polygon fill="white" stroke="#666666" points="432,-129 379,-129 379,-110 432,-110 432,-129"/>
<text text-anchor="middle" x="405.5" y="-117" font-family="Helvetica,sans-Serif" font-size="10.00">pid/pid.h</text>
</a>
</g>
</g>
<!-- Node1&#45;&gt;Node14 -->
<g id="edge15" class="edge">
<title>Node1&#45;&gt;Node14</title>
<path fill="none" stroke="#63b8ff" d="M675.74,-228.08C606.26,-226.49 453.79,-219.01 417.5,-184 406.12,-173.03 403.63,-154.9 403.7,-140.82"/>
<polygon fill="#63b8ff" stroke="#63b8ff" points="407.19,-141.02 404.21,-130.85 400.2,-140.66 407.19,-141.02"/>
</g>
<!-- Node17 -->
<g id="node17" class="node">
<title>Node17</title>
<g id="a_node17"><a xlink:href="wifi_8h.html" target="_top" xlink:title="Header file for WiFi module. This file contains the function prototypes and data structures for the W...">
<polygon fill="white" stroke="#666666" points="149.5,-184 93.5,-184 93.5,-165 149.5,-165 149.5,-184"/>
<text text-anchor="middle" x="121.5" y="-172" font-family="Helvetica,sans-Serif" font-size="10.00">wifi/wifi.h</text>
</a>
</g>
</g>
<!-- Node1&#45;&gt;Node17 -->
<g id="edge19" class="edge">
<title>Node1&#45;&gt;Node17</title>
<path fill="none" stroke="#63b8ff" d="M675.85,-225.38C573.06,-216.13 270.16,-188.88 161.15,-179.07"/>
<polygon fill="#63b8ff" stroke="#63b8ff" points="161.51,-175.59 151.24,-178.18 160.89,-182.56 161.51,-175.59"/>
</g>
<!-- Node20 -->
<g id="node20" class="node">
<title>Node20</title>
<g id="a_node20"><a xlink:href="a__star_8h.html" target="_top" xlink:title="Header file for the a* algorithm.">
<polygon fill="white" stroke="#666666" points="365,-184 264,-184 264,-165 365,-165 365,-184"/>
<text text-anchor="middle" x="314.5" y="-172" font-family="Helvetica,sans-Serif" font-size="10.00">pathfinding/a_star.h</text>
</a>
</g>
</g>
<!-- Node1&#45;&gt;Node20 -->
<g id="edge23" class="edge">
<title>Node1&#45;&gt;Node20</title>
<path fill="none" stroke="#63b8ff" d="M675.7,-223.84C608.67,-214.87 460.82,-195.08 376.54,-183.8"/>
<polygon fill="#63b8ff" stroke="#63b8ff" points="377.21,-180.36 366.83,-182.5 376.28,-187.3 377.21,-180.36"/>
</g>
<!-- Node9&#45;&gt;Node4 -->
<g id="edge10" class="edge">
<title>Node9&#45;&gt;Node4</title>
<path fill="none" stroke="#63b8ff" d="M504.74,-164.51C526.82,-155.97 560.25,-143.03 585.17,-133.4"/>
<polygon fill="#63b8ff" stroke="#63b8ff" points="586.13,-136.78 594.19,-129.9 583.6,-130.25 586.13,-136.78"/>
</g>
<!-- Node10 -->
<g id="node10" class="node">
<title>Node10</title>
<g id="a_node10"><a xlink:title=" ">
<polygon fill="#e0e0e0" stroke="#999999" points="492.5,-19 436.5,-19 436.5,0 492.5,0 492.5,-19"/>
<text text-anchor="middle" x="464.5" y="-7" font-family="Helvetica,sans-Serif" font-size="10.00">stdbool.h</text>
</a>
</g>
</g>
<!-- Node9&#45;&gt;Node10 -->
<g id="edge9" class="edge">
<title>Node9&#45;&gt;Node10</title>
<path fill="none" stroke="#63b8ff" d="M495.73,-164.51C506.71,-156.65 521.08,-144.14 527.5,-129 530.8,-121.23 529.85,-118.11 527.5,-110 518.29,-78.23 495.55,-46.87 480.07,-28.1"/>
<polygon fill="#63b8ff" stroke="#63b8ff" points="482.87,-25.99 473.73,-20.64 477.54,-30.53 482.87,-25.99"/>
</g>
<!-- Node11 -->
<g id="node11" class="node">
<title>Node11</title>
<g id="a_node11"><a xlink:title=" ">
<polygon fill="#e0e0e0" stroke="#999999" points="518.5,-129 450.5,-129 450.5,-110 518.5,-110 518.5,-129"/>
<text text-anchor="middle" x="484.5" y="-117" font-family="Helvetica,sans-Serif" font-size="10.00">pico/types.h</text>
</a>
</g>
</g>
<!-- Node9&#45;&gt;Node11 -->
<g id="edge11" class="edge">
<title>Node9&#45;&gt;Node11</title>
<path fill="none" stroke="#63b8ff" d="M482,-164.75C482.36,-158.27 482.88,-149.16 483.35,-140.9"/>
<polygon fill="#63b8ff" stroke="#63b8ff" points="486.84,-141.13 483.91,-130.95 479.85,-140.74 486.84,-141.13"/>
</g>
<!-- Node13&#45;&gt;Node4 -->
<g id="edge14" class="edge">
<title>Node13&#45;&gt;Node4</title>
<path fill="none" stroke="#63b8ff" d="M618.5,-164.75C618.5,-158.27 618.5,-149.16 618.5,-140.9"/>
<polygon fill="#63b8ff" stroke="#63b8ff" points="622,-140.96 618.5,-130.96 615,-140.96 622,-140.96"/>
</g>
<!-- Node15 -->
<g id="node15" class="node">
<title>Node15</title>
<g id="a_node15"><a xlink:href="maze_8h.html" target="_top" xlink:title="Header file for the maze data structure and public functions.">
<polygon fill="white" stroke="#666666" points="388,-74 341,-74 341,-55 388,-55 388,-74"/>
<text text-anchor="middle" x="364.5" y="-62" font-family="Helvetica,sans-Serif" font-size="10.00">maze.h</text>
</a>
</g>
</g>
<!-- Node14&#45;&gt;Node15 -->
<g id="edge16" class="edge">
<title>Node14&#45;&gt;Node15</title>
<path fill="none" stroke="#63b8ff" d="M398.73,-109.75C393.18,-102.58 385.16,-92.2 378.27,-83.3"/>
<polygon fill="#63b8ff" stroke="#63b8ff" points="381.23,-81.41 372.34,-75.64 375.69,-85.69 381.23,-81.41"/>
</g>
<!-- Node15&#45;&gt;Node10 -->
<g id="edge18" class="edge">
<title>Node15&#45;&gt;Node10</title>
<path fill="none" stroke="#63b8ff" d="M381.46,-54.51C396.86,-46.35 419.81,-34.19 437.69,-24.71"/>
<polygon fill="#63b8ff" stroke="#63b8ff" points="439.25,-27.84 446.45,-20.07 435.97,-21.66 439.25,-27.84"/>
</g>
<!-- Node16 -->
<g id="node16" class="node">
<title>Node16</title>
<g id="a_node16"><a xlink:title=" ">
<polygon fill="#e0e0e0" stroke="#999999" points="336.5,-19 288.5,-19 288.5,0 336.5,0 336.5,-19"/>
<text text-anchor="middle" x="312.5" y="-7" font-family="Helvetica,sans-Serif" font-size="10.00">stdint.h</text>
</a>
</g>
</g>
<!-- Node15&#45;&gt;Node16 -->
<g id="edge17" class="edge">
<title>Node15&#45;&gt;Node16</title>
<path fill="none" stroke="#63b8ff" d="M355.91,-54.75C348.66,-47.35 338.05,-36.54 329.13,-27.45"/>
<polygon fill="#63b8ff" stroke="#63b8ff" points="331.84,-25.21 322.33,-20.52 326.84,-30.11 331.84,-25.21"/>
</g>
<!-- Node17&#45;&gt;Node2 -->
<g id="edge20" class="edge">
<title>Node17&#45;&gt;Node2</title>
<path fill="none" stroke="#63b8ff" d="M94.55,-164.59C77.09,-157.52 55.14,-145.97 41.5,-129 31.56,-116.63 26.81,-99.16 24.55,-85.67"/>
<polygon fill="#63b8ff" stroke="#63b8ff" points="28.02,-85.22 23.25,-75.76 21.08,-86.13 28.02,-85.22"/>
</g>
<!-- Node18 -->
<g id="node18" class="node">
<title>Node18</title>
<g id="a_node18"><a xlink:title=" ">
<polygon fill="#e0e0e0" stroke="#999999" points="114,-129 51,-129 51,-110 114,-110 114,-129"/>
<text text-anchor="middle" x="82.5" y="-117" font-family="Helvetica,sans-Serif" font-size="10.00">lwip/pbuf.h</text>
</a>
</g>
</g>
<!-- Node17&#45;&gt;Node18 -->
<g id="edge21" class="edge">
<title>Node17&#45;&gt;Node18</title>
<path fill="none" stroke="#63b8ff" d="M115.06,-164.75C109.84,-157.66 102.31,-147.42 95.81,-138.59"/>
<polygon fill="#63b8ff" stroke="#63b8ff" points="98.72,-136.64 89.98,-130.66 93.08,-140.79 98.72,-136.64"/>
</g>
<!-- Node19 -->
<g id="node19" class="node">
<title>Node19</title>
<g id="a_node19"><a xlink:title=" ">
<polygon fill="#e0e0e0" stroke="#999999" points="190.5,-129 132.5,-129 132.5,-110 190.5,-110 190.5,-129"/>
<text text-anchor="middle" x="161.5" y="-117" font-family="Helvetica,sans-Serif" font-size="10.00">lwip/tcp.h</text>
</a>
</g>
</g>
<!-- Node17&#45;&gt;Node19 -->
<g id="edge22" class="edge">
<title>Node17&#45;&gt;Node19</title>
<path fill="none" stroke="#63b8ff" d="M128.11,-164.75C133.46,-157.66 141.18,-147.42 147.85,-138.59"/>
<polygon fill="#63b8ff" stroke="#63b8ff" points="150.61,-140.74 153.84,-130.65 145.02,-136.52 150.61,-140.74"/>
</g>
<!-- Node20&#45;&gt;Node15 -->
<g id="edge29" class="edge">
<title>Node20&#45;&gt;Node15</title>
<path fill="none" stroke="#63b8ff" d="M318.59,-164.66C326.65,-147.26 344.73,-108.19 355.65,-84.62"/>
<polygon fill="#63b8ff" stroke="#63b8ff" points="358.69,-86.38 359.72,-75.83 352.34,-83.44 358.69,-86.38"/>
</g>
<!-- Node20&#45;&gt;Node16 -->
<g id="edge24" class="edge">
<title>Node20&#45;&gt;Node16</title>
<path fill="none" stroke="#63b8ff" d="M314.39,-164.74C314.08,-139.53 313.19,-66.36 312.75,-30.62"/>
<polygon fill="#63b8ff" stroke="#63b8ff" points="316.25,-30.78 312.63,-20.82 309.25,-30.86 316.25,-30.78"/>
</g>
<!-- Node21 -->
<g id="node21" class="node">
<title>Node21</title>
<g id="a_node21"><a xlink:href="binary__heap_8h.html" target="_top" xlink:title="This file contains the declarations for the binary min&#45;heap used in the a* algorithm.">
<polygon fill="white" stroke="#666666" points="284.5,-129 208.5,-129 208.5,-110 284.5,-110 284.5,-129"/>
<text text-anchor="middle" x="246.5" y="-117" font-family="Helvetica,sans-Serif" font-size="10.00">binary_heap.h</text>
</a>
</g>
</g>
<!-- Node20&#45;&gt;Node21 -->
<g id="edge25" class="edge">
<title>Node20&#45;&gt;Node21</title>
<path fill="none" stroke="#63b8ff" d="M302.96,-164.51C293.04,-156.77 278.49,-145.43 266.64,-136.2"/>
<polygon fill="#63b8ff" stroke="#63b8ff" points="269.1,-133.68 259.06,-130.29 264.79,-139.2 269.1,-133.68"/>
</g>
<!-- Node21&#45;&gt;Node2 -->
<g id="edge28" class="edge">
<title>Node21&#45;&gt;Node2</title>
<path fill="none" stroke="#63b8ff" d="M208.5,-109.51C165.81,-99.41 97.15,-83.16 56.27,-73.49"/>
<polygon fill="#63b8ff" stroke="#63b8ff" points="57.28,-70.13 46.74,-71.24 55.67,-76.94 57.28,-70.13"/>
</g>
<!-- Node21&#45;&gt;Node15 -->
<g id="edge27" class="edge">
<title>Node21&#45;&gt;Node15</title>
<path fill="none" stroke="#63b8ff" d="M266.52,-109.51C285.11,-101.16 313.04,-88.61 334.33,-79.05"/>
<polygon fill="#63b8ff" stroke="#63b8ff" points="335.71,-82.27 343.4,-74.98 332.84,-75.88 335.71,-82.27"/>
</g>
<!-- Node21&#45;&gt;Node16 -->
<g id="edge26" class="edge">
<title>Node21&#45;&gt;Node16</title>
<path fill="none" stroke="#63b8ff" d="M251.9,-109.66C262.63,-92.1 286.84,-52.48 301.2,-28.98"/>
<polygon fill="#63b8ff" stroke="#63b8ff" points="304.01,-31.11 306.24,-20.75 298.03,-27.46 304.01,-31.11"/>
</g>
</g>
</svg>
