<?xml version="1.0" encoding="UTF-8" standalone="no"?>
<!DOCTYPE svg PUBLIC "-//W3C//DTD SVG 1.1//EN"
 "http://www.w3.org/Graphics/SVG/1.1/DTD/svg11.dtd">
<!-- Generated by graphviz version 7.0.5 (20221223.1930)
 -->
<!-- Title: src/main.c Pages: 1 -->
<svg width="1493pt" height="247pt"
 viewBox="0.00 0.00 1493.00 247.00" xmlns="http://www.w3.org/2000/svg" xmlns:xlink="http://www.w3.org/1999/xlink">
<g id="graph0" class="graph" transform="scale(1 1) rotate(0) translate(4 243)">
<title>src/main.c</title>
<!-- Node1 -->
<g id="node1" class="node">
<title>Node1</title>
<g id="a_node1"><a xlink:title="The main source file for robot control.">
<polygon fill="#999999" stroke="#666666" points="730.5,-239 668.5,-239 668.5,-220 730.5,-220 730.5,-239"/>
<text text-anchor="middle" x="699.5" y="-227" font-family="Helvetica,sans-Serif" font-size="10.00">src/main.c</text>
</a>
</g>
</g>
<!-- Node2 -->
<g id="node2" class="node">
<title>Node2</title>
<g id="a_node2"><a xlink:title=" ">
<polygon fill="#e0e0e0" stroke="#999999" points="45,-74 0,-74 0,-55 45,-55 45,-74"/>
<text text-anchor="middle" x="22.5" y="-62" font-family="Helvetica,sans-Serif" font-size="10.00">stdio.h</text>
</a>
</g>
</g>
<!-- Node1&#45;&gt;Node2 -->
<g id="edge1" class="edge">
<title>Node1&#45;&gt;Node2</title>
<path fill="none" stroke="#63b8ff" d="M668.03,-229.02C557.86,-230.4 190.44,-231.29 84.5,-184 52.35,-169.65 42.52,-160.84 27.5,-129 21.13,-115.5 20.09,-98.58 20.53,-85.6"/>
<polygon fill="#63b8ff" stroke="#63b8ff" points="24.01,-85.93 21.21,-75.72 17.03,-85.45 24.01,-85.93"/>
</g>
<!-- Node3 -->
<g id="node3" class="node">
<title>Node3</title>
<g id="a_node3"><a xlink:title=" ">
<polygon fill="#e0e0e0" stroke="#999999" points="924,-184 827,-184 827,-165 924,-165 924,-184"/>
<text text-anchor="middle" x="875.5" y="-172" font-family="Helvetica,sans-Serif" font-size="10.00">pico/cyw43_arch.h</text>
</a>
</g>
</g>
<!-- Node1&#45;&gt;Node3 -->
<g id="edge2" class="edge">
<title>Node1&#45;&gt;Node3</title>
<path fill="none" stroke="#63b8ff" d="M729.36,-219.51C758.39,-210.76 802.72,-197.42 834.94,-187.71"/>
<polygon fill="#63b8ff" stroke="#63b8ff" points="835.78,-191.12 844.34,-184.88 833.76,-184.41 835.78,-191.12"/>
</g>
<!-- Node4 -->
<g id="node4" class="node">
<title>Node4</title>
<g id="a_node4"><a xlink:title=" ">
<polygon fill="#e0e0e0" stroke="#999999" points="687.5,-129 619.5,-129 619.5,-110 687.5,-110 687.5,-129"/>
<text text-anchor="middle" x="653.5" y="-117" font-family="Helvetica,sans-Serif" font-size="10.00">pico/stdlib.h</text>
</a>
</g>
</g>
<!-- Node1&#45;&gt;Node4 -->
<g id="edge3" class="edge">
<title>Node1&#45;&gt;Node4</title>
<path fill="none" stroke="#63b8ff" d="M693.5,-219.61C687.79,-210.85 679.23,-196.93 673.5,-184 667.19,-169.74 661.97,-152.88 658.45,-140.12"/>
<polygon fill="#63b8ff" stroke="#63b8ff" points="661.94,-139.6 656,-130.82 655.17,-141.38 661.94,-139.6"/>
</g>
<!-- Node5 -->
<g id="node5" class="node">
<title>Node5</title>
<g id="a_node5"><a xlink:title=" ">
<polygon fill="#e0e0e0" stroke="#999999" points="1013,-184 942,-184 942,-165 1013,-165 1013,-184"/>
<text text-anchor="middle" x="977.5" y="-172" font-family="Helvetica,sans-Serif" font-size="10.00">FreeRTOS.h</text>
</a>
</g>
</g>
<!-- Node1&#45;&gt;Node5 -->
<g id="edge4" class="edge">
<title>Node1&#45;&gt;Node5</title>
<path fill="none" stroke="#63b8ff" d="M730.92,-222.55C773.82,-214.43 853.43,-199.33 931.03,-184.47"/>
<polygon fill="#63b8ff" stroke="#63b8ff" points="931.31,-187.98 940.47,-182.66 929.99,-181.1 931.31,-187.98"/>
</g>
<!-- Node6 -->
<g id="node6" class="node">
<title>Node6</title>
<g id="a_node6"><a xlink:title=" ">
<polygon fill="#e0e0e0" stroke="#999999" points="1074,-184 1031,-184 1031,-165 1074,-165 1074,-184"/>
<text text-anchor="middle" x="1052.5" y="-172" font-family="Helvetica,sans-Serif" font-size="10.00">task.h</text>
</a>
</g>
</g>
<!-- Node1&#45;&gt;Node6 -->
<g id="edge5" class="edge">
<title>Node1&#45;&gt;Node6</title>
<path fill="none" stroke="#63b8ff" d="M730.93,-225.64C787.09,-220.21 908.52,-207.05 1019.58,-184.37"/>
<polygon fill="#63b8ff" stroke="#63b8ff" points="1020.07,-187.84 1029.15,-182.38 1018.65,-180.99 1020.07,-187.84"/>
</g>
<!-- Node7 -->
<g id="node7" class="node">
<title>Node7</title>
<g id="a_node7"><a xlink:title=" ">
<polygon fill="#e0e0e0" stroke="#999999" points="1185,-184 1092,-184 1092,-165 1185,-165 1185,-184"/>
<text text-anchor="middle" x="1138.5" y="-172" font-family="Helvetica,sans-Serif" font-size="10.00">message_buffer.h</text>
</a>
</g>
</g>
<!-- Node1&#45;&gt;Node7 -->
<g id="edge6" class="edge">
<title>Node1&#45;&gt;Node7</title>
<path fill="none" stroke="#63b8ff" d="M730.91,-225.27C794.78,-218.61 944.63,-202.54 1080.69,-184.34"/>
<polygon fill="#63b8ff" stroke="#63b8ff" points="1080.77,-187.86 1090.21,-183.06 1079.83,-180.92 1080.77,-187.86"/>
</g>
<!-- Node8 -->
<g id="node8" class="node">
<title>Node8</title>
<g id="a_node8"><a xlink:href="ir__sensor_8h.html" target="_top" xlink:title="Header file for the IR sensor driver.">
<polygon fill="white" stroke="#666666" points="496,-184 409,-184 409,-165 496,-165 496,-184"/>
<text text-anchor="middle" x="452.5" y="-172" font-family="Helvetica,sans-Serif" font-size="10.00">irline/ir_sensor.h</text>
</a>
</g>
</g>
<!-- Node1&#45;&gt;Node8 -->
<g id="edge7" class="edge">
<title>Node1&#45;&gt;Node8</title>
<path fill="none" stroke="#63b8ff" d="M668.22,-221.79C627.27,-213 554.9,-197.47 505.37,-186.84"/>
<polygon fill="#63b8ff" stroke="#63b8ff" points="506.23,-183.45 495.71,-184.77 504.76,-190.29 506.23,-183.45"/>
</g>
<!-- Node12 -->
<g id="node12" class="node">
<title>Node12</title>
<g id="a_node12"><a xlink:href="magnetometer_8h.html" target="_top" xlink:title="Header file for the magnetometer driver.">
<polygon fill="white" stroke="#666666" points="1355.5,-184 1203.5,-184 1203.5,-165 1355.5,-165 1355.5,-184"/>
<text text-anchor="middle" x="1279.5" y="-172" font-family="Helvetica,sans-Serif" font-size="10.00">magnetometer/magnetometer.h</text>
</a>
</g>
</g>
<!-- Node1&#45;&gt;Node12 -->
<g id="edge11" class="edge">
<title>Node1&#45;&gt;Node12</title>
<path fill="none" stroke="#63b8ff" d="M730.78,-225.8C807.38,-219.16 1010.7,-201.39 1191.71,-184.26"/>
<polygon fill="#63b8ff" stroke="#63b8ff" points="1191.92,-187.75 1201.54,-183.32 1191.26,-180.78 1191.92,-187.75"/>
</g>
<!-- Node13 -->
<g id="node13" class="node">
<title>Node13</title>
<g id="a_node13"><a xlink:href="motor__control_8h.html" target="_top" xlink:title="Header file for motor control drivers.">
<polygon fill="white" stroke="#666666" points="625,-184 514,-184 514,-165 625,-165 625,-184"/>
<text text-anchor="middle" x="569.5" y="-172" font-family="Helvetica,sans-Serif" font-size="10.00">motor/motor_control.h</text>
</a>
</g>
</g>
<!-- Node1&#45;&gt;Node13 -->
<g id="edge12" class="edge">
<title>Node1&#45;&gt;Node13</title>
<path fill="none" stroke="#63b8ff" d="M677.45,-219.51C656.69,-211.04 625.34,-198.27 601.77,-188.66"/>
<polygon fill="#63b8ff" stroke="#63b8ff" points="603.21,-185.46 592.63,-184.93 600.57,-191.95 603.21,-185.46"/>
</g>
<!-- Node15 -->
<g id="node15" class="node">
<title>Node15</title>
<g id="a_node15"><a xlink:href="ultrasonic_8h.html" target="_top" xlink:title="Header file for the ultrasonic sensor driver.">
<polygon fill="white" stroke="#666666" points="1485,-184 1374,-184 1374,-165 1485,-165 1485,-184"/>
<text text-anchor="middle" x="1429.5" y="-172" font-family="Helvetica,sans-Serif" font-size="10.00">ultrasonic/ultrasonic.h</text>
</a>
</g>
</g>
<!-- Node1&#45;&gt;Node15 -->
<g id="edge16" class="edge">
<title>Node1&#45;&gt;Node15</title>
<path fill="none" stroke="#63b8ff" d="M730.72,-227.11C824.53,-222.8 1112.36,-208.48 1362.38,-184.14"/>
<polygon fill="#63b8ff" stroke="#63b8ff" points="1362.39,-187.66 1372,-183.2 1361.71,-180.69 1362.39,-187.66"/>
</g>
<!-- Node16 -->
<g id="node16" class="node">
<title>Node16</title>
<g id="a_node16"><a xlink:href="wheel__encoder_8h.html" target="_top" xlink:title="Header file for the wheel encoder drivers.">
<polygon fill="white" stroke="#666666" points="809,-184 682,-184 682,-165 809,-165 809,-184"/>
<text text-anchor="middle" x="745.5" y="-172" font-family="Helvetica,sans-Serif" font-size="10.00">encoder/wheel_encoder.h</text>
</a>
</g>
</g>
<!-- Node1&#45;&gt;Node16 -->
<g id="edge17" class="edge">
<title>Node1&#45;&gt;Node16</title>
<path fill="none" stroke="#63b8ff" d="M707.1,-219.75C713.38,-212.5 722.51,-201.98 730.3,-193.02"/>
<polygon fill="#63b8ff" stroke="#63b8ff" points="732.84,-195.43 736.75,-185.59 727.55,-190.84 732.84,-195.43"/>
</g>
<!-- Node17 -->
<g id="node17" class="node">
<title>Node17</title>
<g id="a_node17"><a xlink:href="pid_8h.html" target="_top" xlink:title=" ">
<polygon fill="white" stroke="#666666" points="432,-129 379,-129 379,-110 432,-110 432,-129"/>
<text text-anchor="middle" x="405.5" y="-117" font-family="Helvetica,sans-Serif" font-size="10.00">pid/pid.h</text>
</a>
</g>
</g>
<!-- Node1&#45;&gt;Node17 -->
<g id="edge19" class="edge">
<title>Node1&#45;&gt;Node17</title>
<path fill="none" stroke="#63b8ff" d="M668.02,-228.75C598.4,-228.56 434.81,-223.8 400.5,-184 390.12,-171.96 392.97,-153.42 397.47,-139.48"/>
<polygon fill="#63b8ff" stroke="#63b8ff" points="400.6,-141.09 400.85,-130.5 394.05,-138.63 400.6,-141.09"/>
</g>
<!-- Node19 -->
<g id="node19" class="node">
<title>Node19</title>
<g id="a_node19"><a xlink:href="wifi_8h.html" target="_top" xlink:title="Header file for WiFi module. This file contains the function prototypes and data structures for the W...">
<polygon fill="white" stroke="#666666" points="149.5,-184 93.5,-184 93.5,-165 149.5,-165 149.5,-184"/>
<text text-anchor="middle" x="121.5" y="-172" font-family="Helvetica,sans-Serif" font-size="10.00">wifi/wifi.h</text>
</a>
</g>
</g>
<!-- Node1&#45;&gt;Node19 -->
<g id="edge23" class="edge">
<title>Node1&#45;&gt;Node19</title>
<path fill="none" stroke="#63b8ff" d="M668.01,-225.61C569.92,-216.62 269.92,-189.11 161.29,-179.15"/>
<polygon fill="#63b8ff" stroke="#63b8ff" points="161.69,-175.67 151.41,-178.24 161.05,-182.64 161.69,-175.67"/>
</g>
<!-- Node22 -->
<g id="node22" class="node">
<title>Node22</title>
<g id="a_node22"><a xlink:href="a__star_8h.html" target="_top" xlink:title="Header file for the a* algorithm.">
<polygon fill="white" stroke="#666666" points="343,-184 242,-184 242,-165 343,-165 343,-184"/>
<text text-anchor="middle" x="292.5" y="-172" font-family="Helvetica,sans-Serif" font-size="10.00">pathfinding/a_star.h</text>
</a>
</g>
</g>
<!-- Node1&#45;&gt;Node22 -->
<g id="edge27" class="edge">
<title>Node1&#45;&gt;Node22</title>
<path fill="none" stroke="#63b8ff" d="M668.24,-224.43C601.28,-215.71 442.93,-195.09 354.66,-183.6"/>
<polygon fill="#63b8ff" stroke="#63b8ff" points="355.34,-180.15 344.98,-182.33 354.44,-187.1 355.34,-180.15"/>
</g>
<!-- Node9 -->
<g id="node9" class="node">
<title>Node9</title>
<g id="a_node9"><a xlink:title=" ">
<polygon fill="#e0e0e0" stroke="#999999" points="556.5,-129 488.5,-129 488.5,-110 556.5,-110 556.5,-129"/>
<text text-anchor="middle" x="522.5" y="-117" font-family="Helvetica,sans-Serif" font-size="10.00">pico/types.h</text>
</a>
</g>
</g>
<!-- Node8&#45;&gt;Node9 -->
<g id="edge8" class="edge">
<title>Node8&#45;&gt;Node9</title>
<path fill="none" stroke="#63b8ff" d="M464.37,-164.51C474.59,-156.77 489.57,-145.43 501.76,-136.2"/>
<polygon fill="#63b8ff" stroke="#63b8ff" points="503.73,-139.1 509.59,-130.27 499.51,-133.52 503.73,-139.1"/>
</g>
<!-- Node10 -->
<g id="node10" class="node">
<title>Node10</title>
<g id="a_node10"><a xlink:href="barcode_8h.html" target="_top" xlink:title="Header file for the barcode driver.">
<polygon fill="white" stroke="#666666" points="471,-74 412,-74 412,-55 471,-55 471,-74"/>
<text text-anchor="middle" x="441.5" y="-62" font-family="Helvetica,sans-Serif" font-size="10.00">barcode.h</text>
</a>
</g>
</g>
<!-- Node8&#45;&gt;Node10 -->
<g id="edge9" class="edge">
<title>Node8&#45;&gt;Node10</title>
<path fill="none" stroke="#63b8ff" d="M451.6,-164.66C449.85,-147.5 445.96,-109.26 443.55,-85.6"/>
<polygon fill="#63b8ff" stroke="#63b8ff" points="447.06,-85.56 442.57,-75.97 440.1,-86.27 447.06,-85.56"/>
</g>
<!-- Node11 -->
<g id="node11" class="node">
<title>Node11</title>
<g id="a_node11"><a xlink:title=" ">
<polygon fill="#e0e0e0" stroke="#999999" points="348.5,-19 300.5,-19 300.5,0 348.5,0 348.5,-19"/>
<text text-anchor="middle" x="324.5" y="-7" font-family="Helvetica,sans-Serif" font-size="10.00">stdint.h</text>
</a>
</g>
</g>
<!-- Node10&#45;&gt;Node11 -->
<g id="edge10" class="edge">
<title>Node10&#45;&gt;Node11</title>
<path fill="none" stroke="#63b8ff" d="M421.65,-54.51C403.22,-46.16 375.52,-33.61 354.41,-24.05"/>
<polygon fill="#63b8ff" stroke="#63b8ff" points="355.99,-20.92 345.43,-19.98 353.1,-27.3 355.99,-20.92"/>
</g>
<!-- Node13&#45;&gt;Node4 -->
<g id="edge14" class="edge">
<title>Node13&#45;&gt;Node4</title>
<path fill="none" stroke="#63b8ff" d="M583.75,-164.51C596.38,-156.54 615.06,-144.75 629.91,-135.38"/>
<polygon fill="#63b8ff" stroke="#63b8ff" points="631.59,-138.46 638.18,-130.17 627.86,-132.54 631.59,-138.46"/>
</g>
<!-- Node13&#45;&gt;Node9 -->
<g id="edge15" class="edge">
<title>Node13&#45;&gt;Node9</title>
<path fill="none" stroke="#63b8ff" d="M561.74,-164.75C555.31,-157.5 545.99,-146.98 538.04,-138.02"/>
<polygon fill="#63b8ff" stroke="#63b8ff" points="540.69,-135.73 531.43,-130.57 535.45,-140.38 540.69,-135.73"/>
</g>
<!-- Node14 -->
<g id="node14" class="node">
<title>Node14</title>
<g id="a_node14"><a xlink:title=" ">
<polygon fill="#e0e0e0" stroke="#999999" points="520.5,-19 464.5,-19 464.5,0 520.5,0 520.5,-19"/>
<text text-anchor="middle" x="492.5" y="-7" font-family="Helvetica,sans-Serif" font-size="10.00">stdbool.h</text>
</a>
</g>
</g>
<!-- Node13&#45;&gt;Node14 -->
<g id="edge13" class="edge">
<title>Node13&#45;&gt;Node14</title>
<path fill="none" stroke="#63b8ff" d="M570.48,-164.56C571.52,-151.96 572.2,-128.48 565.5,-110 553.63,-77.26 527.4,-45.99 509.84,-27.51"/>
<polygon fill="#63b8ff" stroke="#63b8ff" points="512.35,-25.07 502.85,-20.38 507.35,-29.97 512.35,-25.07"/>
</g>
<!-- Node16&#45;&gt;Node4 -->
<g id="edge18" class="edge">
<title>Node16&#45;&gt;Node4</title>
<path fill="none" stroke="#63b8ff" d="M729.89,-164.51C715.8,-156.39 694.81,-144.3 678.4,-134.85"/>
<polygon fill="#63b8ff" stroke="#63b8ff" points="680.6,-132.07 670.19,-130.11 677.11,-138.14 680.6,-132.07"/>
</g>
<!-- Node18 -->
<g id="node18" class="node">
<title>Node18</title>
<g id="a_node18"><a xlink:href="maze_8h.html" target="_top" xlink:title="Header file for the maze data structure and public functions.">
<polygon fill="white" stroke="#666666" points="374,-74 327,-74 327,-55 374,-55 374,-74"/>
<text text-anchor="middle" x="350.5" y="-62" font-family="Helvetica,sans-Serif" font-size="10.00">maze.h</text>
</a>
</g>
</g>
<!-- Node17&#45;&gt;Node18 -->
<g id="edge20" class="edge">
<title>Node17&#45;&gt;Node18</title>
<path fill="none" stroke="#63b8ff" d="M396.42,-109.75C388.66,-102.27 377.29,-91.32 367.8,-82.17"/>
<polygon fill="#63b8ff" stroke="#63b8ff" points="370.5,-79.91 360.87,-75.49 365.64,-84.95 370.5,-79.91"/>
</g>
<!-- Node18&#45;&gt;Node11 -->
<g id="edge21" class="edge">
<title>Node18&#45;&gt;Node11</title>
<path fill="none" stroke="#63b8ff" d="M346.21,-54.75C342.88,-47.96 338.14,-38.3 333.94,-29.73"/>
<polygon fill="#63b8ff" stroke="#63b8ff" points="337.1,-28.24 329.55,-20.8 330.82,-31.32 337.1,-28.24"/>
</g>
<!-- Node18&#45;&gt;Node14 -->
<g id="edge22" class="edge">
<title>Node18&#45;&gt;Node14</title>
<path fill="none" stroke="#63b8ff" d="M374.27,-54.63C397.2,-46.07 432.17,-33.02 458.14,-23.32"/>
<polygon fill="#63b8ff" stroke="#63b8ff" points="459.09,-26.71 467.24,-19.93 456.64,-20.15 459.09,-26.71"/>
</g>
<!-- Node19&#45;&gt;Node2 -->
<g id="edge24" class="edge">
<title>Node19&#45;&gt;Node2</title>
<path fill="none" stroke="#63b8ff" d="M94.55,-164.59C77.09,-157.52 55.14,-145.97 41.5,-129 31.56,-116.63 26.81,-99.16 24.55,-85.67"/>
<polygon fill="#63b8ff" stroke="#63b8ff" points="28.02,-85.22 23.25,-75.76 21.08,-86.13 28.02,-85.22"/>
</g>
<!-- Node20 -->
<g id="node20" class="node">
<title>Node20</title>
<g id="a_node20"><a xlink:title=" ">
<polygon fill="#e0e0e0" stroke="#999999" points="114,-129 51,-129 51,-110 114,-110 114,-129"/>
<text text-anchor="middle" x="82.5" y="-117" font-family="Helvetica,sans-Serif" font-size="10.00">lwip/pbuf.h</text>
</a>
</g>
</g>
<!-- Node19&#45;&gt;Node20 -->
<g id="edge25" class="edge">
<title>Node19&#45;&gt;Node20</title>
<path fill="none" stroke="#63b8ff" d="M115.06,-164.75C109.84,-157.66 102.31,-147.42 95.81,-138.59"/>
<polygon fill="#63b8ff" stroke="#63b8ff" points="98.72,-136.64 89.98,-130.66 93.08,-140.79 98.72,-136.64"/>
</g>
<!-- Node21 -->
<g id="node21" class="node">
<title>Node21</title>
<g id="a_node21"><a xlink:title=" ">
<polygon fill="#e0e0e0" stroke="#999999" points="190.5,-129 132.5,-129 132.5,-110 190.5,-110 190.5,-129"/>
<text text-anchor="middle" x="161.5" y="-117" font-family="Helvetica,sans-Serif" font-size="10.00">lwip/tcp.h</text>
</a>
</g>
</g>
<!-- Node19&#45;&gt;Node21 -->
<g id="edge26" class="edge">
<title>Node19&#45;&gt;Node21</title>
<path fill="none" stroke="#63b8ff" d="M128.11,-164.75C133.46,-157.66 141.18,-147.42 147.85,-138.59"/>
<polygon fill="#63b8ff" stroke="#63b8ff" points="150.61,-140.74 153.84,-130.65 145.02,-136.52 150.61,-140.74"/>
</g>
<!-- Node22&#45;&gt;Node11 -->
<g id="edge28" class="edge">
<title>Node22&#45;&gt;Node11</title>
<path fill="none" stroke="#63b8ff" d="M274.5,-164.57C261.57,-157.05 245.12,-144.96 237.5,-129 233.86,-121.38 234.53,-117.91 237.5,-110 250.65,-74.98 282.34,-44.21 303.62,-26.48"/>
<polygon fill="#63b8ff" stroke="#63b8ff" points="305.78,-29.23 311.38,-20.23 301.39,-23.78 305.78,-29.23"/>
</g>
<!-- Node22&#45;&gt;Node18 -->
<g id="edge33" class="edge">
<title>Node22&#45;&gt;Node18</title>
<path fill="none" stroke="#63b8ff" d="M302.49,-164.53C311.29,-156.14 323.84,-142.84 331.5,-129 339.1,-115.26 343.99,-98.14 346.91,-85.13"/>
<polygon fill="#63b8ff" stroke="#63b8ff" points="350.27,-86.15 348.82,-75.66 343.41,-84.77 350.27,-86.15"/>
</g>
<!-- Node23 -->
<g id="node23" class="node">
<title>Node23</title>
<g id="a_node23"><a xlink:href="binary__heap_8h.html" target="_top" xlink:title="This file contains the declarations for the binary min&#45;heap used in the a* algorithm.">
<polygon fill="white" stroke="#666666" points="322.5,-129 246.5,-129 246.5,-110 322.5,-110 322.5,-129"/>
<text text-anchor="middle" x="284.5" y="-117" font-family="Helvetica,sans-Serif" font-size="10.00">binary_heap.h</text>
</a>
</g>
</g>
<!-- Node22&#45;&gt;Node23 -->
<g id="edge29" class="edge">
<title>Node22&#45;&gt;Node23</title>
<path fill="none" stroke="#63b8ff" d="M291.18,-164.75C290.19,-158.19 288.79,-148.95 287.53,-140.6"/>
<polygon fill="#63b8ff" stroke="#63b8ff" points="291.03,-140.3 286.08,-130.94 284.11,-141.35 291.03,-140.3"/>
</g>
<!-- Node23&#45;&gt;Node2 -->
<g id="edge32" class="edge">
<title>Node23&#45;&gt;Node2</title>
<path fill="none" stroke="#63b8ff" d="M246.12,-110.74C195.04,-100.4 105.5,-82.29 56.65,-72.41"/>
<polygon fill="#63b8ff" stroke="#63b8ff" points="57.42,-68.99 46.93,-70.44 56.03,-75.85 57.42,-68.99"/>
</g>
<!-- Node23&#45;&gt;Node11 -->
<g id="edge30" class="edge">
<title>Node23&#45;&gt;Node11</title>
<path fill="none" stroke="#63b8ff" d="M287.77,-109.66C294.19,-92.34 308.56,-53.55 317.3,-29.95"/>
<polygon fill="#63b8ff" stroke="#63b8ff" points="320.46,-31.47 320.66,-20.88 313.9,-29.04 320.46,-31.47"/>
</g>
<!-- Node23&#45;&gt;Node18 -->
<g id="edge31" class="edge">
<title>Node23&#45;&gt;Node18</title>
<path fill="none" stroke="#63b8ff" d="M295.7,-109.51C305.24,-101.85 319.17,-90.66 330.61,-81.47"/>
<polygon fill="#63b8ff" stroke="#63b8ff" points="332.68,-84.3 338.29,-75.31 328.3,-78.84 332.68,-84.3"/>
</g>
</g>
</svg>
