<?xml version="1.0" encoding="UTF-8" standalone="no"?>
<!DOCTYPE svg PUBLIC "-//W3C//DTD SVG 1.1//EN"
 "http://www.w3.org/Graphics/SVG/1.1/DTD/svg11.dtd">
<!-- Generated by graphviz version 7.0.5 (20221223.1930)
 -->
<!-- Title: src/main.c Pages: 1 -->
<svg width="1663pt" height="258pt"
 viewBox="0.00 0.00 1663.00 258.00" xmlns="http://www.w3.org/2000/svg" xmlns:xlink="http://www.w3.org/1999/xlink">
<g id="graph0" class="graph" transform="scale(1 1) rotate(0) translate(4 254)">
<title>src/main.c</title>
<!-- Node1 -->
<g id="node1" class="node">
<title>Node1</title>
<g id="a_node1"><a xlink:title="The main source file for robot control.">
<polygon fill="#999999" stroke="#666666" points="845.5,-250 783.5,-250 783.5,-231 845.5,-231 845.5,-250"/>
<text text-anchor="middle" x="814.5" y="-238" font-family="Helvetica,sans-Serif" font-size="10.00">src/main.c</text>
</a>
</g>
</g>
<!-- Node2 -->
<g id="node2" class="node">
<title>Node2</title>
<g id="a_node2"><a xlink:title=" ">
<polygon fill="#e0e0e0" stroke="#999999" points="45,-74 0,-74 0,-55 45,-55 45,-74"/>
<text text-anchor="middle" x="22.5" y="-62" font-family="Helvetica,sans-Serif" font-size="10.00">stdio.h</text>
</a>
</g>
</g>
<!-- Node1&#45;&gt;Node2 -->
<g id="edge1" class="edge">
<title>Node1&#45;&gt;Node2</title>
<path fill="none" stroke="#63b8ff" d="M783.17,-238.82C651.83,-235.81 149.44,-222.56 84.5,-195 51.2,-180.87 39.51,-172.91 24.5,-140 16.62,-122.72 17.12,-100.77 18.98,-85.18"/>
<polygon fill="#63b8ff" stroke="#63b8ff" points="22.37,-86.16 20.4,-75.75 15.45,-85.12 22.37,-86.16"/>
</g>
<!-- Node3 -->
<g id="node3" class="node">
<title>Node3</title>
<g id="a_node3"><a xlink:title=" ">
<polygon fill="#e0e0e0" stroke="#999999" points="894,-195 843,-195 843,-176 894,-176 894,-195"/>
<text text-anchor="middle" x="868.5" y="-183" font-family="Helvetica,sans-Serif" font-size="10.00">stddef.h</text>
</a>
</g>
</g>
<!-- Node1&#45;&gt;Node3 -->
<g id="edge2" class="edge">
<title>Node1&#45;&gt;Node3</title>
<path fill="none" stroke="#63b8ff" d="M823.42,-230.75C830.95,-223.35 841.97,-212.54 851.23,-203.45"/>
<polygon fill="#63b8ff" stroke="#63b8ff" points="853.62,-206 858.31,-196.5 848.72,-201.01 853.62,-206"/>
</g>
<!-- Node4 -->
<g id="node4" class="node">
<title>Node4</title>
<g id="a_node4"><a xlink:title=" ">
<polygon fill="#e0e0e0" stroke="#999999" points="978.5,-195 912.5,-195 912.5,-176 978.5,-176 978.5,-195"/>
<text text-anchor="middle" x="945.5" y="-183" font-family="Helvetica,sans-Serif" font-size="10.00">sys/cdefs.h</text>
</a>
</g>
</g>
<!-- Node1&#45;&gt;Node4 -->
<g id="edge3" class="edge">
<title>Node1&#45;&gt;Node4</title>
<path fill="none" stroke="#63b8ff" d="M836.72,-230.51C857.64,-222.04 889.23,-209.27 912.98,-199.66"/>
<polygon fill="#63b8ff" stroke="#63b8ff" points="914.25,-202.92 922.2,-195.93 911.62,-196.43 914.25,-202.92"/>
</g>
<!-- Node5 -->
<g id="node5" class="node">
<title>Node5</title>
<g id="a_node5"><a xlink:title=" ">
<polygon fill="#e0e0e0" stroke="#999999" points="1094,-195 997,-195 997,-176 1094,-176 1094,-195"/>
<text text-anchor="middle" x="1045.5" y="-183" font-family="Helvetica,sans-Serif" font-size="10.00">pico/cyw43_arch.h</text>
</a>
</g>
</g>
<!-- Node1&#45;&gt;Node5 -->
<g id="edge4" class="edge">
<title>Node1&#45;&gt;Node5</title>
<path fill="none" stroke="#63b8ff" d="M845.65,-232.35C884.03,-223.55 949.71,-208.48 995.25,-198.03"/>
<polygon fill="#63b8ff" stroke="#63b8ff" points="995.93,-201.46 1004.89,-195.82 994.36,-194.64 995.93,-201.46"/>
</g>
<!-- Node6 -->
<g id="node6" class="node">
<title>Node6</title>
<g id="a_node6"><a xlink:title=" ">
<polygon fill="#e0e0e0" stroke="#999999" points="703.5,-134.5 635.5,-134.5 635.5,-115.5 703.5,-115.5 703.5,-134.5"/>
<text text-anchor="middle" x="669.5" y="-122.5" font-family="Helvetica,sans-Serif" font-size="10.00">pico/stdlib.h</text>
</a>
</g>
</g>
<!-- Node1&#45;&gt;Node6 -->
<g id="edge5" class="edge">
<title>Node1&#45;&gt;Node6</title>
<path fill="none" stroke="#63b8ff" d="M783.19,-236.37C754.9,-231.89 714.06,-221.08 689.5,-195 677.07,-181.81 672.31,-161.36 670.51,-146.14"/>
<polygon fill="#63b8ff" stroke="#63b8ff" points="674.02,-146.06 669.72,-136.38 667.04,-146.63 674.02,-146.06"/>
</g>
<!-- Node7 -->
<g id="node7" class="node">
<title>Node7</title>
<g id="a_node7"><a xlink:title=" ">
<polygon fill="#e0e0e0" stroke="#999999" points="1183,-195 1112,-195 1112,-176 1183,-176 1183,-195"/>
<text text-anchor="middle" x="1147.5" y="-183" font-family="Helvetica,sans-Serif" font-size="10.00">FreeRTOS.h</text>
</a>
</g>
</g>
<!-- Node1&#45;&gt;Node7 -->
<g id="edge6" class="edge">
<title>Node1&#45;&gt;Node7</title>
<path fill="none" stroke="#63b8ff" d="M845.78,-235.08C896.9,-227.77 1001.8,-212.42 1100.16,-195.53"/>
<polygon fill="#63b8ff" stroke="#63b8ff" points="1100.75,-198.98 1110.01,-193.83 1099.56,-192.08 1100.75,-198.98"/>
</g>
<!-- Node8 -->
<g id="node8" class="node">
<title>Node8</title>
<g id="a_node8"><a xlink:title=" ">
<polygon fill="#e0e0e0" stroke="#999999" points="1244,-195 1201,-195 1201,-176 1244,-176 1244,-195"/>
<text text-anchor="middle" x="1222.5" y="-183" font-family="Helvetica,sans-Serif" font-size="10.00">task.h</text>
</a>
</g>
</g>
<!-- Node1&#45;&gt;Node8 -->
<g id="edge7" class="edge">
<title>Node1&#45;&gt;Node8</title>
<path fill="none" stroke="#63b8ff" d="M845.63,-237.52C908.82,-233.13 1056.77,-221.05 1189.49,-195.33"/>
<polygon fill="#63b8ff" stroke="#63b8ff" points="1190.03,-198.79 1199.16,-193.42 1188.67,-191.92 1190.03,-198.79"/>
</g>
<!-- Node9 -->
<g id="node9" class="node">
<title>Node9</title>
<g id="a_node9"><a xlink:title=" ">
<polygon fill="#e0e0e0" stroke="#999999" points="1355,-195 1262,-195 1262,-176 1355,-176 1355,-195"/>
<text text-anchor="middle" x="1308.5" y="-183" font-family="Helvetica,sans-Serif" font-size="10.00">message_buffer.h</text>
</a>
</g>
</g>
<!-- Node1&#45;&gt;Node9 -->
<g id="edge8" class="edge">
<title>Node1&#45;&gt;Node9</title>
<path fill="none" stroke="#63b8ff" d="M845.97,-236.88C916.46,-230.89 1092.63,-215.24 1250.39,-195.34"/>
<polygon fill="#63b8ff" stroke="#63b8ff" points="1250.74,-198.82 1260.21,-194.09 1249.85,-191.88 1250.74,-198.82"/>
</g>
<!-- Node10 -->
<g id="node10" class="node">
<title>Node10</title>
<g id="a_node10"><a xlink:href="ir__sensor_8h.html" target="_top" xlink:title="Header file for the IR sensor driver.">
<polygon fill="white" stroke="#666666" points="512,-195 425,-195 425,-176 512,-176 512,-195"/>
<text text-anchor="middle" x="468.5" y="-183" font-family="Helvetica,sans-Serif" font-size="10.00">irline/ir_sensor.h</text>
</a>
</g>
</g>
<!-- Node1&#45;&gt;Node10 -->
<g id="edge9" class="edge">
<title>Node1&#45;&gt;Node10</title>
<path fill="none" stroke="#63b8ff" d="M783.27,-234.84C731.62,-227.12 624.9,-211.09 523.8,-195.35"/>
<polygon fill="#63b8ff" stroke="#63b8ff" points="524.37,-191.89 513.95,-193.81 523.29,-198.81 524.37,-191.89"/>
</g>
<!-- Node14 -->
<g id="node14" class="node">
<title>Node14</title>
<g id="a_node14"><a xlink:href="magnetometer_8h.html" target="_top" xlink:title="Header file for the magnetometer driver.">
<polygon fill="white" stroke="#666666" points="1525.5,-195 1373.5,-195 1373.5,-176 1525.5,-176 1525.5,-195"/>
<text text-anchor="middle" x="1449.5" y="-183" font-family="Helvetica,sans-Serif" font-size="10.00">magnetometer/magnetometer.h</text>
</a>
</g>
</g>
<!-- Node1&#45;&gt;Node14 -->
<g id="edge13" class="edge">
<title>Node1&#45;&gt;Node14</title>
<path fill="none" stroke="#63b8ff" d="M845.83,-237.17C928.35,-231 1158.72,-213.49 1361.87,-195.22"/>
<polygon fill="#63b8ff" stroke="#63b8ff" points="1361.9,-198.73 1371.54,-194.35 1361.27,-191.76 1361.9,-198.73"/>
</g>
<!-- Node15 -->
<g id="node15" class="node">
<title>Node15</title>
<g id="a_node15"><a xlink:href="motor__control_8h.html" target="_top" xlink:title="Header file for motor control drivers.">
<polygon fill="white" stroke="#666666" points="641,-195 530,-195 530,-176 641,-176 641,-195"/>
<text text-anchor="middle" x="585.5" y="-183" font-family="Helvetica,sans-Serif" font-size="10.00">motor/motor_control.h</text>
</a>
</g>
</g>
<!-- Node1&#45;&gt;Node15 -->
<g id="edge14" class="edge">
<title>Node1&#45;&gt;Node15</title>
<path fill="none" stroke="#63b8ff" d="M783.14,-232.24C744.97,-223.41 680.06,-208.38 635.09,-197.98"/>
<polygon fill="#63b8ff" stroke="#63b8ff" points="636.12,-194.62 625.59,-195.78 634.55,-201.44 636.12,-194.62"/>
</g>
<!-- Node17 -->
<g id="node17" class="node">
<title>Node17</title>
<g id="a_node17"><a xlink:href="ultrasonic_8h.html" target="_top" xlink:title="Header file for the ultrasonic sensor driver.">
<polygon fill="white" stroke="#666666" points="1655,-195 1544,-195 1544,-176 1655,-176 1655,-195"/>
<text text-anchor="middle" x="1599.5" y="-183" font-family="Helvetica,sans-Serif" font-size="10.00">ultrasonic/ultrasonic.h</text>
</a>
</g>
</g>
<!-- Node1&#45;&gt;Node17 -->
<g id="edge18" class="edge">
<title>Node1&#45;&gt;Node17</title>
<path fill="none" stroke="#63b8ff" d="M845.79,-238.33C944.73,-234.47 1259.88,-220.94 1532.21,-195.15"/>
<polygon fill="#63b8ff" stroke="#63b8ff" points="1532.38,-198.65 1542,-194.21 1531.71,-191.68 1532.38,-198.65"/>
</g>
<!-- Node18 -->
<g id="node18" class="node">
<title>Node18</title>
<g id="a_node18"><a xlink:href="wheel__encoder_8h.html" target="_top" xlink:title="Header file for the wheel encoder drivers.">
<polygon fill="white" stroke="#666666" points="825,-195 698,-195 698,-176 825,-176 825,-195"/>
<text text-anchor="middle" x="761.5" y="-183" font-family="Helvetica,sans-Serif" font-size="10.00">encoder/wheel_encoder.h</text>
</a>
</g>
</g>
<!-- Node1&#45;&gt;Node18 -->
<g id="edge19" class="edge">
<title>Node1&#45;&gt;Node18</title>
<path fill="none" stroke="#63b8ff" d="M805.75,-230.75C798.35,-223.35 787.54,-212.54 778.45,-203.45"/>
<polygon fill="#63b8ff" stroke="#63b8ff" points="781.06,-201.11 771.51,-196.51 776.11,-206.06 781.06,-201.11"/>
</g>
<!-- Node19 -->
<g id="node19" class="node">
<title>Node19</title>
<g id="a_node19"><a xlink:href="pid_8h.html" target="_top" xlink:title="Header file for PID control.">
<polygon fill="white" stroke="#666666" points="448,-134.5 395,-134.5 395,-115.5 448,-115.5 448,-134.5"/>
<text text-anchor="middle" x="421.5" y="-122.5" font-family="Helvetica,sans-Serif" font-size="10.00">pid/pid.h</text>
</a>
</g>
</g>
<!-- Node1&#45;&gt;Node19 -->
<g id="edge21" class="edge">
<title>Node1&#45;&gt;Node19</title>
<path fill="none" stroke="#63b8ff" d="M783.24,-238.35C693.67,-234.75 440.86,-222.24 416.5,-195 404.63,-181.73 408.18,-160.7 413.28,-145.34"/>
<polygon fill="#63b8ff" stroke="#63b8ff" points="416.42,-146.93 416.7,-136.34 409.87,-144.44 416.42,-146.93"/>
</g>
<!-- Node21 -->
<g id="node21" class="node">
<title>Node21</title>
<g id="a_node21"><a xlink:href="wifi_8h.html" target="_top" xlink:title="Header file for WiFi module. This file contains the function prototypes and data structures for the W...">
<polygon fill="white" stroke="#666666" points="149.5,-195 93.5,-195 93.5,-176 149.5,-176 149.5,-195"/>
<text text-anchor="middle" x="121.5" y="-183" font-family="Helvetica,sans-Serif" font-size="10.00">wifi/wifi.h</text>
</a>
</g>
</g>
<!-- Node1&#45;&gt;Node21 -->
<g id="edge25" class="edge">
<title>Node1&#45;&gt;Node21</title>
<path fill="none" stroke="#63b8ff" d="M783.38,-237.12C670.99,-228.52 286.16,-199.09 161.1,-189.53"/>
<polygon fill="#63b8ff" stroke="#63b8ff" points="161.58,-186.05 151.34,-188.78 161.04,-193.03 161.58,-186.05"/>
</g>
<!-- Node24 -->
<g id="node24" class="node">
<title>Node24</title>
<g id="a_node24"><a xlink:href="a__star_8h.html" target="_top" xlink:title="Header file for the a* algorithm.">
<polygon fill="white" stroke="#666666" points="355,-195 254,-195 254,-176 355,-176 355,-195"/>
<text text-anchor="middle" x="304.5" y="-183" font-family="Helvetica,sans-Serif" font-size="10.00">pathfinding/a_star.h</text>
</a>
</g>
</g>
<!-- Node1&#45;&gt;Node24 -->
<g id="edge29" class="edge">
<title>Node1&#45;&gt;Node24</title>
<path fill="none" stroke="#63b8ff" d="M783.05,-236.33C711.78,-229.11 532.45,-210.89 382.5,-195 377.27,-194.45 371.85,-193.87 366.4,-193.28"/>
<polygon fill="#63b8ff" stroke="#63b8ff" points="367.09,-189.83 356.77,-192.24 366.33,-196.79 367.09,-189.83"/>
</g>
<!-- Node11 -->
<g id="node11" class="node">
<title>Node11</title>
<g id="a_node11"><a xlink:title=" ">
<polygon fill="#e0e0e0" stroke="#999999" points="572.5,-134.5 504.5,-134.5 504.5,-115.5 572.5,-115.5 572.5,-134.5"/>
<text text-anchor="middle" x="538.5" y="-122.5" font-family="Helvetica,sans-Serif" font-size="10.00">pico/types.h</text>
</a>
</g>
</g>
<!-- Node10&#45;&gt;Node11 -->
<g id="edge10" class="edge">
<title>Node10&#45;&gt;Node11</title>
<path fill="none" stroke="#63b8ff" d="M479.13,-175.62C489.72,-166.77 506.21,-152.98 519.13,-142.19"/>
<polygon fill="#63b8ff" stroke="#63b8ff" points="521.18,-145.04 526.61,-135.94 516.69,-139.67 521.18,-145.04"/>
</g>
<!-- Node12 -->
<g id="node12" class="node">
<title>Node12</title>
<g id="a_node12"><a xlink:href="barcode_8h.html" target="_top" xlink:title="Header file for the barcode driver.">
<polygon fill="white" stroke="#666666" points="517.5,-74 435.5,-74 435.5,-55 517.5,-55 517.5,-74"/>
<text text-anchor="middle" x="476.5" y="-62" font-family="Helvetica,sans-Serif" font-size="10.00">irline/barcode.h</text>
</a>
</g>
</g>
<!-- Node10&#45;&gt;Node12 -->
<g id="edge11" class="edge">
<title>Node10&#45;&gt;Node12</title>
<path fill="none" stroke="#63b8ff" d="M469.1,-175.56C470.38,-156.51 473.4,-111.56 475.16,-85.37"/>
<polygon fill="#63b8ff" stroke="#63b8ff" points="478.63,-85.95 475.81,-75.73 471.65,-85.48 478.63,-85.95"/>
</g>
<!-- Node13 -->
<g id="node13" class="node">
<title>Node13</title>
<g id="a_node13"><a xlink:title=" ">
<polygon fill="#e0e0e0" stroke="#999999" points="355.5,-19 307.5,-19 307.5,0 355.5,0 355.5,-19"/>
<text text-anchor="middle" x="331.5" y="-7" font-family="Helvetica,sans-Serif" font-size="10.00">stdint.h</text>
</a>
</g>
</g>
<!-- Node12&#45;&gt;Node13 -->
<g id="edge12" class="edge">
<title>Node12&#45;&gt;Node13</title>
<path fill="none" stroke="#63b8ff" d="M451.9,-54.51C428.43,-45.93 392.83,-32.92 366.43,-23.27"/>
<polygon fill="#63b8ff" stroke="#63b8ff" points="367.75,-20.02 357.16,-19.88 365.35,-26.6 367.75,-20.02"/>
</g>
<!-- Node15&#45;&gt;Node6 -->
<g id="edge16" class="edge">
<title>Node15&#45;&gt;Node6</title>
<path fill="none" stroke="#63b8ff" d="M598.26,-175.62C611.33,-166.51 631.91,-152.18 647.6,-141.25"/>
<polygon fill="#63b8ff" stroke="#63b8ff" points="649.17,-144.42 655.38,-135.83 645.17,-138.68 649.17,-144.42"/>
</g>
<!-- Node15&#45;&gt;Node11 -->
<g id="edge17" class="edge">
<title>Node15&#45;&gt;Node11</title>
<path fill="none" stroke="#63b8ff" d="M578.56,-175.87C571.76,-167.4 561.19,-154.24 552.61,-143.57"/>
<polygon fill="#63b8ff" stroke="#63b8ff" points="555.4,-141.45 546.41,-135.85 549.95,-145.84 555.4,-141.45"/>
</g>
<!-- Node16 -->
<g id="node16" class="node">
<title>Node16</title>
<g id="a_node16"><a xlink:title=" ">
<polygon fill="#e0e0e0" stroke="#999999" points="432.5,-19 376.5,-19 376.5,0 432.5,0 432.5,-19"/>
<text text-anchor="middle" x="404.5" y="-7" font-family="Helvetica,sans-Serif" font-size="10.00">stdbool.h</text>
</a>
</g>
</g>
<!-- Node15&#45;&gt;Node16 -->
<g id="edge15" class="edge">
<title>Node15&#45;&gt;Node16</title>
<path fill="none" stroke="#63b8ff" d="M586.97,-175.77C588.98,-161.36 591.31,-132 581.5,-110 567.42,-78.43 555.65,-73.58 526.5,-55 501.03,-38.76 468.8,-27.33 443.87,-20.12"/>
<polygon fill="#63b8ff" stroke="#63b8ff" points="445.01,-16.81 434.43,-17.51 443.14,-23.55 445.01,-16.81"/>
</g>
<!-- Node18&#45;&gt;Node6 -->
<g id="edge20" class="edge">
<title>Node18&#45;&gt;Node6</title>
<path fill="none" stroke="#63b8ff" d="M747.53,-175.62C733.07,-166.42 710.24,-151.91 693,-140.94"/>
<polygon fill="#63b8ff" stroke="#63b8ff" points="695.2,-138.19 684.88,-135.78 691.44,-144.1 695.2,-138.19"/>
</g>
<!-- Node20 -->
<g id="node20" class="node">
<title>Node20</title>
<g id="a_node20"><a xlink:href="maze_8h.html" target="_top" xlink:title="Header file for the maze data structure and public functions.">
<polygon fill="white" stroke="#666666" points="417,-74 320,-74 320,-55 417,-55 417,-74"/>
<text text-anchor="middle" x="368.5" y="-62" font-family="Helvetica,sans-Serif" font-size="10.00">pathfinding/maze.h</text>
</a>
</g>
</g>
<!-- Node19&#45;&gt;Node20 -->
<g id="edge22" class="edge">
<title>Node19&#45;&gt;Node20</title>
<path fill="none" stroke="#63b8ff" d="M413.68,-115.37C405.85,-106.73 393.6,-93.2 383.83,-82.42"/>
<polygon fill="#63b8ff" stroke="#63b8ff" points="386.68,-80.35 377.37,-75.29 381.49,-85.05 386.68,-80.35"/>
</g>
<!-- Node20&#45;&gt;Node13 -->
<g id="edge23" class="edge">
<title>Node20&#45;&gt;Node13</title>
<path fill="none" stroke="#63b8ff" d="M362.39,-54.75C357.49,-47.73 350.45,-37.64 344.33,-28.87"/>
<polygon fill="#63b8ff" stroke="#63b8ff" points="347.2,-26.88 338.61,-20.68 341.46,-30.89 347.2,-26.88"/>
</g>
<!-- Node20&#45;&gt;Node16 -->
<g id="edge24" class="edge">
<title>Node20&#45;&gt;Node16</title>
<path fill="none" stroke="#63b8ff" d="M374.44,-54.75C379.21,-47.73 386.06,-37.64 392.02,-28.87"/>
<polygon fill="#63b8ff" stroke="#63b8ff" points="394.85,-30.93 397.58,-20.69 389.06,-27 394.85,-30.93"/>
</g>
<!-- Node21&#45;&gt;Node2 -->
<g id="edge26" class="edge">
<title>Node21&#45;&gt;Node2</title>
<path fill="none" stroke="#63b8ff" d="M93.94,-175.62C76.44,-168.61 54.69,-157.12 41.5,-140 29.42,-124.31 24.96,-101.79 23.34,-85.62"/>
<polygon fill="#63b8ff" stroke="#63b8ff" points="26.84,-85.52 22.67,-75.78 19.86,-85.99 26.84,-85.52"/>
</g>
<!-- Node22 -->
<g id="node22" class="node">
<title>Node22</title>
<g id="a_node22"><a xlink:title=" ">
<polygon fill="#e0e0e0" stroke="#999999" points="114,-134.5 51,-134.5 51,-115.5 114,-115.5 114,-134.5"/>
<text text-anchor="middle" x="82.5" y="-122.5" font-family="Helvetica,sans-Serif" font-size="10.00">lwip/pbuf.h</text>
</a>
</g>
</g>
<!-- Node21&#45;&gt;Node22 -->
<g id="edge27" class="edge">
<title>Node21&#45;&gt;Node22</title>
<path fill="none" stroke="#63b8ff" d="M115.75,-175.87C110.22,-167.57 101.68,-154.78 94.65,-144.22"/>
<polygon fill="#63b8ff" stroke="#63b8ff" points="97.58,-142.31 89.12,-135.93 91.75,-146.19 97.58,-142.31"/>
</g>
<!-- Node23 -->
<g id="node23" class="node">
<title>Node23</title>
<g id="a_node23"><a xlink:title=" ">
<polygon fill="#e0e0e0" stroke="#999999" points="190.5,-134.5 132.5,-134.5 132.5,-115.5 190.5,-115.5 190.5,-134.5"/>
<text text-anchor="middle" x="161.5" y="-122.5" font-family="Helvetica,sans-Serif" font-size="10.00">lwip/tcp.h</text>
</a>
</g>
</g>
<!-- Node21&#45;&gt;Node23 -->
<g id="edge28" class="edge">
<title>Node21&#45;&gt;Node23</title>
<path fill="none" stroke="#63b8ff" d="M127.4,-175.87C133.13,-167.49 142.01,-154.51 149.26,-143.89"/>
<polygon fill="#63b8ff" stroke="#63b8ff" points="151.96,-146.15 154.72,-135.92 146.19,-142.2 151.96,-146.15"/>
</g>
<!-- Node24&#45;&gt;Node13 -->
<g id="edge30" class="edge">
<title>Node24&#45;&gt;Node13</title>
<path fill="none" stroke="#63b8ff" d="M280.39,-175.52C265.09,-168.42 246.54,-156.86 237.5,-140 231.2,-128.25 232.57,-122.39 237.5,-110 251.87,-73.87 286.27,-43.28 309.23,-25.9"/>
<polygon fill="#63b8ff" stroke="#63b8ff" points="311.04,-28.91 317.05,-20.18 306.91,-23.26 311.04,-28.91"/>
</g>
<!-- Node24&#45;&gt;Node20 -->
<g id="edge35" class="edge">
<title>Node24&#45;&gt;Node20</title>
<path fill="none" stroke="#63b8ff" d="M315.61,-175.77C325.37,-167.53 339.26,-154.35 347.5,-140 357.33,-122.9 362.79,-100.92 365.66,-85.28"/>
<polygon fill="#63b8ff" stroke="#63b8ff" points="369.05,-86.23 367.2,-75.8 362.14,-85.11 369.05,-86.23"/>
</g>
<!-- Node25 -->
<g id="node25" class="node">
<title>Node25</title>
<g id="a_node25"><a xlink:href="binary__heap_8h.html" target="_top" xlink:title="This file contains the declarations for the binary min&#45;heap used in the a* algorithm.">
<polygon fill="white" stroke="#666666" points="338.5,-140 246.5,-140 246.5,-110 338.5,-110 338.5,-140"/>
<text text-anchor="start" x="254.5" y="-128" font-family="Helvetica,sans-Serif" font-size="10.00">pathfinding/binary</text>
<text text-anchor="middle" x="292.5" y="-117" font-family="Helvetica,sans-Serif" font-size="10.00">_heap.h</text>
</a>
</g>
</g>
<!-- Node24&#45;&gt;Node25 -->
<g id="edge31" class="edge">
<title>Node24&#45;&gt;Node25</title>
<path fill="none" stroke="#63b8ff" d="M302.73,-175.87C301.39,-169.33 299.47,-159.99 297.66,-151.15"/>
<polygon fill="#63b8ff" stroke="#63b8ff" points="301.14,-150.69 295.7,-141.6 294.28,-152.1 301.14,-150.69"/>
</g>
<!-- Node25&#45;&gt;Node2 -->
<g id="edge34" class="edge">
<title>Node25&#45;&gt;Node2</title>
<path fill="none" stroke="#63b8ff" d="M246.09,-113.94C192.04,-102.23 104.08,-83.18 56.19,-72.8"/>
<polygon fill="#63b8ff" stroke="#63b8ff" points="57.19,-69.44 46.68,-70.74 55.71,-76.28 57.19,-69.44"/>
</g>
<!-- Node25&#45;&gt;Node13 -->
<g id="edge32" class="edge">
<title>Node25&#45;&gt;Node13</title>
<path fill="none" stroke="#63b8ff" d="M295.8,-109.53C299.17,-95.43 304.85,-73.47 311.5,-55 314.58,-46.43 318.6,-37.21 322.23,-29.4"/>
<polygon fill="#63b8ff" stroke="#63b8ff" points="325.3,-31.1 326.46,-20.57 318.98,-28.08 325.3,-31.1"/>
</g>
<!-- Node25&#45;&gt;Node20 -->
<g id="edge33" class="edge">
<title>Node25&#45;&gt;Node20</title>
<path fill="none" stroke="#63b8ff" d="M311.29,-109.54C322.55,-100.87 336.87,-89.85 348.37,-81"/>
<polygon fill="#63b8ff" stroke="#63b8ff" points="350.24,-83.97 356.03,-75.1 345.97,-78.42 350.24,-83.97"/>
</g>
</g>
</svg>
