<?xml version="1.0" encoding="UTF-8" standalone="no"?>
<!DOCTYPE svg PUBLIC "-//W3C//DTD SVG 1.1//EN"
 "http://www.w3.org/Graphics/SVG/1.1/DTD/svg11.dtd">
<!-- Generated by graphviz version 7.0.5 (20221223.1930)
 -->
<!-- Title: src/main.c Pages: 1 -->
<svg width="1509pt" height="258pt"
 viewBox="0.00 0.00 1509.00 258.00" xmlns="http://www.w3.org/2000/svg" xmlns:xlink="http://www.w3.org/1999/xlink">
<g id="graph0" class="graph" transform="scale(1 1) rotate(0) translate(4 254)">
<title>src/main.c</title>
<!-- Node1 -->
<g id="node1" class="node">
<title>Node1</title>
<g id="a_node1"><a xlink:title="The main source file for robot control.">
<polygon fill="#999999" stroke="#666666" points="746.5,-250 684.5,-250 684.5,-231 746.5,-231 746.5,-250"/>
<text text-anchor="middle" x="715.5" y="-238" font-family="Helvetica,sans-Serif" font-size="10.00">src/main.c</text>
</a>
</g>
</g>
<!-- Node2 -->
<g id="node2" class="node">
<title>Node2</title>
<g id="a_node2"><a xlink:title=" ">
<polygon fill="#e0e0e0" stroke="#999999" points="45,-74 0,-74 0,-55 45,-55 45,-74"/>
<text text-anchor="middle" x="22.5" y="-62" font-family="Helvetica,sans-Serif" font-size="10.00">stdio.h</text>
</a>
</g>
</g>
<!-- Node1&#45;&gt;Node2 -->
<g id="edge1" class="edge">
<title>Node1&#45;&gt;Node2</title>
<path fill="none" stroke="#63b8ff" d="M684.04,-239.99C572.11,-241.32 194.09,-242.13 84.5,-195 51.27,-180.71 39.51,-172.91 24.5,-140 16.62,-122.72 17.12,-100.77 18.98,-85.18"/>
<polygon fill="#63b8ff" stroke="#63b8ff" points="22.37,-86.16 20.4,-75.75 15.45,-85.12 22.37,-86.16"/>
</g>
<!-- Node3 -->
<g id="node3" class="node">
<title>Node3</title>
<g id="a_node3"><a xlink:title=" ">
<polygon fill="#e0e0e0" stroke="#999999" points="940,-195 843,-195 843,-176 940,-176 940,-195"/>
<text text-anchor="middle" x="891.5" y="-183" font-family="Helvetica,sans-Serif" font-size="10.00">pico/cyw43_arch.h</text>
</a>
</g>
</g>
<!-- Node1&#45;&gt;Node3 -->
<g id="edge2" class="edge">
<title>Node1&#45;&gt;Node3</title>
<path fill="none" stroke="#63b8ff" d="M745.36,-230.51C774.39,-221.76 818.72,-208.42 850.94,-198.71"/>
<polygon fill="#63b8ff" stroke="#63b8ff" points="851.78,-202.12 860.34,-195.88 849.76,-195.41 851.78,-202.12"/>
</g>
<!-- Node4 -->
<g id="node4" class="node">
<title>Node4</title>
<g id="a_node4"><a xlink:title=" ">
<polygon fill="#e0e0e0" stroke="#999999" points="703.5,-134.5 635.5,-134.5 635.5,-115.5 703.5,-115.5 703.5,-134.5"/>
<text text-anchor="middle" x="669.5" y="-122.5" font-family="Helvetica,sans-Serif" font-size="10.00">pico/stdlib.h</text>
</a>
</g>
</g>
<!-- Node1&#45;&gt;Node4 -->
<g id="edge3" class="edge">
<title>Node1&#45;&gt;Node4</title>
<path fill="none" stroke="#63b8ff" d="M709.44,-230.64C703.67,-221.9 695.08,-207.99 689.5,-195 682.58,-178.87 677.22,-159.61 673.8,-145.55"/>
<polygon fill="#63b8ff" stroke="#63b8ff" points="677.3,-145.17 671.64,-136.21 670.48,-146.74 677.3,-145.17"/>
</g>
<!-- Node5 -->
<g id="node5" class="node">
<title>Node5</title>
<g id="a_node5"><a xlink:title=" ">
<polygon fill="#e0e0e0" stroke="#999999" points="1029,-195 958,-195 958,-176 1029,-176 1029,-195"/>
<text text-anchor="middle" x="993.5" y="-183" font-family="Helvetica,sans-Serif" font-size="10.00">FreeRTOS.h</text>
</a>
</g>
</g>
<!-- Node1&#45;&gt;Node5 -->
<g id="edge4" class="edge">
<title>Node1&#45;&gt;Node5</title>
<path fill="none" stroke="#63b8ff" d="M746.92,-233.55C789.82,-225.43 869.43,-210.33 947.03,-195.47"/>
<polygon fill="#63b8ff" stroke="#63b8ff" points="947.31,-198.98 956.47,-193.66 945.99,-192.1 947.31,-198.98"/>
</g>
<!-- Node6 -->
<g id="node6" class="node">
<title>Node6</title>
<g id="a_node6"><a xlink:title=" ">
<polygon fill="#e0e0e0" stroke="#999999" points="1090,-195 1047,-195 1047,-176 1090,-176 1090,-195"/>
<text text-anchor="middle" x="1068.5" y="-183" font-family="Helvetica,sans-Serif" font-size="10.00">task.h</text>
</a>
</g>
</g>
<!-- Node1&#45;&gt;Node6 -->
<g id="edge5" class="edge">
<title>Node1&#45;&gt;Node6</title>
<path fill="none" stroke="#63b8ff" d="M746.93,-236.64C803.09,-231.21 924.52,-218.05 1035.58,-195.37"/>
<polygon fill="#63b8ff" stroke="#63b8ff" points="1036.07,-198.84 1045.15,-193.38 1034.65,-191.99 1036.07,-198.84"/>
</g>
<!-- Node7 -->
<g id="node7" class="node">
<title>Node7</title>
<g id="a_node7"><a xlink:title=" ">
<polygon fill="#e0e0e0" stroke="#999999" points="1201,-195 1108,-195 1108,-176 1201,-176 1201,-195"/>
<text text-anchor="middle" x="1154.5" y="-183" font-family="Helvetica,sans-Serif" font-size="10.00">message_buffer.h</text>
</a>
</g>
</g>
<!-- Node1&#45;&gt;Node7 -->
<g id="edge6" class="edge">
<title>Node1&#45;&gt;Node7</title>
<path fill="none" stroke="#63b8ff" d="M746.91,-236.27C810.78,-229.61 960.63,-213.54 1096.69,-195.34"/>
<polygon fill="#63b8ff" stroke="#63b8ff" points="1096.77,-198.86 1106.21,-194.06 1095.83,-191.92 1096.77,-198.86"/>
</g>
<!-- Node8 -->
<g id="node8" class="node">
<title>Node8</title>
<g id="a_node8"><a xlink:href="ir__sensor_8h.html" target="_top" xlink:title="Header file for the IR sensor driver.">
<polygon fill="white" stroke="#666666" points="512,-195 425,-195 425,-176 512,-176 512,-195"/>
<text text-anchor="middle" x="468.5" y="-183" font-family="Helvetica,sans-Serif" font-size="10.00">irline/ir_sensor.h</text>
</a>
</g>
</g>
<!-- Node1&#45;&gt;Node8 -->
<g id="edge7" class="edge">
<title>Node1&#45;&gt;Node8</title>
<path fill="none" stroke="#63b8ff" d="M684.22,-232.79C643.27,-224 570.9,-208.47 521.37,-197.84"/>
<polygon fill="#63b8ff" stroke="#63b8ff" points="522.23,-194.45 511.71,-195.77 520.76,-201.29 522.23,-194.45"/>
</g>
<!-- Node12 -->
<g id="node12" class="node">
<title>Node12</title>
<g id="a_node12"><a xlink:href="magnetometer_8h.html" target="_top" xlink:title="Header file for the magnetometer driver.">
<polygon fill="white" stroke="#666666" points="1371.5,-195 1219.5,-195 1219.5,-176 1371.5,-176 1371.5,-195"/>
<text text-anchor="middle" x="1295.5" y="-183" font-family="Helvetica,sans-Serif" font-size="10.00">magnetometer/magnetometer.h</text>
</a>
</g>
</g>
<!-- Node1&#45;&gt;Node12 -->
<g id="edge11" class="edge">
<title>Node1&#45;&gt;Node12</title>
<path fill="none" stroke="#63b8ff" d="M746.78,-236.8C823.38,-230.16 1026.7,-212.39 1207.71,-195.26"/>
<polygon fill="#63b8ff" stroke="#63b8ff" points="1207.92,-198.75 1217.54,-194.32 1207.26,-191.78 1207.92,-198.75"/>
</g>
<!-- Node13 -->
<g id="node13" class="node">
<title>Node13</title>
<g id="a_node13"><a xlink:href="motor__control_8h.html" target="_top" xlink:title="Header file for motor control drivers.">
<polygon fill="white" stroke="#666666" points="641,-195 530,-195 530,-176 641,-176 641,-195"/>
<text text-anchor="middle" x="585.5" y="-183" font-family="Helvetica,sans-Serif" font-size="10.00">motor/motor_control.h</text>
</a>
</g>
</g>
<!-- Node1&#45;&gt;Node13 -->
<g id="edge12" class="edge">
<title>Node1&#45;&gt;Node13</title>
<path fill="none" stroke="#63b8ff" d="M693.45,-230.51C672.69,-222.04 641.34,-209.27 617.77,-199.66"/>
<polygon fill="#63b8ff" stroke="#63b8ff" points="619.21,-196.46 608.63,-195.93 616.57,-202.95 619.21,-196.46"/>
</g>
<!-- Node15 -->
<g id="node15" class="node">
<title>Node15</title>
<g id="a_node15"><a xlink:href="ultrasonic_8h.html" target="_top" xlink:title="Header file for the ultrasonic sensor driver.">
<polygon fill="white" stroke="#666666" points="1501,-195 1390,-195 1390,-176 1501,-176 1501,-195"/>
<text text-anchor="middle" x="1445.5" y="-183" font-family="Helvetica,sans-Serif" font-size="10.00">ultrasonic/ultrasonic.h</text>
</a>
</g>
</g>
<!-- Node1&#45;&gt;Node15 -->
<g id="edge16" class="edge">
<title>Node1&#45;&gt;Node15</title>
<path fill="none" stroke="#63b8ff" d="M746.72,-238.11C840.53,-233.8 1128.36,-219.48 1378.38,-195.14"/>
<polygon fill="#63b8ff" stroke="#63b8ff" points="1378.39,-198.66 1388,-194.2 1377.71,-191.69 1378.39,-198.66"/>
</g>
<!-- Node16 -->
<g id="node16" class="node">
<title>Node16</title>
<g id="a_node16"><a xlink:href="wheel__encoder_8h.html" target="_top" xlink:title="Header file for the wheel encoder drivers.">
<polygon fill="white" stroke="#666666" points="825,-195 698,-195 698,-176 825,-176 825,-195"/>
<text text-anchor="middle" x="761.5" y="-183" font-family="Helvetica,sans-Serif" font-size="10.00">encoder/wheel_encoder.h</text>
</a>
</g>
</g>
<!-- Node1&#45;&gt;Node16 -->
<g id="edge17" class="edge">
<title>Node1&#45;&gt;Node16</title>
<path fill="none" stroke="#63b8ff" d="M723.1,-230.75C729.38,-223.5 738.51,-212.98 746.3,-204.02"/>
<polygon fill="#63b8ff" stroke="#63b8ff" points="748.84,-206.43 752.75,-196.59 743.55,-201.84 748.84,-206.43"/>
</g>
<!-- Node17 -->
<g id="node17" class="node">
<title>Node17</title>
<g id="a_node17"><a xlink:href="pid_8h.html" target="_top" xlink:title=" ">
<polygon fill="white" stroke="#666666" points="448,-134.5 395,-134.5 395,-115.5 448,-115.5 448,-134.5"/>
<text text-anchor="middle" x="421.5" y="-122.5" font-family="Helvetica,sans-Serif" font-size="10.00">pid/pid.h</text>
</a>
</g>
</g>
<!-- Node1&#45;&gt;Node17 -->
<g id="edge19" class="edge">
<title>Node1&#45;&gt;Node17</title>
<path fill="none" stroke="#63b8ff" d="M684.02,-239.75C614.4,-239.56 450.81,-234.8 416.5,-195 404.88,-181.52 408.39,-160.52 413.41,-145.22"/>
<polygon fill="#63b8ff" stroke="#63b8ff" points="416.53,-146.87 416.78,-136.28 409.98,-144.4 416.53,-146.87"/>
</g>
<!-- Node19 -->
<g id="node19" class="node">
<title>Node19</title>
<g id="a_node19"><a xlink:href="wifi_8h.html" target="_top" xlink:title="Header file for WiFi module. This file contains the function prototypes and data structures for the W...">
<polygon fill="white" stroke="#666666" points="149.5,-195 93.5,-195 93.5,-176 149.5,-176 149.5,-195"/>
<text text-anchor="middle" x="121.5" y="-183" font-family="Helvetica,sans-Serif" font-size="10.00">wifi/wifi.h</text>
</a>
</g>
</g>
<!-- Node1&#45;&gt;Node19 -->
<g id="edge23" class="edge">
<title>Node1&#45;&gt;Node19</title>
<path fill="none" stroke="#63b8ff" d="M684.4,-236.73C584.56,-227.82 272.19,-199.95 161.16,-190.04"/>
<polygon fill="#63b8ff" stroke="#63b8ff" points="161.62,-186.57 151.35,-189.16 161,-193.54 161.62,-186.57"/>
</g>
<!-- Node22 -->
<g id="node22" class="node">
<title>Node22</title>
<g id="a_node22"><a xlink:href="a__star_8h.html" target="_top" xlink:title="Header file for the a* algorithm.">
<polygon fill="white" stroke="#666666" points="355,-195 254,-195 254,-176 355,-176 355,-195"/>
<text text-anchor="middle" x="304.5" y="-183" font-family="Helvetica,sans-Serif" font-size="10.00">pathfinding/a_star.h</text>
</a>
</g>
</g>
<!-- Node1&#45;&gt;Node22 -->
<g id="edge27" class="edge">
<title>Node1&#45;&gt;Node22</title>
<path fill="none" stroke="#63b8ff" d="M684.27,-235.47C616.7,-226.76 455.86,-206.02 366.7,-194.52"/>
<polygon fill="#63b8ff" stroke="#63b8ff" points="367.26,-191.06 356.9,-193.26 366.37,-198.01 367.26,-191.06"/>
</g>
<!-- Node9 -->
<g id="node9" class="node">
<title>Node9</title>
<g id="a_node9"><a xlink:title=" ">
<polygon fill="#e0e0e0" stroke="#999999" points="572.5,-134.5 504.5,-134.5 504.5,-115.5 572.5,-115.5 572.5,-134.5"/>
<text text-anchor="middle" x="538.5" y="-122.5" font-family="Helvetica,sans-Serif" font-size="10.00">pico/types.h</text>
</a>
</g>
</g>
<!-- Node8&#45;&gt;Node9 -->
<g id="edge8" class="edge">
<title>Node8&#45;&gt;Node9</title>
<path fill="none" stroke="#63b8ff" d="M479.13,-175.62C489.72,-166.77 506.21,-152.98 519.13,-142.19"/>
<polygon fill="#63b8ff" stroke="#63b8ff" points="521.18,-145.04 526.61,-135.94 516.69,-139.67 521.18,-145.04"/>
</g>
<!-- Node10 -->
<g id="node10" class="node">
<title>Node10</title>
<g id="a_node10"><a xlink:href="barcode_8h.html" target="_top" xlink:title="Header file for the barcode driver.">
<polygon fill="white" stroke="#666666" points="517.5,-74 435.5,-74 435.5,-55 517.5,-55 517.5,-74"/>
<text text-anchor="middle" x="476.5" y="-62" font-family="Helvetica,sans-Serif" font-size="10.00">irline/barcode.h</text>
</a>
</g>
</g>
<!-- Node8&#45;&gt;Node10 -->
<g id="edge9" class="edge">
<title>Node8&#45;&gt;Node10</title>
<path fill="none" stroke="#63b8ff" d="M469.1,-175.56C470.38,-156.51 473.4,-111.56 475.16,-85.37"/>
<polygon fill="#63b8ff" stroke="#63b8ff" points="478.63,-85.95 475.81,-75.73 471.65,-85.48 478.63,-85.95"/>
</g>
<!-- Node11 -->
<g id="node11" class="node">
<title>Node11</title>
<g id="a_node11"><a xlink:title=" ">
<polygon fill="#e0e0e0" stroke="#999999" points="355.5,-19 307.5,-19 307.5,0 355.5,0 355.5,-19"/>
<text text-anchor="middle" x="331.5" y="-7" font-family="Helvetica,sans-Serif" font-size="10.00">stdint.h</text>
</a>
</g>
</g>
<!-- Node10&#45;&gt;Node11 -->
<g id="edge10" class="edge">
<title>Node10&#45;&gt;Node11</title>
<path fill="none" stroke="#63b8ff" d="M451.9,-54.51C428.43,-45.93 392.83,-32.92 366.43,-23.27"/>
<polygon fill="#63b8ff" stroke="#63b8ff" points="367.75,-20.02 357.16,-19.88 365.35,-26.6 367.75,-20.02"/>
</g>
<!-- Node13&#45;&gt;Node4 -->
<g id="edge14" class="edge">
<title>Node13&#45;&gt;Node4</title>
<path fill="none" stroke="#63b8ff" d="M598.26,-175.62C611.33,-166.51 631.91,-152.18 647.6,-141.25"/>
<polygon fill="#63b8ff" stroke="#63b8ff" points="649.17,-144.42 655.38,-135.83 645.17,-138.68 649.17,-144.42"/>
</g>
<!-- Node13&#45;&gt;Node9 -->
<g id="edge15" class="edge">
<title>Node13&#45;&gt;Node9</title>
<path fill="none" stroke="#63b8ff" d="M578.56,-175.87C571.76,-167.4 561.19,-154.24 552.61,-143.57"/>
<polygon fill="#63b8ff" stroke="#63b8ff" points="555.4,-141.45 546.41,-135.85 549.95,-145.84 555.4,-141.45"/>
</g>
<!-- Node14 -->
<g id="node14" class="node">
<title>Node14</title>
<g id="a_node14"><a xlink:title=" ">
<polygon fill="#e0e0e0" stroke="#999999" points="432.5,-19 376.5,-19 376.5,0 432.5,0 432.5,-19"/>
<text text-anchor="middle" x="404.5" y="-7" font-family="Helvetica,sans-Serif" font-size="10.00">stdbool.h</text>
</a>
</g>
</g>
<!-- Node13&#45;&gt;Node14 -->
<g id="edge13" class="edge">
<title>Node13&#45;&gt;Node14</title>
<path fill="none" stroke="#63b8ff" d="M586.97,-175.77C588.98,-161.36 591.31,-132 581.5,-110 567.42,-78.43 555.65,-73.58 526.5,-55 501.03,-38.76 468.8,-27.33 443.87,-20.12"/>
<polygon fill="#63b8ff" stroke="#63b8ff" points="445.01,-16.81 434.43,-17.51 443.14,-23.55 445.01,-16.81"/>
</g>
<!-- Node16&#45;&gt;Node4 -->
<g id="edge18" class="edge">
<title>Node16&#45;&gt;Node4</title>
<path fill="none" stroke="#63b8ff" d="M747.53,-175.62C733.07,-166.42 710.24,-151.91 693,-140.94"/>
<polygon fill="#63b8ff" stroke="#63b8ff" points="695.2,-138.19 684.88,-135.78 691.44,-144.1 695.2,-138.19"/>
</g>
<!-- Node18 -->
<g id="node18" class="node">
<title>Node18</title>
<g id="a_node18"><a xlink:href="maze_8h.html" target="_top" xlink:title="Header file for the maze data structure and public functions.">
<polygon fill="white" stroke="#666666" points="417,-74 320,-74 320,-55 417,-55 417,-74"/>
<text text-anchor="middle" x="368.5" y="-62" font-family="Helvetica,sans-Serif" font-size="10.00">pathfinding/maze.h</text>
</a>
</g>
</g>
<!-- Node17&#45;&gt;Node18 -->
<g id="edge20" class="edge">
<title>Node17&#45;&gt;Node18</title>
<path fill="none" stroke="#63b8ff" d="M413.68,-115.37C405.85,-106.73 393.6,-93.2 383.83,-82.42"/>
<polygon fill="#63b8ff" stroke="#63b8ff" points="386.68,-80.35 377.37,-75.29 381.49,-85.05 386.68,-80.35"/>
</g>
<!-- Node18&#45;&gt;Node11 -->
<g id="edge21" class="edge">
<title>Node18&#45;&gt;Node11</title>
<path fill="none" stroke="#63b8ff" d="M362.39,-54.75C357.49,-47.73 350.45,-37.64 344.33,-28.87"/>
<polygon fill="#63b8ff" stroke="#63b8ff" points="347.2,-26.88 338.61,-20.68 341.46,-30.89 347.2,-26.88"/>
</g>
<!-- Node18&#45;&gt;Node14 -->
<g id="edge22" class="edge">
<title>Node18&#45;&gt;Node14</title>
<path fill="none" stroke="#63b8ff" d="M374.44,-54.75C379.21,-47.73 386.06,-37.64 392.02,-28.87"/>
<polygon fill="#63b8ff" stroke="#63b8ff" points="394.85,-30.93 397.58,-20.69 389.06,-27 394.85,-30.93"/>
</g>
<!-- Node19&#45;&gt;Node2 -->
<g id="edge24" class="edge">
<title>Node19&#45;&gt;Node2</title>
<path fill="none" stroke="#63b8ff" d="M93.94,-175.62C76.44,-168.61 54.69,-157.12 41.5,-140 29.42,-124.31 24.96,-101.79 23.34,-85.62"/>
<polygon fill="#63b8ff" stroke="#63b8ff" points="26.84,-85.52 22.67,-75.78 19.86,-85.99 26.84,-85.52"/>
</g>
<!-- Node20 -->
<g id="node20" class="node">
<title>Node20</title>
<g id="a_node20"><a xlink:title=" ">
<polygon fill="#e0e0e0" stroke="#999999" points="114,-134.5 51,-134.5 51,-115.5 114,-115.5 114,-134.5"/>
<text text-anchor="middle" x="82.5" y="-122.5" font-family="Helvetica,sans-Serif" font-size="10.00">lwip/pbuf.h</text>
</a>
</g>
</g>
<!-- Node19&#45;&gt;Node20 -->
<g id="edge25" class="edge">
<title>Node19&#45;&gt;Node20</title>
<path fill="none" stroke="#63b8ff" d="M115.75,-175.87C110.22,-167.57 101.68,-154.78 94.65,-144.22"/>
<polygon fill="#63b8ff" stroke="#63b8ff" points="97.58,-142.31 89.12,-135.93 91.75,-146.19 97.58,-142.31"/>
</g>
<!-- Node21 -->
<g id="node21" class="node">
<title>Node21</title>
<g id="a_node21"><a xlink:title=" ">
<polygon fill="#e0e0e0" stroke="#999999" points="190.5,-134.5 132.5,-134.5 132.5,-115.5 190.5,-115.5 190.5,-134.5"/>
<text text-anchor="middle" x="161.5" y="-122.5" font-family="Helvetica,sans-Serif" font-size="10.00">lwip/tcp.h</text>
</a>
</g>
</g>
<!-- Node19&#45;&gt;Node21 -->
<g id="edge26" class="edge">
<title>Node19&#45;&gt;Node21</title>
<path fill="none" stroke="#63b8ff" d="M127.4,-175.87C133.13,-167.49 142.01,-154.51 149.26,-143.89"/>
<polygon fill="#63b8ff" stroke="#63b8ff" points="151.96,-146.15 154.72,-135.92 146.19,-142.2 151.96,-146.15"/>
</g>
<!-- Node22&#45;&gt;Node11 -->
<g id="edge28" class="edge">
<title>Node22&#45;&gt;Node11</title>
<path fill="none" stroke="#63b8ff" d="M280.39,-175.52C265.09,-168.42 246.54,-156.86 237.5,-140 231.2,-128.25 232.57,-122.39 237.5,-110 251.87,-73.87 286.27,-43.28 309.23,-25.9"/>
<polygon fill="#63b8ff" stroke="#63b8ff" points="311.04,-28.91 317.05,-20.18 306.91,-23.26 311.04,-28.91"/>
</g>
<!-- Node22&#45;&gt;Node18 -->
<g id="edge33" class="edge">
<title>Node22&#45;&gt;Node18</title>
<path fill="none" stroke="#63b8ff" d="M315.61,-175.77C325.37,-167.53 339.26,-154.35 347.5,-140 357.33,-122.9 362.79,-100.92 365.66,-85.28"/>
<polygon fill="#63b8ff" stroke="#63b8ff" points="369.05,-86.23 367.2,-75.8 362.14,-85.11 369.05,-86.23"/>
</g>
<!-- Node23 -->
<g id="node23" class="node">
<title>Node23</title>
<g id="a_node23"><a xlink:href="binary__heap_8h.html" target="_top" xlink:title="This file contains the declarations for the binary min&#45;heap used in the a* algorithm.">
<polygon fill="white" stroke="#666666" points="338.5,-140 246.5,-140 246.5,-110 338.5,-110 338.5,-140"/>
<text text-anchor="start" x="254.5" y="-128" font-family="Helvetica,sans-Serif" font-size="10.00">pathfinding/binary</text>
<text text-anchor="middle" x="292.5" y="-117" font-family="Helvetica,sans-Serif" font-size="10.00">_heap.h</text>
</a>
</g>
</g>
<!-- Node22&#45;&gt;Node23 -->
<g id="edge29" class="edge">
<title>Node22&#45;&gt;Node23</title>
<path fill="none" stroke="#63b8ff" d="M302.73,-175.87C301.39,-169.33 299.47,-159.99 297.66,-151.15"/>
<polygon fill="#63b8ff" stroke="#63b8ff" points="301.14,-150.69 295.7,-141.6 294.28,-152.1 301.14,-150.69"/>
</g>
<!-- Node23&#45;&gt;Node2 -->
<g id="edge32" class="edge">
<title>Node23&#45;&gt;Node2</title>
<path fill="none" stroke="#63b8ff" d="M246.09,-113.94C192.04,-102.23 104.08,-83.18 56.19,-72.8"/>
<polygon fill="#63b8ff" stroke="#63b8ff" points="57.19,-69.44 46.68,-70.74 55.71,-76.28 57.19,-69.44"/>
</g>
<!-- Node23&#45;&gt;Node11 -->
<g id="edge30" class="edge">
<title>Node23&#45;&gt;Node11</title>
<path fill="none" stroke="#63b8ff" d="M295.8,-109.53C299.17,-95.43 304.85,-73.47 311.5,-55 314.58,-46.43 318.6,-37.21 322.23,-29.4"/>
<polygon fill="#63b8ff" stroke="#63b8ff" points="325.3,-31.1 326.46,-20.57 318.98,-28.08 325.3,-31.1"/>
</g>
<!-- Node23&#45;&gt;Node18 -->
<g id="edge31" class="edge">
<title>Node23&#45;&gt;Node18</title>
<path fill="none" stroke="#63b8ff" d="M311.29,-109.54C322.55,-100.87 336.87,-89.85 348.37,-81"/>
<polygon fill="#63b8ff" stroke="#63b8ff" points="350.24,-83.97 356.03,-75.1 345.97,-78.42 350.24,-83.97"/>
</g>
</g>
</svg>
