<?xml version="1.0" encoding="UTF-8" standalone="no"?>
<!DOCTYPE svg PUBLIC "-//W3C//DTD SVG 1.1//EN"
 "http://www.w3.org/Graphics/SVG/1.1/DTD/svg11.dtd">
<!-- Generated by graphviz version 7.0.5 (20221223.1930)
 -->
<!-- Title: maze_get_dir_from_to Pages: 1 -->
<svg width="272pt" height="64pt"
 viewBox="0.00 0.00 272.00 64.00" xmlns="http://www.w3.org/2000/svg" xmlns:xlink="http://www.w3.org/1999/xlink">
<g id="graph0" class="graph" transform="scale(1 1) rotate(0) translate(4 60)">
<title>maze_get_dir_from_to</title>
<!-- Node1 -->
<g id="node1" class="node">
<title>Node1</title>
<g id="a_node1"><a xlink:title="Get the direction from p_point_a to p_point_b if they are adjacent.">
<polygon fill="#999999" stroke="#666666" points="264,-37 151,-37 151,-18 264,-18 264,-37"/>
<text text-anchor="middle" x="207.5" y="-25" font-family="Helvetica,sans-Serif" font-size="10.00">maze_get_dir_from_to</text>
</a>
</g>
</g>
<!-- Node2 -->
<g id="node2" class="node">
<title>Node2</title>
<g id="a_node2"><a xlink:href="a__star_8c.html#aa93e473768652772f2577e1564b89d91" target="_top" xlink:title="Gets the string representation of the path from the start node to the end node.">
<polygon fill="white" stroke="#666666" points="109,-56 6,-56 6,-37 109,-37 109,-56"/>
<text text-anchor="middle" x="57.5" y="-44" font-family="Helvetica,sans-Serif" font-size="10.00">a_star_get_path_str</text>
</a>
</g>
</g>
<!-- Node1&#45;&gt;Node2 -->
<g id="edge1" class="edge">
<title>Node1&#45;&gt;Node2</title>
<path fill="none" stroke="#63b8ff" d="M139.25,-36.13C129.14,-37.43 118.86,-38.75 109.18,-39.99"/>
<polygon fill="#63b8ff" stroke="#63b8ff" points="139.57,-39.62 149.05,-34.88 138.68,-32.68 139.57,-39.62"/>
</g>
<!-- Node3 -->
<g id="node3" class="node">
<title>Node3</title>
<g id="a_node3"><a xlink:href="dfs_8c.html#ad895d09bb41bba4132541d5d17f7f4c0" target="_top" xlink:title="Conducts a depth first search on a maze.">
<polygon fill="white" stroke="#666666" points="115,-19 0,-19 0,0 115,0 115,-19"/>
<text text-anchor="middle" x="57.5" y="-7" font-family="Helvetica,sans-Serif" font-size="10.00">dfs_depth_first_search</text>
</a>
</g>
</g>
<!-- Node1&#45;&gt;Node3 -->
<g id="edge2" class="edge">
<title>Node1&#45;&gt;Node3</title>
<path fill="none" stroke="#63b8ff" d="M139.22,-19.32C131.13,-18.33 122.94,-17.34 115.02,-16.37"/>
<polygon fill="#63b8ff" stroke="#63b8ff" points="138.7,-22.78 149.05,-20.51 139.54,-15.83 138.7,-22.78"/>
</g>
</g>
</svg>
