<?xml version="1.0" encoding="UTF-8" standalone="no"?>
<!DOCTYPE svg PUBLIC "-//W3C//DTD SVG 1.1//EN"
 "http://www.w3.org/Graphics/SVG/1.1/DTD/svg11.dtd">
<!-- Generated by graphviz version 7.0.5 (20221223.1930)
 -->
<!-- Title: src/pathfinding/maze.c Pages: 1 -->
<svg width="352pt" height="137pt"
 viewBox="0.00 0.00 352.39 137.00" xmlns="http://www.w3.org/2000/svg" xmlns:xlink="http://www.w3.org/1999/xlink">
<g id="graph0" class="graph" transform="scale(1 1) rotate(0) translate(4 133)">
<title>src/pathfinding/maze.c</title>
<!-- Node1 -->
<g id="node1" class="node">
<title>Node1</title>
<g id="a_node1"><a xlink:title="Contains the implementation of utility maze functions.">
<polygon fill="#999999" stroke="#666666" points="233,-129 120,-129 120,-110 233,-110 233,-129"/>
<text text-anchor="middle" x="176.5" y="-117" font-family="Helvetica,sans-Serif" font-size="10.00">src/pathfinding/maze.c</text>
</a>
</g>
</g>
<!-- Node2 -->
<g id="node2" class="node">
<title>Node2</title>
<g id="a_node2"><a xlink:title=" ">
<polygon fill="#e0e0e0" stroke="#999999" points="45,-74 0,-74 0,-55 45,-55 45,-74"/>
<text text-anchor="middle" x="22.5" y="-62" font-family="Helvetica,sans-Serif" font-size="10.00">stdio.h</text>
</a>
</g>
</g>
<!-- Node1&#45;&gt;Node2 -->
<g id="edge1" class="edge">
<title>Node1&#45;&gt;Node2</title>
<path fill="none" stroke="#63b8ff" d="M150.38,-109.51C124.32,-100.54 84.18,-86.73 55.84,-76.97"/>
<polygon fill="#63b8ff" stroke="#63b8ff" points="57.26,-73.76 46.66,-73.82 54.98,-80.38 57.26,-73.76"/>
</g>
<!-- Node3 -->
<g id="node3" class="node">
<title>Node3</title>
<g id="a_node3"><a xlink:title=" ">
<polygon fill="#e0e0e0" stroke="#999999" points="110,-74 63,-74 63,-55 110,-55 110,-74"/>
<text text-anchor="middle" x="86.5" y="-62" font-family="Helvetica,sans-Serif" font-size="10.00">stdlib.h</text>
</a>
</g>
</g>
<!-- Node1&#45;&gt;Node3 -->
<g id="edge2" class="edge">
<title>Node1&#45;&gt;Node3</title>
<path fill="none" stroke="#63b8ff" d="M161.23,-109.51C147.57,-101.47 127.3,-89.53 111.32,-80.11"/>
<polygon fill="#63b8ff" stroke="#63b8ff" points="113.24,-77.18 102.85,-75.13 109.69,-83.22 113.24,-77.18"/>
</g>
<!-- Node4 -->
<g id="node4" class="node">
<title>Node4</title>
<g id="a_node4"><a xlink:title=" ">
<polygon fill="#e0e0e0" stroke="#999999" points="202.5,-19 154.5,-19 154.5,0 202.5,0 202.5,-19"/>
<text text-anchor="middle" x="178.5" y="-7" font-family="Helvetica,sans-Serif" font-size="10.00">stdint.h</text>
</a>
</g>
</g>
<!-- Node1&#45;&gt;Node4 -->
<g id="edge3" class="edge">
<title>Node1&#45;&gt;Node4</title>
<path fill="none" stroke="#63b8ff" d="M170.8,-109.56C163.71,-97.37 153.07,-74.76 157.5,-55 159.48,-46.15 163.43,-36.99 167.38,-29.29"/>
<polygon fill="#63b8ff" stroke="#63b8ff" points="170.41,-31.05 172.19,-20.6 164.28,-27.66 170.41,-31.05"/>
</g>
<!-- Node5 -->
<g id="node5" class="node">
<title>Node5</title>
<g id="a_node5"><a xlink:title=" ">
<polygon fill="#e0e0e0" stroke="#999999" points="279.5,-19 223.5,-19 223.5,0 279.5,0 279.5,-19"/>
<text text-anchor="middle" x="251.5" y="-7" font-family="Helvetica,sans-Serif" font-size="10.00">stdbool.h</text>
</a>
</g>
</g>
<!-- Node1&#45;&gt;Node5 -->
<g id="edge4" class="edge">
<title>Node1&#45;&gt;Node5</title>
<path fill="none" stroke="#63b8ff" d="M233.3,-110.41C274.96,-103.18 326.46,-91.08 339.5,-74 357.14,-50.89 321.54,-32.57 290.48,-21.66"/>
<polygon fill="#63b8ff" stroke="#63b8ff" points="291.8,-18.41 281.21,-18.59 289.6,-25.06 291.8,-18.41"/>
</g>
<!-- Node6 -->
<g id="node6" class="node">
<title>Node6</title>
<g id="a_node6"><a xlink:title=" ">
<polygon fill="#e0e0e0" stroke="#999999" points="330.5,-74 282.5,-74 282.5,-55 330.5,-55 330.5,-74"/>
<text text-anchor="middle" x="306.5" y="-62" font-family="Helvetica,sans-Serif" font-size="10.00">string.h</text>
</a>
</g>
</g>
<!-- Node1&#45;&gt;Node6 -->
<g id="edge5" class="edge">
<title>Node1&#45;&gt;Node6</title>
<path fill="none" stroke="#63b8ff" d="M198.55,-109.51C219.31,-101.04 250.66,-88.27 274.23,-78.66"/>
<polygon fill="#63b8ff" stroke="#63b8ff" points="275.43,-81.95 283.37,-74.93 272.79,-75.46 275.43,-81.95"/>
</g>
<!-- Node7 -->
<g id="node7" class="node">
<title>Node7</title>
<g id="a_node7"><a xlink:href="maze_8h.html" target="_top" xlink:title="Header file for the maze data structure and public functions.">
<polygon fill="white" stroke="#666666" points="264,-74 167,-74 167,-55 264,-55 264,-74"/>
<text text-anchor="middle" x="215.5" y="-62" font-family="Helvetica,sans-Serif" font-size="10.00">pathfinding/maze.h</text>
</a>
</g>
</g>
<!-- Node1&#45;&gt;Node7 -->
<g id="edge6" class="edge">
<title>Node1&#45;&gt;Node7</title>
<path fill="none" stroke="#63b8ff" d="M182.94,-109.75C188.16,-102.66 195.69,-92.42 202.19,-83.59"/>
<polygon fill="#63b8ff" stroke="#63b8ff" points="204.92,-85.79 208.02,-75.66 199.28,-81.64 204.92,-85.79"/>
</g>
<!-- Node7&#45;&gt;Node4 -->
<g id="edge7" class="edge">
<title>Node7&#45;&gt;Node4</title>
<path fill="none" stroke="#63b8ff" d="M209.39,-54.75C204.49,-47.73 197.45,-37.64 191.33,-28.87"/>
<polygon fill="#63b8ff" stroke="#63b8ff" points="194.2,-26.88 185.61,-20.68 188.46,-30.89 194.2,-26.88"/>
</g>
<!-- Node7&#45;&gt;Node5 -->
<g id="edge8" class="edge">
<title>Node7&#45;&gt;Node5</title>
<path fill="none" stroke="#63b8ff" d="M221.44,-54.75C226.21,-47.73 233.06,-37.64 239.02,-28.87"/>
<polygon fill="#63b8ff" stroke="#63b8ff" points="241.85,-30.93 244.58,-20.69 236.06,-27 241.85,-30.93"/>
</g>
</g>
</svg>
