<?xml version="1.0" encoding="UTF-8" standalone="no"?>
<!DOCTYPE svg PUBLIC "-//W3C//DTD SVG 1.1//EN"
 "http://www.w3.org/Graphics/SVG/1.1/DTD/svg11.dtd">
<!-- Generated by graphviz version 7.0.5 (20221223.1930)
 -->
<!-- Title: maze_uint16_to_uint8_buffer Pages: 1 -->
<svg width="418pt" height="77pt"
 viewBox="0.00 0.00 418.00 77.25" xmlns="http://www.w3.org/2000/svg" xmlns:xlink="http://www.w3.org/1999/xlink">
<g id="graph0" class="graph" transform="scale(1 1) rotate(0) translate(4 73.25)">
<title>maze_uint16_to_uint8_buffer</title>
<!-- Node1 -->
<g id="node1" class="node">
<title>Node1</title>
<g id="a_node1"><a xlink:title="Helper function to convert a uint16_t to a uint8_t buffer.">
<polygon fill="#999999" stroke="#666666" points="410,-61.5 299,-61.5 299,-31.5 410,-31.5 410,-61.5"/>
<text text-anchor="start" x="307" y="-49.5" font-family="Helvetica,sans-Serif" font-size="10.00">maze_uint16_to_uint8</text>
<text text-anchor="middle" x="354.5" y="-38.5" font-family="Helvetica,sans-Serif" font-size="10.00">_buffer</text>
</a>
</g>
</g>
<!-- Node2 -->
<g id="node2" class="node">
<title>Node2</title>
<g id="a_node2"><a xlink:href="a__star_8c.html#a0467d77650c85f7690212ed6d3c5a2e3" target="_top" xlink:title="Inserts the maze, path and navigator state into a buffer.">
<polygon fill="white" stroke="#666666" points="117,-61.5 0,-61.5 0,-31.5 117,-31.5 117,-61.5"/>
<text text-anchor="start" x="8" y="-49.5" font-family="Helvetica,sans-Serif" font-size="10.00">a_star_maze_path_nav</text>
<text text-anchor="middle" x="58.5" y="-38.5" font-family="Helvetica,sans-Serif" font-size="10.00">_to_buffer</text>
</a>
</g>
</g>
<!-- Node1&#45;&gt;Node2 -->
<g id="edge1" class="edge">
<title>Node1&#45;&gt;Node2</title>
<path fill="none" stroke="#63b8ff" d="M287.61,-61.98C279.36,-63.43 271.01,-64.67 263,-65.5 214.37,-70.55 201.64,-70.39 153,-65.5 141.3,-64.32 128.9,-62.34 117.08,-60.08"/>
<polygon fill="#63b8ff" stroke="#63b8ff" points="288.08,-65.46 297.26,-60.17 286.79,-58.58 288.08,-65.46"/>
</g>
<!-- Node3 -->
<g id="node3" class="node">
<title>Node3</title>
<g id="a_node3"><a xlink:href="a__star_8c.html#ac106312a2e54f3fcfbc7b8f9893bb9c6" target="_top" xlink:title="Inserts the path in coordinates from the start node to the end node into a buffer.">
<polygon fill="white" stroke="#666666" points="263,-56 153,-56 153,-37 263,-37 263,-56"/>
<text text-anchor="middle" x="208" y="-44" font-family="Helvetica,sans-Serif" font-size="10.00">a_star_path_to_buffer</text>
</a>
</g>
</g>
<!-- Node1&#45;&gt;Node3 -->
<g id="edge2" class="edge">
<title>Node1&#45;&gt;Node3</title>
<path fill="none" stroke="#63b8ff" d="M287.5,-46.5C279.38,-46.5 271.15,-46.5 263.23,-46.5"/>
<polygon fill="#63b8ff" stroke="#63b8ff" points="287.36,-50 297.36,-46.5 287.36,-43 287.36,-50"/>
</g>
<!-- Node4 -->
<g id="node4" class="node">
<title>Node4</title>
<g id="a_node4"><a xlink:href="maze_8c.html#a39f5fccadb0b4834e38f62f3f11ad270" target="_top" xlink:title="Serialises the navigator state into a uint8_t buffer. The buffer is set with the navigator&#39;s coordina...">
<polygon fill="white" stroke="#666666" points="260,-19 156,-19 156,0 260,0 260,-19"/>
<text text-anchor="middle" x="208" y="-7" font-family="Helvetica,sans-Serif" font-size="10.00">maze_nav_to_buffer</text>
</a>
</g>
</g>
<!-- Node1&#45;&gt;Node4 -->
<g id="edge4" class="edge">
<title>Node1&#45;&gt;Node4</title>
<path fill="none" stroke="#63b8ff" d="M288,-29.73C274.32,-26.22 260.31,-22.64 247.96,-19.47"/>
<polygon fill="#63b8ff" stroke="#63b8ff" points="286.85,-33.05 297.4,-32.14 288.59,-26.27 286.85,-33.05"/>
</g>
<!-- Node3&#45;&gt;Node2 -->
<g id="edge3" class="edge">
<title>Node3&#45;&gt;Node2</title>
<path fill="none" stroke="#63b8ff" d="M141.52,-46.5C133.36,-46.5 125.07,-46.5 117.05,-46.5"/>
<polygon fill="#63b8ff" stroke="#63b8ff" points="141.4,-50 151.4,-46.5 141.4,-43 141.4,-50"/>
</g>
<!-- Node4&#45;&gt;Node2 -->
<g id="edge5" class="edge">
<title>Node4&#45;&gt;Node2</title>
<path fill="none" stroke="#63b8ff" d="M156.68,-22.12C144.06,-25.29 130.41,-28.71 117.45,-31.96"/>
<polygon fill="#63b8ff" stroke="#63b8ff" points="157.16,-25.61 166,-19.78 155.45,-18.82 157.16,-25.61"/>
</g>
</g>
</svg>
