<?xml version="1.0" encoding="UTF-8" standalone="no"?>
<!DOCTYPE svg PUBLIC "-//W3C//DTD SVG 1.1//EN"
 "http://www.w3.org/Graphics/SVG/1.1/DTD/svg11.dtd">
<!-- Generated by graphviz version 7.0.5 (20221223.1930)
 -->
<!-- Title: maze_get_cell_at_coords Pages: 1 -->
<svg width="406pt" height="38pt"
 viewBox="0.00 0.00 406.00 38.00" xmlns="http://www.w3.org/2000/svg" xmlns:xlink="http://www.w3.org/1999/xlink">
<g id="graph0" class="graph" transform="scale(1 1) rotate(0) translate(4 34)">
<title>maze_get_cell_at_coords</title>
<!-- Node1 -->
<g id="node1" class="node">
<title>Node1</title>
<g id="a_node1"><a xlink:title="Get the cell at the specified coordinates.">
<polygon fill="#999999" stroke="#666666" points="398,-24.5 271,-24.5 271,-5.5 398,-5.5 398,-24.5"/>
<text text-anchor="middle" x="334.5" y="-12.5" font-family="Helvetica,sans-Serif" font-size="10.00">maze_get_cell_at_coords</text>
</a>
</g>
</g>
<!-- Node2 -->
<g id="node2" class="node">
<title>Node2</title>
<g id="a_node2"><a xlink:href="maze_8c.html#a2b467ddfd914550a22224fa6be60f14f" target="_top" xlink:title="Get the cell in the specified direction from a specific cell.">
<polygon fill="white" stroke="#666666" points="235,-24.5 128,-24.5 128,-5.5 235,-5.5 235,-24.5"/>
<text text-anchor="middle" x="181.5" y="-12.5" font-family="Helvetica,sans-Serif" font-size="10.00">maze_get_cell_in_dir</text>
</a>
</g>
</g>
<!-- Node1&#45;&gt;Node2 -->
<g id="edge1" class="edge">
<title>Node1&#45;&gt;Node2</title>
<path fill="none" stroke="#63b8ff" d="M259.31,-15C251.17,-15 243,-15 235.2,-15"/>
<polygon fill="#63b8ff" stroke="#63b8ff" points="259.26,-18.5 269.26,-15 259.26,-11.5 259.26,-18.5"/>
</g>
<!-- Node3 -->
<g id="node3" class="node">
<title>Node3</title>
<g id="a_node3"><a xlink:href="floodfill_8c.html#a921aecf0c7109fefa4e4edffc7c5c0db" target="_top" xlink:title="This function initialises a maze with no walls to perform the floodfill algorithm on.">
<polygon fill="white" stroke="#666666" points="92,-30 0,-30 0,0 92,0 92,-30"/>
<text text-anchor="start" x="8" y="-18" font-family="Helvetica,sans-Serif" font-size="10.00">floodfill_init_maze</text>
<text text-anchor="middle" x="46" y="-7" font-family="Helvetica,sans-Serif" font-size="10.00">_nowall</text>
</a>
</g>
</g>
<!-- Node2&#45;&gt;Node3 -->
<g id="edge2" class="edge">
<title>Node2&#45;&gt;Node3</title>
<path fill="none" stroke="#63b8ff" d="M116.4,-15C108.32,-15 100.19,-15 92.48,-15"/>
<polygon fill="#63b8ff" stroke="#63b8ff" points="116.22,-18.5 126.22,-15 116.22,-11.5 116.22,-18.5"/>
</g>
</g>
</svg>
