<?xml version="1.0" encoding="UTF-8" standalone="no"?>
<!DOCTYPE svg PUBLIC "-//W3C//DTD SVG 1.1//EN"
 "http://www.w3.org/Graphics/SVG/1.1/DTD/svg11.dtd">
<!-- Generated by graphviz version 7.0.5 (20221223.1930)
 -->
<!-- Title: src/pathfinding/maze.h Pages: 1 -->
<svg width="1384pt" height="214pt"
 viewBox="0.00 0.00 1384.00 214.00" xmlns="http://www.w3.org/2000/svg" xmlns:xlink="http://www.w3.org/1999/xlink">
<g id="graph0" class="graph" transform="scale(1 1) rotate(0) translate(4 210)">
<title>src/pathfinding/maze.h</title>
<!-- Node1 -->
<g id="node1" class="node">
<title>Node1</title>
<g id="a_node1"><a xlink:title="Header file for the maze data structure and public functions.">
<polygon fill="#999999" stroke="#666666" points="635,-206 522,-206 522,-187 635,-187 635,-206"/>
<text text-anchor="middle" x="578.5" y="-194" font-family="Helvetica,sans-Serif" font-size="10.00">src/pathfinding/maze.h</text>
</a>
</g>
</g>
<!-- Node2 -->
<g id="node2" class="node">
<title>Node2</title>
<g id="a_node2"><a xlink:href="pid_8c.html" target="_top" xlink:title=" ">
<polygon fill="white" stroke="#666666" points="101,-79.5 0,-79.5 0,-60.5 101,-60.5 101,-79.5"/>
<text text-anchor="middle" x="50.5" y="-67.5" font-family="Helvetica,sans-Serif" font-size="10.00">src/drivers/pid/pid.c</text>
</a>
</g>
</g>
<!-- Node1&#45;&gt;Node2 -->
<g id="edge1" class="edge">
<title>Node1&#45;&gt;Node2</title>
<path fill="none" stroke="#63b8ff" d="M510.39,-193.92C379.36,-190.25 102.16,-179.21 69.5,-151 48.65,-132.99 48.44,-96.67 49.6,-79.88"/>
<polygon fill="#63b8ff" stroke="#63b8ff" points="510.24,-197.42 520.33,-194.19 510.43,-190.42 510.24,-197.42"/>
</g>
<!-- Node3 -->
<g id="node3" class="node">
<title>Node3</title>
<g id="a_node3"><a xlink:href="pid_8h.html" target="_top" xlink:title=" ">
<polygon fill="white" stroke="#666666" points="180,-145.5 79,-145.5 79,-126.5 180,-126.5 180,-145.5"/>
<text text-anchor="middle" x="129.5" y="-133.5" font-family="Helvetica,sans-Serif" font-size="10.00">src/drivers/pid/pid.h</text>
</a>
</g>
</g>
<!-- Node1&#45;&gt;Node3 -->
<g id="edge2" class="edge">
<title>Node1&#45;&gt;Node3</title>
<path fill="none" stroke="#63b8ff" d="M510.22,-189.6C433.21,-182.48 304.4,-169.16 194.5,-151 185.96,-149.59 176.84,-147.8 168.22,-145.98"/>
<polygon fill="#63b8ff" stroke="#63b8ff" points="509.87,-193.08 520.15,-190.51 510.51,-186.11 509.87,-193.08"/>
</g>
<!-- Node5 -->
<g id="node5" class="node">
<title>Node5</title>
<g id="a_node5"><a xlink:href="a__star_8c.html" target="_top" xlink:title="Source file for the implementation of the a* algorithm.">
<polygon fill="white" stroke="#666666" points="436,-19 319,-19 319,0 436,0 436,-19"/>
<text text-anchor="middle" x="377.5" y="-7" font-family="Helvetica,sans-Serif" font-size="10.00">src/pathfinding/a_star.c</text>
</a>
</g>
</g>
<!-- Node1&#45;&gt;Node5 -->
<g id="edge5" class="edge">
<title>Node1&#45;&gt;Node5</title>
<path fill="none" stroke="#63b8ff" d="M510.09,-195.4C433.1,-190.98 312.73,-169.98 266.5,-85 260.13,-73.29 259.03,-66.04 266.5,-55 278.95,-36.6 300.38,-25.81 321.11,-19.48"/>
<polygon fill="#63b8ff" stroke="#63b8ff" points="509.92,-198.89 520.08,-195.88 510.26,-191.9 509.92,-198.89"/>
</g>
<!-- Node6 -->
<g id="node6" class="node">
<title>Node6</title>
<g id="a_node6"><a xlink:href="a__star_8h.html" target="_top" xlink:title="Header file for the a* algorithm.">
<polygon fill="white" stroke="#666666" points="392,-79.5 275,-79.5 275,-60.5 392,-60.5 392,-79.5"/>
<text text-anchor="middle" x="333.5" y="-67.5" font-family="Helvetica,sans-Serif" font-size="10.00">src/pathfinding/a_star.h</text>
</a>
</g>
</g>
<!-- Node1&#45;&gt;Node6 -->
<g id="edge6" class="edge">
<title>Node1&#45;&gt;Node6</title>
<path fill="none" stroke="#63b8ff" d="M510.87,-187.26C477.64,-180.98 438.07,-170.02 406.5,-151 375.42,-132.28 349.71,-96.31 338.94,-79.75"/>
<polygon fill="#63b8ff" stroke="#63b8ff" points="509.92,-190.64 520.38,-188.95 511.15,-183.75 509.92,-190.64"/>
</g>
<!-- Node7 -->
<g id="node7" class="node">
<title>Node7</title>
<g id="a_node7"><a xlink:href="navigation__tests_8c.html" target="_top" xlink:title="Tests the combined navigational functions.">
<polygon fill="white" stroke="#666666" points="682.5,-19 562.5,-19 562.5,0 682.5,0 682.5,-19"/>
<text text-anchor="middle" x="622.5" y="-7" font-family="Helvetica,sans-Serif" font-size="10.00">tests/navigation_tests.c</text>
</a>
</g>
</g>
<!-- Node1&#45;&gt;Node7 -->
<g id="edge35" class="edge">
<title>Node1&#45;&gt;Node7</title>
<path fill="none" stroke="#63b8ff" d="M546.34,-181.99C493.87,-158.04 399.51,-105.87 439.5,-55 454.65,-35.72 514.88,-23.76 562.15,-17.15"/>
<polygon fill="#63b8ff" stroke="#63b8ff" points="544.9,-185.17 555.45,-186.04 547.74,-178.78 544.9,-185.17"/>
</g>
<!-- Node8 -->
<g id="node8" class="node">
<title>Node8</title>
<g id="a_node8"><a xlink:href="pathfinding__tests_8c.html" target="_top" xlink:title="This file contains the tests for the A* pathfinding algorithm.">
<polygon fill="white" stroke="#666666" points="300.5,-19 178.5,-19 178.5,0 300.5,0 300.5,-19"/>
<text text-anchor="middle" x="239.5" y="-7" font-family="Helvetica,sans-Serif" font-size="10.00">tests/pathfinding_tests.c</text>
</a>
</g>
</g>
<!-- Node1&#45;&gt;Node8 -->
<g id="edge36" class="edge">
<title>Node1&#45;&gt;Node8</title>
<path fill="none" stroke="#63b8ff" d="M510.11,-191.77C436.89,-186.6 326.64,-175.01 292.5,-151 247.72,-119.51 240.74,-45.14 239.68,-19.43"/>
<polygon fill="#63b8ff" stroke="#63b8ff" points="509.8,-195.26 520.01,-192.45 510.27,-188.28 509.8,-195.26"/>
</g>
<!-- Node9 -->
<g id="node9" class="node">
<title>Node9</title>
<g id="a_node9"><a xlink:href="binary__heap_8c.html" target="_top" xlink:title="Source file for the binary min&#45;heap used in the a* algorithm and floodfill algorithm.">
<polygon fill="white" stroke="#666666" points="556.5,-85 448.5,-85 448.5,-55 556.5,-55 556.5,-85"/>
<text text-anchor="start" x="456.5" y="-73" font-family="Helvetica,sans-Serif" font-size="10.00">src/pathfinding/binary</text>
<text text-anchor="middle" x="502.5" y="-62" font-family="Helvetica,sans-Serif" font-size="10.00">_heap.c</text>
</a>
</g>
</g>
<!-- Node1&#45;&gt;Node9 -->
<g id="edge11" class="edge">
<title>Node1&#45;&gt;Node9</title>
<path fill="none" stroke="#63b8ff" d="M548.58,-181.12C536.43,-173.78 523.43,-163.69 515.5,-151 502.9,-130.83 501.27,-102.43 501.62,-85.45"/>
<polygon fill="#63b8ff" stroke="#63b8ff" points="546.69,-184.07 557.12,-185.9 550.1,-177.96 546.69,-184.07"/>
</g>
<!-- Node10 -->
<g id="node10" class="node">
<title>Node10</title>
<g id="a_node10"><a xlink:href="binary__heap_8h.html" target="_top" xlink:title="This file contains the declarations for the binary min&#45;heap used in the a* algorithm.">
<polygon fill="white" stroke="#666666" points="632.5,-151 524.5,-151 524.5,-121 632.5,-121 632.5,-151"/>
<text text-anchor="start" x="532.5" y="-139" font-family="Helvetica,sans-Serif" font-size="10.00">src/pathfinding/binary</text>
<text text-anchor="middle" x="578.5" y="-128" font-family="Helvetica,sans-Serif" font-size="10.00">_heap.h</text>
</a>
</g>
</g>
<!-- Node1&#45;&gt;Node10 -->
<g id="edge12" class="edge">
<title>Node1&#45;&gt;Node10</title>
<path fill="none" stroke="#63b8ff" d="M578.5,-175.51C578.5,-167.49 578.5,-158.43 578.5,-151.11"/>
<polygon fill="#63b8ff" stroke="#63b8ff" points="575,-175.35 578.5,-185.35 582,-175.35 575,-175.35"/>
</g>
<!-- Node11 -->
<g id="node11" class="node">
<title>Node11</title>
<g id="a_node11"><a xlink:href="dfs_8c.html" target="_top" xlink:title="Runs the depth first search algorithm on a maze.">
<polygon fill="white" stroke="#666666" points="901.5,-19 797.5,-19 797.5,0 901.5,0 901.5,-19"/>
<text text-anchor="middle" x="849.5" y="-7" font-family="Helvetica,sans-Serif" font-size="10.00">src/pathfinding/dfs.c</text>
</a>
</g>
</g>
<!-- Node1&#45;&gt;Node11 -->
<g id="edge19" class="edge">
<title>Node1&#45;&gt;Node11</title>
<path fill="none" stroke="#63b8ff" d="M603.18,-180.4C615.34,-172.39 629.84,-161.97 641.5,-151 681.34,-113.52 673.7,-86.38 718.5,-55 743.78,-37.29 776.69,-26.15 803.19,-19.44"/>
<polygon fill="#63b8ff" stroke="#63b8ff" points="601.45,-177.35 594.92,-185.69 605.23,-183.24 601.45,-177.35"/>
</g>
<!-- Node12 -->
<g id="node12" class="node">
<title>Node12</title>
<g id="a_node12"><a xlink:href="floodfill_8c.html" target="_top" xlink:title="This file contains the implementation of the floodfill algorithm for mapping the maze and determining...">
<polygon fill="white" stroke="#666666" points="846,-79.5 727,-79.5 727,-60.5 846,-60.5 846,-79.5"/>
<text text-anchor="middle" x="786.5" y="-67.5" font-family="Helvetica,sans-Serif" font-size="10.00">src/pathfinding/floodfill.c</text>
</a>
</g>
</g>
<!-- Node1&#45;&gt;Node12 -->
<g id="edge24" class="edge">
<title>Node1&#45;&gt;Node12</title>
<path fill="none" stroke="#63b8ff" d="M611.3,-182.1C630.22,-173.94 654.19,-162.82 674.5,-151 713.53,-128.28 755.98,-95.5 775.52,-79.9"/>
<polygon fill="#63b8ff" stroke="#63b8ff" points="610.05,-178.83 602.21,-185.96 612.79,-185.28 610.05,-178.83"/>
</g>
<!-- Node13 -->
<g id="node13" class="node">
<title>Node13</title>
<g id="a_node13"><a xlink:href="dfs__tests_8c.html" target="_top" xlink:title="This file containst the functions that test the depth first search algorithm with a simulated navigat...">
<polygon fill="white" stroke="#666666" points="1058,-19 969,-19 969,0 1058,0 1058,-19"/>
<text text-anchor="middle" x="1013.5" y="-7" font-family="Helvetica,sans-Serif" font-size="10.00">tests/dfs_tests.c</text>
</a>
</g>
</g>
<!-- Node1&#45;&gt;Node13 -->
<g id="edge33" class="edge">
<title>Node1&#45;&gt;Node13</title>
<path fill="none" stroke="#63b8ff" d="M646.9,-195.47C798.49,-193.66 1154.16,-179.27 1215.5,-85 1253.52,-26.57 1128.94,-13.74 1058.49,-11.07"/>
<polygon fill="#63b8ff" stroke="#63b8ff" points="646.95,-191.97 636.99,-195.57 647.03,-198.97 646.95,-191.97"/>
</g>
<!-- Node14 -->
<g id="node14" class="node">
<title>Node14</title>
<g id="a_node14"><a xlink:href="dfs_8h.html" target="_top" xlink:title="Header file for the depth first search algorithm for mapping the maze.">
<polygon fill="white" stroke="#666666" points="1006.5,-79.5 902.5,-79.5 902.5,-60.5 1006.5,-60.5 1006.5,-79.5"/>
<text text-anchor="middle" x="954.5" y="-67.5" font-family="Helvetica,sans-Serif" font-size="10.00">src/pathfinding/dfs.h</text>
</a>
</g>
</g>
<!-- Node1&#45;&gt;Node14 -->
<g id="edge20" class="edge">
<title>Node1&#45;&gt;Node14</title>
<path fill="none" stroke="#63b8ff" d="M616.01,-183.08C691.77,-158 861.4,-101.83 927.45,-79.96"/>
<polygon fill="#63b8ff" stroke="#63b8ff" points="615.37,-179.6 606.98,-186.07 617.57,-186.25 615.37,-179.6"/>
</g>
<!-- Node15 -->
<g id="node15" class="node">
<title>Node15</title>
<g id="a_node15"><a xlink:href="floodfill_8h.html" target="_top" xlink:title="This file contains the function prototypes for the floodfill algorithm for mapping of the maze.">
<polygon fill="white" stroke="#666666" points="1014,-145.5 895,-145.5 895,-126.5 1014,-126.5 1014,-145.5"/>
<text text-anchor="middle" x="954.5" y="-133.5" font-family="Helvetica,sans-Serif" font-size="10.00">src/pathfinding/floodfill.h</text>
</a>
</g>
</g>
<!-- Node1&#45;&gt;Node15 -->
<g id="edge25" class="edge">
<title>Node1&#45;&gt;Node15</title>
<path fill="none" stroke="#63b8ff" d="M646.32,-184.95C717.82,-173.82 829.26,-156.49 896.72,-145.99"/>
<polygon fill="#63b8ff" stroke="#63b8ff" points="646.04,-181.45 636.69,-186.45 647.11,-188.37 646.04,-181.45"/>
</g>
<!-- Node16 -->
<g id="node16" class="node">
<title>Node16</title>
<g id="a_node16"><a xlink:href="floodfill__tests_8c.html" target="_top" xlink:title="This file contains the tests for the floodfill algorithm.">
<polygon fill="white" stroke="#666666" points="1206,-79.5 1101,-79.5 1101,-60.5 1206,-60.5 1206,-79.5"/>
<text text-anchor="middle" x="1153.5" y="-67.5" font-family="Helvetica,sans-Serif" font-size="10.00">tests/floodfill_tests.c</text>
</a>
</g>
</g>
<!-- Node1&#45;&gt;Node16 -->
<g id="edge34" class="edge">
<title>Node1&#45;&gt;Node16</title>
<path fill="none" stroke="#63b8ff" d="M646.48,-192.43C753.34,-186.99 955.45,-173.98 1023.5,-151 1072.21,-134.55 1121.75,-97.09 1142.89,-79.91"/>
<polygon fill="#63b8ff" stroke="#63b8ff" points="646.52,-188.93 636.71,-192.92 646.87,-195.92 646.52,-188.93"/>
</g>
<!-- Node17 -->
<g id="node17" class="node">
<title>Node17</title>
<g id="a_node17"><a xlink:href="maze_8c.html" target="_top" xlink:title="Contains the implementation of utility maze functions.">
<polygon fill="white" stroke="#666666" points="1376,-145.5 1263,-145.5 1263,-126.5 1376,-126.5 1376,-145.5"/>
<text text-anchor="middle" x="1319.5" y="-133.5" font-family="Helvetica,sans-Serif" font-size="10.00">src/pathfinding/maze.c</text>
</a>
</g>
</g>
<!-- Node1&#45;&gt;Node17 -->
<g id="edge32" class="edge">
<title>Node1&#45;&gt;Node17</title>
<path fill="none" stroke="#63b8ff" d="M646.51,-193.87C767.88,-190.31 1029.59,-179.73 1248.5,-151 1258.34,-149.71 1268.87,-147.88 1278.72,-145.97"/>
<polygon fill="#63b8ff" stroke="#63b8ff" points="646.62,-190.36 636.72,-194.14 646.82,-197.36 646.62,-190.36"/>
</g>
<!-- Node3&#45;&gt;Node2 -->
<g id="edge3" class="edge">
<title>Node3&#45;&gt;Node2</title>
<path fill="none" stroke="#63b8ff" d="M109.8,-119.04C94.5,-106.64 73.85,-89.92 61.39,-79.82"/>
<polygon fill="#63b8ff" stroke="#63b8ff" points="107.37,-121.57 117.34,-125.15 111.77,-116.13 107.37,-121.57"/>
</g>
<!-- Node4 -->
<g id="node4" class="node">
<title>Node4</title>
<g id="a_node4"><a xlink:href="main_8c.html" target="_top" xlink:title="The main source file for robot control.">
<polygon fill="white" stroke="#666666" points="160.5,-19 98.5,-19 98.5,0 160.5,0 160.5,-19"/>
<text text-anchor="middle" x="129.5" y="-7" font-family="Helvetica,sans-Serif" font-size="10.00">src/main.c</text>
</a>
</g>
</g>
<!-- Node3&#45;&gt;Node4 -->
<g id="edge4" class="edge">
<title>Node3&#45;&gt;Node4</title>
<path fill="none" stroke="#63b8ff" d="M129.5,-114.7C129.5,-87.15 129.5,-39.13 129.5,-19.37"/>
<polygon fill="#63b8ff" stroke="#63b8ff" points="126,-114.53 129.5,-124.53 133,-114.53 126,-114.53"/>
</g>
<!-- Node6&#45;&gt;Node4 -->
<g id="edge7" class="edge">
<title>Node6&#45;&gt;Node4</title>
<path fill="none" stroke="#63b8ff" d="M291.58,-56.98C252.72,-45.84 195.79,-29.51 160.77,-19.47"/>
<polygon fill="#63b8ff" stroke="#63b8ff" points="290.48,-60.31 301.06,-59.7 292.41,-53.58 290.48,-60.31"/>
</g>
<!-- Node6&#45;&gt;Node5 -->
<g id="edge8" class="edge">
<title>Node6&#45;&gt;Node5</title>
<path fill="none" stroke="#63b8ff" d="M346.68,-51.48C354.7,-40.81 364.6,-27.65 370.98,-19.17"/>
<polygon fill="#63b8ff" stroke="#63b8ff" points="344.12,-49.06 340.9,-59.16 349.71,-53.27 344.12,-49.06"/>
</g>
<!-- Node6&#45;&gt;Node7 -->
<g id="edge9" class="edge">
<title>Node6&#45;&gt;Node7</title>
<path fill="none" stroke="#63b8ff" d="M388.67,-57.83C443.78,-46.68 527.41,-29.75 578.3,-19.45"/>
<polygon fill="#63b8ff" stroke="#63b8ff" points="388.3,-54.34 379.19,-59.75 389.69,-61.2 388.3,-54.34"/>
</g>
<!-- Node6&#45;&gt;Node8 -->
<g id="edge10" class="edge">
<title>Node6&#45;&gt;Node8</title>
<path fill="none" stroke="#63b8ff" d="M309.65,-54.16C292.07,-43.22 268.73,-28.69 253.91,-19.47"/>
<polygon fill="#63b8ff" stroke="#63b8ff" points="307.6,-57 317.94,-59.32 311.3,-51.06 307.6,-57"/>
</g>
<!-- Node10&#45;&gt;Node5 -->
<g id="edge13" class="edge">
<title>Node10&#45;&gt;Node5</title>
<path fill="none" stroke="#63b8ff" d="M581.19,-109.14C581.52,-91.69 578.84,-69.32 565.5,-55 548.07,-36.28 484.69,-24.07 436.3,-17.26"/>
<polygon fill="#63b8ff" stroke="#63b8ff" points="577.7,-108.84 580.63,-119.02 584.69,-109.24 577.7,-108.84"/>
</g>
<!-- Node10&#45;&gt;Node6 -->
<g id="edge14" class="edge">
<title>Node10&#45;&gt;Node6</title>
<path fill="none" stroke="#63b8ff" d="M513.17,-117.93C466.38,-105.71 405.25,-89.74 367.72,-79.94"/>
<polygon fill="#63b8ff" stroke="#63b8ff" points="512.1,-121.27 522.66,-120.41 513.87,-114.5 512.1,-121.27"/>
</g>
<!-- Node10&#45;&gt;Node9 -->
<g id="edge15" class="edge">
<title>Node10&#45;&gt;Node9</title>
<path fill="none" stroke="#63b8ff" d="M552.88,-113.42C541.91,-104.18 529.39,-93.65 519.58,-85.39"/>
<polygon fill="#63b8ff" stroke="#63b8ff" points="550.57,-116.06 560.48,-119.82 555.08,-110.7 550.57,-116.06"/>
</g>
<!-- Node10&#45;&gt;Node11 -->
<g id="edge16" class="edge">
<title>Node10&#45;&gt;Node11</title>
<path fill="none" stroke="#63b8ff" d="M592.71,-111.02C604.74,-92.84 623.67,-68.72 646.5,-55 692.74,-27.22 754.2,-16.71 797.34,-12.77"/>
<polygon fill="#63b8ff" stroke="#63b8ff" points="589.8,-109.07 587.4,-119.38 595.72,-112.81 589.8,-109.07"/>
</g>
<!-- Node10&#45;&gt;Node12 -->
<g id="edge17" class="edge">
<title>Node10&#45;&gt;Node12</title>
<path fill="none" stroke="#63b8ff" d="M636.22,-117.24C675.6,-105.12 726.1,-89.59 757.37,-79.96"/>
<polygon fill="#63b8ff" stroke="#63b8ff" points="635.41,-113.83 626.89,-120.11 637.47,-120.52 635.41,-113.83"/>
</g>
<!-- Node10&#45;&gt;Node13 -->
<g id="edge18" class="edge">
<title>Node10&#45;&gt;Node13</title>
<path fill="none" stroke="#63b8ff" d="M607.56,-114.11C634.85,-95.55 677.52,-69.24 718.5,-55 763.82,-39.25 898.02,-22.99 968.74,-15.21"/>
<polygon fill="#63b8ff" stroke="#63b8ff" points="605.71,-111.13 599.47,-119.69 609.69,-116.89 605.71,-111.13"/>
</g>
<!-- Node14&#45;&gt;Node7 -->
<g id="edge23" class="edge">
<title>Node14&#45;&gt;Node7</title>
<path fill="none" stroke="#63b8ff" d="M902.64,-57.78C897.86,-56.81 893.1,-55.87 888.5,-55 817.08,-41.46 734.46,-27.97 680.48,-19.46"/>
<polygon fill="#63b8ff" stroke="#63b8ff" points="901.73,-61.16 912.23,-59.76 903.15,-54.31 901.73,-61.16"/>
</g>
<!-- Node14&#45;&gt;Node11 -->
<g id="edge21" class="edge">
<title>Node14&#45;&gt;Node11</title>
<path fill="none" stroke="#63b8ff" d="M928.68,-54.61C908.95,-43.62 882.38,-28.82 865.6,-19.47"/>
<polygon fill="#63b8ff" stroke="#63b8ff" points="926.79,-57.57 937.23,-59.38 930.2,-51.45 926.79,-57.57"/>
</g>
<!-- Node14&#45;&gt;Node13 -->
<g id="edge22" class="edge">
<title>Node14&#45;&gt;Node13</title>
<path fill="none" stroke="#63b8ff" d="M971.36,-52.28C982.13,-41.6 995.67,-28.17 1004.45,-19.47"/>
<polygon fill="#63b8ff" stroke="#63b8ff" points="969.17,-49.52 964.54,-59.05 974.1,-54.49 969.17,-49.52"/>
</g>
<!-- Node15&#45;&gt;Node7 -->
<g id="edge31" class="edge">
<title>Node15&#45;&gt;Node7</title>
<path fill="none" stroke="#63b8ff" d="M935.22,-119.22C907.06,-96.21 857.79,-56.06 855.5,-55 800.39,-29.45 731.44,-18.57 682.89,-13.93"/>
<polygon fill="#63b8ff" stroke="#63b8ff" points="932.73,-121.71 942.68,-125.33 937.16,-116.29 932.73,-121.71"/>
</g>
<!-- Node15&#45;&gt;Node11 -->
<g id="edge26" class="edge">
<title>Node15&#45;&gt;Node11</title>
<path fill="none" stroke="#63b8ff" d="M979.77,-119.87C1003.45,-103.76 1032.8,-77.55 1015.5,-55 1001.61,-36.89 945.03,-24.53 901.75,-17.52"/>
<polygon fill="#63b8ff" stroke="#63b8ff" points="977.89,-116.92 971.39,-125.29 981.69,-122.79 977.89,-116.92"/>
</g>
<!-- Node15&#45;&gt;Node12 -->
<g id="edge28" class="edge">
<title>Node15&#45;&gt;Node12</title>
<path fill="none" stroke="#63b8ff" d="M920.66,-122.11C887.78,-109.58 838.72,-90.89 809.93,-79.93"/>
<polygon fill="#63b8ff" stroke="#63b8ff" points="919.14,-125.27 929.73,-125.56 921.63,-118.73 919.14,-125.27"/>
</g>
<!-- Node15&#45;&gt;Node13 -->
<g id="edge29" class="edge">
<title>Node15&#45;&gt;Node13</title>
<path fill="none" stroke="#63b8ff" d="M1000.55,-122.01C1018.8,-114.36 1037.92,-102.62 1048.5,-85 1062.19,-62.22 1037.51,-33.21 1022.99,-19.05"/>
<polygon fill="#63b8ff" stroke="#63b8ff" points="999.48,-118.67 991.39,-125.52 1001.98,-125.21 999.48,-118.67"/>
</g>
<!-- Node15&#45;&gt;Node14 -->
<g id="edge27" class="edge">
<title>Node15&#45;&gt;Node14</title>
<path fill="none" stroke="#63b8ff" d="M954.5,-114.68C954.5,-102.94 954.5,-88.77 954.5,-79.82"/>
<polygon fill="#63b8ff" stroke="#63b8ff" points="951,-114.59 954.5,-124.59 958,-114.59 951,-114.59"/>
</g>
<!-- Node15&#45;&gt;Node16 -->
<g id="edge30" class="edge">
<title>Node15&#45;&gt;Node16</title>
<path fill="none" stroke="#63b8ff" d="M993.07,-122.6C1032.01,-110.07 1091.2,-91.04 1125.74,-79.93"/>
<polygon fill="#63b8ff" stroke="#63b8ff" points="992.06,-119.24 983.61,-125.64 994.2,-125.91 992.06,-119.24"/>
</g>
</g>
</svg>
