<?xml version="1.0" encoding="UTF-8" standalone="no"?>
<!DOCTYPE svg PUBLIC "-//W3C//DTD SVG 1.1//EN"
 "http://www.w3.org/Graphics/SVG/1.1/DTD/svg11.dtd">
<!-- Generated by graphviz version 7.0.5 (20221223.1930)
 -->
<!-- Title: maze_uint16_to_uint8_buffer Pages: 1 -->
<svg width="418pt" height="129pt"
 viewBox="0.00 0.00 418.00 129.15" xmlns="http://www.w3.org/2000/svg" xmlns:xlink="http://www.w3.org/1999/xlink">
<g id="graph0" class="graph" transform="scale(1 1) rotate(0) translate(4 125.15)">
<title>maze_uint16_to_uint8_buffer</title>
<!-- Node1 -->
<g id="node1" class="node">
<title>Node1</title>
<g id="a_node1"><a xlink:title="Helper function to convert a uint16_t to a uint8_t buffer.">
<polygon fill="#999999" stroke="#666666" points="410,-91 299,-91 299,-61 410,-61 410,-91"/>
<text text-anchor="start" x="307" y="-79" font-family="Helvetica,sans-Serif" font-size="10.00">maze_uint16_to_uint8</text>
<text text-anchor="middle" x="354.5" y="-68" font-family="Helvetica,sans-Serif" font-size="10.00">_buffer</text>
</a>
</g>
</g>
<!-- Node2 -->
<g id="node2" class="node">
<title>Node2</title>
<g id="a_node2"><a xlink:href="a__star_8c.html#a0467d77650c85f7690212ed6d3c5a2e3" target="_top" xlink:title="Inserts the maze, path and navigator state into a buffer.">
<polygon fill="white" stroke="#666666" points="117,-91 0,-91 0,-61 117,-61 117,-91"/>
<text text-anchor="start" x="8" y="-79" font-family="Helvetica,sans-Serif" font-size="10.00">a_star_maze_path_nav</text>
<text text-anchor="middle" x="58.5" y="-68" font-family="Helvetica,sans-Serif" font-size="10.00">_to_buffer</text>
</a>
</g>
</g>
<!-- Node1&#45;&gt;Node2 -->
<g id="edge1" class="edge">
<title>Node1&#45;&gt;Node2</title>
<path fill="none" stroke="#63b8ff" d="M314.77,-96.25C299.14,-103.36 280.64,-110.45 263,-114 215.07,-123.65 200.98,-123.38 153,-114 130.64,-109.63 106.88,-99.9 88.91,-91.38"/>
<polygon fill="#63b8ff" stroke="#63b8ff" points="316.18,-99.46 323.72,-92.02 313.19,-93.13 316.18,-99.46"/>
</g>
<!-- Node3 -->
<g id="node3" class="node">
<title>Node3</title>
<g id="a_node3"><a xlink:href="a__star_8c.html#ac106312a2e54f3fcfbc7b8f9893bb9c6" target="_top" xlink:title="Inserts the path in coordinates from the start node to the end node into a buffer.">
<polygon fill="white" stroke="#666666" points="263,-104.5 153,-104.5 153,-85.5 263,-85.5 263,-104.5"/>
<text text-anchor="middle" x="208" y="-92.5" font-family="Helvetica,sans-Serif" font-size="10.00">a_star_path_to_buffer</text>
</a>
</g>
</g>
<!-- Node1&#45;&gt;Node3 -->
<g id="edge2" class="edge">
<title>Node1&#45;&gt;Node3</title>
<path fill="none" stroke="#63b8ff" d="M287.5,-84.68C279.38,-85.75 271.15,-86.83 263.23,-87.87"/>
<polygon fill="#63b8ff" stroke="#63b8ff" points="287.91,-88.15 297.37,-83.38 287,-81.21 287.91,-88.15"/>
</g>
<!-- Node4 -->
<g id="node4" class="node">
<title>Node4</title>
<g id="a_node4"><a xlink:href="maze_8c.html#a39f5fccadb0b4834e38f62f3f11ad270" target="_top" xlink:title="Serialises the navigator state into a uint8_t buffer. The buffer is set with the navigator&#39;s coordina...">
<polygon fill="white" stroke="#666666" points="260,-67.5 156,-67.5 156,-48.5 260,-48.5 260,-67.5"/>
<text text-anchor="middle" x="208" y="-55.5" font-family="Helvetica,sans-Serif" font-size="10.00">maze_nav_to_buffer</text>
</a>
</g>
</g>
<!-- Node1&#45;&gt;Node4 -->
<g id="edge4" class="edge">
<title>Node1&#45;&gt;Node4</title>
<path fill="none" stroke="#63b8ff" d="M287.47,-67.77C278.37,-66.64 269.14,-65.49 260.37,-64.4"/>
<polygon fill="#63b8ff" stroke="#63b8ff" points="287.01,-71.24 297.37,-69.01 287.88,-64.3 287.01,-71.24"/>
</g>
<!-- Node5 -->
<g id="node5" class="node">
<title>Node5</title>
<g id="a_node5"><a xlink:href="maze_8c.html#aae2cf92e83b0810d22411db9fbea4d94" target="_top" xlink:title="Serialises the maze into a uint8_t buffer.">
<polygon fill="white" stroke="#666666" points="258,-30 158,-30 158,0 258,0 258,-30"/>
<text text-anchor="start" x="166" y="-18" font-family="Helvetica,sans-Serif" font-size="10.00">maze_serialised_to</text>
<text text-anchor="middle" x="208" y="-7" font-family="Helvetica,sans-Serif" font-size="10.00">_buffer</text>
</a>
</g>
</g>
<!-- Node1&#45;&gt;Node5 -->
<g id="edge6" class="edge">
<title>Node1&#45;&gt;Node5</title>
<path fill="none" stroke="#63b8ff" d="M306.7,-56.24C286.93,-47.9 264.24,-38.32 245.7,-30.49"/>
<polygon fill="#63b8ff" stroke="#63b8ff" points="305.07,-59.35 315.64,-60.02 307.79,-52.9 305.07,-59.35"/>
</g>
<!-- Node3&#45;&gt;Node2 -->
<g id="edge3" class="edge">
<title>Node3&#45;&gt;Node2</title>
<path fill="none" stroke="#63b8ff" d="M141.52,-86.57C133.36,-85.51 125.07,-84.45 117.05,-83.41"/>
<polygon fill="#63b8ff" stroke="#63b8ff" points="141.05,-90.03 151.41,-87.84 141.94,-83.09 141.05,-90.03"/>
</g>
<!-- Node4&#45;&gt;Node2 -->
<g id="edge5" class="edge">
<title>Node4&#45;&gt;Node2</title>
<path fill="none" stroke="#63b8ff" d="M144.58,-65.62C135.57,-66.72 126.32,-67.85 117.4,-68.93"/>
<polygon fill="#63b8ff" stroke="#63b8ff" points="144.82,-69.11 154.32,-64.43 143.97,-62.17 144.82,-69.11"/>
</g>
<!-- Node5&#45;&gt;Node2 -->
<g id="edge7" class="edge">
<title>Node5&#45;&gt;Node2</title>
<path fill="none" stroke="#63b8ff" d="M159.23,-34.76C139.04,-43.1 115.88,-52.68 96.96,-60.51"/>
<polygon fill="#63b8ff" stroke="#63b8ff" points="160.48,-38.03 168.38,-30.97 157.8,-31.56 160.48,-38.03"/>
</g>
</g>
</svg>
