<?xml version="1.0" encoding="UTF-8" standalone="no"?>
<!DOCTYPE svg PUBLIC "-//W3C//DTD SVG 1.1//EN"
 "http://www.w3.org/Graphics/SVG/1.1/DTD/svg11.dtd">
<!-- Generated by graphviz version 7.0.5 (20221223.1930)
 -->
<!-- Title: src/pathfinding/maze.h Pages: 1 -->
<svg width="1460pt" height="214pt"
 viewBox="0.00 0.00 1460.00 214.00" xmlns="http://www.w3.org/2000/svg" xmlns:xlink="http://www.w3.org/1999/xlink">
<g id="graph0" class="graph" transform="scale(1 1) rotate(0) translate(4 210)">
<title>src/pathfinding/maze.h</title>
<!-- Node1 -->
<g id="node1" class="node">
<title>Node1</title>
<g id="a_node1"><a xlink:title="Header file for the maze data structure and public functions.">
<polygon fill="#999999" stroke="#666666" points="638,-206 525,-206 525,-187 638,-187 638,-206"/>
<text text-anchor="middle" x="581.5" y="-194" font-family="Helvetica,sans-Serif" font-size="10.00">src/pathfinding/maze.h</text>
</a>
</g>
</g>
<!-- Node2 -->
<g id="node2" class="node">
<title>Node2</title>
<g id="a_node2"><a xlink:href="pid_8c.html" target="_top" xlink:title=" ">
<polygon fill="white" stroke="#666666" points="101,-79.5 0,-79.5 0,-60.5 101,-60.5 101,-79.5"/>
<text text-anchor="middle" x="50.5" y="-67.5" font-family="Helvetica,sans-Serif" font-size="10.00">src/drivers/pid/pid.c</text>
</a>
</g>
</g>
<!-- Node1&#45;&gt;Node2 -->
<g id="edge1" class="edge">
<title>Node1&#45;&gt;Node2</title>
<path fill="none" stroke="#63b8ff" d="M513.39,-193.96C381.75,-190.35 102.39,-179.4 69.5,-151 48.65,-133 48.44,-96.67 49.6,-79.88"/>
<polygon fill="#63b8ff" stroke="#63b8ff" points="512.91,-197.44 523,-194.21 513.1,-190.45 512.91,-197.44"/>
</g>
<!-- Node3 -->
<g id="node3" class="node">
<title>Node3</title>
<g id="a_node3"><a xlink:href="pid_8h.html" target="_top" xlink:title=" ">
<polygon fill="white" stroke="#666666" points="180,-145.5 79,-145.5 79,-126.5 180,-126.5 180,-145.5"/>
<text text-anchor="middle" x="129.5" y="-133.5" font-family="Helvetica,sans-Serif" font-size="10.00">src/drivers/pid/pid.h</text>
</a>
</g>
</g>
<!-- Node1&#45;&gt;Node3 -->
<g id="edge2" class="edge">
<title>Node1&#45;&gt;Node3</title>
<path fill="none" stroke="#63b8ff" d="M513.49,-189.71C435.98,-182.63 305.65,-169.31 194.5,-151 185.96,-149.59 176.84,-147.81 168.22,-145.99"/>
<polygon fill="#63b8ff" stroke="#63b8ff" points="512.75,-193.15 523.03,-190.57 513.38,-186.18 512.75,-193.15"/>
</g>
<!-- Node5 -->
<g id="node5" class="node">
<title>Node5</title>
<g id="a_node5"><a xlink:href="a__star_8c.html" target="_top" xlink:title="Source file for the implementation of the a* algorithm.">
<polygon fill="white" stroke="#666666" points="436,-19 319,-19 319,0 436,0 436,-19"/>
<text text-anchor="middle" x="377.5" y="-7" font-family="Helvetica,sans-Serif" font-size="10.00">src/pathfinding/a_star.c</text>
</a>
</g>
</g>
<!-- Node1&#45;&gt;Node5 -->
<g id="edge5" class="edge">
<title>Node1&#45;&gt;Node5</title>
<path fill="none" stroke="#63b8ff" d="M513.52,-187.8C470.73,-181.39 415.01,-170.12 368.5,-151 318.56,-130.46 292.3,-132.43 266.5,-85 260.13,-73.29 259.03,-66.04 266.5,-55 278.95,-36.6 300.38,-25.81 321.11,-19.48"/>
<polygon fill="#63b8ff" stroke="#63b8ff" points="512.77,-191.23 523.17,-189.19 513.77,-184.3 512.77,-191.23"/>
</g>
<!-- Node6 -->
<g id="node6" class="node">
<title>Node6</title>
<g id="a_node6"><a xlink:href="a__star_8h.html" target="_top" xlink:title="Header file for the a* algorithm.">
<polygon fill="white" stroke="#666666" points="392,-79.5 275,-79.5 275,-60.5 392,-60.5 392,-79.5"/>
<text text-anchor="middle" x="333.5" y="-67.5" font-family="Helvetica,sans-Serif" font-size="10.00">src/pathfinding/a_star.h</text>
</a>
</g>
</g>
<!-- Node1&#45;&gt;Node6 -->
<g id="edge6" class="edge">
<title>Node1&#45;&gt;Node6</title>
<path fill="none" stroke="#63b8ff" d="M513.46,-187.6C479.5,-181.4 438.87,-170.41 406.5,-151 375.38,-132.34 349.69,-96.35 338.93,-79.76"/>
<polygon fill="#63b8ff" stroke="#63b8ff" points="512.76,-191.04 523.2,-189.27 513.94,-184.14 512.76,-191.04"/>
</g>
<!-- Node7 -->
<g id="node7" class="node">
<title>Node7</title>
<g id="a_node7"><a xlink:href="pathfinding_2main_8c.html" target="_top" xlink:title="This file contains the mapping and pathfinding tests to be run on the Pico depending on the input ove...">
<polygon fill="white" stroke="#666666" points="621,-19 510,-19 510,0 621,0 621,-19"/>
<text text-anchor="middle" x="565.5" y="-7" font-family="Helvetica,sans-Serif" font-size="10.00">src/pathfinding/main.c</text>
</a>
</g>
</g>
<!-- Node1&#45;&gt;Node7 -->
<g id="edge35" class="edge">
<title>Node1&#45;&gt;Node7</title>
<path fill="none" stroke="#63b8ff" d="M513.67,-190.14C487.71,-184.38 460.51,-173.04 444.5,-151 419.42,-116.48 420.09,-89.99 444.5,-55 459.29,-33.8 485.37,-22.67 509.53,-16.84"/>
<polygon fill="#63b8ff" stroke="#63b8ff" points="512.71,-193.52 523.19,-191.99 514.04,-186.64 512.71,-193.52"/>
</g>
<!-- Node8 -->
<g id="node8" class="node">
<title>Node8</title>
<g id="a_node8"><a xlink:href="navigation__tests_8c.html" target="_top" xlink:title="Tests the combined navigational functions.">
<polygon fill="white" stroke="#666666" points="849.5,-19 729.5,-19 729.5,0 849.5,0 849.5,-19"/>
<text text-anchor="middle" x="789.5" y="-7" font-family="Helvetica,sans-Serif" font-size="10.00">tests/navigation_tests.c</text>
</a>
</g>
</g>
<!-- Node1&#45;&gt;Node8 -->
<g id="edge39" class="edge">
<title>Node1&#45;&gt;Node8</title>
<path fill="none" stroke="#63b8ff" d="M556.12,-180.56C514.5,-154.25 439.92,-98.32 477.5,-55 493.72,-36.3 642.97,-21.8 729.03,-14.9"/>
<polygon fill="#63b8ff" stroke="#63b8ff" points="554.27,-183.53 564.62,-185.79 557.94,-177.57 554.27,-183.53"/>
</g>
<!-- Node9 -->
<g id="node9" class="node">
<title>Node9</title>
<g id="a_node9"><a xlink:href="pathfinding__tests_8c.html" target="_top" xlink:title="This file contains the tests for the A* pathfinding algorithm.">
<polygon fill="white" stroke="#666666" points="300.5,-19 178.5,-19 178.5,0 300.5,0 300.5,-19"/>
<text text-anchor="middle" x="239.5" y="-7" font-family="Helvetica,sans-Serif" font-size="10.00">tests/pathfinding_tests.c</text>
</a>
</g>
</g>
<!-- Node1&#45;&gt;Node9 -->
<g id="edge40" class="edge">
<title>Node1&#45;&gt;Node9</title>
<path fill="none" stroke="#63b8ff" d="M513.48,-191.93C439.51,-186.86 327.18,-175.35 292.5,-151 247.69,-119.54 240.73,-45.15 239.68,-19.43"/>
<polygon fill="#63b8ff" stroke="#63b8ff" points="512.84,-195.39 523.05,-192.56 513.3,-188.41 512.84,-195.39"/>
</g>
<!-- Node10 -->
<g id="node10" class="node">
<title>Node10</title>
<g id="a_node10"><a xlink:href="binary__heap_8c.html" target="_top" xlink:title="Source file for the binary min&#45;heap used in the a* algorithm and floodfill algorithm.">
<polygon fill="white" stroke="#666666" points="594.5,-85 486.5,-85 486.5,-55 594.5,-55 594.5,-85"/>
<text text-anchor="start" x="494.5" y="-73" font-family="Helvetica,sans-Serif" font-size="10.00">src/pathfinding/binary</text>
<text text-anchor="middle" x="540.5" y="-62" font-family="Helvetica,sans-Serif" font-size="10.00">_heap.c</text>
</a>
</g>
</g>
<!-- Node1&#45;&gt;Node10 -->
<g id="edge12" class="edge">
<title>Node1&#45;&gt;Node10</title>
<path fill="none" stroke="#63b8ff" d="M570.9,-176.46C566.92,-168.73 562.6,-159.61 559.5,-151 551.46,-128.71 545.86,-101.69 542.91,-85.45"/>
<polygon fill="#63b8ff" stroke="#63b8ff" points="567.8,-178.07 575.61,-185.23 573.96,-174.76 567.8,-178.07"/>
</g>
<!-- Node11 -->
<g id="node11" class="node">
<title>Node11</title>
<g id="a_node11"><a xlink:href="binary__heap_8h.html" target="_top" xlink:title="This file contains the declarations for the binary min&#45;heap used in the a* algorithm.">
<polygon fill="white" stroke="#666666" points="676.5,-151 568.5,-151 568.5,-121 676.5,-121 676.5,-151"/>
<text text-anchor="start" x="576.5" y="-139" font-family="Helvetica,sans-Serif" font-size="10.00">src/pathfinding/binary</text>
<text text-anchor="middle" x="622.5" y="-128" font-family="Helvetica,sans-Serif" font-size="10.00">_heap.h</text>
</a>
</g>
</g>
<!-- Node1&#45;&gt;Node11 -->
<g id="edge13" class="edge">
<title>Node1&#45;&gt;Node11</title>
<path fill="none" stroke="#63b8ff" d="M594.12,-177.5C600.06,-169.01 607.05,-159.04 612.61,-151.11"/>
<polygon fill="#63b8ff" stroke="#63b8ff" points="591.29,-175.43 588.42,-185.63 597.02,-179.45 591.29,-175.43"/>
</g>
<!-- Node12 -->
<g id="node12" class="node">
<title>Node12</title>
<g id="a_node12"><a xlink:href="dfs_8c.html" target="_top" xlink:title="Runs the depth first search algorithm on a maze.">
<polygon fill="white" stroke="#666666" points="1016.5,-19 912.5,-19 912.5,0 1016.5,0 1016.5,-19"/>
<text text-anchor="middle" x="964.5" y="-7" font-family="Helvetica,sans-Serif" font-size="10.00">src/pathfinding/dfs.c</text>
</a>
</g>
</g>
<!-- Node1&#45;&gt;Node12 -->
<g id="edge20" class="edge">
<title>Node1&#45;&gt;Node12</title>
<path fill="none" stroke="#63b8ff" d="M649.73,-196.18C807.36,-196.03 1188.34,-185.12 1253.5,-85 1260.77,-73.82 1262.18,-65.12 1253.5,-55 1245.85,-46.08 1097.94,-26.77 1016.77,-16.77"/>
<polygon fill="#63b8ff" stroke="#63b8ff" points="649.84,-192.68 639.84,-196.18 649.84,-199.68 649.84,-192.68"/>
</g>
<!-- Node13 -->
<g id="node13" class="node">
<title>Node13</title>
<g id="a_node13"><a xlink:href="floodfill_8c.html" target="_top" xlink:title="This file contains the implementation of the floodfill algorithm for mapping the maze and determining...">
<polygon fill="white" stroke="#666666" points="846,-79.5 727,-79.5 727,-60.5 846,-60.5 846,-79.5"/>
<text text-anchor="middle" x="786.5" y="-67.5" font-family="Helvetica,sans-Serif" font-size="10.00">src/pathfinding/floodfill.c</text>
</a>
</g>
</g>
<!-- Node1&#45;&gt;Node13 -->
<g id="edge26" class="edge">
<title>Node1&#45;&gt;Node13</title>
<path fill="none" stroke="#63b8ff" d="M618.41,-182.47C638.83,-174.59 664.29,-163.63 685.5,-151 722.02,-129.25 759.96,-95.72 777.1,-79.87"/>
<polygon fill="#63b8ff" stroke="#63b8ff" points="617.18,-179.19 609.06,-185.99 619.65,-185.74 617.18,-179.19"/>
</g>
<!-- Node14 -->
<g id="node14" class="node">
<title>Node14</title>
<g id="a_node14"><a xlink:href="dfs__tests_8c.html" target="_top" xlink:title="This file containst the functions that test the depth first search algorithm with a simulated navigat...">
<polygon fill="white" stroke="#666666" points="1144,-19 1055,-19 1055,0 1144,0 1144,-19"/>
<text text-anchor="middle" x="1099.5" y="-7" font-family="Helvetica,sans-Serif" font-size="10.00">tests/dfs_tests.c</text>
</a>
</g>
</g>
<!-- Node1&#45;&gt;Node14 -->
<g id="edge37" class="edge">
<title>Node1&#45;&gt;Node14</title>
<path fill="none" stroke="#63b8ff" d="M649.42,-195.56C786.47,-194.87 1091.21,-188.96 1187.5,-151 1239.7,-130.42 1303.79,-99.42 1269.5,-55 1254.31,-35.32 1189.54,-22.66 1144.49,-16.06"/>
<polygon fill="#63b8ff" stroke="#63b8ff" points="649.77,-192.06 639.78,-195.6 649.8,-199.06 649.77,-192.06"/>
</g>
<!-- Node15 -->
<g id="node15" class="node">
<title>Node15</title>
<g id="a_node15"><a xlink:href="dfs_8h.html" target="_top" xlink:title="Header file for the depth first search algorithm for mapping the maze.">
<polygon fill="white" stroke="#666666" points="1006.5,-79.5 902.5,-79.5 902.5,-60.5 1006.5,-60.5 1006.5,-79.5"/>
<text text-anchor="middle" x="954.5" y="-67.5" font-family="Helvetica,sans-Serif" font-size="10.00">src/pathfinding/dfs.h</text>
</a>
</g>
</g>
<!-- Node1&#45;&gt;Node15 -->
<g id="edge21" class="edge">
<title>Node1&#45;&gt;Node15</title>
<path fill="none" stroke="#63b8ff" d="M620.63,-183.07C648.29,-174.23 686.21,-162.03 719.5,-151 795.8,-125.71 885.65,-94.81 928.81,-79.9"/>
<polygon fill="#63b8ff" stroke="#63b8ff" points="619.73,-179.68 611.27,-186.05 621.86,-186.35 619.73,-179.68"/>
</g>
<!-- Node16 -->
<g id="node16" class="node">
<title>Node16</title>
<g id="a_node16"><a xlink:href="floodfill_8h.html" target="_top" xlink:title="This file contains the function prototypes for the floodfill algorithm for mapping of the maze.">
<polygon fill="white" stroke="#666666" points="1051,-145.5 932,-145.5 932,-126.5 1051,-126.5 1051,-145.5"/>
<text text-anchor="middle" x="991.5" y="-133.5" font-family="Helvetica,sans-Serif" font-size="10.00">src/pathfinding/floodfill.h</text>
</a>
</g>
</g>
<!-- Node1&#45;&gt;Node16 -->
<g id="edge27" class="edge">
<title>Node1&#45;&gt;Node16</title>
<path fill="none" stroke="#63b8ff" d="M649.53,-186.01C713.34,-177.08 811.41,-163.28 896.5,-151 907.89,-149.36 920.03,-147.58 931.71,-145.87"/>
<polygon fill="#63b8ff" stroke="#63b8ff" points="649.34,-182.5 639.92,-187.35 650.31,-189.43 649.34,-182.5"/>
</g>
<!-- Node17 -->
<g id="node17" class="node">
<title>Node17</title>
<g id="a_node17"><a xlink:href="floodfill__tests_8c.html" target="_top" xlink:title="This file contains the tests for the floodfill algorithm.">
<polygon fill="white" stroke="#666666" points="1244,-79.5 1139,-79.5 1139,-60.5 1244,-60.5 1244,-79.5"/>
<text text-anchor="middle" x="1191.5" y="-67.5" font-family="Helvetica,sans-Serif" font-size="10.00">tests/floodfill_tests.c</text>
</a>
</g>
</g>
<!-- Node1&#45;&gt;Node17 -->
<g id="edge38" class="edge">
<title>Node1&#45;&gt;Node17</title>
<path fill="none" stroke="#63b8ff" d="M649.53,-192.97C763.06,-188.11 986.07,-175.7 1060.5,-151 1109.57,-134.72 1159.5,-97.17 1180.8,-79.94"/>
<polygon fill="#63b8ff" stroke="#63b8ff" points="649.58,-189.46 639.74,-193.38 649.88,-196.46 649.58,-189.46"/>
</g>
<!-- Node18 -->
<g id="node18" class="node">
<title>Node18</title>
<g id="a_node18"><a xlink:href="maze_8c.html" target="_top" xlink:title="Contains the implementation of utility maze functions.">
<polygon fill="white" stroke="#666666" points="1452,-145.5 1339,-145.5 1339,-126.5 1452,-126.5 1452,-145.5"/>
<text text-anchor="middle" x="1395.5" y="-133.5" font-family="Helvetica,sans-Serif" font-size="10.00">src/pathfinding/maze.c</text>
</a>
</g>
</g>
<!-- Node1&#45;&gt;Node18 -->
<g id="edge36" class="edge">
<title>Node1&#45;&gt;Node18</title>
<path fill="none" stroke="#63b8ff" d="M649.55,-194.49C780.66,-191.86 1077.21,-182.64 1324.5,-151 1334.47,-149.72 1345.14,-147.88 1355.1,-145.94"/>
<polygon fill="#63b8ff" stroke="#63b8ff" points="649.58,-190.99 639.65,-194.68 649.71,-197.99 649.58,-190.99"/>
</g>
<!-- Node3&#45;&gt;Node2 -->
<g id="edge3" class="edge">
<title>Node3&#45;&gt;Node2</title>
<path fill="none" stroke="#63b8ff" d="M109.8,-119.04C94.5,-106.64 73.85,-89.92 61.39,-79.82"/>
<polygon fill="#63b8ff" stroke="#63b8ff" points="107.37,-121.57 117.34,-125.15 111.77,-116.13 107.37,-121.57"/>
</g>
<!-- Node4 -->
<g id="node4" class="node">
<title>Node4</title>
<g id="a_node4"><a xlink:href="main_8c.html" target="_top" xlink:title="The main source file for robot control.">
<polygon fill="white" stroke="#666666" points="160.5,-19 98.5,-19 98.5,0 160.5,0 160.5,-19"/>
<text text-anchor="middle" x="129.5" y="-7" font-family="Helvetica,sans-Serif" font-size="10.00">src/main.c</text>
</a>
</g>
</g>
<!-- Node3&#45;&gt;Node4 -->
<g id="edge4" class="edge">
<title>Node3&#45;&gt;Node4</title>
<path fill="none" stroke="#63b8ff" d="M129.5,-114.7C129.5,-87.15 129.5,-39.13 129.5,-19.37"/>
<polygon fill="#63b8ff" stroke="#63b8ff" points="126,-114.53 129.5,-124.53 133,-114.53 126,-114.53"/>
</g>
<!-- Node6&#45;&gt;Node4 -->
<g id="edge7" class="edge">
<title>Node6&#45;&gt;Node4</title>
<path fill="none" stroke="#63b8ff" d="M291.58,-56.98C252.72,-45.84 195.79,-29.51 160.77,-19.47"/>
<polygon fill="#63b8ff" stroke="#63b8ff" points="290.48,-60.31 301.06,-59.7 292.41,-53.58 290.48,-60.31"/>
</g>
<!-- Node6&#45;&gt;Node5 -->
<g id="edge8" class="edge">
<title>Node6&#45;&gt;Node5</title>
<path fill="none" stroke="#63b8ff" d="M346.68,-51.48C354.7,-40.81 364.6,-27.65 370.98,-19.17"/>
<polygon fill="#63b8ff" stroke="#63b8ff" points="344.12,-49.06 340.9,-59.16 349.71,-53.27 344.12,-49.06"/>
</g>
<!-- Node6&#45;&gt;Node7 -->
<g id="edge9" class="edge">
<title>Node6&#45;&gt;Node7</title>
<path fill="none" stroke="#63b8ff" d="M380.03,-57.27C424.26,-46.11 489.85,-29.58 530.02,-19.45"/>
<polygon fill="#63b8ff" stroke="#63b8ff" points="379.3,-53.84 370.46,-59.68 381.01,-60.63 379.3,-53.84"/>
</g>
<!-- Node6&#45;&gt;Node8 -->
<g id="edge10" class="edge">
<title>Node6&#45;&gt;Node8</title>
<path fill="none" stroke="#63b8ff" d="M403.52,-60.02C492.63,-48.59 645.06,-29.03 729.23,-18.23"/>
<polygon fill="#63b8ff" stroke="#63b8ff" points="403.16,-56.54 393.68,-61.28 404.05,-63.48 403.16,-56.54"/>
</g>
<!-- Node6&#45;&gt;Node9 -->
<g id="edge11" class="edge">
<title>Node6&#45;&gt;Node9</title>
<path fill="none" stroke="#63b8ff" d="M309.65,-54.16C292.07,-43.22 268.73,-28.69 253.91,-19.47"/>
<polygon fill="#63b8ff" stroke="#63b8ff" points="307.6,-57 317.94,-59.32 311.3,-51.06 307.6,-57"/>
</g>
<!-- Node11&#45;&gt;Node5 -->
<g id="edge14" class="edge">
<title>Node11&#45;&gt;Node5</title>
<path fill="none" stroke="#63b8ff" d="M623.22,-109.36C622.27,-91.66 617.96,-68.91 603.5,-55 580.05,-32.44 495.07,-20.58 436.28,-14.93"/>
<polygon fill="#63b8ff" stroke="#63b8ff" points="619.71,-109.17 623.39,-119.11 626.71,-109.05 619.71,-109.17"/>
</g>
<!-- Node11&#45;&gt;Node6 -->
<g id="edge15" class="edge">
<title>Node11&#45;&gt;Node6</title>
<path fill="none" stroke="#63b8ff" d="M557.22,-120.54C501.01,-108.09 421.64,-90.52 374.1,-79.99"/>
<polygon fill="#63b8ff" stroke="#63b8ff" points="556.14,-123.89 566.66,-122.63 557.66,-117.06 556.14,-123.89"/>
</g>
<!-- Node11&#45;&gt;Node10 -->
<g id="edge16" class="edge">
<title>Node11&#45;&gt;Node10</title>
<path fill="none" stroke="#63b8ff" d="M595.56,-113.97C583.56,-104.61 569.73,-93.81 558.93,-85.39"/>
<polygon fill="#63b8ff" stroke="#63b8ff" points="593.07,-116.47 603.11,-119.87 597.38,-110.95 593.07,-116.47"/>
</g>
<!-- Node11&#45;&gt;Node12 -->
<g id="edge17" class="edge">
<title>Node11&#45;&gt;Node12</title>
<path fill="none" stroke="#63b8ff" d="M634.71,-110.73C645.3,-92.35 662.38,-68.1 684.5,-55 722.09,-32.75 842.16,-19.96 912.27,-14.21"/>
<polygon fill="#63b8ff" stroke="#63b8ff" points="631.69,-108.96 629.97,-119.42 637.83,-112.32 631.69,-108.96"/>
</g>
<!-- Node11&#45;&gt;Node13 -->
<g id="edge18" class="edge">
<title>Node11&#45;&gt;Node13</title>
<path fill="none" stroke="#63b8ff" d="M669.81,-116.54C700.56,-104.54 739.29,-89.43 763.47,-79.99"/>
<polygon fill="#63b8ff" stroke="#63b8ff" points="668.76,-113.19 660.71,-120.09 671.3,-119.71 668.76,-113.19"/>
</g>
<!-- Node11&#45;&gt;Node14 -->
<g id="edge19" class="edge">
<title>Node11&#45;&gt;Node14</title>
<path fill="none" stroke="#63b8ff" d="M648.07,-113.39C675.8,-90 716.41,-55.9 718.5,-55 720.42,-54.17 954.2,-27.21 1054.56,-15.67"/>
<polygon fill="#63b8ff" stroke="#63b8ff" points="646.13,-110.45 640.74,-119.57 650.64,-115.8 646.13,-110.45"/>
</g>
<!-- Node15&#45;&gt;Node7 -->
<g id="edge23" class="edge">
<title>Node15&#45;&gt;Node7</title>
<path fill="none" stroke="#63b8ff" d="M903.48,-57.8C898.43,-56.8 893.37,-55.85 888.5,-55 795.24,-38.71 685.97,-24.71 621.42,-16.96"/>
<polygon fill="#63b8ff" stroke="#63b8ff" points="902.47,-61.16 912.97,-59.72 903.86,-54.3 902.47,-61.16"/>
</g>
<!-- Node15&#45;&gt;Node8 -->
<g id="edge25" class="edge">
<title>Node15&#45;&gt;Node8</title>
<path fill="none" stroke="#63b8ff" d="M918.96,-56.4C887.59,-45.28 842.63,-29.34 814.8,-19.47"/>
<polygon fill="#63b8ff" stroke="#63b8ff" points="917.42,-59.57 928.01,-59.61 919.76,-52.97 917.42,-59.57"/>
</g>
<!-- Node15&#45;&gt;Node12 -->
<g id="edge22" class="edge">
<title>Node15&#45;&gt;Node12</title>
<path fill="none" stroke="#63b8ff" d="M957.89,-49.16C959.64,-38.95 961.67,-27.04 963.02,-19.17"/>
<polygon fill="#63b8ff" stroke="#63b8ff" points="954.47,-48.43 956.23,-58.88 961.37,-49.61 954.47,-48.43"/>
</g>
<!-- Node15&#45;&gt;Node14 -->
<g id="edge24" class="edge">
<title>Node15&#45;&gt;Node14</title>
<path fill="none" stroke="#63b8ff" d="M987.19,-55.81C1014.68,-44.72 1053.23,-29.17 1077.27,-19.47"/>
<polygon fill="#63b8ff" stroke="#63b8ff" points="985.89,-52.56 977.93,-59.55 988.51,-59.05 985.89,-52.56"/>
</g>
<!-- Node16&#45;&gt;Node7 -->
<g id="edge31" class="edge">
<title>Node16&#45;&gt;Node7</title>
<path fill="none" stroke="#63b8ff" d="M961.06,-121.38C941.27,-112.06 915.21,-98.92 893.5,-85 875.38,-73.39 875.23,-63.58 855.5,-55 778.9,-21.68 681.43,-12.79 621.26,-10.7"/>
<polygon fill="#63b8ff" stroke="#63b8ff" points="959.43,-124.47 969.97,-125.5 962.37,-118.12 959.43,-124.47"/>
</g>
<!-- Node16&#45;&gt;Node8 -->
<g id="edge34" class="edge">
<title>Node16&#45;&gt;Node8</title>
<path fill="none" stroke="#63b8ff" d="M1005.57,-116.86C1017.37,-99.3 1030.13,-72.79 1015.5,-55 994.9,-29.94 909.63,-18.77 849.94,-13.95"/>
<polygon fill="#63b8ff" stroke="#63b8ff" points="1002.85,-114.65 999.84,-124.81 1008.53,-118.74 1002.85,-114.65"/>
</g>
<!-- Node16&#45;&gt;Node12 -->
<g id="edge28" class="edge">
<title>Node16&#45;&gt;Node12</title>
<path fill="none" stroke="#63b8ff" d="M1017.29,-119.74C1029.15,-111.18 1042.01,-99.33 1048.5,-85 1054,-72.85 1055.38,-66.42 1048.5,-55 1037.78,-37.18 1017.26,-26.13 999.19,-19.49"/>
<polygon fill="#63b8ff" stroke="#63b8ff" points="1015.35,-116.83 1008.98,-125.3 1019.24,-122.65 1015.35,-116.83"/>
</g>
<!-- Node16&#45;&gt;Node13 -->
<g id="edge30" class="edge">
<title>Node16&#45;&gt;Node13</title>
<path fill="none" stroke="#63b8ff" d="M952.03,-122.68C911.92,-110.15 850.76,-91.06 815.09,-79.93"/>
<polygon fill="#63b8ff" stroke="#63b8ff" points="950.96,-126.01 961.55,-125.65 953.05,-119.33 950.96,-126.01"/>
</g>
<!-- Node16&#45;&gt;Node14 -->
<g id="edge32" class="edge">
<title>Node16&#45;&gt;Node14</title>
<path fill="none" stroke="#63b8ff" d="M1019.47,-120.64C1034.33,-111.92 1052.05,-99.64 1064.5,-85 1081.9,-64.53 1092.62,-33.95 1097.09,-19.14"/>
<polygon fill="#63b8ff" stroke="#63b8ff" points="1018.06,-117.41 1011.05,-125.36 1021.49,-123.52 1018.06,-117.41"/>
</g>
<!-- Node16&#45;&gt;Node15 -->
<g id="edge29" class="edge">
<title>Node16&#45;&gt;Node15</title>
<path fill="none" stroke="#63b8ff" d="M980.61,-116.16C973.67,-104.16 965,-89.15 959.6,-79.82"/>
<polygon fill="#63b8ff" stroke="#63b8ff" points="977.56,-117.89 985.6,-124.79 983.62,-114.38 977.56,-117.89"/>
</g>
<!-- Node16&#45;&gt;Node17 -->
<g id="edge33" class="edge">
<title>Node16&#45;&gt;Node17</title>
<path fill="none" stroke="#63b8ff" d="M1030.26,-122.6C1069.4,-110.07 1128.88,-91.04 1163.61,-79.93"/>
<polygon fill="#63b8ff" stroke="#63b8ff" points="1029.21,-119.26 1020.75,-125.64 1031.34,-125.93 1029.21,-119.26"/>
</g>
</g>
</svg>
