<?xml version="1.0" encoding="UTF-8" standalone="no"?>
<!DOCTYPE svg PUBLIC "-//W3C//DTD SVG 1.1//EN"
 "http://www.w3.org/Graphics/SVG/1.1/DTD/svg11.dtd">
<!-- Generated by graphviz version 7.0.5 (20221223.1930)
 -->
<!-- Title: main/pathfinding/maze.h Pages: 1 -->
<svg width="1157pt" height="225pt"
 viewBox="0.00 0.00 1156.51 225.00" xmlns="http://www.w3.org/2000/svg" xmlns:xlink="http://www.w3.org/1999/xlink">
<g id="graph0" class="graph" transform="scale(1 1) rotate(0) translate(4 221)">
<title>main/pathfinding/maze.h</title>
<!-- Node1 -->
<g id="node1" class="node">
<title>Node1</title>
<g id="a_node1"><a xlink:title="Header file for the maze data structure and public functions.">
<polygon fill="#999999" stroke="#666666" points="632.5,-217 511.5,-217 511.5,-198 632.5,-198 632.5,-217"/>
<text text-anchor="middle" x="572" y="-205" font-family="Helvetica,sans-Serif" font-size="10.00">main/pathfinding/maze.h</text>
</a>
</g>
</g>
<!-- Node2 -->
<g id="node2" class="node">
<title>Node2</title>
<g id="a_node2"><a xlink:href="a__star_8c.html" target="_top" xlink:title="Source file for the implementation of the a* algorithm.">
<polygon fill="white" stroke="#666666" points="295.5,-30 200.5,-30 200.5,0 295.5,0 295.5,-30"/>
<text text-anchor="start" x="208.5" y="-18" font-family="Helvetica,sans-Serif" font-size="10.00">main/pathfinding/a</text>
<text text-anchor="middle" x="248" y="-7" font-family="Helvetica,sans-Serif" font-size="10.00">_star.c</text>
</a>
</g>
</g>
<!-- Node1&#45;&gt;Node2 -->
<g id="edge1" class="edge">
<title>Node1&#45;&gt;Node2</title>
<path fill="none" stroke="#63b8ff" d="M499.66,-203.16C369.14,-195.32 103.42,-170.36 57,-96 49.94,-84.69 48.85,-76.55 57,-66 74.38,-43.48 149.53,-29.14 200.22,-21.84"/>
<polygon fill="#63b8ff" stroke="#63b8ff" points="499.41,-206.65 509.59,-203.74 499.81,-199.66 499.41,-206.65"/>
</g>
<!-- Node3 -->
<g id="node3" class="node">
<title>Node3</title>
<g id="a_node3"><a xlink:href="a__star_8h.html" target="_top" xlink:title="Header file for the a* algorithm.">
<polygon fill="white" stroke="#666666" points="295.5,-96 200.5,-96 200.5,-66 295.5,-66 295.5,-96"/>
<text text-anchor="start" x="208.5" y="-84" font-family="Helvetica,sans-Serif" font-size="10.00">main/pathfinding/a</text>
<text text-anchor="middle" x="248" y="-73" font-family="Helvetica,sans-Serif" font-size="10.00">_star.h</text>
</a>
</g>
</g>
<!-- Node1&#45;&gt;Node3 -->
<g id="edge2" class="edge">
<title>Node1&#45;&gt;Node3</title>
<path fill="none" stroke="#63b8ff" d="M500.02,-203.01C426.31,-198.12 317.99,-186.86 285,-162 263.73,-145.98 254.28,-114.78 250.41,-96.43"/>
<polygon fill="#63b8ff" stroke="#63b8ff" points="499.37,-206.48 509.57,-203.62 499.82,-199.49 499.37,-206.48"/>
</g>
<!-- Node5 -->
<g id="node5" class="node">
<title>Node5</title>
<g id="a_node5"><a xlink:href="navigation__tests_8c.html" target="_top" xlink:title="Tests the combined navigational functions.">
<polygon fill="white" stroke="#666666" points="594,-24.5 474,-24.5 474,-5.5 594,-5.5 594,-24.5"/>
<text text-anchor="middle" x="534" y="-12.5" font-family="Helvetica,sans-Serif" font-size="10.00">tests/navigation_tests.c</text>
</a>
</g>
</g>
<!-- Node1&#45;&gt;Node5 -->
<g id="edge35" class="edge">
<title>Node1&#45;&gt;Node5</title>
<path fill="none" stroke="#63b8ff" d="M502.15,-193.87C484.91,-187.28 468.42,-177.25 458,-162 424.79,-113.39 494.24,-48.47 522.63,-24.97"/>
<polygon fill="#63b8ff" stroke="#63b8ff" points="500.91,-197.14 511.5,-197.06 503.17,-190.52 500.91,-197.14"/>
</g>
<!-- Node6 -->
<g id="node6" class="node">
<title>Node6</title>
<g id="a_node6"><a xlink:href="pathfinding__tests_8c.html" target="_top" xlink:title="This file contains the tests for the A* pathfinding algorithm.">
<polygon fill="white" stroke="#666666" points="122,-24.5 0,-24.5 0,-5.5 122,-5.5 122,-24.5"/>
<text text-anchor="middle" x="61" y="-12.5" font-family="Helvetica,sans-Serif" font-size="10.00">tests/pathfinding_tests.c</text>
</a>
</g>
</g>
<!-- Node1&#45;&gt;Node6 -->
<g id="edge36" class="edge">
<title>Node1&#45;&gt;Node6</title>
<path fill="none" stroke="#63b8ff" d="M499.75,-206.37C385.45,-205.05 169.04,-197.74 102,-162 68.55,-144.17 60.74,-131.69 48,-96 39.11,-71.09 50.29,-39.62 56.85,-24.66"/>
<polygon fill="#63b8ff" stroke="#63b8ff" points="499.6,-209.87 509.64,-206.47 499.67,-202.87 499.6,-209.87"/>
</g>
<!-- Node7 -->
<g id="node7" class="node">
<title>Node7</title>
<g id="a_node7"><a xlink:href="binary__heap_8c.html" target="_top" xlink:title="Source file for the binary min&#45;heap used in the a* algorithm and floodfill algorithm.">
<polygon fill="white" stroke="#666666" points="182,-96 66,-96 66,-66 182,-66 182,-96"/>
<text text-anchor="start" x="74" y="-84" font-family="Helvetica,sans-Serif" font-size="10.00">main/pathfinding/binary</text>
<text text-anchor="middle" x="124" y="-73" font-family="Helvetica,sans-Serif" font-size="10.00">_heap.c</text>
</a>
</g>
</g>
<!-- Node1&#45;&gt;Node7 -->
<g id="edge7" class="edge">
<title>Node1&#45;&gt;Node7</title>
<path fill="none" stroke="#63b8ff" d="M499.96,-204.37C435.05,-200.57 337.83,-190.19 258,-162 213.29,-146.21 167.09,-114.62 142.33,-96.22"/>
<polygon fill="#63b8ff" stroke="#63b8ff" points="499.61,-207.85 509.78,-204.9 499.99,-200.86 499.61,-207.85"/>
</g>
<!-- Node8 -->
<g id="node8" class="node">
<title>Node8</title>
<g id="a_node8"><a xlink:href="binary__heap_8h.html" target="_top" xlink:title="This file contains the declarations for the binary min&#45;heap used in the a* algorithm.">
<polygon fill="white" stroke="#666666" points="410,-162 294,-162 294,-132 410,-132 410,-162"/>
<text text-anchor="start" x="302" y="-150" font-family="Helvetica,sans-Serif" font-size="10.00">main/pathfinding/binary</text>
<text text-anchor="middle" x="352" y="-139" font-family="Helvetica,sans-Serif" font-size="10.00">_heap.h</text>
</a>
</g>
</g>
<!-- Node1&#45;&gt;Node8 -->
<g id="edge8" class="edge">
<title>Node1&#45;&gt;Node8</title>
<path fill="none" stroke="#63b8ff" d="M527.75,-194.73C492.73,-185.42 443.69,-172.38 406.3,-162.44"/>
<polygon fill="#63b8ff" stroke="#63b8ff" points="526.56,-198.04 537.12,-197.23 528.36,-191.27 526.56,-198.04"/>
</g>
<!-- Node9 -->
<g id="node9" class="node">
<title>Node9</title>
<g id="a_node9"><a xlink:href="dfs_8c.html" target="_top" xlink:title="Runs the depth first search algorithm on a maze.">
<polygon fill="white" stroke="#666666" points="727.5,-24.5 616.5,-24.5 616.5,-5.5 727.5,-5.5 727.5,-24.5"/>
<text text-anchor="middle" x="672" y="-12.5" font-family="Helvetica,sans-Serif" font-size="10.00">main/pathfinding/dfs.c</text>
</a>
</g>
</g>
<!-- Node1&#45;&gt;Node9 -->
<g id="edge15" class="edge">
<title>Node1&#45;&gt;Node9</title>
<path fill="none" stroke="#63b8ff" d="M578,-186.78C587,-158.74 605.57,-106.3 630,-66 639.52,-50.3 653.81,-34.44 663.02,-24.92"/>
<polygon fill="#63b8ff" stroke="#63b8ff" points="574.74,-185.47 575.1,-196.06 581.43,-187.56 574.74,-185.47"/>
</g>
<!-- Node10 -->
<g id="node10" class="node">
<title>Node10</title>
<g id="a_node10"><a xlink:href="floodfill_8c.html" target="_top" xlink:title="This file contains the implementation of the floodfill algorithm for mapping the maze and determining...">
<polygon fill="white" stroke="#666666" points="765.5,-90.5 638.5,-90.5 638.5,-71.5 765.5,-71.5 765.5,-90.5"/>
<text text-anchor="middle" x="702" y="-78.5" font-family="Helvetica,sans-Serif" font-size="10.00">main/pathfinding/floodfill.c</text>
</a>
</g>
</g>
<!-- Node1&#45;&gt;Node10 -->
<g id="edge20" class="edge">
<title>Node1&#45;&gt;Node10</title>
<path fill="none" stroke="#63b8ff" d="M591.69,-190.37C601.57,-182.09 613.62,-171.73 624,-162 650.61,-137.06 680.2,-105.61 694.05,-90.66"/>
<polygon fill="#63b8ff" stroke="#63b8ff" points="589.63,-187.53 584.17,-196.61 594.1,-192.92 589.63,-187.53"/>
</g>
<!-- Node11 -->
<g id="node11" class="node">
<title>Node11</title>
<g id="a_node11"><a xlink:href="dfs__tests_8c.html" target="_top" xlink:title="This file containst the functions that test the depth first search algorithm with a simulated navigat...">
<polygon fill="white" stroke="#666666" points="983.5,-24.5 894.5,-24.5 894.5,-5.5 983.5,-5.5 983.5,-24.5"/>
<text text-anchor="middle" x="939" y="-12.5" font-family="Helvetica,sans-Serif" font-size="10.00">tests/dfs_tests.c</text>
</a>
</g>
</g>
<!-- Node1&#45;&gt;Node11 -->
<g id="edge33" class="edge">
<title>Node1&#45;&gt;Node11</title>
<path fill="none" stroke="#63b8ff" d="M644.06,-204.36C758.81,-200.18 977.47,-188.89 1050,-162 1097.52,-144.38 1119.74,-141.03 1143,-96 1175.43,-33.22 1053.4,-19.43 983.98,-16.58"/>
<polygon fill="#63b8ff" stroke="#63b8ff" points="644,-200.86 634.13,-204.71 644.25,-207.85 644,-200.86"/>
</g>
<!-- Node12 -->
<g id="node12" class="node">
<title>Node12</title>
<g id="a_node12"><a xlink:href="dfs_8h.html" target="_top" xlink:title="Header file for the depth first search algorithm for mapping the maze.">
<polygon fill="white" stroke="#666666" points="933.5,-90.5 822.5,-90.5 822.5,-71.5 933.5,-71.5 933.5,-90.5"/>
<text text-anchor="middle" x="878" y="-78.5" font-family="Helvetica,sans-Serif" font-size="10.00">main/pathfinding/dfs.h</text>
</a>
</g>
</g>
<!-- Node1&#45;&gt;Node12 -->
<g id="edge16" class="edge">
<title>Node1&#45;&gt;Node12</title>
<path fill="none" stroke="#63b8ff" d="M600.05,-192.85C632.45,-177.29 687.52,-151.5 736,-132 775.16,-116.25 821.42,-100.47 850.25,-90.97"/>
<polygon fill="#63b8ff" stroke="#63b8ff" points="598.83,-189.55 591.34,-197.05 601.87,-195.86 598.83,-189.55"/>
</g>
<!-- Node13 -->
<g id="node13" class="node">
<title>Node13</title>
<g id="a_node13"><a xlink:href="floodfill_8h.html" target="_top" xlink:title="This file contains the function prototypes for the floodfill algorithm for mapping of the maze.">
<polygon fill="white" stroke="#666666" points="871.5,-156.5 744.5,-156.5 744.5,-137.5 871.5,-137.5 871.5,-156.5"/>
<text text-anchor="middle" x="808" y="-144.5" font-family="Helvetica,sans-Serif" font-size="10.00">main/pathfinding/floodfill.h</text>
</a>
</g>
</g>
<!-- Node1&#45;&gt;Node13 -->
<g id="edge21" class="edge">
<title>Node1&#45;&gt;Node13</title>
<path fill="none" stroke="#63b8ff" d="M619.04,-194.84C664.05,-183.68 730.96,-167.1 771.9,-156.95"/>
<polygon fill="#63b8ff" stroke="#63b8ff" points="618.43,-191.38 609.57,-197.19 620.12,-198.18 618.43,-191.38"/>
</g>
<!-- Node14 -->
<g id="node14" class="node">
<title>Node14</title>
<g id="a_node14"><a xlink:href="floodfill__tests_8c.html" target="_top" xlink:title="This file contains the tests for the floodfill algorithm.">
<polygon fill="white" stroke="#666666" points="1133.5,-90.5 1028.5,-90.5 1028.5,-71.5 1133.5,-71.5 1133.5,-90.5"/>
<text text-anchor="middle" x="1081" y="-78.5" font-family="Helvetica,sans-Serif" font-size="10.00">tests/floodfill_tests.c</text>
</a>
</g>
</g>
<!-- Node1&#45;&gt;Node14 -->
<g id="edge34" class="edge">
<title>Node1&#45;&gt;Node14</title>
<path fill="none" stroke="#63b8ff" d="M643.93,-206.23C753.81,-204.68 957.3,-197 1020,-162 1049.59,-145.48 1069.36,-108.06 1077.21,-90.9"/>
<polygon fill="#63b8ff" stroke="#63b8ff" points="644.1,-202.73 634.14,-206.35 644.19,-209.73 644.1,-202.73"/>
</g>
<!-- Node15 -->
<g id="node15" class="node">
<title>Node15</title>
<g id="a_node15"><a xlink:href="maze_8c.html" target="_top" xlink:title="Contains the implementation of utility maze functions.">
<polygon fill="white" stroke="#666666" points="1010.5,-156.5 889.5,-156.5 889.5,-137.5 1010.5,-137.5 1010.5,-156.5"/>
<text text-anchor="middle" x="950" y="-144.5" font-family="Helvetica,sans-Serif" font-size="10.00">main/pathfinding/maze.c</text>
</a>
</g>
</g>
<!-- Node1&#45;&gt;Node15 -->
<g id="edge28" class="edge">
<title>Node1&#45;&gt;Node15</title>
<path fill="none" stroke="#63b8ff" d="M644.2,-197.29C706.94,-189 800.18,-176.01 881,-162 889.67,-160.5 898.92,-158.73 907.74,-156.97"/>
<polygon fill="#63b8ff" stroke="#63b8ff" points="643.81,-193.81 634.35,-198.58 644.72,-200.75 643.81,-193.81"/>
</g>
<!-- Node16 -->
<g id="node16" class="node">
<title>Node16</title>
<g id="a_node16"><a xlink:href="pid_8c.html" target="_top" xlink:title=" ">
<polygon fill="white" stroke="#666666" points="581.5,-90.5 504.5,-90.5 504.5,-71.5 581.5,-71.5 581.5,-90.5"/>
<text text-anchor="middle" x="543" y="-78.5" font-family="Helvetica,sans-Serif" font-size="10.00">main/pid/pid.c</text>
</a>
</g>
</g>
<!-- Node1&#45;&gt;Node16 -->
<g id="edge29" class="edge">
<title>Node1&#45;&gt;Node16</title>
<path fill="none" stroke="#63b8ff" d="M567.36,-186.57C560.96,-159.09 549.69,-110.72 545.07,-90.87"/>
<polygon fill="#63b8ff" stroke="#63b8ff" points="563.89,-187.13 569.57,-196.07 570.71,-185.54 563.89,-187.13"/>
</g>
<!-- Node17 -->
<g id="node17" class="node">
<title>Node17</title>
<g id="a_node17"><a xlink:href="pid_8h.html" target="_top" xlink:title=" ">
<polygon fill="white" stroke="#666666" points="543.5,-156.5 466.5,-156.5 466.5,-137.5 543.5,-137.5 543.5,-156.5"/>
<text text-anchor="middle" x="505" y="-144.5" font-family="Helvetica,sans-Serif" font-size="10.00">main/pid/pid.h</text>
</a>
</g>
</g>
<!-- Node1&#45;&gt;Node17 -->
<g id="edge30" class="edge">
<title>Node1&#45;&gt;Node17</title>
<path fill="none" stroke="#63b8ff" d="M553.22,-190.1C540.93,-179.37 525.34,-165.76 515.27,-156.97"/>
<polygon fill="#63b8ff" stroke="#63b8ff" points="550.85,-192.68 560.68,-196.62 555.45,-187.41 550.85,-192.68"/>
</g>
<!-- Node3&#45;&gt;Node2 -->
<g id="edge4" class="edge">
<title>Node3&#45;&gt;Node2</title>
<path fill="none" stroke="#63b8ff" d="M248,-54.39C248,-46.13 248,-37.28 248,-30.16"/>
<polygon fill="#63b8ff" stroke="#63b8ff" points="244.5,-54.28 248,-64.28 251.5,-54.28 244.5,-54.28"/>
</g>
<!-- Node4 -->
<g id="node4" class="node">
<title>Node4</title>
<g id="a_node4"><a xlink:href="main_8c.html" target="_top" xlink:title="The main source file for robot control.">
<polygon fill="white" stroke="#666666" points="448.5,-24.5 379.5,-24.5 379.5,-5.5 448.5,-5.5 448.5,-24.5"/>
<text text-anchor="middle" x="414" y="-12.5" font-family="Helvetica,sans-Serif" font-size="10.00">main/main.c</text>
</a>
</g>
</g>
<!-- Node3&#45;&gt;Node4 -->
<g id="edge3" class="edge">
<title>Node3&#45;&gt;Node4</title>
<path fill="none" stroke="#63b8ff" d="M295.89,-61.54C327.01,-49.54 366.21,-34.43 390.69,-24.99"/>
<polygon fill="#63b8ff" stroke="#63b8ff" points="294.74,-58.23 286.67,-65.09 297.26,-64.76 294.74,-58.23"/>
</g>
<!-- Node3&#45;&gt;Node5 -->
<g id="edge5" class="edge">
<title>Node3&#45;&gt;Node5</title>
<path fill="none" stroke="#63b8ff" d="M307.02,-66.79C362.87,-54.29 445.2,-35.87 493.84,-24.99"/>
<polygon fill="#63b8ff" stroke="#63b8ff" points="306.34,-63.36 297.35,-68.96 307.87,-70.19 306.34,-63.36"/>
</g>
<!-- Node3&#45;&gt;Node6 -->
<g id="edge6" class="edge">
<title>Node3&#45;&gt;Node6</title>
<path fill="none" stroke="#63b8ff" d="M195.43,-62.01C160.15,-49.93 115.2,-34.55 87.26,-24.99"/>
<polygon fill="#63b8ff" stroke="#63b8ff" points="194.01,-65.22 204.6,-65.15 196.27,-58.6 194.01,-65.22"/>
</g>
<!-- Node8&#45;&gt;Node2 -->
<g id="edge9" class="edge">
<title>Node8&#45;&gt;Node2</title>
<path fill="none" stroke="#63b8ff" d="M340.24,-121.53C331.68,-104.98 319.15,-83.11 305,-66 293.93,-52.61 279.12,-39.73 267.37,-30.4"/>
<polygon fill="#63b8ff" stroke="#63b8ff" points="336.97,-122.82 344.59,-130.18 343.23,-119.67 336.97,-122.82"/>
</g>
<!-- Node8&#45;&gt;Node3 -->
<g id="edge10" class="edge">
<title>Node8&#45;&gt;Node3</title>
<path fill="none" stroke="#63b8ff" d="M318.91,-125.64C303.4,-116.09 285.3,-104.95 271.26,-96.31"/>
<polygon fill="#63b8ff" stroke="#63b8ff" points="317.02,-128.58 327.37,-130.84 320.69,-122.62 317.02,-128.58"/>
</g>
<!-- Node8&#45;&gt;Node7 -->
<g id="edge11" class="edge">
<title>Node8&#45;&gt;Node7</title>
<path fill="none" stroke="#63b8ff" d="M289.7,-128.51C253.77,-118.43 209.15,-105.9 175.26,-96.39"/>
<polygon fill="#63b8ff" stroke="#63b8ff" points="288.52,-131.82 299.09,-131.15 290.41,-125.08 288.52,-131.82"/>
</g>
<!-- Node8&#45;&gt;Node9 -->
<g id="edge12" class="edge">
<title>Node8&#45;&gt;Node9</title>
<path fill="none" stroke="#63b8ff" d="M356.2,-120.44C360.53,-102.43 369.15,-79.26 386,-66 462.83,-5.55 506.86,-47.72 603,-30 611.41,-28.45 620.39,-26.7 628.98,-24.98"/>
<polygon fill="#63b8ff" stroke="#63b8ff" points="352.79,-119.65 354.19,-130.15 359.64,-121.07 352.79,-119.65"/>
</g>
<!-- Node8&#45;&gt;Node10 -->
<g id="edge13" class="edge">
<title>Node8&#45;&gt;Node10</title>
<path fill="none" stroke="#63b8ff" d="M421.28,-133.33C489.72,-120.82 592.65,-102 653,-90.96"/>
<polygon fill="#63b8ff" stroke="#63b8ff" points="420.88,-129.85 411.68,-135.09 422.14,-136.73 420.88,-129.85"/>
</g>
<!-- Node8&#45;&gt;Node11 -->
<g id="edge14" class="edge">
<title>Node8&#45;&gt;Node11</title>
<path fill="none" stroke="#63b8ff" d="M381.01,-125.34C409.02,-106.52 453.36,-79.65 496,-66 569.44,-42.5 796.92,-25.29 894.17,-18.82"/>
<polygon fill="#63b8ff" stroke="#63b8ff" points="379.34,-122.24 373.06,-130.77 383.29,-128.02 379.34,-122.24"/>
</g>
<!-- Node12&#45;&gt;Node5 -->
<g id="edge19" class="edge">
<title>Node12&#45;&gt;Node5</title>
<path fill="none" stroke="#63b8ff" d="M822.95,-68.89C817.9,-67.9 812.86,-66.92 808,-66 719.27,-49.14 696.82,-46.39 608,-30 599.26,-28.39 589.94,-26.64 580.96,-24.95"/>
<polygon fill="#63b8ff" stroke="#63b8ff" points="821.99,-72.26 832.48,-70.76 823.34,-65.4 821.99,-72.26"/>
</g>
<!-- Node12&#45;&gt;Node9 -->
<g id="edge17" class="edge">
<title>Node12&#45;&gt;Node9</title>
<path fill="none" stroke="#63b8ff" d="M838.59,-67.76C798.29,-55.24 736.65,-36.08 700.73,-24.93"/>
<polygon fill="#63b8ff" stroke="#63b8ff" points="837.32,-71.03 847.91,-70.65 839.4,-64.34 837.32,-71.03"/>
</g>
<!-- Node12&#45;&gt;Node11 -->
<g id="edge18" class="edge">
<title>Node12&#45;&gt;Node11</title>
<path fill="none" stroke="#63b8ff" d="M894.22,-62.98C905.92,-50.7 921.24,-34.63 930.59,-24.82"/>
<polygon fill="#63b8ff" stroke="#63b8ff" points="891.89,-60.35 887.53,-70.01 896.96,-65.18 891.89,-60.35"/>
</g>
<!-- Node13&#45;&gt;Node5 -->
<g id="edge27" class="edge">
<title>Node13&#45;&gt;Node5</title>
<path fill="none" stroke="#63b8ff" d="M805.15,-126.05C801.44,-107.67 793.14,-81.03 775,-66 771.22,-62.87 648.7,-38.47 579.85,-24.95"/>
<polygon fill="#63b8ff" stroke="#63b8ff" points="801.66,-126.45 806.79,-135.72 808.56,-125.27 801.66,-126.45"/>
</g>
<!-- Node13&#45;&gt;Node9 -->
<g id="edge22" class="edge">
<title>Node13&#45;&gt;Node9</title>
<path fill="none" stroke="#63b8ff" d="M864.57,-134.28C912.87,-121.72 970.49,-99.02 943,-66 916.18,-33.78 799.08,-22.24 727.87,-18.17"/>
<polygon fill="#63b8ff" stroke="#63b8ff" points="863.83,-130.86 854.97,-136.67 865.52,-137.65 863.83,-130.86"/>
</g>
<!-- Node13&#45;&gt;Node10 -->
<g id="edge24" class="edge">
<title>Node13&#45;&gt;Node10</title>
<path fill="none" stroke="#63b8ff" d="M783.58,-131.25C762.88,-118.76 733.88,-101.25 716.61,-90.82"/>
<polygon fill="#63b8ff" stroke="#63b8ff" points="781.6,-134.15 791.97,-136.32 785.21,-128.15 781.6,-134.15"/>
</g>
<!-- Node13&#45;&gt;Node11 -->
<g id="edge25" class="edge">
<title>Node13&#45;&gt;Node11</title>
<path fill="none" stroke="#63b8ff" d="M857.54,-134.43C904.42,-122.98 968.69,-105.8 976,-96 993.29,-72.82 964.88,-40.26 948.83,-24.81"/>
<polygon fill="#63b8ff" stroke="#63b8ff" points="857.01,-130.96 848.11,-136.71 858.65,-137.76 857.01,-130.96"/>
</g>
<!-- Node13&#45;&gt;Node12 -->
<g id="edge23" class="edge">
<title>Node13&#45;&gt;Node12</title>
<path fill="none" stroke="#63b8ff" d="M826.23,-129.33C839.7,-117.02 857.52,-100.73 868.35,-90.82"/>
<polygon fill="#63b8ff" stroke="#63b8ff" points="823.87,-126.75 818.85,-136.08 828.59,-131.92 823.87,-126.75"/>
</g>
<!-- Node13&#45;&gt;Node14 -->
<g id="edge26" class="edge">
<title>Node13&#45;&gt;Node14</title>
<path fill="none" stroke="#63b8ff" d="M857.14,-134.48C910.47,-121.98 994.5,-102.28 1043.01,-90.91"/>
<polygon fill="#63b8ff" stroke="#63b8ff" points="856.66,-131 847.72,-136.69 858.26,-137.81 856.66,-131"/>
</g>
<!-- Node17&#45;&gt;Node4 -->
<g id="edge31" class="edge">
<title>Node17&#45;&gt;Node4</title>
<path fill="none" stroke="#63b8ff" d="M492.34,-127.92C472.59,-99.69 435.15,-46.21 420.3,-25"/>
<polygon fill="#63b8ff" stroke="#63b8ff" points="489.28,-129.64 497.88,-135.82 495.01,-125.63 489.28,-129.64"/>
</g>
<!-- Node17&#45;&gt;Node16 -->
<g id="edge32" class="edge">
<title>Node17&#45;&gt;Node16</title>
<path fill="none" stroke="#63b8ff" d="M515.97,-127.53C523.13,-115.46 532.16,-100.25 537.76,-90.82"/>
<polygon fill="#63b8ff" stroke="#63b8ff" points="513.15,-125.41 511.06,-135.8 519.17,-128.99 513.15,-125.41"/>
</g>
</g>
</svg>
