<?xml version="1.0" encoding="UTF-8" standalone="no"?>
<!DOCTYPE svg PUBLIC "-//W3C//DTD SVG 1.1//EN"
 "http://www.w3.org/Graphics/SVG/1.1/DTD/svg11.dtd">
<!-- Generated by graphviz version 7.0.5 (20221223.1930)
 -->
<!-- Title: src/pathfinding/maze.h Pages: 1 -->
<svg width="1460pt" height="225pt"
 viewBox="0.00 0.00 1460.00 225.00" xmlns="http://www.w3.org/2000/svg" xmlns:xlink="http://www.w3.org/1999/xlink">
<g id="graph0" class="graph" transform="scale(1 1) rotate(0) translate(4 221)">
<title>src/pathfinding/maze.h</title>
<!-- Node1 -->
<g id="node1" class="node">
<title>Node1</title>
<g id="a_node1"><a xlink:title="Header file for the maze data structure and public functions.">
<polygon fill="#999999" stroke="#666666" points="638,-217 525,-217 525,-198 638,-198 638,-217"/>
<text text-anchor="middle" x="581.5" y="-205" font-family="Helvetica,sans-Serif" font-size="10.00">src/pathfinding/maze.h</text>
</a>
</g>
</g>
<!-- Node2 -->
<g id="node2" class="node">
<title>Node2</title>
<g id="a_node2"><a xlink:href="pid_8c.html" target="_top" xlink:title=" ">
<polygon fill="white" stroke="#666666" points="101,-90.5 0,-90.5 0,-71.5 101,-71.5 101,-90.5"/>
<text text-anchor="middle" x="50.5" y="-78.5" font-family="Helvetica,sans-Serif" font-size="10.00">src/drivers/pid/pid.c</text>
</a>
</g>
</g>
<!-- Node1&#45;&gt;Node2 -->
<g id="edge1" class="edge">
<title>Node1&#45;&gt;Node2</title>
<path fill="none" stroke="#63b8ff" d="M513.39,-204.96C381.75,-201.35 102.39,-190.4 69.5,-162 48.65,-144 48.44,-107.67 49.6,-90.88"/>
<polygon fill="#63b8ff" stroke="#63b8ff" points="512.91,-208.44 523,-205.21 513.1,-201.45 512.91,-208.44"/>
</g>
<!-- Node3 -->
<g id="node3" class="node">
<title>Node3</title>
<g id="a_node3"><a xlink:href="pid_8h.html" target="_top" xlink:title=" ">
<polygon fill="white" stroke="#666666" points="180,-156.5 79,-156.5 79,-137.5 180,-137.5 180,-156.5"/>
<text text-anchor="middle" x="129.5" y="-144.5" font-family="Helvetica,sans-Serif" font-size="10.00">src/drivers/pid/pid.h</text>
</a>
</g>
</g>
<!-- Node1&#45;&gt;Node3 -->
<g id="edge2" class="edge">
<title>Node1&#45;&gt;Node3</title>
<path fill="none" stroke="#63b8ff" d="M513.49,-200.71C435.98,-193.63 305.65,-180.31 194.5,-162 185.96,-160.59 176.84,-158.81 168.22,-156.99"/>
<polygon fill="#63b8ff" stroke="#63b8ff" points="512.75,-204.15 523.03,-201.57 513.38,-197.18 512.75,-204.15"/>
</g>
<!-- Node5 -->
<g id="node5" class="node">
<title>Node5</title>
<g id="a_node5"><a xlink:href="a__star_8c.html" target="_top" xlink:title="Source file for the implementation of the a* algorithm.">
<polygon fill="white" stroke="#666666" points="436,-24.5 319,-24.5 319,-5.5 436,-5.5 436,-24.5"/>
<text text-anchor="middle" x="377.5" y="-12.5" font-family="Helvetica,sans-Serif" font-size="10.00">src/pathfinding/a_star.c</text>
</a>
</g>
</g>
<!-- Node1&#45;&gt;Node5 -->
<g id="edge5" class="edge">
<title>Node1&#45;&gt;Node5</title>
<path fill="none" stroke="#63b8ff" d="M513.52,-198.8C470.73,-192.39 415.01,-181.12 368.5,-162 318.56,-141.46 292.3,-143.43 266.5,-96 260.13,-84.29 259.26,-77.2 266.5,-66 280.5,-44.34 306.36,-31.97 329.61,-24.96"/>
<polygon fill="#63b8ff" stroke="#63b8ff" points="512.77,-202.23 523.17,-200.19 513.77,-195.3 512.77,-202.23"/>
</g>
<!-- Node6 -->
<g id="node6" class="node">
<title>Node6</title>
<g id="a_node6"><a xlink:href="a__star_8h.html" target="_top" xlink:title="Header file for the a* algorithm.">
<polygon fill="white" stroke="#666666" points="392,-90.5 275,-90.5 275,-71.5 392,-71.5 392,-90.5"/>
<text text-anchor="middle" x="333.5" y="-78.5" font-family="Helvetica,sans-Serif" font-size="10.00">src/pathfinding/a_star.h</text>
</a>
</g>
</g>
<!-- Node1&#45;&gt;Node6 -->
<g id="edge6" class="edge">
<title>Node1&#45;&gt;Node6</title>
<path fill="none" stroke="#63b8ff" d="M513.46,-198.6C479.5,-192.4 438.87,-181.41 406.5,-162 375.38,-143.34 349.69,-107.35 338.93,-90.76"/>
<polygon fill="#63b8ff" stroke="#63b8ff" points="512.76,-202.04 523.2,-200.27 513.94,-195.14 512.76,-202.04"/>
</g>
<!-- Node7 -->
<g id="node7" class="node">
<title>Node7</title>
<g id="a_node7"><a xlink:href="pico__pathfinding__tests_8c.html" target="_top" xlink:title="This file contains the mapping and pathfinding tests to be run on the Pico depending on the input ove...">
<polygon fill="white" stroke="#666666" points="615,-30 512,-30 512,0 615,0 615,-30"/>
<text text-anchor="start" x="520" y="-18" font-family="Helvetica,sans-Serif" font-size="10.00">src/pico_pathfinding</text>
<text text-anchor="middle" x="563.5" y="-7" font-family="Helvetica,sans-Serif" font-size="10.00">_tests.c</text>
</a>
</g>
</g>
<!-- Node1&#45;&gt;Node7 -->
<g id="edge36" class="edge">
<title>Node1&#45;&gt;Node7</title>
<path fill="none" stroke="#63b8ff" d="M513.67,-201.14C487.71,-195.38 460.51,-184.04 444.5,-162 419.42,-127.48 420.89,-101.54 444.5,-66 459.51,-43.42 486.91,-31.01 511.64,-24.21"/>
<polygon fill="#63b8ff" stroke="#63b8ff" points="512.71,-204.52 523.19,-202.99 514.04,-197.64 512.71,-204.52"/>
</g>
<!-- Node8 -->
<g id="node8" class="node">
<title>Node8</title>
<g id="a_node8"><a xlink:href="navigation__tests_8c.html" target="_top" xlink:title="Tests the combined navigational functions.">
<polygon fill="white" stroke="#666666" points="847.5,-24.5 727.5,-24.5 727.5,-5.5 847.5,-5.5 847.5,-24.5"/>
<text text-anchor="middle" x="787.5" y="-12.5" font-family="Helvetica,sans-Serif" font-size="10.00">tests/navigation_tests.c</text>
</a>
</g>
</g>
<!-- Node1&#45;&gt;Node8 -->
<g id="edge39" class="edge">
<title>Node1&#45;&gt;Node8</title>
<path fill="none" stroke="#63b8ff" d="M556.21,-191.63C514.71,-165.43 440.31,-109.66 477.5,-66 493.47,-47.25 641.43,-30.05 727.03,-21.56"/>
<polygon fill="#63b8ff" stroke="#63b8ff" points="554.32,-194.58 564.67,-196.84 557.99,-188.62 554.32,-194.58"/>
</g>
<!-- Node9 -->
<g id="node9" class="node">
<title>Node9</title>
<g id="a_node9"><a xlink:href="pathfinding__tests_8c.html" target="_top" xlink:title="This file contains the tests for the A* pathfinding algorithm.">
<polygon fill="white" stroke="#666666" points="300.5,-24.5 178.5,-24.5 178.5,-5.5 300.5,-5.5 300.5,-24.5"/>
<text text-anchor="middle" x="239.5" y="-12.5" font-family="Helvetica,sans-Serif" font-size="10.00">tests/pathfinding_tests.c</text>
</a>
</g>
</g>
<!-- Node1&#45;&gt;Node9 -->
<g id="edge40" class="edge">
<title>Node1&#45;&gt;Node9</title>
<path fill="none" stroke="#63b8ff" d="M513.48,-202.93C439.51,-197.86 327.18,-186.35 292.5,-162 245.93,-129.31 240.12,-51.32 239.52,-24.92"/>
<polygon fill="#63b8ff" stroke="#63b8ff" points="512.84,-206.39 523.05,-203.56 513.3,-199.41 512.84,-206.39"/>
</g>
<!-- Node10 -->
<g id="node10" class="node">
<title>Node10</title>
<g id="a_node10"><a xlink:href="binary__heap_8c.html" target="_top" xlink:title="Source file for the binary min&#45;heap used in the a* algorithm and floodfill algorithm.">
<polygon fill="white" stroke="#666666" points="594.5,-96 486.5,-96 486.5,-66 594.5,-66 594.5,-96"/>
<text text-anchor="start" x="494.5" y="-84" font-family="Helvetica,sans-Serif" font-size="10.00">src/pathfinding/binary</text>
<text text-anchor="middle" x="540.5" y="-73" font-family="Helvetica,sans-Serif" font-size="10.00">_heap.c</text>
</a>
</g>
</g>
<!-- Node1&#45;&gt;Node10 -->
<g id="edge12" class="edge">
<title>Node1&#45;&gt;Node10</title>
<path fill="none" stroke="#63b8ff" d="M570.9,-187.46C566.92,-179.73 562.6,-170.61 559.5,-162 551.46,-139.71 545.86,-112.69 542.91,-96.45"/>
<polygon fill="#63b8ff" stroke="#63b8ff" points="567.8,-189.07 575.61,-196.23 573.96,-185.76 567.8,-189.07"/>
</g>
<!-- Node11 -->
<g id="node11" class="node">
<title>Node11</title>
<g id="a_node11"><a xlink:href="binary__heap_8h.html" target="_top" xlink:title="This file contains the declarations for the binary min&#45;heap used in the a* algorithm.">
<polygon fill="white" stroke="#666666" points="676.5,-162 568.5,-162 568.5,-132 676.5,-132 676.5,-162"/>
<text text-anchor="start" x="576.5" y="-150" font-family="Helvetica,sans-Serif" font-size="10.00">src/pathfinding/binary</text>
<text text-anchor="middle" x="622.5" y="-139" font-family="Helvetica,sans-Serif" font-size="10.00">_heap.h</text>
</a>
</g>
</g>
<!-- Node1&#45;&gt;Node11 -->
<g id="edge13" class="edge">
<title>Node1&#45;&gt;Node11</title>
<path fill="none" stroke="#63b8ff" d="M594.12,-188.5C600.06,-180.01 607.05,-170.04 612.61,-162.11"/>
<polygon fill="#63b8ff" stroke="#63b8ff" points="591.29,-186.43 588.42,-196.63 597.02,-190.45 591.29,-186.43"/>
</g>
<!-- Node12 -->
<g id="node12" class="node">
<title>Node12</title>
<g id="a_node12"><a xlink:href="dfs_8c.html" target="_top" xlink:title="Runs the depth first search algorithm on a maze.">
<polygon fill="white" stroke="#666666" points="1016.5,-24.5 912.5,-24.5 912.5,-5.5 1016.5,-5.5 1016.5,-24.5"/>
<text text-anchor="middle" x="964.5" y="-12.5" font-family="Helvetica,sans-Serif" font-size="10.00">src/pathfinding/dfs.c</text>
</a>
</g>
</g>
<!-- Node1&#45;&gt;Node12 -->
<g id="edge20" class="edge">
<title>Node1&#45;&gt;Node12</title>
<path fill="none" stroke="#63b8ff" d="M649.73,-207.18C807.36,-207.03 1188.34,-196.12 1253.5,-96 1260.77,-84.82 1262.09,-76.2 1253.5,-66 1253.02,-65.43 1099.86,-39.16 1016.73,-24.93"/>
<polygon fill="#63b8ff" stroke="#63b8ff" points="649.84,-203.68 639.84,-207.18 649.84,-210.68 649.84,-203.68"/>
</g>
<!-- Node13 -->
<g id="node13" class="node">
<title>Node13</title>
<g id="a_node13"><a xlink:href="floodfill_8c.html" target="_top" xlink:title="This file contains the implementation of the floodfill algorithm for mapping the maze and determining...">
<polygon fill="white" stroke="#666666" points="846,-90.5 727,-90.5 727,-71.5 846,-71.5 846,-90.5"/>
<text text-anchor="middle" x="786.5" y="-78.5" font-family="Helvetica,sans-Serif" font-size="10.00">src/pathfinding/floodfill.c</text>
</a>
</g>
</g>
<!-- Node1&#45;&gt;Node13 -->
<g id="edge26" class="edge">
<title>Node1&#45;&gt;Node13</title>
<path fill="none" stroke="#63b8ff" d="M618.41,-193.47C638.83,-185.59 664.29,-174.63 685.5,-162 722.02,-140.25 759.96,-106.72 777.1,-90.87"/>
<polygon fill="#63b8ff" stroke="#63b8ff" points="617.18,-190.19 609.06,-196.99 619.65,-196.74 617.18,-190.19"/>
</g>
<!-- Node14 -->
<g id="node14" class="node">
<title>Node14</title>
<g id="a_node14"><a xlink:href="dfs__tests_8c.html" target="_top" xlink:title="This file containst the functions that test the depth first search algorithm with a simulated navigat...">
<polygon fill="white" stroke="#666666" points="1144,-24.5 1055,-24.5 1055,-5.5 1144,-5.5 1144,-24.5"/>
<text text-anchor="middle" x="1099.5" y="-12.5" font-family="Helvetica,sans-Serif" font-size="10.00">tests/dfs_tests.c</text>
</a>
</g>
</g>
<!-- Node1&#45;&gt;Node14 -->
<g id="edge37" class="edge">
<title>Node1&#45;&gt;Node14</title>
<path fill="none" stroke="#63b8ff" d="M649.42,-206.56C786.47,-205.87 1091.21,-199.96 1187.5,-162 1239.7,-141.42 1303.12,-110.93 1269.5,-66 1254.43,-45.86 1189.27,-31.05 1144.14,-22.98"/>
<polygon fill="#63b8ff" stroke="#63b8ff" points="649.77,-203.06 639.78,-206.6 649.8,-210.06 649.77,-203.06"/>
</g>
<!-- Node15 -->
<g id="node15" class="node">
<title>Node15</title>
<g id="a_node15"><a xlink:href="dfs_8h.html" target="_top" xlink:title="Header file for the depth first search algorithm for mapping the maze.">
<polygon fill="white" stroke="#666666" points="1006.5,-90.5 902.5,-90.5 902.5,-71.5 1006.5,-71.5 1006.5,-90.5"/>
<text text-anchor="middle" x="954.5" y="-78.5" font-family="Helvetica,sans-Serif" font-size="10.00">src/pathfinding/dfs.h</text>
</a>
</g>
</g>
<!-- Node1&#45;&gt;Node15 -->
<g id="edge21" class="edge">
<title>Node1&#45;&gt;Node15</title>
<path fill="none" stroke="#63b8ff" d="M620.63,-194.07C648.29,-185.23 686.21,-173.03 719.5,-162 795.8,-136.71 885.65,-105.81 928.81,-90.9"/>
<polygon fill="#63b8ff" stroke="#63b8ff" points="619.73,-190.68 611.27,-197.05 621.86,-197.35 619.73,-190.68"/>
</g>
<!-- Node16 -->
<g id="node16" class="node">
<title>Node16</title>
<g id="a_node16"><a xlink:href="floodfill_8h.html" target="_top" xlink:title="This file contains the function prototypes for the floodfill algorithm for mapping of the maze.">
<polygon fill="white" stroke="#666666" points="1051,-156.5 932,-156.5 932,-137.5 1051,-137.5 1051,-156.5"/>
<text text-anchor="middle" x="991.5" y="-144.5" font-family="Helvetica,sans-Serif" font-size="10.00">src/pathfinding/floodfill.h</text>
</a>
</g>
</g>
<!-- Node1&#45;&gt;Node16 -->
<g id="edge27" class="edge">
<title>Node1&#45;&gt;Node16</title>
<path fill="none" stroke="#63b8ff" d="M649.53,-197.01C713.34,-188.08 811.41,-174.28 896.5,-162 907.89,-160.36 920.03,-158.58 931.71,-156.87"/>
<polygon fill="#63b8ff" stroke="#63b8ff" points="649.34,-193.5 639.92,-198.35 650.31,-200.43 649.34,-193.5"/>
</g>
<!-- Node17 -->
<g id="node17" class="node">
<title>Node17</title>
<g id="a_node17"><a xlink:href="floodfill__tests_8c.html" target="_top" xlink:title="This file contains the tests for the floodfill algorithm.">
<polygon fill="white" stroke="#666666" points="1244,-90.5 1139,-90.5 1139,-71.5 1244,-71.5 1244,-90.5"/>
<text text-anchor="middle" x="1191.5" y="-78.5" font-family="Helvetica,sans-Serif" font-size="10.00">tests/floodfill_tests.c</text>
</a>
</g>
</g>
<!-- Node1&#45;&gt;Node17 -->
<g id="edge38" class="edge">
<title>Node1&#45;&gt;Node17</title>
<path fill="none" stroke="#63b8ff" d="M649.53,-203.97C763.06,-199.11 986.07,-186.7 1060.5,-162 1109.57,-145.72 1159.5,-108.17 1180.8,-90.94"/>
<polygon fill="#63b8ff" stroke="#63b8ff" points="649.58,-200.46 639.74,-204.38 649.88,-207.46 649.58,-200.46"/>
</g>
<!-- Node18 -->
<g id="node18" class="node">
<title>Node18</title>
<g id="a_node18"><a xlink:href="maze_8c.html" target="_top" xlink:title="Contains the implementation of utility maze functions.">
<polygon fill="white" stroke="#666666" points="1452,-156.5 1339,-156.5 1339,-137.5 1452,-137.5 1452,-156.5"/>
<text text-anchor="middle" x="1395.5" y="-144.5" font-family="Helvetica,sans-Serif" font-size="10.00">src/pathfinding/maze.c</text>
</a>
</g>
</g>
<!-- Node1&#45;&gt;Node18 -->
<g id="edge35" class="edge">
<title>Node1&#45;&gt;Node18</title>
<path fill="none" stroke="#63b8ff" d="M649.55,-205.49C780.66,-202.86 1077.21,-193.64 1324.5,-162 1334.47,-160.72 1345.14,-158.88 1355.1,-156.94"/>
<polygon fill="#63b8ff" stroke="#63b8ff" points="649.58,-201.99 639.65,-205.68 649.71,-208.99 649.58,-201.99"/>
</g>
<!-- Node3&#45;&gt;Node2 -->
<g id="edge3" class="edge">
<title>Node3&#45;&gt;Node2</title>
<path fill="none" stroke="#63b8ff" d="M109.8,-130.04C94.5,-117.64 73.85,-100.92 61.39,-90.82"/>
<polygon fill="#63b8ff" stroke="#63b8ff" points="107.37,-132.57 117.34,-136.15 111.77,-127.13 107.37,-132.57"/>
</g>
<!-- Node4 -->
<g id="node4" class="node">
<title>Node4</title>
<g id="a_node4"><a xlink:href="main_8c.html" target="_top" xlink:title="The main source file for robot control.">
<polygon fill="white" stroke="#666666" points="160.5,-24.5 98.5,-24.5 98.5,-5.5 160.5,-5.5 160.5,-24.5"/>
<text text-anchor="middle" x="129.5" y="-12.5" font-family="Helvetica,sans-Serif" font-size="10.00">src/main.c</text>
</a>
</g>
</g>
<!-- Node3&#45;&gt;Node4 -->
<g id="edge4" class="edge">
<title>Node3&#45;&gt;Node4</title>
<path fill="none" stroke="#63b8ff" d="M129.5,-125.64C129.5,-96.9 129.5,-45.65 129.5,-25"/>
<polygon fill="#63b8ff" stroke="#63b8ff" points="126,-125.55 129.5,-135.55 133,-125.55 126,-125.55"/>
</g>
<!-- Node6&#45;&gt;Node4 -->
<g id="edge7" class="edge">
<title>Node6&#45;&gt;Node4</title>
<path fill="none" stroke="#63b8ff" d="M292.17,-67.91C258.92,-58.06 211.06,-43.6 169.5,-30 164.61,-28.4 159.4,-26.63 154.41,-24.9"/>
<polygon fill="#63b8ff" stroke="#63b8ff" points="290.82,-71.16 301.4,-70.63 292.8,-64.44 290.82,-71.16"/>
</g>
<!-- Node6&#45;&gt;Node5 -->
<g id="edge8" class="edge">
<title>Node6&#45;&gt;Node5</title>
<path fill="none" stroke="#63b8ff" d="M345.95,-61.9C354.28,-49.77 364.89,-34.34 371.43,-24.82"/>
<polygon fill="#63b8ff" stroke="#63b8ff" points="343.26,-59.63 340.48,-69.85 349.02,-63.6 343.26,-59.63"/>
</g>
<!-- Node6&#45;&gt;Node7 -->
<g id="edge9" class="edge">
<title>Node6&#45;&gt;Node7</title>
<path fill="none" stroke="#63b8ff" d="M376.29,-68.09C414.66,-57.42 471.05,-41.72 511.91,-30.36"/>
<polygon fill="#63b8ff" stroke="#63b8ff" points="375.63,-64.64 366.94,-70.7 377.51,-71.39 375.63,-64.64"/>
</g>
<!-- Node6&#45;&gt;Node8 -->
<g id="edge10" class="edge">
<title>Node6&#45;&gt;Node8</title>
<path fill="none" stroke="#63b8ff" d="M403.68,-70.11C492.38,-57.6 643.57,-36.29 727.27,-24.49"/>
<polygon fill="#63b8ff" stroke="#63b8ff" points="403.3,-66.63 393.89,-71.49 404.28,-73.56 403.3,-66.63"/>
</g>
<!-- Node6&#45;&gt;Node9 -->
<g id="edge11" class="edge">
<title>Node6&#45;&gt;Node9</title>
<path fill="none" stroke="#63b8ff" d="M311.08,-64.74C292.78,-52.28 267.56,-35.11 252.46,-24.82"/>
<polygon fill="#63b8ff" stroke="#63b8ff" points="308.94,-67.51 319.18,-70.25 312.88,-61.73 308.94,-67.51"/>
</g>
<!-- Node11&#45;&gt;Node5 -->
<g id="edge14" class="edge">
<title>Node11&#45;&gt;Node5</title>
<path fill="none" stroke="#63b8ff" d="M623.1,-120.2C622.08,-102.6 617.73,-80.01 603.5,-66 580.2,-43.06 495.18,-29.08 436.34,-21.94"/>
<polygon fill="#63b8ff" stroke="#63b8ff" points="619.6,-120.25 623.32,-130.18 626.6,-120.1 619.6,-120.25"/>
</g>
<!-- Node11&#45;&gt;Node6 -->
<g id="edge15" class="edge">
<title>Node11&#45;&gt;Node6</title>
<path fill="none" stroke="#63b8ff" d="M557.22,-131.54C501.01,-119.09 421.64,-101.52 374.1,-90.99"/>
<polygon fill="#63b8ff" stroke="#63b8ff" points="556.14,-134.89 566.66,-133.63 557.66,-128.06 556.14,-134.89"/>
</g>
<!-- Node11&#45;&gt;Node10 -->
<g id="edge16" class="edge">
<title>Node11&#45;&gt;Node10</title>
<path fill="none" stroke="#63b8ff" d="M595.56,-124.97C583.56,-115.61 569.73,-104.81 558.93,-96.39"/>
<polygon fill="#63b8ff" stroke="#63b8ff" points="593.07,-127.47 603.11,-130.87 597.38,-121.95 593.07,-127.47"/>
</g>
<!-- Node11&#45;&gt;Node12 -->
<g id="edge17" class="edge">
<title>Node11&#45;&gt;Node12</title>
<path fill="none" stroke="#63b8ff" d="M634.97,-121.53C645.6,-103.25 662.63,-79.23 684.5,-66 703.67,-54.4 836.4,-34.12 912.03,-23.29"/>
<polygon fill="#63b8ff" stroke="#63b8ff" points="631.96,-119.74 630.19,-130.18 638.09,-123.12 631.96,-119.74"/>
</g>
<!-- Node11&#45;&gt;Node13 -->
<g id="edge18" class="edge">
<title>Node11&#45;&gt;Node13</title>
<path fill="none" stroke="#63b8ff" d="M669.81,-127.54C700.56,-115.54 739.29,-100.43 763.47,-90.99"/>
<polygon fill="#63b8ff" stroke="#63b8ff" points="668.76,-124.19 660.71,-131.09 671.3,-130.71 668.76,-124.19"/>
</g>
<!-- Node11&#45;&gt;Node14 -->
<g id="edge19" class="edge">
<title>Node11&#45;&gt;Node14</title>
<path fill="none" stroke="#63b8ff" d="M648.07,-124.39C675.8,-101 716.41,-66.9 718.5,-66 844.73,-11.78 889.7,-50.78 1025.5,-30 1035.06,-28.54 1045.28,-26.75 1054.98,-24.95"/>
<polygon fill="#63b8ff" stroke="#63b8ff" points="646.13,-121.45 640.74,-130.57 650.64,-126.8 646.13,-121.45"/>
</g>
<!-- Node15&#45;&gt;Node7 -->
<g id="edge23" class="edge">
<title>Node15&#45;&gt;Node7</title>
<path fill="none" stroke="#63b8ff" d="M902.85,-68.75C898.01,-67.79 893.17,-66.85 888.5,-66 792.47,-48.44 679.72,-32.03 615.44,-23.07"/>
<polygon fill="#63b8ff" stroke="#63b8ff" points="902.1,-72.17 912.6,-70.75 903.5,-65.31 902.1,-72.17"/>
</g>
<!-- Node15&#45;&gt;Node8 -->
<g id="edge25" class="edge">
<title>Node15&#45;&gt;Node8</title>
<path fill="none" stroke="#63b8ff" d="M920.86,-67.11C888.18,-54.58 839.41,-35.89 810.79,-24.93"/>
<polygon fill="#63b8ff" stroke="#63b8ff" points="919.28,-70.25 929.87,-70.56 921.78,-63.71 919.28,-70.25"/>
</g>
<!-- Node15&#45;&gt;Node12 -->
<g id="edge22" class="edge">
<title>Node15&#45;&gt;Node12</title>
<path fill="none" stroke="#63b8ff" d="M957.62,-60.05C959.46,-48.24 961.71,-33.87 963.12,-24.82"/>
<polygon fill="#63b8ff" stroke="#63b8ff" points="954.21,-59.19 956.12,-69.61 961.13,-60.27 954.21,-59.19"/>
</g>
<!-- Node15&#45;&gt;Node14 -->
<g id="edge24" class="edge">
<title>Node15&#45;&gt;Node14</title>
<path fill="none" stroke="#63b8ff" d="M984.85,-66.6C1013.31,-54.04 1055.03,-35.63 1079.51,-24.82"/>
<polygon fill="#63b8ff" stroke="#63b8ff" points="983.78,-63.25 976.05,-70.49 986.61,-69.65 983.78,-63.25"/>
</g>
<!-- Node16&#45;&gt;Node7 -->
<g id="edge31" class="edge">
<title>Node16&#45;&gt;Node7</title>
<path fill="none" stroke="#63b8ff" d="M961.06,-132.38C941.27,-123.06 915.21,-109.92 893.5,-96 875.38,-84.39 875.16,-74.75 855.5,-66 813.45,-47.27 687.44,-30.29 615.45,-21.77"/>
<polygon fill="#63b8ff" stroke="#63b8ff" points="959.43,-135.47 969.97,-136.5 962.37,-129.12 959.43,-135.47"/>
</g>
<!-- Node16&#45;&gt;Node8 -->
<g id="edge34" class="edge">
<title>Node16&#45;&gt;Node8</title>
<path fill="none" stroke="#63b8ff" d="M1005.49,-127.93C1017.22,-110.42 1029.94,-83.94 1015.5,-66 1004.83,-52.74 909.97,-35.35 846.02,-24.96"/>
<polygon fill="#63b8ff" stroke="#63b8ff" points="1002.79,-125.68 999.79,-135.84 1008.47,-129.77 1002.79,-125.68"/>
</g>
<!-- Node16&#45;&gt;Node12 -->
<g id="edge28" class="edge">
<title>Node16&#45;&gt;Node12</title>
<path fill="none" stroke="#63b8ff" d="M1017.29,-130.74C1029.15,-122.18 1042.01,-110.33 1048.5,-96 1054,-83.85 1055.09,-77.59 1048.5,-66 1036.84,-45.49 1013.08,-32.51 993.79,-24.93"/>
<polygon fill="#63b8ff" stroke="#63b8ff" points="1015.35,-127.83 1008.98,-136.3 1019.24,-133.65 1015.35,-127.83"/>
</g>
<!-- Node16&#45;&gt;Node13 -->
<g id="edge30" class="edge">
<title>Node16&#45;&gt;Node13</title>
<path fill="none" stroke="#63b8ff" d="M952.03,-133.68C911.92,-121.15 850.76,-102.06 815.09,-90.93"/>
<polygon fill="#63b8ff" stroke="#63b8ff" points="950.96,-137.01 961.55,-136.65 953.05,-130.33 950.96,-137.01"/>
</g>
<!-- Node16&#45;&gt;Node14 -->
<g id="edge32" class="edge">
<title>Node16&#45;&gt;Node14</title>
<path fill="none" stroke="#63b8ff" d="M1019.91,-131.6C1034.76,-122.93 1052.32,-110.71 1064.5,-96 1082.86,-73.81 1093.25,-40.49 1097.38,-24.79"/>
<polygon fill="#63b8ff" stroke="#63b8ff" points="1018.52,-128.37 1011.49,-136.29 1021.93,-134.48 1018.52,-128.37"/>
</g>
<!-- Node16&#45;&gt;Node15 -->
<g id="edge29" class="edge">
<title>Node16&#45;&gt;Node15</title>
<path fill="none" stroke="#63b8ff" d="M980.61,-127.16C973.67,-115.16 965,-100.15 959.6,-90.82"/>
<polygon fill="#63b8ff" stroke="#63b8ff" points="977.56,-128.89 985.6,-135.79 983.62,-125.38 977.56,-128.89"/>
</g>
<!-- Node16&#45;&gt;Node17 -->
<g id="edge33" class="edge">
<title>Node16&#45;&gt;Node17</title>
<path fill="none" stroke="#63b8ff" d="M1030.26,-133.6C1069.4,-121.07 1128.88,-102.04 1163.61,-90.93"/>
<polygon fill="#63b8ff" stroke="#63b8ff" points="1029.21,-130.26 1020.75,-136.64 1031.34,-136.93 1029.21,-130.26"/>
</g>
</g>
</svg>
