<?xml version="1.0" encoding="UTF-8" standalone="no"?>
<!DOCTYPE svg PUBLIC "-//W3C//DTD SVG 1.1//EN"
 "http://www.w3.org/Graphics/SVG/1.1/DTD/svg11.dtd">
<!-- Generated by graphviz version 7.0.5 (20221223.1930)
 -->
<!-- Title: src/pathfinding/maze.h Pages: 1 -->
<svg width="1547pt" height="225pt"
 viewBox="0.00 0.00 1547.00 225.00" xmlns="http://www.w3.org/2000/svg" xmlns:xlink="http://www.w3.org/1999/xlink">
<g id="graph0" class="graph" transform="scale(1 1) rotate(0) translate(4 221)">
<title>src/pathfinding/maze.h</title>
<!-- Node1 -->
<g id="node1" class="node">
<title>Node1</title>
<g id="a_node1"><a xlink:title="Header file for the maze data structure and public functions.">
<polygon fill="#999999" stroke="#666666" points="725,-217 612,-217 612,-198 725,-198 725,-217"/>
<text text-anchor="middle" x="668.5" y="-205" font-family="Helvetica,sans-Serif" font-size="10.00">src/pathfinding/maze.h</text>
</a>
</g>
</g>
<!-- Node2 -->
<g id="node2" class="node">
<title>Node2</title>
<g id="a_node2"><a xlink:href="pid_8c.html" target="_top" xlink:title=" ">
<polygon fill="white" stroke="#666666" points="101,-90.5 0,-90.5 0,-71.5 101,-71.5 101,-90.5"/>
<text text-anchor="middle" x="50.5" y="-78.5" font-family="Helvetica,sans-Serif" font-size="10.00">src/drivers/pid/pid.c</text>
</a>
</g>
</g>
<!-- Node1&#45;&gt;Node2 -->
<g id="edge1" class="edge">
<title>Node1&#45;&gt;Node2</title>
<path fill="none" stroke="#63b8ff" d="M600.5,-204.16C461.32,-198.93 153.48,-184.91 111.5,-162 81.76,-145.77 62.06,-108.2 54.27,-90.95"/>
<polygon fill="#63b8ff" stroke="#63b8ff" points="600.19,-207.65 610.32,-204.53 600.45,-200.66 600.19,-207.65"/>
</g>
<!-- Node3 -->
<g id="node3" class="node">
<title>Node3</title>
<g id="a_node3"><a xlink:href="pid_8h.html" target="_top" xlink:title=" ">
<polygon fill="white" stroke="#666666" points="222,-156.5 121,-156.5 121,-137.5 222,-137.5 222,-156.5"/>
<text text-anchor="middle" x="171.5" y="-144.5" font-family="Helvetica,sans-Serif" font-size="10.00">src/drivers/pid/pid.h</text>
</a>
</g>
</g>
<!-- Node1&#45;&gt;Node3 -->
<g id="edge2" class="edge">
<title>Node1&#45;&gt;Node3</title>
<path fill="none" stroke="#63b8ff" d="M600.74,-198.96C523.46,-190.3 393.33,-175.55 281.5,-162 262.2,-159.66 241,-156.99 222.42,-154.61"/>
<polygon fill="#63b8ff" stroke="#63b8ff" points="599.92,-202.39 610.25,-200.02 600.7,-195.43 599.92,-202.39"/>
</g>
<!-- Node6 -->
<g id="node6" class="node">
<title>Node6</title>
<g id="a_node6"><a xlink:href="a__star_8c.html" target="_top" xlink:title="Source file for the implementation of the a* algorithm.">
<polygon fill="white" stroke="#666666" points="492,-24.5 375,-24.5 375,-5.5 492,-5.5 492,-24.5"/>
<text text-anchor="middle" x="433.5" y="-12.5" font-family="Helvetica,sans-Serif" font-size="10.00">src/pathfinding/a_star.c</text>
</a>
</g>
</g>
<!-- Node1&#45;&gt;Node6 -->
<g id="edge6" class="edge">
<title>Node1&#45;&gt;Node6</title>
<path fill="none" stroke="#63b8ff" d="M600.52,-198.8C557.73,-192.39 502.01,-181.12 455.5,-162 405.56,-141.46 379.3,-143.43 353.5,-96 347.13,-84.29 347.04,-77.66 353.5,-66 364.7,-45.8 387.83,-32.68 406.35,-24.98"/>
<polygon fill="#63b8ff" stroke="#63b8ff" points="599.77,-202.23 610.17,-200.19 600.77,-195.3 599.77,-202.23"/>
</g>
<!-- Node7 -->
<g id="node7" class="node">
<title>Node7</title>
<g id="a_node7"><a xlink:href="a__star_8h.html" target="_top" xlink:title="Header file for the a* algorithm.">
<polygon fill="white" stroke="#666666" points="479,-90.5 362,-90.5 362,-71.5 479,-71.5 479,-90.5"/>
<text text-anchor="middle" x="420.5" y="-78.5" font-family="Helvetica,sans-Serif" font-size="10.00">src/pathfinding/a_star.h</text>
</a>
</g>
</g>
<!-- Node1&#45;&gt;Node7 -->
<g id="edge7" class="edge">
<title>Node1&#45;&gt;Node7</title>
<path fill="none" stroke="#63b8ff" d="M600.46,-198.6C566.5,-192.4 525.87,-181.41 493.5,-162 462.38,-143.34 436.69,-107.35 425.93,-90.76"/>
<polygon fill="#63b8ff" stroke="#63b8ff" points="599.76,-202.04 610.2,-200.27 600.94,-195.14 599.76,-202.04"/>
</g>
<!-- Node8 -->
<g id="node8" class="node">
<title>Node8</title>
<g id="a_node8"><a xlink:href="pico__pathfinding__tests_8c.html" target="_top" xlink:title="This file contains the mapping and pathfinding tests to be run on the Pico depending on the input ove...">
<polygon fill="white" stroke="#666666" points="681,-30 578,-30 578,0 681,0 681,-30"/>
<text text-anchor="start" x="586" y="-18" font-family="Helvetica,sans-Serif" font-size="10.00">src/pico_pathfinding</text>
<text text-anchor="middle" x="629.5" y="-7" font-family="Helvetica,sans-Serif" font-size="10.00">_tests.c</text>
</a>
</g>
</g>
<!-- Node1&#45;&gt;Node8 -->
<g id="edge37" class="edge">
<title>Node1&#45;&gt;Node8</title>
<path fill="none" stroke="#63b8ff" d="M600.67,-201.14C574.71,-195.38 547.51,-184.04 531.5,-162 506.42,-127.48 509.22,-102.39 531.5,-66 541.82,-49.14 559.82,-37.74 577.59,-30.14"/>
<polygon fill="#63b8ff" stroke="#63b8ff" points="599.71,-204.52 610.19,-202.99 601.04,-197.64 599.71,-204.52"/>
</g>
<!-- Node9 -->
<g id="node9" class="node">
<title>Node9</title>
<g id="a_node9"><a xlink:href="navigation__tests_8c.html" target="_top" xlink:title="Tests the combined navigational functions.">
<polygon fill="white" stroke="#666666" points="951.5,-24.5 831.5,-24.5 831.5,-5.5 951.5,-5.5 951.5,-24.5"/>
<text text-anchor="middle" x="891.5" y="-12.5" font-family="Helvetica,sans-Serif" font-size="10.00">tests/navigation_tests.c</text>
</a>
</g>
</g>
<!-- Node1&#45;&gt;Node9 -->
<g id="edge40" class="edge">
<title>Node1&#45;&gt;Node9</title>
<path fill="none" stroke="#63b8ff" d="M643.17,-191.6C601.61,-165.35 527.14,-109.51 564.5,-66 581.62,-46.07 741.36,-29.08 831.07,-21.02"/>
<polygon fill="#63b8ff" stroke="#63b8ff" points="641.3,-194.56 651.65,-196.82 644.97,-188.6 641.3,-194.56"/>
</g>
<!-- Node10 -->
<g id="node10" class="node">
<title>Node10</title>
<g id="a_node10"><a xlink:href="pathfinding__tests_8c.html" target="_top" xlink:title="This file contains the tests for the A* pathfinding algorithm.">
<polygon fill="white" stroke="#666666" points="356.5,-24.5 234.5,-24.5 234.5,-5.5 356.5,-5.5 356.5,-24.5"/>
<text text-anchor="middle" x="295.5" y="-12.5" font-family="Helvetica,sans-Serif" font-size="10.00">tests/pathfinding_tests.c</text>
</a>
</g>
</g>
<!-- Node1&#45;&gt;Node10 -->
<g id="edge41" class="edge">
<title>Node1&#45;&gt;Node10</title>
<path fill="none" stroke="#63b8ff" d="M600.58,-202.79C526.7,-197.59 414.45,-185.95 379.5,-162 328.6,-127.12 304.54,-50.56 297.66,-24.71"/>
<polygon fill="#63b8ff" stroke="#63b8ff" points="599.92,-206.25 610.13,-203.43 600.39,-199.26 599.92,-206.25"/>
</g>
<!-- Node11 -->
<g id="node11" class="node">
<title>Node11</title>
<g id="a_node11"><a xlink:href="binary__heap_8c.html" target="_top" xlink:title="Source file for the binary min&#45;heap used in the a* algorithm and floodfill algorithm.">
<polygon fill="white" stroke="#666666" points="681.5,-96 573.5,-96 573.5,-66 681.5,-66 681.5,-96"/>
<text text-anchor="start" x="581.5" y="-84" font-family="Helvetica,sans-Serif" font-size="10.00">src/pathfinding/binary</text>
<text text-anchor="middle" x="627.5" y="-73" font-family="Helvetica,sans-Serif" font-size="10.00">_heap.c</text>
</a>
</g>
</g>
<!-- Node1&#45;&gt;Node11 -->
<g id="edge13" class="edge">
<title>Node1&#45;&gt;Node11</title>
<path fill="none" stroke="#63b8ff" d="M657.9,-187.46C653.92,-179.73 649.6,-170.61 646.5,-162 638.46,-139.71 632.86,-112.69 629.91,-96.45"/>
<polygon fill="#63b8ff" stroke="#63b8ff" points="654.8,-189.07 662.61,-196.23 660.96,-185.76 654.8,-189.07"/>
</g>
<!-- Node12 -->
<g id="node12" class="node">
<title>Node12</title>
<g id="a_node12"><a xlink:href="binary__heap_8h.html" target="_top" xlink:title="This file contains the declarations for the binary min&#45;heap used in the a* algorithm.">
<polygon fill="white" stroke="#666666" points="763.5,-162 655.5,-162 655.5,-132 763.5,-132 763.5,-162"/>
<text text-anchor="start" x="663.5" y="-150" font-family="Helvetica,sans-Serif" font-size="10.00">src/pathfinding/binary</text>
<text text-anchor="middle" x="709.5" y="-139" font-family="Helvetica,sans-Serif" font-size="10.00">_heap.h</text>
</a>
</g>
</g>
<!-- Node1&#45;&gt;Node12 -->
<g id="edge14" class="edge">
<title>Node1&#45;&gt;Node12</title>
<path fill="none" stroke="#63b8ff" d="M681.12,-188.5C687.06,-180.01 694.05,-170.04 699.61,-162.11"/>
<polygon fill="#63b8ff" stroke="#63b8ff" points="678.29,-186.43 675.42,-196.63 684.02,-190.45 678.29,-186.43"/>
</g>
<!-- Node13 -->
<g id="node13" class="node">
<title>Node13</title>
<g id="a_node13"><a xlink:href="dfs_8c.html" target="_top" xlink:title="Runs the depth first search algorithm on a maze.">
<polygon fill="white" stroke="#666666" points="1248.5,-24.5 1144.5,-24.5 1144.5,-5.5 1248.5,-5.5 1248.5,-24.5"/>
<text text-anchor="middle" x="1196.5" y="-12.5" font-family="Helvetica,sans-Serif" font-size="10.00">src/pathfinding/dfs.c</text>
</a>
</g>
</g>
<!-- Node1&#45;&gt;Node13 -->
<g id="edge21" class="edge">
<title>Node1&#45;&gt;Node13</title>
<path fill="none" stroke="#63b8ff" d="M736.81,-205.81C872.49,-203.72 1171.16,-195.37 1267.5,-162 1317.12,-144.81 1340.83,-142.36 1365.5,-96 1391.54,-47.07 1307.66,-27.82 1248.9,-20.43"/>
<polygon fill="#63b8ff" stroke="#63b8ff" points="736.83,-202.31 726.88,-205.95 736.93,-209.31 736.83,-202.31"/>
</g>
<!-- Node14 -->
<g id="node14" class="node">
<title>Node14</title>
<g id="a_node14"><a xlink:href="floodfill_8c.html" target="_top" xlink:title="This file contains the implementation of the floodfill algorithm for mapping the maze and determining...">
<polygon fill="white" stroke="#666666" points="933,-90.5 814,-90.5 814,-71.5 933,-71.5 933,-90.5"/>
<text text-anchor="middle" x="873.5" y="-78.5" font-family="Helvetica,sans-Serif" font-size="10.00">src/pathfinding/floodfill.c</text>
</a>
</g>
</g>
<!-- Node1&#45;&gt;Node14 -->
<g id="edge27" class="edge">
<title>Node1&#45;&gt;Node14</title>
<path fill="none" stroke="#63b8ff" d="M705.41,-193.47C725.83,-185.59 751.29,-174.63 772.5,-162 809.02,-140.25 846.96,-106.72 864.1,-90.87"/>
<polygon fill="#63b8ff" stroke="#63b8ff" points="704.18,-190.19 696.06,-196.99 706.65,-196.74 704.18,-190.19"/>
</g>
<!-- Node15 -->
<g id="node15" class="node">
<title>Node15</title>
<g id="a_node15"><a xlink:href="dfs__tests_8c.html" target="_top" xlink:title="This file containst the functions that test the depth first search algorithm with a simulated navigat...">
<polygon fill="white" stroke="#666666" points="1125,-24.5 1036,-24.5 1036,-5.5 1125,-5.5 1125,-24.5"/>
<text text-anchor="middle" x="1080.5" y="-12.5" font-family="Helvetica,sans-Serif" font-size="10.00">tests/dfs_tests.c</text>
</a>
</g>
</g>
<!-- Node1&#45;&gt;Node15 -->
<g id="edge38" class="edge">
<title>Node1&#45;&gt;Node15</title>
<path fill="none" stroke="#63b8ff" d="M736.68,-206.75C893.3,-205.65 1270.74,-192.79 1340.5,-96 1424.21,20.14 1429.82,-93.21 1135.5,-30 1128.56,-28.51 1121.18,-26.75 1114.15,-24.99"/>
<polygon fill="#63b8ff" stroke="#63b8ff" points="736.83,-203.25 726.85,-206.81 736.87,-210.25 736.83,-203.25"/>
</g>
<!-- Node16 -->
<g id="node16" class="node">
<title>Node16</title>
<g id="a_node16"><a xlink:href="dfs_8h.html" target="_top" xlink:title="Header file for the depth first search algorithm for mapping the maze.">
<polygon fill="white" stroke="#666666" points="1131.5,-90.5 1027.5,-90.5 1027.5,-71.5 1131.5,-71.5 1131.5,-90.5"/>
<text text-anchor="middle" x="1079.5" y="-78.5" font-family="Helvetica,sans-Serif" font-size="10.00">src/pathfinding/dfs.h</text>
</a>
</g>
</g>
<!-- Node1&#45;&gt;Node16 -->
<g id="edge22" class="edge">
<title>Node1&#45;&gt;Node16</title>
<path fill="none" stroke="#63b8ff" d="M736.72,-203.2C843.65,-197.39 1041,-183.84 1064.5,-162 1084.48,-143.44 1082.86,-107.39 1080.85,-90.78"/>
<polygon fill="#63b8ff" stroke="#63b8ff" points="736.72,-199.7 726.92,-203.73 737.09,-206.69 736.72,-199.7"/>
</g>
<!-- Node17 -->
<g id="node17" class="node">
<title>Node17</title>
<g id="a_node17"><a xlink:href="floodfill_8h.html" target="_top" xlink:title="This file contains the function prototypes for the floodfill algorithm for mapping of the maze.">
<polygon fill="white" stroke="#666666" points="1055,-156.5 936,-156.5 936,-137.5 1055,-137.5 1055,-156.5"/>
<text text-anchor="middle" x="995.5" y="-144.5" font-family="Helvetica,sans-Serif" font-size="10.00">src/pathfinding/floodfill.h</text>
</a>
</g>
</g>
<!-- Node1&#45;&gt;Node17 -->
<g id="edge28" class="edge">
<title>Node1&#45;&gt;Node17</title>
<path fill="none" stroke="#63b8ff" d="M729.74,-195.54C791.98,-184.41 887.25,-167.37 945.22,-157"/>
<polygon fill="#63b8ff" stroke="#63b8ff" points="729.24,-192.08 720.01,-197.28 730.47,-198.97 729.24,-192.08"/>
</g>
<!-- Node18 -->
<g id="node18" class="node">
<title>Node18</title>
<g id="a_node18"><a xlink:href="floodfill__tests_8c.html" target="_top" xlink:title="This file contains the tests for the floodfill algorithm.">
<polygon fill="white" stroke="#666666" points="1331,-90.5 1226,-90.5 1226,-71.5 1331,-71.5 1331,-90.5"/>
<text text-anchor="middle" x="1278.5" y="-78.5" font-family="Helvetica,sans-Serif" font-size="10.00">tests/floodfill_tests.c</text>
</a>
</g>
</g>
<!-- Node1&#45;&gt;Node18 -->
<g id="edge39" class="edge">
<title>Node1&#45;&gt;Node18</title>
<path fill="none" stroke="#63b8ff" d="M736.75,-205.19C820.21,-202.22 965.23,-192.66 1085.5,-162 1153.51,-144.66 1228.97,-107.83 1261.77,-90.88"/>
<polygon fill="#63b8ff" stroke="#63b8ff" points="736.78,-201.68 726.9,-205.51 737.01,-208.68 736.78,-201.68"/>
</g>
<!-- Node19 -->
<g id="node19" class="node">
<title>Node19</title>
<g id="a_node19"><a xlink:href="maze_8c.html" target="_top" xlink:title="Contains the implementation of utility maze functions.">
<polygon fill="white" stroke="#666666" points="1539,-156.5 1426,-156.5 1426,-137.5 1539,-137.5 1539,-156.5"/>
<text text-anchor="middle" x="1482.5" y="-144.5" font-family="Helvetica,sans-Serif" font-size="10.00">src/pathfinding/maze.c</text>
</a>
</g>
</g>
<!-- Node1&#45;&gt;Node19 -->
<g id="edge36" class="edge">
<title>Node1&#45;&gt;Node19</title>
<path fill="none" stroke="#63b8ff" d="M736.55,-205.49C867.66,-202.86 1164.21,-193.64 1411.5,-162 1421.47,-160.72 1432.14,-158.88 1442.1,-156.94"/>
<polygon fill="#63b8ff" stroke="#63b8ff" points="736.58,-201.99 726.65,-205.68 736.71,-208.99 736.58,-201.99"/>
</g>
<!-- Node3&#45;&gt;Node2 -->
<g id="edge4" class="edge">
<title>Node3&#45;&gt;Node2</title>
<path fill="none" stroke="#63b8ff" d="M144.59,-131.76C120.9,-119.24 87.16,-101.39 67.18,-90.82"/>
<polygon fill="#63b8ff" stroke="#63b8ff" points="142.86,-134.81 153.34,-136.39 146.13,-128.62 142.86,-134.81"/>
</g>
<!-- Node4 -->
<g id="node4" class="node">
<title>Node4</title>
<g id="a_node4"><a xlink:href="drivers_2pid_2main_8c.html" target="_top" xlink:title="Demonstration for the PID driver.">
<polygon fill="white" stroke="#666666" points="267.5,-90.5 157.5,-90.5 157.5,-71.5 267.5,-71.5 267.5,-90.5"/>
<text text-anchor="middle" x="212.5" y="-78.5" font-family="Helvetica,sans-Serif" font-size="10.00">src/drivers/pid/main.c</text>
</a>
</g>
</g>
<!-- Node3&#45;&gt;Node4 -->
<g id="edge3" class="edge">
<title>Node3&#45;&gt;Node4</title>
<path fill="none" stroke="#63b8ff" d="M183.33,-127.53C191.06,-115.46 200.81,-100.25 206.85,-90.82"/>
<polygon fill="#63b8ff" stroke="#63b8ff" points="180.46,-125.52 178.02,-135.83 186.36,-129.29 180.46,-125.52"/>
</g>
<!-- Node5 -->
<g id="node5" class="node">
<title>Node5</title>
<g id="a_node5"><a xlink:href="main_8c.html" target="_top" xlink:title="The main source file for robot control.">
<polygon fill="white" stroke="#666666" points="188.5,-24.5 126.5,-24.5 126.5,-5.5 188.5,-5.5 188.5,-24.5"/>
<text text-anchor="middle" x="157.5" y="-12.5" font-family="Helvetica,sans-Serif" font-size="10.00">src/main.c</text>
</a>
</g>
</g>
<!-- Node3&#45;&gt;Node5 -->
<g id="edge5" class="edge">
<title>Node3&#45;&gt;Node5</title>
<path fill="none" stroke="#63b8ff" d="M160.59,-127.35C155.87,-118.22 150.88,-106.88 148.5,-96 142.94,-70.61 150.21,-39.88 154.6,-24.98"/>
<polygon fill="#63b8ff" stroke="#63b8ff" points="157.4,-128.81 165.29,-135.87 163.52,-125.43 157.4,-128.81"/>
</g>
<!-- Node7&#45;&gt;Node5 -->
<g id="edge8" class="edge">
<title>Node7&#45;&gt;Node5</title>
<path fill="none" stroke="#63b8ff" d="M372.76,-68.38C319.34,-55.38 234.32,-34.69 188.76,-23.61"/>
<polygon fill="#63b8ff" stroke="#63b8ff" points="371.64,-71.71 382.18,-70.68 373.29,-64.91 371.64,-71.71"/>
</g>
<!-- Node7&#45;&gt;Node6 -->
<g id="edge9" class="edge">
<title>Node7&#45;&gt;Node6</title>
<path fill="none" stroke="#63b8ff" d="M424.55,-60.05C426.95,-48.24 429.87,-33.87 431.71,-24.82"/>
<polygon fill="#63b8ff" stroke="#63b8ff" points="421.17,-59.12 422.61,-69.62 428.03,-60.51 421.17,-59.12"/>
</g>
<!-- Node7&#45;&gt;Node8 -->
<g id="edge10" class="edge">
<title>Node7&#45;&gt;Node8</title>
<path fill="none" stroke="#63b8ff" d="M460.24,-67.83C494.97,-57.2 545.43,-41.74 582.22,-30.48"/>
<polygon fill="#63b8ff" stroke="#63b8ff" points="459.54,-64.38 451.01,-70.66 461.59,-71.08 459.54,-64.38"/>
</g>
<!-- Node7&#45;&gt;Node9 -->
<g id="edge11" class="edge">
<title>Node7&#45;&gt;Node9</title>
<path fill="none" stroke="#63b8ff" d="M490.39,-70.5C582.79,-57.95 744.06,-36.03 831.31,-24.18"/>
<polygon fill="#63b8ff" stroke="#63b8ff" points="490.14,-67.01 480.7,-71.82 491.08,-73.94 490.14,-67.01"/>
</g>
<!-- Node7&#45;&gt;Node10 -->
<g id="edge12" class="edge">
<title>Node7&#45;&gt;Node10</title>
<path fill="none" stroke="#63b8ff" d="M393.03,-65.93C368.54,-53.4 333.47,-35.44 312.73,-24.82"/>
<polygon fill="#63b8ff" stroke="#63b8ff" points="391.28,-68.97 401.77,-70.41 394.47,-62.74 391.28,-68.97"/>
</g>
<!-- Node12&#45;&gt;Node6 -->
<g id="edge15" class="edge">
<title>Node12&#45;&gt;Node6</title>
<path fill="none" stroke="#63b8ff" d="M710.22,-120.35C709.28,-102.65 704.98,-79.89 690.5,-66 676.3,-52.37 563.61,-34.29 492.25,-24.02"/>
<polygon fill="#63b8ff" stroke="#63b8ff" points="706.72,-120.17 710.4,-130.1 713.72,-120.04 706.72,-120.17"/>
</g>
<!-- Node12&#45;&gt;Node7 -->
<g id="edge16" class="edge">
<title>Node12&#45;&gt;Node7</title>
<path fill="none" stroke="#63b8ff" d="M644.22,-131.54C588.01,-119.09 508.64,-101.52 461.1,-90.99"/>
<polygon fill="#63b8ff" stroke="#63b8ff" points="643.14,-134.89 653.66,-133.63 644.66,-128.06 643.14,-134.89"/>
</g>
<!-- Node12&#45;&gt;Node11 -->
<g id="edge17" class="edge">
<title>Node12&#45;&gt;Node11</title>
<path fill="none" stroke="#63b8ff" d="M682.56,-124.97C670.56,-115.61 656.73,-104.81 645.93,-96.39"/>
<polygon fill="#63b8ff" stroke="#63b8ff" points="680.07,-127.47 690.11,-130.87 684.38,-121.95 680.07,-127.47"/>
</g>
<!-- Node12&#45;&gt;Node13 -->
<g id="edge18" class="edge">
<title>Node12&#45;&gt;Node13</title>
<path fill="none" stroke="#63b8ff" d="M735.07,-124.39C762.79,-101 803.41,-66.89 805.5,-66 940.88,-8.47 989.42,-54.24 1134.5,-30 1142.77,-28.62 1151.6,-26.82 1159.92,-24.98"/>
<polygon fill="#63b8ff" stroke="#63b8ff" points="733.13,-121.45 727.74,-130.57 737.64,-126.8 733.13,-121.45"/>
</g>
<!-- Node12&#45;&gt;Node14 -->
<g id="edge19" class="edge">
<title>Node12&#45;&gt;Node14</title>
<path fill="none" stroke="#63b8ff" d="M756.81,-127.54C787.56,-115.54 826.29,-100.43 850.47,-90.99"/>
<polygon fill="#63b8ff" stroke="#63b8ff" points="755.76,-124.19 747.71,-131.09 758.3,-130.71 755.76,-124.19"/>
</g>
<!-- Node12&#45;&gt;Node15 -->
<g id="edge20" class="edge">
<title>Node12&#45;&gt;Node15</title>
<path fill="none" stroke="#63b8ff" d="M721.72,-121.75C732.31,-103.37 749.4,-79.13 771.5,-66 793.87,-52.71 955.68,-31.33 1035.8,-21.39"/>
<polygon fill="#63b8ff" stroke="#63b8ff" points="718.7,-119.98 716.98,-130.43 724.85,-123.33 718.7,-119.98"/>
</g>
<!-- Node16&#45;&gt;Node8 -->
<g id="edge24" class="edge">
<title>Node16&#45;&gt;Node8</title>
<path fill="none" stroke="#63b8ff" d="M1016.08,-70.98C926.44,-58.23 764.37,-35.18 681.44,-23.39"/>
<polygon fill="#63b8ff" stroke="#63b8ff" points="1015.55,-74.44 1025.94,-72.38 1016.53,-67.51 1015.55,-74.44"/>
</g>
<!-- Node16&#45;&gt;Node9 -->
<g id="edge26" class="edge">
<title>Node16&#45;&gt;Node9</title>
<path fill="none" stroke="#63b8ff" d="M1042.59,-67.43C1005.8,-54.91 950.22,-35.99 917.72,-24.93"/>
<polygon fill="#63b8ff" stroke="#63b8ff" points="1041.33,-70.7 1051.93,-70.61 1043.59,-64.08 1041.33,-70.7"/>
</g>
<!-- Node16&#45;&gt;Node13 -->
<g id="edge23" class="edge">
<title>Node16&#45;&gt;Node13</title>
<path fill="none" stroke="#63b8ff" d="M1105.83,-65.59C1128.72,-53.08 1161.14,-35.34 1180.37,-24.82"/>
<polygon fill="#63b8ff" stroke="#63b8ff" points="1104.19,-62.51 1097.1,-70.37 1107.55,-68.65 1104.19,-62.51"/>
</g>
<!-- Node16&#45;&gt;Node15 -->
<g id="edge25" class="edge">
<title>Node16&#45;&gt;Node15</title>
<path fill="none" stroke="#63b8ff" d="M1079.82,-59.68C1080,-47.94 1080.22,-33.77 1080.36,-24.82"/>
<polygon fill="#63b8ff" stroke="#63b8ff" points="1076.32,-59.53 1079.66,-69.59 1083.32,-59.64 1076.32,-59.53"/>
</g>
<!-- Node17&#45;&gt;Node8 -->
<g id="edge32" class="edge">
<title>Node17&#45;&gt;Node8</title>
<path fill="none" stroke="#63b8ff" d="M988.04,-126.45C979.84,-107.75 964.78,-80.35 942.5,-66 900.22,-38.78 758.8,-24.94 681.33,-19.25"/>
<polygon fill="#63b8ff" stroke="#63b8ff" points="984.76,-127.68 991.79,-135.61 991.24,-125.03 984.76,-127.68"/>
</g>
<!-- Node17&#45;&gt;Node9 -->
<g id="edge35" class="edge">
<title>Node17&#45;&gt;Node9</title>
<path fill="none" stroke="#63b8ff" d="M994.71,-125.81C993.11,-108.44 988.5,-83.48 975.5,-66 960.82,-46.25 935.82,-32.84 916.9,-24.91"/>
<polygon fill="#63b8ff" stroke="#63b8ff" points="991.21,-125.87 995.34,-135.63 998.2,-125.43 991.21,-125.87"/>
</g>
<!-- Node17&#45;&gt;Node13 -->
<g id="edge29" class="edge">
<title>Node17&#45;&gt;Node13</title>
<path fill="none" stroke="#63b8ff" d="M1066.4,-136.69C1096.9,-129.69 1131.27,-117.43 1156.5,-96 1179.22,-76.7 1190.36,-41.35 1194.51,-24.88"/>
<polygon fill="#63b8ff" stroke="#63b8ff" points="1065.89,-133.22 1056.84,-138.72 1067.35,-140.06 1065.89,-133.22"/>
</g>
<!-- Node17&#45;&gt;Node14 -->
<g id="edge31" class="edge">
<title>Node17&#45;&gt;Node14</title>
<path fill="none" stroke="#63b8ff" d="M968.36,-131.76C944.48,-119.24 910.47,-101.39 890.32,-90.82"/>
<polygon fill="#63b8ff" stroke="#63b8ff" points="966.71,-134.85 977.2,-136.4 969.97,-128.65 966.71,-134.85"/>
</g>
<!-- Node17&#45;&gt;Node15 -->
<g id="edge33" class="edge">
<title>Node17&#45;&gt;Node15</title>
<path fill="none" stroke="#63b8ff" d="M1066.33,-139.1C1094.15,-132.52 1123.44,-119.93 1140.5,-96 1159.25,-69.71 1119.08,-39.39 1095.71,-24.78"/>
<polygon fill="#63b8ff" stroke="#63b8ff" points="1065.91,-135.61 1056.85,-141.1 1067.36,-142.46 1065.91,-135.61"/>
</g>
<!-- Node17&#45;&gt;Node16 -->
<g id="edge30" class="edge">
<title>Node17&#45;&gt;Node16</title>
<path fill="none" stroke="#63b8ff" d="M1015.99,-130.39C1032.3,-117.96 1054.55,-101.01 1067.92,-90.82"/>
<polygon fill="#63b8ff" stroke="#63b8ff" points="1014.22,-127.34 1008.38,-136.18 1018.46,-132.91 1014.22,-127.34"/>
</g>
<!-- Node17&#45;&gt;Node18 -->
<g id="edge34" class="edge">
<title>Node17&#45;&gt;Node18</title>
<path fill="none" stroke="#63b8ff" d="M1046.09,-134.56C1101.36,-122.06 1188.73,-102.3 1239.12,-90.91"/>
<polygon fill="#63b8ff" stroke="#63b8ff" points="1045.61,-131.08 1036.62,-136.7 1047.15,-137.91 1045.61,-131.08"/>
</g>
</g>
</svg>
