<?xml version="1.0" encoding="UTF-8" standalone="no"?>
<!DOCTYPE svg PUBLIC "-//W3C//DTD SVG 1.1//EN"
 "http://www.w3.org/Graphics/SVG/1.1/DTD/svg11.dtd">
<!-- Generated by graphviz version 7.0.5 (20221223.1930)
 -->
<!-- Title: src/pathfinding/maze.c Pages: 1 -->
<svg width="308pt" height="137pt"
 viewBox="0.00 0.00 307.50 137.00" xmlns="http://www.w3.org/2000/svg" xmlns:xlink="http://www.w3.org/1999/xlink">
<g id="graph0" class="graph" transform="scale(1 1) rotate(0) translate(4 133)">
<title>src/pathfinding/maze.c</title>
<!-- Node1 -->
<g id="node1" class="node">
<title>Node1</title>
<g id="a_node1"><a xlink:title="Contains the implementation of utility maze functions.">
<polygon fill="#999999" stroke="#666666" points="221,-129 108,-129 108,-110 221,-110 221,-129"/>
<text text-anchor="middle" x="164.5" y="-117" font-family="Helvetica,sans-Serif" font-size="10.00">src/pathfinding/maze.c</text>
</a>
</g>
</g>
<!-- Node2 -->
<g id="node2" class="node">
<title>Node2</title>
<g id="a_node2"><a xlink:title=" ">
<polygon fill="#e0e0e0" stroke="#999999" points="45,-74 0,-74 0,-55 45,-55 45,-74"/>
<text text-anchor="middle" x="22.5" y="-62" font-family="Helvetica,sans-Serif" font-size="10.00">stdio.h</text>
</a>
</g>
</g>
<!-- Node1&#45;&gt;Node2 -->
<g id="edge1" class="edge">
<title>Node1&#45;&gt;Node2</title>
<path fill="none" stroke="#63b8ff" d="M140.41,-109.51C117.15,-100.83 81.72,-87.6 55.77,-77.92"/>
<polygon fill="#63b8ff" stroke="#63b8ff" points="57.31,-74.76 46.71,-74.54 54.86,-81.31 57.31,-74.76"/>
</g>
<!-- Node3 -->
<g id="node3" class="node">
<title>Node3</title>
<g id="a_node3"><a xlink:title=" ">
<polygon fill="#e0e0e0" stroke="#999999" points="110,-74 63,-74 63,-55 110,-55 110,-74"/>
<text text-anchor="middle" x="86.5" y="-62" font-family="Helvetica,sans-Serif" font-size="10.00">stdlib.h</text>
</a>
</g>
</g>
<!-- Node1&#45;&gt;Node3 -->
<g id="edge2" class="edge">
<title>Node1&#45;&gt;Node3</title>
<path fill="none" stroke="#63b8ff" d="M151.27,-109.51C139.66,-101.62 122.53,-89.98 108.8,-80.65"/>
<polygon fill="#63b8ff" stroke="#63b8ff" points="111.03,-77.93 100.79,-75.21 107.09,-83.72 111.03,-77.93"/>
</g>
<!-- Node4 -->
<g id="node4" class="node">
<title>Node4</title>
<g id="a_node4"><a xlink:title=" ">
<polygon fill="#e0e0e0" stroke="#999999" points="188.5,-19 140.5,-19 140.5,0 188.5,0 188.5,-19"/>
<text text-anchor="middle" x="164.5" y="-7" font-family="Helvetica,sans-Serif" font-size="10.00">stdint.h</text>
</a>
</g>
</g>
<!-- Node1&#45;&gt;Node4 -->
<g id="edge3" class="edge">
<title>Node1&#45;&gt;Node4</title>
<path fill="none" stroke="#63b8ff" d="M162.7,-109.68C160.97,-100.74 158.48,-86.48 157.5,-74 156.35,-59.24 158.3,-42.6 160.43,-30.06"/>
<polygon fill="#63b8ff" stroke="#63b8ff" points="163.8,-31.08 162.23,-20.6 156.93,-29.77 163.8,-31.08"/>
</g>
<!-- Node5 -->
<g id="node5" class="node">
<title>Node5</title>
<g id="a_node5"><a xlink:title=" ">
<polygon fill="#e0e0e0" stroke="#999999" points="299.5,-19 243.5,-19 243.5,0 299.5,0 299.5,-19"/>
<text text-anchor="middle" x="271.5" y="-7" font-family="Helvetica,sans-Serif" font-size="10.00">stdbool.h</text>
</a>
</g>
</g>
<!-- Node1&#45;&gt;Node5 -->
<g id="edge4" class="edge">
<title>Node1&#45;&gt;Node5</title>
<path fill="none" stroke="#63b8ff" d="M221.3,-112.87C246.52,-107.21 273.96,-96.02 289.5,-74 298.99,-60.55 292.16,-42.21 284.35,-28.7"/>
<polygon fill="#63b8ff" stroke="#63b8ff" points="287.33,-26.87 278.98,-20.35 281.45,-30.65 287.33,-26.87"/>
</g>
<!-- Node6 -->
<g id="node6" class="node">
<title>Node6</title>
<g id="a_node6"><a xlink:title=" ">
<polygon fill="#e0e0e0" stroke="#999999" points="280.5,-74 232.5,-74 232.5,-55 280.5,-55 280.5,-74"/>
<text text-anchor="middle" x="256.5" y="-62" font-family="Helvetica,sans-Serif" font-size="10.00">string.h</text>
</a>
</g>
</g>
<!-- Node1&#45;&gt;Node6 -->
<g id="edge5" class="edge">
<title>Node1&#45;&gt;Node6</title>
<path fill="none" stroke="#63b8ff" d="M180.11,-109.51C194.2,-101.39 215.19,-89.3 231.6,-79.85"/>
<polygon fill="#63b8ff" stroke="#63b8ff" points="232.89,-83.14 239.81,-75.11 229.4,-77.07 232.89,-83.14"/>
</g>
<!-- Node7 -->
<g id="node7" class="node">
<title>Node7</title>
<g id="a_node7"><a xlink:href="maze_8h.html" target="_top" xlink:title="Header file for the maze data structure and public functions.">
<polygon fill="white" stroke="#666666" points="214,-74 167,-74 167,-55 214,-55 214,-74"/>
<text text-anchor="middle" x="190.5" y="-62" font-family="Helvetica,sans-Serif" font-size="10.00">maze.h</text>
</a>
</g>
</g>
<!-- Node1&#45;&gt;Node7 -->
<g id="edge6" class="edge">
<title>Node1&#45;&gt;Node7</title>
<path fill="none" stroke="#63b8ff" d="M168.79,-109.75C172.12,-102.96 176.86,-93.3 181.06,-84.73"/>
<polygon fill="#63b8ff" stroke="#63b8ff" points="184.18,-86.32 185.45,-75.8 177.9,-83.24 184.18,-86.32"/>
</g>
<!-- Node7&#45;&gt;Node4 -->
<g id="edge7" class="edge">
<title>Node7&#45;&gt;Node4</title>
<path fill="none" stroke="#63b8ff" d="M186.21,-54.75C182.88,-47.96 178.14,-38.3 173.94,-29.73"/>
<polygon fill="#63b8ff" stroke="#63b8ff" points="177.1,-28.24 169.55,-20.8 170.82,-31.32 177.1,-28.24"/>
</g>
<!-- Node7&#45;&gt;Node5 -->
<g id="edge8" class="edge">
<title>Node7&#45;&gt;Node5</title>
<path fill="none" stroke="#63b8ff" d="M204.24,-54.51C216.3,-46.62 234.09,-34.98 248.34,-25.65"/>
<polygon fill="#63b8ff" stroke="#63b8ff" points="250.24,-28.59 256.7,-20.19 246.41,-22.73 250.24,-28.59"/>
</g>
</g>
</svg>
