<?xml version="1.0" encoding="UTF-8" standalone="no"?>
<!DOCTYPE svg PUBLIC "-//W3C//DTD SVG 1.1//EN"
 "http://www.w3.org/Graphics/SVG/1.1/DTD/svg11.dtd">
<!-- Generated by graphviz version 7.0.5 (20221223.1930)
 -->
<!-- Title: src/drivers/motor/motor_control.c Pages: 1 -->
<svg width="493pt" height="148pt"
 viewBox="0.00 0.00 492.50 148.00" xmlns="http://www.w3.org/2000/svg" xmlns:xlink="http://www.w3.org/1999/xlink">
<g id="graph0" class="graph" transform="scale(1 1) rotate(0) translate(4 144)">
<title>src/drivers/motor/motor_control.c</title>
<!-- Node1 -->
<g id="node1" class="node">
<title>Node1</title>
<g id="a_node1"><a xlink:title="Source file for the motor driver.">
<polygon fill="#999999" stroke="#666666" points="256.5,-140 138.5,-140 138.5,-110 256.5,-110 256.5,-140"/>
<text text-anchor="start" x="146.5" y="-128" font-family="Helvetica,sans-Serif" font-size="10.00">src/drivers/motor/motor</text>
<text text-anchor="middle" x="197.5" y="-117" font-family="Helvetica,sans-Serif" font-size="10.00">_control.c</text>
</a>
</g>
</g>
<!-- Node2 -->
<g id="node2" class="node">
<title>Node2</title>
<g id="a_node2"><a xlink:title=" ">
<polygon fill="#e0e0e0" stroke="#999999" points="45,-74 0,-74 0,-55 45,-55 45,-74"/>
<text text-anchor="middle" x="22.5" y="-62" font-family="Helvetica,sans-Serif" font-size="10.00">stdio.h</text>
</a>
</g>
</g>
<!-- Node1&#45;&gt;Node2 -->
<g id="edge1" class="edge">
<title>Node1&#45;&gt;Node2</title>
<path fill="none" stroke="#63b8ff" d="M154.24,-109.54C124,-99.43 84.18,-86.12 56.27,-76.79"/>
<polygon fill="#63b8ff" stroke="#63b8ff" points="57.49,-73.51 46.9,-73.66 55.27,-80.15 57.49,-73.51"/>
</g>
<!-- Node3 -->
<g id="node3" class="node">
<title>Node3</title>
<g id="a_node3"><a xlink:title=" ">
<polygon fill="#e0e0e0" stroke="#999999" points="207.5,-19 151.5,-19 151.5,0 207.5,0 207.5,-19"/>
<text text-anchor="middle" x="179.5" y="-7" font-family="Helvetica,sans-Serif" font-size="10.00">stdbool.h</text>
</a>
</g>
</g>
<!-- Node1&#45;&gt;Node3 -->
<g id="edge2" class="edge">
<title>Node1&#45;&gt;Node3</title>
<path fill="none" stroke="#63b8ff" d="M139.23,-109.61C121.11,-102.09 103.12,-90.82 92.5,-74 77.34,-49.99 110.78,-32.12 140.49,-21.56"/>
<polygon fill="#63b8ff" stroke="#63b8ff" points="141.36,-24.96 149.74,-18.48 139.14,-18.32 141.36,-24.96"/>
</g>
<!-- Node4 -->
<g id="node4" class="node">
<title>Node4</title>
<g id="a_node4"><a xlink:title=" ">
<polygon fill="#e0e0e0" stroke="#999999" points="189.5,-74 101.5,-74 101.5,-55 189.5,-55 189.5,-74"/>
<text text-anchor="middle" x="145.5" y="-62" font-family="Helvetica,sans-Serif" font-size="10.00">hardware/pwm.h</text>
</a>
</g>
</g>
<!-- Node1&#45;&gt;Node4 -->
<g id="edge3" class="edge">
<title>Node1&#45;&gt;Node4</title>
<path fill="none" stroke="#63b8ff" d="M184.65,-109.54C177.4,-101.39 168.31,-91.16 160.71,-82.61"/>
<polygon fill="#63b8ff" stroke="#63b8ff" points="163.48,-80.46 154.22,-75.31 158.24,-85.11 163.48,-80.46"/>
</g>
<!-- Node5 -->
<g id="node5" class="node">
<title>Node5</title>
<g id="a_node5"><a xlink:title=" ">
<polygon fill="#e0e0e0" stroke="#999999" points="293,-74 208,-74 208,-55 293,-55 293,-74"/>
<text text-anchor="middle" x="250.5" y="-62" font-family="Helvetica,sans-Serif" font-size="10.00">hardware/gpio.h</text>
</a>
</g>
</g>
<!-- Node1&#45;&gt;Node5 -->
<g id="edge4" class="edge">
<title>Node1&#45;&gt;Node5</title>
<path fill="none" stroke="#63b8ff" d="M210.6,-109.54C217.98,-101.39 227.25,-91.16 235,-82.61"/>
<polygon fill="#63b8ff" stroke="#63b8ff" points="237.5,-85.06 241.62,-75.3 232.32,-80.36 237.5,-85.06"/>
</g>
<!-- Node6 -->
<g id="node6" class="node">
<title>Node6</title>
<g id="a_node6"><a xlink:title=" ">
<polygon fill="#e0e0e0" stroke="#999999" points="484.5,-19 416.5,-19 416.5,0 484.5,0 484.5,-19"/>
<text text-anchor="middle" x="450.5" y="-7" font-family="Helvetica,sans-Serif" font-size="10.00">pico/types.h</text>
</a>
</g>
</g>
<!-- Node1&#45;&gt;Node6 -->
<g id="edge5" class="edge">
<title>Node1&#45;&gt;Node6</title>
<path fill="none" stroke="#63b8ff" d="M256.74,-118.22C317.47,-111.12 406.47,-97.1 431.5,-74 443.41,-63.01 447.97,-44.88 449.66,-30.81"/>
<polygon fill="#63b8ff" stroke="#63b8ff" points="453.15,-31.08 450.41,-20.85 446.17,-30.55 453.15,-31.08"/>
</g>
<!-- Node7 -->
<g id="node7" class="node">
<title>Node7</title>
<g id="a_node7"><a xlink:href="motor__control_8h.html" target="_top" xlink:title="Header file for motor control drivers.">
<polygon fill="white" stroke="#666666" points="422,-74 311,-74 311,-55 422,-55 422,-74"/>
<text text-anchor="middle" x="366.5" y="-62" font-family="Helvetica,sans-Serif" font-size="10.00">motor/motor_control.h</text>
</a>
</g>
</g>
<!-- Node1&#45;&gt;Node7 -->
<g id="edge6" class="edge">
<title>Node1&#45;&gt;Node7</title>
<path fill="none" stroke="#63b8ff" d="M239.28,-109.54C267.16,-99.89 303.46,-87.32 330.15,-78.08"/>
<polygon fill="#63b8ff" stroke="#63b8ff" points="331.21,-81.42 339.51,-74.84 328.92,-74.8 331.21,-81.42"/>
</g>
<!-- Node7&#45;&gt;Node3 -->
<g id="edge7" class="edge">
<title>Node7&#45;&gt;Node3</title>
<path fill="none" stroke="#63b8ff" d="M334.78,-54.51C302.76,-45.43 253.25,-31.4 218.77,-21.63"/>
<polygon fill="#63b8ff" stroke="#63b8ff" points="219.73,-18.27 209.16,-18.91 217.82,-25 219.73,-18.27"/>
</g>
<!-- Node7&#45;&gt;Node6 -->
<g id="edge9" class="edge">
<title>Node7&#45;&gt;Node6</title>
<path fill="none" stroke="#63b8ff" d="M380.75,-54.51C393.38,-46.54 412.06,-34.75 426.91,-25.38"/>
<polygon fill="#63b8ff" stroke="#63b8ff" points="428.59,-28.46 435.18,-20.17 424.86,-22.54 428.59,-28.46"/>
</g>
<!-- Node8 -->
<g id="node8" class="node">
<title>Node8</title>
<g id="a_node8"><a xlink:title=" ">
<polygon fill="#e0e0e0" stroke="#999999" points="398.5,-19 330.5,-19 330.5,0 398.5,0 398.5,-19"/>
<text text-anchor="middle" x="364.5" y="-7" font-family="Helvetica,sans-Serif" font-size="10.00">pico/stdlib.h</text>
</a>
</g>
</g>
<!-- Node7&#45;&gt;Node8 -->
<g id="edge8" class="edge">
<title>Node7&#45;&gt;Node8</title>
<path fill="none" stroke="#63b8ff" d="M366.17,-54.75C365.93,-48.27 365.58,-39.16 365.27,-30.9"/>
<polygon fill="#63b8ff" stroke="#63b8ff" points="368.77,-30.82 364.89,-20.95 361.77,-31.08 368.77,-30.82"/>
</g>
</g>
</svg>
