<?xml version="1.0" encoding="UTF-8" standalone="no"?>
<!DOCTYPE svg PUBLIC "-//W3C//DTD SVG 1.1//EN"
 "http://www.w3.org/Graphics/SVG/1.1/DTD/svg11.dtd">
<!-- Generated by graphviz version 7.0.5 (20221223.1930)
 -->
<!-- Title: reverse Pages: 1 -->
<svg width="181pt" height="64pt"
 viewBox="0.00 0.00 181.00 64.00" xmlns="http://www.w3.org/2000/svg" xmlns:xlink="http://www.w3.org/1999/xlink">
<g id="graph0" class="graph" transform="scale(1 1) rotate(0) translate(4 60)">
<title>reverse</title>
<!-- Node1 -->
<g id="node1" class="node">
<title>Node1</title>
<g id="a_node1"><a xlink:title="A function to reverse the car.">
<polygon fill="#999999" stroke="#666666" points="49,-37 0,-37 0,-18 49,-18 49,-37"/>
<text text-anchor="middle" x="24.5" y="-25" font-family="Helvetica,sans-Serif" font-size="10.00">reverse</text>
</a>
</g>
</g>
<!-- Node2 -->
<g id="node2" class="node">
<title>Node2</title>
<g id="a_node2"><a xlink:href="motor__control_8c.html#af0ebed13ef30e857d8c5cbda43c8f7c0" target="_top" xlink:title="A function to update the direction of the motor&#39;s rotation.">
<polygon fill="white" stroke="#666666" points="173,-56 85,-56 85,-37 173,-37 173,-56"/>
<text text-anchor="middle" x="129" y="-44" font-family="Helvetica,sans-Serif" font-size="10.00">update_direction</text>
</a>
</g>
</g>
<!-- Node1&#45;&gt;Node2 -->
<g id="edge1" class="edge">
<title>Node1&#45;&gt;Node2</title>
<path fill="none" stroke="#63b8ff" d="M49.27,-31.91C56.59,-33.26 64.97,-34.82 73.48,-36.39"/>
<polygon fill="#63b8ff" stroke="#63b8ff" points="72.68,-39.81 83.15,-38.19 73.96,-32.92 72.68,-39.81"/>
</g>
<!-- Node3 -->
<g id="node3" class="node">
<title>Node3</title>
<g id="a_node3"><a xlink:href="motor__control_8c.html#aa20774b583539f8a2698c2f8ac6d4334" target="_top" xlink:title="A function to update the PWM duty cycle and wrap value.">
<polygon fill="white" stroke="#666666" points="165,-19 93,-19 93,0 165,0 165,-19"/>
<text text-anchor="middle" x="129" y="-7" font-family="Helvetica,sans-Serif" font-size="10.00">update_pwm</text>
</a>
</g>
</g>
<!-- Node1&#45;&gt;Node3 -->
<g id="edge2" class="edge">
<title>Node1&#45;&gt;Node3</title>
<path fill="none" stroke="#63b8ff" d="M49.27,-23.33C58.94,-21.63 70.46,-19.6 81.67,-17.64"/>
<polygon fill="#63b8ff" stroke="#63b8ff" points="81.95,-21.14 91.2,-15.96 80.74,-14.25 81.95,-21.14"/>
</g>
</g>
</svg>
