<?xml version="1.0" encoding="UTF-8" standalone="no"?>
<!DOCTYPE svg PUBLIC "-//W3C//DTD SVG 1.1//EN"
 "http://www.w3.org/Graphics/SVG/1.1/DTD/svg11.dtd">
<!-- Generated by graphviz version 7.0.5 (20221223.1930)
 -->
<!-- Title: motor_reverse Pages: 1 -->
<svg width="241pt" height="64pt"
 viewBox="0.00 0.00 241.00 64.00" xmlns="http://www.w3.org/2000/svg" xmlns:xlink="http://www.w3.org/1999/xlink">
<g id="graph0" class="graph" transform="scale(1 1) rotate(0) translate(4 60)">
<title>motor_reverse</title>
<!-- Node1 -->
<g id="node1" class="node">
<title>Node1</title>
<g id="a_node1"><a xlink:title="A function to reverse the car.">
<polygon fill="#999999" stroke="#666666" points="79,-37 0,-37 0,-18 79,-18 79,-37"/>
<text text-anchor="middle" x="39.5" y="-25" font-family="Helvetica,sans-Serif" font-size="10.00">motor_reverse</text>
</a>
</g>
</g>
<!-- Node2 -->
<g id="node2" class="node">
<title>Node2</title>
<g id="a_node2"><a xlink:href="motor__control_8c.html#a3dc0491deae0e443306e8695d7879daf" target="_top" xlink:title="A function to update the direction of the motor&#39;s rotation.">
<polygon fill="white" stroke="#666666" points="233,-56 115,-56 115,-37 233,-37 233,-56"/>
<text text-anchor="middle" x="174" y="-44" font-family="Helvetica,sans-Serif" font-size="10.00">motor_update_direction</text>
</a>
</g>
</g>
<!-- Node1&#45;&gt;Node2 -->
<g id="edge1" class="edge">
<title>Node1&#45;&gt;Node2</title>
<path fill="none" stroke="#63b8ff" d="M79.18,-33.05C86.85,-34.15 95.11,-35.33 103.45,-36.53"/>
<polygon fill="#63b8ff" stroke="#63b8ff" points="102.92,-39.99 113.31,-37.94 103.91,-33.06 102.92,-39.99"/>
</g>
<!-- Node3 -->
<g id="node3" class="node">
<title>Node3</title>
<g id="a_node3"><a xlink:href="motor__control_8c.html#a38f59b6b48b6a4d0dd583eef8719e1a3" target="_top" xlink:title="A function to update the PWM duty cycle and wrap value.">
<polygon fill="white" stroke="#666666" points="225,-19 123,-19 123,0 225,0 225,-19"/>
<text text-anchor="middle" x="174" y="-7" font-family="Helvetica,sans-Serif" font-size="10.00">motor_update_pwm</text>
</a>
</g>
</g>
<!-- Node1&#45;&gt;Node3 -->
<g id="edge2" class="edge">
<title>Node1&#45;&gt;Node3</title>
<path fill="none" stroke="#63b8ff" d="M79.18,-22.25C89.27,-20.87 100.4,-19.36 111.36,-17.87"/>
<polygon fill="#63b8ff" stroke="#63b8ff" points="111.74,-21.36 121.17,-16.54 110.79,-14.42 111.74,-21.36"/>
</g>
</g>
</svg>
