<?xml version="1.0" encoding="UTF-8" standalone="no"?>
<!DOCTYPE svg PUBLIC "-//W3C//DTD SVG 1.1//EN"
 "http://www.w3.org/Graphics/SVG/1.1/DTD/svg11.dtd">
<!-- Generated by graphviz version 7.0.5 (20221223.1930)
 -->
<!-- Title: motor_turn_left Pages: 1 -->
<svg width="244pt" height="64pt"
 viewBox="0.00 0.00 244.00 64.00" xmlns="http://www.w3.org/2000/svg" xmlns:xlink="http://www.w3.org/1999/xlink">
<g id="graph0" class="graph" transform="scale(1 1) rotate(0) translate(4 60)">
<title>motor_turn_left</title>
<!-- Node1 -->
<g id="node1" class="node">
<title>Node1</title>
<g id="a_node1"><a xlink:title="A function to turn the car left.">
<polygon fill="#999999" stroke="#666666" points="82,-37 0,-37 0,-18 82,-18 82,-37"/>
<text text-anchor="middle" x="41" y="-25" font-family="Helvetica,sans-Serif" font-size="10.00">motor_turn_left</text>
</a>
</g>
</g>
<!-- Node2 -->
<g id="node2" class="node">
<title>Node2</title>
<g id="a_node2"><a xlink:href="motor__control_8c.html#a3dc0491deae0e443306e8695d7879daf" target="_top" xlink:title="A function to update the direction of the motor&#39;s rotation.">
<polygon fill="white" stroke="#666666" points="236,-56 118,-56 118,-37 236,-37 236,-56"/>
<text text-anchor="middle" x="177" y="-44" font-family="Helvetica,sans-Serif" font-size="10.00">motor_update_direction</text>
</a>
</g>
</g>
<!-- Node1&#45;&gt;Node2 -->
<g id="edge1" class="edge">
<title>Node1&#45;&gt;Node2</title>
<path fill="none" stroke="#63b8ff" d="M82.2,-33.2C89.94,-34.3 98.25,-35.48 106.61,-36.66"/>
<polygon fill="#63b8ff" stroke="#63b8ff" points="106.1,-40.12 116.49,-38.06 107.08,-33.19 106.1,-40.12"/>
</g>
<!-- Node3 -->
<g id="node3" class="node">
<title>Node3</title>
<g id="a_node3"><a xlink:href="motor__control_8c.html#a38f59b6b48b6a4d0dd583eef8719e1a3" target="_top" xlink:title="A function to update the PWM duty cycle and wrap value.">
<polygon fill="white" stroke="#666666" points="228,-19 126,-19 126,0 228,0 228,-19"/>
<text text-anchor="middle" x="177" y="-7" font-family="Helvetica,sans-Serif" font-size="10.00">motor_update_pwm</text>
</a>
</g>
</g>
<!-- Node1&#45;&gt;Node3 -->
<g id="edge2" class="edge">
<title>Node1&#45;&gt;Node3</title>
<path fill="none" stroke="#63b8ff" d="M82.2,-22.1C92.39,-20.73 103.56,-19.23 114.54,-17.76"/>
<polygon fill="#63b8ff" stroke="#63b8ff" points="114.91,-21.24 124.35,-16.44 113.97,-14.3 114.91,-21.24"/>
</g>
</g>
</svg>
