<?xml version="1.0" encoding="UTF-8" standalone="no"?>
<!DOCTYPE svg PUBLIC "-//W3C//DTD SVG 1.1//EN"
 "http://www.w3.org/Graphics/SVG/1.1/DTD/svg11.dtd">
<!-- Generated by graphviz version 7.0.5 (20221223.1930)
 -->
<!-- Title: motor_update_direction Pages: 1 -->
<svg width="400pt" height="138pt"
 viewBox="0.00 0.00 400.00 138.00" xmlns="http://www.w3.org/2000/svg" xmlns:xlink="http://www.w3.org/1999/xlink">
<g id="graph0" class="graph" transform="scale(1 1) rotate(0) translate(4 134)">
<title>motor_update_direction</title>
<!-- Node1 -->
<g id="node1" class="node">
<title>Node1</title>
<g id="a_node1"><a xlink:title="A function to update the direction of the motor&#39;s rotation.">
<polygon fill="#999999" stroke="#666666" points="392,-74 274,-74 274,-55 392,-55 392,-74"/>
<text text-anchor="middle" x="333" y="-62" font-family="Helvetica,sans-Serif" font-size="10.00">motor_update_direction</text>
</a>
</g>
</g>
<!-- Node2 -->
<g id="node2" class="node">
<title>Node2</title>
<g id="a_node2"><a xlink:href="motor__control_8c.html#a793a32f3a145d0efad56a327d7b2f33b" target="_top" xlink:title="A function to move the car forward.">
<polygon fill="white" stroke="#666666" points="238,-130 130,-130 130,-111 238,-111 238,-130"/>
<text text-anchor="middle" x="184" y="-118" font-family="Helvetica,sans-Serif" font-size="10.00">motor_move_forward</text>
</a>
</g>
</g>
<!-- Node1&#45;&gt;Node2 -->
<g id="edge1" class="edge">
<title>Node1&#45;&gt;Node2</title>
<path fill="none" stroke="#63b8ff" d="M298.13,-78.73C280.33,-86.08 258.09,-95.04 238,-102.5 230.71,-105.21 222.8,-107.98 215.37,-110.51"/>
<polygon fill="#63b8ff" stroke="#63b8ff" points="299.29,-82.04 307.18,-74.98 296.6,-75.58 299.29,-82.04"/>
</g>
<!-- Node4 -->
<g id="node4" class="node">
<title>Node4</title>
<g id="a_node4"><a xlink:href="motor__control_8c.html#a0a216ac731db260b900f5329cbe23231" target="_top" xlink:title="A function to reverse the car.">
<polygon fill="white" stroke="#666666" points="223.5,-93 144.5,-93 144.5,-74 223.5,-74 223.5,-93"/>
<text text-anchor="middle" x="184" y="-81" font-family="Helvetica,sans-Serif" font-size="10.00">motor_reverse</text>
</a>
</g>
</g>
<!-- Node1&#45;&gt;Node4 -->
<g id="edge3" class="edge">
<title>Node1&#45;&gt;Node4</title>
<path fill="none" stroke="#63b8ff" d="M262.72,-73.45C249.31,-75.19 235.71,-76.95 223.71,-78.5"/>
<polygon fill="#63b8ff" stroke="#63b8ff" points="262.93,-76.96 272.4,-72.2 262.03,-70.01 262.93,-76.96"/>
</g>
<!-- Node5 -->
<g id="node5" class="node">
<title>Node5</title>
<g id="a_node5"><a xlink:href="motor__control_8c.html#a24063f2aae5b4a3eb6b33dc2eea150dd" target="_top" xlink:title="A function to turn the car left.">
<polygon fill="white" stroke="#666666" points="225,-56 143,-56 143,-37 225,-37 225,-56"/>
<text text-anchor="middle" x="184" y="-44" font-family="Helvetica,sans-Serif" font-size="10.00">motor_turn_left</text>
</a>
</g>
</g>
<!-- Node1&#45;&gt;Node5 -->
<g id="edge4" class="edge">
<title>Node1&#45;&gt;Node5</title>
<path fill="none" stroke="#63b8ff" d="M262.76,-56.02C249.99,-54.46 237.05,-52.87 225.48,-51.46"/>
<polygon fill="#63b8ff" stroke="#63b8ff" points="262.05,-59.46 272.4,-57.2 262.9,-52.51 262.05,-59.46"/>
</g>
<!-- Node6 -->
<g id="node6" class="node">
<title>Node6</title>
<g id="a_node6"><a xlink:href="motor__control_8c.html#a63c73ae82a6d47bc620608fc752b83f9" target="_top" xlink:title="A function to turn the car right.">
<polygon fill="white" stroke="#666666" points="227.5,-19 140.5,-19 140.5,0 227.5,0 227.5,-19"/>
<text text-anchor="middle" x="184" y="-7" font-family="Helvetica,sans-Serif" font-size="10.00">motor_turn_right</text>
</a>
</g>
</g>
<!-- Node1&#45;&gt;Node6 -->
<g id="edge6" class="edge">
<title>Node1&#45;&gt;Node6</title>
<path fill="none" stroke="#63b8ff" d="M296.18,-50.57C278.67,-43.82 257.27,-35.64 238,-28.5 229.93,-25.51 221.15,-22.33 213.1,-19.45"/>
<polygon fill="#63b8ff" stroke="#63b8ff" points="294.52,-53.69 305.11,-54.03 297.05,-47.16 294.52,-53.69"/>
</g>
<!-- Node3 -->
<g id="node3" class="node">
<title>Node3</title>
<g id="a_node3"><a xlink:href="pid_8c.html#a1ba495049f805afac3a7b18020ce0cf4" target="_top" xlink:title="Function to turn the car and move in a given direction.">
<polygon fill="white" stroke="#666666" points="94,-56 0,-56 0,-37 94,-37 94,-56"/>
<text text-anchor="middle" x="47" y="-44" font-family="Helvetica,sans-Serif" font-size="10.00">navigate_car_turn</text>
</a>
</g>
</g>
<!-- Node2&#45;&gt;Node3 -->
<g id="edge2" class="edge">
<title>Node2&#45;&gt;Node3</title>
<path fill="none" stroke="#63b8ff" d="M138.46,-106.38C135.56,-105.15 132.72,-103.86 130,-102.5 103.47,-89.25 75.58,-68.52 60.12,-56.35"/>
<polygon fill="#63b8ff" stroke="#63b8ff" points="137.08,-109.6 147.67,-109.97 139.62,-103.07 137.08,-109.6"/>
</g>
<!-- Node5&#45;&gt;Node3 -->
<g id="edge5" class="edge">
<title>Node5&#45;&gt;Node3</title>
<path fill="none" stroke="#63b8ff" d="M131.46,-46.5C119.26,-46.5 106.34,-46.5 94.39,-46.5"/>
<polygon fill="#63b8ff" stroke="#63b8ff" points="131.35,-50 141.35,-46.5 131.35,-43 131.35,-50"/>
</g>
<!-- Node6&#45;&gt;Node3 -->
<g id="edge7" class="edge">
<title>Node6&#45;&gt;Node3</title>
<path fill="none" stroke="#63b8ff" d="M136,-22.38C119.05,-27.03 100.18,-32.2 84.28,-36.56"/>
<polygon fill="#63b8ff" stroke="#63b8ff" points="136.64,-25.83 145.36,-19.82 134.79,-19.08 136.64,-25.83"/>
</g>
</g>
</svg>
