<?xml version="1.0" encoding="UTF-8" standalone="no"?>
<!DOCTYPE svg PUBLIC "-//W3C//DTD SVG 1.1//EN"
 "http://www.w3.org/Graphics/SVG/1.1/DTD/svg11.dtd">
<!-- Generated by graphviz version 7.0.5 (20221223.1930)
 -->
<!-- Title: update_direction Pages: 1 -->
<svg width="340pt" height="138pt"
 viewBox="0.00 0.00 340.00 138.00" xmlns="http://www.w3.org/2000/svg" xmlns:xlink="http://www.w3.org/1999/xlink">
<g id="graph0" class="graph" transform="scale(1 1) rotate(0) translate(4 134)">
<title>update_direction</title>
<!-- Node1 -->
<g id="node1" class="node">
<title>Node1</title>
<g id="a_node1"><a xlink:title="A function to update the direction of the motor&#39;s rotation.">
<polygon fill="#999999" stroke="#666666" points="332,-74 244,-74 244,-55 332,-55 332,-74"/>
<text text-anchor="middle" x="288" y="-62" font-family="Helvetica,sans-Serif" font-size="10.00">update_direction</text>
</a>
</g>
</g>
<!-- Node2 -->
<g id="node2" class="node">
<title>Node2</title>
<g id="a_node2"><a xlink:href="motor__control_8c.html#ae550a3c67881c84d0b773c23e5b3aecd" target="_top" xlink:title="A function to move the car forward.">
<polygon fill="white" stroke="#666666" points="208,-130 130,-130 130,-111 208,-111 208,-130"/>
<text text-anchor="middle" x="169" y="-118" font-family="Helvetica,sans-Serif" font-size="10.00">move_forward</text>
</a>
</g>
</g>
<!-- Node1&#45;&gt;Node2 -->
<g id="edge1" class="edge">
<title>Node1&#45;&gt;Node2</title>
<path fill="none" stroke="#63b8ff" d="M256.51,-79.22C241.85,-86.28 224.03,-94.85 208,-102.5 202.47,-105.14 196.47,-107.99 190.92,-110.62"/>
<polygon fill="#63b8ff" stroke="#63b8ff" points="257.7,-82.53 265.19,-75.03 254.66,-76.22 257.7,-82.53"/>
</g>
<!-- Node4 -->
<g id="node4" class="node">
<title>Node4</title>
<g id="a_node4"><a xlink:href="motor__control_8c.html#a310c0bebc002158f5646a91d60e4dc89" target="_top" xlink:title="A function to reverse the car.">
<polygon fill="white" stroke="#666666" points="193.5,-93 144.5,-93 144.5,-74 193.5,-74 193.5,-93"/>
<text text-anchor="middle" x="169" y="-81" font-family="Helvetica,sans-Serif" font-size="10.00">reverse</text>
</a>
</g>
</g>
<!-- Node1&#45;&gt;Node4 -->
<g id="edge3" class="edge">
<title>Node1&#45;&gt;Node4</title>
<path fill="none" stroke="#63b8ff" d="M232.46,-73.36C218.84,-75.57 204.94,-77.83 193.72,-79.65"/>
<polygon fill="#63b8ff" stroke="#63b8ff" points="232.96,-76.82 242.27,-71.76 231.84,-69.91 232.96,-76.82"/>
</g>
<!-- Node5 -->
<g id="node5" class="node">
<title>Node5</title>
<g id="a_node5"><a xlink:href="motor__control_8c.html#a2b3e4a3587c92c609c39b1a5778bcf00" target="_top" xlink:title="A function to turn the car left.">
<polygon fill="white" stroke="#666666" points="195,-56 143,-56 143,-37 195,-37 195,-56"/>
<text text-anchor="middle" x="169" y="-44" font-family="Helvetica,sans-Serif" font-size="10.00">turn_left</text>
</a>
</g>
</g>
<!-- Node1&#45;&gt;Node5 -->
<g id="edge4" class="edge">
<title>Node1&#45;&gt;Node5</title>
<path fill="none" stroke="#63b8ff" d="M232.51,-56.12C219.55,-54.12 206.32,-52.09 195.4,-50.41"/>
<polygon fill="#63b8ff" stroke="#63b8ff" points="231.85,-59.56 242.27,-57.62 232.92,-52.64 231.85,-59.56"/>
</g>
<!-- Node6 -->
<g id="node6" class="node">
<title>Node6</title>
<g id="a_node6"><a xlink:href="motor__control_8c.html#adb5876f4cb9a5649408fdff387502929" target="_top" xlink:title="A function to turn the car right.">
<polygon fill="white" stroke="#666666" points="197.5,-19 140.5,-19 140.5,0 197.5,0 197.5,-19"/>
<text text-anchor="middle" x="169" y="-7" font-family="Helvetica,sans-Serif" font-size="10.00">turn_right</text>
</a>
</g>
</g>
<!-- Node1&#45;&gt;Node6 -->
<g id="edge6" class="edge">
<title>Node1&#45;&gt;Node6</title>
<path fill="none" stroke="#63b8ff" d="M255.42,-49.65C234.99,-40.05 208.96,-27.81 191.03,-19.39"/>
<polygon fill="#63b8ff" stroke="#63b8ff" points="253.9,-52.81 264.44,-53.9 256.88,-46.47 253.9,-52.81"/>
</g>
<!-- Node3 -->
<g id="node3" class="node">
<title>Node3</title>
<g id="a_node3"><a xlink:href="pid_8c.html#a0e5de50418f75fc0da6bce222ceb343d" target="_top" xlink:title="Function to turn the car based on a given direction.">
<polygon fill="white" stroke="#666666" points="94,-56 0,-56 0,-37 94,-37 94,-56"/>
<text text-anchor="middle" x="47" y="-44" font-family="Helvetica,sans-Serif" font-size="10.00">navigate_car_turn</text>
</a>
</g>
</g>
<!-- Node2&#45;&gt;Node3 -->
<g id="edge2" class="edge">
<title>Node2&#45;&gt;Node3</title>
<path fill="none" stroke="#63b8ff" d="M135.73,-105.65C133.78,-104.62 131.85,-103.56 130,-102.5 104.73,-88 77.09,-68.24 61.22,-56.48"/>
<polygon fill="#63b8ff" stroke="#63b8ff" points="133.74,-108.57 144.24,-109.92 136.88,-102.31 133.74,-108.57"/>
</g>
<!-- Node5&#45;&gt;Node3 -->
<g id="edge5" class="edge">
<title>Node5&#45;&gt;Node3</title>
<path fill="none" stroke="#63b8ff" d="M131.39,-46.5C119.68,-46.5 106.55,-46.5 94.24,-46.5"/>
<polygon fill="#63b8ff" stroke="#63b8ff" points="131.04,-50 141.04,-46.5 131.04,-43 131.04,-50"/>
</g>
<!-- Node6&#45;&gt;Node3 -->
<g id="edge7" class="edge">
<title>Node6&#45;&gt;Node3</title>
<path fill="none" stroke="#63b8ff" d="M129.62,-21.34C113.74,-26.23 95.54,-31.84 80.36,-36.52"/>
<polygon fill="#63b8ff" stroke="#63b8ff" points="130.2,-24.82 138.72,-18.53 128.13,-18.13 130.2,-24.82"/>
</g>
</g>
</svg>
