<?xml version="1.0" encoding="UTF-8" standalone="no"?>
<!DOCTYPE svg PUBLIC "-//W3C//DTD SVG 1.1//EN"
 "http://www.w3.org/Graphics/SVG/1.1/DTD/svg11.dtd">
<!-- Generated by graphviz version 7.0.5 (20221223.1930)
 -->
<!-- Title: update_pwm Pages: 1 -->
<svg width="324pt" height="175pt"
 viewBox="0.00 0.00 324.00 175.00" xmlns="http://www.w3.org/2000/svg" xmlns:xlink="http://www.w3.org/1999/xlink">
<g id="graph0" class="graph" transform="scale(1 1) rotate(0) translate(4 171)">
<title>update_pwm</title>
<!-- Node1 -->
<g id="node1" class="node">
<title>Node1</title>
<g id="a_node1"><a xlink:title="A function to update the PWM duty cycle and wrap value.">
<polygon fill="#999999" stroke="#666666" points="316,-93 244,-93 244,-74 316,-74 316,-93"/>
<text text-anchor="middle" x="280" y="-81" font-family="Helvetica,sans-Serif" font-size="10.00">update_pwm</text>
</a>
</g>
</g>
<!-- Node2 -->
<g id="node2" class="node">
<title>Node2</title>
<g id="a_node2"><a xlink:href="motor__control_8c.html#ae550a3c67881c84d0b773c23e5b3aecd" target="_top" xlink:title="A function to move the car forward.">
<polygon fill="white" stroke="#666666" points="208,-167 130,-167 130,-148 208,-148 208,-167"/>
<text text-anchor="middle" x="169" y="-155" font-family="Helvetica,sans-Serif" font-size="10.00">move_forward</text>
</a>
</g>
</g>
<!-- Node1&#45;&gt;Node2 -->
<g id="edge1" class="edge">
<title>Node1&#45;&gt;Node2</title>
<path fill="none" stroke="#63b8ff" d="M259.42,-100.92C245.64,-112.67 226.43,-128.07 208,-139.5 203.29,-142.42 198.02,-145.2 192.95,-147.65"/>
<polygon fill="#63b8ff" stroke="#63b8ff" points="261.62,-103.64 266.88,-94.44 257.04,-98.36 261.62,-103.64"/>
</g>
<!-- Node4 -->
<g id="node4" class="node">
<title>Node4</title>
<g id="a_node4"><a xlink:href="motor__control_8c.html#a310c0bebc002158f5646a91d60e4dc89" target="_top" xlink:title="A function to reverse the car.">
<polygon fill="white" stroke="#666666" points="193.5,-130 144.5,-130 144.5,-111 193.5,-111 193.5,-130"/>
<text text-anchor="middle" x="169" y="-118" font-family="Helvetica,sans-Serif" font-size="10.00">reverse</text>
</a>
</g>
</g>
<!-- Node1&#45;&gt;Node4 -->
<g id="edge3" class="edge">
<title>Node1&#45;&gt;Node4</title>
<path fill="none" stroke="#63b8ff" d="M239.08,-97.05C223.87,-102.21 207.03,-107.93 193.78,-112.43"/>
<polygon fill="#63b8ff" stroke="#63b8ff" points="240.01,-100.43 248.36,-93.9 237.76,-93.8 240.01,-100.43"/>
</g>
<!-- Node5 -->
<g id="node5" class="node">
<title>Node5</title>
<g id="a_node5"><a xlink:href="motor__control_8c.html#a8c528baf37154d347366083f0f816846" target="_top" xlink:title="A function to stop the car.">
<polygon fill="white" stroke="#666666" points="186.5,-93 151.5,-93 151.5,-74 186.5,-74 186.5,-93"/>
<text text-anchor="middle" x="169" y="-81" font-family="Helvetica,sans-Serif" font-size="10.00">stop</text>
</a>
</g>
</g>
<!-- Node1&#45;&gt;Node5 -->
<g id="edge4" class="edge">
<title>Node1&#45;&gt;Node5</title>
<path fill="none" stroke="#63b8ff" d="M232.14,-83.5C216.06,-83.5 199.06,-83.5 186.92,-83.5"/>
<polygon fill="#63b8ff" stroke="#63b8ff" points="232.1,-87 242.1,-83.5 232.1,-80 232.1,-87"/>
</g>
<!-- Node6 -->
<g id="node6" class="node">
<title>Node6</title>
<g id="a_node6"><a xlink:href="motor__control_8c.html#a2b3e4a3587c92c609c39b1a5778bcf00" target="_top" xlink:title="A function to turn the car left.">
<polygon fill="white" stroke="#666666" points="195,-56 143,-56 143,-37 195,-37 195,-56"/>
<text text-anchor="middle" x="169" y="-44" font-family="Helvetica,sans-Serif" font-size="10.00">turn_left</text>
</a>
</g>
</g>
<!-- Node1&#45;&gt;Node6 -->
<g id="edge5" class="edge">
<title>Node1&#45;&gt;Node6</title>
<path fill="none" stroke="#63b8ff" d="M238.97,-69.91C224.33,-64.94 208.2,-59.47 195.21,-55.06"/>
<polygon fill="#63b8ff" stroke="#63b8ff" points="237.76,-73.2 248.36,-73.1 240.01,-66.57 237.76,-73.2"/>
</g>
<!-- Node7 -->
<g id="node7" class="node">
<title>Node7</title>
<g id="a_node7"><a xlink:href="motor__control_8c.html#adb5876f4cb9a5649408fdff387502929" target="_top" xlink:title="A function to turn the car right.">
<polygon fill="white" stroke="#666666" points="197.5,-19 140.5,-19 140.5,0 197.5,0 197.5,-19"/>
<text text-anchor="middle" x="169" y="-7" font-family="Helvetica,sans-Serif" font-size="10.00">turn_right</text>
</a>
</g>
</g>
<!-- Node1&#45;&gt;Node7 -->
<g id="edge7" class="edge">
<title>Node1&#45;&gt;Node7</title>
<path fill="none" stroke="#63b8ff" d="M259.3,-66.55C245.46,-55.07 226.23,-39.96 208,-28.5 202.88,-25.28 197.14,-22.17 191.71,-19.44"/>
<polygon fill="#63b8ff" stroke="#63b8ff" points="256.88,-69.09 266.78,-72.85 261.39,-63.73 256.88,-69.09"/>
</g>
<!-- Node3 -->
<g id="node3" class="node">
<title>Node3</title>
<g id="a_node3"><a xlink:href="pid_8c.html#a0e5de50418f75fc0da6bce222ceb343d" target="_top" xlink:title="Function to turn the car based on a given direction.">
<polygon fill="white" stroke="#666666" points="94,-56 0,-56 0,-37 94,-37 94,-56"/>
<text text-anchor="middle" x="47" y="-44" font-family="Helvetica,sans-Serif" font-size="10.00">navigate_car_turn</text>
</a>
</g>
</g>
<!-- Node2&#45;&gt;Node3 -->
<g id="edge2" class="edge">
<title>Node2&#45;&gt;Node3</title>
<path fill="none" stroke="#63b8ff" d="M133.57,-142.01C132.34,-141.2 131.15,-140.36 130,-139.5 96.98,-114.64 67.37,-74.76 54.62,-56.37"/>
<polygon fill="#63b8ff" stroke="#63b8ff" points="131.71,-144.98 142.12,-146.92 135.19,-138.9 131.71,-144.98"/>
</g>
<!-- Node6&#45;&gt;Node3 -->
<g id="edge6" class="edge">
<title>Node6&#45;&gt;Node3</title>
<path fill="none" stroke="#63b8ff" d="M131.39,-46.5C119.68,-46.5 106.55,-46.5 94.24,-46.5"/>
<polygon fill="#63b8ff" stroke="#63b8ff" points="131.04,-50 141.04,-46.5 131.04,-43 131.04,-50"/>
</g>
<!-- Node7&#45;&gt;Node3 -->
<g id="edge8" class="edge">
<title>Node7&#45;&gt;Node3</title>
<path fill="none" stroke="#63b8ff" d="M129.62,-21.34C113.74,-26.23 95.54,-31.84 80.36,-36.52"/>
<polygon fill="#63b8ff" stroke="#63b8ff" points="130.2,-24.82 138.72,-18.53 128.13,-18.13 130.2,-24.82"/>
</g>
</g>
</svg>
