<?xml version="1.0" encoding="UTF-8" standalone="no"?>
<!DOCTYPE svg PUBLIC "-//W3C//DTD SVG 1.1//EN"
 "http://www.w3.org/Graphics/SVG/1.1/DTD/svg11.dtd">
<!-- Generated by graphviz version 7.0.5 (20221223.1930)
 -->
<!-- Title: src/drivers/motor/motor_control.h Pages: 1 -->
<svg width="594pt" height="104pt"
 viewBox="0.00 0.00 594.00 104.00" xmlns="http://www.w3.org/2000/svg" xmlns:xlink="http://www.w3.org/1999/xlink">
<g id="graph0" class="graph" transform="scale(1 1) rotate(0) translate(4 100)">
<title>src/drivers/motor/motor_control.h</title>
<!-- Node1 -->
<g id="node1" class="node">
<title>Node1</title>
<g id="a_node1"><a xlink:title="Header file for motor control drivers.">
<polygon fill="#999999" stroke="#666666" points="390,-96 272,-96 272,-66 390,-66 390,-96"/>
<text text-anchor="start" x="280" y="-84" font-family="Helvetica,sans-Serif" font-size="10.00">src/drivers/motor/motor</text>
<text text-anchor="middle" x="331" y="-73" font-family="Helvetica,sans-Serif" font-size="10.00">_control.h</text>
</a>
</g>
</g>
<!-- Node2 -->
<g id="node2" class="node">
<title>Node2</title>
<g id="a_node2"><a xlink:href="drivers_2motor_2main_8c.html" target="_top" xlink:title="Demonstration for the motor driver.">
<polygon fill="white" stroke="#666666" points="122,-24.5 0,-24.5 0,-5.5 122,-5.5 122,-24.5"/>
<text text-anchor="middle" x="61" y="-12.5" font-family="Helvetica,sans-Serif" font-size="10.00">src/drivers/motor/main.c</text>
</a>
</g>
</g>
<!-- Node1&#45;&gt;Node2 -->
<g id="edge1" class="edge">
<title>Node1&#45;&gt;Node2</title>
<path fill="none" stroke="#63b8ff" d="M260.65,-63.33C208.97,-51.07 140.73,-34.9 98.9,-24.98"/>
<polygon fill="#63b8ff" stroke="#63b8ff" points="259.74,-66.7 270.27,-65.61 261.35,-59.89 259.74,-66.7"/>
</g>
<!-- Node3 -->
<g id="node3" class="node">
<title>Node3</title>
<g id="a_node3"><a xlink:href="motor__control_8c.html" target="_top" xlink:title="Source file for the motor driver.">
<polygon fill="white" stroke="#666666" points="258,-30 140,-30 140,0 258,0 258,-30"/>
<text text-anchor="start" x="148" y="-18" font-family="Helvetica,sans-Serif" font-size="10.00">src/drivers/motor/motor</text>
<text text-anchor="middle" x="199" y="-7" font-family="Helvetica,sans-Serif" font-size="10.00">_control.c</text>
</a>
</g>
</g>
<!-- Node1&#45;&gt;Node3 -->
<g id="edge2" class="edge">
<title>Node1&#45;&gt;Node3</title>
<path fill="none" stroke="#63b8ff" d="M291.24,-60.72C271.08,-50.95 247.02,-39.28 228.52,-30.31"/>
<polygon fill="#63b8ff" stroke="#63b8ff" points="289.49,-63.76 300.01,-64.98 292.54,-57.46 289.49,-63.76"/>
</g>
<!-- Node4 -->
<g id="node4" class="node">
<title>Node4</title>
<g id="a_node4"><a xlink:href="drivers_2pid_2main_8c.html" target="_top" xlink:title="Demonstration for the PID driver.">
<polygon fill="white" stroke="#666666" points="386,-24.5 276,-24.5 276,-5.5 386,-5.5 386,-24.5"/>
<text text-anchor="middle" x="331" y="-12.5" font-family="Helvetica,sans-Serif" font-size="10.00">src/drivers/pid/main.c</text>
</a>
</g>
</g>
<!-- Node1&#45;&gt;Node4 -->
<g id="edge3" class="edge">
<title>Node1&#45;&gt;Node4</title>
<path fill="none" stroke="#63b8ff" d="M331,-54.59C331,-44.06 331,-32.53 331,-24.84"/>
<polygon fill="#63b8ff" stroke="#63b8ff" points="327.5,-54.28 331,-64.28 334.5,-54.28 327.5,-54.28"/>
</g>
<!-- Node5 -->
<g id="node5" class="node">
<title>Node5</title>
<g id="a_node5"><a xlink:href="pid_8c.html" target="_top" xlink:title="Driver for PID control.">
<polygon fill="white" stroke="#666666" points="505.5,-24.5 404.5,-24.5 404.5,-5.5 505.5,-5.5 505.5,-24.5"/>
<text text-anchor="middle" x="455" y="-12.5" font-family="Helvetica,sans-Serif" font-size="10.00">src/drivers/pid/pid.c</text>
</a>
</g>
</g>
<!-- Node1&#45;&gt;Node5 -->
<g id="edge4" class="edge">
<title>Node1&#45;&gt;Node5</title>
<path fill="none" stroke="#63b8ff" d="M368.92,-60.43C391.8,-48.62 419.86,-34.14 437.59,-24.99"/>
<polygon fill="#63b8ff" stroke="#63b8ff" points="367.45,-57.25 360.17,-64.94 370.66,-63.47 367.45,-57.25"/>
</g>
<!-- Node6 -->
<g id="node6" class="node">
<title>Node6</title>
<g id="a_node6"><a xlink:href="main_8c.html" target="_top" xlink:title="The main source file for robot control.">
<polygon fill="white" stroke="#666666" points="586,-24.5 524,-24.5 524,-5.5 586,-5.5 586,-24.5"/>
<text text-anchor="middle" x="555" y="-12.5" font-family="Helvetica,sans-Serif" font-size="10.00">src/main.c</text>
</a>
</g>
</g>
<!-- Node1&#45;&gt;Node6 -->
<g id="edge5" class="edge">
<title>Node1&#45;&gt;Node6</title>
<path fill="none" stroke="#63b8ff" d="M399.48,-62.63C434.25,-53.5 477.06,-41.78 515,-30 520.06,-28.43 525.44,-26.63 530.55,-24.87"/>
<polygon fill="#63b8ff" stroke="#63b8ff" points="398.75,-59.21 389.96,-65.12 400.52,-65.98 398.75,-59.21"/>
</g>
</g>
</svg>
