<?xml version="1.0" encoding="UTF-8" standalone="no"?>
<!DOCTYPE svg PUBLIC "-//W3C//DTD SVG 1.1//EN"
 "http://www.w3.org/Graphics/SVG/1.1/DTD/svg11.dtd">
<!-- Generated by graphviz version 7.0.5 (20221223.1930)
 -->
<!-- Title: main/driver/motor/motor_control.h Pages: 1 -->
<svg width="311pt" height="104pt"
 viewBox="0.00 0.00 310.50 104.00" xmlns="http://www.w3.org/2000/svg" xmlns:xlink="http://www.w3.org/1999/xlink">
<g id="graph0" class="graph" transform="scale(1 1) rotate(0) translate(4 100)">
<title>main/driver/motor/motor_control.h</title>
<!-- Node1 -->
<g id="node1" class="node">
<title>Node1</title>
<g id="a_node1"><a xlink:title=" ">
<polygon fill="#999999" stroke="#666666" points="233,-96 113,-96 113,-66 233,-66 233,-96"/>
<text text-anchor="start" x="121" y="-84" font-family="Helvetica,sans-Serif" font-size="10.00">main/driver/motor/motor</text>
<text text-anchor="middle" x="173" y="-73" font-family="Helvetica,sans-Serif" font-size="10.00">_control.h</text>
</a>
</g>
</g>
<!-- Node2 -->
<g id="node2" class="node">
<title>Node2</title>
<g id="a_node2"><a xlink:href="motor__control_8c.html" target="_top" xlink:title=" ">
<polygon fill="white" stroke="#666666" points="120,-30 0,-30 0,0 120,0 120,-30"/>
<text text-anchor="start" x="8" y="-18" font-family="Helvetica,sans-Serif" font-size="10.00">main/driver/motor/motor</text>
<text text-anchor="middle" x="60" y="-7" font-family="Helvetica,sans-Serif" font-size="10.00">_control.c</text>
</a>
</g>
</g>
<!-- Node1&#45;&gt;Node2 -->
<g id="edge1" class="edge">
<title>Node1&#45;&gt;Node2</title>
<path fill="none" stroke="#63b8ff" d="M138.01,-60.18C120.95,-50.52 100.82,-39.12 85.27,-30.31"/>
<polygon fill="#63b8ff" stroke="#63b8ff" points="135.9,-63.01 146.32,-64.89 139.35,-56.92 135.9,-63.01"/>
</g>
<!-- Node3 -->
<g id="node3" class="node">
<title>Node3</title>
<g id="a_node3"><a xlink:href="main_8c.html" target="_top" xlink:title="The main source file for robot control.">
<polygon fill="white" stroke="#666666" points="207.5,-24.5 138.5,-24.5 138.5,-5.5 207.5,-5.5 207.5,-24.5"/>
<text text-anchor="middle" x="173" y="-12.5" font-family="Helvetica,sans-Serif" font-size="10.00">main/main.c</text>
</a>
</g>
</g>
<!-- Node1&#45;&gt;Node3 -->
<g id="edge2" class="edge">
<title>Node1&#45;&gt;Node3</title>
<path fill="none" stroke="#63b8ff" d="M173,-54.59C173,-44.06 173,-32.53 173,-24.84"/>
<polygon fill="#63b8ff" stroke="#63b8ff" points="169.5,-54.28 173,-64.28 176.5,-54.28 169.5,-54.28"/>
</g>
<!-- Node4 -->
<g id="node4" class="node">
<title>Node4</title>
<g id="a_node4"><a xlink:href="pid_8c.html" target="_top" xlink:title=" ">
<polygon fill="white" stroke="#666666" points="302.5,-24.5 225.5,-24.5 225.5,-5.5 302.5,-5.5 302.5,-24.5"/>
<text text-anchor="middle" x="264" y="-12.5" font-family="Helvetica,sans-Serif" font-size="10.00">main/pid/pid.c</text>
</a>
</g>
</g>
<!-- Node1&#45;&gt;Node4 -->
<g id="edge3" class="edge">
<title>Node1&#45;&gt;Node4</title>
<path fill="none" stroke="#63b8ff" d="M202.49,-59.26C219.05,-47.61 238.85,-33.69 251.42,-24.84"/>
<polygon fill="#63b8ff" stroke="#63b8ff" points="200.6,-56.31 194.43,-64.93 204.63,-62.04 200.6,-56.31"/>
</g>
</g>
</svg>
