<?xml version="1.0" encoding="UTF-8" standalone="no"?>
<!DOCTYPE svg PUBLIC "-//W3C//DTD SVG 1.1//EN"
 "http://www.w3.org/Graphics/SVG/1.1/DTD/svg11.dtd">
<!-- Generated by graphviz version 7.0.5 (20221223.1930)
 -->
<!-- Title: main/driver/motor/motor_control.c Pages: 1 -->
<svg width="465pt" height="148pt"
 viewBox="0.00 0.00 464.50 148.00" xmlns="http://www.w3.org/2000/svg" xmlns:xlink="http://www.w3.org/1999/xlink">
<g id="graph0" class="graph" transform="scale(1 1) rotate(0) translate(4 144)">
<title>main/driver/motor/motor_control.c</title>
<!-- Node1 -->
<g id="node1" class="node">
<title>Node1</title>
<g id="a_node1"><a xlink:title=" ">
<polygon fill="#999999" stroke="#666666" points="257.5,-140 137.5,-140 137.5,-110 257.5,-110 257.5,-140"/>
<text text-anchor="start" x="145.5" y="-128" font-family="Helvetica,sans-Serif" font-size="10.00">main/driver/motor/motor</text>
<text text-anchor="middle" x="197.5" y="-117" font-family="Helvetica,sans-Serif" font-size="10.00">_control.c</text>
</a>
</g>
</g>
<!-- Node2 -->
<g id="node2" class="node">
<title>Node2</title>
<g id="a_node2"><a xlink:title=" ">
<polygon fill="#e0e0e0" stroke="#999999" points="45,-74 0,-74 0,-55 45,-55 45,-74"/>
<text text-anchor="middle" x="22.5" y="-62" font-family="Helvetica,sans-Serif" font-size="10.00">stdio.h</text>
</a>
</g>
</g>
<!-- Node1&#45;&gt;Node2 -->
<g id="edge1" class="edge">
<title>Node1&#45;&gt;Node2</title>
<path fill="none" stroke="#63b8ff" d="M154.24,-109.54C124,-99.43 84.18,-86.12 56.27,-76.79"/>
<polygon fill="#63b8ff" stroke="#63b8ff" points="57.49,-73.51 46.9,-73.66 55.27,-80.15 57.49,-73.51"/>
</g>
<!-- Node3 -->
<g id="node3" class="node">
<title>Node3</title>
<g id="a_node3"><a xlink:title=" ">
<polygon fill="#e0e0e0" stroke="#999999" points="193.5,-19 137.5,-19 137.5,0 193.5,0 193.5,-19"/>
<text text-anchor="middle" x="165.5" y="-7" font-family="Helvetica,sans-Serif" font-size="10.00">stdbool.h</text>
</a>
</g>
</g>
<!-- Node1&#45;&gt;Node3 -->
<g id="edge2" class="edge">
<title>Node1&#45;&gt;Node3</title>
<path fill="none" stroke="#63b8ff" d="M139.23,-109.61C121.11,-102.09 103.12,-90.82 92.5,-74 79.32,-53.12 105.34,-35.28 129.9,-23.88"/>
<polygon fill="#63b8ff" stroke="#63b8ff" points="131.05,-27.19 138.82,-20 128.26,-20.77 131.05,-27.19"/>
</g>
<!-- Node4 -->
<g id="node4" class="node">
<title>Node4</title>
<g id="a_node4"><a xlink:title=" ">
<polygon fill="#e0e0e0" stroke="#999999" points="189.5,-74 101.5,-74 101.5,-55 189.5,-55 189.5,-74"/>
<text text-anchor="middle" x="145.5" y="-62" font-family="Helvetica,sans-Serif" font-size="10.00">hardware/pwm.h</text>
</a>
</g>
</g>
<!-- Node1&#45;&gt;Node4 -->
<g id="edge3" class="edge">
<title>Node1&#45;&gt;Node4</title>
<path fill="none" stroke="#63b8ff" d="M184.65,-109.54C177.4,-101.39 168.31,-91.16 160.71,-82.61"/>
<polygon fill="#63b8ff" stroke="#63b8ff" points="163.48,-80.46 154.22,-75.31 158.24,-85.11 163.48,-80.46"/>
</g>
<!-- Node5 -->
<g id="node5" class="node">
<title>Node5</title>
<g id="a_node5"><a xlink:title=" ">
<polygon fill="#e0e0e0" stroke="#999999" points="293,-74 208,-74 208,-55 293,-55 293,-74"/>
<text text-anchor="middle" x="250.5" y="-62" font-family="Helvetica,sans-Serif" font-size="10.00">hardware/gpio.h</text>
</a>
</g>
</g>
<!-- Node1&#45;&gt;Node5 -->
<g id="edge4" class="edge">
<title>Node1&#45;&gt;Node5</title>
<path fill="none" stroke="#63b8ff" d="M210.6,-109.54C217.98,-101.39 227.25,-91.16 235,-82.61"/>
<polygon fill="#63b8ff" stroke="#63b8ff" points="237.5,-85.06 241.62,-75.3 232.32,-80.36 237.5,-85.06"/>
</g>
<!-- Node6 -->
<g id="node6" class="node">
<title>Node6</title>
<g id="a_node6"><a xlink:title=" ">
<polygon fill="#e0e0e0" stroke="#999999" points="456.5,-19 388.5,-19 388.5,0 456.5,0 456.5,-19"/>
<text text-anchor="middle" x="422.5" y="-7" font-family="Helvetica,sans-Serif" font-size="10.00">pico/types.h</text>
</a>
</g>
</g>
<!-- Node1&#45;&gt;Node6 -->
<g id="edge5" class="edge">
<title>Node1&#45;&gt;Node6</title>
<path fill="none" stroke="#63b8ff" d="M257.96,-116.08C310.97,-107.96 382.71,-93.73 403.5,-74 415.26,-62.84 419.83,-44.74 421.56,-30.71"/>
<polygon fill="#63b8ff" stroke="#63b8ff" points="425.05,-31.04 422.36,-20.79 418.07,-30.48 425.05,-31.04"/>
</g>
<!-- Node7 -->
<g id="node7" class="node">
<title>Node7</title>
<g id="a_node7"><a xlink:href="motor__control_8h.html" target="_top" xlink:title=" ">
<polygon fill="white" stroke="#666666" points="394,-74 311,-74 311,-55 394,-55 394,-74"/>
<text text-anchor="middle" x="352.5" y="-62" font-family="Helvetica,sans-Serif" font-size="10.00">motor_control.h</text>
</a>
</g>
</g>
<!-- Node1&#45;&gt;Node7 -->
<g id="edge6" class="edge">
<title>Node1&#45;&gt;Node7</title>
<path fill="none" stroke="#63b8ff" d="M235.81,-109.54C261.16,-99.97 294.09,-87.55 318.5,-78.33"/>
<polygon fill="#63b8ff" stroke="#63b8ff" points="319.53,-81.69 327.65,-74.88 317.05,-75.14 319.53,-81.69"/>
</g>
<!-- Node7&#45;&gt;Node3 -->
<g id="edge7" class="edge">
<title>Node7&#45;&gt;Node3</title>
<path fill="none" stroke="#63b8ff" d="M320.78,-54.51C288.76,-45.43 239.25,-31.4 204.77,-21.63"/>
<polygon fill="#63b8ff" stroke="#63b8ff" points="205.73,-18.27 195.16,-18.91 203.82,-25 205.73,-18.27"/>
</g>
<!-- Node7&#45;&gt;Node6 -->
<g id="edge9" class="edge">
<title>Node7&#45;&gt;Node6</title>
<path fill="none" stroke="#63b8ff" d="M364.37,-54.51C374.59,-46.77 389.57,-35.43 401.76,-26.2"/>
<polygon fill="#63b8ff" stroke="#63b8ff" points="403.73,-29.1 409.59,-20.27 399.51,-23.52 403.73,-29.1"/>
</g>
<!-- Node8 -->
<g id="node8" class="node">
<title>Node8</title>
<g id="a_node8"><a xlink:title=" ">
<polygon fill="#e0e0e0" stroke="#999999" points="370.5,-19 302.5,-19 302.5,0 370.5,0 370.5,-19"/>
<text text-anchor="middle" x="336.5" y="-7" font-family="Helvetica,sans-Serif" font-size="10.00">pico/stdlib.h</text>
</a>
</g>
</g>
<!-- Node7&#45;&gt;Node8 -->
<g id="edge8" class="edge">
<title>Node7&#45;&gt;Node8</title>
<path fill="none" stroke="#63b8ff" d="M349.86,-54.75C347.86,-48.11 345.02,-38.73 342.48,-30.31"/>
<polygon fill="#63b8ff" stroke="#63b8ff" points="345.88,-29.45 339.64,-20.89 339.18,-31.48 345.88,-29.45"/>
</g>
</g>
</svg>
