<?xml version="1.0" encoding="UTF-8" standalone="no"?>
<!DOCTYPE svg PUBLIC "-//W3C//DTD SVG 1.1//EN"
 "http://www.w3.org/Graphics/SVG/1.1/DTD/svg11.dtd">
<!-- Generated by graphviz version 7.0.5 (20221223.1930)
 -->
<!-- Title: motor_update_direction Pages: 1 -->
<svg width="523pt" height="138pt"
 viewBox="0.00 0.00 523.00 138.00" xmlns="http://www.w3.org/2000/svg" xmlns:xlink="http://www.w3.org/1999/xlink">
<g id="graph0" class="graph" transform="scale(1 1) rotate(0) translate(4 134)">
<title>motor_update_direction</title>
<!-- Node1 -->
<g id="node1" class="node">
<title>Node1</title>
<g id="a_node1"><a xlink:title="A function to update the direction of the motor&#39;s rotation.">
<polygon fill="#999999" stroke="#666666" points="515,-74 397,-74 397,-55 515,-55 515,-74"/>
<text text-anchor="middle" x="456" y="-62" font-family="Helvetica,sans-Serif" font-size="10.00">motor_update_direction</text>
</a>
</g>
</g>
<!-- Node2 -->
<g id="node2" class="node">
<title>Node2</title>
<g id="a_node2"><a xlink:href="motor__control_8c.html#aa0ac4ae2f8c20282dec6b8e443fd6666" target="_top" xlink:title="A function to move the car forward.">
<polygon fill="white" stroke="#666666" points="361,-130 253,-130 253,-111 361,-111 361,-130"/>
<text text-anchor="middle" x="307" y="-118" font-family="Helvetica,sans-Serif" font-size="10.00">motor_move_forward</text>
</a>
</g>
</g>
<!-- Node1&#45;&gt;Node2 -->
<g id="edge1" class="edge">
<title>Node1&#45;&gt;Node2</title>
<path fill="none" stroke="#63b8ff" d="M421.13,-78.73C403.33,-86.08 381.09,-95.04 361,-102.5 353.71,-105.21 345.8,-107.98 338.37,-110.51"/>
<polygon fill="#63b8ff" stroke="#63b8ff" points="422.29,-82.04 430.18,-74.98 419.6,-75.58 422.29,-82.04"/>
</g>
<!-- Node5 -->
<g id="node5" class="node">
<title>Node5</title>
<g id="a_node5"><a xlink:href="motor__control_8c.html#a0796140da7a16bab07b05853d114cd1e" target="_top" xlink:title="A function to reverse the car.">
<polygon fill="white" stroke="#666666" points="346.5,-93 267.5,-93 267.5,-74 346.5,-74 346.5,-93"/>
<text text-anchor="middle" x="307" y="-81" font-family="Helvetica,sans-Serif" font-size="10.00">motor_reverse</text>
</a>
</g>
</g>
<!-- Node1&#45;&gt;Node5 -->
<g id="edge5" class="edge">
<title>Node1&#45;&gt;Node5</title>
<path fill="none" stroke="#63b8ff" d="M385.72,-73.45C372.31,-75.19 358.71,-76.95 346.71,-78.5"/>
<polygon fill="#63b8ff" stroke="#63b8ff" points="385.93,-76.96 395.4,-72.2 385.03,-70.01 385.93,-76.96"/>
</g>
<!-- Node6 -->
<g id="node6" class="node">
<title>Node6</title>
<g id="a_node6"><a xlink:href="motor__control_8c.html#a24063f2aae5b4a3eb6b33dc2eea150dd" target="_top" xlink:title="A function to turn the car left.">
<polygon fill="white" stroke="#666666" points="348,-56 266,-56 266,-37 348,-37 348,-56"/>
<text text-anchor="middle" x="307" y="-44" font-family="Helvetica,sans-Serif" font-size="10.00">motor_turn_left</text>
</a>
</g>
</g>
<!-- Node1&#45;&gt;Node6 -->
<g id="edge6" class="edge">
<title>Node1&#45;&gt;Node6</title>
<path fill="none" stroke="#63b8ff" d="M385.76,-56.02C372.99,-54.46 360.05,-52.87 348.48,-51.46"/>
<polygon fill="#63b8ff" stroke="#63b8ff" points="385.05,-59.46 395.4,-57.2 385.9,-52.51 385.05,-59.46"/>
</g>
<!-- Node7 -->
<g id="node7" class="node">
<title>Node7</title>
<g id="a_node7"><a xlink:href="motor__control_8c.html#a63c73ae82a6d47bc620608fc752b83f9" target="_top" xlink:title="A function to turn the car right.">
<polygon fill="white" stroke="#666666" points="350.5,-19 263.5,-19 263.5,0 350.5,0 350.5,-19"/>
<text text-anchor="middle" x="307" y="-7" font-family="Helvetica,sans-Serif" font-size="10.00">motor_turn_right</text>
</a>
</g>
</g>
<!-- Node1&#45;&gt;Node7 -->
<g id="edge8" class="edge">
<title>Node1&#45;&gt;Node7</title>
<path fill="none" stroke="#63b8ff" d="M419.18,-50.57C401.67,-43.82 380.27,-35.64 361,-28.5 352.93,-25.51 344.15,-22.33 336.1,-19.45"/>
<polygon fill="#63b8ff" stroke="#63b8ff" points="417.52,-53.69 428.11,-54.03 420.05,-47.16 417.52,-53.69"/>
</g>
<!-- Node3 -->
<g id="node3" class="node">
<title>Node3</title>
<g id="a_node3"><a xlink:href="pid_8c.html#a71879f5750062bb9d1e51da2a02d626d" target="_top" xlink:title="Function to turn the car and move in a given direction.">
<polygon fill="white" stroke="#666666" points="217,-56 124,-56 124,-37 217,-37 217,-56"/>
<text text-anchor="middle" x="170.5" y="-44" font-family="Helvetica,sans-Serif" font-size="10.00">pid_navigate_turn</text>
</a>
</g>
</g>
<!-- Node2&#45;&gt;Node3 -->
<g id="edge2" class="edge">
<title>Node2&#45;&gt;Node3</title>
<path fill="none" stroke="#63b8ff" d="M261.46,-106.39C258.56,-105.16 255.72,-103.86 253,-102.5 226.6,-89.27 198.89,-68.54 183.54,-56.36"/>
<polygon fill="#63b8ff" stroke="#63b8ff" points="260.07,-109.6 270.66,-109.98 262.62,-103.08 260.07,-109.6"/>
</g>
<!-- Node4 -->
<g id="node4" class="node">
<title>Node4</title>
<g id="a_node4"><a xlink:href="drivers_2pid_2main_8c.html#a0187889d224f77fe06a8bee605897eb3" target="_top" xlink:title="Interrupt callback function on rising edge.">
<polygon fill="white" stroke="#666666" points="88,-56 0,-56 0,-37 88,-37 88,-56"/>
<text text-anchor="middle" x="44" y="-44" font-family="Helvetica,sans-Serif" font-size="10.00">encoder_tick_isr</text>
</a>
</g>
</g>
<!-- Node3&#45;&gt;Node4 -->
<g id="edge3" class="edge">
<title>Node3&#45;&gt;Node4</title>
<path fill="none" stroke="#63b8ff" d="M112.45,-46.5C104.28,-46.5 96,-46.5 88.16,-46.5"/>
<polygon fill="#63b8ff" stroke="#63b8ff" points="112.33,-50 122.33,-46.5 112.33,-43 112.33,-50"/>
</g>
<!-- Node4&#45;&gt;Node4 -->
<g id="edge4" class="edge">
<title>Node4&#45;&gt;Node4</title>
<path fill="none" stroke="#63b8ff" d="M66.45,-67.43C63.65,-71.29 56.16,-74 44,-74 21.76,-74 15.16,-64.94 24.2,-56.37"/>
<polygon fill="#63b8ff" stroke="#63b8ff" points="69.89,-66.75 64.16,-57.84 63.08,-68.38 69.89,-66.75"/>
</g>
<!-- Node6&#45;&gt;Node3 -->
<g id="edge7" class="edge">
<title>Node6&#45;&gt;Node3</title>
<path fill="none" stroke="#63b8ff" d="M254.3,-46.5C242.18,-46.5 229.34,-46.5 217.49,-46.5"/>
<polygon fill="#63b8ff" stroke="#63b8ff" points="254.13,-50 264.13,-46.5 254.13,-43 254.13,-50"/>
</g>
<!-- Node7&#45;&gt;Node3 -->
<g id="edge9" class="edge">
<title>Node7&#45;&gt;Node3</title>
<path fill="none" stroke="#63b8ff" d="M259.18,-22.38C242.28,-27.03 223.49,-32.2 207.64,-36.56"/>
<polygon fill="#63b8ff" stroke="#63b8ff" points="259.78,-25.84 268.5,-19.82 257.93,-19.09 259.78,-25.84"/>
</g>
</g>
</svg>
