<?xml version="1.0" encoding="UTF-8" standalone="no"?>
<!DOCTYPE svg PUBLIC "-//W3C//DTD SVG 1.1//EN"
 "http://www.w3.org/Graphics/SVG/1.1/DTD/svg11.dtd">
<!-- Generated by graphviz version 7.0.5 (20221223.1930)
 -->
<!-- Title: motor_update_pwm Pages: 1 -->
<svg width="507pt" height="175pt"
 viewBox="0.00 0.00 507.00 175.00" xmlns="http://www.w3.org/2000/svg" xmlns:xlink="http://www.w3.org/1999/xlink">
<g id="graph0" class="graph" transform="scale(1 1) rotate(0) translate(4 171)">
<title>motor_update_pwm</title>
<!-- Node1 -->
<g id="node1" class="node">
<title>Node1</title>
<g id="a_node1"><a xlink:title="A function to update the PWM duty cycle and wrap value.">
<polygon fill="#999999" stroke="#666666" points="499,-93 397,-93 397,-74 499,-74 499,-93"/>
<text text-anchor="middle" x="448" y="-81" font-family="Helvetica,sans-Serif" font-size="10.00">motor_update_pwm</text>
</a>
</g>
</g>
<!-- Node2 -->
<g id="node2" class="node">
<title>Node2</title>
<g id="a_node2"><a xlink:href="motor__control_8c.html#aa0ac4ae2f8c20282dec6b8e443fd6666" target="_top" xlink:title="A function to move the car forward.">
<polygon fill="white" stroke="#666666" points="361,-167 253,-167 253,-148 361,-148 361,-167"/>
<text text-anchor="middle" x="307" y="-155" font-family="Helvetica,sans-Serif" font-size="10.00">motor_move_forward</text>
</a>
</g>
</g>
<!-- Node1&#45;&gt;Node2 -->
<g id="edge1" class="edge">
<title>Node1&#45;&gt;Node2</title>
<path fill="none" stroke="#63b8ff" d="M425.19,-99.89C408.33,-112.02 384.04,-128.3 361,-139.5 354.88,-142.47 348.15,-145.17 341.59,-147.51"/>
<polygon fill="#63b8ff" stroke="#63b8ff" points="426.98,-102.93 432.98,-94.2 422.84,-97.28 426.98,-102.93"/>
</g>
<!-- Node5 -->
<g id="node5" class="node">
<title>Node5</title>
<g id="a_node5"><a xlink:href="motor__control_8c.html#a0796140da7a16bab07b05853d114cd1e" target="_top" xlink:title="A function to reverse the car.">
<polygon fill="white" stroke="#666666" points="346.5,-130 267.5,-130 267.5,-111 346.5,-111 346.5,-130"/>
<text text-anchor="middle" x="307" y="-118" font-family="Helvetica,sans-Serif" font-size="10.00">motor_reverse</text>
</a>
</g>
</g>
<!-- Node1&#45;&gt;Node5 -->
<g id="edge5" class="edge">
<title>Node1&#45;&gt;Node5</title>
<path fill="none" stroke="#63b8ff" d="M399.11,-96.25C381.52,-100.93 361.88,-106.16 345.35,-110.56"/>
<polygon fill="#63b8ff" stroke="#63b8ff" points="399.52,-99.76 408.29,-93.8 397.72,-92.99 399.52,-99.76"/>
</g>
<!-- Node6 -->
<g id="node6" class="node">
<title>Node6</title>
<g id="a_node6"><a xlink:href="motor__control_8c.html#a49b123e7151768d344e744d0682660b0" target="_top" xlink:title="A function to stop the car.">
<polygon fill="white" stroke="#666666" points="339.5,-93 274.5,-93 274.5,-74 339.5,-74 339.5,-93"/>
<text text-anchor="middle" x="307" y="-81" font-family="Helvetica,sans-Serif" font-size="10.00">motor_stop</text>
</a>
</g>
</g>
<!-- Node1&#45;&gt;Node6 -->
<g id="edge6" class="edge">
<title>Node1&#45;&gt;Node6</title>
<path fill="none" stroke="#63b8ff" d="M385.51,-83.5C369.78,-83.5 353.49,-83.5 339.93,-83.5"/>
<polygon fill="#63b8ff" stroke="#63b8ff" points="385.3,-87 395.3,-83.5 385.3,-80 385.3,-87"/>
</g>
<!-- Node7 -->
<g id="node7" class="node">
<title>Node7</title>
<g id="a_node7"><a xlink:href="motor__control_8c.html#a24063f2aae5b4a3eb6b33dc2eea150dd" target="_top" xlink:title="A function to turn the car left.">
<polygon fill="white" stroke="#666666" points="348,-56 266,-56 266,-37 348,-37 348,-56"/>
<text text-anchor="middle" x="307" y="-44" font-family="Helvetica,sans-Serif" font-size="10.00">motor_turn_left</text>
</a>
</g>
</g>
<!-- Node1&#45;&gt;Node7 -->
<g id="edge7" class="edge">
<title>Node1&#45;&gt;Node7</title>
<path fill="none" stroke="#63b8ff" d="M399.11,-70.75C381.52,-66.07 361.88,-60.84 345.35,-56.44"/>
<polygon fill="#63b8ff" stroke="#63b8ff" points="397.72,-74.01 408.29,-73.2 399.52,-67.24 397.72,-74.01"/>
</g>
<!-- Node8 -->
<g id="node8" class="node">
<title>Node8</title>
<g id="a_node8"><a xlink:href="motor__control_8c.html#a63c73ae82a6d47bc620608fc752b83f9" target="_top" xlink:title="A function to turn the car right.">
<polygon fill="white" stroke="#666666" points="350.5,-19 263.5,-19 263.5,0 350.5,0 350.5,-19"/>
<text text-anchor="middle" x="307" y="-7" font-family="Helvetica,sans-Serif" font-size="10.00">motor_turn_right</text>
</a>
</g>
</g>
<!-- Node1&#45;&gt;Node8 -->
<g id="edge9" class="edge">
<title>Node1&#45;&gt;Node8</title>
<path fill="none" stroke="#63b8ff" d="M424.5,-67.12C407.61,-55.33 383.61,-39.6 361,-28.5 354.16,-25.14 346.56,-22.06 339.31,-19.41"/>
<polygon fill="#63b8ff" stroke="#63b8ff" points="422.14,-69.74 432.33,-72.67 426.19,-64.03 422.14,-69.74"/>
</g>
<!-- Node3 -->
<g id="node3" class="node">
<title>Node3</title>
<g id="a_node3"><a xlink:href="pid_8c.html#a71879f5750062bb9d1e51da2a02d626d" target="_top" xlink:title="Function to turn the car and move in a given direction.">
<polygon fill="white" stroke="#666666" points="217,-56 124,-56 124,-37 217,-37 217,-56"/>
<text text-anchor="middle" x="170.5" y="-44" font-family="Helvetica,sans-Serif" font-size="10.00">pid_navigate_turn</text>
</a>
</g>
</g>
<!-- Node2&#45;&gt;Node3 -->
<g id="edge2" class="edge">
<title>Node2&#45;&gt;Node3</title>
<path fill="none" stroke="#63b8ff" d="M258.59,-142.87C256.66,-141.82 254.79,-140.69 253,-139.5 218.55,-116.47 189.72,-75.31 177.62,-56.44"/>
<polygon fill="#63b8ff" stroke="#63b8ff" points="256.71,-145.85 267.25,-146.94 259.69,-139.52 256.71,-145.85"/>
</g>
<!-- Node4 -->
<g id="node4" class="node">
<title>Node4</title>
<g id="a_node4"><a xlink:href="drivers_2pid_2main_8c.html#a0187889d224f77fe06a8bee605897eb3" target="_top" xlink:title="Interrupt callback function on rising edge.">
<polygon fill="white" stroke="#666666" points="88,-56 0,-56 0,-37 88,-37 88,-56"/>
<text text-anchor="middle" x="44" y="-44" font-family="Helvetica,sans-Serif" font-size="10.00">encoder_tick_isr</text>
</a>
</g>
</g>
<!-- Node3&#45;&gt;Node4 -->
<g id="edge3" class="edge">
<title>Node3&#45;&gt;Node4</title>
<path fill="none" stroke="#63b8ff" d="M112.45,-46.5C104.28,-46.5 96,-46.5 88.16,-46.5"/>
<polygon fill="#63b8ff" stroke="#63b8ff" points="112.33,-50 122.33,-46.5 112.33,-43 112.33,-50"/>
</g>
<!-- Node4&#45;&gt;Node4 -->
<g id="edge4" class="edge">
<title>Node4&#45;&gt;Node4</title>
<path fill="none" stroke="#63b8ff" d="M66.45,-67.43C63.65,-71.29 56.16,-74 44,-74 21.76,-74 15.16,-64.94 24.2,-56.37"/>
<polygon fill="#63b8ff" stroke="#63b8ff" points="69.89,-66.75 64.16,-57.84 63.08,-68.38 69.89,-66.75"/>
</g>
<!-- Node7&#45;&gt;Node3 -->
<g id="edge8" class="edge">
<title>Node7&#45;&gt;Node3</title>
<path fill="none" stroke="#63b8ff" d="M254.3,-46.5C242.18,-46.5 229.34,-46.5 217.49,-46.5"/>
<polygon fill="#63b8ff" stroke="#63b8ff" points="254.13,-50 264.13,-46.5 254.13,-43 254.13,-50"/>
</g>
<!-- Node8&#45;&gt;Node3 -->
<g id="edge10" class="edge">
<title>Node8&#45;&gt;Node3</title>
<path fill="none" stroke="#63b8ff" d="M259.18,-22.38C242.28,-27.03 223.49,-32.2 207.64,-36.56"/>
<polygon fill="#63b8ff" stroke="#63b8ff" points="259.78,-25.84 268.5,-19.82 257.93,-19.09 259.78,-25.84"/>
</g>
</g>
</svg>
