<?xml version="1.0" encoding="UTF-8" standalone="no"?>
<!DOCTYPE svg PUBLIC "-//W3C//DTD SVG 1.1//EN"
 "http://www.w3.org/Graphics/SVG/1.1/DTD/svg11.dtd">
<!-- Generated by graphviz version 7.0.5 (20221223.1930)
 -->
<!-- Title: turn_right Pages: 1 -->
<svg width="189pt" height="64pt"
 viewBox="0.00 0.00 189.00 64.00" xmlns="http://www.w3.org/2000/svg" xmlns:xlink="http://www.w3.org/1999/xlink">
<g id="graph0" class="graph" transform="scale(1 1) rotate(0) translate(4 60)">
<title>turn_right</title>
<!-- Node1 -->
<g id="node1" class="node">
<title>Node1</title>
<g id="a_node1"><a xlink:title="A function to turn the car right.">
<polygon fill="#999999" stroke="#666666" points="57,-37 0,-37 0,-18 57,-18 57,-37"/>
<text text-anchor="middle" x="28.5" y="-25" font-family="Helvetica,sans-Serif" font-size="10.00">turn_right</text>
</a>
</g>
</g>
<!-- Node2 -->
<g id="node2" class="node">
<title>Node2</title>
<g id="a_node2"><a xlink:href="motor__control_8c.html#af0ebed13ef30e857d8c5cbda43c8f7c0" target="_top" xlink:title="A function to update the direction of the motor&#39;s rotation.">
<polygon fill="white" stroke="#666666" points="181,-56 93,-56 93,-37 181,-37 181,-56"/>
<text text-anchor="middle" x="137" y="-44" font-family="Helvetica,sans-Serif" font-size="10.00">update_direction</text>
</a>
</g>
</g>
<!-- Node1&#45;&gt;Node2 -->
<g id="edge1" class="edge">
<title>Node1&#45;&gt;Node2</title>
<path fill="none" stroke="#63b8ff" d="M57.48,-32.49C64.85,-33.81 73.07,-35.27 81.33,-36.75"/>
<polygon fill="#63b8ff" stroke="#63b8ff" points="80.59,-40.17 91.05,-38.48 81.82,-33.28 80.59,-40.17"/>
</g>
<!-- Node3 -->
<g id="node3" class="node">
<title>Node3</title>
<g id="a_node3"><a xlink:href="motor__control_8c.html#aa20774b583539f8a2698c2f8ac6d4334" target="_top" xlink:title="A function to update the PWM duty cycle and wrap value.">
<polygon fill="white" stroke="#666666" points="173,-19 101,-19 101,0 173,0 173,-19"/>
<text text-anchor="middle" x="137" y="-7" font-family="Helvetica,sans-Serif" font-size="10.00">update_pwm</text>
</a>
</g>
</g>
<!-- Node1&#45;&gt;Node3 -->
<g id="edge2" class="edge">
<title>Node1&#45;&gt;Node3</title>
<path fill="none" stroke="#63b8ff" d="M57.48,-22.77C67.27,-21.12 78.54,-19.21 89.43,-17.37"/>
<polygon fill="#63b8ff" stroke="#63b8ff" points="89.8,-20.86 99.08,-15.74 88.63,-13.96 89.8,-20.86"/>
</g>
</g>
</svg>
