<?xml version="1.0" encoding="UTF-8" standalone="no"?>
<!DOCTYPE svg PUBLIC "-//W3C//DTD SVG 1.1//EN"
 "http://www.w3.org/Graphics/SVG/1.1/DTD/svg11.dtd">
<!-- Generated by graphviz version 7.0.5 (20221223.1930)
 -->
<!-- Title: motor_update_pwm Pages: 1 -->
<svg width="384pt" height="175pt"
 viewBox="0.00 0.00 384.00 175.00" xmlns="http://www.w3.org/2000/svg" xmlns:xlink="http://www.w3.org/1999/xlink">
<g id="graph0" class="graph" transform="scale(1 1) rotate(0) translate(4 171)">
<title>motor_update_pwm</title>
<!-- Node1 -->
<g id="node1" class="node">
<title>Node1</title>
<g id="a_node1"><a xlink:title="A function to update the PWM duty cycle and wrap value.">
<polygon fill="#999999" stroke="#666666" points="376,-93 274,-93 274,-74 376,-74 376,-93"/>
<text text-anchor="middle" x="325" y="-81" font-family="Helvetica,sans-Serif" font-size="10.00">motor_update_pwm</text>
</a>
</g>
</g>
<!-- Node2 -->
<g id="node2" class="node">
<title>Node2</title>
<g id="a_node2"><a xlink:href="motor__control_8c.html#a793a32f3a145d0efad56a327d7b2f33b" target="_top" xlink:title="A function to move the car forward.">
<polygon fill="white" stroke="#666666" points="238,-167 130,-167 130,-148 238,-148 238,-167"/>
<text text-anchor="middle" x="184" y="-155" font-family="Helvetica,sans-Serif" font-size="10.00">motor_move_forward</text>
</a>
</g>
</g>
<!-- Node1&#45;&gt;Node2 -->
<g id="edge1" class="edge">
<title>Node1&#45;&gt;Node2</title>
<path fill="none" stroke="#63b8ff" d="M302.19,-99.89C285.33,-112.02 261.04,-128.3 238,-139.5 231.88,-142.47 225.15,-145.17 218.59,-147.51"/>
<polygon fill="#63b8ff" stroke="#63b8ff" points="303.98,-102.93 309.98,-94.2 299.84,-97.28 303.98,-102.93"/>
</g>
<!-- Node4 -->
<g id="node4" class="node">
<title>Node4</title>
<g id="a_node4"><a xlink:href="motor__control_8c.html#a0a216ac731db260b900f5329cbe23231" target="_top" xlink:title="A function to reverse the car.">
<polygon fill="white" stroke="#666666" points="223.5,-130 144.5,-130 144.5,-111 223.5,-111 223.5,-130"/>
<text text-anchor="middle" x="184" y="-118" font-family="Helvetica,sans-Serif" font-size="10.00">motor_reverse</text>
</a>
</g>
</g>
<!-- Node1&#45;&gt;Node4 -->
<g id="edge3" class="edge">
<title>Node1&#45;&gt;Node4</title>
<path fill="none" stroke="#63b8ff" d="M276.11,-96.25C258.52,-100.93 238.88,-106.16 222.35,-110.56"/>
<polygon fill="#63b8ff" stroke="#63b8ff" points="276.52,-99.76 285.29,-93.8 274.72,-92.99 276.52,-99.76"/>
</g>
<!-- Node5 -->
<g id="node5" class="node">
<title>Node5</title>
<g id="a_node5"><a xlink:href="motor__control_8c.html#a24063f2aae5b4a3eb6b33dc2eea150dd" target="_top" xlink:title="A function to turn the car left.">
<polygon fill="white" stroke="#666666" points="225,-93 143,-93 143,-74 225,-74 225,-93"/>
<text text-anchor="middle" x="184" y="-81" font-family="Helvetica,sans-Serif" font-size="10.00">motor_turn_left</text>
</a>
</g>
</g>
<!-- Node1&#45;&gt;Node5 -->
<g id="edge4" class="edge">
<title>Node1&#45;&gt;Node5</title>
<path fill="none" stroke="#63b8ff" d="M262.36,-83.5C249.72,-83.5 236.73,-83.5 225.09,-83.5"/>
<polygon fill="#63b8ff" stroke="#63b8ff" points="262.3,-87 272.3,-83.5 262.3,-80 262.3,-87"/>
</g>
<!-- Node6 -->
<g id="node6" class="node">
<title>Node6</title>
<g id="a_node6"><a xlink:href="motor__control_8c.html#a63c73ae82a6d47bc620608fc752b83f9" target="_top" xlink:title="A function to turn the car right.">
<polygon fill="white" stroke="#666666" points="227.5,-56 140.5,-56 140.5,-37 227.5,-37 227.5,-56"/>
<text text-anchor="middle" x="184" y="-44" font-family="Helvetica,sans-Serif" font-size="10.00">motor_turn_right</text>
</a>
</g>
</g>
<!-- Node1&#45;&gt;Node6 -->
<g id="edge6" class="edge">
<title>Node1&#45;&gt;Node6</title>
<path fill="none" stroke="#63b8ff" d="M276.11,-70.75C258.52,-66.07 238.88,-60.84 222.35,-56.44"/>
<polygon fill="#63b8ff" stroke="#63b8ff" points="274.72,-74.01 285.29,-73.2 276.52,-67.24 274.72,-74.01"/>
</g>
<!-- Node7 -->
<g id="node7" class="node">
<title>Node7</title>
<g id="a_node7"><a xlink:href="motor__control_8c.html#a8c528baf37154d347366083f0f816846" target="_top" xlink:title="A function to stop the car.">
<polygon fill="white" stroke="#666666" points="201.5,-19 166.5,-19 166.5,0 201.5,0 201.5,-19"/>
<text text-anchor="middle" x="184" y="-7" font-family="Helvetica,sans-Serif" font-size="10.00">stop</text>
</a>
</g>
</g>
<!-- Node1&#45;&gt;Node7 -->
<g id="edge8" class="edge">
<title>Node1&#45;&gt;Node7</title>
<path fill="none" stroke="#63b8ff" d="M301.5,-67.12C284.61,-55.33 260.61,-39.6 238,-28.5 226.24,-22.73 212.27,-17.79 201.63,-14.4"/>
<polygon fill="#63b8ff" stroke="#63b8ff" points="299.14,-69.74 309.33,-72.67 303.19,-64.03 299.14,-69.74"/>
</g>
<!-- Node3 -->
<g id="node3" class="node">
<title>Node3</title>
<g id="a_node3"><a xlink:href="pid_8c.html#a1ba495049f805afac3a7b18020ce0cf4" target="_top" xlink:title="Function to turn the car and move in a given direction.">
<polygon fill="white" stroke="#666666" points="94,-93 0,-93 0,-74 94,-74 94,-93"/>
<text text-anchor="middle" x="47" y="-81" font-family="Helvetica,sans-Serif" font-size="10.00">navigate_car_turn</text>
</a>
</g>
</g>
<!-- Node2&#45;&gt;Node3 -->
<g id="edge2" class="edge">
<title>Node2&#45;&gt;Node3</title>
<path fill="none" stroke="#63b8ff" d="M138.46,-143.38C135.56,-142.15 132.72,-140.86 130,-139.5 103.47,-126.25 75.58,-105.52 60.12,-93.35"/>
<polygon fill="#63b8ff" stroke="#63b8ff" points="137.08,-146.6 147.67,-146.97 139.62,-140.07 137.08,-146.6"/>
</g>
<!-- Node5&#45;&gt;Node3 -->
<g id="edge5" class="edge">
<title>Node5&#45;&gt;Node3</title>
<path fill="none" stroke="#63b8ff" d="M131.46,-83.5C119.26,-83.5 106.34,-83.5 94.39,-83.5"/>
<polygon fill="#63b8ff" stroke="#63b8ff" points="131.35,-87 141.35,-83.5 131.35,-80 131.35,-87"/>
</g>
<!-- Node6&#45;&gt;Node3 -->
<g id="edge7" class="edge">
<title>Node6&#45;&gt;Node3</title>
<path fill="none" stroke="#63b8ff" d="M136,-59.38C119.05,-64.03 100.18,-69.2 84.28,-73.56"/>
<polygon fill="#63b8ff" stroke="#63b8ff" points="136.64,-62.83 145.36,-56.82 134.79,-56.08 136.64,-62.83"/>
</g>
</g>
</svg>
