<?xml version="1.0" encoding="UTF-8" standalone="no"?>
<!DOCTYPE svg PUBLIC "-//W3C//DTD SVG 1.1//EN"
 "http://www.w3.org/Graphics/SVG/1.1/DTD/svg11.dtd">
<!-- Generated by graphviz version 7.0.5 (20221223.1930)
 -->
<!-- Title: pretty_print_maze Pages: 1 -->
<svg width="290pt" height="27pt"
 viewBox="0.00 0.00 290.00 27.00" xmlns="http://www.w3.org/2000/svg" xmlns:xlink="http://www.w3.org/1999/xlink">
<g id="graph0" class="graph" transform="scale(1 1) rotate(0) translate(4 23)">
<title>pretty_print_maze</title>
<!-- Node1 -->
<g id="node1" class="node">
<title>Node1</title>
<g id="a_node1"><a xlink:title=" ">
<polygon fill="#999999" stroke="#666666" points="93,-19 0,-19 0,0 93,0 93,-19"/>
<text text-anchor="middle" x="46.5" y="-7" font-family="Helvetica,sans-Serif" font-size="10.00">pretty_print_maze</text>
</a>
</g>
</g>
<!-- Node2 -->
<g id="node2" class="node">
<title>Node2</title>
<g id="a_node2"><a xlink:href="namespaceprint__maze.html#afc9f1a93f2b4a0584a295c211ddb9a1d" target="_top" xlink:title=" ">
<polygon fill="white" stroke="#666666" points="188,-19 129,-19 129,0 188,0 188,-19"/>
<text text-anchor="middle" x="158.5" y="-7" font-family="Helvetica,sans-Serif" font-size="10.00">draw_grid</text>
</a>
</g>
</g>
<!-- Node1&#45;&gt;Node2 -->
<g id="edge1" class="edge">
<title>Node1&#45;&gt;Node2</title>
<path fill="none" stroke="#63b8ff" d="M93.19,-9.5C101.19,-9.5 109.46,-9.5 117.29,-9.5"/>
<polygon fill="#63b8ff" stroke="#63b8ff" points="117.24,-13 127.24,-9.5 117.24,-6 117.24,-13"/>
</g>
<!-- Node3 -->
<g id="node3" class="node">
<title>Node3</title>
<g id="a_node3"><a xlink:href="namespaceprint__maze.html#aad63d1885bf5f3d46eb9e8e3e3844d56" target="_top" xlink:title=" ">
<polygon fill="white" stroke="#666666" points="282,-19 224,-19 224,0 282,0 282,-19"/>
<text text-anchor="middle" x="253" y="-7" font-family="Helvetica,sans-Serif" font-size="10.00">draw_cell</text>
</a>
</g>
</g>
<!-- Node2&#45;&gt;Node3 -->
<g id="edge2" class="edge">
<title>Node2&#45;&gt;Node3</title>
<path fill="none" stroke="#63b8ff" d="M188.26,-9.5C195.81,-9.5 204.1,-9.5 212.12,-9.5"/>
<polygon fill="#63b8ff" stroke="#63b8ff" points="212.06,-13 222.06,-9.5 212.06,-6 212.06,-13"/>
</g>
</g>
</svg>
