<?xml version="1.0" encoding="UTF-8" standalone="no"?>
<!DOCTYPE svg PUBLIC "-//W3C//DTD SVG 1.1//EN"
 "http://www.w3.org/Graphics/SVG/1.1/DTD/svg11.dtd">
<!-- Generated by graphviz version 7.0.5 (20221223.1930)
 -->
<!-- Title: insert_centre_path_char Pages: 1 -->
<svg width="447pt" height="45pt"
 viewBox="0.00 0.00 447.00 45.00" xmlns="http://www.w3.org/2000/svg" xmlns:xlink="http://www.w3.org/1999/xlink">
<g id="graph0" class="graph" transform="scale(1 1) rotate(0) translate(4 41)">
<title>insert_centre_path_char</title>
<!-- Node1 -->
<g id="node1" class="node">
<title>Node1</title>
<g id="a_node1"><a xlink:title=" ">
<polygon fill="#999999" stroke="#666666" points="121,-19 0,-19 0,0 121,0 121,-19"/>
<text text-anchor="middle" x="60.5" y="-7" font-family="Helvetica,sans-Serif" font-size="10.00">insert_centre_path_char</text>
</a>
</g>
</g>
<!-- Node1&#45;&gt;Node1 -->
<g id="edge1" class="edge">
<title>Node1&#45;&gt;Node1</title>
<path fill="none" stroke="#63b8ff" d="M38.11,-19.37C27.9,-27.94 35.36,-37 60.5,-37 74.25,-37 82.71,-34.29 85.88,-30.43"/>
<polygon fill="#63b8ff" stroke="#63b8ff" points="89.27,-29.57 83.28,-20.83 82.52,-31.4 89.27,-29.57"/>
</g>
<!-- Node2 -->
<g id="node2" class="node">
<title>Node2</title>
<g id="a_node2"><a xlink:href="namespaceprint__maze.html#ac338594cbf3e7db061a5a85cc7fa57c9" target="_top" xlink:title=" ">
<polygon fill="white" stroke="#666666" points="250,-19 157,-19 157,0 250,0 250,-19"/>
<text text-anchor="middle" x="203.5" y="-7" font-family="Helvetica,sans-Serif" font-size="10.00">pretty_print_maze</text>
</a>
</g>
</g>
<!-- Node1&#45;&gt;Node2 -->
<g id="edge2" class="edge">
<title>Node1&#45;&gt;Node2</title>
<path fill="none" stroke="#63b8ff" d="M121.3,-9.5C129.26,-9.5 137.42,-9.5 145.34,-9.5"/>
<polygon fill="#63b8ff" stroke="#63b8ff" points="145.22,-13 155.22,-9.5 145.22,-6 145.22,-13"/>
</g>
<!-- Node3 -->
<g id="node3" class="node">
<title>Node3</title>
<g id="a_node3"><a xlink:href="namespaceprint__maze.html#afc9f1a93f2b4a0584a295c211ddb9a1d" target="_top" xlink:title=" ">
<polygon fill="white" stroke="#666666" points="345,-19 286,-19 286,0 345,0 345,-19"/>
<text text-anchor="middle" x="315.5" y="-7" font-family="Helvetica,sans-Serif" font-size="10.00">draw_grid</text>
</a>
</g>
</g>
<!-- Node2&#45;&gt;Node3 -->
<g id="edge3" class="edge">
<title>Node2&#45;&gt;Node3</title>
<path fill="none" stroke="#63b8ff" d="M250.19,-9.5C258.19,-9.5 266.46,-9.5 274.29,-9.5"/>
<polygon fill="#63b8ff" stroke="#63b8ff" points="274.24,-13 284.24,-9.5 274.24,-6 274.24,-13"/>
</g>
<!-- Node4 -->
<g id="node4" class="node">
<title>Node4</title>
<g id="a_node4"><a xlink:href="namespaceprint__maze.html#aad63d1885bf5f3d46eb9e8e3e3844d56" target="_top" xlink:title=" ">
<polygon fill="white" stroke="#666666" points="439,-19 381,-19 381,0 439,0 439,-19"/>
<text text-anchor="middle" x="410" y="-7" font-family="Helvetica,sans-Serif" font-size="10.00">draw_cell</text>
</a>
</g>
</g>
<!-- Node3&#45;&gt;Node4 -->
<g id="edge4" class="edge">
<title>Node3&#45;&gt;Node4</title>
<path fill="none" stroke="#63b8ff" d="M345.26,-9.5C352.81,-9.5 361.1,-9.5 369.12,-9.5"/>
<polygon fill="#63b8ff" stroke="#63b8ff" points="369.06,-13 379.06,-9.5 369.06,-6 369.06,-13"/>
</g>
</g>
</svg>
