<?xml version="1.0" encoding="UTF-8" standalone="no"?>
<!DOCTYPE svg PUBLIC "-//W3C//DTD SVG 1.1//EN"
 "http://www.w3.org/Graphics/SVG/1.1/DTD/svg11.dtd">
<!-- Generated by graphviz version 7.0.5 (20221223.1930)
 -->
<!-- Title: insert_centre_path_char Pages: 1 -->
<svg width="262pt" height="56pt"
 viewBox="0.00 0.00 262.00 56.00" xmlns="http://www.w3.org/2000/svg" xmlns:xlink="http://www.w3.org/1999/xlink">
<g id="graph0" class="graph" transform="scale(1 1) rotate(0) translate(4 52)">
<title>insert_centre_path_char</title>
<!-- Node1 -->
<g id="node1" class="node">
<title>Node1</title>
<g id="a_node1"><a xlink:title=" ">
<polygon fill="#999999" stroke="#666666" points="254,-24.5 133,-24.5 133,-5.5 254,-5.5 254,-24.5"/>
<text text-anchor="middle" x="193.5" y="-12.5" font-family="Helvetica,sans-Serif" font-size="10.00">insert_centre_path_char</text>
</a>
</g>
</g>
<!-- Node1&#45;&gt;Node1 -->
<g id="edge3" class="edge">
<title>Node1&#45;&gt;Node1</title>
<path fill="none" stroke="#63b8ff" d="M219.24,-35.93C216.02,-39.79 207.44,-42.5 193.5,-42.5 168.01,-42.5 160.44,-33.44 170.8,-24.87"/>
<polygon fill="#63b8ff" stroke="#63b8ff" points="222.62,-35.04 216.6,-26.33 215.87,-36.9 222.62,-35.04"/>
</g>
<!-- Node2 -->
<g id="node2" class="node">
<title>Node2</title>
<g id="a_node2"><a xlink:href="namespaceprint__maze.html#a6c1f938efeedbae77272794af67579ac" target="_top" xlink:title=" ">
<polygon fill="white" stroke="#666666" points="97,-30 0,-30 0,0 97,0 97,-30"/>
<text text-anchor="start" x="8" y="-18" font-family="Helvetica,sans-Serif" font-size="10.00">get_direction_from</text>
<text text-anchor="middle" x="48.5" y="-7" font-family="Helvetica,sans-Serif" font-size="10.00">_coords</text>
</a>
</g>
</g>
<!-- Node1&#45;&gt;Node2 -->
<g id="edge1" class="edge">
<title>Node1&#45;&gt;Node2</title>
<path fill="none" stroke="#63b8ff" d="M121.27,-15C113.16,-15 105.05,-15 97.35,-15"/>
<polygon fill="#63b8ff" stroke="#63b8ff" points="121.17,-18.5 131.17,-15 121.17,-11.5 121.17,-18.5"/>
</g>
<!-- Node2&#45;&gt;Node2 -->
<g id="edge2" class="edge">
<title>Node2&#45;&gt;Node2</title>
<path fill="none" stroke="#63b8ff" d="M72.97,-41.61C69.05,-45.43 60.89,-48 48.5,-48 25.84,-48 17.35,-39.41 23.01,-30.28"/>
<polygon fill="#63b8ff" stroke="#63b8ff" points="76.44,-42.06 73.85,-31.78 69.47,-41.43 76.44,-42.06"/>
</g>
</g>
</svg>
