<?xml version="1.0" encoding="UTF-8" standalone="no"?>
<!DOCTYPE svg PUBLIC "-//W3C//DTD SVG 1.1//EN"
 "http://www.w3.org/Graphics/SVG/1.1/DTD/svg11.dtd">
<!-- Generated by graphviz version 7.0.5 (20221223.1930)
 -->
<!-- Title: draw_cell Pages: 1 -->
<svg width="580pt" height="56pt"
 viewBox="0.00 0.00 580.00 56.00" xmlns="http://www.w3.org/2000/svg" xmlns:xlink="http://www.w3.org/1999/xlink">
<g id="graph0" class="graph" transform="scale(1 1) rotate(0) translate(4 52)">
<title>draw_cell</title>
<!-- Node1 -->
<g id="node1" class="node">
<title>Node1</title>
<g id="a_node1"><a xlink:title=" ">
<polygon fill="#999999" stroke="#666666" points="572,-24.5 514,-24.5 514,-5.5 572,-5.5 572,-24.5"/>
<text text-anchor="middle" x="543" y="-12.5" font-family="Helvetica,sans-Serif" font-size="10.00">draw_cell</text>
</a>
</g>
</g>
<!-- Node2 -->
<g id="node2" class="node">
<title>Node2</title>
<g id="a_node2"><a xlink:href="namespaceprint__maze.html#afc9f1a93f2b4a0584a295c211ddb9a1d" target="_top" xlink:title=" ">
<polygon fill="white" stroke="#666666" points="478,-24.5 419,-24.5 419,-5.5 478,-5.5 478,-24.5"/>
<text text-anchor="middle" x="448.5" y="-12.5" font-family="Helvetica,sans-Serif" font-size="10.00">draw_grid</text>
</a>
</g>
</g>
<!-- Node1&#45;&gt;Node2 -->
<g id="edge1" class="edge">
<title>Node1&#45;&gt;Node2</title>
<path fill="none" stroke="#63b8ff" d="M502.51,-15C494.35,-15 485.91,-15 478.22,-15"/>
<polygon fill="#63b8ff" stroke="#63b8ff" points="502.23,-18.5 512.23,-15 502.23,-11.5 502.23,-18.5"/>
</g>
<!-- Node3 -->
<g id="node3" class="node">
<title>Node3</title>
<g id="a_node3"><a xlink:href="namespaceprint__maze.html#ac338594cbf3e7db061a5a85cc7fa57c9" target="_top" xlink:title=" ">
<polygon fill="white" stroke="#666666" points="383,-24.5 290,-24.5 290,-5.5 383,-5.5 383,-24.5"/>
<text text-anchor="middle" x="336.5" y="-12.5" font-family="Helvetica,sans-Serif" font-size="10.00">pretty_print_maze</text>
</a>
</g>
</g>
<!-- Node2&#45;&gt;Node3 -->
<g id="edge2" class="edge">
<title>Node2&#45;&gt;Node3</title>
<path fill="none" stroke="#63b8ff" d="M407.19,-15C399.4,-15 391.18,-15 383.23,-15"/>
<polygon fill="#63b8ff" stroke="#63b8ff" points="407.09,-18.5 417.09,-15 407.09,-11.5 407.09,-18.5"/>
</g>
<!-- Node4 -->
<g id="node4" class="node">
<title>Node4</title>
<g id="a_node4"><a xlink:href="namespaceprint__maze.html#ade938b9fef84f37d1b59f8018b2e5d15" target="_top" xlink:title=" ">
<polygon fill="white" stroke="#666666" points="254,-24.5 133,-24.5 133,-5.5 254,-5.5 254,-24.5"/>
<text text-anchor="middle" x="193.5" y="-12.5" font-family="Helvetica,sans-Serif" font-size="10.00">insert_centre_path_char</text>
</a>
</g>
</g>
<!-- Node3&#45;&gt;Node4 -->
<g id="edge3" class="edge">
<title>Node3&#45;&gt;Node4</title>
<path fill="none" stroke="#63b8ff" d="M278.38,-15C270.49,-15 262.37,-15 254.43,-15"/>
<polygon fill="#63b8ff" stroke="#63b8ff" points="278.21,-18.5 288.21,-15 278.21,-11.5 278.21,-18.5"/>
</g>
<!-- Node4&#45;&gt;Node4 -->
<g id="edge6" class="edge">
<title>Node4&#45;&gt;Node4</title>
<path fill="none" stroke="#63b8ff" d="M218.88,-35.93C215.71,-39.79 207.25,-42.5 193.5,-42.5 168.36,-42.5 160.9,-33.44 171.11,-24.87"/>
<polygon fill="#63b8ff" stroke="#63b8ff" points="222.27,-35.07 216.28,-26.33 215.52,-36.9 222.27,-35.07"/>
</g>
<!-- Node5 -->
<g id="node5" class="node">
<title>Node5</title>
<g id="a_node5"><a xlink:href="namespaceprint__maze.html#a6c1f938efeedbae77272794af67579ac" target="_top" xlink:title=" ">
<polygon fill="white" stroke="#666666" points="97,-30 0,-30 0,0 97,0 97,-30"/>
<text text-anchor="start" x="8" y="-18" font-family="Helvetica,sans-Serif" font-size="10.00">get_direction_from</text>
<text text-anchor="middle" x="48.5" y="-7" font-family="Helvetica,sans-Serif" font-size="10.00">_coords</text>
</a>
</g>
</g>
<!-- Node4&#45;&gt;Node5 -->
<g id="edge4" class="edge">
<title>Node4&#45;&gt;Node5</title>
<path fill="none" stroke="#63b8ff" d="M121.27,-15C113.16,-15 105.05,-15 97.35,-15"/>
<polygon fill="#63b8ff" stroke="#63b8ff" points="121.17,-18.5 131.17,-15 121.17,-11.5 121.17,-18.5"/>
</g>
<!-- Node5&#45;&gt;Node5 -->
<g id="edge5" class="edge">
<title>Node5&#45;&gt;Node5</title>
<path fill="none" stroke="#63b8ff" d="M72.97,-41.61C69.05,-45.43 60.89,-48 48.5,-48 25.84,-48 17.35,-39.41 23.01,-30.28"/>
<polygon fill="#63b8ff" stroke="#63b8ff" points="76.44,-42.06 73.85,-31.78 69.47,-41.43 76.44,-42.06"/>
</g>
</g>
</svg>
