<?xml version="1.0" encoding="UTF-8" standalone="no"?>
<!DOCTYPE svg PUBLIC "-//W3C//DTD SVG 1.1//EN"
 "http://www.w3.org/Graphics/SVG/1.1/DTD/svg11.dtd">
<!-- Generated by graphviz version 7.0.5 (20221223.1930)
 -->
<!-- Title: src/pathfinding/main.c Pages: 1 -->
<svg width="834pt" height="247pt"
 viewBox="0.00 0.00 834.22 247.00" xmlns="http://www.w3.org/2000/svg" xmlns:xlink="http://www.w3.org/1999/xlink">
<g id="graph0" class="graph" transform="scale(1 1) rotate(0) translate(4 243)">
<title>src/pathfinding/main.c</title>
<!-- Node1 -->
<g id="node1" class="node">
<title>Node1</title>
<g id="a_node1"><a xlink:title="This file contains the mapping and pathfinding tests to be run on the Pico depending on the input ove...">
<polygon fill="#999999" stroke="#666666" points="449.72,-239 338.72,-239 338.72,-220 449.72,-220 449.72,-239"/>
<text text-anchor="middle" x="394.22" y="-227" font-family="Helvetica,sans-Serif" font-size="10.00">src/pathfinding/main.c</text>
</a>
</g>
</g>
<!-- Node2 -->
<g id="node2" class="node">
<title>Node2</title>
<g id="a_node2"><a xlink:title=" ">
<polygon fill="#e0e0e0" stroke="#999999" points="62.72,-74 17.72,-74 17.72,-55 62.72,-55 62.72,-74"/>
<text text-anchor="middle" x="40.22" y="-62" font-family="Helvetica,sans-Serif" font-size="10.00">stdio.h</text>
</a>
</g>
</g>
<!-- Node1&#45;&gt;Node2 -->
<g id="edge1" class="edge">
<title>Node1&#45;&gt;Node2</title>
<path fill="none" stroke="#63b8ff" d="M338.64,-223.36C287.38,-217.51 209.7,-205.79 145.22,-184 94.56,-166.88 66.07,-174.64 38.22,-129 30.3,-116.03 31.48,-98.62 34.27,-85.31"/>
<polygon fill="#63b8ff" stroke="#63b8ff" points="37.57,-86.51 36.68,-75.95 30.79,-84.76 37.57,-86.51"/>
</g>
<!-- Node3 -->
<g id="node3" class="node">
<title>Node3</title>
<g id="a_node3"><a xlink:title=" ">
<polygon fill="#e0e0e0" stroke="#999999" points="492.72,-184 441.72,-184 441.72,-165 492.72,-165 492.72,-184"/>
<text text-anchor="middle" x="467.22" y="-172" font-family="Helvetica,sans-Serif" font-size="10.00">stddef.h</text>
</a>
</g>
</g>
<!-- Node1&#45;&gt;Node3 -->
<g id="edge2" class="edge">
<title>Node1&#45;&gt;Node3</title>
<path fill="none" stroke="#63b8ff" d="M406.6,-219.51C417.36,-211.7 433.19,-200.21 445.97,-190.93"/>
<polygon fill="#63b8ff" stroke="#63b8ff" points="447.75,-193.95 453.79,-185.25 443.64,-188.29 447.75,-193.95"/>
</g>
<!-- Node4 -->
<g id="node4" class="node">
<title>Node4</title>
<g id="a_node4"><a xlink:title=" ">
<polygon fill="#e0e0e0" stroke="#999999" points="194.22,-19 146.22,-19 146.22,0 194.22,0 194.22,-19"/>
<text text-anchor="middle" x="170.22" y="-7" font-family="Helvetica,sans-Serif" font-size="10.00">stdint.h</text>
</a>
</g>
</g>
<!-- Node1&#45;&gt;Node4 -->
<g id="edge3" class="edge">
<title>Node1&#45;&gt;Node4</title>
<path fill="none" stroke="#63b8ff" d="M338.32,-225.62C258.94,-220.71 118.29,-208.75 74.22,-184 46.68,-168.54 45.05,-156.33 29.22,-129 12.07,-99.42 -12.51,-82.19 8.22,-55 23.45,-35.02 91.56,-21.77 134.47,-15.25"/>
<polygon fill="#63b8ff" stroke="#63b8ff" points="134.96,-18.72 144.35,-13.81 133.94,-11.79 134.96,-18.72"/>
</g>
<!-- Node5 -->
<g id="node5" class="node">
<title>Node5</title>
<g id="a_node5"><a xlink:title=" ">
<polygon fill="#e0e0e0" stroke="#999999" points="367.22,-19 311.22,-19 311.22,0 367.22,0 367.22,-19"/>
<text text-anchor="middle" x="339.22" y="-7" font-family="Helvetica,sans-Serif" font-size="10.00">stdbool.h</text>
</a>
</g>
</g>
<!-- Node1&#45;&gt;Node5 -->
<g id="edge4" class="edge">
<title>Node1&#45;&gt;Node5</title>
<path fill="none" stroke="#63b8ff" d="M396.33,-219.8C399.01,-207.49 402.84,-184.35 399.22,-165 389.62,-113.79 363.59,-57.74 349.16,-29.31"/>
<polygon fill="#63b8ff" stroke="#63b8ff" points="352.34,-27.83 344.63,-20.56 346.12,-31.05 352.34,-27.83"/>
</g>
<!-- Node6 -->
<g id="node6" class="node">
<title>Node6</title>
<g id="a_node6"><a xlink:title=" ">
<polygon fill="#e0e0e0" stroke="#999999" points="557.72,-184 510.72,-184 510.72,-165 557.72,-165 557.72,-184"/>
<text text-anchor="middle" x="534.22" y="-172" font-family="Helvetica,sans-Serif" font-size="10.00">stdlib.h</text>
</a>
</g>
</g>
<!-- Node1&#45;&gt;Node6 -->
<g id="edge5" class="edge">
<title>Node1&#45;&gt;Node6</title>
<path fill="none" stroke="#63b8ff" d="M417.96,-219.51C440.53,-210.97 474.69,-198.03 500.15,-188.4"/>
<polygon fill="#63b8ff" stroke="#63b8ff" points="501.29,-191.71 509.4,-184.89 498.81,-185.16 501.29,-191.71"/>
</g>
<!-- Node7 -->
<g id="node7" class="node">
<title>Node7</title>
<g id="a_node7"><a xlink:title=" ">
<polygon fill="#e0e0e0" stroke="#999999" points="644.22,-184 576.22,-184 576.22,-165 644.22,-165 644.22,-184"/>
<text text-anchor="middle" x="610.22" y="-172" font-family="Helvetica,sans-Serif" font-size="10.00">pico/stdlib.h</text>
</a>
</g>
</g>
<!-- Node1&#45;&gt;Node7 -->
<g id="edge6" class="edge">
<title>Node1&#45;&gt;Node7</title>
<path fill="none" stroke="#63b8ff" d="M430.86,-219.51C467.85,-210.43 525.07,-196.39 564.9,-186.62"/>
<polygon fill="#63b8ff" stroke="#63b8ff" points="565.55,-190.06 574.42,-184.28 563.88,-183.27 565.55,-190.06"/>
</g>
<!-- Node8 -->
<g id="node8" class="node">
<title>Node8</title>
<g id="a_node8"><a xlink:title=" ">
<polygon fill="#e0e0e0" stroke="#999999" points="728.22,-184 662.22,-184 662.22,-165 728.22,-165 728.22,-184"/>
<text text-anchor="middle" x="695.22" y="-172" font-family="Helvetica,sans-Serif" font-size="10.00">pico/stdio.h</text>
</a>
</g>
</g>
<!-- Node1&#45;&gt;Node8 -->
<g id="edge7" class="edge">
<title>Node1&#45;&gt;Node8</title>
<path fill="none" stroke="#63b8ff" d="M449.37,-219.51C499.4,-211.24 575.48,-198.4 650.68,-184.43"/>
<polygon fill="#63b8ff" stroke="#63b8ff" points="651.09,-187.92 660.27,-182.64 649.8,-181.04 651.09,-187.92"/>
</g>
<!-- Node9 -->
<g id="node9" class="node">
<title>Node9</title>
<g id="a_node9"><a xlink:title=" ">
<polygon fill="#e0e0e0" stroke="#999999" points="826.22,-184 746.22,-184 746.22,-165 826.22,-165 826.22,-184"/>
<text text-anchor="middle" x="786.22" y="-172" font-family="Helvetica,sans-Serif" font-size="10.00">pico/platform.h</text>
</a>
</g>
</g>
<!-- Node1&#45;&gt;Node9 -->
<g id="edge8" class="edge">
<title>Node1&#45;&gt;Node9</title>
<path fill="none" stroke="#63b8ff" d="M450.16,-221.99C515.82,-214.18 628.27,-200.28 734.6,-184.34"/>
<polygon fill="#63b8ff" stroke="#63b8ff" points="735,-187.82 744.36,-182.87 733.95,-180.9 735,-187.82"/>
</g>
<!-- Node10 -->
<g id="node10" class="node">
<title>Node10</title>
<g id="a_node10"><a xlink:href="maze_8h.html" target="_top" xlink:title="Header file for the maze data structure and public functions.">
<polygon fill="white" stroke="#666666" points="288.72,-74 241.72,-74 241.72,-55 288.72,-55 288.72,-74"/>
<text text-anchor="middle" x="265.22" y="-62" font-family="Helvetica,sans-Serif" font-size="10.00">maze.h</text>
</a>
</g>
</g>
<!-- Node1&#45;&gt;Node10 -->
<g id="edge9" class="edge">
<title>Node1&#45;&gt;Node10</title>
<path fill="none" stroke="#63b8ff" d="M393.69,-219.63C391.99,-198.25 384.91,-143.17 356.22,-110 341.5,-92.99 318.77,-81.87 299.72,-75"/>
<polygon fill="#63b8ff" stroke="#63b8ff" points="301.04,-71.75 290.44,-71.91 298.82,-78.39 301.04,-71.75"/>
</g>
<!-- Node11 -->
<g id="node11" class="node">
<title>Node11</title>
<g id="a_node11"><a xlink:href="dfs_8h.html" target="_top" xlink:title="Header file for the depth first search algorithm for mapping the maze.">
<polygon fill="white" stroke="#666666" points="291.22,-184 253.22,-184 253.22,-165 291.22,-165 291.22,-184"/>
<text text-anchor="middle" x="272.22" y="-172" font-family="Helvetica,sans-Serif" font-size="10.00">dfs.h</text>
</a>
</g>
</g>
<!-- Node1&#45;&gt;Node11 -->
<g id="edge12" class="edge">
<title>Node1&#45;&gt;Node11</title>
<path fill="none" stroke="#63b8ff" d="M373.52,-219.51C353.86,-210.97 324.1,-198.04 301.91,-188.4"/>
<polygon fill="#63b8ff" stroke="#63b8ff" points="303.36,-185.21 292.79,-184.44 300.57,-191.63 303.36,-185.21"/>
</g>
<!-- Node12 -->
<g id="node12" class="node">
<title>Node12</title>
<g id="a_node12"><a xlink:href="floodfill_8h.html" target="_top" xlink:title="This file contains the function prototypes for the floodfill algorithm for mapping of the maze.">
<polygon fill="white" stroke="#666666" points="346.72,-129 293.72,-129 293.72,-110 346.72,-110 346.72,-129"/>
<text text-anchor="middle" x="320.22" y="-117" font-family="Helvetica,sans-Serif" font-size="10.00">floodfill.h</text>
</a>
</g>
</g>
<!-- Node1&#45;&gt;Node12 -->
<g id="edge18" class="edge">
<title>Node1&#45;&gt;Node12</title>
<path fill="none" stroke="#63b8ff" d="M387.47,-219.76C380.68,-210.87 369.98,-196.65 361.22,-184 350.83,-169 339.63,-151.56 331.56,-138.75"/>
<polygon fill="#63b8ff" stroke="#63b8ff" points="334.69,-137.15 326.41,-130.53 328.75,-140.86 334.69,-137.15"/>
</g>
<!-- Node13 -->
<g id="node13" class="node">
<title>Node13</title>
<g id="a_node13"><a xlink:href="a__star_8h.html" target="_top" xlink:title="Header file for the a* algorithm.">
<polygon fill="white" stroke="#666666" points="205.72,-184 154.72,-184 154.72,-165 205.72,-165 205.72,-184"/>
<text text-anchor="middle" x="180.22" y="-172" font-family="Helvetica,sans-Serif" font-size="10.00">a_star.h</text>
</a>
</g>
</g>
<!-- Node1&#45;&gt;Node13 -->
<g id="edge19" class="edge">
<title>Node1&#45;&gt;Node13</title>
<path fill="none" stroke="#63b8ff" d="M357.91,-219.51C318.62,-209.78 256.32,-194.35 216.88,-184.58"/>
<polygon fill="#63b8ff" stroke="#63b8ff" points="217.94,-181.24 207.39,-182.23 216.25,-188.03 217.94,-181.24"/>
</g>
<!-- Node10&#45;&gt;Node4 -->
<g id="edge10" class="edge">
<title>Node10&#45;&gt;Node4</title>
<path fill="none" stroke="#63b8ff" d="M249.1,-54.51C234.55,-46.39 212.88,-34.3 195.93,-24.85"/>
<polygon fill="#63b8ff" stroke="#63b8ff" points="197.85,-21.91 187.41,-20.1 194.44,-28.02 197.85,-21.91"/>
</g>
<!-- Node10&#45;&gt;Node5 -->
<g id="edge11" class="edge">
<title>Node10&#45;&gt;Node5</title>
<path fill="none" stroke="#63b8ff" d="M277.77,-54.51C288.68,-46.7 304.72,-35.21 317.68,-25.93"/>
<polygon fill="#63b8ff" stroke="#63b8ff" points="319.53,-28.91 325.62,-20.24 315.45,-23.22 319.53,-28.91"/>
</g>
<!-- Node11&#45;&gt;Node4 -->
<g id="edge13" class="edge">
<title>Node11&#45;&gt;Node4</title>
<path fill="none" stroke="#63b8ff" d="M266.73,-164.74C250.68,-139.09 203.56,-63.78 181.65,-28.78"/>
<polygon fill="#63b8ff" stroke="#63b8ff" points="184.8,-27.21 176.53,-20.59 178.87,-30.92 184.8,-27.21"/>
</g>
<!-- Node11&#45;&gt;Node10 -->
<g id="edge14" class="edge">
<title>Node11&#45;&gt;Node10</title>
<path fill="none" stroke="#63b8ff" d="M271.64,-164.66C270.54,-147.57 268.07,-109.61 266.54,-85.92"/>
<polygon fill="#63b8ff" stroke="#63b8ff" points="270.03,-85.72 265.89,-75.97 263.05,-86.18 270.03,-85.72"/>
</g>
<!-- Node11&#45;&gt;Node12 -->
<g id="edge15" class="edge">
<title>Node11&#45;&gt;Node12</title>
<path fill="none" stroke="#63b8ff" d="M280.14,-164.75C286.77,-157.43 296.43,-146.76 304.61,-137.74"/>
<polygon fill="#63b8ff" stroke="#63b8ff" points="306.98,-140.33 311.1,-130.56 301.79,-135.63 306.98,-140.33"/>
</g>
<!-- Node12&#45;&gt;Node4 -->
<g id="edge16" class="edge">
<title>Node12&#45;&gt;Node4</title>
<path fill="none" stroke="#63b8ff" d="M319.57,-109.86C318.11,-96.35 313.39,-70.19 298.22,-55 273.45,-30.2 234.16,-19.2 205.64,-14.33"/>
<polygon fill="#63b8ff" stroke="#63b8ff" points="206.44,-10.91 196.02,-12.87 205.39,-17.83 206.44,-10.91"/>
</g>
<!-- Node12&#45;&gt;Node10 -->
<g id="edge17" class="edge">
<title>Node12&#45;&gt;Node10</title>
<path fill="none" stroke="#63b8ff" d="M311.13,-109.75C303.38,-102.27 292.01,-91.32 282.52,-82.17"/>
<polygon fill="#63b8ff" stroke="#63b8ff" points="285.21,-79.91 275.58,-75.49 280.36,-84.95 285.21,-79.91"/>
</g>
<!-- Node13&#45;&gt;Node4 -->
<g id="edge20" class="edge">
<title>Node13&#45;&gt;Node4</title>
<path fill="none" stroke="#63b8ff" d="M179.04,-164.65C177.89,-155.68 176.17,-141.4 175.22,-129 172.55,-94.53 171.23,-54.3 170.64,-30.69"/>
<polygon fill="#63b8ff" stroke="#63b8ff" points="174.14,-30.86 170.41,-20.94 167.15,-31.02 174.14,-30.86"/>
</g>
<!-- Node13&#45;&gt;Node10 -->
<g id="edge25" class="edge">
<title>Node13&#45;&gt;Node10</title>
<path fill="none" stroke="#63b8ff" d="M187.17,-164.66C201.12,-146.94 232.74,-106.77 251.16,-83.35"/>
<polygon fill="#63b8ff" stroke="#63b8ff" points="253.79,-85.67 257.23,-75.65 248.29,-81.34 253.79,-85.67"/>
</g>
<!-- Node14 -->
<g id="node14" class="node">
<title>Node14</title>
<g id="a_node14"><a xlink:href="binary__heap_8h.html" target="_top" xlink:title="This file contains the declarations for the binary min&#45;heap used in the a* algorithm.">
<polygon fill="white" stroke="#666666" points="123.22,-129 47.22,-129 47.22,-110 123.22,-110 123.22,-129"/>
<text text-anchor="middle" x="85.22" y="-117" font-family="Helvetica,sans-Serif" font-size="10.00">binary_heap.h</text>
</a>
</g>
</g>
<!-- Node13&#45;&gt;Node14 -->
<g id="edge21" class="edge">
<title>Node13&#45;&gt;Node14</title>
<path fill="none" stroke="#63b8ff" d="M164.1,-164.51C149.55,-156.39 127.88,-144.3 110.93,-134.85"/>
<polygon fill="#63b8ff" stroke="#63b8ff" points="112.85,-131.91 102.41,-130.1 109.44,-138.02 112.85,-131.91"/>
</g>
<!-- Node14&#45;&gt;Node2 -->
<g id="edge24" class="edge">
<title>Node14&#45;&gt;Node2</title>
<path fill="none" stroke="#63b8ff" d="M77.78,-109.75C71.63,-102.5 62.7,-91.98 55.09,-83.02"/>
<polygon fill="#63b8ff" stroke="#63b8ff" points="57.93,-80.95 48.79,-75.6 52.59,-85.48 57.93,-80.95"/>
</g>
<!-- Node14&#45;&gt;Node4 -->
<g id="edge22" class="edge">
<title>Node14&#45;&gt;Node4</title>
<path fill="none" stroke="#63b8ff" d="M92.17,-109.66C106.12,-91.94 137.74,-51.77 156.16,-28.35"/>
<polygon fill="#63b8ff" stroke="#63b8ff" points="158.79,-30.67 162.23,-20.65 153.29,-26.34 158.79,-30.67"/>
</g>
<!-- Node14&#45;&gt;Node10 -->
<g id="edge23" class="edge">
<title>Node14&#45;&gt;Node10</title>
<path fill="none" stroke="#63b8ff" d="M115.75,-109.51C147.51,-100.16 197.16,-85.54 230.42,-75.75"/>
<polygon fill="#63b8ff" stroke="#63b8ff" points="231.39,-79.11 239.99,-72.93 229.41,-72.39 231.39,-79.11"/>
</g>
</g>
</svg>
