<?xml version="1.0" encoding="UTF-8" standalone="no"?>
<!DOCTYPE svg PUBLIC "-//W3C//DTD SVG 1.1//EN"
 "http://www.w3.org/Graphics/SVG/1.1/DTD/svg11.dtd">
<!-- Generated by graphviz version 7.0.5 (20221223.1930)
 -->
<!-- Title: pid_navigate_turn Pages: 1 -->
<svg width="225pt" height="45pt"
 viewBox="0.00 0.00 225.00 45.00" xmlns="http://www.w3.org/2000/svg" xmlns:xlink="http://www.w3.org/1999/xlink">
<g id="graph0" class="graph" transform="scale(1 1) rotate(0) translate(4 41)">
<title>pid_navigate_turn</title>
<!-- Node1 -->
<g id="node1" class="node">
<title>Node1</title>
<g id="a_node1"><a xlink:title="Function to turn the car and move in a given direction.">
<polygon fill="#999999" stroke="#666666" points="217,-19 124,-19 124,0 217,0 217,-19"/>
<text text-anchor="middle" x="170.5" y="-7" font-family="Helvetica,sans-Serif" font-size="10.00">pid_navigate_turn</text>
</a>
</g>
</g>
<!-- Node2 -->
<g id="node2" class="node">
<title>Node2</title>
<g id="a_node2"><a xlink:href="drivers_2pid_2main_8c.html#a0187889d224f77fe06a8bee605897eb3" target="_top" xlink:title="Interrupt callback function on rising edge.">
<polygon fill="white" stroke="#666666" points="88,-19 0,-19 0,0 88,0 88,-19"/>
<text text-anchor="middle" x="44" y="-7" font-family="Helvetica,sans-Serif" font-size="10.00">encoder_tick_isr</text>
</a>
</g>
</g>
<!-- Node1&#45;&gt;Node2 -->
<g id="edge1" class="edge">
<title>Node1&#45;&gt;Node2</title>
<path fill="none" stroke="#63b8ff" d="M112.45,-9.5C104.28,-9.5 96,-9.5 88.16,-9.5"/>
<polygon fill="#63b8ff" stroke="#63b8ff" points="112.33,-13 122.33,-9.5 112.33,-6 112.33,-13"/>
</g>
<!-- Node2&#45;&gt;Node2 -->
<g id="edge2" class="edge">
<title>Node2&#45;&gt;Node2</title>
<path fill="none" stroke="#63b8ff" d="M66.45,-30.43C63.65,-34.29 56.16,-37 44,-37 21.76,-37 15.16,-27.94 24.2,-19.37"/>
<polygon fill="#63b8ff" stroke="#63b8ff" points="69.89,-29.75 64.16,-20.84 63.08,-31.38 69.89,-29.75"/>
</g>
</g>
</svg>
