<?xml version="1.0" encoding="UTF-8" standalone="no"?>
<!DOCTYPE svg PUBLIC "-//W3C//DTD SVG 1.1//EN"
 "http://www.w3.org/Graphics/SVG/1.1/DTD/svg11.dtd">
<!-- Generated by graphviz version 7.0.5 (20221223.1930)
 -->
<!-- Title: src/drivers/pid/pid.h Pages: 1 -->
<svg width="130pt" height="137pt"
 viewBox="0.00 0.00 130.00 137.00" xmlns="http://www.w3.org/2000/svg" xmlns:xlink="http://www.w3.org/1999/xlink">
<g id="graph0" class="graph" transform="scale(1 1) rotate(0) translate(4 133)">
<title>src/drivers/pid/pid.h</title>
<!-- Node1 -->
<g id="node1" class="node">
<title>Node1</title>
<g id="a_node1"><a xlink:title="Header file for PID control.">
<polygon fill="#999999" stroke="#666666" points="109.5,-129 8.5,-129 8.5,-110 109.5,-110 109.5,-129"/>
<text text-anchor="middle" x="59" y="-117" font-family="Helvetica,sans-Serif" font-size="10.00">src/drivers/pid/pid.h</text>
</a>
</g>
</g>
<!-- Node2 -->
<g id="node2" class="node">
<title>Node2</title>
<g id="a_node2"><a xlink:href="maze_8h.html" target="_top" xlink:title="Header file for the maze data structure and public functions.">
<polygon fill="white" stroke="#666666" points="107.5,-74 10.5,-74 10.5,-55 107.5,-55 107.5,-74"/>
<text text-anchor="middle" x="59" y="-62" font-family="Helvetica,sans-Serif" font-size="10.00">pathfinding/maze.h</text>
</a>
</g>
</g>
<!-- Node1&#45;&gt;Node2 -->
<g id="edge1" class="edge">
<title>Node1&#45;&gt;Node2</title>
<path fill="none" stroke="#63b8ff" d="M59,-109.75C59,-103.27 59,-94.16 59,-85.9"/>
<polygon fill="#63b8ff" stroke="#63b8ff" points="62.5,-85.96 59,-75.96 55.5,-85.96 62.5,-85.96"/>
</g>
<!-- Node3 -->
<g id="node3" class="node">
<title>Node3</title>
<g id="a_node3"><a xlink:title=" ">
<polygon fill="#e0e0e0" stroke="#999999" points="48,-19 0,-19 0,0 48,0 48,-19"/>
<text text-anchor="middle" x="24" y="-7" font-family="Helvetica,sans-Serif" font-size="10.00">stdint.h</text>
</a>
</g>
</g>
<!-- Node2&#45;&gt;Node3 -->
<g id="edge2" class="edge">
<title>Node2&#45;&gt;Node3</title>
<path fill="none" stroke="#63b8ff" d="M53.22,-54.75C48.59,-47.73 41.93,-37.64 36.13,-28.87"/>
<polygon fill="#63b8ff" stroke="#63b8ff" points="39.17,-27.12 30.74,-20.71 33.33,-30.98 39.17,-27.12"/>
</g>
<!-- Node4 -->
<g id="node4" class="node">
<title>Node4</title>
<g id="a_node4"><a xlink:title=" ">
<polygon fill="#e0e0e0" stroke="#999999" points="122,-19 66,-19 66,0 122,0 122,-19"/>
<text text-anchor="middle" x="94" y="-7" font-family="Helvetica,sans-Serif" font-size="10.00">stdbool.h</text>
</a>
</g>
</g>
<!-- Node2&#45;&gt;Node4 -->
<g id="edge3" class="edge">
<title>Node2&#45;&gt;Node4</title>
<path fill="none" stroke="#63b8ff" d="M64.78,-54.75C69.41,-47.73 76.07,-37.64 81.87,-28.87"/>
<polygon fill="#63b8ff" stroke="#63b8ff" points="84.67,-30.98 87.26,-20.71 78.83,-27.12 84.67,-30.98"/>
</g>
</g>
</svg>
