<?xml version="1.0" encoding="UTF-8" standalone="no"?>
<!DOCTYPE svg PUBLIC "-//W3C//DTD SVG 1.1//EN"
 "http://www.w3.org/Graphics/SVG/1.1/DTD/svg11.dtd">
<!-- Generated by graphviz version 7.0.5 (20221223.1930)
 -->
<!-- Title: pid_navigate_turn Pages: 1 -->
<svg width="399pt" height="138pt"
 viewBox="0.00 0.00 399.00 138.00" xmlns="http://www.w3.org/2000/svg" xmlns:xlink="http://www.w3.org/1999/xlink">
<g id="graph0" class="graph" transform="scale(1 1) rotate(0) translate(4 134)">
<title>pid_navigate_turn</title>
<!-- Node1 -->
<g id="node1" class="node">
<title>Node1</title>
<g id="a_node1"><a xlink:title="Function to turn the car and move in a given direction.">
<polygon fill="#999999" stroke="#666666" points="93,-74 0,-74 0,-55 93,-55 93,-74"/>
<text text-anchor="middle" x="46.5" y="-62" font-family="Helvetica,sans-Serif" font-size="10.00">pid_navigate_turn</text>
</a>
</g>
</g>
<!-- Node2 -->
<g id="node2" class="node">
<title>Node2</title>
<g id="a_node2"><a xlink:href="motor__control_8c.html#aa0ac4ae2f8c20282dec6b8e443fd6666" target="_top" xlink:title="A function to move the car forward.">
<polygon fill="white" stroke="#666666" points="237,-130 129,-130 129,-111 237,-111 237,-130"/>
<text text-anchor="middle" x="183" y="-118" font-family="Helvetica,sans-Serif" font-size="10.00">motor_move_forward</text>
</a>
</g>
</g>
<!-- Node1&#45;&gt;Node2 -->
<g id="edge1" class="edge">
<title>Node1&#45;&gt;Node2</title>
<path fill="none" stroke="#63b8ff" d="M67.33,-74.49C83.67,-82.53 107.56,-93.89 129,-102.5 132.63,-103.96 136.42,-105.4 140.24,-106.8"/>
<polygon fill="#63b8ff" stroke="#63b8ff" points="138.94,-110.05 149.54,-110.09 141.28,-103.45 138.94,-110.05"/>
</g>
<!-- Node5 -->
<g id="node5" class="node">
<title>Node5</title>
<g id="a_node5"><a xlink:href="motor__control_8c.html#a24063f2aae5b4a3eb6b33dc2eea150dd" target="_top" xlink:title="A function to turn the car left.">
<polygon fill="white" stroke="#666666" points="224,-93 142,-93 142,-74 224,-74 224,-93"/>
<text text-anchor="middle" x="183" y="-81" font-family="Helvetica,sans-Serif" font-size="10.00">motor_turn_left</text>
</a>
</g>
</g>
<!-- Node1&#45;&gt;Node5 -->
<g id="edge4" class="edge">
<title>Node1&#45;&gt;Node5</title>
<path fill="none" stroke="#63b8ff" d="M93.41,-70.99C105.29,-72.66 118.16,-74.48 130.32,-76.2"/>
<polygon fill="#63b8ff" stroke="#63b8ff" points="129.8,-79.66 140.19,-77.59 130.78,-72.73 129.8,-79.66"/>
</g>
<!-- Node6 -->
<g id="node6" class="node">
<title>Node6</title>
<g id="a_node6"><a xlink:href="motor__control_8c.html#a63c73ae82a6d47bc620608fc752b83f9" target="_top" xlink:title="A function to turn the car right.">
<polygon fill="white" stroke="#666666" points="226.5,-56 139.5,-56 139.5,-37 226.5,-37 226.5,-56"/>
<text text-anchor="middle" x="183" y="-44" font-family="Helvetica,sans-Serif" font-size="10.00">motor_turn_right</text>
</a>
</g>
</g>
<!-- Node1&#45;&gt;Node6 -->
<g id="edge7" class="edge">
<title>Node1&#45;&gt;Node6</title>
<path fill="none" stroke="#63b8ff" d="M93.41,-58.36C104.48,-56.87 116.42,-55.28 127.83,-53.75"/>
<polygon fill="#63b8ff" stroke="#63b8ff" points="128.07,-57.25 137.51,-52.45 127.14,-50.31 128.07,-57.25"/>
</g>
<!-- Node7 -->
<g id="node7" class="node">
<title>Node7</title>
<g id="a_node7"><a xlink:href="pid_8c.html#a2df167fb87eed8f206d2231abc2b7610" target="_top" xlink:title="Sets up pid struct(s).">
<polygon fill="white" stroke="#666666" points="224.5,-19 141.5,-19 141.5,0 224.5,0 224.5,-19"/>
<text text-anchor="middle" x="183" y="-7" font-family="Helvetica,sans-Serif" font-size="10.00">pid_init_structs</text>
</a>
</g>
</g>
<!-- Node1&#45;&gt;Node7 -->
<g id="edge10" class="edge">
<title>Node1&#45;&gt;Node7</title>
<path fill="none" stroke="#63b8ff" d="M68.03,-54.5C84.36,-46.71 107.9,-35.85 129,-27.5 132.63,-26.06 136.43,-24.63 140.26,-23.24"/>
<polygon fill="#63b8ff" stroke="#63b8ff" points="141.29,-26.59 149.56,-19.96 138.96,-19.99 141.29,-26.59"/>
</g>
<!-- Node3 -->
<g id="node3" class="node">
<title>Node3</title>
<g id="a_node3"><a xlink:href="motor__control_8c.html#a3dc0491deae0e443306e8695d7879daf" target="_top" xlink:title="A function to update the direction of the motor&#39;s rotation.">
<polygon fill="white" stroke="#666666" points="391,-111 273,-111 273,-92 391,-92 391,-111"/>
<text text-anchor="middle" x="332" y="-99" font-family="Helvetica,sans-Serif" font-size="10.00">motor_update_direction</text>
</a>
</g>
</g>
<!-- Node2&#45;&gt;Node3 -->
<g id="edge2" class="edge">
<title>Node2&#45;&gt;Node3</title>
<path fill="none" stroke="#63b8ff" d="M237.49,-113.59C245.24,-112.58 253.32,-111.54 261.34,-110.5"/>
<polygon fill="#63b8ff" stroke="#63b8ff" points="261.62,-114 271.09,-109.24 260.72,-107.05 261.62,-114"/>
</g>
<!-- Node4 -->
<g id="node4" class="node">
<title>Node4</title>
<g id="a_node4"><a xlink:href="motor__control_8c.html#a38f59b6b48b6a4d0dd583eef8719e1a3" target="_top" xlink:title="A function to update the PWM duty cycle and wrap value.">
<polygon fill="white" stroke="#666666" points="383,-74 281,-74 281,-55 383,-55 383,-74"/>
<text text-anchor="middle" x="332" y="-62" font-family="Helvetica,sans-Serif" font-size="10.00">motor_update_pwm</text>
</a>
</g>
</g>
<!-- Node2&#45;&gt;Node4 -->
<g id="edge3" class="edge">
<title>Node2&#45;&gt;Node4</title>
<path fill="none" stroke="#63b8ff" d="M215.98,-110.55C222.98,-108.12 230.31,-105.38 237,-102.5 253.62,-95.35 256.34,-90.56 273,-83.5 277.39,-81.64 282.03,-79.84 286.69,-78.15"/>
<polygon fill="#63b8ff" stroke="#63b8ff" points="287.78,-81.48 296.09,-74.9 285.49,-74.86 287.78,-81.48"/>
</g>
<!-- Node5&#45;&gt;Node3 -->
<g id="edge5" class="edge">
<title>Node5&#45;&gt;Node3</title>
<path fill="none" stroke="#63b8ff" d="M224.17,-88.42C235.74,-89.84 248.71,-91.42 261.52,-92.99"/>
<polygon fill="#63b8ff" stroke="#63b8ff" points="260.84,-96.43 271.19,-94.18 261.69,-89.49 260.84,-96.43"/>
</g>
<!-- Node5&#45;&gt;Node4 -->
<g id="edge6" class="edge">
<title>Node5&#45;&gt;Node4</title>
<path fill="none" stroke="#63b8ff" d="M224.17,-78.31C238.19,-76.5 254.27,-74.42 269.62,-72.43"/>
<polygon fill="#63b8ff" stroke="#63b8ff" points="269.66,-75.96 279.13,-71.2 268.76,-69.02 269.66,-75.96"/>
</g>
<!-- Node6&#45;&gt;Node3 -->
<g id="edge8" class="edge">
<title>Node6&#45;&gt;Node3</title>
<path fill="none" stroke="#63b8ff" d="M213.68,-56.43C221.35,-59.19 229.54,-62.31 237,-65.5 253.45,-72.53 256.4,-76.83 273,-83.5 276.85,-85.05 280.88,-86.54 284.95,-87.97"/>
<polygon fill="#63b8ff" stroke="#63b8ff" points="283.68,-91.23 294.28,-91.08 285.9,-84.59 283.68,-91.23"/>
</g>
<!-- Node6&#45;&gt;Node4 -->
<g id="edge9" class="edge">
<title>Node6&#45;&gt;Node4</title>
<path fill="none" stroke="#63b8ff" d="M226.91,-51.75C240.15,-53.38 255.01,-55.19 269.25,-56.94"/>
<polygon fill="#63b8ff" stroke="#63b8ff" points="268.65,-60.39 279,-58.13 269.5,-53.44 268.65,-60.39"/>
</g>
</g>
</svg>
