<?xml version="1.0" encoding="UTF-8" standalone="no"?>
<!DOCTYPE svg PUBLIC "-//W3C//DTD SVG 1.1//EN"
 "http://www.w3.org/Graphics/SVG/1.1/DTD/svg11.dtd">
<!-- Generated by graphviz version 7.0.5 (20221223.1930)
 -->
<!-- Title: navigate_car_turn Pages: 1 -->
<svg width="345pt" height="138pt"
 viewBox="0.00 0.00 345.00 138.00" xmlns="http://www.w3.org/2000/svg" xmlns:xlink="http://www.w3.org/1999/xlink">
<g id="graph0" class="graph" transform="scale(1 1) rotate(0) translate(4 134)">
<title>navigate_car_turn</title>
<!-- Node1 -->
<g id="node1" class="node">
<title>Node1</title>
<g id="a_node1"><a xlink:title="Function to turn the car based on a given direction.">
<polygon fill="#999999" stroke="#666666" points="94,-74 0,-74 0,-55 94,-55 94,-74"/>
<text text-anchor="middle" x="47" y="-62" font-family="Helvetica,sans-Serif" font-size="10.00">navigate_car_turn</text>
</a>
</g>
</g>
<!-- Node2 -->
<g id="node2" class="node">
<title>Node2</title>
<g id="a_node2"><a xlink:href="pid_8c.html#a9d536de103ad5b8b41e9fc2bdb1a9b52" target="_top" xlink:title="Sets up pid struct(s).">
<polygon fill="white" stroke="#666666" points="213,-130 130,-130 130,-111 213,-111 213,-130"/>
<text text-anchor="middle" x="171.5" y="-118" font-family="Helvetica,sans-Serif" font-size="10.00">init_pid_structs</text>
</a>
</g>
</g>
<!-- Node1&#45;&gt;Node2 -->
<g id="edge1" class="edge">
<title>Node1&#45;&gt;Node2</title>
<path fill="none" stroke="#63b8ff" d="M69.2,-74.43C85.73,-82.15 109.28,-93.1 130,-102.5 132.57,-103.67 135.25,-104.87 137.93,-106.08"/>
<polygon fill="#63b8ff" stroke="#63b8ff" points="136.25,-109.16 146.81,-110.04 139.1,-102.77 136.25,-109.16"/>
</g>
<!-- Node3 -->
<g id="node3" class="node">
<title>Node3</title>
<g id="a_node3"><a xlink:href="motor__control_8c.html#ae550a3c67881c84d0b773c23e5b3aecd" target="_top" xlink:title="A function to move the car forward.">
<polygon fill="white" stroke="#666666" points="210.5,-93 132.5,-93 132.5,-74 210.5,-74 210.5,-93"/>
<text text-anchor="middle" x="171.5" y="-81" font-family="Helvetica,sans-Serif" font-size="10.00">move_forward</text>
</a>
</g>
</g>
<!-- Node1&#45;&gt;Node3 -->
<g id="edge2" class="edge">
<title>Node1&#45;&gt;Node3</title>
<path fill="none" stroke="#63b8ff" d="M94.31,-71.68C102.98,-73.03 112.07,-74.44 120.84,-75.8"/>
<polygon fill="#63b8ff" stroke="#63b8ff" points="120.19,-79.24 130.61,-77.31 121.27,-72.32 120.19,-79.24"/>
</g>
<!-- Node6 -->
<g id="node6" class="node">
<title>Node6</title>
<g id="a_node6"><a xlink:href="motor__control_8c.html#a2b3e4a3587c92c609c39b1a5778bcf00" target="_top" xlink:title="A function to turn the car left.">
<polygon fill="white" stroke="#666666" points="197.5,-56 145.5,-56 145.5,-37 197.5,-37 197.5,-56"/>
<text text-anchor="middle" x="171.5" y="-44" font-family="Helvetica,sans-Serif" font-size="10.00">turn_left</text>
</a>
</g>
</g>
<!-- Node1&#45;&gt;Node6 -->
<g id="edge5" class="edge">
<title>Node1&#45;&gt;Node6</title>
<path fill="none" stroke="#63b8ff" d="M94.31,-57.69C107.35,-55.78 121.36,-53.72 133.76,-51.9"/>
<polygon fill="#63b8ff" stroke="#63b8ff" points="134.19,-55.37 143.57,-50.46 133.17,-48.45 134.19,-55.37"/>
</g>
<!-- Node7 -->
<g id="node7" class="node">
<title>Node7</title>
<g id="a_node7"><a xlink:href="motor__control_8c.html#adb5876f4cb9a5649408fdff387502929" target="_top" xlink:title="A function to turn the car right.">
<polygon fill="white" stroke="#666666" points="200,-19 143,-19 143,0 200,0 200,-19"/>
<text text-anchor="middle" x="171.5" y="-7" font-family="Helvetica,sans-Serif" font-size="10.00">turn_right</text>
</a>
</g>
</g>
<!-- Node1&#45;&gt;Node7 -->
<g id="edge8" class="edge">
<title>Node1&#45;&gt;Node7</title>
<path fill="none" stroke="#63b8ff" d="M70.18,-54.54C89.18,-46.01 116.77,-33.62 138.21,-24"/>
<polygon fill="#63b8ff" stroke="#63b8ff" points="139.41,-27.29 147.1,-20.01 136.54,-20.91 139.41,-27.29"/>
</g>
<!-- Node4 -->
<g id="node4" class="node">
<title>Node4</title>
<g id="a_node4"><a xlink:href="motor__control_8c.html#af0ebed13ef30e857d8c5cbda43c8f7c0" target="_top" xlink:title="A function to update the direction of the motor&#39;s rotation.">
<polygon fill="white" stroke="#666666" points="337,-74 249,-74 249,-55 337,-55 337,-74"/>
<text text-anchor="middle" x="293" y="-62" font-family="Helvetica,sans-Serif" font-size="10.00">update_direction</text>
</a>
</g>
</g>
<!-- Node3&#45;&gt;Node4 -->
<g id="edge3" class="edge">
<title>Node3&#45;&gt;Node4</title>
<path fill="none" stroke="#63b8ff" d="M210.97,-77.38C219.41,-76.04 228.51,-74.6 237.45,-73.17"/>
<polygon fill="#63b8ff" stroke="#63b8ff" points="237.8,-76.66 247.13,-71.63 236.71,-69.75 237.8,-76.66"/>
</g>
<!-- Node5 -->
<g id="node5" class="node">
<title>Node5</title>
<g id="a_node5"><a xlink:href="motor__control_8c.html#aa20774b583539f8a2698c2f8ac6d4334" target="_top" xlink:title="A function to update the PWM duty cycle and wrap value.">
<polygon fill="white" stroke="#666666" points="329,-37 257,-37 257,-18 329,-18 329,-37"/>
<text text-anchor="middle" x="293" y="-25" font-family="Helvetica,sans-Serif" font-size="10.00">update_pwm</text>
</a>
</g>
</g>
<!-- Node3&#45;&gt;Node5 -->
<g id="edge4" class="edge">
<title>Node3&#45;&gt;Node5</title>
<path fill="none" stroke="#63b8ff" d="M195.33,-73.68C201.13,-71.09 207.32,-68.26 213,-65.5 229.28,-57.6 232.72,-54.38 249,-46.5 251.96,-45.07 255.06,-43.61 258.17,-42.18"/>
<polygon fill="#63b8ff" stroke="#63b8ff" points="259.59,-45.38 267.28,-38.08 256.72,-39 259.59,-45.38"/>
</g>
<!-- Node6&#45;&gt;Node4 -->
<g id="edge6" class="edge">
<title>Node6&#45;&gt;Node4</title>
<path fill="none" stroke="#63b8ff" d="M197.84,-50.32C209.52,-52.08 223.86,-54.24 237.79,-56.33"/>
<polygon fill="#63b8ff" stroke="#63b8ff" points="236.91,-59.74 247.32,-57.77 237.95,-52.82 236.91,-59.74"/>
</g>
<!-- Node6&#45;&gt;Node5 -->
<g id="edge7" class="edge">
<title>Node6&#45;&gt;Node5</title>
<path fill="none" stroke="#63b8ff" d="M197.84,-42.47C211.76,-40.26 229.45,-37.44 245.74,-34.86"/>
<polygon fill="#63b8ff" stroke="#63b8ff" points="245.9,-38.37 255.23,-33.35 244.8,-31.46 245.9,-38.37"/>
</g>
<!-- Node7&#45;&gt;Node4 -->
<g id="edge9" class="edge">
<title>Node7&#45;&gt;Node4</title>
<path fill="none" stroke="#63b8ff" d="M193.99,-19.46C200.14,-22.34 206.85,-25.52 213,-28.5 229.1,-36.3 232.74,-39.04 249,-46.5 251.57,-47.68 254.25,-48.88 256.95,-50.06"/>
<polygon fill="#63b8ff" stroke="#63b8ff" points="255.36,-53.18 265.93,-53.91 258.11,-46.75 255.36,-53.18"/>
</g>
<!-- Node7&#45;&gt;Node5 -->
<g id="edge10" class="edge">
<title>Node7&#45;&gt;Node5</title>
<path fill="none" stroke="#63b8ff" d="M200.22,-13.67C213.62,-15.69 230.08,-18.17 245.34,-20.47"/>
<polygon fill="#63b8ff" stroke="#63b8ff" points="244.81,-23.93 255.22,-21.96 245.85,-17.01 244.81,-23.93"/>
</g>
</g>
</svg>
