<?xml version="1.0" encoding="UTF-8" standalone="no"?>
<!DOCTYPE svg PUBLIC "-//W3C//DTD SVG 1.1//EN"
 "http://www.w3.org/Graphics/SVG/1.1/DTD/svg11.dtd">
<!-- Generated by graphviz version 7.0.5 (20221223.1930)
 -->
<!-- Title: main/pid/pid.c Pages: 1 -->
<svg width="468pt" height="192pt"
 viewBox="0.00 0.00 468.48 192.00" xmlns="http://www.w3.org/2000/svg" xmlns:xlink="http://www.w3.org/1999/xlink">
<g id="graph0" class="graph" transform="scale(1 1) rotate(0) translate(4 188)">
<title>main/pid/pid.c</title>
<!-- Node1 -->
<g id="node1" class="node">
<title>Node1</title>
<g id="a_node1"><a xlink:title=" ">
<polygon fill="#999999" stroke="#666666" points="246.48,-184 169.48,-184 169.48,-165 246.48,-165 246.48,-184"/>
<text text-anchor="middle" x="207.98" y="-172" font-family="Helvetica,sans-Serif" font-size="10.00">main/pid/pid.c</text>
</a>
</g>
</g>
<!-- Node2 -->
<g id="node2" class="node">
<title>Node2</title>
<g id="a_node2"><a xlink:href="motor__control_8h.html" target="_top" xlink:title=" ">
<polygon fill="white" stroke="#666666" points="117.48,-129 6.48,-129 6.48,-110 117.48,-110 117.48,-129"/>
<text text-anchor="middle" x="61.98" y="-117" font-family="Helvetica,sans-Serif" font-size="10.00">motor/motor_control.h</text>
</a>
</g>
</g>
<!-- Node1&#45;&gt;Node2 -->
<g id="edge1" class="edge">
<title>Node1&#45;&gt;Node2</title>
<path fill="none" stroke="#63b8ff" d="M183.21,-164.51C159.58,-155.93 123.74,-142.92 97.15,-133.27"/>
<polygon fill="#63b8ff" stroke="#63b8ff" points="98.4,-130 87.8,-129.87 96.01,-136.58 98.4,-130"/>
</g>
<!-- Node6 -->
<g id="node6" class="node">
<title>Node6</title>
<g id="a_node6"><a xlink:href="maze_8h.html" target="_top" xlink:title="Header file for the maze data structure and public functions.">
<polygon fill="white" stroke="#666666" points="231.48,-74 184.48,-74 184.48,-55 231.48,-55 231.48,-74"/>
<text text-anchor="middle" x="207.98" y="-62" font-family="Helvetica,sans-Serif" font-size="10.00">maze.h</text>
</a>
</g>
</g>
<!-- Node1&#45;&gt;Node6 -->
<g id="edge5" class="edge">
<title>Node1&#45;&gt;Node6</title>
<path fill="none" stroke="#63b8ff" d="M200.58,-164.65C193.97,-156.13 184.78,-142.58 180.98,-129 176.5,-112.98 184.83,-95.65 193.38,-83.15"/>
<polygon fill="#63b8ff" stroke="#63b8ff" points="195.93,-85.58 199.14,-75.49 190.34,-81.38 195.93,-85.58"/>
</g>
<!-- Node8 -->
<g id="node8" class="node">
<title>Node8</title>
<g id="a_node8"><a xlink:href="pid_8h.html" target="_top" xlink:title=" ">
<polygon fill="white" stroke="#666666" points="226.48,-129 189.48,-129 189.48,-110 226.48,-110 226.48,-129"/>
<text text-anchor="middle" x="207.98" y="-117" font-family="Helvetica,sans-Serif" font-size="10.00">pid.h</text>
</a>
</g>
</g>
<!-- Node1&#45;&gt;Node8 -->
<g id="edge8" class="edge">
<title>Node1&#45;&gt;Node8</title>
<path fill="none" stroke="#63b8ff" d="M207.98,-164.75C207.98,-158.27 207.98,-149.16 207.98,-140.9"/>
<polygon fill="#63b8ff" stroke="#63b8ff" points="211.48,-140.96 207.98,-130.96 204.48,-140.96 211.48,-140.96"/>
</g>
<!-- Node9 -->
<g id="node9" class="node">
<title>Node9</title>
<g id="a_node9"><a xlink:href="magnetometer_8h.html" target="_top" xlink:title="Header file for the magnetometer driver.">
<polygon fill="white" stroke="#666666" points="396.98,-129 244.98,-129 244.98,-110 396.98,-110 396.98,-129"/>
<text text-anchor="middle" x="320.98" y="-117" font-family="Helvetica,sans-Serif" font-size="10.00">magnetometer/magnetometer.h</text>
</a>
</g>
</g>
<!-- Node1&#45;&gt;Node9 -->
<g id="edge10" class="edge">
<title>Node1&#45;&gt;Node9</title>
<path fill="none" stroke="#63b8ff" d="M227.15,-164.51C244.87,-156.2 271.46,-143.73 291.81,-134.18"/>
<polygon fill="#63b8ff" stroke="#63b8ff" points="293.16,-137.42 300.72,-130 290.18,-131.08 293.16,-137.42"/>
</g>
<!-- Node10 -->
<g id="node10" class="node">
<title>Node10</title>
<g id="a_node10"><a xlink:title=" ">
<polygon fill="#e0e0e0" stroke="#999999" points="460.48,-129 415.48,-129 415.48,-110 460.48,-110 460.48,-129"/>
<text text-anchor="middle" x="437.98" y="-117" font-family="Helvetica,sans-Serif" font-size="10.00">stdio.h</text>
</a>
</g>
</g>
<!-- Node1&#45;&gt;Node10 -->
<g id="edge11" class="edge">
<title>Node1&#45;&gt;Node10</title>
<path fill="none" stroke="#63b8ff" d="M246.78,-165.24C284.51,-157.11 343.7,-144.08 404.35,-129.32"/>
<polygon fill="#63b8ff" stroke="#63b8ff" points="404.93,-132.78 413.81,-127 403.27,-125.98 404.93,-132.78"/>
</g>
<!-- Node3 -->
<g id="node3" class="node">
<title>Node3</title>
<g id="a_node3"><a xlink:title=" ">
<polygon fill="#e0e0e0" stroke="#999999" points="88.98,-19 32.98,-19 32.98,0 88.98,0 88.98,-19"/>
<text text-anchor="middle" x="60.98" y="-7" font-family="Helvetica,sans-Serif" font-size="10.00">stdbool.h</text>
</a>
</g>
</g>
<!-- Node2&#45;&gt;Node3 -->
<g id="edge2" class="edge">
<title>Node2&#45;&gt;Node3</title>
<path fill="none" stroke="#63b8ff" d="M42.13,-109.59C28.37,-102.21 11.1,-90.31 2.98,-74 -6.66,-54.65 13.15,-36.88 32.18,-25.09"/>
<polygon fill="#63b8ff" stroke="#63b8ff" points="33.68,-28.27 40.6,-20.25 30.18,-22.2 33.68,-28.27"/>
</g>
<!-- Node4 -->
<g id="node4" class="node">
<title>Node4</title>
<g id="a_node4"><a xlink:title=" ">
<polygon fill="#e0e0e0" stroke="#999999" points="79.98,-74 11.98,-74 11.98,-55 79.98,-55 79.98,-74"/>
<text text-anchor="middle" x="45.98" y="-62" font-family="Helvetica,sans-Serif" font-size="10.00">pico/stdlib.h</text>
</a>
</g>
</g>
<!-- Node2&#45;&gt;Node4 -->
<g id="edge3" class="edge">
<title>Node2&#45;&gt;Node4</title>
<path fill="none" stroke="#63b8ff" d="M59.34,-109.75C57.33,-103.11 54.5,-93.73 51.96,-85.31"/>
<polygon fill="#63b8ff" stroke="#63b8ff" points="55.36,-84.45 49.12,-75.89 48.66,-86.48 55.36,-84.45"/>
</g>
<!-- Node5 -->
<g id="node5" class="node">
<title>Node5</title>
<g id="a_node5"><a xlink:title=" ">
<polygon fill="#e0e0e0" stroke="#999999" points="165.98,-74 97.98,-74 97.98,-55 165.98,-55 165.98,-74"/>
<text text-anchor="middle" x="131.98" y="-62" font-family="Helvetica,sans-Serif" font-size="10.00">pico/types.h</text>
</a>
</g>
</g>
<!-- Node2&#45;&gt;Node5 -->
<g id="edge4" class="edge">
<title>Node2&#45;&gt;Node5</title>
<path fill="none" stroke="#63b8ff" d="M73.85,-109.51C84.07,-101.77 99.05,-90.43 111.24,-81.2"/>
<polygon fill="#63b8ff" stroke="#63b8ff" points="113.21,-84.1 119.07,-75.27 108.99,-78.52 113.21,-84.1"/>
</g>
<!-- Node6&#45;&gt;Node3 -->
<g id="edge7" class="edge">
<title>Node6&#45;&gt;Node3</title>
<path fill="none" stroke="#63b8ff" d="M184.03,-54.87C160.29,-46.31 123.65,-33.09 96.51,-23.31"/>
<polygon fill="#63b8ff" stroke="#63b8ff" points="97.92,-20.1 87.32,-20 95.54,-26.68 97.92,-20.1"/>
</g>
<!-- Node7 -->
<g id="node7" class="node">
<title>Node7</title>
<g id="a_node7"><a xlink:title=" ">
<polygon fill="#e0e0e0" stroke="#999999" points="231.98,-19 183.98,-19 183.98,0 231.98,0 231.98,-19"/>
<text text-anchor="middle" x="207.98" y="-7" font-family="Helvetica,sans-Serif" font-size="10.00">stdint.h</text>
</a>
</g>
</g>
<!-- Node6&#45;&gt;Node7 -->
<g id="edge6" class="edge">
<title>Node6&#45;&gt;Node7</title>
<path fill="none" stroke="#63b8ff" d="M207.98,-54.75C207.98,-48.27 207.98,-39.16 207.98,-30.9"/>
<polygon fill="#63b8ff" stroke="#63b8ff" points="211.48,-30.96 207.98,-20.96 204.48,-30.96 211.48,-30.96"/>
</g>
<!-- Node8&#45;&gt;Node6 -->
<g id="edge9" class="edge">
<title>Node8&#45;&gt;Node6</title>
<path fill="none" stroke="#63b8ff" d="M207.98,-109.75C207.98,-103.27 207.98,-94.16 207.98,-85.9"/>
<polygon fill="#63b8ff" stroke="#63b8ff" points="211.48,-85.96 207.98,-75.96 204.48,-85.96 211.48,-85.96"/>
</g>
</g>
</svg>
