<?xml version="1.0" encoding="UTF-8" standalone="no"?>
<!DOCTYPE svg PUBLIC "-//W3C//DTD SVG 1.1//EN"
 "http://www.w3.org/Graphics/SVG/1.1/DTD/svg11.dtd">
<!-- Generated by graphviz version 7.0.5 (20221223.1930)
 -->
<!-- Title: main/pid/pid.h Pages: 1 -->
<svg width="172pt" height="82pt"
 viewBox="0.00 0.00 172.00 82.00" xmlns="http://www.w3.org/2000/svg" xmlns:xlink="http://www.w3.org/1999/xlink">
<g id="graph0" class="graph" transform="scale(1 1) rotate(0) translate(4 78)">
<title>main/pid/pid.h</title>
<!-- Node1 -->
<g id="node1" class="node">
<title>Node1</title>
<g id="a_node1"><a xlink:title=" ">
<polygon fill="#999999" stroke="#666666" points="118,-74 41,-74 41,-55 118,-55 118,-74"/>
<text text-anchor="middle" x="79.5" y="-62" font-family="Helvetica,sans-Serif" font-size="10.00">main/pid/pid.h</text>
</a>
</g>
</g>
<!-- Node2 -->
<g id="node2" class="node">
<title>Node2</title>
<g id="a_node2"><a xlink:href="main_8c.html" target="_top" xlink:title="The main source file for robot control.">
<polygon fill="white" stroke="#666666" points="69,-19 0,-19 0,0 69,0 69,-19"/>
<text text-anchor="middle" x="34.5" y="-7" font-family="Helvetica,sans-Serif" font-size="10.00">main/main.c</text>
</a>
</g>
</g>
<!-- Node1&#45;&gt;Node2 -->
<g id="edge1" class="edge">
<title>Node1&#45;&gt;Node2</title>
<path fill="none" stroke="#63b8ff" d="M64.82,-46.22C57.24,-37.28 48.29,-26.74 42.09,-19.44"/>
<polygon fill="#63b8ff" stroke="#63b8ff" points="61.95,-48.24 71.09,-53.59 67.29,-43.71 61.95,-48.24"/>
</g>
<!-- Node3 -->
<g id="node3" class="node">
<title>Node3</title>
<g id="a_node3"><a xlink:href="pid_8c.html" target="_top" xlink:title=" ">
<polygon fill="white" stroke="#666666" points="164,-19 87,-19 87,0 164,0 164,-19"/>
<text text-anchor="middle" x="125.5" y="-7" font-family="Helvetica,sans-Serif" font-size="10.00">main/pid/pid.c</text>
</a>
</g>
</g>
<!-- Node1&#45;&gt;Node3 -->
<g id="edge2" class="edge">
<title>Node1&#45;&gt;Node3</title>
<path fill="none" stroke="#63b8ff" d="M94.5,-46.22C102.26,-37.28 111.4,-26.74 117.74,-19.44"/>
<polygon fill="#63b8ff" stroke="#63b8ff" points="92,-43.76 88.09,-53.61 97.29,-48.35 92,-43.76"/>
</g>
</g>
</svg>
