<?xml version="1.0" encoding="UTF-8" standalone="no"?>
<!DOCTYPE svg PUBLIC "-//W3C//DTD SVG 1.1//EN"
 "http://www.w3.org/Graphics/SVG/1.1/DTD/svg11.dtd">
<!-- Generated by graphviz version 7.0.5 (20221223.1930)
 -->
<!-- Title: pid_bearing_correction Pages: 1 -->
<svg width="289pt" height="101pt"
 viewBox="0.00 0.00 289.00 101.00" xmlns="http://www.w3.org/2000/svg" xmlns:xlink="http://www.w3.org/1999/xlink">
<g id="graph0" class="graph" transform="scale(1 1) rotate(0) translate(4 97)">
<title>pid_bearing_correction</title>
<!-- Node1 -->
<g id="node1" class="node">
<title>Node1</title>
<g id="a_node1"><a xlink:title="Updates the motor differential ratio based on the target bearing and current bearing.">
<polygon fill="#999999" stroke="#666666" points="114,-56 0,-56 0,-37 114,-37 114,-56"/>
<text text-anchor="middle" x="57" y="-44" font-family="Helvetica,sans-Serif" font-size="10.00">pid_bearing_correction</text>
</a>
</g>
</g>
<!-- Node2 -->
<g id="node2" class="node">
<title>Node2</title>
<g id="a_node2"><a xlink:href="magnetometer_8c.html#a3bee957bff548f4b97b55732f67f1668" target="_top" xlink:title="Gets the current bearing of the magnetometer sensor.">
<polygon fill="white" stroke="#666666" points="281,-93 150,-93 150,-74 281,-74 281,-93"/>
<text text-anchor="middle" x="215.5" y="-81" font-family="Helvetica,sans-Serif" font-size="10.00">magneto_get_curr_bearing</text>
</a>
</g>
</g>
<!-- Node1&#45;&gt;Node2 -->
<g id="edge1" class="edge">
<title>Node1&#45;&gt;Node2</title>
<path fill="none" stroke="#63b8ff" d="M99.94,-56.42C118.8,-60.87 141.27,-66.19 161.3,-70.92"/>
<polygon fill="#63b8ff" stroke="#63b8ff" points="160.44,-74.31 170.97,-73.21 162.05,-67.5 160.44,-74.31"/>
</g>
<!-- Node3 -->
<g id="node3" class="node">
<title>Node3</title>
<g id="a_node3"><a xlink:href="motor__control_8c.html#a33e4c9d262504d95b4a6e42419462de6" target="_top" xlink:title="Update the ratio of the left motor&#39;s duty cycle to the right motor&#39;s duty cycle.">
<polygon fill="white" stroke="#666666" points="265.5,-56 165.5,-56 165.5,-37 265.5,-37 265.5,-56"/>
<text text-anchor="middle" x="215.5" y="-44" font-family="Helvetica,sans-Serif" font-size="10.00">motor_update_ratio</text>
</a>
</g>
</g>
<!-- Node1&#45;&gt;Node3 -->
<g id="edge2" class="edge">
<title>Node1&#45;&gt;Node3</title>
<path fill="none" stroke="#63b8ff" d="M114.06,-46.5C126.95,-46.5 140.71,-46.5 153.79,-46.5"/>
<polygon fill="#63b8ff" stroke="#63b8ff" points="153.55,-50 163.55,-46.5 153.55,-43 153.55,-50"/>
</g>
<!-- Node4 -->
<g id="node4" class="node">
<title>Node4</title>
<g id="a_node4"><a xlink:href="pid_8c.html#a820cbffab6b043d0018e7e9937a5729c" target="_top" xlink:title="Calculates the PID control signal.">
<polygon fill="white" stroke="#666666" points="276.5,-19 154.5,-19 154.5,0 276.5,0 276.5,-19"/>
<text text-anchor="middle" x="215.5" y="-7" font-family="Helvetica,sans-Serif" font-size="10.00">pid_calculate_correction</text>
</a>
</g>
</g>
<!-- Node1&#45;&gt;Node4 -->
<g id="edge3" class="edge">
<title>Node1&#45;&gt;Node4</title>
<path fill="none" stroke="#63b8ff" d="M99.94,-36.58C118.8,-32.13 141.27,-26.81 161.3,-22.08"/>
<polygon fill="#63b8ff" stroke="#63b8ff" points="162.05,-25.5 170.97,-19.79 160.44,-18.69 162.05,-25.5"/>
</g>
</g>
</svg>
