<?xml version="1.0" encoding="UTF-8" standalone="no"?>
<!DOCTYPE svg PUBLIC "-//W3C//DTD SVG 1.1//EN"
 "http://www.w3.org/Graphics/SVG/1.1/DTD/svg11.dtd">
<!-- Generated by graphviz version 7.0.5 (20221223.1930)
 -->
<!-- Title: src/drivers/pid/pid.c Pages: 1 -->
<svg width="339pt" height="192pt"
 viewBox="0.00 0.00 339.21 192.00" xmlns="http://www.w3.org/2000/svg" xmlns:xlink="http://www.w3.org/1999/xlink">
<g id="graph0" class="graph" transform="scale(1 1) rotate(0) translate(4 188)">
<title>src/drivers/pid/pid.c</title>
<!-- Node1 -->
<g id="node1" class="node">
<title>Node1</title>
<g id="a_node1"><a xlink:title=" ">
<polygon fill="#999999" stroke="#666666" points="234.71,-184 133.71,-184 133.71,-165 234.71,-165 234.71,-184"/>
<text text-anchor="middle" x="184.21" y="-172" font-family="Helvetica,sans-Serif" font-size="10.00">src/drivers/pid/pid.c</text>
</a>
</g>
</g>
<!-- Node2 -->
<g id="node2" class="node">
<title>Node2</title>
<g id="a_node2"><a xlink:href="motor__control_8h.html" target="_top" xlink:title="Header file for motor control drivers.">
<polygon fill="white" stroke="#666666" points="110.71,-129 27.71,-129 27.71,-110 110.71,-110 110.71,-129"/>
<text text-anchor="middle" x="69.21" y="-117" font-family="Helvetica,sans-Serif" font-size="10.00">motor_control.h</text>
</a>
</g>
</g>
<!-- Node1&#45;&gt;Node2 -->
<g id="edge1" class="edge">
<title>Node1&#45;&gt;Node2</title>
<path fill="none" stroke="#63b8ff" d="M164.7,-164.51C146.58,-156.16 119.35,-143.61 98.6,-134.05"/>
<polygon fill="#63b8ff" stroke="#63b8ff" points="100.35,-131 89.8,-129.99 97.42,-137.36 100.35,-131"/>
</g>
<!-- Node6 -->
<g id="node6" class="node">
<title>Node6</title>
<g id="a_node6"><a xlink:href="maze_8h.html" target="_top" xlink:title="Header file for the maze data structure and public functions.">
<polygon fill="white" stroke="#666666" points="231.71,-74 184.71,-74 184.71,-55 231.71,-55 231.71,-74"/>
<text text-anchor="middle" x="208.21" y="-62" font-family="Helvetica,sans-Serif" font-size="10.00">maze.h</text>
</a>
</g>
</g>
<!-- Node1&#45;&gt;Node6 -->
<g id="edge5" class="edge">
<title>Node1&#45;&gt;Node6</title>
<path fill="none" stroke="#63b8ff" d="M182.07,-164.68C179.43,-152.23 175.91,-128.92 181.21,-110 183.82,-100.67 188.98,-91.34 194.1,-83.66"/>
<polygon fill="#63b8ff" stroke="#63b8ff" points="196.91,-85.74 199.92,-75.58 191.23,-81.65 196.91,-85.74"/>
</g>
<!-- Node8 -->
<g id="node8" class="node">
<title>Node8</title>
<g id="a_node8"><a xlink:href="pid_8h.html" target="_top" xlink:title=" ">
<polygon fill="white" stroke="#666666" points="226.71,-129 189.71,-129 189.71,-110 226.71,-110 226.71,-129"/>
<text text-anchor="middle" x="208.21" y="-117" font-family="Helvetica,sans-Serif" font-size="10.00">pid.h</text>
</a>
</g>
</g>
<!-- Node1&#45;&gt;Node8 -->
<g id="edge8" class="edge">
<title>Node1&#45;&gt;Node8</title>
<path fill="none" stroke="#63b8ff" d="M188.17,-164.75C191.24,-157.96 195.62,-148.3 199.5,-139.73"/>
<polygon fill="#63b8ff" stroke="#63b8ff" points="202.6,-141.37 203.53,-130.82 196.22,-138.49 202.6,-141.37"/>
</g>
<!-- Node9 -->
<g id="node9" class="node">
<title>Node9</title>
<g id="a_node9"><a xlink:href="magnetometer_8h.html" target="_top" xlink:title="Header file for the magnetometer driver.">
<polygon fill="white" stroke="#666666" points="331.21,-129 245.21,-129 245.21,-110 331.21,-110 331.21,-129"/>
<text text-anchor="middle" x="288.21" y="-117" font-family="Helvetica,sans-Serif" font-size="10.00">magnetometer.h</text>
</a>
</g>
</g>
<!-- Node1&#45;&gt;Node9 -->
<g id="edge10" class="edge">
<title>Node1&#45;&gt;Node9</title>
<path fill="none" stroke="#63b8ff" d="M201.85,-164.51C217.93,-156.31 241.95,-144.07 260.58,-134.58"/>
<polygon fill="#63b8ff" stroke="#63b8ff" points="262.15,-137.7 269.48,-130.05 258.98,-131.47 262.15,-137.7"/>
</g>
<!-- Node3 -->
<g id="node3" class="node">
<title>Node3</title>
<g id="a_node3"><a xlink:title=" ">
<polygon fill="#e0e0e0" stroke="#999999" points="89.21,-19 33.21,-19 33.21,0 89.21,0 89.21,-19"/>
<text text-anchor="middle" x="61.21" y="-7" font-family="Helvetica,sans-Serif" font-size="10.00">stdbool.h</text>
</a>
</g>
</g>
<!-- Node2&#45;&gt;Node3 -->
<g id="edge2" class="edge">
<title>Node2&#45;&gt;Node3</title>
<path fill="none" stroke="#63b8ff" d="M45.77,-109.58C30.64,-102.45 12.16,-90.84 3.21,-74 -7,-54.8 13.17,-36.9 32.46,-25.03"/>
<polygon fill="#63b8ff" stroke="#63b8ff" points="34.05,-28.15 40.99,-20.15 30.57,-22.08 34.05,-28.15"/>
</g>
<!-- Node4 -->
<g id="node4" class="node">
<title>Node4</title>
<g id="a_node4"><a xlink:title=" ">
<polygon fill="#e0e0e0" stroke="#999999" points="80.21,-74 12.21,-74 12.21,-55 80.21,-55 80.21,-74"/>
<text text-anchor="middle" x="46.21" y="-62" font-family="Helvetica,sans-Serif" font-size="10.00">pico/stdlib.h</text>
</a>
</g>
</g>
<!-- Node2&#45;&gt;Node4 -->
<g id="edge3" class="edge">
<title>Node2&#45;&gt;Node4</title>
<path fill="none" stroke="#63b8ff" d="M65.41,-109.75C62.46,-102.96 58.27,-93.3 54.55,-84.73"/>
<polygon fill="#63b8ff" stroke="#63b8ff" points="57.88,-83.61 50.69,-75.83 51.46,-86.4 57.88,-83.61"/>
</g>
<!-- Node5 -->
<g id="node5" class="node">
<title>Node5</title>
<g id="a_node5"><a xlink:title=" ">
<polygon fill="#e0e0e0" stroke="#999999" points="166.21,-74 98.21,-74 98.21,-55 166.21,-55 166.21,-74"/>
<text text-anchor="middle" x="132.21" y="-62" font-family="Helvetica,sans-Serif" font-size="10.00">pico/types.h</text>
</a>
</g>
</g>
<!-- Node2&#45;&gt;Node5 -->
<g id="edge4" class="edge">
<title>Node2&#45;&gt;Node5</title>
<path fill="none" stroke="#63b8ff" d="M79.89,-109.51C88.91,-101.93 102.04,-90.88 112.89,-81.75"/>
<polygon fill="#63b8ff" stroke="#63b8ff" points="115.12,-84.45 120.52,-75.33 110.61,-79.09 115.12,-84.45"/>
</g>
<!-- Node6&#45;&gt;Node3 -->
<g id="edge7" class="edge">
<title>Node6&#45;&gt;Node3</title>
<path fill="none" stroke="#63b8ff" d="M184.26,-54.87C160.52,-46.31 123.87,-33.09 96.74,-23.31"/>
<polygon fill="#63b8ff" stroke="#63b8ff" points="98.14,-20.1 87.55,-20 95.77,-26.68 98.14,-20.1"/>
</g>
<!-- Node7 -->
<g id="node7" class="node">
<title>Node7</title>
<g id="a_node7"><a xlink:title=" ">
<polygon fill="#e0e0e0" stroke="#999999" points="232.21,-19 184.21,-19 184.21,0 232.21,0 232.21,-19"/>
<text text-anchor="middle" x="208.21" y="-7" font-family="Helvetica,sans-Serif" font-size="10.00">stdint.h</text>
</a>
</g>
</g>
<!-- Node6&#45;&gt;Node7 -->
<g id="edge6" class="edge">
<title>Node6&#45;&gt;Node7</title>
<path fill="none" stroke="#63b8ff" d="M208.21,-54.75C208.21,-48.27 208.21,-39.16 208.21,-30.9"/>
<polygon fill="#63b8ff" stroke="#63b8ff" points="211.71,-30.96 208.21,-20.96 204.71,-30.96 211.71,-30.96"/>
</g>
<!-- Node8&#45;&gt;Node6 -->
<g id="edge9" class="edge">
<title>Node8&#45;&gt;Node6</title>
<path fill="none" stroke="#63b8ff" d="M208.21,-109.75C208.21,-103.27 208.21,-94.16 208.21,-85.9"/>
<polygon fill="#63b8ff" stroke="#63b8ff" points="211.71,-85.96 208.21,-75.96 204.71,-85.96 211.71,-85.96"/>
</g>
</g>
</svg>
