<?xml version="1.0" encoding="UTF-8" standalone="no"?>
<!DOCTYPE svg PUBLIC "-//W3C//DTD SVG 1.1//EN"
 "http://www.w3.org/Graphics/SVG/1.1/DTD/svg11.dtd">
<!-- Generated by graphviz version 7.0.5 (20221223.1930)
 -->
<!-- Title: bearing_correction Pages: 1 -->
<svg width="271pt" height="101pt"
 viewBox="0.00 0.00 271.00 101.00" xmlns="http://www.w3.org/2000/svg" xmlns:xlink="http://www.w3.org/1999/xlink">
<g id="graph0" class="graph" transform="scale(1 1) rotate(0) translate(4 97)">
<title>bearing_correction</title>
<!-- Node1 -->
<g id="node1" class="node">
<title>Node1</title>
<g id="a_node1"><a xlink:title="Updates the motor differential ratio based on the target bearing and current bearing.">
<polygon fill="#999999" stroke="#666666" points="96,-56 0,-56 0,-37 96,-37 96,-56"/>
<text text-anchor="middle" x="48" y="-44" font-family="Helvetica,sans-Serif" font-size="10.00">bearing_correction</text>
</a>
</g>
</g>
<!-- Node2 -->
<g id="node2" class="node">
<title>Node2</title>
<g id="a_node2"><a xlink:href="pid_8c.html#aecce6c03751e0fc8169a1614db629a95" target="_top" xlink:title="Calculates the PID control signal.">
<polygon fill="white" stroke="#666666" points="234.5,-93 160.5,-93 160.5,-74 234.5,-74 234.5,-93"/>
<text text-anchor="middle" x="197.5" y="-81" font-family="Helvetica,sans-Serif" font-size="10.00">calculate_pid</text>
</a>
</g>
</g>
<!-- Node1&#45;&gt;Node2 -->
<g id="edge1" class="edge">
<title>Node1&#45;&gt;Node2</title>
<path fill="none" stroke="#63b8ff" d="M88.53,-56.42C107.22,-61.1 129.67,-66.74 149.26,-71.65"/>
<polygon fill="#63b8ff" stroke="#63b8ff" points="148.38,-75.04 158.93,-74.08 150.09,-68.25 148.38,-75.04"/>
</g>
<!-- Node3 -->
<g id="node3" class="node">
<title>Node3</title>
<g id="a_node3"><a xlink:href="magnetometer_8c.html#a3bee957bff548f4b97b55732f67f1668" target="_top" xlink:title="Gets the current bearing of the magnetometer sensor.">
<polygon fill="white" stroke="#666666" points="263,-56 132,-56 132,-37 263,-37 263,-56"/>
<text text-anchor="middle" x="197.5" y="-44" font-family="Helvetica,sans-Serif" font-size="10.00">magneto_get_curr_bearing</text>
</a>
</g>
</g>
<!-- Node1&#45;&gt;Node3 -->
<g id="edge2" class="edge">
<title>Node1&#45;&gt;Node3</title>
<path fill="none" stroke="#63b8ff" d="M96.48,-46.5C104.09,-46.5 112.14,-46.5 120.22,-46.5"/>
<polygon fill="#63b8ff" stroke="#63b8ff" points="120.12,-50 130.12,-46.5 120.12,-43 120.12,-50"/>
</g>
<!-- Node4 -->
<g id="node4" class="node">
<title>Node4</title>
<g id="a_node4"><a xlink:href="motor__control_8c.html#a33e4c9d262504d95b4a6e42419462de6" target="_top" xlink:title="Update the ratio of the left motor&#39;s duty cycle to the right motor&#39;s duty cycle.">
<polygon fill="white" stroke="#666666" points="247.5,-19 147.5,-19 147.5,0 247.5,0 247.5,-19"/>
<text text-anchor="middle" x="197.5" y="-7" font-family="Helvetica,sans-Serif" font-size="10.00">motor_update_ratio</text>
</a>
</g>
</g>
<!-- Node1&#45;&gt;Node4 -->
<g id="edge3" class="edge">
<title>Node1&#45;&gt;Node4</title>
<path fill="none" stroke="#63b8ff" d="M88.53,-36.58C106.14,-32.17 127.09,-26.91 145.83,-22.21"/>
<polygon fill="#63b8ff" stroke="#63b8ff" points="146.55,-25.64 155.4,-19.81 144.84,-18.85 146.55,-25.64"/>
</g>
</g>
</svg>
