<?xml version="1.0" encoding="UTF-8" standalone="no"?>
<!DOCTYPE svg PUBLIC "-//W3C//DTD SVG 1.1//EN"
 "http://www.w3.org/Graphics/SVG/1.1/DTD/svg11.dtd">
<!-- Generated by graphviz version 7.0.5 (20221223.1930)
 -->
<!-- Title: src/drivers/pid/pid.c Pages: 1 -->
<svg width="421pt" height="192pt"
 viewBox="0.00 0.00 421.08 192.00" xmlns="http://www.w3.org/2000/svg" xmlns:xlink="http://www.w3.org/1999/xlink">
<g id="graph0" class="graph" transform="scale(1 1) rotate(0) translate(4 188)">
<title>src/drivers/pid/pid.c</title>
<!-- Node1 -->
<g id="node1" class="node">
<title>Node1</title>
<g id="a_node1"><a xlink:title=" ">
<polygon fill="#999999" stroke="#666666" points="255.58,-184 154.58,-184 154.58,-165 255.58,-165 255.58,-184"/>
<text text-anchor="middle" x="205.08" y="-172" font-family="Helvetica,sans-Serif" font-size="10.00">src/drivers/pid/pid.c</text>
</a>
</g>
</g>
<!-- Node2 -->
<g id="node2" class="node">
<title>Node2</title>
<g id="a_node2"><a xlink:href="motor__control_8h.html" target="_top" xlink:title="Header file for motor control drivers.">
<polygon fill="white" stroke="#666666" points="117.58,-129 6.58,-129 6.58,-110 117.58,-110 117.58,-129"/>
<text text-anchor="middle" x="62.08" y="-117" font-family="Helvetica,sans-Serif" font-size="10.00">motor/motor_control.h</text>
</a>
</g>
</g>
<!-- Node1&#45;&gt;Node2 -->
<g id="edge1" class="edge">
<title>Node1&#45;&gt;Node2</title>
<path fill="none" stroke="#63b8ff" d="M180.82,-164.51C157.67,-155.93 122.56,-142.92 96.52,-133.27"/>
<polygon fill="#63b8ff" stroke="#63b8ff" points="97.99,-130.08 87.39,-129.88 95.55,-136.64 97.99,-130.08"/>
</g>
<!-- Node6 -->
<g id="node6" class="node">
<title>Node6</title>
<g id="a_node6"><a xlink:href="pid_8h.html" target="_top" xlink:title=" ">
<polygon fill="white" stroke="#666666" points="204.58,-129 151.58,-129 151.58,-110 204.58,-110 204.58,-129"/>
<text text-anchor="middle" x="178.08" y="-117" font-family="Helvetica,sans-Serif" font-size="10.00">pid/pid.h</text>
</a>
</g>
</g>
<!-- Node1&#45;&gt;Node6 -->
<g id="edge5" class="edge">
<title>Node1&#45;&gt;Node6</title>
<path fill="none" stroke="#63b8ff" d="M200.62,-164.75C197.12,-157.88 192.13,-148.08 187.73,-139.45"/>
<polygon fill="#63b8ff" stroke="#63b8ff" points="190.98,-138.11 183.32,-130.79 184.74,-141.29 190.98,-138.11"/>
</g>
<!-- Node7 -->
<g id="node7" class="node">
<title>Node7</title>
<g id="a_node7"><a xlink:href="maze_8h.html" target="_top" xlink:title="Header file for the maze data structure and public functions.">
<polygon fill="white" stroke="#666666" points="281.58,-74 184.58,-74 184.58,-55 281.58,-55 281.58,-74"/>
<text text-anchor="middle" x="233.08" y="-62" font-family="Helvetica,sans-Serif" font-size="10.00">pathfinding/maze.h</text>
</a>
</g>
</g>
<!-- Node1&#45;&gt;Node7 -->
<g id="edge10" class="edge">
<title>Node1&#45;&gt;Node7</title>
<path fill="none" stroke="#63b8ff" d="M207.37,-164.66C211.82,-147.5 221.73,-109.26 227.87,-85.6"/>
<polygon fill="#63b8ff" stroke="#63b8ff" points="231.25,-86.48 230.37,-75.93 224.47,-84.73 231.25,-86.48"/>
</g>
<!-- Node9 -->
<g id="node9" class="node">
<title>Node9</title>
<g id="a_node9"><a xlink:href="magnetometer_8h.html" target="_top" xlink:title="Header file for the magnetometer driver.">
<polygon fill="white" stroke="#666666" points="413.08,-129 261.08,-129 261.08,-110 413.08,-110 413.08,-129"/>
<text text-anchor="middle" x="337.08" y="-117" font-family="Helvetica,sans-Serif" font-size="10.00">magnetometer/magnetometer.h</text>
</a>
</g>
</g>
<!-- Node1&#45;&gt;Node9 -->
<g id="edge9" class="edge">
<title>Node1&#45;&gt;Node9</title>
<path fill="none" stroke="#63b8ff" d="M227.47,-164.51C248.64,-156.01 280.66,-143.15 304.63,-133.53"/>
<polygon fill="#63b8ff" stroke="#63b8ff" points="305.63,-136.9 313.61,-129.92 303.03,-130.4 305.63,-136.9"/>
</g>
<!-- Node3 -->
<g id="node3" class="node">
<title>Node3</title>
<g id="a_node3"><a xlink:title=" ">
<polygon fill="#e0e0e0" stroke="#999999" points="102.08,-19 46.08,-19 46.08,0 102.08,0 102.08,-19"/>
<text text-anchor="middle" x="74.08" y="-7" font-family="Helvetica,sans-Serif" font-size="10.00">stdbool.h</text>
</a>
</g>
</g>
<!-- Node2&#45;&gt;Node3 -->
<g id="edge2" class="edge">
<title>Node2&#45;&gt;Node3</title>
<path fill="none" stroke="#63b8ff" d="M42.76,-109.59C21.13,-98.28 -9.38,-77.51 3.08,-55 10.65,-41.31 24.4,-31.26 37.79,-24.22"/>
<polygon fill="#63b8ff" stroke="#63b8ff" points="38.98,-27.53 46.49,-20.06 35.96,-21.22 38.98,-27.53"/>
</g>
<!-- Node4 -->
<g id="node4" class="node">
<title>Node4</title>
<g id="a_node4"><a xlink:title=" ">
<polygon fill="#e0e0e0" stroke="#999999" points="80.08,-74 12.08,-74 12.08,-55 80.08,-55 80.08,-74"/>
<text text-anchor="middle" x="46.08" y="-62" font-family="Helvetica,sans-Serif" font-size="10.00">pico/stdlib.h</text>
</a>
</g>
</g>
<!-- Node2&#45;&gt;Node4 -->
<g id="edge3" class="edge">
<title>Node2&#45;&gt;Node4</title>
<path fill="none" stroke="#63b8ff" d="M59.43,-109.75C57.43,-103.11 54.6,-93.73 52.06,-85.31"/>
<polygon fill="#63b8ff" stroke="#63b8ff" points="55.45,-84.45 49.21,-75.89 48.75,-86.48 55.45,-84.45"/>
</g>
<!-- Node5 -->
<g id="node5" class="node">
<title>Node5</title>
<g id="a_node5"><a xlink:title=" ">
<polygon fill="#e0e0e0" stroke="#999999" points="166.08,-74 98.08,-74 98.08,-55 166.08,-55 166.08,-74"/>
<text text-anchor="middle" x="132.08" y="-62" font-family="Helvetica,sans-Serif" font-size="10.00">pico/types.h</text>
</a>
</g>
</g>
<!-- Node2&#45;&gt;Node5 -->
<g id="edge4" class="edge">
<title>Node2&#45;&gt;Node5</title>
<path fill="none" stroke="#63b8ff" d="M73.95,-109.51C84.17,-101.77 99.15,-90.43 111.34,-81.2"/>
<polygon fill="#63b8ff" stroke="#63b8ff" points="113.31,-84.1 119.17,-75.27 109.08,-78.52 113.31,-84.1"/>
</g>
<!-- Node6&#45;&gt;Node7 -->
<g id="edge6" class="edge">
<title>Node6&#45;&gt;Node7</title>
<path fill="none" stroke="#63b8ff" d="M187.16,-109.75C194.91,-102.27 206.29,-91.32 215.77,-82.17"/>
<polygon fill="#63b8ff" stroke="#63b8ff" points="217.93,-84.95 222.71,-75.49 213.08,-79.91 217.93,-84.95"/>
</g>
<!-- Node7&#45;&gt;Node3 -->
<g id="edge8" class="edge">
<title>Node7&#45;&gt;Node3</title>
<path fill="none" stroke="#63b8ff" d="M206.1,-54.51C180.1,-45.84 140.52,-32.65 111.48,-22.97"/>
<polygon fill="#63b8ff" stroke="#63b8ff" points="112.94,-19.77 102.35,-19.92 110.73,-26.41 112.94,-19.77"/>
</g>
<!-- Node8 -->
<g id="node8" class="node">
<title>Node8</title>
<g id="a_node8"><a xlink:title=" ">
<polygon fill="#e0e0e0" stroke="#999999" points="257.08,-19 209.08,-19 209.08,0 257.08,0 257.08,-19"/>
<text text-anchor="middle" x="233.08" y="-7" font-family="Helvetica,sans-Serif" font-size="10.00">stdint.h</text>
</a>
</g>
</g>
<!-- Node7&#45;&gt;Node8 -->
<g id="edge7" class="edge">
<title>Node7&#45;&gt;Node8</title>
<path fill="none" stroke="#63b8ff" d="M233.08,-54.75C233.08,-48.27 233.08,-39.16 233.08,-30.9"/>
<polygon fill="#63b8ff" stroke="#63b8ff" points="236.58,-30.96 233.08,-20.96 229.58,-30.96 236.58,-30.96"/>
</g>
</g>
</svg>
