<?xml version="1.0" encoding="UTF-8" standalone="no"?>
<!DOCTYPE svg PUBLIC "-//W3C//DTD SVG 1.1//EN"
 "http://www.w3.org/Graphics/SVG/1.1/DTD/svg11.dtd">
<!-- Generated by graphviz version 7.0.5 (20221223.1930)
 -->
<!-- Title: navigate_car_turn Pages: 1 -->
<svg width="400pt" height="138pt"
 viewBox="0.00 0.00 400.00 138.00" xmlns="http://www.w3.org/2000/svg" xmlns:xlink="http://www.w3.org/1999/xlink">
<g id="graph0" class="graph" transform="scale(1 1) rotate(0) translate(4 134)">
<title>navigate_car_turn</title>
<!-- Node1 -->
<g id="node1" class="node">
<title>Node1</title>
<g id="a_node1"><a xlink:title="Function to turn the car and move in a given direction.">
<polygon fill="#999999" stroke="#666666" points="94,-74 0,-74 0,-55 94,-55 94,-74"/>
<text text-anchor="middle" x="47" y="-62" font-family="Helvetica,sans-Serif" font-size="10.00">navigate_car_turn</text>
</a>
</g>
</g>
<!-- Node2 -->
<g id="node2" class="node">
<title>Node2</title>
<g id="a_node2"><a xlink:href="pid_8c.html#acb5f8fde344a9de8b942207909ae46f8" target="_top" xlink:title="Sets up pid struct(s).">
<polygon fill="white" stroke="#666666" points="225.5,-130 142.5,-130 142.5,-111 225.5,-111 225.5,-130"/>
<text text-anchor="middle" x="184" y="-118" font-family="Helvetica,sans-Serif" font-size="10.00">init_pid_structs</text>
</a>
</g>
</g>
<!-- Node1&#45;&gt;Node2 -->
<g id="edge1" class="edge">
<title>Node1&#45;&gt;Node2</title>
<path fill="none" stroke="#63b8ff" d="M67.96,-74.48C84.4,-82.52 108.44,-93.87 130,-102.5 133.63,-103.95 137.43,-105.39 141.25,-106.79"/>
<polygon fill="#63b8ff" stroke="#63b8ff" points="139.95,-110.04 150.54,-110.07 142.28,-103.44 139.95,-110.04"/>
</g>
<!-- Node3 -->
<g id="node3" class="node">
<title>Node3</title>
<g id="a_node3"><a xlink:href="motor__control_8c.html#a793a32f3a145d0efad56a327d7b2f33b" target="_top" xlink:title="A function to move the car forward.">
<polygon fill="white" stroke="#666666" points="238,-93 130,-93 130,-74 238,-74 238,-93"/>
<text text-anchor="middle" x="184" y="-81" font-family="Helvetica,sans-Serif" font-size="10.00">motor_move_forward</text>
</a>
</g>
</g>
<!-- Node1&#45;&gt;Node3 -->
<g id="edge2" class="edge">
<title>Node1&#45;&gt;Node3</title>
<path fill="none" stroke="#63b8ff" d="M94.46,-71.04C102.32,-72.15 110.61,-73.31 118.84,-74.47"/>
<polygon fill="#63b8ff" stroke="#63b8ff" points="118.07,-77.9 128.46,-75.82 119.05,-70.96 118.07,-77.9"/>
</g>
<!-- Node6 -->
<g id="node6" class="node">
<title>Node6</title>
<g id="a_node6"><a xlink:href="motor__control_8c.html#a24063f2aae5b4a3eb6b33dc2eea150dd" target="_top" xlink:title="A function to turn the car left.">
<polygon fill="white" stroke="#666666" points="225,-56 143,-56 143,-37 225,-37 225,-56"/>
<text text-anchor="middle" x="184" y="-44" font-family="Helvetica,sans-Serif" font-size="10.00">motor_turn_left</text>
</a>
</g>
</g>
<!-- Node1&#45;&gt;Node6 -->
<g id="edge5" class="edge">
<title>Node1&#45;&gt;Node6</title>
<path fill="none" stroke="#63b8ff" d="M94.46,-58.31C106.37,-56.72 119.24,-55 131.39,-53.38"/>
<polygon fill="#63b8ff" stroke="#63b8ff" points="131.81,-56.86 141.26,-52.07 130.89,-49.92 131.81,-56.86"/>
</g>
<!-- Node7 -->
<g id="node7" class="node">
<title>Node7</title>
<g id="a_node7"><a xlink:href="motor__control_8c.html#a63c73ae82a6d47bc620608fc752b83f9" target="_top" xlink:title="A function to turn the car right.">
<polygon fill="white" stroke="#666666" points="227.5,-19 140.5,-19 140.5,0 227.5,0 227.5,-19"/>
<text text-anchor="middle" x="184" y="-7" font-family="Helvetica,sans-Serif" font-size="10.00">motor_turn_right</text>
</a>
</g>
</g>
<!-- Node1&#45;&gt;Node7 -->
<g id="edge8" class="edge">
<title>Node1&#45;&gt;Node7</title>
<path fill="none" stroke="#63b8ff" d="M69.41,-54.61C85.85,-47.14 109.2,-36.78 130,-28.5 134.34,-26.77 138.91,-25.03 143.47,-23.33"/>
<polygon fill="#63b8ff" stroke="#63b8ff" points="144.37,-26.73 152.56,-20.01 141.97,-20.15 144.37,-26.73"/>
</g>
<!-- Node4 -->
<g id="node4" class="node">
<title>Node4</title>
<g id="a_node4"><a xlink:href="motor__control_8c.html#a3dc0491deae0e443306e8695d7879daf" target="_top" xlink:title="A function to update the direction of the motor&#39;s rotation.">
<polygon fill="white" stroke="#666666" points="392,-74 274,-74 274,-55 392,-55 392,-74"/>
<text text-anchor="middle" x="333" y="-62" font-family="Helvetica,sans-Serif" font-size="10.00">motor_update_direction</text>
</a>
</g>
</g>
<!-- Node3&#45;&gt;Node4 -->
<g id="edge3" class="edge">
<title>Node3&#45;&gt;Node4</title>
<path fill="none" stroke="#63b8ff" d="M238.49,-76.59C246.24,-75.58 254.32,-74.54 262.34,-73.5"/>
<polygon fill="#63b8ff" stroke="#63b8ff" points="262.62,-77 272.09,-72.24 261.72,-70.05 262.62,-77"/>
</g>
<!-- Node5 -->
<g id="node5" class="node">
<title>Node5</title>
<g id="a_node5"><a xlink:href="motor__control_8c.html#a38f59b6b48b6a4d0dd583eef8719e1a3" target="_top" xlink:title="A function to update the PWM duty cycle and wrap value.">
<polygon fill="white" stroke="#666666" points="384,-37 282,-37 282,-18 384,-18 384,-37"/>
<text text-anchor="middle" x="333" y="-25" font-family="Helvetica,sans-Serif" font-size="10.00">motor_update_pwm</text>
</a>
</g>
</g>
<!-- Node3&#45;&gt;Node5 -->
<g id="edge4" class="edge">
<title>Node3&#45;&gt;Node5</title>
<path fill="none" stroke="#63b8ff" d="M216.98,-73.55C223.98,-71.12 231.31,-68.38 238,-65.5 254.62,-58.35 257.34,-53.56 274,-46.5 278.39,-44.64 283.03,-42.84 287.69,-41.15"/>
<polygon fill="#63b8ff" stroke="#63b8ff" points="288.78,-44.48 297.09,-37.9 286.49,-37.86 288.78,-44.48"/>
</g>
<!-- Node6&#45;&gt;Node4 -->
<g id="edge6" class="edge">
<title>Node6&#45;&gt;Node4</title>
<path fill="none" stroke="#63b8ff" d="M225.17,-51.42C236.74,-52.84 249.71,-54.42 262.52,-55.99"/>
<polygon fill="#63b8ff" stroke="#63b8ff" points="261.84,-59.43 272.19,-57.18 262.69,-52.49 261.84,-59.43"/>
</g>
<!-- Node6&#45;&gt;Node5 -->
<g id="edge7" class="edge">
<title>Node6&#45;&gt;Node5</title>
<path fill="none" stroke="#63b8ff" d="M225.17,-41.31C239.19,-39.5 255.27,-37.42 270.62,-35.43"/>
<polygon fill="#63b8ff" stroke="#63b8ff" points="270.66,-38.96 280.13,-34.2 269.76,-32.02 270.66,-38.96"/>
</g>
<!-- Node7&#45;&gt;Node4 -->
<g id="edge9" class="edge">
<title>Node7&#45;&gt;Node4</title>
<path fill="none" stroke="#63b8ff" d="M214.68,-19.43C222.35,-22.19 230.54,-25.31 238,-28.5 254.45,-35.53 257.4,-39.83 274,-46.5 277.85,-48.05 281.88,-49.54 285.95,-50.97"/>
<polygon fill="#63b8ff" stroke="#63b8ff" points="284.68,-54.23 295.28,-54.08 286.9,-47.59 284.68,-54.23"/>
</g>
<!-- Node7&#45;&gt;Node5 -->
<g id="edge10" class="edge">
<title>Node7&#45;&gt;Node5</title>
<path fill="none" stroke="#63b8ff" d="M227.91,-14.75C241.15,-16.38 256.01,-18.19 270.25,-19.94"/>
<polygon fill="#63b8ff" stroke="#63b8ff" points="269.65,-23.39 280,-21.13 270.5,-16.44 269.65,-23.39"/>
</g>
</g>
</svg>
