<?xml version="1.0" encoding="UTF-8" standalone="no"?>
<!DOCTYPE svg PUBLIC "-//W3C//DTD SVG 1.1//EN"
 "http://www.w3.org/Graphics/SVG/1.1/DTD/svg11.dtd">
<!-- Generated by graphviz version 7.0.5 (20221223.1930)
 -->
<!-- Title: maze_navigator_state Pages: 1 -->
<svg width="134pt" height="203pt"
 viewBox="0.00 0.00 134.00 203.00" xmlns="http://www.w3.org/2000/svg" xmlns:xlink="http://www.w3.org/1999/xlink">
<g id="graph0" class="graph" transform="scale(1 1) rotate(0) translate(4 199)">
<title>maze_navigator_state</title>
<!-- Node1 -->
<g id="node1" class="node">
<title>Node1</title>
<g id="a_node1"><a xlink:title=" ">
<polygon fill="#999999" stroke="#666666" points="112,-19 0,-19 0,0 112,0 112,-19"/>
<text text-anchor="middle" x="56" y="-7" font-family="Helvetica,sans-Serif" font-size="10.00">maze_navigator_state</text>
</a>
</g>
</g>
<!-- Node2 -->
<g id="node2" class="node">
<title>Node2</title>
<g id="a_node2"><a xlink:href="structmaze__grid__cell.html" target="_top" xlink:title=" ">
<polygon fill="white" stroke="#bfbfbf" points="96.5,-107 15.5,-107 15.5,-88 96.5,-88 96.5,-107"/>
<text text-anchor="middle" x="56" y="-95" font-family="Helvetica,sans-Serif" font-size="10.00">maze_grid_cell</text>
</a>
</g>
</g>
<!-- Node2&#45;&gt;Node1 -->
<g id="edge1" class="edge">
<title>Node2&#45;&gt;Node1</title>
<path fill="none" stroke="#9a32cd" stroke-dasharray="5,2" d="M56,-76.37C56,-58.37 56,-32.83 56,-19.46"/>
<polygon fill="#9a32cd" stroke="#9a32cd" points="52.5,-76.11 56,-86.11 59.5,-76.11 52.5,-76.11"/>
<text text-anchor="middle" x="91" y="-62" font-family="Helvetica,sans-Serif" font-size="10.00"> p_current_node</text>
<text text-anchor="middle" x="91" y="-51" font-family="Helvetica,sans-Serif" font-size="10.00">p_end_node</text>
<text text-anchor="middle" x="91" y="-40" font-family="Helvetica,sans-Serif" font-size="10.00">p_start_node</text>
</g>
<!-- Node3 -->
<g id="node3" class="node">
<title>Node3</title>
<g id="a_node3"><a xlink:title=" ">
<polygon fill="white" stroke="#bfbfbf" points="76.5,-195 35.5,-195 35.5,-176 76.5,-176 76.5,-195"/>
<text text-anchor="middle" x="56" y="-183" font-family="Helvetica,sans-Serif" font-size="10.00">struct</text>
</a>
</g>
</g>
<!-- Node3&#45;&gt;Node2 -->
<g id="edge2" class="edge">
<title>Node3&#45;&gt;Node2</title>
<path fill="none" stroke="#9a32cd" stroke-dasharray="5,2" d="M56,-164.37C56,-146.37 56,-120.83 56,-107.46"/>
<polygon fill="#9a32cd" stroke="#9a32cd" points="52.5,-164.11 56,-174.11 59.5,-164.11 52.5,-164.11"/>
<text text-anchor="middle" x="86" y="-150" font-family="Helvetica,sans-Serif" font-size="10.00"> coordinates</text>
<text text-anchor="middle" x="86" y="-139" font-family="Helvetica,sans-Serif" font-size="10.00">p_came_from</text>
<text text-anchor="middle" x="86" y="-128" font-family="Helvetica,sans-Serif" font-size="10.00">p_next</text>
</g>
</g>
</svg>
