<?xml version="1.0" encoding="UTF-8" standalone="no"?>
<!DOCTYPE svg PUBLIC "-//W3C//DTD SVG 1.1//EN"
 "http://www.w3.org/Graphics/SVG/1.1/DTD/svg11.dtd">
<!-- Generated by graphviz version 7.0.5 (20221223.1930)
 -->
<!-- Title: binary_heap Pages: 1 -->
<svg width="119pt" height="247pt"
 viewBox="0.00 0.00 118.50 247.00" xmlns="http://www.w3.org/2000/svg" xmlns:xlink="http://www.w3.org/1999/xlink">
<g id="graph0" class="graph" transform="scale(1 1) rotate(0) translate(4 243)">
<title>binary_heap</title>
<!-- Node1 -->
<g id="node1" class="node">
<title>Node1</title>
<g id="a_node1"><a xlink:title="Struct containing the binary heap.">
<polygon fill="#999999" stroke="#666666" points="81.5,-19 13.5,-19 13.5,0 81.5,0 81.5,-19"/>
<text text-anchor="middle" x="47.5" y="-7" font-family="Helvetica,sans-Serif" font-size="10.00">binary_heap</text>
</a>
</g>
</g>
<!-- Node2 -->
<g id="node2" class="node">
<title>Node2</title>
<g id="a_node2"><a xlink:href="structbinary__heap__node.html" target="_top" xlink:title="This struct contains basic information about a node in a priority queue implemented with a binary hea...">
<polygon fill="white" stroke="#666666" points="95,-85 0,-85 0,-66 95,-66 95,-85"/>
<text text-anchor="middle" x="47.5" y="-73" font-family="Helvetica,sans-Serif" font-size="10.00">binary_heap_node</text>
</a>
</g>
</g>
<!-- Node2&#45;&gt;Node1 -->
<g id="edge1" class="edge">
<title>Node2&#45;&gt;Node1</title>
<path fill="none" stroke="#9a32cd" stroke-dasharray="5,2" d="M47.5,-54.18C47.5,-42.44 47.5,-28.27 47.5,-19.32"/>
<polygon fill="#9a32cd" stroke="#9a32cd" points="44,-54.09 47.5,-64.09 51,-54.09 44,-54.09"/>
<text text-anchor="middle" x="64.5" y="-40" font-family="Helvetica,sans-Serif" font-size="10.00"> p_array</text>
</g>
<!-- Node3 -->
<g id="node3" class="node">
<title>Node3</title>
<g id="a_node3"><a xlink:href="structmaze__grid__cell.html" target="_top" xlink:title="This struct contains the node information.">
<polygon fill="white" stroke="#666666" points="88,-151 7,-151 7,-132 88,-132 88,-151"/>
<text text-anchor="middle" x="47.5" y="-139" font-family="Helvetica,sans-Serif" font-size="10.00">maze_grid_cell</text>
</a>
</g>
</g>
<!-- Node3&#45;&gt;Node2 -->
<g id="edge2" class="edge">
<title>Node3&#45;&gt;Node2</title>
<path fill="none" stroke="#9a32cd" stroke-dasharray="5,2" d="M47.5,-120.18C47.5,-108.44 47.5,-94.27 47.5,-85.32"/>
<polygon fill="#9a32cd" stroke="#9a32cd" points="44,-120.09 47.5,-130.09 51,-120.09 44,-120.09"/>
<text text-anchor="middle" x="79" y="-106" font-family="Helvetica,sans-Serif" font-size="10.00"> p_maze_node</text>
</g>
<!-- Node4 -->
<g id="node4" class="node">
<title>Node4</title>
<g id="a_node4"><a xlink:title=" ">
<polygon fill="white" stroke="#bfbfbf" points="68,-239 27,-239 27,-220 68,-220 68,-239"/>
<text text-anchor="middle" x="47.5" y="-227" font-family="Helvetica,sans-Serif" font-size="10.00">struct</text>
</a>
</g>
</g>
<!-- Node4&#45;&gt;Node3 -->
<g id="edge3" class="edge">
<title>Node4&#45;&gt;Node3</title>
<path fill="none" stroke="#9a32cd" stroke-dasharray="5,2" d="M47.5,-208.37C47.5,-190.37 47.5,-164.83 47.5,-151.46"/>
<polygon fill="#9a32cd" stroke="#9a32cd" points="44,-208.11 47.5,-218.11 51,-208.11 44,-208.11"/>
<text text-anchor="middle" x="77.5" y="-194" font-family="Helvetica,sans-Serif" font-size="10.00"> coordinates</text>
<text text-anchor="middle" x="77.5" y="-183" font-family="Helvetica,sans-Serif" font-size="10.00">p_came_from</text>
<text text-anchor="middle" x="77.5" y="-172" font-family="Helvetica,sans-Serif" font-size="10.00">p_next</text>
</g>
</g>
</svg>
