<?xml version="1.0" encoding="UTF-8" standalone="no"?>
<!DOCTYPE svg PUBLIC "-//W3C//DTD SVG 1.1//EN"
 "http://www.w3.org/Graphics/SVG/1.1/DTD/svg11.dtd">
<!-- Generated by graphviz version 7.0.5 (20221223.1930)
 -->
<!-- Title: binary_heap_node Pages: 1 -->
<svg width="119pt" height="181pt"
 viewBox="0.00 0.00 118.50 181.00" xmlns="http://www.w3.org/2000/svg" xmlns:xlink="http://www.w3.org/1999/xlink">
<g id="graph0" class="graph" transform="scale(1 1) rotate(0) translate(4 177)">
<title>binary_heap_node</title>
<!-- Node1 -->
<g id="node1" class="node">
<title>Node1</title>
<g id="a_node1"><a xlink:title="This struct contains basic information about a node in a priority queue implemented with a binary hea...">
<polygon fill="#999999" stroke="#666666" points="95,-19 0,-19 0,0 95,0 95,-19"/>
<text text-anchor="middle" x="47.5" y="-7" font-family="Helvetica,sans-Serif" font-size="10.00">binary_heap_node</text>
</a>
</g>
</g>
<!-- Node2 -->
<g id="node2" class="node">
<title>Node2</title>
<g id="a_node2"><a xlink:href="structmaze__grid__cell.html" target="_top" xlink:title="This struct contains the node information.">
<polygon fill="white" stroke="#666666" points="88,-85 7,-85 7,-66 88,-66 88,-85"/>
<text text-anchor="middle" x="47.5" y="-73" font-family="Helvetica,sans-Serif" font-size="10.00">maze_grid_cell</text>
</a>
</g>
</g>
<!-- Node2&#45;&gt;Node1 -->
<g id="edge1" class="edge">
<title>Node2&#45;&gt;Node1</title>
<path fill="none" stroke="#9a32cd" stroke-dasharray="5,2" d="M47.5,-54.18C47.5,-42.44 47.5,-28.27 47.5,-19.32"/>
<polygon fill="#9a32cd" stroke="#9a32cd" points="44,-54.09 47.5,-64.09 51,-54.09 44,-54.09"/>
<text text-anchor="middle" x="79" y="-40" font-family="Helvetica,sans-Serif" font-size="10.00"> p_maze_node</text>
</g>
<!-- Node3 -->
<g id="node3" class="node">
<title>Node3</title>
<g id="a_node3"><a xlink:title=" ">
<polygon fill="white" stroke="#bfbfbf" points="68,-173 27,-173 27,-154 68,-154 68,-173"/>
<text text-anchor="middle" x="47.5" y="-161" font-family="Helvetica,sans-Serif" font-size="10.00">struct</text>
</a>
</g>
</g>
<!-- Node3&#45;&gt;Node2 -->
<g id="edge2" class="edge">
<title>Node3&#45;&gt;Node2</title>
<path fill="none" stroke="#9a32cd" stroke-dasharray="5,2" d="M47.5,-142.37C47.5,-124.37 47.5,-98.83 47.5,-85.46"/>
<polygon fill="#9a32cd" stroke="#9a32cd" points="44,-142.11 47.5,-152.11 51,-142.11 44,-142.11"/>
<text text-anchor="middle" x="77.5" y="-128" font-family="Helvetica,sans-Serif" font-size="10.00"> coordinates</text>
<text text-anchor="middle" x="77.5" y="-117" font-family="Helvetica,sans-Serif" font-size="10.00">p_came_from</text>
<text text-anchor="middle" x="77.5" y="-106" font-family="Helvetica,sans-Serif" font-size="10.00">p_next</text>
</g>
</g>
</svg>
