<?xml version="1.0" encoding="UTF-8" standalone="no"?>
<!DOCTYPE svg PUBLIC "-//W3C//DTD SVG 1.1//EN"
 "http://www.w3.org/Graphics/SVG/1.1/DTD/svg11.dtd">
<!-- Generated by graphviz version 7.0.5 (20221223.1930)
 -->
<!-- Title: maze_grid Pages: 1 -->
<svg width="109pt" height="181pt"
 viewBox="0.00 0.00 108.50 181.00" xmlns="http://www.w3.org/2000/svg" xmlns:xlink="http://www.w3.org/1999/xlink">
<g id="graph0" class="graph" transform="scale(1 1) rotate(0) translate(4 177)">
<title>maze_grid</title>
<!-- Node1 -->
<g id="node1" class="node">
<title>Node1</title>
<g id="a_node1"><a xlink:title="This struct contains the maze grid information.">
<polygon fill="#999999" stroke="#666666" points="71,-19 10,-19 10,0 71,0 71,-19"/>
<text text-anchor="middle" x="40.5" y="-7" font-family="Helvetica,sans-Serif" font-size="10.00">maze_grid</text>
</a>
</g>
</g>
<!-- Node2 -->
<g id="node2" class="node">
<title>Node2</title>
<g id="a_node2"><a xlink:href="structmaze__grid__cell.html" target="_top" xlink:title="This struct contains the node information.">
<polygon fill="white" stroke="#666666" points="81,-85 0,-85 0,-66 81,-66 81,-85"/>
<text text-anchor="middle" x="40.5" y="-73" font-family="Helvetica,sans-Serif" font-size="10.00">maze_grid_cell</text>
</a>
</g>
</g>
<!-- Node2&#45;&gt;Node1 -->
<g id="edge1" class="edge">
<title>Node2&#45;&gt;Node1</title>
<path fill="none" stroke="#9a32cd" stroke-dasharray="5,2" d="M40.5,-54.18C40.5,-42.44 40.5,-28.27 40.5,-19.32"/>
<polygon fill="#9a32cd" stroke="#9a32cd" points="37,-54.09 40.5,-64.09 44,-54.09 37,-54.09"/>
<text text-anchor="middle" x="68" y="-40" font-family="Helvetica,sans-Serif" font-size="10.00"> p_grid_array</text>
</g>
<!-- Node3 -->
<g id="node3" class="node">
<title>Node3</title>
<g id="a_node3"><a xlink:title=" ">
<polygon fill="white" stroke="#bfbfbf" points="61,-173 20,-173 20,-154 61,-154 61,-173"/>
<text text-anchor="middle" x="40.5" y="-161" font-family="Helvetica,sans-Serif" font-size="10.00">struct</text>
</a>
</g>
</g>
<!-- Node3&#45;&gt;Node2 -->
<g id="edge2" class="edge">
<title>Node3&#45;&gt;Node2</title>
<path fill="none" stroke="#9a32cd" stroke-dasharray="5,2" d="M40.5,-142.37C40.5,-124.37 40.5,-98.83 40.5,-85.46"/>
<polygon fill="#9a32cd" stroke="#9a32cd" points="37,-142.11 40.5,-152.11 44,-142.11 37,-142.11"/>
<text text-anchor="middle" x="70.5" y="-128" font-family="Helvetica,sans-Serif" font-size="10.00"> coordinates</text>
<text text-anchor="middle" x="70.5" y="-117" font-family="Helvetica,sans-Serif" font-size="10.00">p_came_from</text>
<text text-anchor="middle" x="70.5" y="-106" font-family="Helvetica,sans-Serif" font-size="10.00">p_next</text>
</g>
</g>
</svg>
