<?xml version="1.0" encoding="UTF-8" standalone="no"?>
<!DOCTYPE svg PUBLIC "-//W3C//DTD SVG 1.1//EN"
 "http://www.w3.org/Graphics/SVG/1.1/DTD/svg11.dtd">
<!-- Generated by graphviz version 7.0.5 (20221223.1930)
 -->
<!-- Title: src/drivers/ultrasonic/ultrasonic.c Pages: 1 -->
<svg width="615pt" height="93pt"
 viewBox="0.00 0.00 614.50 93.00" xmlns="http://www.w3.org/2000/svg" xmlns:xlink="http://www.w3.org/1999/xlink">
<g id="graph0" class="graph" transform="scale(1 1) rotate(0) translate(4 89)">
<title>src/drivers/ultrasonic/ultrasonic.c</title>
<!-- Node1 -->
<g id="node1" class="node">
<title>Node1</title>
<g id="a_node1"><a xlink:title="Driver code for the ultrasonic sensor.">
<polygon fill="#999999" stroke="#666666" points="309.5,-85 202.5,-85 202.5,-55 309.5,-55 309.5,-85"/>
<text text-anchor="start" x="210.5" y="-73" font-family="Helvetica,sans-Serif" font-size="10.00">src/drivers/ultrasonic</text>
<text text-anchor="middle" x="256" y="-62" font-family="Helvetica,sans-Serif" font-size="10.00">/ultrasonic.c</text>
</a>
</g>
</g>
<!-- Node2 -->
<g id="node2" class="node">
<title>Node2</title>
<g id="a_node2"><a xlink:title=" ">
<polygon fill="#e0e0e0" stroke="#999999" points="56,-19 0,-19 0,0 56,0 56,-19"/>
<text text-anchor="middle" x="28" y="-7" font-family="Helvetica,sans-Serif" font-size="10.00">stdbool.h</text>
</a>
</g>
</g>
<!-- Node1&#45;&gt;Node2 -->
<g id="edge1" class="edge">
<title>Node1&#45;&gt;Node2</title>
<path fill="none" stroke="#63b8ff" d="M202.26,-55.21C160.85,-44.59 104.57,-30.15 67.31,-20.59"/>
<polygon fill="#63b8ff" stroke="#63b8ff" points="68.42,-17.26 57.86,-18.16 66.68,-24.04 68.42,-17.26"/>
</g>
<!-- Node3 -->
<g id="node3" class="node">
<title>Node3</title>
<g id="a_node3"><a xlink:title=" ">
<polygon fill="#e0e0e0" stroke="#999999" points="122,-19 74,-19 74,0 122,0 122,-19"/>
<text text-anchor="middle" x="98" y="-7" font-family="Helvetica,sans-Serif" font-size="10.00">stdint.h</text>
</a>
</g>
</g>
<!-- Node1&#45;&gt;Node3 -->
<g id="edge2" class="edge">
<title>Node1&#45;&gt;Node3</title>
<path fill="none" stroke="#63b8ff" d="M216.94,-54.54C191.11,-44.97 157.54,-32.55 132.66,-23.33"/>
<polygon fill="#63b8ff" stroke="#63b8ff" points="133.9,-20.06 123.31,-19.87 131.47,-26.63 133.9,-20.06"/>
</g>
<!-- Node4 -->
<g id="node4" class="node">
<title>Node4</title>
<g id="a_node4"><a xlink:title=" ">
<polygon fill="#e0e0e0" stroke="#999999" points="206,-19 140,-19 140,0 206,0 206,-19"/>
<text text-anchor="middle" x="173" y="-7" font-family="Helvetica,sans-Serif" font-size="10.00">sys/cdefs.h</text>
</a>
</g>
</g>
<!-- Node1&#45;&gt;Node4 -->
<g id="edge3" class="edge">
<title>Node1&#45;&gt;Node4</title>
<path fill="none" stroke="#63b8ff" d="M235.48,-54.54C223.06,-45.78 207.23,-34.63 194.61,-25.73"/>
<polygon fill="#63b8ff" stroke="#63b8ff" points="196.74,-22.95 186.55,-20.05 192.7,-28.67 196.74,-22.95"/>
</g>
<!-- Node5 -->
<g id="node5" class="node">
<title>Node5</title>
<g id="a_node5"><a xlink:title=" ">
<polygon fill="#e0e0e0" stroke="#999999" points="288,-19 224,-19 224,0 288,0 288,-19"/>
<text text-anchor="middle" x="256" y="-7" font-family="Helvetica,sans-Serif" font-size="10.00">pico/time.h</text>
</a>
</g>
</g>
<!-- Node1&#45;&gt;Node5 -->
<g id="edge4" class="edge">
<title>Node1&#45;&gt;Node5</title>
<path fill="none" stroke="#63b8ff" d="M256,-54.54C256,-47.34 256,-38.53 256,-30.68"/>
<polygon fill="#63b8ff" stroke="#63b8ff" points="259.5,-30.69 256,-20.69 252.5,-30.69 259.5,-30.69"/>
</g>
<!-- Node6 -->
<g id="node6" class="node">
<title>Node6</title>
<g id="a_node6"><a xlink:title=" ">
<polygon fill="#e0e0e0" stroke="#999999" points="374,-19 306,-19 306,0 374,0 374,-19"/>
<text text-anchor="middle" x="340" y="-7" font-family="Helvetica,sans-Serif" font-size="10.00">pico/types.h</text>
</a>
</g>
</g>
<!-- Node1&#45;&gt;Node6 -->
<g id="edge5" class="edge">
<title>Node1&#45;&gt;Node6</title>
<path fill="none" stroke="#63b8ff" d="M276.76,-54.54C289.34,-45.78 305.36,-34.63 318.13,-25.73"/>
<polygon fill="#63b8ff" stroke="#63b8ff" points="320.1,-28.63 326.3,-20.04 316.1,-22.88 320.1,-28.63"/>
</g>
<!-- Node7 -->
<g id="node7" class="node">
<title>Node7</title>
<g id="a_node7"><a xlink:title=" ">
<polygon fill="#e0e0e0" stroke="#999999" points="477.5,-19 392.5,-19 392.5,0 477.5,0 477.5,-19"/>
<text text-anchor="middle" x="435" y="-7" font-family="Helvetica,sans-Serif" font-size="10.00">hardware/gpio.h</text>
</a>
</g>
</g>
<!-- Node1&#45;&gt;Node7 -->
<g id="edge6" class="edge">
<title>Node1&#45;&gt;Node7</title>
<path fill="none" stroke="#63b8ff" d="M300.25,-54.54C329.95,-44.83 368.68,-32.17 396.99,-22.92"/>
<polygon fill="#63b8ff" stroke="#63b8ff" points="397.81,-26.34 406.23,-19.9 395.64,-19.68 397.81,-26.34"/>
</g>
<!-- Node8 -->
<g id="node8" class="node">
<title>Node8</title>
<g id="a_node8"><a xlink:href="ultrasonic_8h.html" target="_top" xlink:title="Header file for the ultrasonic sensor driver.">
<polygon fill="white" stroke="#666666" points="606.5,-19 495.5,-19 495.5,0 606.5,0 606.5,-19"/>
<text text-anchor="middle" x="551" y="-7" font-family="Helvetica,sans-Serif" font-size="10.00">ultrasonic/ultrasonic.h</text>
</a>
</g>
</g>
<!-- Node1&#45;&gt;Node8 -->
<g id="edge7" class="edge">
<title>Node1&#45;&gt;Node8</title>
<path fill="none" stroke="#63b8ff" d="M309.76,-58.34C362.1,-47.96 441.31,-32.25 494.54,-21.7"/>
<polygon fill="#63b8ff" stroke="#63b8ff" points="495.2,-25.13 504.33,-19.75 493.84,-18.27 495.2,-25.13"/>
</g>
</g>
</svg>
