<?xml version="1.0" encoding="UTF-8" standalone="no"?>
<!DOCTYPE svg PUBLIC "-//W3C//DTD SVG 1.1//EN"
 "http://www.w3.org/Graphics/SVG/1.1/DTD/svg11.dtd">
<!-- Generated by graphviz version 7.0.5 (20221223.1930)
 -->
<!-- Title: main/driver/ultrasonic/ultrasonic.h Pages: 1 -->
<svg width="334pt" height="104pt"
 viewBox="0.00 0.00 333.50 104.00" xmlns="http://www.w3.org/2000/svg" xmlns:xlink="http://www.w3.org/1999/xlink">
<g id="graph0" class="graph" transform="scale(1 1) rotate(0) translate(4 100)">
<title>main/driver/ultrasonic/ultrasonic.h</title>
<!-- Node1 -->
<g id="node1" class="node">
<title>Node1</title>
<g id="a_node1"><a xlink:title="Header file for the ultrasonic sensor driver.">
<polygon fill="#999999" stroke="#666666" points="238,-96 128,-96 128,-66 238,-66 238,-96"/>
<text text-anchor="start" x="136" y="-84" font-family="Helvetica,sans-Serif" font-size="10.00">main/driver/ultrasonic</text>
<text text-anchor="middle" x="183" y="-73" font-family="Helvetica,sans-Serif" font-size="10.00">/ultrasonic.h</text>
</a>
</g>
</g>
<!-- Node2 -->
<g id="node2" class="node">
<title>Node2</title>
<g id="a_node2"><a xlink:href="driver_2ultrasonic_2main_8c.html" target="_top" xlink:title="Demonstration for the Ultrasonic driver.">
<polygon fill="white" stroke="#666666" points="110,-30 0,-30 0,0 110,0 110,-30"/>
<text text-anchor="start" x="8" y="-18" font-family="Helvetica,sans-Serif" font-size="10.00">main/driver/ultrasonic</text>
<text text-anchor="middle" x="55" y="-7" font-family="Helvetica,sans-Serif" font-size="10.00">/main.c</text>
</a>
</g>
</g>
<!-- Node1&#45;&gt;Node2 -->
<g id="edge1" class="edge">
<title>Node1&#45;&gt;Node2</title>
<path fill="none" stroke="#63b8ff" d="M144.18,-60.59C124.68,-50.84 101.48,-39.24 83.63,-30.31"/>
<polygon fill="#63b8ff" stroke="#63b8ff" points="142.41,-63.62 152.92,-64.96 145.54,-57.36 142.41,-63.62"/>
</g>
<!-- Node3 -->
<g id="node3" class="node">
<title>Node3</title>
<g id="a_node3"><a xlink:href="ultrasonic_8c.html" target="_top" xlink:title="Driver code for the ultrasonic sensor.">
<polygon fill="white" stroke="#666666" points="238,-30 128,-30 128,0 238,0 238,-30"/>
<text text-anchor="start" x="136" y="-18" font-family="Helvetica,sans-Serif" font-size="10.00">main/driver/ultrasonic</text>
<text text-anchor="middle" x="183" y="-7" font-family="Helvetica,sans-Serif" font-size="10.00">/ultrasonic.c</text>
</a>
</g>
</g>
<!-- Node1&#45;&gt;Node3 -->
<g id="edge2" class="edge">
<title>Node1&#45;&gt;Node3</title>
<path fill="none" stroke="#63b8ff" d="M183,-54.39C183,-46.13 183,-37.28 183,-30.16"/>
<polygon fill="#63b8ff" stroke="#63b8ff" points="179.5,-54.28 183,-64.28 186.5,-54.28 179.5,-54.28"/>
</g>
<!-- Node4 -->
<g id="node4" class="node">
<title>Node4</title>
<g id="a_node4"><a xlink:href="main_8c.html" target="_top" xlink:title="The main source file for robot control.">
<polygon fill="white" stroke="#666666" points="325.5,-24.5 256.5,-24.5 256.5,-5.5 325.5,-5.5 325.5,-24.5"/>
<text text-anchor="middle" x="291" y="-12.5" font-family="Helvetica,sans-Serif" font-size="10.00">main/main.c</text>
</a>
</g>
</g>
<!-- Node1&#45;&gt;Node4 -->
<g id="edge3" class="edge">
<title>Node1&#45;&gt;Node4</title>
<path fill="none" stroke="#63b8ff" d="M217.11,-59.79C236.83,-48.1 260.67,-33.97 275.84,-24.99"/>
<polygon fill="#63b8ff" stroke="#63b8ff" points="215.36,-56.76 208.54,-64.87 218.93,-62.78 215.36,-56.76"/>
</g>
</g>
</svg>
