<?xml version="1.0" encoding="UTF-8" standalone="no"?>
<!DOCTYPE svg PUBLIC "-//W3C//DTD SVG 1.1//EN"
 "http://www.w3.org/Graphics/SVG/1.1/DTD/svg11.dtd">
<!-- Generated by graphviz version 7.0.5 (20221223.1930)
 -->
<!-- Title: get_pulse Pages: 1 -->
<svg width="167pt" height="64pt"
 viewBox="0.00 0.00 167.00 64.00" xmlns="http://www.w3.org/2000/svg" xmlns:xlink="http://www.w3.org/1999/xlink">
<g id="graph0" class="graph" transform="scale(1 1) rotate(0) translate(4 60)">
<title>get_pulse</title>
<!-- Node1 -->
<g id="node1" class="node">
<title>Node1</title>
<g id="a_node1"><a xlink:title="Get the pulse length in cycles.">
<polygon fill="#999999" stroke="#666666" points="159,-37 100,-37 100,-18 159,-18 159,-37"/>
<text text-anchor="middle" x="129.5" y="-25" font-family="Helvetica,sans-Serif" font-size="10.00">get_pulse</text>
</a>
</g>
</g>
<!-- Node2 -->
<g id="node2" class="node">
<title>Node2</title>
<g id="a_node2"><a xlink:href="ultrasonic_8c.html#ae451660745e5e099dd66724c79e4d824" target="_top" xlink:title="Get the distance to an object in centimetres.">
<polygon fill="white" stroke="#666666" points="56.5,-56 7.5,-56 7.5,-37 56.5,-37 56.5,-56"/>
<text text-anchor="middle" x="32" y="-44" font-family="Helvetica,sans-Serif" font-size="10.00">get_cm</text>
</a>
</g>
</g>
<!-- Node1&#45;&gt;Node2 -->
<g id="edge1" class="edge">
<title>Node1&#45;&gt;Node2</title>
<path fill="none" stroke="#63b8ff" d="M88.33,-35.49C77.67,-37.61 66.49,-39.84 56.99,-41.73"/>
<polygon fill="#63b8ff" stroke="#63b8ff" points="88.98,-38.93 98.1,-33.55 87.61,-32.07 88.98,-38.93"/>
</g>
<!-- Node3 -->
<g id="node3" class="node">
<title>Node3</title>
<g id="a_node3"><a xlink:href="ultrasonic_8c.html#a123f64dd2828e7f9efdc7de1a467eed7" target="_top" xlink:title="Get the distance to an object in inches.">
<polygon fill="white" stroke="#666666" points="64,-19 0,-19 0,0 64,0 64,-19"/>
<text text-anchor="middle" x="32" y="-7" font-family="Helvetica,sans-Serif" font-size="10.00">get_inches</text>
</a>
</g>
</g>
<!-- Node1&#45;&gt;Node3 -->
<g id="edge2" class="edge">
<title>Node1&#45;&gt;Node3</title>
<path fill="none" stroke="#63b8ff" d="M88.53,-19.97C80.5,-18.45 72.17,-16.88 64.48,-15.43"/>
<polygon fill="#63b8ff" stroke="#63b8ff" points="87.63,-23.36 98.1,-21.77 88.92,-16.48 87.63,-23.36"/>
</g>
</g>
</svg>
