<?xml version="1.0" encoding="UTF-8" standalone="no"?>
<!DOCTYPE svg PUBLIC "-//W3C//DTD SVG 1.1//EN"
 "http://www.w3.org/Graphics/SVG/1.1/DTD/svg11.dtd">
<!-- Generated by graphviz version 7.0.5 (20221223.1930)
 -->
<!-- Title: main/driver/ultrasonic/ultrasonic.c Pages: 1 -->
<svg width="668pt" height="93pt"
 viewBox="0.00 0.00 668.00 93.00" xmlns="http://www.w3.org/2000/svg" xmlns:xlink="http://www.w3.org/1999/xlink">
<g id="graph0" class="graph" transform="scale(1 1) rotate(0) translate(4 89)">
<title>main/driver/ultrasonic/ultrasonic.c</title>
<!-- Node1 -->
<g id="node1" class="node">
<title>Node1</title>
<g id="a_node1"><a xlink:title="Driver code for the ultrasonic sensor.">
<polygon fill="#999999" stroke="#666666" points="353,-85 243,-85 243,-55 353,-55 353,-85"/>
<text text-anchor="start" x="251" y="-73" font-family="Helvetica,sans-Serif" font-size="10.00">main/driver/ultrasonic</text>
<text text-anchor="middle" x="298" y="-62" font-family="Helvetica,sans-Serif" font-size="10.00">/ultrasonic.c</text>
</a>
</g>
</g>
<!-- Node2 -->
<g id="node2" class="node">
<title>Node2</title>
<g id="a_node2"><a xlink:title=" ">
<polygon fill="#e0e0e0" stroke="#999999" points="56,-19 0,-19 0,0 56,0 56,-19"/>
<text text-anchor="middle" x="28" y="-7" font-family="Helvetica,sans-Serif" font-size="10.00">stdbool.h</text>
</a>
</g>
</g>
<!-- Node1&#45;&gt;Node2 -->
<g id="edge1" class="edge">
<title>Node1&#45;&gt;Node2</title>
<path fill="none" stroke="#63b8ff" d="M242.87,-57.4C198.12,-47.94 133.09,-34.06 67.27,-19.48"/>
<polygon fill="#63b8ff" stroke="#63b8ff" points="68.27,-16.12 57.75,-17.37 66.75,-22.95 68.27,-16.12"/>
</g>
<!-- Node3 -->
<g id="node3" class="node">
<title>Node3</title>
<g id="a_node3"><a xlink:title=" ">
<polygon fill="#e0e0e0" stroke="#999999" points="122,-19 74,-19 74,0 122,0 122,-19"/>
<text text-anchor="middle" x="98" y="-7" font-family="Helvetica,sans-Serif" font-size="10.00">stdint.h</text>
</a>
</g>
</g>
<!-- Node1&#45;&gt;Node3 -->
<g id="edge2" class="edge">
<title>Node1&#45;&gt;Node3</title>
<path fill="none" stroke="#63b8ff" d="M248.56,-54.54C212.81,-44.08 165.36,-30.2 133.37,-20.84"/>
<polygon fill="#63b8ff" stroke="#63b8ff" points="134.36,-17.49 123.78,-18.04 132.39,-24.21 134.36,-17.49"/>
</g>
<!-- Node4 -->
<g id="node4" class="node">
<title>Node4</title>
<g id="a_node4"><a xlink:title=" ">
<polygon fill="#e0e0e0" stroke="#999999" points="206,-19 140,-19 140,0 206,0 206,-19"/>
<text text-anchor="middle" x="173" y="-7" font-family="Helvetica,sans-Serif" font-size="10.00">sys/cdefs.h</text>
</a>
</g>
</g>
<!-- Node1&#45;&gt;Node4 -->
<g id="edge3" class="edge">
<title>Node1&#45;&gt;Node4</title>
<path fill="none" stroke="#63b8ff" d="M267.1,-54.54C247.31,-45.28 221.77,-33.33 202.3,-24.21"/>
<polygon fill="#63b8ff" stroke="#63b8ff" points="203.81,-21.06 193.27,-19.99 200.85,-27.4 203.81,-21.06"/>
</g>
<!-- Node5 -->
<g id="node5" class="node">
<title>Node5</title>
<g id="a_node5"><a xlink:title=" ">
<polygon fill="#e0e0e0" stroke="#999999" points="288,-19 224,-19 224,0 288,0 288,-19"/>
<text text-anchor="middle" x="256" y="-7" font-family="Helvetica,sans-Serif" font-size="10.00">pico/time.h</text>
</a>
</g>
</g>
<!-- Node1&#45;&gt;Node5 -->
<g id="edge4" class="edge">
<title>Node1&#45;&gt;Node5</title>
<path fill="none" stroke="#63b8ff" d="M287.62,-54.54C281.95,-46.65 274.89,-36.81 268.88,-28.44"/>
<polygon fill="#63b8ff" stroke="#63b8ff" points="271.79,-26.49 263.11,-20.4 266.1,-30.57 271.79,-26.49"/>
</g>
<!-- Node6 -->
<g id="node6" class="node">
<title>Node6</title>
<g id="a_node6"><a xlink:title=" ">
<polygon fill="#e0e0e0" stroke="#999999" points="374,-19 306,-19 306,0 374,0 374,-19"/>
<text text-anchor="middle" x="340" y="-7" font-family="Helvetica,sans-Serif" font-size="10.00">pico/types.h</text>
</a>
</g>
</g>
<!-- Node1&#45;&gt;Node6 -->
<g id="edge5" class="edge">
<title>Node1&#45;&gt;Node6</title>
<path fill="none" stroke="#63b8ff" d="M308.38,-54.54C314.05,-46.65 321.11,-36.81 327.12,-28.44"/>
<polygon fill="#63b8ff" stroke="#63b8ff" points="329.9,-30.57 332.89,-20.4 324.21,-26.49 329.9,-30.57"/>
</g>
<!-- Node7 -->
<g id="node7" class="node">
<title>Node7</title>
<g id="a_node7"><a xlink:title=" ">
<polygon fill="#e0e0e0" stroke="#999999" points="472,-19 392,-19 392,0 472,0 472,-19"/>
<text text-anchor="middle" x="432" y="-7" font-family="Helvetica,sans-Serif" font-size="10.00">pico/platform.h</text>
</a>
</g>
</g>
<!-- Node1&#45;&gt;Node7 -->
<g id="edge6" class="edge">
<title>Node1&#45;&gt;Node7</title>
<path fill="none" stroke="#63b8ff" d="M331.12,-54.54C352.64,-45.15 380.48,-32.99 401.46,-23.83"/>
<polygon fill="#63b8ff" stroke="#63b8ff" points="402.59,-27.16 410.35,-19.95 399.78,-20.75 402.59,-27.16"/>
</g>
<!-- Node8 -->
<g id="node8" class="node">
<title>Node8</title>
<g id="a_node8"><a xlink:title=" ">
<polygon fill="#e0e0e0" stroke="#999999" points="575.5,-19 490.5,-19 490.5,0 575.5,0 575.5,-19"/>
<text text-anchor="middle" x="533" y="-7" font-family="Helvetica,sans-Serif" font-size="10.00">hardware/gpio.h</text>
</a>
</g>
</g>
<!-- Node1&#45;&gt;Node8 -->
<g id="edge7" class="edge">
<title>Node1&#45;&gt;Node8</title>
<path fill="none" stroke="#63b8ff" d="M353.39,-55.21C393.78,-45.16 447.9,-31.68 486.15,-22.16"/>
<polygon fill="#63b8ff" stroke="#63b8ff" points="486.65,-25.64 495.51,-19.83 484.96,-18.85 486.65,-25.64"/>
</g>
<!-- Node9 -->
<g id="node9" class="node">
<title>Node9</title>
<g id="a_node9"><a xlink:href="ultrasonic_8h.html" target="_top" xlink:title="Header file for the ultrasonic sensor driver.">
<polygon fill="white" stroke="#666666" points="660,-19 594,-19 594,0 660,0 660,-19"/>
<text text-anchor="middle" x="627" y="-7" font-family="Helvetica,sans-Serif" font-size="10.00">ultrasonic.h</text>
</a>
</g>
</g>
<!-- Node1&#45;&gt;Node9 -->
<g id="edge8" class="edge">
<title>Node1&#45;&gt;Node9</title>
<path fill="none" stroke="#63b8ff" d="M353.37,-59.81C408.8,-50.51 496.82,-35.47 582.32,-19.47"/>
<polygon fill="#63b8ff" stroke="#63b8ff" points="582.88,-22.92 592.06,-17.64 581.58,-16.04 582.88,-22.92"/>
</g>
</g>
</svg>
