<?xml version="1.0" encoding="UTF-8" standalone="no"?>
<!DOCTYPE svg PUBLIC "-//W3C//DTD SVG 1.1//EN"
 "http://www.w3.org/Graphics/SVG/1.1/DTD/svg11.dtd">
<!-- Generated by graphviz version 7.0.5 (20221223.1930)
 -->
<!-- Title: src/drivers/encoder/wheel_encoder.h Pages: 1 -->
<svg width="306pt" height="104pt"
 viewBox="0.00 0.00 306.00 104.00" xmlns="http://www.w3.org/2000/svg" xmlns:xlink="http://www.w3.org/1999/xlink">
<g id="graph0" class="graph" transform="scale(1 1) rotate(0) translate(4 100)">
<title>src/drivers/encoder/wheel_encoder.h</title>
<!-- Node1 -->
<g id="node1" class="node">
<title>Node1</title>
<g id="a_node1"><a xlink:title="Header file for the wheel encoder drivers.">
<polygon fill="#999999" stroke="#666666" points="218,-96 118,-96 118,-66 218,-66 218,-96"/>
<text text-anchor="start" x="126" y="-84" font-family="Helvetica,sans-Serif" font-size="10.00">src/drivers/encoder</text>
<text text-anchor="middle" x="168" y="-73" font-family="Helvetica,sans-Serif" font-size="10.00">/wheel_encoder.h</text>
</a>
</g>
</g>
<!-- Node2 -->
<g id="node2" class="node">
<title>Node2</title>
<g id="a_node2"><a xlink:href="drivers_2encoder_2main_8c.html" target="_top" xlink:title="Driver demo code for the wheel encoder.">
<polygon fill="white" stroke="#666666" points="100,-30 0,-30 0,0 100,0 100,-30"/>
<text text-anchor="start" x="8" y="-18" font-family="Helvetica,sans-Serif" font-size="10.00">src/drivers/encoder</text>
<text text-anchor="middle" x="50" y="-7" font-family="Helvetica,sans-Serif" font-size="10.00">/main.c</text>
</a>
</g>
</g>
<!-- Node1&#45;&gt;Node2 -->
<g id="edge1" class="edge">
<title>Node1&#45;&gt;Node2</title>
<path fill="none" stroke="#63b8ff" d="M131.46,-60.18C113.65,-50.52 92.62,-39.12 76.39,-30.31"/>
<polygon fill="#63b8ff" stroke="#63b8ff" points="129.73,-63.22 140.19,-64.92 133.07,-57.07 129.73,-63.22"/>
</g>
<!-- Node3 -->
<g id="node3" class="node">
<title>Node3</title>
<g id="a_node3"><a xlink:href="wheel__encoder_8c.html" target="_top" xlink:title="Driver code for the wheel encoder.">
<polygon fill="white" stroke="#666666" points="218,-30 118,-30 118,0 218,0 218,-30"/>
<text text-anchor="start" x="126" y="-18" font-family="Helvetica,sans-Serif" font-size="10.00">src/drivers/encoder</text>
<text text-anchor="middle" x="168" y="-7" font-family="Helvetica,sans-Serif" font-size="10.00">/wheel_encoder.c</text>
</a>
</g>
</g>
<!-- Node1&#45;&gt;Node3 -->
<g id="edge2" class="edge">
<title>Node1&#45;&gt;Node3</title>
<path fill="none" stroke="#63b8ff" d="M168,-54.39C168,-46.13 168,-37.28 168,-30.16"/>
<polygon fill="#63b8ff" stroke="#63b8ff" points="164.5,-54.28 168,-64.28 171.5,-54.28 164.5,-54.28"/>
</g>
<!-- Node4 -->
<g id="node4" class="node">
<title>Node4</title>
<g id="a_node4"><a xlink:href="main_8c.html" target="_top" xlink:title="The main source file for robot control.">
<polygon fill="white" stroke="#666666" points="298,-24.5 236,-24.5 236,-5.5 298,-5.5 298,-24.5"/>
<text text-anchor="middle" x="267" y="-12.5" font-family="Helvetica,sans-Serif" font-size="10.00">src/main.c</text>
</a>
</g>
</g>
<!-- Node1&#45;&gt;Node4 -->
<g id="edge3" class="edge">
<title>Node1&#45;&gt;Node4</title>
<path fill="none" stroke="#63b8ff" d="M199.58,-59.58C217.69,-47.87 239.51,-33.77 253.32,-24.84"/>
<polygon fill="#63b8ff" stroke="#63b8ff" points="197.74,-56.61 191.24,-64.97 201.54,-62.48 197.74,-56.61"/>
</g>
</g>
</svg>
