<?xml version="1.0" encoding="UTF-8" standalone="no"?>
<!DOCTYPE svg PUBLIC "-//W3C//DTD SVG 1.1//EN"
 "http://www.w3.org/Graphics/SVG/1.1/DTD/svg11.dtd">
<!-- Generated by graphviz version 7.0.5 (20221223.1930)
 -->
<!-- Title: src/drivers/encoder/wheel_encoder.c Pages: 1 -->
<svg width="276pt" height="148pt"
 viewBox="0.00 0.00 275.50 148.00" xmlns="http://www.w3.org/2000/svg" xmlns:xlink="http://www.w3.org/1999/xlink">
<g id="graph0" class="graph" transform="scale(1 1) rotate(0) translate(4 144)">
<title>src/drivers/encoder/wheel_encoder.c</title>
<!-- Node1 -->
<g id="node1" class="node">
<title>Node1</title>
<g id="a_node1"><a xlink:title="Driver code for the wheel encoder.">
<polygon fill="#999999" stroke="#666666" points="148,-140 48,-140 48,-110 148,-110 148,-140"/>
<text text-anchor="start" x="56" y="-128" font-family="Helvetica,sans-Serif" font-size="10.00">src/drivers/encoder</text>
<text text-anchor="middle" x="98" y="-117" font-family="Helvetica,sans-Serif" font-size="10.00">/wheel_encoder.c</text>
</a>
</g>
</g>
<!-- Node2 -->
<g id="node2" class="node">
<title>Node2</title>
<g id="a_node2"><a xlink:title=" ">
<polygon fill="#e0e0e0" stroke="#999999" points="56,-74 0,-74 0,-55 56,-55 56,-74"/>
<text text-anchor="middle" x="28" y="-62" font-family="Helvetica,sans-Serif" font-size="10.00">stdbool.h</text>
</a>
</g>
</g>
<!-- Node1&#45;&gt;Node2 -->
<g id="edge1" class="edge">
<title>Node1&#45;&gt;Node2</title>
<path fill="none" stroke="#63b8ff" d="M80.7,-109.54C70.53,-101.04 57.66,-90.29 47.18,-81.53"/>
<polygon fill="#63b8ff" stroke="#63b8ff" points="49.46,-78.87 39.54,-75.15 44.97,-84.24 49.46,-78.87"/>
</g>
<!-- Node3 -->
<g id="node3" class="node">
<title>Node3</title>
<g id="a_node3"><a xlink:title=" ">
<polygon fill="#e0e0e0" stroke="#999999" points="122,-74 74,-74 74,-55 122,-55 122,-74"/>
<text text-anchor="middle" x="98" y="-62" font-family="Helvetica,sans-Serif" font-size="10.00">stdint.h</text>
</a>
</g>
</g>
<!-- Node1&#45;&gt;Node3 -->
<g id="edge2" class="edge">
<title>Node1&#45;&gt;Node3</title>
<path fill="none" stroke="#63b8ff" d="M98,-109.54C98,-102.34 98,-93.53 98,-85.68"/>
<polygon fill="#63b8ff" stroke="#63b8ff" points="101.5,-85.69 98,-75.69 94.5,-85.69 101.5,-85.69"/>
</g>
<!-- Node4 -->
<g id="node4" class="node">
<title>Node4</title>
<g id="a_node4"><a xlink:href="wheel__encoder_8h.html" target="_top" xlink:title="Header file for the wheel encoder drivers.">
<polygon fill="white" stroke="#666666" points="267.5,-74 140.5,-74 140.5,-55 267.5,-55 267.5,-74"/>
<text text-anchor="middle" x="204" y="-62" font-family="Helvetica,sans-Serif" font-size="10.00">encoder/wheel_encoder.h</text>
</a>
</g>
</g>
<!-- Node1&#45;&gt;Node4 -->
<g id="edge3" class="edge">
<title>Node1&#45;&gt;Node4</title>
<path fill="none" stroke="#63b8ff" d="M124.2,-109.54C140.6,-100.49 161.64,-88.88 177.99,-79.85"/>
<polygon fill="#63b8ff" stroke="#63b8ff" points="179.58,-82.97 186.65,-75.08 176.2,-76.85 179.58,-82.97"/>
</g>
<!-- Node5 -->
<g id="node5" class="node">
<title>Node5</title>
<g id="a_node5"><a xlink:title=" ">
<polygon fill="#e0e0e0" stroke="#999999" points="238,-19 170,-19 170,0 238,0 238,-19"/>
<text text-anchor="middle" x="204" y="-7" font-family="Helvetica,sans-Serif" font-size="10.00">pico/stdlib.h</text>
</a>
</g>
</g>
<!-- Node4&#45;&gt;Node5 -->
<g id="edge4" class="edge">
<title>Node4&#45;&gt;Node5</title>
<path fill="none" stroke="#63b8ff" d="M204,-54.75C204,-48.27 204,-39.16 204,-30.9"/>
<polygon fill="#63b8ff" stroke="#63b8ff" points="207.5,-30.96 204,-20.96 200.5,-30.96 207.5,-30.96"/>
</g>
</g>
</svg>
