<?xml version="1.0" encoding="UTF-8" standalone="no"?>
<!DOCTYPE svg PUBLIC "-//W3C//DTD SVG 1.1//EN"
 "http://www.w3.org/Graphics/SVG/1.1/DTD/svg11.dtd">
<!-- Generated by graphviz version 7.0.5 (20221223.1930)
 -->
<!-- Title: src/drivers/wifi/wifi.h Pages: 1 -->
<svg width="322pt" height="82pt"
 viewBox="0.00 0.00 321.50 82.00" xmlns="http://www.w3.org/2000/svg" xmlns:xlink="http://www.w3.org/1999/xlink">
<g id="graph0" class="graph" transform="scale(1 1) rotate(0) translate(4 78)">
<title>src/drivers/wifi/wifi.h</title>
<!-- Node1 -->
<g id="node1" class="node">
<title>Node1</title>
<g id="a_node1"><a xlink:title="Header file for WiFi module. This file contains the function prototypes and data structures for the W...">
<polygon fill="#999999" stroke="#666666" points="233.5,-74 129.5,-74 129.5,-55 233.5,-55 233.5,-74"/>
<text text-anchor="middle" x="181.5" y="-62" font-family="Helvetica,sans-Serif" font-size="10.00">src/drivers/wifi/wifi.h</text>
</a>
</g>
</g>
<!-- Node2 -->
<g id="node2" class="node">
<title>Node2</title>
<g id="a_node2"><a xlink:href="drivers_2wifi_2main_8c.html" target="_top" xlink:title="Demonstration for the WiFi driver.">
<polygon fill="white" stroke="#666666" points="111,-19 0,-19 0,0 111,0 111,-19"/>
<text text-anchor="middle" x="55.5" y="-7" font-family="Helvetica,sans-Serif" font-size="10.00">src/drivers/wifi/main.c</text>
</a>
</g>
</g>
<!-- Node1&#45;&gt;Node2 -->
<g id="edge1" class="edge">
<title>Node1&#45;&gt;Node2</title>
<path fill="none" stroke="#63b8ff" d="M149.55,-50.06C126.66,-40.43 96.48,-27.74 76.56,-19.36"/>
<polygon fill="#63b8ff" stroke="#63b8ff" points="148.16,-53.27 158.73,-53.92 150.87,-46.82 148.16,-53.27"/>
</g>
<!-- Node3 -->
<g id="node3" class="node">
<title>Node3</title>
<g id="a_node3"><a xlink:href="wifi_8c.html" target="_top" xlink:title="This file contains the implementation of a TCP server using lwIP. The TCP server is initialized using...">
<polygon fill="white" stroke="#666666" points="233.5,-19 129.5,-19 129.5,0 233.5,0 233.5,-19"/>
<text text-anchor="middle" x="181.5" y="-7" font-family="Helvetica,sans-Serif" font-size="10.00">src/drivers/wifi/wifi.c</text>
</a>
</g>
</g>
<!-- Node1&#45;&gt;Node3 -->
<g id="edge2" class="edge">
<title>Node1&#45;&gt;Node3</title>
<path fill="none" stroke="#63b8ff" d="M181.5,-43.35C181.5,-35.1 181.5,-25.97 181.5,-19.44"/>
<polygon fill="#63b8ff" stroke="#63b8ff" points="178,-43.23 181.5,-53.23 185,-43.23 178,-43.23"/>
</g>
<!-- Node4 -->
<g id="node4" class="node">
<title>Node4</title>
<g id="a_node4"><a xlink:href="main_8c.html" target="_top" xlink:title="The main source file for robot control.">
<polygon fill="white" stroke="#666666" points="313.5,-19 251.5,-19 251.5,0 313.5,0 313.5,-19"/>
<text text-anchor="middle" x="282.5" y="-7" font-family="Helvetica,sans-Serif" font-size="10.00">src/main.c</text>
</a>
</g>
</g>
<!-- Node1&#45;&gt;Node4 -->
<g id="edge3" class="edge">
<title>Node1&#45;&gt;Node4</title>
<path fill="none" stroke="#63b8ff" d="M208.62,-49.27C226.77,-39.74 250.08,-27.51 265.62,-19.36"/>
<polygon fill="#63b8ff" stroke="#63b8ff" points="207.2,-46.06 199.97,-53.81 210.45,-52.26 207.2,-46.06"/>
</g>
</g>
</svg>
