<?xml version="1.0" encoding="UTF-8" standalone="no"?>
<!DOCTYPE svg PUBLIC "-//W3C//DTD SVG 1.1//EN"
 "http://www.w3.org/Graphics/SVG/1.1/DTD/svg11.dtd">
<!-- Generated by graphviz version 7.0.5 (20221223.1930)
 -->
<!-- Title: main/driver/wifi/wifi.c Pages: 1 -->
<svg width="1525pt" height="137pt"
 viewBox="0.00 0.00 1525.00 137.00" xmlns="http://www.w3.org/2000/svg" xmlns:xlink="http://www.w3.org/1999/xlink">
<g id="graph0" class="graph" transform="scale(1 1) rotate(0) translate(4 133)">
<title>main/driver/wifi/wifi.c</title>
<!-- Node1 -->
<g id="node1" class="node">
<title>Node1</title>
<g id="a_node1"><a xlink:title="This file contains the implementation of a TCP server using lwIP. The TCP server is initialized using...">
<polygon fill="#999999" stroke="#666666" points="678.5,-129 571.5,-129 571.5,-110 678.5,-110 678.5,-129"/>
<text text-anchor="middle" x="625" y="-117" font-family="Helvetica,sans-Serif" font-size="10.00">main/driver/wifi/wifi.c</text>
</a>
</g>
</g>
<!-- Node2 -->
<g id="node2" class="node">
<title>Node2</title>
<g id="a_node2"><a xlink:title=" ">
<polygon fill="#e0e0e0" stroke="#999999" points="56,-74 0,-74 0,-55 56,-55 56,-74"/>
<text text-anchor="middle" x="28" y="-62" font-family="Helvetica,sans-Serif" font-size="10.00">stdbool.h</text>
</a>
</g>
</g>
<!-- Node1&#45;&gt;Node2 -->
<g id="edge1" class="edge">
<title>Node1&#45;&gt;Node2</title>
<path fill="none" stroke="#63b8ff" d="M571.19,-116.33C471.78,-111.84 252.82,-99.74 70,-74 69.17,-73.88 68.33,-73.76 67.49,-73.63"/>
<polygon fill="#63b8ff" stroke="#63b8ff" points="68.33,-70.22 57.88,-71.98 67.14,-77.12 68.33,-70.22"/>
</g>
<!-- Node3 -->
<g id="node3" class="node">
<title>Node3</title>
<g id="a_node3"><a xlink:title=" ">
<polygon fill="#e0e0e0" stroke="#999999" points="96.5,-19 51.5,-19 51.5,0 96.5,0 96.5,-19"/>
<text text-anchor="middle" x="74" y="-7" font-family="Helvetica,sans-Serif" font-size="10.00">stdio.h</text>
</a>
</g>
</g>
<!-- Node1&#45;&gt;Node3 -->
<g id="edge2" class="edge">
<title>Node1&#45;&gt;Node3</title>
<path fill="none" stroke="#63b8ff" d="M571.07,-116.96C445.35,-112.93 140.64,-100.52 103,-74 88.6,-63.86 81.21,-44.77 77.5,-30.16"/>
<polygon fill="#63b8ff" stroke="#63b8ff" points="81,-29.77 75.5,-20.72 74.15,-31.22 81,-29.77"/>
</g>
<!-- Node4 -->
<g id="node4" class="node">
<title>Node4</title>
<g id="a_node4"><a xlink:title=" ">
<polygon fill="#e0e0e0" stroke="#999999" points="292,-74 244,-74 244,-55 292,-55 292,-74"/>
<text text-anchor="middle" x="268" y="-62" font-family="Helvetica,sans-Serif" font-size="10.00">string.h</text>
</a>
</g>
</g>
<!-- Node1&#45;&gt;Node4 -->
<g id="edge3" class="edge">
<title>Node1&#45;&gt;Node4</title>
<path fill="none" stroke="#63b8ff" d="M571.27,-112.9C509.26,-106.03 404.02,-93.16 303.7,-74.11"/>
<polygon fill="#63b8ff" stroke="#63b8ff" points="304.41,-70.69 293.93,-72.23 303.09,-77.56 304.41,-70.69"/>
</g>
<!-- Node5 -->
<g id="node5" class="node">
<title>Node5</title>
<g id="a_node5"><a xlink:title=" ">
<polygon fill="#e0e0e0" stroke="#999999" points="357.5,-74 310.5,-74 310.5,-55 357.5,-55 357.5,-74"/>
<text text-anchor="middle" x="334" y="-62" font-family="Helvetica,sans-Serif" font-size="10.00">stdlib.h</text>
</a>
</g>
</g>
<!-- Node1&#45;&gt;Node5 -->
<g id="edge4" class="edge">
<title>Node1&#45;&gt;Node5</title>
<path fill="none" stroke="#63b8ff" d="M571.39,-110.56C521.49,-102.87 444.82,-90.32 368.93,-74.26"/>
<polygon fill="#63b8ff" stroke="#63b8ff" points="369.73,-70.85 359.22,-72.18 368.26,-77.69 369.73,-70.85"/>
</g>
<!-- Node6 -->
<g id="node6" class="node">
<title>Node6</title>
<g id="a_node6"><a xlink:title=" ">
<polygon fill="#e0e0e0" stroke="#999999" points="424,-74 376,-74 376,-55 424,-55 424,-74"/>
<text text-anchor="middle" x="400" y="-62" font-family="Helvetica,sans-Serif" font-size="10.00">stdint.h</text>
</a>
</g>
</g>
<!-- Node1&#45;&gt;Node6 -->
<g id="edge5" class="edge">
<title>Node1&#45;&gt;Node6</title>
<path fill="none" stroke="#63b8ff" d="M585.22,-109.58C548.7,-101.32 492.8,-88.52 435.57,-74.59"/>
<polygon fill="#63b8ff" stroke="#63b8ff" points="436.51,-71.21 425.96,-72.24 434.85,-78.01 436.51,-71.21"/>
</g>
<!-- Node7 -->
<g id="node7" class="node">
<title>Node7</title>
<g id="a_node7"><a xlink:title=" ">
<polygon fill="#e0e0e0" stroke="#999999" points="508,-74 442,-74 442,-55 508,-55 508,-74"/>
<text text-anchor="middle" x="475" y="-62" font-family="Helvetica,sans-Serif" font-size="10.00">sys/cdefs.h</text>
</a>
</g>
</g>
<!-- Node1&#45;&gt;Node7 -->
<g id="edge6" class="edge">
<title>Node1&#45;&gt;Node7</title>
<path fill="none" stroke="#63b8ff" d="M599.55,-109.51C575.24,-100.92 538.34,-87.88 511.01,-78.22"/>
<polygon fill="#63b8ff" stroke="#63b8ff" points="512.34,-74.98 501.75,-74.95 510.01,-81.58 512.34,-74.98"/>
</g>
<!-- Node8 -->
<g id="node8" class="node">
<title>Node8</title>
<g id="a_node8"><a xlink:title=" ">
<polygon fill="#e0e0e0" stroke="#999999" points="623.5,-74 526.5,-74 526.5,-55 623.5,-55 623.5,-74"/>
<text text-anchor="middle" x="575" y="-62" font-family="Helvetica,sans-Serif" font-size="10.00">pico/cyw43_arch.h</text>
</a>
</g>
</g>
<!-- Node1&#45;&gt;Node8 -->
<g id="edge7" class="edge">
<title>Node1&#45;&gt;Node8</title>
<path fill="none" stroke="#63b8ff" d="M616.74,-109.75C609.84,-102.43 599.78,-91.76 591.26,-82.74"/>
<polygon fill="#63b8ff" stroke="#63b8ff" points="593.88,-80.42 584.47,-75.54 588.79,-85.22 593.88,-80.42"/>
</g>
<!-- Node9 -->
<g id="node9" class="node">
<title>Node9</title>
<g id="a_node9"><a xlink:title=" ">
<polygon fill="#e0e0e0" stroke="#999999" points="708,-74 642,-74 642,-55 708,-55 708,-74"/>
<text text-anchor="middle" x="675" y="-62" font-family="Helvetica,sans-Serif" font-size="10.00">pico/stdio.h</text>
</a>
</g>
</g>
<!-- Node1&#45;&gt;Node9 -->
<g id="edge8" class="edge">
<title>Node1&#45;&gt;Node9</title>
<path fill="none" stroke="#63b8ff" d="M633.26,-109.75C640.16,-102.43 650.22,-91.76 658.74,-82.74"/>
<polygon fill="#63b8ff" stroke="#63b8ff" points="661.21,-85.22 665.53,-75.54 656.12,-80.42 661.21,-85.22"/>
</g>
<!-- Node10 -->
<g id="node10" class="node">
<title>Node10</title>
<g id="a_node10"><a xlink:title=" ">
<polygon fill="#e0e0e0" stroke="#999999" points="825.5,-74 726.5,-74 726.5,-55 825.5,-55 825.5,-74"/>
<text text-anchor="middle" x="776" y="-62" font-family="Helvetica,sans-Serif" font-size="10.00">cyw43_configport.h</text>
</a>
</g>
</g>
<!-- Node1&#45;&gt;Node10 -->
<g id="edge9" class="edge">
<title>Node1&#45;&gt;Node10</title>
<path fill="none" stroke="#63b8ff" d="M650.62,-109.51C675.09,-100.92 712.24,-87.88 739.75,-78.22"/>
<polygon fill="#63b8ff" stroke="#63b8ff" points="740.81,-81.56 749.08,-74.95 738.49,-74.96 740.81,-81.56"/>
</g>
<!-- Node11 -->
<g id="node11" class="node">
<title>Node11</title>
<g id="a_node11"><a xlink:title=" ">
<polygon fill="#e0e0e0" stroke="#999999" points="906,-74 844,-74 844,-55 906,-55 906,-74"/>
<text text-anchor="middle" x="875" y="-62" font-family="Helvetica,sans-Serif" font-size="10.00">cyw43_ll.h</text>
</a>
</g>
</g>
<!-- Node1&#45;&gt;Node11 -->
<g id="edge10" class="edge">
<title>Node1&#45;&gt;Node11</title>
<path fill="none" stroke="#63b8ff" d="M667.24,-109.56C707.32,-101.07 769.58,-87.88 832.61,-74.51"/>
<polygon fill="#63b8ff" stroke="#63b8ff" points="833.02,-78 842.08,-72.5 831.57,-71.15 833.02,-78"/>
</g>
<!-- Node12 -->
<g id="node12" class="node">
<title>Node12</title>
<g id="a_node12"><a xlink:title=" ">
<polygon fill="#e0e0e0" stroke="#999999" points="1005.5,-74 924.5,-74 924.5,-55 1005.5,-55 1005.5,-74"/>
<text text-anchor="middle" x="965" y="-62" font-family="Helvetica,sans-Serif" font-size="10.00">lwip/ip4_addr.h</text>
</a>
</g>
</g>
<!-- Node1&#45;&gt;Node12 -->
<g id="edge11" class="edge">
<title>Node1&#45;&gt;Node12</title>
<path fill="none" stroke="#63b8ff" d="M678.76,-110.52C734.62,-102.16 824.88,-88.49 912.81,-74.33"/>
<polygon fill="#63b8ff" stroke="#63b8ff" points="913.27,-77.8 922.58,-72.75 912.15,-70.89 913.27,-77.8"/>
</g>
<!-- Node13 -->
<g id="node13" class="node">
<title>Node13</title>
<g id="a_node13"><a xlink:title=" ">
<polygon fill="#e0e0e0" stroke="#999999" points="1100,-74 1024,-74 1024,-55 1100,-55 1100,-74"/>
<text text-anchor="middle" x="1062" y="-62" font-family="Helvetica,sans-Serif" font-size="10.00">lwip/ip_addr.h</text>
</a>
</g>
</g>
<!-- Node1&#45;&gt;Node13 -->
<g id="edge12" class="edge">
<title>Node1&#45;&gt;Node13</title>
<path fill="none" stroke="#63b8ff" d="M678.77,-113.49C751.91,-106.42 887.11,-92.48 1012.26,-74.32"/>
<polygon fill="#63b8ff" stroke="#63b8ff" points="1012.67,-77.79 1022.06,-72.88 1011.66,-70.87 1012.67,-77.79"/>
</g>
<!-- Node14 -->
<g id="node14" class="node">
<title>Node14</title>
<g id="a_node14"><a xlink:title=" ">
<polygon fill="#e0e0e0" stroke="#999999" points="1181.5,-74 1118.5,-74 1118.5,-55 1181.5,-55 1181.5,-74"/>
<text text-anchor="middle" x="1150" y="-62" font-family="Helvetica,sans-Serif" font-size="10.00">lwip/netif.h</text>
</a>
</g>
</g>
<!-- Node1&#45;&gt;Node14 -->
<g id="edge13" class="edge">
<title>Node1&#45;&gt;Node14</title>
<path fill="none" stroke="#63b8ff" d="M678.95,-115.53C766.59,-110.27 945.5,-97.73 1107.16,-74.09"/>
<polygon fill="#63b8ff" stroke="#63b8ff" points="1107.4,-77.59 1116.78,-72.67 1106.38,-70.67 1107.4,-77.59"/>
</g>
<!-- Node15 -->
<g id="node15" class="node">
<title>Node15</title>
<g id="a_node15"><a xlink:title=" ">
<polygon fill="#e0e0e0" stroke="#999999" points="1262.5,-74 1199.5,-74 1199.5,-55 1262.5,-55 1262.5,-74"/>
<text text-anchor="middle" x="1231" y="-62" font-family="Helvetica,sans-Serif" font-size="10.00">lwip/arch.h</text>
</a>
</g>
</g>
<!-- Node1&#45;&gt;Node15 -->
<g id="edge14" class="edge">
<title>Node1&#45;&gt;Node15</title>
<path fill="none" stroke="#63b8ff" d="M678.71,-116.62C777.64,-112.65 995.45,-101.54 1188.01,-74.26"/>
<polygon fill="#63b8ff" stroke="#63b8ff" points="1188.29,-77.75 1197.69,-72.87 1187.3,-70.83 1188.29,-77.75"/>
</g>
<!-- Node16 -->
<g id="node16" class="node">
<title>Node16</title>
<g id="a_node16"><a xlink:title=" ">
<polygon fill="#e0e0e0" stroke="#999999" points="1337,-74 1281,-74 1281,-55 1337,-55 1337,-74"/>
<text text-anchor="middle" x="1309" y="-62" font-family="Helvetica,sans-Serif" font-size="10.00">lwip/err.h</text>
</a>
</g>
</g>
<!-- Node1&#45;&gt;Node16 -->
<g id="edge15" class="edge">
<title>Node1&#45;&gt;Node16</title>
<path fill="none" stroke="#63b8ff" d="M678.99,-117.65C788.57,-115.3 1045.01,-106.67 1269.47,-74.13"/>
<polygon fill="#63b8ff" stroke="#63b8ff" points="1269.92,-77.6 1279.31,-72.68 1268.9,-70.67 1269.92,-77.6"/>
</g>
<!-- Node17 -->
<g id="node17" class="node">
<title>Node17</title>
<g id="a_node17"><a xlink:title=" ">
<polygon fill="#e0e0e0" stroke="#999999" points="177.5,-19 114.5,-19 114.5,0 177.5,0 177.5,-19"/>
<text text-anchor="middle" x="146" y="-7" font-family="Helvetica,sans-Serif" font-size="10.00">lwip/pbuf.h</text>
</a>
</g>
</g>
<!-- Node1&#45;&gt;Node17 -->
<g id="edge16" class="edge">
<title>Node1&#45;&gt;Node17</title>
<path fill="none" stroke="#63b8ff" d="M571.17,-116.52C475.9,-112.36 281.81,-100.81 220,-74 196.08,-63.62 174.15,-42.74 160.48,-27.76"/>
<polygon fill="#63b8ff" stroke="#63b8ff" points="163.32,-25.68 154.09,-20.47 158.06,-30.3 163.32,-25.68"/>
</g>
<!-- Node18 -->
<g id="node18" class="node">
<title>Node18</title>
<g id="a_node18"><a xlink:title=" ">
<polygon fill="#e0e0e0" stroke="#999999" points="254,-19 196,-19 196,0 254,0 254,-19"/>
<text text-anchor="middle" x="225" y="-7" font-family="Helvetica,sans-Serif" font-size="10.00">lwip/tcp.h</text>
</a>
</g>
</g>
<!-- Node1&#45;&gt;Node18 -->
<g id="edge17" class="edge">
<title>Node1&#45;&gt;Node18</title>
<path fill="none" stroke="#63b8ff" d="M571.26,-115.94C469.98,-110.6 258.83,-96.84 235,-74 223.53,-63.01 221.72,-44.62 222.38,-30.45"/>
<polygon fill="#63b8ff" stroke="#63b8ff" points="225.83,-31.16 223.27,-20.88 218.86,-30.51 225.83,-31.16"/>
</g>
<!-- Node19 -->
<g id="node19" class="node">
<title>Node19</title>
<g id="a_node19"><a xlink:title=" ">
<polygon fill="#e0e0e0" stroke="#999999" points="1434.5,-74 1355.5,-74 1355.5,-55 1434.5,-55 1434.5,-74"/>
<text text-anchor="middle" x="1395" y="-62" font-family="Helvetica,sans-Serif" font-size="10.00">lwip/tcpbase.h</text>
</a>
</g>
</g>
<!-- Node1&#45;&gt;Node19 -->
<g id="edge18" class="edge">
<title>Node1&#45;&gt;Node19</title>
<path fill="none" stroke="#63b8ff" d="M679,-117.2C797.44,-113.91 1089.11,-103.41 1343.87,-74.1"/>
<polygon fill="#63b8ff" stroke="#63b8ff" points="1344.18,-77.59 1353.7,-72.96 1343.37,-70.63 1344.18,-77.59"/>
</g>
<!-- Node20 -->
<g id="node20" class="node">
<title>Node20</title>
<g id="a_node20"><a xlink:title=" ">
<polygon fill="#e0e0e0" stroke="#999999" points="1517,-74 1453,-74 1453,-55 1517,-55 1517,-74"/>
<text text-anchor="middle" x="1485" y="-62" font-family="Helvetica,sans-Serif" font-size="10.00">pico/time.h</text>
</a>
</g>
</g>
<!-- Node1&#45;&gt;Node20 -->
<g id="edge19" class="edge">
<title>Node1&#45;&gt;Node20</title>
<path fill="none" stroke="#63b8ff" d="M678.92,-118.36C808.65,-117.43 1148.57,-111.44 1441.57,-74.1"/>
<polygon fill="#63b8ff" stroke="#63b8ff" points="1441.88,-77.59 1451.35,-72.84 1440.98,-70.64 1441.88,-77.59"/>
</g>
<!-- Node21 -->
<g id="node21" class="node">
<title>Node21</title>
<g id="a_node21"><a xlink:href="wifi_8h.html" target="_top" xlink:title="Header file for WiFi module. This file contains the function prototypes and data structures for the W...">
<polygon fill="white" stroke="#666666" points="150,-74 112,-74 112,-55 150,-55 150,-74"/>
<text text-anchor="middle" x="131" y="-62" font-family="Helvetica,sans-Serif" font-size="10.00">wifi.h</text>
</a>
</g>
</g>
<!-- Node1&#45;&gt;Node21 -->
<g id="edge20" class="edge">
<title>Node1&#45;&gt;Node21</title>
<path fill="none" stroke="#63b8ff" d="M571.04,-116.02C484.59,-111.44 309.91,-99.67 164,-74 163.17,-73.85 162.33,-73.7 161.48,-73.53"/>
<polygon fill="#63b8ff" stroke="#63b8ff" points="162.44,-70.16 151.91,-71.37 160.9,-76.99 162.44,-70.16"/>
</g>
<!-- Node21&#45;&gt;Node3 -->
<g id="edge21" class="edge">
<title>Node21&#45;&gt;Node3</title>
<path fill="none" stroke="#63b8ff" d="M121.33,-54.51C113.26,-47 101.53,-36.1 91.78,-27.03"/>
<polygon fill="#63b8ff" stroke="#63b8ff" points="94.34,-24.63 84.63,-20.39 89.57,-29.76 94.34,-24.63"/>
</g>
<!-- Node21&#45;&gt;Node17 -->
<g id="edge22" class="edge">
<title>Node21&#45;&gt;Node17</title>
<path fill="none" stroke="#63b8ff" d="M133.48,-54.75C135.35,-48.11 138.01,-38.73 140.39,-30.31"/>
<polygon fill="#63b8ff" stroke="#63b8ff" points="143.7,-31.47 143.06,-20.9 136.97,-29.57 143.7,-31.47"/>
</g>
<!-- Node21&#45;&gt;Node18 -->
<g id="edge23" class="edge">
<title>Node21&#45;&gt;Node18</title>
<path fill="none" stroke="#63b8ff" d="M146.95,-54.51C161.35,-46.39 182.79,-34.3 199.56,-24.85"/>
<polygon fill="#63b8ff" stroke="#63b8ff" points="200.98,-28.06 207.97,-20.1 197.54,-21.96 200.98,-28.06"/>
</g>
</g>
</svg>
