<?xml version="1.0" encoding="UTF-8" standalone="no"?>
<!DOCTYPE svg PUBLIC "-//W3C//DTD SVG 1.1//EN"
 "http://www.w3.org/Graphics/SVG/1.1/DTD/svg11.dtd">
<!-- Generated by graphviz version 7.0.5 (20221223.1930)
 -->
<!-- Title: src/drivers/wifi/wifi.c Pages: 1 -->
<svg width="1490pt" height="137pt"
 viewBox="0.00 0.00 1490.00 137.00" xmlns="http://www.w3.org/2000/svg" xmlns:xlink="http://www.w3.org/1999/xlink">
<g id="graph0" class="graph" transform="scale(1 1) rotate(0) translate(4 133)">
<title>src/drivers/wifi/wifi.c</title>
<!-- Node1 -->
<g id="node1" class="node">
<title>Node1</title>
<g id="a_node1"><a xlink:title="This file contains the implementation of a TCP server using lwIP. The TCP server is initialized using...">
<polygon fill="#999999" stroke="#666666" points="677,-129 573,-129 573,-110 677,-110 677,-129"/>
<text text-anchor="middle" x="625" y="-117" font-family="Helvetica,sans-Serif" font-size="10.00">src/drivers/wifi/wifi.c</text>
</a>
</g>
</g>
<!-- Node2 -->
<g id="node2" class="node">
<title>Node2</title>
<g id="a_node2"><a xlink:title=" ">
<polygon fill="#e0e0e0" stroke="#999999" points="56,-74 0,-74 0,-55 56,-55 56,-74"/>
<text text-anchor="middle" x="28" y="-62" font-family="Helvetica,sans-Serif" font-size="10.00">stdbool.h</text>
</a>
</g>
</g>
<!-- Node1&#45;&gt;Node2 -->
<g id="edge1" class="edge">
<title>Node1&#45;&gt;Node2</title>
<path fill="none" stroke="#63b8ff" d="M572.74,-116.4C474.08,-111.97 253.78,-99.87 70,-74 69.17,-73.88 68.33,-73.76 67.49,-73.63"/>
<polygon fill="#63b8ff" stroke="#63b8ff" points="68.33,-70.22 57.88,-71.98 67.14,-77.12 68.33,-70.22"/>
</g>
<!-- Node3 -->
<g id="node3" class="node">
<title>Node3</title>
<g id="a_node3"><a xlink:title=" ">
<polygon fill="#e0e0e0" stroke="#999999" points="121.5,-19 76.5,-19 76.5,0 121.5,0 121.5,-19"/>
<text text-anchor="middle" x="99" y="-7" font-family="Helvetica,sans-Serif" font-size="10.00">stdio.h</text>
</a>
</g>
</g>
<!-- Node1&#45;&gt;Node3 -->
<g id="edge2" class="edge">
<title>Node1&#45;&gt;Node3</title>
<path fill="none" stroke="#63b8ff" d="M572.94,-116.57C453.86,-111.76 169.07,-97.88 133,-74 117.85,-63.97 108.94,-44.87 104.07,-30.22"/>
<polygon fill="#63b8ff" stroke="#63b8ff" points="107.46,-29.34 101.31,-20.72 100.74,-31.3 107.46,-29.34"/>
</g>
<!-- Node4 -->
<g id="node4" class="node">
<title>Node4</title>
<g id="a_node4"><a xlink:title=" ">
<polygon fill="#e0e0e0" stroke="#999999" points="342,-74 294,-74 294,-55 342,-55 342,-74"/>
<text text-anchor="middle" x="318" y="-62" font-family="Helvetica,sans-Serif" font-size="10.00">string.h</text>
</a>
</g>
</g>
<!-- Node1&#45;&gt;Node4 -->
<g id="edge3" class="edge">
<title>Node1&#45;&gt;Node4</title>
<path fill="none" stroke="#63b8ff" d="M572.68,-111.3C519.92,-103.74 435.92,-90.89 353.54,-74.15"/>
<polygon fill="#63b8ff" stroke="#63b8ff" points="354.44,-70.76 343.94,-72.18 353.03,-77.62 354.44,-70.76"/>
</g>
<!-- Node5 -->
<g id="node5" class="node">
<title>Node5</title>
<g id="a_node5"><a xlink:title=" ">
<polygon fill="#e0e0e0" stroke="#999999" points="407.5,-74 360.5,-74 360.5,-55 407.5,-55 407.5,-74"/>
<text text-anchor="middle" x="384" y="-62" font-family="Helvetica,sans-Serif" font-size="10.00">stdlib.h</text>
</a>
</g>
</g>
<!-- Node1&#45;&gt;Node5 -->
<g id="edge4" class="edge">
<title>Node1&#45;&gt;Node5</title>
<path fill="none" stroke="#63b8ff" d="M580.65,-109.57C540.85,-101.42 480.57,-88.79 418.89,-74.36"/>
<polygon fill="#63b8ff" stroke="#63b8ff" points="419.77,-70.98 409.24,-72.09 418.17,-77.79 419.77,-70.98"/>
</g>
<!-- Node6 -->
<g id="node6" class="node">
<title>Node6</title>
<g id="a_node6"><a xlink:title=" ">
<polygon fill="#e0e0e0" stroke="#999999" points="474,-74 426,-74 426,-55 474,-55 474,-74"/>
<text text-anchor="middle" x="450" y="-62" font-family="Helvetica,sans-Serif" font-size="10.00">stdint.h</text>
</a>
</g>
</g>
<!-- Node1&#45;&gt;Node6 -->
<g id="edge5" class="edge">
<title>Node1&#45;&gt;Node6</title>
<path fill="none" stroke="#63b8ff" d="M595.31,-109.51C564.87,-100.29 517.53,-85.95 485.21,-76.16"/>
<polygon fill="#63b8ff" stroke="#63b8ff" points="486.49,-72.89 475.91,-73.35 484.46,-79.59 486.49,-72.89"/>
</g>
<!-- Node7 -->
<g id="node7" class="node">
<title>Node7</title>
<g id="a_node7"><a xlink:title=" ">
<polygon fill="#e0e0e0" stroke="#999999" points="558,-74 492,-74 492,-55 558,-55 558,-74"/>
<text text-anchor="middle" x="525" y="-62" font-family="Helvetica,sans-Serif" font-size="10.00">sys/cdefs.h</text>
</a>
</g>
</g>
<!-- Node1&#45;&gt;Node7 -->
<g id="edge6" class="edge">
<title>Node1&#45;&gt;Node7</title>
<path fill="none" stroke="#63b8ff" d="M608.04,-109.51C592.64,-101.35 569.69,-89.19 551.81,-79.71"/>
<polygon fill="#63b8ff" stroke="#63b8ff" points="553.53,-76.66 543.05,-75.07 550.25,-82.84 553.53,-76.66"/>
</g>
<!-- Node8 -->
<g id="node8" class="node">
<title>Node8</title>
<g id="a_node8"><a xlink:title=" ">
<polygon fill="#e0e0e0" stroke="#999999" points="673.5,-74 576.5,-74 576.5,-55 673.5,-55 673.5,-74"/>
<text text-anchor="middle" x="625" y="-62" font-family="Helvetica,sans-Serif" font-size="10.00">pico/cyw43_arch.h</text>
</a>
</g>
</g>
<!-- Node1&#45;&gt;Node8 -->
<g id="edge7" class="edge">
<title>Node1&#45;&gt;Node8</title>
<path fill="none" stroke="#63b8ff" d="M625,-109.75C625,-103.27 625,-94.16 625,-85.9"/>
<polygon fill="#63b8ff" stroke="#63b8ff" points="628.5,-85.96 625,-75.96 621.5,-85.96 628.5,-85.96"/>
</g>
<!-- Node9 -->
<g id="node9" class="node">
<title>Node9</title>
<g id="a_node9"><a xlink:title=" ">
<polygon fill="#e0e0e0" stroke="#999999" points="790.5,-74 691.5,-74 691.5,-55 790.5,-55 790.5,-74"/>
<text text-anchor="middle" x="741" y="-62" font-family="Helvetica,sans-Serif" font-size="10.00">cyw43_configport.h</text>
</a>
</g>
</g>
<!-- Node1&#45;&gt;Node9 -->
<g id="edge8" class="edge">
<title>Node1&#45;&gt;Node9</title>
<path fill="none" stroke="#63b8ff" d="M644.68,-109.51C662.95,-101.16 690.41,-88.61 711.35,-79.05"/>
<polygon fill="#63b8ff" stroke="#63b8ff" points="712.6,-82.33 720.24,-74.99 709.69,-75.96 712.6,-82.33"/>
</g>
<!-- Node10 -->
<g id="node10" class="node">
<title>Node10</title>
<g id="a_node10"><a xlink:title=" ">
<polygon fill="#e0e0e0" stroke="#999999" points="871,-74 809,-74 809,-55 871,-55 871,-74"/>
<text text-anchor="middle" x="840" y="-62" font-family="Helvetica,sans-Serif" font-size="10.00">cyw43_ll.h</text>
</a>
</g>
</g>
<!-- Node1&#45;&gt;Node10 -->
<g id="edge9" class="edge">
<title>Node1&#45;&gt;Node10</title>
<path fill="none" stroke="#63b8ff" d="M661.47,-109.51C699.09,-100.24 757.72,-85.78 797.43,-75.99"/>
<polygon fill="#63b8ff" stroke="#63b8ff" points="798.26,-79.39 807.13,-73.6 796.59,-72.6 798.26,-79.39"/>
</g>
<!-- Node11 -->
<g id="node11" class="node">
<title>Node11</title>
<g id="a_node11"><a xlink:title=" ">
<polygon fill="#e0e0e0" stroke="#999999" points="970.5,-74 889.5,-74 889.5,-55 970.5,-55 970.5,-74"/>
<text text-anchor="middle" x="930" y="-62" font-family="Helvetica,sans-Serif" font-size="10.00">lwip/ip4_addr.h</text>
</a>
</g>
</g>
<!-- Node1&#45;&gt;Node11 -->
<g id="edge10" class="edge">
<title>Node1&#45;&gt;Node11</title>
<path fill="none" stroke="#63b8ff" d="M676.74,-109.51C732.87,-99.76 821.96,-84.27 878.13,-74.51"/>
<polygon fill="#63b8ff" stroke="#63b8ff" points="878.51,-78 887.76,-72.84 877.31,-71.1 878.51,-78"/>
</g>
<!-- Node12 -->
<g id="node12" class="node">
<title>Node12</title>
<g id="a_node12"><a xlink:title=" ">
<polygon fill="#e0e0e0" stroke="#999999" points="1065,-74 989,-74 989,-55 1065,-55 1065,-74"/>
<text text-anchor="middle" x="1027" y="-62" font-family="Helvetica,sans-Serif" font-size="10.00">lwip/ip_addr.h</text>
</a>
</g>
</g>
<!-- Node1&#45;&gt;Node12 -->
<g id="edge11" class="edge">
<title>Node1&#45;&gt;Node12</title>
<path fill="none" stroke="#63b8ff" d="M677.45,-112.83C744.6,-105.36 864.79,-91.33 977.34,-74.34"/>
<polygon fill="#63b8ff" stroke="#63b8ff" points="977.7,-77.82 987.06,-72.86 976.65,-70.9 977.7,-77.82"/>
</g>
<!-- Node13 -->
<g id="node13" class="node">
<title>Node13</title>
<g id="a_node13"><a xlink:title=" ">
<polygon fill="#e0e0e0" stroke="#999999" points="1146.5,-74 1083.5,-74 1083.5,-55 1146.5,-55 1146.5,-74"/>
<text text-anchor="middle" x="1115" y="-62" font-family="Helvetica,sans-Serif" font-size="10.00">lwip/netif.h</text>
</a>
</g>
</g>
<!-- Node1&#45;&gt;Node13 -->
<g id="edge12" class="edge">
<title>Node1&#45;&gt;Node13</title>
<path fill="none" stroke="#63b8ff" d="M677.42,-115.11C759.39,-109.41 923.08,-96.45 1072.12,-74.12"/>
<polygon fill="#63b8ff" stroke="#63b8ff" points="1072.42,-77.61 1081.78,-72.65 1071.37,-70.69 1072.42,-77.61"/>
</g>
<!-- Node14 -->
<g id="node14" class="node">
<title>Node14</title>
<g id="a_node14"><a xlink:title=" ">
<polygon fill="#e0e0e0" stroke="#999999" points="1227.5,-74 1164.5,-74 1164.5,-55 1227.5,-55 1227.5,-74"/>
<text text-anchor="middle" x="1196" y="-62" font-family="Helvetica,sans-Serif" font-size="10.00">lwip/arch.h</text>
</a>
</g>
</g>
<!-- Node1&#45;&gt;Node14 -->
<g id="edge13" class="edge">
<title>Node1&#45;&gt;Node14</title>
<path fill="none" stroke="#63b8ff" d="M677.26,-116.3C770.79,-111.9 973.13,-100.22 1152.93,-74.28"/>
<polygon fill="#63b8ff" stroke="#63b8ff" points="1153.3,-77.77 1162.69,-72.86 1152.29,-70.84 1153.3,-77.77"/>
</g>
<!-- Node15 -->
<g id="node15" class="node">
<title>Node15</title>
<g id="a_node15"><a xlink:title=" ">
<polygon fill="#e0e0e0" stroke="#999999" points="1302,-74 1246,-74 1246,-55 1302,-55 1302,-74"/>
<text text-anchor="middle" x="1274" y="-62" font-family="Helvetica,sans-Serif" font-size="10.00">lwip/err.h</text>
</a>
</g>
</g>
<!-- Node1&#45;&gt;Node15 -->
<g id="edge14" class="edge">
<title>Node1&#45;&gt;Node15</title>
<path fill="none" stroke="#63b8ff" d="M677.29,-117.39C781.51,-114.61 1022.64,-105.26 1234.46,-74.14"/>
<polygon fill="#63b8ff" stroke="#63b8ff" points="1234.93,-77.61 1244.31,-72.67 1233.9,-70.68 1234.93,-77.61"/>
</g>
<!-- Node16 -->
<g id="node16" class="node">
<title>Node16</title>
<g id="a_node16"><a xlink:title=" ">
<polygon fill="#e0e0e0" stroke="#999999" points="210.5,-19 147.5,-19 147.5,0 210.5,0 210.5,-19"/>
<text text-anchor="middle" x="179" y="-7" font-family="Helvetica,sans-Serif" font-size="10.00">lwip/pbuf.h</text>
</a>
</g>
</g>
<!-- Node1&#45;&gt;Node16 -->
<g id="edge15" class="edge">
<title>Node1&#45;&gt;Node16</title>
<path fill="none" stroke="#63b8ff" d="M572.87,-117.59C453.76,-114.96 169.68,-105.44 141,-74 127.97,-59.72 143.39,-40.29 158.31,-26.7"/>
<polygon fill="#63b8ff" stroke="#63b8ff" points="160.32,-29.58 165.67,-20.43 155.78,-24.25 160.32,-29.58"/>
</g>
<!-- Node17 -->
<g id="node17" class="node">
<title>Node17</title>
<g id="a_node17"><a xlink:title=" ">
<polygon fill="#e0e0e0" stroke="#999999" points="291,-19 233,-19 233,0 291,0 291,-19"/>
<text text-anchor="middle" x="262" y="-7" font-family="Helvetica,sans-Serif" font-size="10.00">lwip/tcp.h</text>
</a>
</g>
</g>
<!-- Node1&#45;&gt;Node17 -->
<g id="edge16" class="edge">
<title>Node1&#45;&gt;Node17</title>
<path fill="none" stroke="#63b8ff" d="M572.66,-118.12C488.52,-116.47 328.22,-108.72 285,-74 271.85,-63.44 266.22,-44.69 263.8,-30.3"/>
<polygon fill="#63b8ff" stroke="#63b8ff" points="267.3,-30.08 262.59,-20.59 260.36,-30.94 267.3,-30.08"/>
</g>
<!-- Node18 -->
<g id="node18" class="node">
<title>Node18</title>
<g id="a_node18"><a xlink:title=" ">
<polygon fill="#e0e0e0" stroke="#999999" points="1399.5,-74 1320.5,-74 1320.5,-55 1399.5,-55 1399.5,-74"/>
<text text-anchor="middle" x="1360" y="-62" font-family="Helvetica,sans-Serif" font-size="10.00">lwip/tcpbase.h</text>
</a>
</g>
</g>
<!-- Node1&#45;&gt;Node18 -->
<g id="edge17" class="edge">
<title>Node1&#45;&gt;Node18</title>
<path fill="none" stroke="#63b8ff" d="M677.24,-117.02C790.42,-113.4 1066.92,-102.33 1309.07,-74.08"/>
<polygon fill="#63b8ff" stroke="#63b8ff" points="1309.18,-77.59 1318.7,-72.95 1308.36,-70.64 1309.18,-77.59"/>
</g>
<!-- Node19 -->
<g id="node19" class="node">
<title>Node19</title>
<g id="a_node19"><a xlink:title=" ">
<polygon fill="#e0e0e0" stroke="#999999" points="1482,-74 1418,-74 1418,-55 1482,-55 1482,-74"/>
<text text-anchor="middle" x="1450" y="-62" font-family="Helvetica,sans-Serif" font-size="10.00">pico/time.h</text>
</a>
</g>
</g>
<!-- Node1&#45;&gt;Node19 -->
<g id="edge18" class="edge">
<title>Node1&#45;&gt;Node19</title>
<path fill="none" stroke="#63b8ff" d="M677.08,-118.2C801.56,-116.9 1126.23,-110.17 1406.63,-74.1"/>
<polygon fill="#63b8ff" stroke="#63b8ff" points="1406.88,-77.59 1416.35,-72.83 1405.98,-70.65 1406.88,-77.59"/>
</g>
<!-- Node20 -->
<g id="node20" class="node">
<title>Node20</title>
<g id="a_node20"><a xlink:href="wifi_8h.html" target="_top" xlink:title="Header file for WiFi module. This file contains the function prototypes and data structures for the W...">
<polygon fill="white" stroke="#666666" points="238,-74 150,-74 150,-55 238,-55 238,-74"/>
<text text-anchor="middle" x="194" y="-62" font-family="Helvetica,sans-Serif" font-size="10.00">drivers/wifi/wifi.h</text>
</a>
</g>
</g>
<!-- Node1&#45;&gt;Node20 -->
<g id="edge19" class="edge">
<title>Node1&#45;&gt;Node20</title>
<path fill="none" stroke="#63b8ff" d="M572.75,-112.71C500.55,-104.62 366.26,-89.19 252,-74 251.17,-73.89 250.33,-73.78 249.48,-73.66"/>
<polygon fill="#63b8ff" stroke="#63b8ff" points="250.2,-70.23 239.82,-72.33 249.24,-77.16 250.2,-70.23"/>
</g>
<!-- Node20&#45;&gt;Node3 -->
<g id="edge20" class="edge">
<title>Node20&#45;&gt;Node3</title>
<path fill="none" stroke="#63b8ff" d="M177.88,-54.51C163.33,-46.39 141.66,-34.3 124.71,-24.85"/>
<polygon fill="#63b8ff" stroke="#63b8ff" points="126.64,-21.91 116.2,-20.1 123.23,-28.02 126.64,-21.91"/>
</g>
<!-- Node20&#45;&gt;Node16 -->
<g id="edge21" class="edge">
<title>Node20&#45;&gt;Node16</title>
<path fill="none" stroke="#63b8ff" d="M191.52,-54.75C189.65,-48.11 186.99,-38.73 184.61,-30.31"/>
<polygon fill="#63b8ff" stroke="#63b8ff" points="188.03,-29.57 181.94,-20.9 181.3,-31.47 188.03,-29.57"/>
</g>
<!-- Node20&#45;&gt;Node17 -->
<g id="edge22" class="edge">
<title>Node20&#45;&gt;Node17</title>
<path fill="none" stroke="#63b8ff" d="M205.54,-54.51C215.46,-46.77 230.01,-35.43 241.86,-26.2"/>
<polygon fill="#63b8ff" stroke="#63b8ff" points="243.71,-29.2 249.44,-20.29 239.4,-23.68 243.71,-29.2"/>
</g>
</g>
</svg>
