<?xml version="1.0" encoding="UTF-8" standalone="no"?>
<!DOCTYPE svg PUBLIC "-//W3C//DTD SVG 1.1//EN"
 "http://www.w3.org/Graphics/SVG/1.1/DTD/svg11.dtd">
<!-- Generated by graphviz version 7.0.5 (20221223.1930)
 -->
<!-- Title: main/driver/wifi/wifi.h Pages: 1 -->
<svg width="333pt" height="82pt"
 viewBox="0.00 0.00 333.00 82.00" xmlns="http://www.w3.org/2000/svg" xmlns:xlink="http://www.w3.org/1999/xlink">
<g id="graph0" class="graph" transform="scale(1 1) rotate(0) translate(4 78)">
<title>main/driver/wifi/wifi.h</title>
<!-- Node1 -->
<g id="node1" class="node">
<title>Node1</title>
<g id="a_node1"><a xlink:title="Header file for WiFi module. This file contains the function prototypes and data structures for the W...">
<polygon fill="#999999" stroke="#666666" points="238,-74 131,-74 131,-55 238,-55 238,-74"/>
<text text-anchor="middle" x="184.5" y="-62" font-family="Helvetica,sans-Serif" font-size="10.00">main/driver/wifi/wifi.h</text>
</a>
</g>
</g>
<!-- Node2 -->
<g id="node2" class="node">
<title>Node2</title>
<g id="a_node2"><a xlink:href="driver_2wifi_2main_8c.html" target="_top" xlink:title="Demonstration for the WiFi driver.">
<polygon fill="white" stroke="#666666" points="113,-19 0,-19 0,0 113,0 113,-19"/>
<text text-anchor="middle" x="56.5" y="-7" font-family="Helvetica,sans-Serif" font-size="10.00">main/driver/wifi/main.c</text>
</a>
</g>
</g>
<!-- Node1&#45;&gt;Node2 -->
<g id="edge1" class="edge">
<title>Node1&#45;&gt;Node2</title>
<path fill="none" stroke="#63b8ff" d="M152.36,-50.19C129.07,-40.55 98.23,-27.78 77.89,-19.36"/>
<polygon fill="#63b8ff" stroke="#63b8ff" points="150.81,-53.34 161.39,-53.93 153.49,-46.87 150.81,-53.34"/>
</g>
<!-- Node3 -->
<g id="node3" class="node">
<title>Node3</title>
<g id="a_node3"><a xlink:href="wifi_8c.html" target="_top" xlink:title="This file contains the implementation of a TCP server using lwIP. The TCP server is initialized using...">
<polygon fill="white" stroke="#666666" points="238,-19 131,-19 131,0 238,0 238,-19"/>
<text text-anchor="middle" x="184.5" y="-7" font-family="Helvetica,sans-Serif" font-size="10.00">main/driver/wifi/wifi.c</text>
</a>
</g>
</g>
<!-- Node1&#45;&gt;Node3 -->
<g id="edge2" class="edge">
<title>Node1&#45;&gt;Node3</title>
<path fill="none" stroke="#63b8ff" d="M184.5,-43.35C184.5,-35.1 184.5,-25.97 184.5,-19.44"/>
<polygon fill="#63b8ff" stroke="#63b8ff" points="181,-43.23 184.5,-53.23 188,-43.23 181,-43.23"/>
</g>
<!-- Node4 -->
<g id="node4" class="node">
<title>Node4</title>
<g id="a_node4"><a xlink:href="main_8c.html" target="_top" xlink:title="The main source file for robot control.">
<polygon fill="white" stroke="#666666" points="325,-19 256,-19 256,0 325,0 325,-19"/>
<text text-anchor="middle" x="290.5" y="-7" font-family="Helvetica,sans-Serif" font-size="10.00">main/main.c</text>
</a>
</g>
</g>
<!-- Node1&#45;&gt;Node4 -->
<g id="edge3" class="edge">
<title>Node1&#45;&gt;Node4</title>
<path fill="none" stroke="#63b8ff" d="M212.7,-49.4C231.78,-39.86 256.4,-27.55 272.78,-19.36"/>
<polygon fill="#63b8ff" stroke="#63b8ff" points="211.21,-46.23 203.84,-53.83 214.34,-52.49 211.21,-46.23"/>
</g>
</g>
</svg>
