<?xml version="1.0" encoding="UTF-8" standalone="no"?>
<!DOCTYPE svg PUBLIC "-//W3C//DTD SVG 1.1//EN"
 "http://www.w3.org/Graphics/SVG/1.1/DTD/svg11.dtd">
<!-- Generated by graphviz version 7.0.5 (20221223.1930)
 -->
<!-- Title: src/drivers/wifi/wifi.c Pages: 1 -->
<svg width="1440pt" height="137pt"
 viewBox="0.00 0.00 1440.00 137.00" xmlns="http://www.w3.org/2000/svg" xmlns:xlink="http://www.w3.org/1999/xlink">
<g id="graph0" class="graph" transform="scale(1 1) rotate(0) translate(4 133)">
<title>src/drivers/wifi/wifi.c</title>
<!-- Node1 -->
<g id="node1" class="node">
<title>Node1</title>
<g id="a_node1"><a xlink:title="This file contains the implementation of a TCP server using lwIP. The TCP server is initialized using...">
<polygon fill="#999999" stroke="#666666" points="627,-129 523,-129 523,-110 627,-110 627,-129"/>
<text text-anchor="middle" x="575" y="-117" font-family="Helvetica,sans-Serif" font-size="10.00">src/drivers/wifi/wifi.c</text>
</a>
</g>
</g>
<!-- Node2 -->
<g id="node2" class="node">
<title>Node2</title>
<g id="a_node2"><a xlink:title=" ">
<polygon fill="#e0e0e0" stroke="#999999" points="56,-74 0,-74 0,-55 56,-55 56,-74"/>
<text text-anchor="middle" x="28" y="-62" font-family="Helvetica,sans-Serif" font-size="10.00">stdbool.h</text>
</a>
</g>
</g>
<!-- Node1&#45;&gt;Node2 -->
<g id="edge1" class="edge">
<title>Node1&#45;&gt;Node2</title>
<path fill="none" stroke="#63b8ff" d="M522.8,-115.83C430.91,-110.7 234.41,-97.8 70,-74 69.17,-73.88 68.34,-73.75 67.49,-73.62"/>
<polygon fill="#63b8ff" stroke="#63b8ff" points="68.33,-70.22 57.88,-71.95 67.14,-77.11 68.33,-70.22"/>
</g>
<!-- Node3 -->
<g id="node3" class="node">
<title>Node3</title>
<g id="a_node3"><a xlink:title=" ">
<polygon fill="#e0e0e0" stroke="#999999" points="96.5,-19 51.5,-19 51.5,0 96.5,0 96.5,-19"/>
<text text-anchor="middle" x="74" y="-7" font-family="Helvetica,sans-Serif" font-size="10.00">stdio.h</text>
</a>
</g>
</g>
<!-- Node1&#45;&gt;Node3 -->
<g id="edge2" class="edge">
<title>Node1&#45;&gt;Node3</title>
<path fill="none" stroke="#63b8ff" d="M522.57,-118.07C419.88,-116.46 196.36,-108.92 129,-74 109.62,-63.95 94.1,-43.95 84.55,-29.06"/>
<polygon fill="#63b8ff" stroke="#63b8ff" points="87.63,-27.39 79.47,-20.64 81.64,-31.01 87.63,-27.39"/>
</g>
<!-- Node4 -->
<g id="node4" class="node">
<title>Node4</title>
<g id="a_node4"><a xlink:title=" ">
<polygon fill="#e0e0e0" stroke="#999999" points="292,-74 244,-74 244,-55 292,-55 292,-74"/>
<text text-anchor="middle" x="268" y="-62" font-family="Helvetica,sans-Serif" font-size="10.00">string.h</text>
</a>
</g>
</g>
<!-- Node1&#45;&gt;Node4 -->
<g id="edge3" class="edge">
<title>Node1&#45;&gt;Node4</title>
<path fill="none" stroke="#63b8ff" d="M522.68,-111.3C469.92,-103.74 385.92,-90.89 303.54,-74.15"/>
<polygon fill="#63b8ff" stroke="#63b8ff" points="304.44,-70.76 293.94,-72.18 303.03,-77.62 304.44,-70.76"/>
</g>
<!-- Node5 -->
<g id="node5" class="node">
<title>Node5</title>
<g id="a_node5"><a xlink:title=" ">
<polygon fill="#e0e0e0" stroke="#999999" points="357.5,-74 310.5,-74 310.5,-55 357.5,-55 357.5,-74"/>
<text text-anchor="middle" x="334" y="-62" font-family="Helvetica,sans-Serif" font-size="10.00">stdlib.h</text>
</a>
</g>
</g>
<!-- Node1&#45;&gt;Node5 -->
<g id="edge4" class="edge">
<title>Node1&#45;&gt;Node5</title>
<path fill="none" stroke="#63b8ff" d="M530.65,-109.57C490.85,-101.42 430.57,-88.79 368.89,-74.36"/>
<polygon fill="#63b8ff" stroke="#63b8ff" points="369.77,-70.98 359.24,-72.09 368.17,-77.79 369.77,-70.98"/>
</g>
<!-- Node6 -->
<g id="node6" class="node">
<title>Node6</title>
<g id="a_node6"><a xlink:title=" ">
<polygon fill="#e0e0e0" stroke="#999999" points="424,-74 376,-74 376,-55 424,-55 424,-74"/>
<text text-anchor="middle" x="400" y="-62" font-family="Helvetica,sans-Serif" font-size="10.00">stdint.h</text>
</a>
</g>
</g>
<!-- Node1&#45;&gt;Node6 -->
<g id="edge5" class="edge">
<title>Node1&#45;&gt;Node6</title>
<path fill="none" stroke="#63b8ff" d="M545.31,-109.51C514.87,-100.29 467.53,-85.95 435.21,-76.16"/>
<polygon fill="#63b8ff" stroke="#63b8ff" points="436.49,-72.89 425.91,-73.35 434.46,-79.59 436.49,-72.89"/>
</g>
<!-- Node7 -->
<g id="node7" class="node">
<title>Node7</title>
<g id="a_node7"><a xlink:title=" ">
<polygon fill="#e0e0e0" stroke="#999999" points="508,-74 442,-74 442,-55 508,-55 508,-74"/>
<text text-anchor="middle" x="475" y="-62" font-family="Helvetica,sans-Serif" font-size="10.00">sys/cdefs.h</text>
</a>
</g>
</g>
<!-- Node1&#45;&gt;Node7 -->
<g id="edge6" class="edge">
<title>Node1&#45;&gt;Node7</title>
<path fill="none" stroke="#63b8ff" d="M558.04,-109.51C542.64,-101.35 519.69,-89.19 501.81,-79.71"/>
<polygon fill="#63b8ff" stroke="#63b8ff" points="503.53,-76.66 493.05,-75.07 500.25,-82.84 503.53,-76.66"/>
</g>
<!-- Node8 -->
<g id="node8" class="node">
<title>Node8</title>
<g id="a_node8"><a xlink:title=" ">
<polygon fill="#e0e0e0" stroke="#999999" points="623.5,-74 526.5,-74 526.5,-55 623.5,-55 623.5,-74"/>
<text text-anchor="middle" x="575" y="-62" font-family="Helvetica,sans-Serif" font-size="10.00">pico/cyw43_arch.h</text>
</a>
</g>
</g>
<!-- Node1&#45;&gt;Node8 -->
<g id="edge7" class="edge">
<title>Node1&#45;&gt;Node8</title>
<path fill="none" stroke="#63b8ff" d="M575,-109.75C575,-103.27 575,-94.16 575,-85.9"/>
<polygon fill="#63b8ff" stroke="#63b8ff" points="578.5,-85.96 575,-75.96 571.5,-85.96 578.5,-85.96"/>
</g>
<!-- Node9 -->
<g id="node9" class="node">
<title>Node9</title>
<g id="a_node9"><a xlink:title=" ">
<polygon fill="#e0e0e0" stroke="#999999" points="740.5,-74 641.5,-74 641.5,-55 740.5,-55 740.5,-74"/>
<text text-anchor="middle" x="691" y="-62" font-family="Helvetica,sans-Serif" font-size="10.00">cyw43_configport.h</text>
</a>
</g>
</g>
<!-- Node1&#45;&gt;Node9 -->
<g id="edge8" class="edge">
<title>Node1&#45;&gt;Node9</title>
<path fill="none" stroke="#63b8ff" d="M594.68,-109.51C612.95,-101.16 640.41,-88.61 661.35,-79.05"/>
<polygon fill="#63b8ff" stroke="#63b8ff" points="662.6,-82.33 670.24,-74.99 659.69,-75.96 662.6,-82.33"/>
</g>
<!-- Node10 -->
<g id="node10" class="node">
<title>Node10</title>
<g id="a_node10"><a xlink:title=" ">
<polygon fill="#e0e0e0" stroke="#999999" points="821,-74 759,-74 759,-55 821,-55 821,-74"/>
<text text-anchor="middle" x="790" y="-62" font-family="Helvetica,sans-Serif" font-size="10.00">cyw43_ll.h</text>
</a>
</g>
</g>
<!-- Node1&#45;&gt;Node10 -->
<g id="edge9" class="edge">
<title>Node1&#45;&gt;Node10</title>
<path fill="none" stroke="#63b8ff" d="M611.47,-109.51C649.09,-100.24 707.72,-85.78 747.43,-75.99"/>
<polygon fill="#63b8ff" stroke="#63b8ff" points="748.26,-79.39 757.13,-73.6 746.59,-72.6 748.26,-79.39"/>
</g>
<!-- Node11 -->
<g id="node11" class="node">
<title>Node11</title>
<g id="a_node11"><a xlink:title=" ">
<polygon fill="#e0e0e0" stroke="#999999" points="920.5,-74 839.5,-74 839.5,-55 920.5,-55 920.5,-74"/>
<text text-anchor="middle" x="880" y="-62" font-family="Helvetica,sans-Serif" font-size="10.00">lwip/ip4_addr.h</text>
</a>
</g>
</g>
<!-- Node1&#45;&gt;Node11 -->
<g id="edge10" class="edge">
<title>Node1&#45;&gt;Node11</title>
<path fill="none" stroke="#63b8ff" d="M626.74,-109.51C682.87,-99.76 771.96,-84.27 828.13,-74.51"/>
<polygon fill="#63b8ff" stroke="#63b8ff" points="828.51,-78 837.76,-72.84 827.31,-71.1 828.51,-78"/>
</g>
<!-- Node12 -->
<g id="node12" class="node">
<title>Node12</title>
<g id="a_node12"><a xlink:title=" ">
<polygon fill="#e0e0e0" stroke="#999999" points="1015,-74 939,-74 939,-55 1015,-55 1015,-74"/>
<text text-anchor="middle" x="977" y="-62" font-family="Helvetica,sans-Serif" font-size="10.00">lwip/ip_addr.h</text>
</a>
</g>
</g>
<!-- Node1&#45;&gt;Node12 -->
<g id="edge11" class="edge">
<title>Node1&#45;&gt;Node12</title>
<path fill="none" stroke="#63b8ff" d="M627.45,-112.83C694.6,-105.36 814.79,-91.33 927.34,-74.34"/>
<polygon fill="#63b8ff" stroke="#63b8ff" points="927.7,-77.82 937.06,-72.86 926.65,-70.9 927.7,-77.82"/>
</g>
<!-- Node13 -->
<g id="node13" class="node">
<title>Node13</title>
<g id="a_node13"><a xlink:title=" ">
<polygon fill="#e0e0e0" stroke="#999999" points="1096.5,-74 1033.5,-74 1033.5,-55 1096.5,-55 1096.5,-74"/>
<text text-anchor="middle" x="1065" y="-62" font-family="Helvetica,sans-Serif" font-size="10.00">lwip/netif.h</text>
</a>
</g>
</g>
<!-- Node1&#45;&gt;Node13 -->
<g id="edge12" class="edge">
<title>Node1&#45;&gt;Node13</title>
<path fill="none" stroke="#63b8ff" d="M627.42,-115.11C709.39,-109.41 873.08,-96.45 1022.12,-74.12"/>
<polygon fill="#63b8ff" stroke="#63b8ff" points="1022.42,-77.61 1031.78,-72.65 1021.37,-70.69 1022.42,-77.61"/>
</g>
<!-- Node14 -->
<g id="node14" class="node">
<title>Node14</title>
<g id="a_node14"><a xlink:title=" ">
<polygon fill="#e0e0e0" stroke="#999999" points="1177.5,-74 1114.5,-74 1114.5,-55 1177.5,-55 1177.5,-74"/>
<text text-anchor="middle" x="1146" y="-62" font-family="Helvetica,sans-Serif" font-size="10.00">lwip/arch.h</text>
</a>
</g>
</g>
<!-- Node1&#45;&gt;Node14 -->
<g id="edge13" class="edge">
<title>Node1&#45;&gt;Node14</title>
<path fill="none" stroke="#63b8ff" d="M627.26,-116.3C720.79,-111.9 923.13,-100.22 1102.93,-74.28"/>
<polygon fill="#63b8ff" stroke="#63b8ff" points="1103.3,-77.77 1112.69,-72.86 1102.29,-70.84 1103.3,-77.77"/>
</g>
<!-- Node15 -->
<g id="node15" class="node">
<title>Node15</title>
<g id="a_node15"><a xlink:title=" ">
<polygon fill="#e0e0e0" stroke="#999999" points="1252,-74 1196,-74 1196,-55 1252,-55 1252,-74"/>
<text text-anchor="middle" x="1224" y="-62" font-family="Helvetica,sans-Serif" font-size="10.00">lwip/err.h</text>
</a>
</g>
</g>
<!-- Node1&#45;&gt;Node15 -->
<g id="edge14" class="edge">
<title>Node1&#45;&gt;Node15</title>
<path fill="none" stroke="#63b8ff" d="M627.29,-117.39C731.51,-114.61 972.64,-105.26 1184.46,-74.14"/>
<polygon fill="#63b8ff" stroke="#63b8ff" points="1184.93,-77.61 1194.31,-72.67 1183.9,-70.68 1184.93,-77.61"/>
</g>
<!-- Node16 -->
<g id="node16" class="node">
<title>Node16</title>
<g id="a_node16"><a xlink:title=" ">
<polygon fill="#e0e0e0" stroke="#999999" points="177.5,-19 114.5,-19 114.5,0 177.5,0 177.5,-19"/>
<text text-anchor="middle" x="146" y="-7" font-family="Helvetica,sans-Serif" font-size="10.00">lwip/pbuf.h</text>
</a>
</g>
</g>
<!-- Node1&#45;&gt;Node16 -->
<g id="edge15" class="edge">
<title>Node1&#45;&gt;Node16</title>
<path fill="none" stroke="#63b8ff" d="M522.55,-116.98C412.63,-113.26 166.15,-101.87 141,-74 130.35,-62.2 133.24,-43.63 137.82,-29.61"/>
<polygon fill="#63b8ff" stroke="#63b8ff" points="140.97,-31.16 141.26,-20.57 134.43,-28.67 140.97,-31.16"/>
</g>
<!-- Node17 -->
<g id="node17" class="node">
<title>Node17</title>
<g id="a_node17"><a xlink:title=" ">
<polygon fill="#e0e0e0" stroke="#999999" points="254,-19 196,-19 196,0 254,0 254,-19"/>
<text text-anchor="middle" x="225" y="-7" font-family="Helvetica,sans-Serif" font-size="10.00">lwip/tcp.h</text>
</a>
</g>
</g>
<!-- Node1&#45;&gt;Node17 -->
<g id="edge16" class="edge">
<title>Node1&#45;&gt;Node17</title>
<path fill="none" stroke="#63b8ff" d="M522.56,-119.01C437.47,-118.67 274.81,-112.79 235,-74 223.62,-62.92 221.81,-44.53 222.43,-30.39"/>
<polygon fill="#63b8ff" stroke="#63b8ff" points="225.88,-31.13 223.3,-20.85 218.91,-30.49 225.88,-31.13"/>
</g>
<!-- Node18 -->
<g id="node18" class="node">
<title>Node18</title>
<g id="a_node18"><a xlink:title=" ">
<polygon fill="#e0e0e0" stroke="#999999" points="1349.5,-74 1270.5,-74 1270.5,-55 1349.5,-55 1349.5,-74"/>
<text text-anchor="middle" x="1310" y="-62" font-family="Helvetica,sans-Serif" font-size="10.00">lwip/tcpbase.h</text>
</a>
</g>
</g>
<!-- Node1&#45;&gt;Node18 -->
<g id="edge17" class="edge">
<title>Node1&#45;&gt;Node18</title>
<path fill="none" stroke="#63b8ff" d="M627.24,-117.02C740.42,-113.4 1016.92,-102.33 1259.07,-74.08"/>
<polygon fill="#63b8ff" stroke="#63b8ff" points="1259.18,-77.59 1268.7,-72.95 1258.36,-70.64 1259.18,-77.59"/>
</g>
<!-- Node19 -->
<g id="node19" class="node">
<title>Node19</title>
<g id="a_node19"><a xlink:title=" ">
<polygon fill="#e0e0e0" stroke="#999999" points="1432,-74 1368,-74 1368,-55 1432,-55 1432,-74"/>
<text text-anchor="middle" x="1400" y="-62" font-family="Helvetica,sans-Serif" font-size="10.00">pico/time.h</text>
</a>
</g>
</g>
<!-- Node1&#45;&gt;Node19 -->
<g id="edge18" class="edge">
<title>Node1&#45;&gt;Node19</title>
<path fill="none" stroke="#63b8ff" d="M627.08,-118.2C751.56,-116.9 1076.23,-110.17 1356.63,-74.1"/>
<polygon fill="#63b8ff" stroke="#63b8ff" points="1356.88,-77.59 1366.35,-72.83 1355.98,-70.65 1356.88,-77.59"/>
</g>
<!-- Node20 -->
<g id="node20" class="node">
<title>Node20</title>
<g id="a_node20"><a xlink:href="wifi_8h.html" target="_top" xlink:title="Header file for WiFi module. This file contains the function prototypes and data structures for the W...">
<polygon fill="white" stroke="#666666" points="188,-74 150,-74 150,-55 188,-55 188,-74"/>
<text text-anchor="middle" x="169" y="-62" font-family="Helvetica,sans-Serif" font-size="10.00">wifi.h</text>
</a>
</g>
</g>
<!-- Node1&#45;&gt;Node20 -->
<g id="edge19" class="edge">
<title>Node1&#45;&gt;Node20</title>
<path fill="none" stroke="#63b8ff" d="M522.77,-114.48C450.33,-108.41 315.45,-95.28 202,-74 201.17,-73.84 200.33,-73.68 199.49,-73.51"/>
<polygon fill="#63b8ff" stroke="#63b8ff" points="200.45,-70.14 189.92,-71.31 198.88,-76.96 200.45,-70.14"/>
</g>
<!-- Node20&#45;&gt;Node3 -->
<g id="edge20" class="edge">
<title>Node20&#45;&gt;Node3</title>
<path fill="none" stroke="#63b8ff" d="M152.88,-54.51C138.33,-46.39 116.66,-34.3 99.71,-24.85"/>
<polygon fill="#63b8ff" stroke="#63b8ff" points="101.64,-21.91 91.2,-20.1 98.23,-28.02 101.64,-21.91"/>
</g>
<!-- Node20&#45;&gt;Node16 -->
<g id="edge21" class="edge">
<title>Node20&#45;&gt;Node16</title>
<path fill="none" stroke="#63b8ff" d="M165.2,-54.75C162.26,-47.96 158.06,-38.3 154.35,-29.73"/>
<polygon fill="#63b8ff" stroke="#63b8ff" points="157.67,-28.61 150.48,-20.83 151.25,-31.4 157.67,-28.61"/>
</g>
<!-- Node20&#45;&gt;Node17 -->
<g id="edge22" class="edge">
<title>Node20&#45;&gt;Node17</title>
<path fill="none" stroke="#63b8ff" d="M178.5,-54.51C186.43,-47 197.95,-36.1 207.54,-27.03"/>
<polygon fill="#63b8ff" stroke="#63b8ff" points="209.68,-29.81 214.54,-20.4 204.87,-24.73 209.68,-29.81"/>
</g>
</g>
</svg>
